<svg width="44" height="44" viewBox="0 0 44 44" fill="none" xmlns="http://www.w3.org/2000/svg">
<path d="M0 22C0 9.84974 9.84974 0 22 0C34.1503 0 44 9.84974 44 22C44 34.1503 34.1503 44 22 44C9.84974 44 0 34.1503 0 22Z" fill="#EEEDEC"/>
<path d="M24.8154 28.9951C26.4737 28.9951 27.8184 29.9195 27.8184 31.0596C27.8184 31.1079 27.8143 31.1556 27.8096 31.2031C27.9648 31.3884 28.077 31.5907 28.1387 31.8047C28.41 32.1296 28.5684 32.5179 28.5684 32.9355C28.5682 34.0755 27.3922 34.9999 25.9414 35C25.0326 35 24.2315 34.637 23.7598 34.0859C22.6157 33.7723 21.8125 33.0392 21.8125 32.1846C21.8126 31.9917 21.8541 31.805 21.9307 31.6279C21.8554 31.4471 21.8125 31.257 21.8125 31.0596C21.8125 29.9195 23.1572 28.9952 24.8154 28.9951ZM13.1807 26.3672C14.8388 26.3673 16.1826 27.7119 16.1826 29.3701C16.1826 29.645 16.1415 29.9102 16.0723 30.1631C16.6219 29.6813 17.4758 29.3701 18.4355 29.3701C20.0936 29.3703 21.4374 30.2947 21.4375 31.4346C21.4375 31.9597 21.1504 32.4365 20.6807 32.8008C20.6278 33.6051 19.393 34.249 17.8721 34.249C16.3174 34.249 15.0566 33.5762 15.0566 32.7471C15.0568 32.4426 15.2273 32.1595 15.5195 31.9229C15.4641 31.7661 15.4326 31.603 15.4326 31.4346C15.4326 31.4051 15.4338 31.3758 15.4355 31.3467C14.8854 31.9738 14.0806 32.372 13.1807 32.3721C13.0117 32.3721 12.846 32.3569 12.6846 32.3301C12.4207 32.3566 12.1467 32.3721 11.8662 32.3721C9.68996 32.372 7.92588 31.5314 7.92578 30.4951C7.9258 29.7081 8.94323 28.7104 10.3857 28.2754C10.8234 27.1587 11.9088 26.3672 13.1807 26.3672ZM31.7588 27.1191C33.2418 27.1191 34.4536 27.8844 34.5625 28.8545C35.4616 29.1992 36.0752 29.8891 36.0752 30.6846C36.0751 31.6528 35.1658 32.4627 33.9395 32.6855C33.4507 32.9583 32.8211 33.124 32.1338 33.124C30.7653 33.1239 29.6253 32.4723 29.3721 31.6094C28.6562 31.2664 28.1934 30.7284 28.1934 30.1211C28.1935 29.6426 28.4813 29.2074 28.9531 28.876C29.0463 27.8957 30.2649 27.1192 31.7588 27.1191Z" fill="#EBD8FF"/>
<path d="M35.8439 19.6636C35.8439 25.5353 33.4044 30.3097 25.942 30.3097C15.0576 32.5617 8.82031 25.5353 8.82031 19.6636C8.82031 13.7919 14.8697 9.03189 22.3321 9.03189C29.883 8.5411 35.8439 13.7919 35.8439 19.6636Z" fill="#F9EBFF"/>
<ellipse cx="21.6258" cy="21.11" rx="0.938318" ry="0.750654" fill="#EBAFF1"/>
<path d="M21.5047 9.11396C20.846 9.04673 19.6703 9.26858 19.0272 9.40505C18.4167 9.53459 17.5412 9.83061 17.1736 9.93145C16.5795 10.0944 15.5127 10.5459 14.8381 10.7936C13.5952 11.2501 12.7746 11.8891 12.2165 12.317C11.324 13.0013 10.5761 13.8616 10.1501 14.5571C9.90017 14.9651 9.56048 15.9645 9.34658 16.5638C9.2505 16.8331 9.20493 17.2902 9.16916 17.6731C9.11688 18.2327 9.06328 18.9051 9.05088 20.536C9.04468 21.3526 9.32109 21.8833 9.40502 22.3455C9.46212 22.6599 9.6993 23.0947 9.82962 23.5552C9.93281 23.9199 10.1243 24.1717 10.3251 24.7085C10.5326 25.2633 10.715 25.5163 10.88 25.7297C11.1181 26.0377 11.562 26.7681 11.8715 27.242C12.0311 27.4864 12.436 27.8679 12.8036 28.161C13.2843 28.5443 13.9007 28.8562 14.3494 29.0239C14.5994 29.1174 14.8222 29.2374 15.0694 29.3043C15.3529 29.381 16.2557 29.6838 17.623 30.0196C18.6067 30.2611 19.1426 30.3352 19.5183 30.4024C20.1636 30.5179 20.7008 30.4475 21.953 30.4811C23.088 30.5116 25.2386 30.4925 26.51 30.426C28.5668 30.3183 29.0094 29.956 29.6239 29.7537C30.1344 29.5855 30.545 29.4169 31.181 29.0938C32.3558 28.4972 32.7406 28.118 33.3894 27.2914C33.7416 26.8427 34.0381 26.1281 34.2765 25.564C34.5324 24.9582 34.7719 24.3317 34.9022 23.9949C35.0174 23.6972 35.1742 23.3677 35.3034 23.0204C35.495 22.5058 35.5991 21.4678 35.6579 20.57C35.8017 18.3739 35.5283 17.8792 35.4462 17.5185C35.3736 17.1999 35.1515 16.8694 34.8919 16.2764C34.5689 15.5386 34.3724 15.1215 34.1599 14.8519C33.7867 14.3783 33.2647 13.8011 32.8617 13.306C32.6244 13.0144 32.3893 12.79 32.1414 12.5436C31.8915 12.2953 31.5875 12.0061 30.9271 11.4243C30.5896 11.127 29.984 10.7745 29.5799 10.4595C29.2802 10.2259 28.9429 10.1009 28.6475 9.91027C28.3085 9.69148 27.8819 9.56304 27.2908 9.50623C26.9123 9.42791 25.8965 9.35764 24.7924 9.32707C24.0804 9.30735 22.7643 9.11396 21.7048 9.11396" stroke="#DF91D3" stroke-linecap="round"/>
<path d="M11.4342 26.7422C10.65 27.7049 10.4035 27.9573 9.93002 28.2613C9.66366 28.4323 9.14564 28.6759 8.82458 28.8681C8.36028 29.146 8.21363 29.3397 8.13125 29.4597C8.02973 29.6075 7.97949 29.7956 7.9382 30.1545C7.90715 30.4244 7.92416 30.8773 8.10813 31.248C8.29209 31.6187 8.66002 31.8947 9.18342 32.131C9.70682 32.3673 10.3745 32.5555 11.0115 32.6587C11.6485 32.7619 12.2344 32.7745 12.7816 32.6994C13.3287 32.6243 13.8193 32.4612 14.181 32.2956C14.7907 32.0166 15.0672 31.7236 15.2524 31.5343C15.8141 30.96 16.017 30.3047 16.1002 30.0635C16.114 30.0123 16.1276 29.9747 16.1415 29.9365C16.1553 29.8983 16.1689 29.8606 16.183 29.7838" stroke="#DF91D3" stroke-linecap="round"/>
<path d="M16.1781 29.7461C15.6418 31.147 15.4337 31.6548 15.269 32.039C15.1229 32.3798 15.0529 32.6894 15.059 33.2042C15.0639 33.6243 15.7439 33.8999 16.2851 34.0781C16.5864 34.1773 16.9688 34.2058 17.3956 34.2318C17.8224 34.2578 18.2888 34.2578 18.6587 34.2199C19.6549 34.118 19.9975 33.7623 20.2538 33.6147C20.6158 33.4063 20.9264 32.8852 21.1637 32.3606C21.378 31.8869 21.3606 31.5829 21.3932 31.2264C21.3999 30.8343 21.4128 30.5494 21.4325 30.4731C21.4392 30.4347 21.4392 30.3968 21.4392 30.3579" stroke="#DF91D3" stroke-linecap="round"/>
<path d="M21.4375 30.5344C21.4375 30.6104 21.4922 31.0797 21.5887 31.7759C21.6383 32.1332 21.6997 32.3103 21.7888 32.59C21.9478 33.0894 22.2785 33.5113 22.636 33.7981C23.0999 34.1702 23.6042 34.3047 24.0096 34.413C24.2746 34.4838 24.6748 34.534 25.255 34.5729C25.8352 34.6118 26.5872 34.6245 27.0565 34.6247C27.5259 34.6249 27.69 34.6122 27.8429 34.5424C28.1648 34.3955 28.328 34.1271 28.4245 33.9486C28.7113 33.4183 28.4946 32.5937 28.4187 32.4077C28.3206 32.167 28.1772 31.9924 28.1285 31.7943C27.9974 31.5322 27.9145 31.3528 27.8731 31.1815C27.859 31.0356 27.859 30.7699 27.859 30.4961" stroke="#DF91D3" stroke-linecap="round"/>
<path d="M28.1967 30.6194C28.17 30.6674 28.5168 31.1241 29.1431 31.8446C29.3997 32.1398 29.5691 32.2651 29.8586 32.4351C30.1481 32.6051 30.562 32.8091 30.9221 32.9322C31.2821 33.0553 31.5759 33.0913 32.0209 33.1098C32.466 33.1284 33.0534 33.1284 33.4495 33.0924C34.0418 33.0386 34.4788 32.7302 34.8832 32.4335C35.0881 32.2831 35.1953 32.0873 35.3768 31.6773C35.6753 31.0029 35.7221 30.3906 35.6954 30.1243C35.6639 29.8099 35.4259 29.6747 34.7404 29.0521C34.3748 28.718 33.9969 28.2333 33.8145 27.954C33.7671 27.8573 33.7137 27.7133 33.6587 27.4922" stroke="#DF91D3" stroke-linecap="round"/>
<path d="M16.8653 17.4054C16.8264 17.5673 16.7876 17.7292 16.7805 17.819C16.7735 17.9089 16.7994 17.9218 16.8289 17.9285C16.8896 17.9422 16.95 17.9287 16.999 17.9092C17.1049 17.867 17.1788 17.759 17.2151 17.6675C17.2439 17.5949 17.2055 17.5233 17.1665 17.4745C17.1419 17.4437 17.1015 17.4062 17.0589 17.3862C17.0162 17.3662 16.9708 17.3662 16.9281 17.3856C16.8368 17.4271 16.7999 17.5033 16.7869 17.5425C16.7672 17.6599 16.7801 17.7976 16.8062 17.8335C16.8194 17.85 16.8323 17.863 16.8457 17.8763" stroke="#DF91D3" stroke-linecap="round"/>
<path d="M26.1656 17.3876C26.1138 17.5948 26.0935 17.7209 26.1098 17.7569C26.1252 17.7907 26.1718 17.8191 26.2467 17.8485C26.2932 17.8668 26.3669 17.8585 26.4165 17.8455C26.4662 17.8326 26.4921 17.8067 26.5054 17.7804C26.5508 17.691 26.5384 17.5844 26.5286 17.4864C26.5246 17.4457 26.4995 17.4272 26.4539 17.4172C26.4083 17.4072 26.337 17.4072 26.2842 17.4234C26.2313 17.4396 26.1989 17.4719 26.179 17.4983C26.1471 17.5405 26.1459 17.603 26.1524 17.6716C26.1553 17.7019 26.1718 17.7207 26.185 17.7372C26.2095 17.768 26.2956 17.78 26.4133 17.7735C26.4601 17.771 26.4791 17.7541 26.4956 17.7377C26.5285 17.705 26.5384 17.5977 26.5189 17.4508C26.5103 17.3856 26.4607 17.3491 26.4309 17.3259C26.3857 17.2905 26.3164 17.2895 26.2251 17.3121C26.1753 17.3245 26.1338 17.3801 26.1104 17.4585C26.0871 17.5369 26.0871 17.647 26.0935 17.7134C26.1 17.7798 26.113 17.7992 26.1459 17.8389" stroke="#DF91D3" stroke-linecap="round"/>
<path d="M20.7984 20.3627C20.4411 20.6227 20.3798 20.7455 20.3566 20.8196C20.3344 20.8907 20.3387 21.1978 20.387 21.3865C20.4248 21.5343 20.5477 21.6186 20.6549 21.7134C20.7258 21.776 20.864 21.8181 21.0498 21.8767C21.1534 21.9094 21.2811 21.9303 21.4575 21.9433C21.8555 21.9727 22.1109 21.9513 22.1618 21.9386C22.3419 21.8936 22.5701 21.6253 22.6421 21.4615C22.7144 21.297 22.7138 21.15 22.7266 21.0196C22.7367 20.916 22.7089 20.7974 22.6479 20.6777C22.5713 20.5274 22.3828 20.4093 22.2144 20.3148C22.1168 20.276 22.0502 20.2606 21.8373 20.2453C21.6597 20.2401 21.3412 20.2401 20.9976 20.2554" stroke="#DF91D3" stroke-linecap="round"/>
<path d="M21.144 24.0174C21.6083 23.8682 21.8972 23.783 22.0638 23.7704C22.3622 23.7479 22.609 23.8076 22.7136 23.887C22.7986 23.9516 22.8274 24.0171 22.8315 24.0673C22.8358 24.1187 22.8525 24.2674 22.8193 24.5056C22.7869 24.7387 22.5271 24.9126 22.2765 25.0591C21.9181 25.2686 21.6814 25.1731 21.4886 25.1773C21.1986 25.1835 22.391 25.2646 22.554 25.419C22.8257 25.6762 22.7435 25.8676 22.7937 26.0682C22.8814 26.4183 22.744 26.546 22.6477 26.6801C22.542 26.8276 22.359 26.8314 22.179 26.8981C21.8246 26.9319 21.2872 26.849 21.1695 26.7771C21.1443 26.7646 21.1194 26.748 21.0938 26.7309" stroke="#DF91D3" stroke-linecap="round"/>
<path d="M19.5625 12.8906C19.5625 13.2078 19.5998 13.4925 19.689 13.7322C19.8829 14.2535 20.2591 14.5484 20.3866 14.6947C20.6132 14.9547 21.1072 15.1517 21.3332 15.2368C21.4364 15.2756 21.6902 15.3309 22.1784 15.3875C22.8119 15.4608 23.2185 15.3973 23.2937 15.3739C23.4767 15.3168 23.6702 15.1341 23.7792 15.0113C23.8838 14.8934 23.9722 14.7384 24.0573 14.5406C24.2333 14.1315 24.0954 13.6075 24.0342 13.4612C23.9877 13.3501 23.7952 13.1094 23.6292 12.9193C23.4952 12.7657 23.3231 12.674 23.2333 12.6128C23.127 12.5403 22.8719 12.4857 22.2882 12.4805C21.8898 12.4769 21.7682 12.6639 21.641 12.7769C21.5241 12.8808 21.4569 13.0407 21.4145 13.2143C21.3533 13.4649 21.4188 13.6443 21.4564 13.6865C21.5647 13.8084 21.7388 13.8987 21.8895 13.9458C22.097 14.0307 22.2477 14.0683 22.5251 14.0593C22.5872 14.0406 22.6152 14.0033 22.644 13.9366" stroke="#DF91D3" stroke-linecap="round"/>
</svg>
