<svg width="54" height="54" viewBox="0 0 54 54" fill="none" xmlns="http://www.w3.org/2000/svg">
<path d="M25.0875 37.0725V16.9275C25.0875 15.015 24.28 14.25 22.24 14.25H17.0975C15.0575 14.25 14.25 15.015 14.25 16.9275V37.0725C14.25 38.985 15.0575 39.75 17.0975 39.75H22.24C24.28 39.75 25.0875 38.985 25.0875 37.0725Z" fill="#342E29" stroke="#342E29" stroke-width="1.26562" stroke-linecap="round" stroke-linejoin="round"/>
<path d="M39.7516 37.0725V16.9275C39.7516 15.015 38.9441 14.25 36.9041 14.25H31.7616C29.7357 14.25 28.9141 15.015 28.9141 16.9275V37.0725C28.9141 38.985 29.7216 39.75 31.7616 39.75H36.9041C38.9441 39.75 39.7516 38.985 39.7516 37.0725Z" fill="#342E29" stroke="#342E29" stroke-width="1.26562" stroke-linecap="round" stroke-linejoin="round"/>
</svg>
