<svg width="54" height="54" viewBox="0 0 54 54" fill="none" xmlns="http://www.w3.org/2000/svg">
<path d="M29.805 16.3351L27 12.8359" stroke="#342E29" stroke-width="1.5" stroke-linecap="round" stroke-linejoin="round"/>
<path d="M37.0407 21.0483C38.6132 23.1449 39.5907 25.7374 39.5907 28.5708C39.5907 35.5266 33.9524 41.1649 26.9965 41.1649C20.0407 41.1649 14.4023 35.5266 14.4023 28.5708C14.4023 21.6149 20.0407 15.9766 26.9965 15.9766C27.9599 15.9766 28.8948 16.1041 29.8015 16.3166" stroke="#342E29" stroke-width="1.5" stroke-linecap="round" stroke-linejoin="round"/>
<path d="M26.1758 27.8649C27.7183 27.8649 28.4896 27.3222 28.4896 26.2368C28.4896 25.6941 28.3283 25.282 28.0057 25.0006C27.6931 24.7192 27.2949 24.5785 26.811 24.5785C26.4783 24.5785 26.1758 24.6489 25.9036 24.7896C25.6314 24.9303 25.3743 25.1514 25.1323 25.4529C24.8702 25.7745 24.5677 25.9353 24.225 25.9353C24.0737 25.9353 23.9175 25.8951 23.7561 25.8147C23.4537 25.6338 23.3025 25.3876 23.3025 25.076C23.3025 24.9152 23.3529 24.7393 23.4537 24.5484C23.7561 24.0258 24.1997 23.6187 24.7845 23.3273C25.3793 23.0258 26.0246 22.875 26.7202 22.875C27.8796 22.875 28.8021 23.1765 29.4877 23.7795C30.1834 24.3725 30.5312 25.1866 30.5312 26.2217C30.5312 26.7142 30.4052 27.1866 30.1531 27.6388C29.9112 28.081 29.5885 28.4077 29.1853 28.6187C29.7498 28.87 30.1934 29.2469 30.5161 29.7494C30.8387 30.2519 31 30.8147 31 31.4378C31 32.1112 30.8286 32.7092 30.4858 33.2318C30.143 33.7443 29.6541 34.1464 29.0189 34.4378C28.3938 34.7293 27.6679 34.875 26.8412 34.875C26.206 34.875 25.5759 34.7695 24.9509 34.5584C24.3359 34.3574 23.8166 34.071 23.3932 33.6991C23.1311 33.478 23 33.2318 23 32.9604C23 32.7695 23.0756 32.5835 23.2268 32.4026C23.4083 32.1916 23.6251 32.0861 23.8771 32.0861C24.1292 32.0861 24.3762 32.1815 24.6181 32.3725C24.9609 32.6338 25.3188 32.8348 25.6919 32.9755C26.0649 33.1062 26.4732 33.1715 26.9168 33.1715C27.5419 33.1715 28.0359 33.0258 28.3989 32.7343C28.7719 32.4328 28.9584 31.9906 28.9584 31.4077C28.9584 30.7443 28.7669 30.282 28.3837 30.0207C28.0006 29.7494 27.4209 29.6137 26.6446 29.6137H25.4499C25.1374 29.6137 24.8904 29.5433 24.7089 29.4026C24.5274 29.2519 24.4367 29.0358 24.4367 28.7544C24.4367 28.4629 24.5325 28.2418 24.724 28.0911C24.9156 27.9403 25.1575 27.8649 25.4499 27.8649H26.1758Z" fill="#342E29"/>
</svg>
