<svg width="56" height="56" viewBox="0 0 56 56" fill="none" xmlns="http://www.w3.org/2000/svg">
<path d="M0 28C0 12.536 12.536 0 28 0C43.464 0 56 12.536 56 28C56 43.464 43.464 56 28 56C12.536 56 0 43.464 0 28Z" fill="#B2D34F"/>
<path d="M25.6006 15.3438C32.984 15.3438 40.2169 24.2351 41.4639 31.1992C41.6004 31.1826 41.7392 31.1738 41.8799 31.1738C43.8779 31.1738 45.498 32.8947 45.498 35.0176C45.4978 37.1402 43.8777 38.8613 41.8799 38.8613C41.5111 38.8613 41.1555 38.8014 40.8203 38.6924C39.0445 43.4376 34.5692 46.0947 28.498 46.0947C21.4166 46.5795 17.4334 43.5379 15.7373 39.1641C15.4227 39.2589 15.0912 39.3115 14.748 39.3115C12.7501 39.3115 11.1309 37.5906 11.1309 35.4678C11.1309 33.345 12.7501 31.6241 14.748 31.624C14.7669 31.624 14.7859 31.6247 14.8047 31.625C15.2302 24.6008 18.145 15.344 25.6006 15.3438Z" fill="#FFE8CE"/>
<path d="M22.9629 11.7588C24.6544 10.4315 27.4496 9.53843 30.6143 10.2529C33.8078 9.53218 36.9856 10.6349 38.5127 12.2383C40.484 13.2088 42.5918 15.022 44.0146 17.5264C45.9521 20.9365 46.6297 30.2703 45.0469 32.0791C44.4592 32.4128 43.9098 32.0748 43.3623 31.3125C42.5184 31.8013 41.3703 31.8747 39.8457 31.3984C39.2836 31.3441 38.9709 31.2314 38.8184 31.0342C38.3766 31.0793 38.0907 30.74 37.8965 30.1406C37.0202 32.2979 31.637 20.094 30.5039 18.8418C30.1495 18.8432 29.7886 18.8291 29.4248 18.7998C28.9137 18.8643 28.7188 18.9301 28.6631 18.7188C27.1469 18.516 25.6259 18.0797 24.3613 17.5137C23.7913 17.6426 23.1507 17.7841 22.4365 17.9453C22.0597 18.0304 21.6753 18.1187 21.2881 18.208C18.3098 20.1432 17.781 25.8826 17.4824 29.4688L17.4834 29.4707C17.58 29.8679 17.5255 30.2761 17.3789 30.6777C17.335 31.1503 17.2913 31.55 17.2363 31.8525C17.0374 31.869 16.8442 31.8903 16.6572 31.9141C15.9639 32.8102 15.0624 33.556 14.748 33.8896C14.0647 34.0557 13.7202 33.4613 13.6846 32.6064C11.3107 33.3486 10.6554 33.6403 10 28.2354C10 20.3934 11.3234 16.887 13.918 14.8408C15.0885 13.6219 17.0132 12.5808 19.3096 12.0625C20.5905 11.7735 21.8368 11.6804 22.9629 11.7588Z" fill="#ABABAB"/>
<path d="M22.9629 11.7588C24.6544 10.4315 27.4496 9.53843 30.6143 10.2529C33.8078 9.53218 36.9856 10.6349 38.5127 12.2383C40.484 13.2088 42.5918 15.022 44.0146 17.5264C45.9521 20.9365 46.6297 30.2703 45.0469 32.0791C44.4592 32.4128 43.9098 32.0748 43.3623 31.3125C42.5184 31.8013 41.3703 31.8747 39.8457 31.3984C39.2836 31.3441 38.9709 31.2314 38.8184 31.0342C38.3766 31.0793 38.0907 30.74 37.8965 30.1406C37.0202 32.2979 31.637 20.094 30.5039 18.8418C30.1495 18.8432 29.7886 18.8291 29.4248 18.7998C28.9137 18.8643 28.7188 18.9301 28.6631 18.7188C27.1469 18.516 25.6259 18.0797 24.3613 17.5137C23.7913 17.6426 23.1507 17.7841 22.4365 17.9453C22.0597 18.0304 21.6753 18.1187 21.2881 18.208C18.3098 20.1432 17.781 25.8826 17.4824 29.4688L17.4834 29.4707C17.58 29.8679 17.5255 30.2761 17.3789 30.6777C17.335 31.1503 17.2913 31.55 17.2363 31.8525C17.0374 31.869 16.8442 31.8903 16.6572 31.9141C15.9639 32.8102 15.0624 33.556 14.748 33.8896C14.0647 34.0557 13.7202 33.4613 13.6846 32.6064C11.3107 33.3486 10.6554 33.6403 10 28.2354C10 20.3934 11.3234 16.887 13.918 14.8408C15.0885 13.6219 17.0132 12.5808 19.3096 12.0625C20.5905 11.7735 21.8368 11.6804 22.9629 11.7588Z" fill="#ABABAB"/>
<path d="M22.9629 11.7588C24.6544 10.4315 27.4496 9.53843 30.6143 10.2529C33.8078 9.53218 36.9856 10.6349 38.5127 12.2383C40.484 13.2088 42.5918 15.022 44.0146 17.5264C45.9521 20.9365 46.6297 30.2703 45.0469 32.0791C44.4592 32.4128 43.9098 32.0748 43.3623 31.3125C42.5184 31.8013 41.3703 31.8747 39.8457 31.3984C39.2836 31.3441 38.9709 31.2314 38.8184 31.0342C38.3766 31.0793 38.0907 30.74 37.8965 30.1406C37.0202 32.2979 31.637 20.094 30.5039 18.8418C30.1495 18.8432 29.7886 18.8291 29.4248 18.7998C28.9137 18.8643 28.7188 18.9301 28.6631 18.7188C27.1469 18.516 25.6259 18.0797 24.3613 17.5137C23.7913 17.6426 23.1507 17.7841 22.4365 17.9453C22.0597 18.0304 21.6753 18.1187 21.2881 18.208C18.3098 20.1432 17.781 25.8826 17.4824 29.4688L17.4834 29.4707C17.58 29.8679 17.5255 30.2761 17.3789 30.6777C17.335 31.1503 17.2913 31.55 17.2363 31.8525C17.0374 31.869 16.8442 31.8903 16.6572 31.9141C15.9639 32.8102 15.0624 33.556 14.748 33.8896C14.0647 34.0557 13.7202 33.4613 13.6846 32.6064C11.3107 33.3486 10.6554 33.6403 10 28.2354C10 20.3934 11.3234 16.887 13.918 14.8408C15.0885 13.6219 17.0132 12.5808 19.3096 12.0625C20.5905 11.7735 21.8368 11.6804 22.9629 11.7588Z" fill="#ABABAB"/>
<path d="M41.3327 38.738C42.0111 38.9546 42.5845 38.839 42.1515 40.196C41.7184 41.5529 39.8659 42.649 39.3722 42.866C38.6938 42.6495 39.8184 41.0228 40.2515 39.6659C40.6846 38.309 40.6543 38.5215 41.3327 38.738Z" fill="#ABABAB"/>
<path d="M14.9934 39.018C14.3276 39.2305 13.7595 39.1006 14.211 40.5152C14.6625 41.9297 16.97 43.3735 17.4611 43.6073C18.5918 43.3808 16.5284 41.4138 16.0769 39.9992C15.6254 38.5846 15.6591 38.8055 14.9934 39.018Z" fill="#ABABAB"/>
<path d="M14.8666 34.4195C14.8716 34.8754 14.9523 35.8732 15.0725 36.4723C15.2765 37.4895 15.5463 38.2273 15.6617 38.6508C15.9102 39.563 16.1688 40.2136 16.2643 40.3905C16.5971 41.0065 17.0305 41.5443 17.4798 42.1431C18.2429 43.1599 18.8974 43.7699 19.0328 43.8379C19.2344 43.9391 19.7082 44.2334 20.6122 44.654C21.7798 45.1972 22.6008 45.4229 23.1726 45.54C23.6359 45.6349 24.4502 45.8051 25.643 45.9149C26.8358 46.0248 28.3822 46.0698 29.2613 46.0773C30.3054 46.0861 30.6392 46.0071 31.1907 45.9136C31.5805 45.8476 32.183 45.6873 32.9092 45.4511C33.6353 45.2149 34.4641 44.8931 34.9747 44.666C35.6719 44.356 35.9731 44.1215 36.2618 43.9741C36.545 43.8294 36.9996 43.5456 37.6065 43.1964C38.1227 42.8994 38.6359 42.3076 39.3201 41.4936C40.1093 40.5545 40.404 39.8 40.4929 39.5825C40.6789 39.1268 41.0017 38.15 41.2174 37.4516C41.3512 37.0185 41.3799 36.6105 41.4206 36.1702C41.4559 35.8965 41.4811 35.6743 41.5367 35.3289C41.5902 35.0562 41.6949 34.5858 41.8596 34.0477" stroke="#63453E" stroke-width="1.2" stroke-linecap="round"/>
<path d="M13.7127 32.7693C13.3014 32.6322 12.8666 32.5615 12.4862 32.5873C12.2315 32.6045 12.0174 32.8888 11.7582 33.2684C11.4755 33.6826 11.3931 34.221 11.3411 34.8505C11.271 35.7002 11.3749 36.3345 11.4871 36.6022C11.7369 37.1984 12.0496 37.7711 12.7575 38.4972C13.3128 38.88 13.935 39.1055 14.4877 39.1834C14.7661 39.2099 15.0403 39.2099 15.3229 39.2099" stroke="#63453E" stroke-width="1.2" stroke-linecap="round"/>
<path d="M41.8807 32.3034C41.9097 32.1347 42.373 32.1373 42.4824 32.0266C42.6398 31.8673 42.8842 31.8816 43.1034 31.796C43.5742 31.612 44.3309 31.7783 44.681 32.067C45.062 32.3811 45.12 32.7314 45.2811 33.0303C45.44 33.3249 45.4567 33.6692 45.4644 35.0456C45.4672 35.5505 45.3112 35.8167 45.1728 36.1488C44.888 36.8326 44.5817 37.2821 44.2818 37.5894C43.9661 37.9129 43.7627 38.0838 43.0999 38.4584C42.6087 38.7359 42.2301 38.7823 41.9579 38.9027C41.9066 38.9198 41.8487 38.9367 41.7538 38.9454C41.6589 38.9541 41.5287 38.9541 41.3945 38.9541" stroke="#63453E" stroke-width="1.2" stroke-linecap="round"/>
<path d="M33.9572 31.6591C33.9401 31.6591 33.7338 31.8135 33.4262 32.0819C33.2585 32.2283 33.2897 32.4982 33.3241 32.7796C33.3389 32.8998 33.3929 32.9666 33.4751 33.0148C33.884 33.2549 34.3717 33.081 34.6367 32.9427C34.7965 32.8592 34.8671 32.6998 34.9061 32.5488C34.9676 32.3109 34.9108 32.1017 34.8849 32.0022C34.8229 31.7639 34.4185 31.5904 34.162 31.5335C33.9311 31.4822 33.698 31.5806 33.5552 31.6929C33.2828 31.9073 33.3071 32.4621 33.3717 32.742C33.3931 32.8347 33.6865 32.8293 34.007 32.8121C34.1806 32.8028 34.2602 32.6824 34.3338 32.583C34.4135 32.4754 34.3993 32.2413 34.3864 32.0031C34.3814 31.91 34.3478 31.8765 34.3002 31.8502C34.2526 31.824 34.184 31.8068 34.1186 31.8194C33.9839 31.8454 33.8969 31.9792 33.8406 32.096C33.7918 32.1972 33.8012 32.3258 33.8184 32.4341C33.8251 32.4768 33.8698 32.4824 33.9004 32.4782C33.931 32.4741 33.9567 32.4569 33.9785 32.4352C34.0004 32.4135 34.0176 32.3877 34.0264 32.3401C34.0352 32.2925 34.0352 32.2239 34.0092 32.1532" stroke="#63453E" stroke-width="1.2" stroke-linecap="round"/>
<path d="M20.9913 31.6671C20.981 31.6671 20.8774 31.7757 20.7208 31.9557C20.6378 32.051 20.6309 32.2401 20.6361 32.4829C20.6387 32.6076 20.6829 32.6748 20.7401 32.753C20.8139 32.8538 20.9178 32.9101 21.0296 32.9492C21.2111 33.0127 21.4395 32.9991 21.6117 32.9965C21.7942 32.9937 21.9259 32.8637 22.0408 32.7047C22.1212 32.5935 22.1508 32.4254 22.1743 32.2327C22.2014 32.0105 22.172 31.8709 22.1485 31.8345C22.0905 31.7442 22.0259 31.6934 21.8956 31.5839C21.8206 31.521 21.6764 31.526 21.5175 31.5441C21.2623 31.5732 21.1903 31.7344 21.1195 31.839C21.0486 31.9437 21.0697 32.1776 21.1086 32.3248C21.1261 32.3908 21.2052 32.4139 21.3142 32.4322C21.5343 32.469 21.7067 32.4351 21.7562 32.3961C21.8594 32.3147 21.8532 32.009 21.8194 31.8345C21.7969 31.7179 21.6708 31.631 21.6027 31.5732C21.4699 31.4604 21.1483 31.552 21.0544 31.6067C20.9981 31.6395 20.9601 31.6826 20.9315 31.7293C20.8529 31.8575 20.8869 31.9488 20.892 32.3185C20.9753 32.4973 21.0487 32.5758 21.0721 32.6045C21.0852 32.6176 21.1007 32.628 21.1167 32.6386" stroke="#63453E" stroke-width="1.2" stroke-linecap="round"/>
<path d="M27.4779 34.7031C27.1649 35.1533 26.6064 36.1422 26.6877 36.3184C27.1865 36.7609 27.4767 37.0262 27.6722 37.1838C27.7552 37.2539 27.8052 37.3039 27.8568 37.3554" stroke="#63453E" stroke-width="1.2" stroke-linecap="round"/>
<path d="M13.7402 35.8477C13.8772 35.8781 14.0141 35.9085 14.1455 35.9318C14.2769 35.9551 14.3986 35.9703 14.4918 35.9857C14.5849 36.0012 14.6458 36.0164 14.7546 36.0321" stroke="#63453E" stroke-width="1.2" stroke-linecap="round"/>
<path d="M41.8359 35.4474C42.2497 35.2913 42.7538 35.1177 42.8481 35.0748C42.8717 35.0629 42.8951 35.0551 42.9187 35.0433C42.9424 35.0316 42.9657 35.016 42.9897 35" stroke="#63453E" stroke-width="1.2" stroke-linecap="round"/>
<path d="M23.1565 38.4099C23.1565 38.4019 23.1565 38.3938 22.861 38.5423C22.5655 38.6908 21.9746 38.9961 21.3477 39.3107" stroke="#63453E" stroke-width="1.2" stroke-linecap="round"/>
<path d="M32.8359 38.4062C33.4622 38.6066 34.0884 38.807 34.4444 38.9228C34.8004 39.0386 34.8672 39.0636 34.936 39.0894" stroke="#63453E" stroke-width="1.2" stroke-linecap="round"/>
<path d="M24.5977 39.7709C24.7981 40.0381 24.9984 40.3052 25.2311 40.4888C25.4638 40.6724 25.7226 40.7642 26.0522 40.8366C26.3817 40.909 26.7741 40.9591 27.1809 40.9849C27.5876 41.0107 27.9968 41.0107 28.291 40.994C28.7542 40.9677 29.083 40.8594 29.3901 40.7542C29.54 40.7029 29.6723 40.6408 29.858 40.5313C30.0437 40.4219 30.2775 40.2632 30.4773 40.098C30.677 39.9328 30.8357 39.7658 30.9991 39.5938" stroke="#63453E" stroke-width="1.2" stroke-linecap="round"/>
<path d="M25.2031 18.1675C25.3004 18.1432 25.3976 18.1189 26.1771 18.2036C26.9565 18.2883 28.4152 18.4828 29.2882 18.6924C30.1613 18.902 30.4044 19.1208 30.9186 19.7441C31.4328 20.3673 32.2108 21.3884 32.9276 22.7167C33.6445 24.0451 34.2766 25.6496 34.7238 26.695C35.3671 28.199 35.8591 28.8721 36.4212 29.4349C37.2321 30.2468 38.3123 30.7875 39.3522 31.2531C39.9545 31.4756 40.7082 31.6701 41.2544 31.7703C41.8007 31.8705 42.1168 31.8705 42.4424 31.8705" stroke="#63453E" stroke-width="1.2" stroke-linecap="round"/>
<path d="M24.9838 18.0997C23.7579 17.7807 23.0226 17.7313 22.0782 17.9505C21.1916 18.1562 20.615 19.0302 20.0522 19.7514C19.7106 20.1891 19.3434 20.8373 18.9972 21.6006C18.6509 22.3638 18.3592 23.2391 18.136 24.0911C17.9127 24.9431 17.7669 25.7454 17.6552 26.7786C17.5436 27.8119 17.4707 29.0518 17.3602 29.9944C17.1772 31.5552 16.832 32.3412 16.4776 32.745C15.4808 33.5951 15.1869 33.6931 14.8185 33.8036C14.7198 33.8405 14.6225 33.8891 14.375 33.9392" stroke="#63453E" stroke-width="1.2" stroke-linecap="round"/>
<path d="M11.4275 33.8639C10.5199 31.9264 10.2495 31.1167 10.1147 29.4952C10.0064 28.1927 10.0041 25.9044 10.0277 24.2652C10.0513 22.626 10.1485 21.7021 10.4053 20.7157C10.662 19.7292 11.0753 18.7081 11.5192 17.8539C11.9631 16.9997 12.425 16.3432 12.979 15.689C13.533 15.0348 14.1651 14.4027 15.0621 13.7853C15.9591 13.168 17.1017 12.5845 17.897 12.2353C19.0767 11.7173 19.8475 11.6886 20.4479 11.7129C20.9754 11.7859 21.3474 11.9332 21.5802 12.1049C21.6915 12.1793 21.7887 12.2279 22.0363 12.4253" stroke="#63453E" stroke-width="1.2" stroke-linecap="round"/>
<path d="M22.1836 12.4203C22.966 11.3417 23.9974 10.8496 24.6973 10.5553C25.3904 10.2638 26.2319 10.1615 27.9757 10.0878C29.3538 10.0296 31.7374 10.0628 33.2687 10.1479C34.7999 10.233 35.4077 10.4032 36.3894 10.9528C37.3711 11.5023 38.7083 12.4262 39.4457 12.9507C40.539 13.7284 41.0658 14.1369 42.0088 14.9572C43.0651 15.8762 43.5721 16.8635 43.7681 17.255C44.0037 17.726 44.3803 18.6515 44.8835 19.7186C45.1799 20.3473 45.2665 20.8896 45.4139 21.4532C45.5448 21.9538 45.5855 22.948 45.7697 24.2598C45.9084 25.2477 45.8567 25.8758 45.8813 26.7053C45.932 28.4095 45.7837 29.6581 45.6979 29.9521C45.5282 30.5332 45.3667 31.0328 45.17 31.7441C45.1207 31.9176 45.0721 32.0392 45.0348 32.1504C44.9976 32.2617 44.9733 32.3589 44.9483 32.5328" stroke="#63453E" stroke-width="1.2" stroke-linecap="round"/>
<path d="M13.7715 32.8281C13.7715 32.8407 13.8343 32.9664 13.9482 33.1943C14.0371 33.397 14.0884 33.5128 14.1137 33.5508C14.1265 33.5699 14.139 33.5887 14.152 33.6462" stroke="#63453E" stroke-width="1.2" stroke-linecap="round"/>
<path d="M13.5781 38.9531C13.6239 38.9531 14.0138 39.846 14.6719 41.3592C15.4735 42.7217 15.9342 43.0679 16.5336 43.3108C16.8583 43.3933 17.2246 43.3933 17.6021 43.3933" stroke="#63453E" stroke-width="1.2" stroke-linecap="round"/>
<path d="M42.4388 38.8125C42.1619 39.6194 42.0225 40.3138 41.8497 40.7995C41.7057 41.2044 41.1941 41.8152 40.7747 42.1305C40.474 42.2578 40.0133 42.4424 39.3657 42.6047C39.1801 42.6283 38.974 42.6283 38.7617 42.6283" stroke="#63453E" stroke-width="1.2" stroke-linecap="round"/>
<path d="M19.623 28.0661C20.2869 27.8564 20.7336 27.731 21.0409 27.7045C21.5404 27.6955 21.9686 27.7304 22.2151 27.8096C22.3392 27.8538 22.4615 27.9062 22.6404 27.9602" stroke="#63453E" stroke-width="1.2" stroke-linecap="round"/>
<path d="M32.3809 27.8027C32.9049 27.6978 33.2797 27.6264 33.6656 27.5999C34.4009 27.5909 34.9562 27.6084 35.141 27.661C35.2384 27.6963 35.3432 27.7487 35.557 27.9085" stroke="#63453E" stroke-width="1.2" stroke-linecap="round"/>
</svg>
