<svg width="120" height="120" viewBox="0 0 120 120" fill="none" xmlns="http://www.w3.org/2000/svg">
<path d="M60 1C92.5848 1 119 27.4152 119 60C119 92.5848 92.5848 119 60 119C27.4152 119 1 92.5848 1 60C1 27.4152 27.4152 1 60 1Z" fill="#FFA658"/>
<path d="M60 1C92.5848 1 119 27.4152 119 60C119 92.5848 92.5848 119 60 119C27.4152 119 1 92.5848 1 60C1 27.4152 27.4152 1 60 1Z" stroke="#F1F1F1" stroke-width="2"/>
<path d="M29.0015 83.3088C29.356 83.3088 29.6955 83.4631 30.0112 83.7454C31.9057 82.9591 35.8085 85.5765 39.0444 89.8958C42.484 94.487 43.8669 99.2621 42.1333 100.561C40.3995 101.859 36.2064 99.1896 32.7671 94.5989C32.4371 94.1585 32.1256 93.7162 31.8345 93.2756C31.4264 96.2059 30.3126 98.3088 29.0015 98.3088C27.3446 98.3088 26.0015 94.951 26.0015 90.8088C26.0015 86.6667 27.3446 83.3088 29.0015 83.3088Z" fill="#68564B"/>
<path d="M94.2319 80.8667C93.3592 80.7018 92.3641 81.6691 91.4888 83.3403C87.0581 82.7414 89.0594 86.1619 85.5005 89.3208C81.2101 93.129 78.1661 96.4254 79.604 98.0454C80.9644 99.5777 85.1928 98.0721 89.2778 94.6812C89.4595 96.6798 90.0418 98.0394 90.9487 98.2114C92.5766 98.5196 94.6319 94.8867 95.5386 90.0972C96.4452 85.3075 95.8599 81.1748 94.2319 80.8667Z" fill="#68564B"/>
<path d="M61.4087 42.3088C77.6288 42.3088 88.2901 52.7289 90.1938 66.3518C90.4594 66.3235 90.7289 66.3088 91.0015 66.3088C95.4197 66.3088 99.0015 70.1144 99.0015 74.8088C99.0015 79.5033 95.4197 83.3088 91.0015 83.3088C90.1862 83.3088 89.3997 83.1785 88.6587 82.9377C84.7324 93.4329 74.8355 99.3088 61.4087 99.3088C45.7489 100.381 36.9407 93.6557 33.1899 83.9836C32.4941 84.1935 31.7606 84.3088 31.0015 84.3088C26.5832 84.3088 23.0015 80.5033 23.0015 75.8088C23.0015 71.1144 26.5832 67.3088 31.0015 67.3088C31.0927 67.3088 31.1835 67.3125 31.2739 67.3157C33.1829 53.3893 45.0008 42.3088 61.4087 42.3088Z" fill="#FFE8CE"/>
<path d="M45.6597 23.5822C53.7942 21.7464 61.2954 22.7715 64.6626 25.802C65.48 25.6343 66.6961 25.7983 68.5034 25.7961C70.8436 25.7932 72.8882 25.4201 74.437 25.8381C74.4542 25.828 74.4713 25.8168 74.4888 25.8068C79.0507 23.2159 90.0934 31.4127 96.0005 41.8098C100.285 49.3508 99.5014 63.3086 96.0015 67.3088C90.6988 71.5497 88.7116 65.6474 85.9155 58.1496C84.0507 57.9957 81.42 54.8452 78.7085 53.5549C75.0328 51.8058 75.6631 51.8895 77.3354 48.3752C78.1012 46.766 78.6144 45.2912 79.2983 44.3332C79.098 43.9781 78.8999 43.6247 78.7036 43.2736C76.8825 44.0311 74.922 44.573 73.4028 44.9084C70.1108 50.0527 65.7724 54.2714 64.0278 55.6526C59.181 55.6585 62.4215 45.0136 62.9351 35.9895C61.8989 36.8977 60.6653 37.7637 59.2681 38.5588C59.5603 39.5502 59.7499 40.8477 59.8237 42.5383C60.21 51.3914 50.7654 61.4657 48.0015 63.8088C43.005 64.0268 46.8202 52.8504 46.5073 44.0305C35.4151 49.2251 32.4871 63.3861 31.5015 68.8068C19.8729 71.4313 24.0239 74.1812 21.0015 60.7893C21.0015 45.8997 24.2663 39.1876 29.0747 34.9768C29.9659 30.4002 36.728 25.598 45.6597 23.5822Z" fill="#68564B"/>
<path d="M45.6597 23.5822C53.7942 21.7464 61.2954 22.7715 64.6626 25.802C65.48 25.6343 66.6961 25.7983 68.5034 25.7961C70.8436 25.7932 72.8882 25.4201 74.437 25.8381C74.4542 25.828 74.4713 25.8168 74.4888 25.8068C79.0507 23.2159 90.0934 31.4127 96.0005 41.8098C100.285 49.3508 99.5014 63.3086 96.0015 67.3088C90.6988 71.5497 88.7116 65.6474 85.9155 58.1496C84.0507 57.9957 81.42 54.8452 78.7085 53.5549C75.0328 51.8058 75.6631 51.8895 77.3354 48.3752C78.1012 46.766 78.6144 45.2912 79.2983 44.3332C79.098 43.9781 78.8999 43.6247 78.7036 43.2736C76.8825 44.0311 74.922 44.573 73.4028 44.9084C70.1108 50.0527 65.7724 54.2714 64.0278 55.6526C59.181 55.6585 62.4215 45.0136 62.9351 35.9895C61.8989 36.8977 60.6653 37.7637 59.2681 38.5588C59.5603 39.5502 59.7499 40.8477 59.8237 42.5383C60.21 51.3914 50.7654 61.4657 48.0015 63.8088C43.005 64.0268 46.8202 52.8504 46.5073 44.0305C35.4151 49.2251 32.4871 63.3861 31.5015 68.8068C19.8729 71.4313 24.0239 74.1812 21.0015 60.7893C21.0015 45.8997 24.2663 39.1876 29.0747 34.9768C29.9659 30.4002 36.728 25.598 45.6597 23.5822Z" fill="#68564B"/>
<path d="M45.6597 23.5822C53.7942 21.7464 61.2954 22.7715 64.6626 25.802C65.48 25.6343 66.6961 25.7983 68.5034 25.7961C70.8436 25.7932 72.8882 25.4201 74.437 25.8381C74.4542 25.828 74.4713 25.8168 74.4888 25.8068C79.0507 23.2159 90.0934 31.4127 96.0005 41.8098C100.285 49.3508 99.5014 63.3086 96.0015 67.3088C90.6988 71.5497 88.7116 65.6474 85.9155 58.1496C84.0507 57.9957 81.42 54.8452 78.7085 53.5549C75.0328 51.8058 75.6631 51.8895 77.3354 48.3752C78.1012 46.766 78.6144 45.2912 79.2983 44.3332C79.098 43.9781 78.8999 43.6247 78.7036 43.2736C76.8825 44.0311 74.922 44.573 73.4028 44.9084C70.1108 50.0527 65.7724 54.2714 64.0278 55.6526C59.181 55.6585 62.4215 45.0136 62.9351 35.9895C61.8989 36.8977 60.6653 37.7637 59.2681 38.5588C59.5603 39.5502 59.7499 40.8477 59.8237 42.5383C60.21 51.3914 50.7654 61.4657 48.0015 63.8088C43.005 64.0268 46.8202 52.8504 46.5073 44.0305C35.4151 49.2251 32.4871 63.3861 31.5015 68.8068C19.8729 71.4313 24.0239 74.1812 21.0015 60.7893C21.0015 45.8997 24.2663 39.1876 29.0747 34.9768C29.9659 30.4002 36.728 25.598 45.6597 23.5822Z" fill="#68564B"/>
<path d="M61.8229 35.8562C66.3408 35.659 69.5068 33.7495 69.8933 42.6027C70.2797 51.456 61.8542 61.4854 59.3858 63.8157C57.0005 62.8057 56.388 53.1604 56.0015 44.3072C55.6151 35.454 57.305 36.0535 61.8229 35.8562Z" fill="#68564B"/>
<path d="M70.335 44.3747C72.0075 40.8601 72.474 37.9878 76.1498 39.737C79.8256 41.4862 80.6118 50.5251 80.5833 52.9589C78.9108 56.4735 75.3839 51.3038 71.7081 49.5546C68.0323 47.8055 68.6626 47.8893 70.335 44.3747Z" fill="#68564B"/>
<path d="M31.002 73.3089C31.0128 74.317 31.4529 76.6969 31.7187 78.0219C32.17 80.2713 32.7665 81.9027 33.0217 82.8393C33.5712 84.8564 34.143 86.2953 34.3543 86.6864C35.0901 88.0486 36.0486 89.2378 37.0422 90.562C38.7295 92.8105 40.177 94.1596 40.4764 94.3099C40.9223 94.5336 41.97 95.1843 43.9691 96.1144C46.551 97.3158 48.3665 97.8149 49.631 98.0738C50.6556 98.2836 52.4563 98.6601 55.094 98.9029C57.7317 99.1458 61.1514 99.2455 63.0953 99.2619C65.4041 99.2814 66.1424 99.1067 67.3619 98.9C68.2239 98.7539 69.5563 98.3997 71.1621 97.8772C72.7678 97.3548 74.6005 96.6432 75.7298 96.1411C77.2715 95.4556 77.9375 94.9371 78.576 94.611C79.2022 94.2912 80.2075 93.6635 81.5497 92.8912C82.691 92.2344 83.8259 90.9259 85.3389 89.1257C87.0843 87.0491 87.736 85.3807 87.9324 84.8995C88.3438 83.8919 89.0577 81.7318 89.5346 80.1875C89.8304 79.2297 89.8939 78.3274 89.9839 77.3539C90.0619 76.7485 90.1178 76.2572 90.2407 75.4933C90.3589 74.8903 90.5906 73.8501 90.9547 72.6601" stroke="#63453E" stroke-width="2" stroke-linecap="round"/>
<path d="M30.0015 70.2994C29.0918 69.9961 26.8403 69.3689 25.9989 69.4257C25.4357 69.4638 24.9623 70.0925 24.3892 70.9321C23.764 71.848 23.5818 73.0386 23.4669 74.4307C23.3119 76.3095 23.5415 77.7122 23.7896 78.3043C24.3421 79.6228 25.0336 80.8892 26.5991 82.4949C27.8269 83.3414 29.2029 83.8399 30.425 84.0121C31.0406 84.0707 31.6471 84.0707 32.2719 84.0707" stroke="#63453E" stroke-width="2" stroke-linecap="round"/>
<path d="M90.7207 69.5631C90.7847 69.19 92.0901 68.4414 92.332 68.1966C92.68 67.8444 93.2205 67.876 93.7052 67.6866C94.7462 67.2799 96.4197 67.6476 97.1938 68.2859C98.0364 68.9807 98.1647 69.7552 98.521 70.4161C98.8722 71.0677 98.9092 71.8289 98.9262 74.8728C98.9324 75.9892 98.5874 76.5779 98.2815 77.3123C97.6517 78.8245 96.9742 79.8185 96.3111 80.498C95.613 81.2134 95.1633 81.5914 93.6974 82.4197C92.6111 83.0334 91.774 83.136 91.172 83.4022C91.0586 83.4401 90.9306 83.4774 90.7207 83.4966C90.5108 83.5159 90.2229 83.5159 89.9263 83.5159" stroke="#63453E" stroke-width="2" stroke-linecap="round"/>
<path d="M73.4803 67.3909C73.4423 67.3909 72.9863 67.7325 72.306 68.3259C71.9351 68.6495 72.0041 69.2466 72.0803 69.8688C72.1129 70.1346 72.2324 70.2822 72.4142 70.3889C73.3184 70.9197 74.3969 70.5352 74.9829 70.2293C75.3363 70.0448 75.4924 69.6922 75.5786 69.3584C75.7146 68.8323 75.589 68.3696 75.5318 68.1497C75.3947 67.6228 74.5004 67.2391 73.9331 67.1131C73.4225 66.9998 72.907 67.2172 72.5913 67.4656C71.9888 67.9397 72.0427 69.1666 72.1856 69.7857C72.2329 69.9906 72.8817 69.9786 73.5904 69.9406C73.9743 69.9201 74.1502 69.6537 74.313 69.434C74.4893 69.1961 74.4579 68.6784 74.4294 68.1517C74.4183 67.9459 74.344 67.8716 74.2388 67.8135C74.1335 67.7555 73.9817 67.7175 73.8371 67.7454C73.5392 67.8028 73.3469 68.0988 73.2224 68.357C73.1144 68.5809 73.1353 68.8653 73.1732 69.1048C73.1882 69.1992 73.2871 69.2115 73.3546 69.2023C73.4222 69.1931 73.4791 69.1551 73.5274 69.1071C73.5757 69.0591 73.6137 69.0022 73.6333 68.8969C73.6528 68.7917 73.6528 68.6399 73.5953 68.4835" stroke="#63453E" stroke-width="2" stroke-linecap="round"/>
<path d="M44.8085 67.4085C44.7856 67.4085 44.5566 67.6486 44.2102 68.0468C44.0268 68.2576 44.0114 68.6758 44.0229 69.2126C44.0288 69.4884 44.1265 69.6371 44.253 69.8098C44.4162 70.0328 44.646 70.1572 44.893 70.2437C45.2945 70.3842 45.7996 70.3541 46.1804 70.3484C46.584 70.3423 46.8752 70.0547 47.1293 69.7031C47.307 69.4571 47.3725 69.0854 47.4245 68.6593C47.4845 68.168 47.4193 67.8593 47.3675 67.7788C47.2391 67.5791 47.0963 67.4667 46.8082 67.2247C46.6424 67.0854 46.3236 67.0966 45.972 67.1366C45.4077 67.2009 45.2486 67.5575 45.092 67.7888C44.9352 68.0203 44.9818 68.5375 45.0679 68.8631C45.1065 69.009 45.2815 69.0601 45.5225 69.1005C46.0092 69.182 46.3904 69.1069 46.4999 69.0206C46.7282 68.8408 46.7144 68.1646 46.6398 67.7788C46.5898 67.5208 46.3111 67.3288 46.1605 67.2009C45.8668 66.9515 45.1557 67.1541 44.948 67.2751C44.8236 67.3475 44.7395 67.4428 44.6761 67.5462C44.5023 67.8297 44.5777 68.0316 44.5888 68.8491C44.7731 69.2445 44.9353 69.4181 44.9871 69.4815C45.0161 69.5106 45.0504 69.5335 45.0857 69.557" stroke="#63453E" stroke-width="2" stroke-linecap="round"/>
<path d="M58.7665 73.3088C58.0744 74.3042 56.8394 76.4911 57.0191 76.8807C58.1222 77.8594 58.764 78.4459 59.1964 78.7945C59.3799 78.9495 59.4905 79.0601 59.6044 79.174" stroke="#63453E" stroke-width="2" stroke-linecap="round"/>
<path d="M28.7739 76.6487C29.0767 76.716 29.3795 76.7833 29.6701 76.8348C29.9607 76.8862 30.2299 76.9199 30.4358 76.954C30.6418 76.9882 30.7764 77.0218 31.017 77.0565" stroke="#63453E" stroke-width="2" stroke-linecap="round"/>
<path d="M90.9038 75.7591C91.8187 75.4139 92.9335 75.0301 93.142 74.9351C93.1944 74.9088 93.2459 74.8916 93.2982 74.8656C93.3506 74.8395 93.4021 74.8052 93.4552 74.7698" stroke="#63453E" stroke-width="2" stroke-linecap="round"/>
<path d="M66.0023 88.3081C66.0023 90.5172 63.8683 92.3081 60.0023 92.3081C56.1363 92.3081 53.0023 90.5172 53.0023 88.3081C50.0015 82.8088 56.1363 84.3081 60.0023 84.3081C63.8683 84.3081 68.5023 83.8072 66.0023 88.3081Z" fill="#FFA9A0"/>
<path d="M66.0023 88.3081C66.0023 90.5172 63.8683 92.3081 60.0023 92.3081C56.1363 92.3081 53.0023 90.5172 53.0023 88.3081C50.0015 82.8088 56.1363 84.3081 60.0023 84.3081C63.8683 84.3081 68.5023 83.8072 66.0023 88.3081Z" fill="#FFA9A0"/>
<path d="M41.9565 59.8544C43.3241 58.8343 44.1207 58.4853 44.744 58.3725C45.1104 58.3061 45.7879 58.4091 46.6705 58.5455C47.4297 58.7558 48.0074 59.0308 48.393 59.292C48.5567 59.4052 48.6553 59.4792 48.7569 59.5554" stroke="#63453E" stroke-width="2" stroke-linecap="round"/>
<path d="M69.7557 59.7068C69.7063 59.7068 70.2235 59.3616 71.3291 58.7891C72.3737 58.2483 73.6603 58.3617 74.7054 58.3863C75.3559 58.4603 75.7572 58.6838 76.0927 59.0193C76.2556 59.1822 76.4036 59.3302 76.556 59.4826" stroke="#63453E" stroke-width="2" stroke-linecap="round"/>
<path d="M96.7705 67.9579C97.204 66.9072 97.7943 65.0016 98.8123 60.8096C99.0618 58.0442 99.0619 54.0805 98.8048 51.0616C98.5477 48.0426 98.0486 46.0293 97.4685 44.3745C96.8884 42.7196 96.2468 41.4613 95.2281 39.9246C94.2095 38.388 92.8549 36.6264 91.5165 35.0325C90.1781 33.4387 88.8947 32.0545 87.5553 30.8115C86.2158 29.5684 84.9056 28.4452 83.7431 27.7372C81.7695 26.5352 79.6849 25.0614 76.6752 24.9804C70.8981 24.825 68.1543 26.7785 66.3266 25.8069C65.7886 25.5209 65.263 24.8519 61.566 23.4209C60.0958 22.8518 57.0924 22.5154 52.1767 22.8251C49.6047 22.9871 46.8791 23.2312 44.9165 23.6211C41.7255 24.255 39.9728 24.7172 38.9201 25.2092C37.6984 25.7802 35.7059 26.7911 33.3256 29.169C31.9105 30.5827 30.2707 32.5331 28.4225 35.2909C26.5742 38.0486 24.5779 41.509 23.3227 44.2763C22.0675 47.0436 21.5684 49.0569 21.3189 52.1378C21.0693 55.2187 20.8404 59.2582 21.1428 61.842C21.7952 67.4166 23.3789 70.0781 24.094 70.7073" stroke="#63453E" stroke-width="2" stroke-linecap="round"/>
<path d="M68.8514 48.7142C68.4217 48.7831 68.3055 49.8502 67.9412 50.6947C67.1452 52.5397 66.5386 54.0418 65.8311 55.4747C64.9416 57.2762 64.0046 59.2308 62.7112 60.6752C61.5186 62.0069 60.3155 63.2027 59.0084 63.6671C58.4206 63.8759 57.763 63.9525 57.6548 63.5651C57.3996 62.651 57.6076 61.3828 57.6344 59.2801C57.6808 55.6505 57.5069 53.1257 57.1809 53.6472C56.7752 54.2962 56.0327 55.7813 55.2311 57.0019C54.4295 58.2226 53.6399 59.2061 52.6266 59.9974C50.5917 61.5865 48.9069 62.8884 47.5696 63.0793C46.9339 63.17 46.3306 63.0307 46.0529 62.8416C45.7751 62.6524 45.8215 62.4204 45.8447 61.4437C45.8679 60.4671 45.8679 58.7964 46.107 55.8094C46.3461 52.8224 46.8102 48.6457 47.2742 44.469" stroke="#63453E" stroke-width="2" stroke-linecap="round"/>
<path d="M69.3218 48.7073C70.5122 49.402 71.4438 49.9006 72.9402 50.6247C74.2918 51.2787 76.9 52.3998 78.3516 53.0742C80.0558 53.8658 80.5657 54.2461 81.4241 54.807C82.8638 55.7475 83.8183 56.6348 84.1493 56.9494C84.4643 57.2487 85.1092 57.8591 85.9209 58.819C86.6097 59.6337 86.8709 60.3175 87.3163 60.9768C88.1804 62.2561 88.6963 63.369 88.9436 64.0787C89.7124 66.2845 90.0559 67.0507 90.239 67.7812C90.424 68.5192 90.6531 69.7678 90.9024 70.899C90.9526 71.1005 90.9855 71.1991 91.0188 71.2991C91.0522 71.3991 91.085 71.4977 91.1189 71.7982" stroke="#63453E" stroke-width="2" stroke-linecap="round"/>
<path d="M46.7325 44.6487C46.1105 44.893 45.4885 45.1374 44.8127 45.4854C44.1368 45.8334 43.426 46.2777 42.5044 46.9731C41.5829 47.6684 40.4722 48.6014 39.7334 49.2598C38.6319 50.2414 38.1182 50.7952 37.4598 51.464C36.9771 51.9544 36.2906 52.8436 35.5578 53.9674C34.8251 55.0913 34.0921 56.4463 33.6367 57.3665C32.9736 58.7064 32.7545 59.3442 32.5085 59.8242C32.1146 60.5926 32.0134 61.363 31.9127 61.7885C31.8206 62.178 31.6102 62.9745 31.4419 64.0391C31.3722 64.4799 31.3846 64.7261 31.2847 65.4517C31.1847 66.1774 30.9848 67.377 30.8818 68.728C30.7788 70.079 30.7788 71.5451 30.7788 73.0557" stroke="#63453E" stroke-width="2" stroke-linecap="round"/>
<path d="M81.0877 93.4047C81.0329 93.4596 80.2644 94.557 79.1428 96.3416C78.7114 97.028 78.7614 97.386 78.83 97.6651C78.8985 97.9443 79.0356 98.1636 79.2844 98.3314C79.8364 98.7037 80.8875 98.7219 82.3364 98.5437C83.1677 98.4414 84.1418 98.0091 85.13 97.4827C87.1548 96.4044 88.1488 95.4277 88.3145 95.2063C88.3856 95.1113 88.4802 95.0946 88.5363 95.245C88.9713 96.4113 89.2263 98.132 89.8087 98.7626C90.1274 99.1076 90.9154 98.7227 91.6747 98.4062C92.6385 98.0044 93.3247 97.0088 93.9744 96.153C94.6648 95.2437 95.0146 94.0195 95.5675 92.9557C96.0641 92 96.2907 91.0278 96.429 89.1975C96.4851 87.8333 96.5125 85.5851 96.4718 84.2625C96.4311 82.9398 96.3214 82.6108 96.2084 82.1057" stroke="#63453E" stroke-width="2" stroke-linecap="round"/>
<path d="M27.0542 83.637C26.7242 85.2871 26.3942 86.9373 26.2608 88.6125C26.1275 90.2877 26.2008 91.9379 26.4953 93.3013C27.0279 95.7676 28.2355 97.2629 28.9383 98.0407C29.2062 98.3372 29.4212 98.3052 29.6073 98.1402C30.6737 97.1948 31.1236 95.2027 31.9225 94.3253C32.0657 94.1681 32.237 94.0848 32.4043 94.0464C32.746 93.9681 33.2371 94.6326 34.2134 96.0344C34.8372 96.9303 35.9597 98.023 36.8009 98.7736C38.137 99.9659 39.3467 100.414 40.2162 100.766C40.7402 100.978 41.3113 100.972 41.922 100.899C42.1748 100.868 42.2759 100.679 42.3509 100.438C42.4259 100.198 42.4626 99.8676 42.4815 99.1109C42.5004 98.3541 42.5004 97.1806 42.5004 95.9716" stroke="#63453E" stroke-width="2" stroke-linecap="round"/>
<path d="M52.1325 85.5761C52.1325 85.605 52.1325 85.6339 52.219 86.0682C52.3055 86.5025 52.4785 87.3413 52.7298 88.0988C52.9811 88.8563 53.3055 89.5071 53.5266 89.9074C53.8243 90.4462 54.3781 90.948 55.1412 91.5756C55.6701 92.0105 56.3453 92.1344 57.3118 92.2511C57.9895 92.333 59.0784 92.3101 59.7976 92.2886C60.8468 92.2573 61.7808 91.9617 62.8711 91.6045C63.7281 91.3238 64.2531 91.0116 64.6237 90.7131C64.8198 90.5552 64.951 90.3424 65.2452 89.8331C65.5394 89.3239 65.9719 88.514 66.2812 87.7642C66.5905 87.0144 66.7635 86.3491 66.8526 85.9413C66.9696 85.4058 66.9633 85.1681 66.9961 84.9424C67.0141 84.8183 67.0072 84.6733 66.6396 84.5988C65.5788 84.3838 64.4982 84.4809 63.8993 84.4007C63.583 84.3584 63.2355 84.335 61.4895 84.3201C59.7435 84.3052 56.608 84.3052 54.9387 84.3196C52.893 84.3374 52.4182 84.5094 52.1443 84.546C52.0893 84.5677 52.046 84.6111 52.0237 84.6913C52.0015 84.7715 52.0015 84.8872 52.0015 85.0064" stroke="#63453E" stroke-width="2" stroke-linecap="round"/>
<path d="M67.0273 19.0549C66.9465 19.1357 66.8241 21.1572 66.7824 24.1974C66.7679 25.2583 66.9832 25.3385 67.1675 25.1781C68.362 24.1384 69.3047 22.3681 70.9588 21.3439C72.1159 20.8156 72.9032 20.4838 73.1676 20.4024C73.3109 20.3614 73.4725 20.321 73.8839 20.2793" stroke="#63453E" stroke-width="2" stroke-linecap="round"/>
</svg>
