<svg width="56" height="56" viewBox="0 0 56 56" fill="none" xmlns="http://www.w3.org/2000/svg">
<path d="M0 28C0 12.536 12.536 0 28 0C43.464 0 56 12.536 56 28C56 43.464 43.464 56 28 56C12.536 56 0 43.464 0 28Z" fill="#FFA658"/>
<path d="M13.6199 38.0547C13.7792 38.0547 13.93 38.1258 14.072 38.252C14.9271 37.8906 16.6961 39.0757 18.1619 41.0322C19.7171 43.1083 20.3422 45.2672 19.5583 45.8545C18.7744 46.4418 16.8784 45.2344 15.323 43.1582C15.1729 42.9578 15.0325 42.7561 14.9001 42.5557C14.7163 43.8838 14.2136 44.8378 13.6199 44.8379C12.8706 44.8379 12.2634 43.3194 12.2634 41.4463C12.2634 39.5732 12.8706 38.0547 13.6199 38.0547Z" fill="#68564B"/>
<path d="M43.1173 36.9526C42.7226 36.8779 42.274 37.3168 41.8781 38.0728C39.8721 37.8007 40.7779 39.348 39.1681 40.7769C37.228 42.4989 35.8519 43.9896 36.5021 44.7222C37.1174 45.4152 39.0295 44.7337 40.8771 43.1997C40.9592 44.1038 41.2226 44.7187 41.6329 44.7964C42.369 44.9351 43.2982 43.2928 43.7081 41.1274C44.1181 38.9616 43.8534 37.0921 43.1173 36.9526Z" fill="#68564B"/>
<path d="M28.2739 19.5161C35.6085 19.5161 40.4293 24.2282 41.2905 30.3882C41.4109 30.3753 41.5332 30.3696 41.6567 30.3696C43.6546 30.3697 45.2738 32.0906 45.2739 34.2134C45.2739 36.3362 43.6546 38.057 41.6567 38.0571C41.2881 38.0571 40.9323 37.9981 40.5972 37.8892C38.8217 42.6353 34.3457 45.2925 28.2739 45.2925C21.1917 45.7773 17.208 42.7354 15.5122 38.3608C15.1979 38.4555 14.8668 38.5083 14.5239 38.5083C12.526 38.5083 10.9059 36.7872 10.9058 34.6646C10.9058 32.5417 12.5259 30.8208 14.5239 30.8208C14.5651 30.8208 14.6061 30.8223 14.647 30.8237C15.5107 24.5267 20.8547 19.5162 28.2739 19.5161Z" fill="#FFE8CE"/>
<path d="M21.1526 11.046C24.8299 10.2162 28.2201 10.6795 29.7434 12.0489C30.113 11.9726 30.6635 12.048 31.4817 12.047C32.5409 12.0457 33.4666 11.8767 34.1672 12.0665C34.1744 12.0623 34.1815 12.0579 34.1887 12.0538C36.2516 10.882 41.2459 14.5884 43.9172 19.2901C45.8546 22.7002 45.4999 29.0123 43.9172 30.8214C41.5189 32.7395 40.6196 30.0694 39.3547 26.6778C38.5115 26.6063 37.3222 25.1847 36.0969 24.6017C34.4351 23.8109 34.7206 23.8481 35.4768 22.2589C35.8227 21.532 36.0557 20.8668 36.3645 20.4337C36.2731 20.2717 36.1826 20.1105 36.093 19.9503C35.2692 20.2928 34.3834 20.5399 33.6965 20.6915C32.2082 23.0168 30.2472 24.9233 29.4583 25.548C27.2666 25.5507 28.7318 20.738 28.9641 16.6573C28.4954 17.068 27.9369 17.4589 27.3049 17.8185C27.4373 18.267 27.5245 18.8539 27.5579 19.6192C27.7326 23.6225 23.4613 28.1776 22.2112 29.2374C19.9514 29.336 21.6775 24.2808 21.5354 20.2921C16.5195 22.6412 15.195 29.0449 14.7493 31.4962C9.49118 32.6829 11.3678 33.9266 10.0012 27.8712C10.0012 21.1369 11.4786 18.1015 13.6536 16.1974C14.0574 14.1281 17.1143 11.9574 21.1526 11.046Z" fill="#68564B"/>
<path d="M21.1526 11.046C24.8299 10.2162 28.2201 10.6795 29.7434 12.0489C30.113 11.9726 30.6635 12.048 31.4817 12.047C32.5409 12.0457 33.4666 11.8767 34.1672 12.0665C34.1744 12.0623 34.1815 12.0579 34.1887 12.0538C36.2516 10.882 41.2459 14.5884 43.9172 19.2901C45.8546 22.7002 45.4999 29.0123 43.9172 30.8214C41.5189 32.7395 40.6196 30.0694 39.3547 26.6778C38.5115 26.6063 37.3222 25.1847 36.0969 24.6017C34.4351 23.8109 34.7206 23.8481 35.4768 22.2589C35.8227 21.532 36.0557 20.8668 36.3645 20.4337C36.2731 20.2717 36.1826 20.1105 36.093 19.9503C35.2692 20.2928 34.3834 20.5399 33.6965 20.6915C32.2082 23.0168 30.2472 24.9233 29.4583 25.548C27.2666 25.5507 28.7318 20.738 28.9641 16.6573C28.4954 17.068 27.9369 17.4589 27.3049 17.8185C27.4373 18.267 27.5245 18.8539 27.5579 19.6192C27.7326 23.6225 23.4613 28.1776 22.2112 29.2374C19.9514 29.336 21.6775 24.2808 21.5354 20.2921C16.5195 22.6412 15.195 29.0449 14.7493 31.4962C9.49118 32.6829 11.3678 33.9266 10.0012 27.8712C10.0012 21.1369 11.4786 18.1015 13.6536 16.1974C14.0574 14.1281 17.1143 11.9574 21.1526 11.046Z" fill="#68564B"/>
<path d="M21.1526 11.046C24.8299 10.2162 28.2201 10.6795 29.7434 12.0489C30.113 11.9726 30.6635 12.048 31.4817 12.047C32.5409 12.0457 33.4666 11.8767 34.1672 12.0665C34.1744 12.0623 34.1815 12.0579 34.1887 12.0538C36.2516 10.882 41.2459 14.5884 43.9172 19.2901C45.8546 22.7002 45.4999 29.0123 43.9172 30.8214C41.5189 32.7395 40.6196 30.0694 39.3547 26.6778C38.5115 26.6063 37.3222 25.1847 36.0969 24.6017C34.4351 23.8109 34.7206 23.8481 35.4768 22.2589C35.8227 21.532 36.0557 20.8668 36.3645 20.4337C36.2731 20.2717 36.1826 20.1105 36.093 19.9503C35.2692 20.2928 34.3834 20.5399 33.6965 20.6915C32.2082 23.0168 30.2472 24.9233 29.4583 25.548C27.2666 25.5507 28.7318 20.738 28.9641 16.6573C28.4954 17.068 27.9369 17.4589 27.3049 17.8185C27.4373 18.267 27.5245 18.8539 27.5579 19.6192C27.7326 23.6225 23.4613 28.1776 22.2112 29.2374C19.9514 29.336 21.6775 24.2808 21.5354 20.2921C16.5195 22.6412 15.195 29.0449 14.7493 31.4962C9.49118 32.6829 11.3678 33.9266 10.0012 27.8712C10.0012 21.1369 11.4786 18.1015 13.6536 16.1974C14.0574 14.1281 17.1143 11.9574 21.1526 11.046Z" fill="#68564B"/>
<path d="M28.4615 16.5995C30.5046 16.5104 31.9363 15.6469 32.111 19.6504C32.2858 23.6539 28.4757 28.1893 27.3595 29.2431C26.2808 28.7864 26.0038 24.4246 25.829 20.4211C25.6543 16.4176 26.4185 16.6887 28.4615 16.5995Z" fill="#68564B"/>
<path d="M32.3103 20.449C33.0666 18.8596 33.2776 17.5608 34.9398 18.3518C36.6021 19.1428 36.9576 23.2303 36.9447 24.3308C36.1884 25.9202 34.5935 23.5824 32.9313 22.7914C31.269 22.0004 31.554 22.0383 32.3103 20.449Z" fill="#68564B"/>
<path d="M14.5237 33.534C14.5286 33.9899 14.7276 35.0661 14.8478 35.6653C15.0519 36.6825 15.3217 37.4202 15.4371 37.8438C15.6856 38.7559 15.9441 39.4066 16.0397 39.5835C16.3724 40.1994 16.8058 40.7372 17.2552 41.336C18.0182 42.3528 18.6727 42.9629 18.8082 43.0309C19.0098 43.1321 19.4836 43.4263 20.3876 43.8469C21.5551 44.3902 22.3761 44.6159 22.9479 44.733C23.4113 44.8278 24.2256 44.9981 25.4184 45.1079C26.6112 45.2177 28.1576 45.2628 29.0366 45.2702C30.0807 45.279 30.4145 45.2 30.966 45.1066C31.3558 45.0405 31.9584 44.8803 32.6845 44.6441C33.4106 44.4078 34.2394 44.086 34.7501 43.859C35.4472 43.549 35.7484 43.3145 36.0371 43.167C36.3203 43.0224 36.775 42.7386 37.3819 42.3893C37.898 42.0923 38.4112 41.5006 39.0954 40.6865C39.8847 39.7475 40.1794 38.993 40.2682 38.7754C40.4543 38.3197 40.7771 37.3429 40.9928 36.6446C41.1265 36.2115 41.1552 35.8035 41.1959 35.3632C41.2312 35.0895 41.2565 34.8673 41.312 34.5218C41.3655 34.2491 41.4703 33.7788 41.6349 33.2406" stroke="#63453E" stroke-width="1.2" stroke-linecap="round"/>
<path d="M14.0712 32.174C13.6598 32.0369 12.6416 31.7533 12.2612 31.779C12.0065 31.7962 11.7924 32.0805 11.5332 32.4602C11.2505 32.8744 11.1681 33.4128 11.1162 34.0423C11.0461 34.8919 11.1499 35.5262 11.2621 35.7939C11.5119 36.3902 11.8246 36.9628 12.5326 37.689C13.0878 38.0718 13.71 38.2972 14.2627 38.3751C14.5411 38.4016 14.8153 38.4016 15.0979 38.4016" stroke="#63453E" stroke-width="1.2" stroke-linecap="round"/>
<path d="M41.5286 31.8428C41.5575 31.674 42.1478 31.3355 42.2572 31.2248C42.4146 31.0655 42.659 31.0799 42.8782 30.9942C43.3489 30.8103 44.1057 30.9766 44.4557 31.2652C44.8368 31.5794 44.8948 31.9297 45.0559 32.2285C45.2148 32.5232 45.2315 32.8674 45.2392 34.2439C45.242 34.7487 45.0859 35.0149 44.9476 35.347C44.6628 36.0308 44.3564 36.4803 44.0566 36.7876C43.7409 37.1111 43.5375 37.2821 42.8747 37.6566C42.3834 37.9342 42.0049 37.9805 41.7327 38.101C41.6814 38.1181 41.6235 38.135 41.5286 38.1437C41.4337 38.1523 41.3035 38.1523 41.1693 38.1523" stroke="#63453E" stroke-width="1.2" stroke-linecap="round"/>
<path d="M33.7326 30.8588C33.7155 30.8588 33.5092 31.0133 33.2016 31.2816C33.0338 31.428 33.0651 31.6979 33.0995 31.9793C33.1143 32.0995 33.1683 32.1663 33.2505 32.2145C33.6594 32.4546 34.1471 32.2807 34.4121 32.1424C34.5719 32.0589 34.6425 31.8995 34.6815 31.7485C34.743 31.5106 34.6862 31.3014 34.6603 31.2019C34.5983 30.9636 34.1939 30.7901 33.9374 30.7332C33.7065 30.6819 33.4734 30.7803 33.3306 30.8926C33.0582 31.107 33.0825 31.6618 33.1471 31.9417C33.1685 32.0344 33.4619 32.029 33.7824 32.0118C33.956 32.0025 34.0356 31.8821 34.1092 31.7827C34.1889 31.6751 34.1747 31.441 34.1618 31.2028C34.1568 31.1098 34.1232 31.0762 34.0756 31.0499C34.028 31.0237 33.9594 31.0065 33.894 31.0191C33.7592 31.0451 33.6723 31.1789 33.616 31.2957C33.5672 31.3969 33.5766 31.5255 33.5938 31.6338C33.6005 31.6765 33.6452 31.6821 33.6758 31.6779C33.7064 31.6738 33.7321 31.6566 33.7539 31.6349C33.7758 31.6132 33.7929 31.5874 33.8018 31.5398C33.8106 31.4923 33.8106 31.4236 33.7846 31.3529" stroke="#63453E" stroke-width="1.2" stroke-linecap="round"/>
<path d="M20.7668 30.8668C20.7565 30.8668 20.6529 30.9754 20.4963 31.1554C20.4134 31.2507 20.4064 31.4398 20.4116 31.6826C20.4142 31.8073 20.4584 31.8746 20.5156 31.9527C20.5894 32.0535 20.6933 32.1098 20.8051 32.1489C20.9866 32.2124 21.215 32.1988 21.3872 32.1962C21.5698 32.1935 21.7014 32.0634 21.8163 31.9044C21.8967 31.7932 21.9263 31.6251 21.9498 31.4324C21.9769 31.2102 21.9475 31.0706 21.924 31.0342C21.866 30.9439 21.8014 30.8931 21.6711 30.7836C21.5962 30.7207 21.452 30.7257 21.293 30.7438C21.0378 30.7729 20.9658 30.9341 20.895 31.0387C20.8241 31.1434 20.8452 31.3773 20.8841 31.5245C20.9016 31.5905 20.9807 31.6136 21.0897 31.6319C21.3098 31.6688 21.4822 31.6348 21.5317 31.5958C21.6349 31.5144 21.6287 31.2087 21.595 31.0342C21.5724 30.9176 21.4463 30.8307 21.3782 30.7729C21.2454 30.6601 20.9239 30.7517 20.8299 30.8064C20.7736 30.8392 20.7356 30.8823 20.707 30.9291C20.6284 31.0573 20.6625 31.1485 20.6675 31.5182C20.7508 31.697 20.8242 31.7755 20.8476 31.8042C20.8607 31.8174 20.8762 31.8277 20.8922 31.8384" stroke="#63453E" stroke-width="1.2" stroke-linecap="round"/>
<path d="M27.0788 33.5352C26.7658 33.9853 26.2074 34.9742 26.2886 35.1504C26.7874 35.593 27.0777 35.8582 27.2732 36.0158C27.3562 36.0859 27.4062 36.1359 27.4577 36.1874" stroke="#63453E" stroke-width="1.2" stroke-linecap="round"/>
<path d="M13.5162 35.0474C13.6532 35.0778 13.7901 35.1082 13.9215 35.1315C14.0529 35.1548 14.1746 35.17 14.2678 35.1855C14.3609 35.2009 14.4218 35.2161 14.5306 35.2318" stroke="#63453E" stroke-width="1.2" stroke-linecap="round"/>
<path d="M41.6116 34.6417C42.0253 34.4856 42.5294 34.3121 42.6237 34.2691C42.6474 34.2572 42.6707 34.2494 42.6944 34.2377C42.718 34.2259 42.7413 34.2103 42.7653 34.1943" stroke="#63453E" stroke-width="1.2" stroke-linecap="round"/>
<path d="M30.3514 40.3186C30.3514 41.3176 29.3864 42.1274 27.6382 42.1274C25.8899 42.1274 24.4727 41.3176 24.4727 40.3186C23.1157 37.8318 25.8899 38.5097 27.6382 38.5097C29.3864 38.5097 31.4819 38.2832 30.3514 40.3186Z" fill="#FFA9A0"/>
<path d="M30.3514 40.3186C30.3514 41.3176 29.3864 42.1274 27.6382 42.1274C25.8899 42.1274 24.4727 41.3176 24.4727 40.3186C23.1157 37.8318 25.8899 38.5097 27.6382 38.5097C29.3864 38.5097 31.4819 38.2832 30.3514 40.3186Z" fill="#FFA9A0"/>
<path d="M19.4773 27.451C20.0957 26.9897 20.456 26.8319 20.7378 26.7808C20.9035 26.7508 21.2099 26.7974 21.609 26.8591C21.9523 26.9542 22.2135 27.0785 22.3879 27.1967C22.4619 27.2479 22.5065 27.2813 22.5525 27.3158" stroke="#63453E" stroke-width="1.2" stroke-linecap="round"/>
<path d="M32.0486 27.3841C32.0263 27.3841 32.2601 27.228 32.7601 26.9691C33.2325 26.7246 33.8143 26.7758 34.2869 26.787C34.5811 26.8204 34.7625 26.9215 34.9143 27.0732C34.9879 27.1469 35.0548 27.2138 35.1238 27.2827" stroke="#63453E" stroke-width="1.2" stroke-linecap="round"/>
<path d="M44.2646 31.1146C44.4606 30.6395 44.7275 29.7778 45.1879 27.8821C45.3007 26.6315 45.3007 24.8391 45.1845 23.4739C45.0682 22.1087 44.8425 21.1983 44.5802 20.45C44.3179 19.7016 44.0277 19.1326 43.5671 18.4377C43.1064 17.7428 42.4939 16.9462 41.8886 16.2254C41.2834 15.5047 40.7031 14.8788 40.0973 14.3167C39.4916 13.7545 38.8991 13.2466 38.3735 12.9265C37.481 12.3829 36.5383 11.7164 35.1773 11.6798C32.5648 11.6095 31.324 12.4929 30.4975 12.0535C30.2543 11.9242 30.0166 11.6217 28.3448 10.9746C27.6799 10.7172 26.3217 10.5651 24.0988 10.7051C22.9357 10.7784 21.7032 10.8888 20.8157 11.0651C19.3727 11.3517 18.5801 11.5608 18.1041 11.7832C17.5516 12.0415 16.6506 12.4986 15.5742 13.5739C14.9343 14.2132 14.1927 15.0952 13.3569 16.3423C12.5211 17.5894 11.6184 19.1542 11.0508 20.4056C10.4831 21.657 10.2575 22.5674 10.1446 23.9606C10.0318 25.3538 9.92824 27.1805 10.065 28.3489C10.36 30.8699 11.0762 32.0734 11.3995 32.3579" stroke="#63453E" stroke-width="1.2" stroke-linecap="round"/>
<path d="M31.6393 22.4114C31.445 22.4426 31.3925 22.9251 31.2277 23.307C30.8678 24.1414 30.5934 24.8206 30.2735 25.4686C29.8712 26.2832 29.4475 27.1671 28.8626 27.8203C28.3234 28.4225 27.7793 28.9633 27.1882 29.1733C26.9224 29.2677 26.625 29.3023 26.5761 29.1272C26.4607 28.7138 26.5547 28.1403 26.5669 27.1894C26.5879 25.5481 26.5092 24.4063 26.3618 24.6422C26.1783 24.9357 25.8426 25.6072 25.4801 26.1592C25.1176 26.7112 24.7605 27.1559 24.3023 27.5138C23.3821 28.2324 22.6202 28.8211 22.0155 28.9074C21.728 28.9485 21.4552 28.8855 21.3296 28.8C21.204 28.7144 21.225 28.6095 21.2355 28.1678C21.246 27.7262 21.246 26.9707 21.3541 25.6199C21.4622 24.2692 21.672 22.3804 21.8819 20.4917" stroke="#63453E" stroke-width="1.2" stroke-linecap="round"/>
<path d="M31.8524 22.4102C32.3907 22.7243 32.812 22.9498 33.4887 23.2772C34.0999 23.573 35.2794 24.08 35.9358 24.3849C36.7064 24.7429 36.937 24.9149 37.3252 25.1685C37.9762 25.5938 38.4079 25.9951 38.5575 26.1373C38.7 26.2727 38.9917 26.5487 39.3587 26.9828C39.6702 27.3512 39.7883 27.6604 39.9897 27.9586C40.3805 28.5371 40.6138 29.0403 40.7256 29.3613C41.0732 30.3587 41.2286 30.7052 41.3114 31.0356C41.3951 31.3693 41.4986 31.9339 41.6114 32.4455C41.6341 32.5366 41.649 32.5812 41.664 32.6264C41.6791 32.6716 41.694 32.7162 41.7093 32.8521" stroke="#63453E" stroke-width="1.2" stroke-linecap="round"/>
<path d="M21.637 20.5737C21.3557 20.6842 21.0745 20.7947 20.7688 20.9521C20.4632 21.1095 20.1418 21.3104 19.725 21.6248C19.3083 21.9393 18.806 22.3612 18.472 22.6589C17.9738 23.1028 17.7415 23.3533 17.4438 23.6557C17.2255 23.8775 16.9151 24.2796 16.5837 24.7878C16.2524 25.296 15.9209 25.9087 15.715 26.3249C15.4151 26.9308 15.316 27.2192 15.2048 27.4362C15.0267 27.7837 14.9809 28.1321 14.9354 28.3245C14.8937 28.5007 14.7985 28.8609 14.7224 29.3423C14.6909 29.5416 14.6966 29.6529 14.6514 29.9811C14.6062 30.3092 14.5158 30.8517 14.4692 31.4626C14.4226 32.0736 14.4226 32.7365 14.4226 33.4196" stroke="#63453E" stroke-width="1.2" stroke-linecap="round"/>
<path d="M37.1724 42.6222C37.1476 42.647 36.8001 43.1433 36.2929 43.9503C36.0979 44.2607 36.1205 44.4226 36.1515 44.5488C36.1825 44.675 36.2445 44.7742 36.357 44.8501C36.6066 45.0185 37.0819 45.0267 37.7371 44.9461C38.113 44.8999 38.5535 44.7043 39.0004 44.4663C39.916 43.9787 40.3655 43.537 40.4405 43.4369C40.4726 43.394 40.5154 43.3864 40.5408 43.4544C40.7375 43.9818 40.8528 44.7599 41.1162 45.0451C41.2603 45.2011 41.6166 45.0271 41.96 44.8839C42.3958 44.7022 42.7061 44.252 42.9999 43.865C43.3121 43.4538 43.4703 42.9002 43.7203 42.4191C43.9449 41.987 44.0474 41.5473 44.1099 40.7197C44.1353 40.1028 44.1477 39.0861 44.1293 38.488C44.1109 37.8899 44.0613 37.7411 44.0102 37.5127" stroke="#63453E" stroke-width="1.2" stroke-linecap="round"/>
<path d="M12.7387 38.2056C12.5895 38.9518 12.4402 39.698 12.3799 40.4556C12.3196 41.2131 12.3528 41.9593 12.4859 42.5759C12.7268 43.6911 13.2729 44.3673 13.5907 44.7191C13.7118 44.8531 13.8091 44.8387 13.8932 44.7641C14.3754 44.3365 14.5789 43.4357 14.9402 43.039C15.0049 42.9679 15.0824 42.9302 15.158 42.9128C15.3126 42.8774 15.5347 43.1779 15.9761 43.8118C16.2582 44.2169 16.7658 44.7111 17.1462 45.0505C17.7504 45.5897 18.2975 45.7925 18.6907 45.9515C18.9276 46.0473 19.1859 46.0447 19.462 46.0115C19.5764 45.9978 19.6221 45.912 19.656 45.8033C19.6899 45.6945 19.7065 45.5452 19.715 45.203C19.7236 44.8608 19.7236 44.3302 19.7236 43.7834" stroke="#63453E" stroke-width="1.2" stroke-linecap="round"/>
<path d="M24.079 39.0843C24.079 39.0974 24.079 39.1104 24.1182 39.3068C24.1573 39.5032 24.2355 39.8825 24.3491 40.2251C24.4628 40.5676 24.6095 40.8619 24.7095 41.043C24.8441 41.2866 25.0945 41.5135 25.4396 41.7973C25.6787 41.994 25.9841 42.05 26.4212 42.1028C26.7276 42.1398 27.22 42.1295 27.5453 42.1198C28.0197 42.1056 28.4421 41.9719 28.9351 41.8104C29.3227 41.6835 29.5601 41.5423 29.7277 41.4073C29.8164 41.3359 29.8757 41.2397 30.0087 41.0094C30.1418 40.7791 30.3373 40.4129 30.4772 40.0738C30.6171 39.7347 30.6953 39.4339 30.7356 39.2495C30.7885 39.0073 30.7857 38.8998 30.8005 38.7977C30.8086 38.7416 30.8055 38.676 30.6393 38.6423C30.1596 38.5451 29.6709 38.589 29.4001 38.5528C29.2571 38.5336 29.0999 38.523 28.3104 38.5163C27.5208 38.5096 26.1029 38.5096 25.348 38.5161C24.4229 38.5241 24.2082 38.6019 24.0844 38.6185C24.0595 38.6283 24.0399 38.6479 24.0298 38.6842C24.0198 38.7204 24.0198 38.7728 24.0198 38.8267" stroke="#63453E" stroke-width="1.2" stroke-linecap="round"/>
<path d="M30.8145 9.00146C30.778 9.03801 30.7226 9.95214 30.7038 11.3269C30.6972 11.8067 30.7946 11.843 30.8779 11.7704C31.4181 11.3003 31.8444 10.4997 32.5924 10.0366C33.1156 9.79766 33.4717 9.64761 33.5913 9.61079C33.656 9.59224 33.7291 9.57397 33.9152 9.55515" stroke="#63453E" stroke-width="1.2" stroke-linecap="round"/>
</svg>
