<svg width="56" height="56" viewBox="0 0 56 56" fill="none" xmlns="http://www.w3.org/2000/svg">
<path d="M0 28C0 12.536 12.536 0 28 0C43.464 0 56 12.536 56 28C56 43.464 43.464 56 28 56C12.536 56 0 43.464 0 28Z" fill="#61B7DF"/>
<path d="M28.4995 20.3059C41.2414 17.8466 41.6908 24.5829 41.6636 31.1653C41.7356 31.1607 41.8082 31.1585 41.8813 31.1585C43.8793 31.1585 45.4995 32.8793 45.4995 35.0022C45.4994 37.1249 43.8792 38.846 41.8813 38.846C41.5126 38.8459 41.157 38.786 40.8218 38.677C39.0465 43.4236 34.5716 46.0813 28.4995 46.0813C21.4167 46.5663 17.4334 43.5238 15.7378 39.1487C15.4233 39.2435 15.0916 39.2961 14.7485 39.2961C12.7507 39.296 11.1313 37.5751 11.1313 35.4524C11.1314 33.3297 12.7507 31.6088 14.7485 31.6086C14.7899 31.6086 14.8315 31.6101 14.8726 31.6116C15.7367 25.315 21.0806 20.3059 28.4995 20.3059Z" fill="#FFE8CE"/>
<path d="M31.292 10.2422C34.436 9.53262 37.3715 10.0072 38.832 11.2891C40.7417 12.1945 42.9613 14.4674 44.6914 17.5127C46.6287 20.9231 47.0808 30.4793 45.498 32.2881C44.878 32.6399 44.3225 32.2229 43.7734 31.3418C42.2962 32.9546 40.4971 34.207 39.7705 34.6133C37.6617 34.4094 39.7949 30.1744 40.1152 26.8613C40.2486 25.4819 40.252 24.2754 40.3613 23.3516C40.2107 23.0216 40.0561 22.6964 39.8965 22.3789C38.8342 23.7308 36.7287 24.9479 35.9941 25.2881C34.4942 25.2899 35.304 23.5131 35.5752 21.8486C34.4369 22.2593 33.2833 22.495 32.7705 22.5586C32.7533 22.5531 32.7371 22.5458 32.7207 22.54C31.5841 23.9364 30.4611 25.0034 29.9092 25.4404C28.4558 25.4422 28.6109 23.3266 28.9482 20.7109C28.4682 20.9937 27.9106 21.231 27.3535 21.4277C27.3722 21.5048 27.3935 21.5818 27.4111 21.6602C22.7037 23.7069 17.9952 28.3475 16.8096 31.0537C16.4594 32.8264 16.7781 35.2051 15.6172 34.9229C15.2887 34.5743 14.5222 33.5853 13.9971 32.4688C11.2688 33.1481 11.0947 32.8409 10 27.9902C10.0001 21.801 11.4593 18.6305 13.4834 16.6299C14.0347 14.7023 16.6087 12.8093 19.9863 12.0469C21.8552 11.6251 23.6507 11.6234 25.1064 11.959C26.9509 11.2469 29.3003 10.6917 31.292 10.2422Z" fill="#8F6D57"/>
<path d="M14.8173 34.5049C14.8222 34.9608 14.903 35.9586 15.0232 36.5578C15.2272 37.575 15.497 38.3127 15.6124 38.7363C15.8609 39.6484 16.1195 40.2991 16.215 40.4759C16.5477 41.0919 16.9812 41.6297 17.4305 42.2285C18.1935 43.2453 18.8481 43.8554 18.9835 43.9233C19.1851 44.0245 19.6589 44.3188 20.5629 44.7394C21.7305 45.2826 22.5514 45.5083 23.1233 45.6254C23.5866 45.7203 24.4009 45.8906 25.5937 46.0004C26.7865 46.1102 28.3329 46.1553 29.212 46.1627C30.2561 46.1715 30.5899 46.0925 31.1413 45.9991C31.5312 45.933 32.1337 45.7728 32.8598 45.5366C33.586 45.3003 34.4147 44.9785 34.9254 44.7514C35.6226 44.4415 35.9237 44.207 36.2125 44.0595C36.4957 43.9149 36.9503 43.631 37.5572 43.2818C38.0733 42.9848 38.5865 42.3931 39.2708 41.579C40.06 40.64 40.3547 39.8855 40.4436 39.6679C40.6296 39.2122 40.9524 38.2354 41.1681 37.5371C41.3019 37.104 41.3306 36.6959 41.3713 36.2557C41.4065 35.9819 41.4318 35.7598 41.4874 35.4143C41.5408 35.1416 41.6456 34.6713 41.8103 34.1331" stroke="#63453E" stroke-width="1.2" stroke-linecap="round"/>
<path d="M13.6629 32.8567C13.2516 32.7196 12.8168 32.6489 12.4364 32.6747C12.1817 32.6919 11.9676 32.9762 11.7084 33.3558C11.4257 33.77 11.3433 34.3084 11.2913 34.9379C11.2212 35.7876 11.3251 36.4219 11.4373 36.6896C11.6871 37.2858 11.9998 37.8585 12.7077 38.5846C13.263 38.9674 13.8852 39.1929 14.4379 39.2708C14.7163 39.2973 14.9905 39.2973 15.2731 39.2973" stroke="#63453E" stroke-width="1.2" stroke-linecap="round"/>
<path d="M42.2218 32.5508C42.2507 32.382 42.3235 32.2276 42.4329 32.1169C42.5902 31.9576 42.8346 31.9719 43.0538 31.8863C43.5246 31.7024 44.2813 31.8687 44.6314 32.1573C45.0124 32.4715 45.0705 32.8217 45.2316 33.1206C45.3904 33.4153 45.4071 33.7595 45.4148 35.136C45.4176 35.6408 45.2616 35.907 45.1233 36.2391C44.8385 36.9229 44.5321 37.3724 44.2322 37.6797C43.9166 38.0032 43.7132 38.1742 43.0503 38.5487C42.5591 38.8263 42.1806 38.8726 41.9083 38.993C41.857 39.0102 41.7991 39.0271 41.7042 39.0357C41.6093 39.0444 41.4791 39.0444 41.345 39.0444" stroke="#63453E" stroke-width="1.2" stroke-linecap="round"/>
<path d="M33.9084 31.7509C33.8912 31.7509 33.685 31.9053 33.3774 32.1737C33.2096 32.3201 33.2409 32.59 33.2753 32.8714C33.29 32.9916 33.3441 33.0584 33.4263 33.1066C33.8352 33.3467 34.3229 33.1728 34.5879 33.0345C34.7477 32.951 34.8183 32.7916 34.8573 32.6406C34.9188 32.4027 34.862 32.1935 34.8361 32.094C34.7741 31.8557 34.3697 31.6822 34.1132 31.6253C33.8823 31.574 33.6491 31.6723 33.5064 31.7847C33.2339 31.9991 33.2583 32.5539 33.3229 32.8338C33.3443 32.9265 33.6377 32.9211 33.9582 32.9039C34.1318 32.8946 34.2113 32.7741 34.2849 32.6748C34.3647 32.5672 34.3505 32.3331 34.3376 32.0949C34.3326 32.0018 34.299 31.9683 34.2514 31.942C34.2038 31.9157 34.1352 31.8986 34.0698 31.9112C33.935 31.9372 33.8481 32.071 33.7918 32.1878C33.7429 32.289 33.7524 32.4176 33.7695 32.5259C33.7763 32.5686 33.821 32.5742 33.8516 32.57C33.8821 32.5659 33.9079 32.5487 33.9297 32.527C33.9516 32.5053 33.9687 32.4795 33.9776 32.4319C33.9864 32.3843 33.9864 32.3157 33.9604 32.245" stroke="#63453E" stroke-width="1.2" stroke-linecap="round"/>
<path d="M20.9425 31.7588C20.9321 31.7588 20.8286 31.8674 20.6719 32.0475C20.589 32.1428 20.5821 32.3319 20.5872 32.5747C20.5899 32.6994 20.6341 32.7666 20.6913 32.8448C20.7651 32.9456 20.869 33.0019 20.9807 33.041C21.1623 33.1045 21.3907 33.0909 21.5629 33.0883C21.7454 33.0855 21.8771 32.9555 21.992 32.7965C22.0723 32.6853 22.102 32.5172 22.1255 32.3245C22.1526 32.1023 22.1231 31.9627 22.0997 31.9263C22.0416 31.836 21.9771 31.7852 21.8468 31.6757C21.7718 31.6128 21.6276 31.6178 21.4686 31.6359C21.2135 31.665 21.1415 31.8262 21.0707 31.9308C20.9998 32.0355 21.0208 32.2694 21.0598 32.4166C21.0772 32.4826 21.1564 32.5057 21.2654 32.524C21.4855 32.5608 21.6579 32.5269 21.7074 32.4879C21.8106 32.4065 21.8044 32.1008 21.7706 31.9263C21.748 31.8096 21.622 31.7228 21.5539 31.665C21.4211 31.5522 21.0995 31.6438 21.0056 31.6985C20.9493 31.7313 20.9113 31.7744 20.8826 31.8211C20.804 31.9493 20.8381 32.0406 20.8431 32.4103C20.9265 32.5891 20.9998 32.6676 21.0233 32.6963C21.0364 32.7094 21.0519 32.7198 21.0679 32.7304" stroke="#63453E" stroke-width="1.2" stroke-linecap="round"/>
<path d="M24.4888 39.5133C24.7152 40.039 24.9138 40.1658 25.3303 40.4191C25.6716 40.6268 26.1014 40.7283 26.477 40.8053C26.6543 40.8416 26.8078 40.8554 27.2232 40.8691C27.6386 40.8828 28.3121 40.8918 28.695 40.883C29.151 40.8724 29.4751 40.7027 29.9414 40.4585C30.3544 40.2422 30.5835 39.9767 30.7553 39.7824C30.9451 39.5252 31.0649 39.3233 31.0966 39.2192C31.1103 39.169 31.1193 39.1241 31.1557 39.0234" stroke="#63453E" stroke-width="1.2" stroke-linecap="round"/>
<path d="M27.4286 34.7925C27.1156 35.2426 26.5571 36.2315 26.6384 36.4077C27.1372 36.8503 27.4274 37.1155 27.6229 37.2731C27.7059 37.3432 27.7559 37.3932 27.8075 37.4448" stroke="#63453E" stroke-width="1.2" stroke-linecap="round"/>
<path d="M19.99 28.3449C20.0178 28.331 20.0456 28.3171 20.6087 28.3933C21.1718 28.4695 22.2695 28.6363 23.4425 28.808" stroke="#63453E" stroke-width="1.2" stroke-linecap="round"/>
<path d="M32.032 28.9359C32.6989 28.8525 33.3658 28.7692 33.89 28.6915C34.4142 28.6138 34.7755 28.5443 34.9824 28.5016C35.1894 28.4589 35.231 28.445 35.274 28.4307" stroke="#63453E" stroke-width="1.2" stroke-linecap="round"/>
<path d="M11.7436 33.0275C10.5589 30.7179 10.3066 29.8935 10.2527 28.4741C10.2062 27.2497 10.2344 24.9979 10.2522 23.7026C10.2825 21.4962 11.0925 19.866 11.8304 18.5877C12.4142 17.5764 12.9273 16.7226 13.3396 16.3121C13.752 15.9018 14.7891 14.9245 16.3323 13.7691C17.3245 13.0262 18.2075 12.763 19.6192 12.4114C20.5952 12.1683 22.1337 11.9822 23.5621 11.8622C24.9905 11.7423 26.2712 11.7423 27.6603 11.4318C29.0493 11.1214 30.5079 10.5005 32.0419 10.2C33.576 9.89952 35.1413 9.93833 36.1433 10.0359C37.5502 10.173 38.3312 10.7204 39.1553 11.2678C40.7541 12.3297 41.424 12.9159 41.9976 13.4839C42.5118 13.9932 43.4314 15.2608 44.5439 16.9631C45.3873 18.2536 45.665 19.1874 45.844 19.7542C46.0423 20.3823 46.2763 21.029 46.348 23.0523C46.4073 24.7255 46.4197 27.7145 46.3846 29.3314C46.3461 31.1099 46.0618 31.4188 45.9006 31.6928C45.8106 31.8116 45.7038 31.8892 45.6311 31.9874C45.5583 32.0856 45.5227 32.202 45.4861 32.3219" stroke="#63453E" stroke-width="1.2" stroke-linecap="round"/>
<path d="M23.2993 9.55447C23.4823 9.61904 23.6653 9.68362 24.0932 9.92677C24.5211 10.1699 25.1884 10.5897 25.5483 10.8221C25.9082 11.0545 25.9405 11.0867 25.9841 11.0926C26.0818 11.1058 26.3629 10.5812 26.7323 9.83675C27.0279 9.39204 27.1584 9.22864 27.2398 9.16357C27.2781 9.13079 27.3104 9.0985 27.4089 9" stroke="#63453E" stroke-width="1.2" stroke-linecap="round"/>
<path d="M13.6555 31.5361C14.9949 33.8134 15.636 34.5623 16.3346 35.0341C16.5294 35.1657 16.6584 34.0942 16.7517 32.1933C16.822 30.7616 17.0872 30.0093 17.1809 29.7016C17.2651 29.4251 17.7532 28.6997 19.5523 26.9787C20.8119 25.7737 23.0237 24.1693 24.5031 23.1485C25.9824 22.1277 26.7257 21.8091 27.3077 21.5919C27.8897 21.3747 28.2878 21.2686 28.5461 21.1873C28.8043 21.1061 28.9105 21.053 28.9784 21.3973C29.1899 22.4683 29.0207 23.9143 28.9 25.0393C28.8506 25.4998 28.859 25.7395 29.6819 25.2387C30.5048 24.738 32.1507 23.4903 33.1445 22.7945C34.386 21.9254 34.8374 21.83 35.0381 21.8425C36.4657 21.9312 34.8921 25.3413 34.9319 25.4752C34.973 25.6135 35.744 25.1322 37.1469 24.1962C38.8176 23.0816 39.9591 22.661 40.0931 22.7402C40.1954 22.8008 40.1739 23.0849 40.1478 24.2831C40.1216 25.4813 40.042 27.6315 39.9479 28.9648C39.8537 30.2981 39.7476 30.7494 39.5469 31.327C38.7901 33.5048 38.7002 33.9751 38.6596 34.1891C38.6393 34.2957 38.7517 34.4031 39.098 34.3516C40.8617 34.0894 41.1649 33.4683 41.607 33.1598C41.9404 32.8538 42.2115 32.6358 42.3587 32.5557C42.4263 32.5022 42.4794 32.4226 42.5341 32.3405" stroke="#63453E" stroke-width="1.2" stroke-linecap="round"/>
<path d="M13.2812 35.0342C13.4182 35.0646 13.5551 35.095 13.6865 35.1183C13.8179 35.1416 13.9396 35.1568 14.0328 35.1723C14.1259 35.1877 14.1868 35.2029 14.2956 35.2186" stroke="#63453E" stroke-width="1.2" stroke-linecap="round"/>
<path d="M41.7874 35.5338C42.2011 35.3777 42.7052 35.2042 42.7995 35.1612C42.8232 35.1493 42.8465 35.1415 42.8701 35.1298C42.8938 35.118 42.9171 35.1024 42.9411 35.0864" stroke="#63453E" stroke-width="1.2" stroke-linecap="round"/>
</svg>
