<svg width="56" height="56" viewBox="0 0 56 56" fill="none" xmlns="http://www.w3.org/2000/svg">
<path d="M0 28C0 12.536 12.536 0 28 0C43.464 0 56 12.536 56 28C56 43.464 43.464 56 28 56C12.536 56 0 43.464 0 28Z" fill="#E2F5B9"/>
<path d="M36.8965 40.1641C35.4604 38.4386 32.9979 38.1202 31.3975 39.4521C29.7974 40.7842 29.6646 43.2629 31.1006 44.9883C31.2512 45.1692 31.414 45.3337 31.585 45.4834C32.0717 46.4703 33.8534 47.2031 35.9775 47.2031C38.4762 47.203 40.5019 46.1898 40.502 44.9404C40.502 44.0332 39.4333 43.2522 37.8916 42.8916C37.8975 41.9475 37.5696 40.9729 36.8965 40.1641Z" fill="#C8E3F3"/>
<ellipse cx="27.8423" cy="25.8059" rx="17.3442" ry="15.3333" fill="#F6F6F6"/>
<ellipse cx="27.0879" cy="29.5773" rx="2.51365" ry="2.01092" fill="#F2FBE0"/>
<ellipse cx="27.5902" cy="35.3572" rx="1.50819" ry="1.75956" fill="#FFDFC9"/>
<path d="M17.1592 40.1885C18.339 38.7709 20.5929 38.7012 22.1934 40.0332C23.7938 41.3652 24.1348 43.5941 22.9551 45.0117C22.8978 45.0805 22.8365 45.1446 22.7744 45.207C22.1283 46.0618 20.4778 46.6709 18.542 46.6709C16.0432 46.6709 14.0176 45.6576 14.0176 44.4082C14.0178 43.5336 15.011 42.7758 16.4639 42.3994C16.4128 41.6022 16.6371 40.8159 17.1592 40.1885Z" fill="#C8E3F3"/>
<path d="M24.6367 11.8884C25.2031 10.9155 25.7694 9.94255 26.1192 9.36872C26.5653 8.63712 26.763 8.45651 26.8656 8.37598C26.911 8.34027 26.939 8.30997 26.9976 8.33131C27.0561 8.35265 27.1432 8.42526 27.4205 8.81844C27.6977 9.21163 28.1624 9.92318 28.4308 10.3188C28.8363 10.9164 28.9047 11.227 28.9925 11.4251C29.0252 11.4987 29.0803 11.4924 29.1826 11.4053C29.2849 11.3181 29.4447 11.1439 29.8537 10.7637C30.2627 10.3835 30.9162 9.80261 31.3182 9.46708C31.8334 9.03705 32.0146 8.95508 32.0731 8.9256C32.1313 8.89629 32.2341 9.41977 32.4022 10.2904C32.4867 10.7277 32.6139 11.1465 32.7391 11.5305C32.9754 12.2551 33.1587 12.6942 33.2463 12.87C33.2884 12.9545 33.3919 12.9877 34.0104 12.7197C34.6289 12.4517 35.7761 11.8708 36.3961 11.5643C37.0161 11.2579 37.0742 11.2433 37.1187 11.352C37.1631 11.4607 37.1922 11.6931 37.2071 12.0596C37.2422 12.9193 37.2076 13.5303 37.1856 13.7569C37.1735 13.8815 37.1781 14.0271 37.8751 14.0946C38.5722 14.1622 39.9662 14.1476 40.6481 14.2346C41.3299 14.3215 41.2573 14.5102 41.1691 14.7019C40.9913 15.0881 40.7583 15.5963 40.575 16.1166C40.4397 16.5008 40.3764 16.6841 40.3319 16.8676C40.3174 16.9191 40.2883 16.9772 40.2661 17.0289C40.2439 17.0806 40.2294 17.1241 40.1704 17.257" stroke="#4EA5D7" stroke-width="1.3" stroke-linecap="round"/>
<path d="M40.3457 17.3477C40.9411 17.3767 41.5365 17.4057 42.1264 17.457C42.7162 17.5083 43.2826 17.5809 43.6179 17.6328C44.043 17.6986 44.1882 17.7727 44.2835 17.8676C44.4077 17.9912 44.0597 18.619 43.5761 19.3886C43.1431 20.0777 42.6938 20.5873 42.6262 20.7941C42.6055 20.8577 42.8073 20.8962 43.1723 21.006C43.5374 21.1158 44.1328 21.2755 44.6645 21.474C45.6692 21.8489 46.1394 22.1732 46.1906 22.2535C46.2207 22.3006 46.2274 22.3774 46.1695 22.4802C46.0223 22.7416 45.672 22.9499 45.2773 23.2056C44.4192 23.7614 44.2921 24.0355 44.1015 24.2555C44.028 24.3726 43.9691 24.476 43.9033 24.5638C43.8665 24.608 43.823 24.6516 43.7781 24.6965" stroke="#4EA5D7" stroke-width="1.3" stroke-linecap="round"/>
<path d="M43.7343 24.9141C44.1264 25.2481 44.5184 25.5821 44.8511 25.8848C45.1838 26.1876 45.4452 26.449 45.7396 26.707C46.7268 27.5725 46.9607 27.7299 46.9979 27.8322C47.0192 27.8908 46.8753 27.9636 46.2784 28.1753C45.6815 28.3869 44.5924 28.7354 44.0168 28.9295C43.4412 29.1236 43.4122 29.1526 43.3899 29.1966C43.341 29.2935 43.4544 29.6345 43.7974 30.372C44.0143 30.8383 44.3583 31.4725 44.6538 31.9614C44.9492 32.4503 45.1961 32.7698 45.3306 32.9562C45.465 33.1425 45.4795 33.1861 44.7827 33.3102C44.0859 33.4343 42.6773 33.6376 41.9008 33.7568C41.1244 33.8761 41.0227 33.9051 40.918 33.935" stroke="#4EA5D7" stroke-width="1.3" stroke-linecap="round"/>
<path d="M40.8313 33.9375C41.325 35.3897 41.6375 36.2975 41.7545 36.5758C41.9404 37.0178 42.078 37.3694 42.0782 37.4209C42.0782 37.4373 42.0203 37.3998 41.6639 37.334C41.3074 37.2682 40.6394 37.1666 40.1719 37.0779C39.7043 36.9892 39.4575 36.9166 39.2031 36.8418" stroke="#4EA5D7" stroke-width="1.3" stroke-linecap="round"/>
<path d="M38.7623 36.5742C38.7478 36.6323 38.7333 36.6904 38.7113 37.1705C38.6893 37.6506 38.6602 38.5509 38.638 39.051C38.6072 39.7434 38.5572 39.9177 38.4109 40.3496C38.3768 40.4502 38.3231 40.4898 38.2136 40.4469C38.104 40.404 37.9297 40.2733 37.3971 40.0389C36.8644 39.8046 35.9786 39.4706 35.4569 39.2623C34.9352 39.0539 34.8045 38.9813 34.7081 38.9366C34.6118 38.8919 34.5537 38.8774 34.531 39.3782C34.5084 39.879 34.5229 40.8955 34.2472 41.303C33.9715 41.7105 33.4052 41.4781 33.0553 41.3221C32.5813 41.1107 32.2663 40.9316 31.8857 40.756C31.2293 40.4532 30.7838 40.2565 30.5572 40.2774C30.1575 40.3143 30.0212 40.8858 29.7653 41.1703C29.6036 41.3501 29.4659 41.6726 29.2166 42.0766C28.9673 42.4805 28.6333 42.9743 28.4467 43.2577C28.2246 43.595 28.1721 43.688 28.1063 43.7248C28.0735 43.7431 28.026 43.718 27.9891 43.6887C27.912 43.6277 27.6317 43.0627 27.1486 42.1692C26.7937 41.513 26.4713 41.094 26.2955 40.7861C26.2214 40.6671 26.1778 40.6235 26.1409 40.5793C26.1039 40.5351 26.0748 40.4915 26.0449 40.4466" stroke="#4EA5D7" stroke-width="1.3" stroke-linecap="round"/>
<path d="M25.9567 40.2711C25.5356 40.4308 25.1145 40.5906 24.7088 40.7673C23.9163 41.1123 23.3767 41.3853 23.0621 41.5169C22.4438 41.7754 21.9109 42.0885 21.4918 42.3384C21.3844 42.4025 21.2509 42.4555 21.1763 42.4564C20.8256 42.4605 21.0867 41.5631 21.1087 41.0676C21.1256 40.6886 21.1162 40.0493 21 39.7492C20.8839 39.4491 20.6515 39.5072 19.8566 39.5589C19.0616 39.6106 17.7111 39.6541 17.0154 39.6475C16.3197 39.6409 16.3197 39.5829 16.356 39.3569C16.4555 38.7373 16.5397 38.2768 16.5688 38.1234C16.6573 37.6558 16.8469 37.3826 16.9428 37.1914C16.9938 37.1036 17.0964 36.8409 17.2064 36.4891C17.2438 36.3551 17.2438 36.3115 17.2878 36.2227" stroke="#4EA5D7" stroke-width="1.3" stroke-linecap="round"/>
<path d="M17.3322 36.004C16.548 36.1783 15.9843 36.3262 15.5753 36.4577C14.9993 36.643 14.5317 36.7517 14.1379 36.8613C13.435 37.0568 12.7433 37.1187 12.4131 36.872C12.1896 36.7051 12.3587 36.0736 12.4175 35.6951C12.509 35.1058 12.6817 34.628 12.7697 34.1664C12.8142 33.7312 12.8727 33.4821 12.9167 33.2845C12.9317 33.1886 12.9317 33.1015 12.9317 33.0117" stroke="#4EA5D7" stroke-width="1.3" stroke-linecap="round"/>
<path d="M12.931 33.0118C10.9561 32.6633 9.85156 32.4547 9.6905 32.3961C9.43643 32.3038 9.26454 32.2346 9.11844 32.1761C9.03228 32.1416 8.91426 32.1176 9.09402 31.8558C9.27378 31.5939 9.75299 31.1002 10.2322 30.6426C10.7114 30.1849 11.1761 29.7783 11.6549 29.3594" stroke="#4EA5D7" stroke-width="1.3" stroke-linecap="round"/>
<path d="M11.919 29.1392C11.5995 28.8778 11.28 28.6165 10.963 28.3075C10.6459 27.9986 10.341 27.6501 10.1185 27.3617C9.53274 26.602 9.42567 26.3678 9.20609 26.0893C9.16479 26.0369 9.20477 26.0008 9.27782 25.9641C9.69667 25.7534 10.1421 25.4446 10.772 25.0485C10.9777 24.9165 11.2246 24.7423 11.4171 24.6235C11.6096 24.5047 11.7403 24.4466 11.875 24.3867" stroke="#4EA5D7" stroke-width="1.3" stroke-linecap="round"/>
<path d="M12.0954 24.1664C12.0373 24.1373 11.8767 23.9481 11.6569 23.6478C11.5158 23.455 11.2324 23.0693 10.8221 22.5419C10.4224 22.0282 10.234 21.7329 9.92528 21.3076C9.86994 21.2313 9.93827 21.1749 10.0914 21.1452C10.5007 21.0658 11.0076 21.0279 11.621 20.8383C12.5419 20.5536 13.1071 20.2649 13.1948 20.2209C13.2745 20.181 13.3711 20.1769 13.4589 20.1184C13.5031 20.0889 13.5467 20.0598 13.5546 19.6818C13.5625 19.3038 13.5335 18.5777 13.504 18.1384C13.4656 17.5666 13.3865 17.3465 13.3207 17.1056C13.2205 16.7388 13.1955 16.1755 13.21 15.5751C13.2272 14.8637 13.298 14.6912 13.3926 14.6032C13.4552 14.545 13.6179 14.5733 14.0776 14.6822C14.5372 14.7911 15.3068 15.009 15.8122 15.1357C16.5298 15.3156 16.8035 15.3214 16.8912 15.2923C17.1348 15.2118 17.0384 14.8092 17.1403 14.3427C17.2173 13.99 17.3874 13.4116 17.4915 12.9526C17.6667 12.1799 17.7421 11.6417 17.8301 11.3046C17.9206 10.958 17.948 10.7013 17.9698 10.6281C17.9803 10.5928 18.0351 10.5838 18.4787 10.8523C18.9223 11.1207 19.7645 11.6725 20.2202 11.964C20.795 12.3318 21.1436 12.4303 21.3432 12.5636C21.3738 12.584 21.4235 12.535 21.5186 12.1497C21.6136 11.7645 21.7588 11.0239 21.8482 10.6061C21.9536 10.1127 22.0255 9.99725 22.0913 9.90946C22.1258 9.86345 22.1716 9.82167 22.2594 9.79923C22.3472 9.77679 22.4779 9.77679 22.5815 9.79131C22.6851 9.80583 22.7577 9.83488 23.0638 10.1548C23.3698 10.4747 23.9071 11.0846 24.4607 11.713" stroke="#4EA5D7" stroke-width="1.3" stroke-linecap="round"/>
<path d="M17.3098 39.7812C16.8742 40.8558 16.5626 41.4966 16.358 41.6867C16.2436 41.793 16.0953 41.9058 15.6938 42.169C15.2922 42.4321 14.6387 42.8387 14.2658 43.0845C13.8086 43.3858 13.6438 43.6229 13.4825 43.8865C13.3685 44.0728 13.3934 44.385 13.437 44.7947C13.4824 45.2223 13.7736 45.5591 14.1239 45.9098C14.344 46.1302 14.7065 46.3767 15.0167 46.5549C15.327 46.7331 15.5884 46.8203 16.028 46.9232C16.4676 47.0262 17.0775 47.1424 17.6676 47.2095C18.2577 47.2766 18.8095 47.2911 19.2317 47.255C19.654 47.2189 19.9299 47.1318 20.2317 47.0143C20.5336 46.8968 20.8531 46.7516 21.2428 46.5388C21.6324 46.3261 22.0826 46.0502 22.3798 45.8064C22.6771 45.5626 22.8078 45.3593 22.9405 45.1239C23.0731 44.8884 23.2038 44.6271 23.3438 44.2455C23.4837 43.864 23.6289 43.3703 23.7255 42.9199C23.8657 42.0774 23.9106 41.6008 23.9323 41.3892C23.9541 41.2501 23.8875 41.5742 23.9323 41.2767" stroke="#4EA5D7" stroke-width="1.3" stroke-linecap="round"/>
<path d="M36.5804 40.1328C36.9961 41.2518 37.1407 41.6573 37.3359 41.8552C37.4451 41.966 37.5866 42.0834 37.9698 42.3575C38.3529 42.6315 38.9765 43.0549 39.3324 43.3108C39.7687 43.6246 39.9259 43.8715 40.0798 44.146C40.1886 44.34 40.1649 44.6651 40.1233 45.0918C40.0799 45.5371 39.8021 45.8877 39.4678 46.2529C39.2578 46.4825 38.9118 46.7391 38.6158 46.9247C38.3198 47.1103 38.0703 47.201 37.6508 47.3083C37.2314 47.4155 36.6494 47.5365 36.0862 47.6063C35.5231 47.6762 34.9966 47.6913 34.5937 47.6538C34.1908 47.6162 33.9275 47.5255 33.6394 47.4031C33.3514 47.2808 33.0465 47.1295 32.6747 46.908C32.3028 46.6864 31.8733 46.3991 31.5896 46.1453C31.306 45.8914 31.1812 45.6797 31.0546 45.4345C30.928 45.1894 30.8033 44.9172 30.6698 44.5199C30.5363 44.1226 30.3977 43.6084 30.3055 43.1394C30.1718 42.2621 30.1289 41.7659 30.1082 41.5455C30.0874 41.4007 30.1469 41.2278 30.1041 40.9181" stroke="#4EA5D7" stroke-width="1.3" stroke-linecap="round"/>
<path d="M20.3762 22.6071C20.2322 22.9672 20.158 23.2608 20.206 23.4605C20.2302 23.5611 20.35 23.6242 20.5076 23.6613C20.873 23.7474 21.1758 23.6504 21.303 23.5596C21.401 23.4897 21.4672 23.3958 21.5218 23.269C21.596 23.0965 21.5164 22.9228 21.468 22.8381C21.387 22.6962 21.2137 22.5714 21.044 22.5041C20.9094 22.4507 20.7888 22.5219 20.7344 22.5703C20.673 22.6249 20.6069 22.6674 20.5645 22.7398C20.5018 22.847 20.5218 23.0425 20.5338 23.2182C20.5384 23.2868 20.5698 23.3099 20.6122 23.3343C20.7103 23.3907 20.8844 23.4074 21.0602 23.3954C21.1287 23.3907 21.1518 23.3594 21.1642 23.251C21.1983 22.9522 21.1526 22.7166 21.1042 22.638C21.0503 22.5505 20.971 22.4739 20.8441 22.4375C20.7099 22.3991 20.5829 22.4612 20.5041 22.5338C20.4734 22.5703 20.4614 22.6063 20.4492 22.6429C20.437 22.6795 20.425 22.7155 20.4126 22.789" stroke="#4EA5D7" stroke-width="1.3" stroke-linecap="round"/>
<path d="M31.9094 22.498C31.7893 22.6661 31.7275 22.8847 31.7575 23.1088C31.7704 23.2048 31.8475 23.2489 31.9325 23.2796C32.3909 23.4455 32.8185 23.3227 32.8911 23.2865C32.9755 23.2445 33.0368 23.0572 33.0913 22.8091C33.1371 22.6011 33.0859 22.462 33.0135 22.3714C32.7957 22.099 32.4685 22.0979 32.2504 22.1159C32.1628 22.1231 32.1284 22.1699 32.0978 22.2305C32.0282 22.3685 32.0185 22.4977 32.0425 22.5943C32.0583 22.6575 32.1146 22.7389 32.1873 22.7882C32.336 22.8889 32.5631 22.8618 32.7448 22.8498C32.8193 22.8449 32.8545 22.8138 32.8731 22.7654C32.8916 22.717 32.8916 22.645 32.8736 22.5899C32.8556 22.5348 32.8196 22.4988 32.783 22.4802C32.7465 22.4617 32.7105 22.4617 32.6734 22.4617" stroke="#4EA5D7" stroke-width="1.3" stroke-linecap="round"/>
<path d="M25.5086 27.7459C25.4714 27.7459 25.2295 27.9409 24.8734 28.278C24.5672 28.5679 24.5617 28.7581 24.5054 29.1595C24.4794 29.345 24.4959 29.625 24.5191 29.8428C24.5586 30.2135 24.7386 30.5199 24.9212 30.7915C25.0466 30.978 25.1704 31.0836 25.2966 31.1725C25.4383 31.2724 25.6388 31.3182 25.9049 31.379C26.068 31.4162 26.2917 31.449 26.685 31.4682C27.0782 31.4873 27.6352 31.4873 27.9547 31.4826C28.2741 31.478 28.3391 31.4687 28.4979 31.3943C28.9161 31.1984 29.2398 30.9815 29.3662 30.8785C29.4564 30.8051 29.5492 30.6259 29.6757 30.3965C29.764 30.2364 29.8123 30.0352 29.8545 29.7362C29.9066 29.3663 29.8502 29.0689 29.785 28.8959C29.6474 28.5313 29.4941 28.4216 29.4145 28.2858C29.2534 28.0108 28.9793 27.953 28.8378 27.8587C28.6524 27.7352 28.4628 27.6992 28.2476 27.5963C28.0952 27.5233 27.9562 27.5679 27.6402 27.5538C27.3522 27.541 26.8043 27.549 26.5082 27.5537C26.0906 27.6143 25.9215 27.699 25.8513 27.7223C25.8183 27.7364 25.7904 27.7549 25.7336 27.8022" stroke="#4EA5D7" stroke-width="1.3" stroke-linecap="round"/>
<path d="M26.1237 34.3106C26.1118 34.3106 26.1 34.3106 26.0909 34.4501C26.0818 34.5895 26.0759 34.8685 26.1618 35.2347C26.2478 35.6009 26.4258 36.046 26.5591 36.3376C26.6923 36.6291 26.7754 36.7538 26.836 36.8358C26.9263 36.958 27.0045 37.0138 27.1267 37.0765C27.2112 37.1198 27.3498 37.1688 27.518 37.2082C27.6862 37.2476 27.882 37.2713 28.0274 37.2835C28.2613 37.3032 28.4129 37.2542 28.5266 37.1675C28.636 37.0841 28.7425 36.937 28.8563 36.7873C28.9285 36.6922 29.0362 36.5121 29.15 36.2486C29.1965 36.1411 29.2045 36.0801 29.2165 35.6787C29.2286 35.2772 29.2405 34.5354 29.2406 34.1444C29.2408 33.7533 29.229 33.7355 29.1754 33.7293C29.0278 33.7123 28.745 33.7767 28.4515 33.8456C28.3106 33.8786 28.0977 33.9208 27.724 33.9597C27.3458 33.9991 27.125 33.9929 27.0297 34.0019C26.6993 34.0109 26.6276 34.0229 26.5257 34.0378C26.5015 34.0409 26.4837 34.0409 26.4654 34.0409" stroke="#4EA5D7" stroke-width="1.3" stroke-linecap="round"/>
</svg>
