<svg width="56" height="56" viewBox="0 0 56 56" fill="none" xmlns="http://www.w3.org/2000/svg">
<path d="M0 28C0 12.536 12.536 0 28 0C43.464 0 56 12.536 56 28C56 43.464 43.464 56 28 56C12.536 56 0 43.464 0 28Z" fill="#FFF1C4"/>
<ellipse cx="3.84594" cy="2.91905" rx="3.84594" ry="2.91905" transform="matrix(0.867562 -0.49733 0.461101 0.887348 14.8552 39.918)" fill="#C7D2FE"/>
<path d="M34.0521 38.1382C35.6673 37.0081 37.7858 37.2949 38.7845 38.7788C39.7833 40.2629 39.2836 42.3828 37.6683 43.5132C36.0533 44.6432 33.9347 44.3562 32.9359 42.8726C31.9372 41.3884 32.4369 39.2685 34.0521 38.1382Z" fill="#C7D2FE"/>
<ellipse cx="3.71364" cy="2.91905" rx="3.71364" ry="2.91905" transform="matrix(0.867562 -0.49733 0.461101 0.887348 15.756 40.3931)" fill="#C7D2FE"/>
<ellipse cx="2.8199" cy="3.16097" rx="2.8199" ry="3.16097" transform="matrix(0.811238 -0.584716 0.546968 0.837154 32.1731 40.0186)" fill="#C7D2FE"/>
<path d="M9.78778 15.5049C10.223 13.586 13.3679 12.7291 16.8122 13.5908C17.97 13.8805 19.0141 14.3275 19.8737 14.8662C21.5985 13.9372 23.6761 13.3834 25.9167 13.3584C28.3657 13.3312 30.6333 13.9385 32.4665 14.9883C33.8814 14.2097 36.449 13.801 39.3454 14.0078C43.6765 14.3171 47.1026 15.8842 46.9977 17.5078C46.8927 19.1315 43.2958 20.1969 38.9645 19.8877C38.7782 19.8744 38.5936 19.8577 38.4108 19.8398C41.2788 21.9761 43.079 24.9905 43.113 28.3496C43.1795 34.9377 36.4303 40.3547 28.0388 40.4482C19.6471 40.5417 12.79 35.2766 12.7233 28.6885C12.6993 26.3074 13.5656 24.0792 15.0778 22.2002C15.0767 22.1594 15.0734 22.1181 15.0729 22.0771C15.0677 21.5523 15.1245 21.0383 15.2341 20.5381C11.7912 19.6759 9.35311 17.4232 9.78778 15.5049Z" fill="#FFFBEC"/>
<ellipse cx="10.9315" cy="3.84825" rx="10.9315" ry="3.84825" transform="matrix(0.999938 -0.0111364 0.010095 0.999949 13.504 13.1577)" fill="#FFFBEC"/>
<ellipse cx="10.9315" cy="3.84825" rx="10.9315" ry="3.84825" transform="matrix(0.772935 0.634485 -0.63529 0.772274 24.701 10.4268)" fill="#FFFBEC"/>
<ellipse cx="2.17367" cy="1.32224" rx="2.17367" ry="1.32224" transform="matrix(0.997461 0.0712158 -0.0645851 0.997912 42.5009 17.2339)" fill="#FFFBEC"/>
<ellipse cx="2.17367" cy="1.32224" rx="2.17367" ry="1.32224" transform="matrix(0.997461 0.0712158 -0.0645851 0.997912 35.7447 18.6538)" fill="#FFFBEC"/>
<ellipse cx="2.17367" cy="2.56733" rx="2.17367" ry="2.56733" transform="matrix(0.997461 0.0712158 -0.0645851 0.997912 9.33148 14.2764)" fill="#FFFBEC"/>
<ellipse cx="8.73172" cy="6.96983" rx="8.73172" ry="6.96983" transform="matrix(0.999938 -0.0111364 0.010095 0.999949 13.0535 25.4717)" fill="#FFFBEC"/>
<ellipse cx="8.73172" cy="6.79741" rx="8.73172" ry="6.79741" transform="matrix(0.999938 -0.0111364 0.010095 0.999949 27.4667 20.7407)" fill="#FFFBEC"/>
<ellipse cx="27.2414" cy="31.8381" rx="2.02684" ry="1.4192" fill="#FFF1C4"/>
<path d="M17.5934 14.3443C17.5934 14.3047 17.1786 14.1259 16.0599 13.7571C15.3617 13.527 14.3756 13.2894 13.6631 13.1567C12.5462 12.9488 12.0142 13.0637 11.7111 13.2525C11.4939 13.3877 11.1818 13.659 10.8281 14.0491C10.049 14.9084 9.65228 15.6033 9.54772 15.8725C9.25882 16.6161 9.06208 17.5608 9.0138 18.1132C9.00413 18.2239 8.98552 18.3229 9.03237 18.4234C9.07922 18.524 9.19235 18.623 9.5523 18.8027C9.91224 18.9824 10.5156 19.2399 11.4109 19.521C12.3062 19.8022 13.4751 20.0992 14.1622 20.2621C15.0149 20.4644 15.2503 20.4851 15.3266 20.5745C15.4463 20.7148 15.2515 20.9447 15.0149 21.2526C14.5062 21.9147 14.147 22.5638 13.9951 22.9625C13.6631 23.8336 13.4614 24.4823 13.3469 25.263C13.3172 25.4656 13.2523 25.6621 13.2043 26.4968C13.1563 27.3315 13.1186 28.7969 13.0709 29.6905C13.0232 30.584 12.9666 30.8613 12.9187 31.4199C12.8707 31.9786 12.833 32.8104 12.8701 33.3774C12.9262 34.2344 13.2123 34.6064 13.3737 34.8357C13.5691 35.1132 14.0471 35.6836 14.8638 36.452C15.2736 36.8376 15.7182 37.161 16.1302 37.4236C16.5421 37.6861 16.9192 37.8643 17.3209 38.0948C18.1535 38.5725 18.6778 38.9475 19.2169 39.1662C19.6386 39.3374 20.3781 39.583 21.7373 39.8344C23.0966 40.0859 25.0574 40.3235 26.8217 40.4459C28.586 40.5683 30.0944 40.5683 31.0034 40.5485C31.9124 40.5287 32.1764 40.4891 32.4349 40.4291C32.6934 40.3691 32.9385 40.2899 33.3476 40.1204C33.7567 39.9509 34.3223 39.6934 34.9719 39.3727C35.6216 39.0519 36.338 38.6757 37.3764 37.9273C38.4149 37.179 39.7535 36.0701 40.528 35.4097C41.3024 34.7493 41.4721 34.571 41.7481 34.0931C42.024 33.6151 42.4011 32.8428 42.6614 32.3459C42.9216 31.849 43.0536 31.651 43.2347 31.3014C43.6656 30.4698 43.9318 29.7685 44.0363 29.3796C44.1546 28.9396 44.2363 28.4489 44.3788 27.9007C44.5542 27.2264 44.5608 26.3114 44.5325 25.4619C44.5165 24.9807 44.2009 24.5291 43.7266 23.8609C43.1537 23.0535 42.6377 22.6862 42.5334 22.5467C42.3886 22.353 42.1623 22.2061 41.9249 22.0963C41.6776 21.9819 41.0048 21.609 40.1766 21.0393C39.6789 20.6968 39.4764 20.6255 39.4096 20.5658C39.2086 20.3862 40.0443 20.146 41.1233 20.026C41.916 19.9378 43.2204 19.9852 44.0037 20.0149C45.0162 20.0533 45.4915 20.1652 45.9006 20.1355C46.3841 20.1004 46.6165 19.4271 46.7696 18.848C47.0352 17.8437 46.6565 17.4864 46.5325 17.2059C46.3566 16.8079 46.0669 16.447 45.7618 16.0957C45.5107 15.8065 45.2098 15.6057 43.9577 14.9771C43.013 14.5028 42.22 14.5045 41.8309 14.4349C41.3393 14.347 40.8871 14.1847 39.9603 14.1445C39.2228 14.1125 37.9401 14.1835 37.1005 14.2336C35.4487 14.3322 35.1919 14.6036 34.9631 14.7041C34.626 14.8521 33.767 14.6852 33.1554 14.4055C32.3257 14.0262 31.9924 13.9843 31.2262 13.8453C30.6328 13.7377 29.5002 13.5678 28.8608 13.476C28.1103 13.3682 27.7467 13.3446 27.3471 13.2747C27.1336 13.2373 26.9646 13.1843 26.0201 13.1543C25.1892 13.1279 23.6428 13.1441 22.7992 13.1639C21.6644 13.1906 21.3277 13.3242 20.9657 13.374C20.471 13.4421 19.8616 13.5642 19.4045 13.6437C18.892 13.7329 18.6801 13.8835 18.4513 13.984C18.2036 14.0641 17.9939 14.1241 17.8893 14.1739C17.8414 14.2039 17.8036 14.2435 17.7648 14.2843" stroke="#818CF8" stroke-width="1.3" stroke-linecap="round"/>
<path d="M20.1642 22.3048C20.1453 22.4039 20.1265 22.5029 20.1545 22.5836C20.1825 22.6643 20.2579 22.7237 20.391 22.7543C20.5241 22.7849 20.7127 22.7849 20.857 22.7354C21.0012 22.6859 21.0955 22.5869 21.1441 22.4765C21.1927 22.3661 21.1927 22.2472 21.1455 22.1365C21.0984 22.0258 21.0041 21.9268 20.8424 21.8758C20.6807 21.8247 20.4544 21.8247 20.3379 21.8644C20.2213 21.904 20.2213 21.9832 20.2307 22.0537C20.2402 22.1242 20.259 22.1836 20.3065 22.2241C20.4117 22.314 20.6013 22.3048 20.7536 22.2751C20.817 22.2628 20.8304 22.186 20.8213 22.1356C20.8121 22.0852 20.7744 22.0456 20.689 22.0252C20.6036 22.0048 20.4716 22.0048 20.4036 22.0345C20.3356 22.0642 20.3356 22.1236 20.3356 22.1848" stroke="#818CF8" stroke-width="1.3" stroke-linecap="round"/>
<path d="M32.8019 21.46C32.6798 21.4783 32.5908 21.561 32.5468 21.6857C32.5191 21.7642 32.5113 21.8296 32.5244 21.8942C32.5366 21.9549 32.608 21.9869 32.6954 22.0285C32.8708 22.112 33.0481 22.0244 33.1053 21.9829C33.195 21.9178 33.2156 21.7752 33.2158 21.5625C33.2159 21.4834 33.1194 21.405 33.0271 21.3172C32.9698 21.2627 32.8904 21.2658 32.8113 21.2795C32.7496 21.3207 32.7139 21.3765 32.6963 21.4318C32.6875 21.4597 32.6788 21.4872 32.6698 21.571" stroke="#818CF8" stroke-width="1.3" stroke-linecap="round"/>
<path d="M25.9076 30.5325C25.3671 30.8072 25.0276 31.0677 24.9352 31.3671C24.8119 31.7664 24.9299 32.0766 24.987 32.1689C25.1477 32.4287 25.3433 32.7239 25.5281 32.8949C25.6577 33.0148 25.8363 33.1033 26.0294 33.1955C26.2518 33.3018 26.6011 33.3624 27.0359 33.404C27.4605 33.4447 27.7997 33.3999 28.0195 33.3584C28.191 33.326 28.3286 33.2245 28.4735 33.1001C28.6368 32.9598 28.8387 32.6801 29.063 32.3569C29.2187 32.1324 29.3063 31.8843 29.3723 31.6074C29.4817 31.149 29.2548 30.765 29.131 30.6253C29.0131 30.4922 28.6915 30.4587 28.4972 30.3801C28.3221 30.3094 28.1537 30.3105 27.8777 30.2875C27.3775 30.2457 26.9826 30.2919 26.877 30.3104C26.7533 30.3382 26.4735 30.3932 26.2735 30.4261C26.2426 30.4306 26.2077 30.4398 26.1718 30.4492" stroke="#818CF8" stroke-width="1.3" stroke-linecap="round"/>
<path d="M26.2023 36.2942C26.2023 36.3308 26.4987 36.4688 27.0045 36.6491C27.2103 36.7225 27.3272 36.7104 27.4553 36.6601C27.97 36.4578 28.0339 36.2113 28.0689 36.1696C28.0884 36.1464 28.1388 36.1555 28.1743 36.1692C28.3551 36.2391 28.6661 36.4507 29.172 36.5621C29.3494 36.6012 29.5965 36.59 29.7353 36.581C29.8742 36.572 29.9003 36.5445 29.9443 36.4479C29.9883 36.3514 30.0493 36.1866 30.0807 36.0833C30.1122 35.9801 30.1122 35.9435 30.1122 35.9058" stroke="#818CF8" stroke-width="1.3" stroke-linecap="round"/>
<path d="M17.9231 38.6841C17.3982 39.1435 16.982 39.5179 16.6882 39.7727C16.4147 40.0099 16.2005 40.1374 16.0613 40.3604C15.8044 40.772 15.6553 41.1272 15.6332 41.3887C15.5932 41.8627 15.8007 42.3634 16.1459 42.7339C16.4556 43.0662 16.9626 43.3383 17.5652 43.6009C17.8428 43.7219 18.0803 43.7717 18.565 43.8262C19.0496 43.8807 19.7786 43.9267 20.3801 43.8738C20.9816 43.8209 21.4336 43.6677 21.8341 43.497C22.5841 43.1771 23.0466 42.8459 23.2818 42.6376C23.563 42.2733 23.6514 41.9341 23.7031 41.5172C23.7106 41.2868 23.7106 40.8734 23.7106 40.4474" stroke="#818CF8" stroke-width="1.3" stroke-linecap="round"/>
<path d="M31.9594 40.8631C32.1121 41.6787 32.2915 42.2629 32.6221 42.637C33.1199 43.2002 33.7698 43.4535 34.1087 43.6117C34.531 43.809 35.036 43.8141 35.6802 43.9253C36.1077 43.9991 36.7482 44.0483 37.1084 44.0613C37.8087 44.0866 38.3248 43.6476 38.7238 43.2842C39.0132 43.0206 39.0491 42.6327 39.1771 42.3883C39.2314 42.2846 39.3451 42.0411 39.4595 41.5645C39.5978 40.9882 39.5512 40.5834 39.5035 40.4699C39.4099 40.2472 38.8547 39.4614 38.5331 39.0045C38.4003 38.8159 38.2654 38.6514 38.1509 38.4608C38.0993 38.3857 38.0627 38.3042 38.0346 38.216C38.0166 38.175 37.9906 38.1416 37.9638 38.1072" stroke="#818CF8" stroke-width="1.3" stroke-linecap="round"/>
</svg>
