<svg width="120" height="120" viewBox="0 0 120 120" fill="none" xmlns="http://www.w3.org/2000/svg">
<path d="M60 1C92.5848 1 119 27.4152 119 60C119 92.5848 92.5848 119 60 119C27.4152 119 1 92.5848 1 60C1 27.4152 27.4152 1 60 1Z" fill="#EEEDEC"/>
<path d="M60 1C92.5848 1 119 27.4152 119 60C119 92.5848 92.5848 119 60 119C27.4152 119 1 92.5848 1 60C1 27.4152 27.4152 1 60 1Z" stroke="#F1F1F1" stroke-width="2"/>
<path d="M67.5 78.6367C71.9183 78.6367 75.5 81.0992 75.5 84.1367C75.5 84.2658 75.4903 84.3936 75.4775 84.5205C75.8901 85.0131 76.1881 85.5513 76.3525 86.1201C77.0774 86.9864 77.5 88.0225 77.5 89.1367C77.5 92.1743 74.366 94.6367 70.5 94.6367C68.0788 94.6367 65.9444 93.6712 64.6875 92.2031C61.6388 91.3676 59.5 89.4139 59.5 87.1367C59.5 86.6243 59.6099 86.1289 59.8125 85.6582C59.6104 85.1748 59.5 84.6649 59.5 84.1367C59.5 81.0992 63.0817 78.6367 67.5 78.6367ZM36.5 71.6367C40.9183 71.6367 44.5 75.2184 44.5 79.6367C44.5 80.3614 44.4013 81.0629 44.2207 81.7305C45.6858 80.4558 47.9535 79.6367 50.5 79.6367C54.9183 79.6367 58.5 82.0992 58.5 85.1367C58.5 86.5336 57.7412 87.8073 56.4932 88.7773C56.3541 90.9213 53.0538 92.6367 49 92.6367C44.8579 92.6367 41.5 90.8459 41.5 88.6367C41.5 87.8265 41.9522 87.0733 42.7285 86.4434C42.58 86.0244 42.5 85.5871 42.5 85.1367C42.5 85.0624 42.5036 84.9886 42.5078 84.915C41.0417 86.5825 38.8948 87.6367 36.5 87.6367C36.0519 87.6367 35.6126 87.5982 35.1846 87.5273C34.4798 87.5984 33.7491 87.6367 33 87.6367C27.201 87.6367 22.5 85.3981 22.5 82.6367C22.5 80.5409 25.2083 77.8836 29.0488 76.7236C30.2138 73.7462 33.1098 71.6367 36.5 71.6367ZM86 73.6367C89.9533 73.6367 93.1894 75.6761 93.4766 78.2627C95.8681 79.1819 97.5 81.0193 97.5 83.1367C97.5 85.7182 95.0745 87.8834 91.8037 88.4756C90.5025 89.2 88.8278 89.6367 87 89.6367C83.3567 89.6367 80.3211 87.9046 79.6426 85.6084C77.7325 84.6947 76.5 83.2562 76.5 81.6367C76.5 80.3631 77.2622 79.2012 78.5166 78.3184C78.763 75.7053 82.0183 73.6367 86 73.6367Z" fill="#EBD8FF"/>
<path d="M96.8828 53.7707C96.8828 69.415 90.3832 82.1358 70.501 82.1358C41.501 88.1358 24.8828 69.415 24.8828 53.7707C24.8828 38.1265 41.0006 25.4443 60.8828 25.4443C81.001 24.1367 96.8828 38.1265 96.8828 53.7707Z" fill="#F9EBFF"/>
<ellipse cx="59" cy="57.6367" rx="2.5" ry="2" fill="#EBAFF1"/>
<path d="M58.6814 25.6697C56.9264 25.4906 53.7939 26.0817 52.0805 26.4453C50.4541 26.7905 48.1214 27.5791 47.142 27.8478C45.5591 28.2821 42.7169 29.485 40.9194 30.145C37.6078 31.3611 35.4215 33.0638 33.9345 34.2039C31.5566 36.027 29.5641 38.3191 28.429 40.1721C27.7631 41.2592 26.858 43.922 26.2881 45.5188C26.0321 46.2361 25.9107 47.4542 25.8154 48.4743C25.6761 49.9653 25.5333 51.7566 25.5003 56.102C25.4837 58.2776 26.2202 59.6916 26.4438 60.923C26.596 61.7609 27.2279 62.9193 27.5751 64.1463C27.85 65.1178 28.3601 65.7888 28.8951 67.219C29.448 68.6972 29.9339 69.3712 30.3736 69.9399C31.0079 70.7603 32.1908 72.7064 33.0155 73.9691C33.4406 74.6201 34.5195 75.6367 35.4989 76.4177C36.7794 77.4388 38.4219 78.2698 39.6174 78.7167C40.2833 78.9657 40.877 79.2854 41.5356 79.4636C42.2911 79.6681 44.6964 80.4747 48.3394 81.3694C50.9601 82.0131 52.3881 82.2104 53.3892 82.3895C55.1084 82.6972 56.5396 82.5095 59.8759 82.5991C62.8998 82.6803 68.63 82.6295 72.0173 82.4522C77.4974 82.1653 78.6767 81.2002 80.3137 80.661C81.6739 80.213 82.7678 79.7636 84.4624 78.903C87.5924 77.3133 88.6177 76.3031 90.3463 74.1008C91.2848 72.9051 92.0748 71.0011 92.7098 69.4983C93.3918 67.8844 94.0298 66.2151 94.377 65.3177C94.6839 64.5246 95.1017 63.6465 95.4461 62.7214C95.9565 61.3502 96.2339 58.5846 96.3905 56.1925C96.7736 50.3415 96.0452 49.0233 95.8263 48.0623C95.633 47.2136 95.0413 46.3329 94.3497 44.7531C93.4891 42.7872 92.9655 41.6758 92.3994 40.9575C91.4048 39.6957 90.0142 38.1579 88.9404 36.8387C88.3081 36.0619 87.6817 35.464 87.0213 34.8075C86.3556 34.1458 85.5456 33.3754 83.7859 31.8252C82.8868 31.0331 81.2733 30.094 80.1967 29.2548C79.3982 28.6324 78.4993 28.2992 77.7124 27.7914C76.8091 27.2085 75.6725 26.8662 74.0977 26.7149C73.0891 26.5062 70.3827 26.319 67.4411 26.2375C65.544 26.185 62.0376 25.6697 59.2145 25.6697" stroke="#DF91D3" stroke-width="2" stroke-linecap="round"/>
<path d="M31.8475 72.6367C29.7582 75.2016 29.1014 75.8742 27.84 76.6841C27.1303 77.1398 25.7501 77.7888 24.8947 78.3009C23.6577 79.0414 23.2669 79.5575 23.0474 79.8771C22.7769 80.2709 22.6431 80.7721 22.5331 81.7283C22.4504 82.4474 22.4957 83.654 22.9858 84.6417C23.476 85.6293 24.4563 86.3648 25.8508 86.9944C27.2453 87.6239 29.0244 88.1254 30.7214 88.4004C32.4185 88.6754 33.9797 88.7088 35.4375 88.5088C36.8953 88.3087 38.2024 87.8741 39.1662 87.433C40.7905 86.6895 41.5272 85.9089 42.0207 85.4045C43.5173 83.8744 44.0577 82.1285 44.2794 81.4857C44.3163 81.3495 44.3526 81.2492 44.3894 81.1474C44.4263 81.0456 44.4626 80.9453 44.5 80.7407" stroke="#DF91D3" stroke-width="2" stroke-linecap="round"/>
<path d="M44.4828 80.6367C43.0539 84.3693 42.4994 85.7221 42.0606 86.7459C41.6714 87.6539 41.4848 88.4787 41.501 89.8504C41.5142 90.9695 43.3258 91.7039 44.7678 92.1786C45.5706 92.4429 46.5895 92.5189 47.7266 92.5882C48.8637 92.6574 50.1064 92.6574 51.0918 92.5566C53.7462 92.2849 54.6589 91.3372 55.3419 90.944C56.3062 90.3889 57.1338 89.0003 57.7662 87.6026C58.3372 86.3405 58.2908 85.5306 58.3776 84.5806C58.3954 83.536 58.4299 82.777 58.4822 82.5738C58.5 82.4714 58.5 82.3706 58.5 82.2666" stroke="#DF91D3" stroke-width="2" stroke-linecap="round"/>
<path d="M58.5 82.7389C58.5 82.9412 58.6457 84.1917 58.9029 86.0466C59.0349 86.9986 59.1987 87.4703 59.436 88.2156C59.8597 89.5462 60.7407 90.6702 61.6933 91.4345C62.9291 92.4259 64.273 92.7841 65.353 93.0727C66.0591 93.2614 67.1252 93.3951 68.6711 93.4988C70.217 93.6025 72.2204 93.6362 73.4711 93.6367C74.7217 93.6372 75.1588 93.6035 75.5661 93.4176C76.4238 93.026 76.8587 92.3111 77.1159 91.8355C77.8799 90.4226 77.3024 88.2253 77.1004 87.7298C76.839 87.0886 76.4569 86.6233 76.3272 86.0956C75.9778 85.3973 75.7571 84.9192 75.6467 84.463C75.6092 84.0742 75.6092 83.3662 75.6092 82.6367" stroke="#DF91D3" stroke-width="2" stroke-linecap="round"/>
<path d="M76.5038 82.9686C76.4327 83.0965 77.3565 84.3133 79.0252 86.233C79.7088 87.0196 80.1603 87.3535 80.9316 87.8064C81.7028 88.2593 82.8056 88.8028 83.765 89.1308C84.7244 89.4587 85.507 89.5546 86.6927 89.6041C87.8785 89.6535 89.4437 89.6535 90.499 89.5576C92.077 89.4141 93.2414 88.5926 94.3188 87.802C94.8648 87.4014 95.1504 86.8797 95.6339 85.7874C96.4292 83.9905 96.5539 82.3592 96.4828 81.6495C96.3988 80.8119 95.7649 80.4516 93.9383 78.793C92.9643 77.9026 91.9575 76.6112 91.4714 75.8671C91.3452 75.6094 91.2029 75.2258 91.0563 74.6367" stroke="#DF91D3" stroke-width="2" stroke-linecap="round"/>
<path d="M46.3202 47.7672C46.2167 48.1985 46.1132 48.6298 46.0944 48.8692C46.0756 49.1087 46.1446 49.1432 46.2233 49.1609C46.3851 49.1975 46.5461 49.1615 46.6765 49.1094C46.9585 48.997 47.1556 48.7093 47.2524 48.4654C47.329 48.272 47.2267 48.0814 47.1227 47.9512C47.0573 47.8694 46.9497 47.7693 46.836 47.716C46.7223 47.6626 46.6015 47.6626 46.4875 47.7144C46.2442 47.8249 46.1462 48.0281 46.1114 48.1324C46.0589 48.4453 46.0934 48.8122 46.1629 48.9079C46.1979 48.9518 46.2324 48.9863 46.268 49.0219" stroke="#DF91D3" stroke-width="2" stroke-linecap="round"/>
<path d="M71.1002 47.7143C70.9621 48.2664 70.9083 48.6025 70.9517 48.6982C70.9926 48.7885 71.1169 48.8639 71.3163 48.9423C71.4402 48.991 71.6365 48.969 71.7688 48.9345C71.9011 48.9 71.9701 48.831 72.0056 48.7609C72.1265 48.5227 72.0934 48.2387 72.0676 47.9775C72.0568 47.8691 71.9899 47.8199 71.8684 47.7933C71.7468 47.7666 71.5571 47.7666 71.4162 47.8097C71.2753 47.8529 71.189 47.9391 71.136 48.0094C71.0511 48.1219 71.0479 48.2883 71.0651 48.471C71.0727 48.5517 71.1169 48.602 71.1519 48.6459C71.2173 48.7278 71.4468 48.7599 71.7602 48.7426C71.8848 48.7358 71.9356 48.6909 71.9795 48.6472C72.0671 48.5602 72.0934 48.2742 72.0417 47.8826C72.0187 47.709 71.8864 47.6118 71.8072 47.5499C71.6867 47.4556 71.5022 47.4529 71.2588 47.5133C71.1262 47.5462 71.0155 47.6944 70.9532 47.9033C70.891 48.1121 70.891 48.4054 70.9083 48.5824C70.9255 48.7594 70.96 48.8111 71.0479 48.9167" stroke="#DF91D3" stroke-width="2" stroke-linecap="round"/>
<path d="M56.7934 55.6414C55.8413 56.3342 55.678 56.6612 55.6164 56.8586C55.5572 57.0481 55.5686 57.8664 55.6972 58.369C55.798 58.7629 56.1255 58.9876 56.4111 59.2401C56.5998 59.407 56.9681 59.5191 57.4632 59.6753C57.7392 59.7624 58.0794 59.818 58.5494 59.8527C59.6098 59.931 60.2902 59.8739 60.426 59.84C60.9058 59.7202 61.5138 59.0055 61.7057 58.5689C61.8982 58.1307 61.8967 57.7391 61.9306 57.3916C61.9576 57.1156 61.8837 56.7996 61.7212 56.4808C61.5171 56.0802 61.0149 55.7655 60.5662 55.5138C60.3061 55.4103 60.1285 55.3695 59.5613 55.3287C59.0883 55.3148 58.2395 55.3148 57.3241 55.3556" stroke="#DF91D3" stroke-width="2" stroke-linecap="round"/>
<path d="M57.7198 65.3817C58.9569 64.9841 59.7267 64.7572 60.1705 64.7237C60.9656 64.6638 61.6232 64.8228 61.9017 65.0343C62.1282 65.2064 62.2049 65.3811 62.2159 65.5146C62.2273 65.6518 62.2718 66.0478 62.1835 66.6824C62.097 67.3035 61.405 67.7669 60.7372 68.1571C59.7822 68.7153 59.1517 68.4611 58.6379 68.4721C57.8652 68.4887 61.0421 68.7047 61.4766 69.1161C62.2004 69.8014 61.9813 70.3113 62.1152 70.8458C62.3488 71.7786 61.9827 72.1187 61.7263 72.4762C61.4445 72.869 60.9571 72.8792 60.4775 73.0569C59.5333 73.147 58.1014 72.926 57.7878 72.7346C57.7205 72.7011 57.6542 72.6569 57.5859 72.6114" stroke="#DF91D3" stroke-width="2" stroke-linecap="round"/>
<path d="M53.5 35.7294C53.5 36.5745 53.5994 37.333 53.8371 37.9718C54.3538 39.3606 55.356 40.1463 55.6957 40.5361C56.2994 41.229 57.6156 41.7537 58.2178 41.9805C58.4927 42.0839 59.1688 42.2313 60.4696 42.3819C62.1576 42.5774 63.2407 42.4083 63.4411 42.3458C63.9287 42.1936 64.4444 41.707 64.7348 41.3798C65.0135 41.0657 65.2489 40.6525 65.4756 40.1256C65.9446 39.0356 65.5773 37.6396 65.4142 37.2498C65.2903 36.9538 64.7773 36.3124 64.3352 35.8059C63.978 35.3966 63.5194 35.1524 63.2803 34.9894C62.9971 34.7962 62.3173 34.6508 60.7623 34.6369C59.7006 34.6273 59.3767 35.1253 59.0377 35.4266C58.7263 35.7034 58.5474 36.1294 58.4344 36.5919C58.2713 37.2595 58.4457 37.7375 58.5459 37.8501C58.8346 38.1747 59.2984 38.4154 59.6998 38.5408C60.2527 38.7672 60.6542 38.8674 61.3935 38.8433C61.5588 38.7935 61.6334 38.6941 61.7102 38.5164" stroke="#DF91D3" stroke-width="2" stroke-linecap="round"/>
</svg>
