<svg width="56" height="56" viewBox="0 0 56 56" fill="none" xmlns="http://www.w3.org/2000/svg">
<path d="M0 28C0 12.536 12.536 0 28 0C43.464 0 56 12.536 56 28C56 43.464 43.464 56 28 56C12.536 56 0 43.464 0 28Z" fill="#D090EB"/>
<path d="M28.3105 20.3071C35.7913 20.3072 41.233 23.5723 41.5088 31.1646C41.5696 31.1613 41.6308 31.1606 41.6924 31.1606C43.6904 31.1606 45.3105 32.8815 45.3105 35.0044C45.3103 37.1271 43.6902 38.8481 41.6924 38.8481C41.3236 38.8481 40.968 38.7882 40.6328 38.6792C38.8575 43.4254 34.3823 46.0824 28.3105 46.0825C21.2281 46.5675 17.2446 43.5256 15.5488 39.1509C15.2344 39.2457 14.9026 39.2983 14.5596 39.2983C12.5618 39.2981 10.9424 37.5773 10.9424 35.4546C10.9424 33.3319 12.5618 31.6111 14.5596 31.6108C14.6009 31.6108 14.6426 31.6123 14.6836 31.6138C15.5475 25.3169 20.8914 20.3071 28.3105 20.3071Z" fill="#FFE8CE"/>
<path d="M42.3694 20.0571C44.4782 20.261 46.5511 22.5653 46.2307 25.8784C45.9102 29.1913 43.1948 31.3487 41.9172 32.063C41.0132 31.6119 40.7873 28.6724 40.3772 25.4829C40.6975 22.1701 40.2611 19.8536 42.3694 20.0571ZM17.5325 10.8306C21.6719 8.47281 29.8101 9.48673 31.3499 12.1899C31.7611 12.9121 31.6574 13.6802 31.2092 14.4653C31.6431 14.2829 32.1796 14.066 32.8323 13.7837C36.1579 12.3453 38.3141 10.7786 39.4719 13.4556C40.6291 16.1326 35.2518 22.0441 33.6536 23.5317C33.2976 23.6857 32.9923 23.7647 32.7307 23.7876C31.9005 24.6722 29.9096 22.925 28.1262 22.3394C27.4967 22.1326 27.0987 21.9852 26.8782 21.7905C25.8251 23.0122 24.5758 24.1128 24.0032 24.5542C22.7405 24.9741 21.8449 24.3593 21.1917 23.4165C19.1303 24.0272 17.7486 24.5932 17.4993 25.9644C17.0094 26.0749 16.5497 26.2323 16.1184 26.4233C16.1682 26.6692 16.0316 27.0427 15.7375 27.7427C15.0245 29.4398 15.3914 32.2456 13.7688 31.564C13.4325 31.1961 12.7463 30.32 12.1604 29.3149C10.7137 30.5944 9.86986 31.0306 9.13306 27.7661C9.13306 26.387 9.70395 25.2172 10.9299 24.0786C10.3953 22.0617 9.94125 19.1465 11.0715 17.9946C11.5626 17.4943 11.9825 17.2945 12.3772 17.3042C12.715 15.0127 14.6198 12.4897 17.5325 10.8306Z" fill="#9D8E84"/>
<path d="M42.3694 20.0571C44.4782 20.261 46.5511 22.5653 46.2307 25.8784C45.9102 29.1913 43.1948 31.3487 41.9172 32.063C41.0132 31.6119 40.7873 28.6724 40.3772 25.4829C40.6975 22.1701 40.2611 19.8536 42.3694 20.0571ZM17.5325 10.8306C21.6719 8.47281 29.8101 9.48673 31.3499 12.1899C31.7611 12.9121 31.6574 13.6802 31.2092 14.4653C31.6431 14.2829 32.1796 14.066 32.8323 13.7837C36.1579 12.3453 38.3141 10.7786 39.4719 13.4556C40.6291 16.1326 35.2518 22.0441 33.6536 23.5317C33.2976 23.6857 32.9923 23.7647 32.7307 23.7876C31.9005 24.6722 29.9096 22.925 28.1262 22.3394C27.4967 22.1326 27.0987 21.9852 26.8782 21.7905C25.8251 23.0122 24.5758 24.1128 24.0032 24.5542C22.7405 24.9741 21.8449 24.3593 21.1917 23.4165C19.1303 24.0272 17.7486 24.5932 17.4993 25.9644C17.0094 26.0749 16.5497 26.2323 16.1184 26.4233C16.1682 26.6692 16.0316 27.0427 15.7375 27.7427C15.0245 29.4398 15.3914 32.2456 13.7688 31.564C13.4325 31.1961 12.7463 30.32 12.1604 29.3149C10.7137 30.5944 9.86986 31.0306 9.13306 27.7661C9.13306 26.387 9.70395 25.2172 10.9299 24.0786C10.3953 22.0617 9.94125 19.1465 11.0715 17.9946C11.5626 17.4943 11.9825 17.2945 12.3772 17.3042C12.715 15.0127 14.6198 12.4897 17.5325 10.8306Z" fill="#9D8E84"/>
<path d="M42.3694 20.0571C44.4782 20.261 46.5511 22.5653 46.2307 25.8784C45.9102 29.1913 43.1948 31.3487 41.9172 32.063C41.0132 31.6119 40.7873 28.6724 40.3772 25.4829C40.6975 22.1701 40.2611 19.8536 42.3694 20.0571ZM17.5325 10.8306C21.6719 8.47281 29.8101 9.48673 31.3499 12.1899C31.7611 12.9121 31.6574 13.6802 31.2092 14.4653C31.6431 14.2829 32.1796 14.066 32.8323 13.7837C36.1579 12.3453 38.3141 10.7786 39.4719 13.4556C40.6291 16.1326 35.2518 22.0441 33.6536 23.5317C33.2976 23.6857 32.9923 23.7647 32.7307 23.7876C31.9005 24.6722 29.9096 22.925 28.1262 22.3394C27.4967 22.1326 27.0987 21.9852 26.8782 21.7905C25.8251 23.0122 24.5758 24.1128 24.0032 24.5542C22.7405 24.9741 21.8449 24.3593 21.1917 23.4165C19.1303 24.0272 17.7486 24.5932 17.4993 25.9644C17.0094 26.0749 16.5497 26.2323 16.1184 26.4233C16.1682 26.6692 16.0316 27.0427 15.7375 27.7427C15.0245 29.4398 15.3914 32.2456 13.7688 31.564C13.4325 31.1961 12.7463 30.32 12.1604 29.3149C10.7137 30.5944 9.86986 31.0306 9.13306 27.7661C9.13306 26.387 9.70395 25.2172 10.9299 24.0786C10.3953 22.0617 9.94125 19.1465 11.0715 17.9946C11.5626 17.4943 11.9825 17.2945 12.3772 17.3042C12.715 15.0127 14.6198 12.4897 17.5325 10.8306Z" fill="#9D8E84"/>
<path d="M31.1101 10.9074C33.7853 12.4795 35.9196 13.2437 34.8474 15.068C33.7753 16.8923 27.1881 15.7908 25.4006 15.3553C23.7423 14.4042 26.3161 12.6339 27.3882 10.8096C28.4603 8.98526 28.435 9.33521 31.1101 10.9074Z" fill="#9D8E84"/>
<path d="M34.1934 12.0601C37.2852 12.322 39.5402 12.0889 39.3616 14.1974C39.183 16.3059 32.7665 18.1588 30.9662 18.5384C29.0598 18.3972 30.616 15.6886 30.7946 13.5801C30.9732 11.4716 31.1015 11.7982 34.1934 12.0601Z" fill="#9D8E84"/>
<path d="M36.4917 18.0454C35.6132 15.0694 35.8921 12.8374 37.9216 12.2383C39.951 11.6393 45.3094 15.3324 43.9521 18.7259C44.5127 20.5535 43.0431 21.9685 41.0136 22.5676C38.9842 23.1667 37.3701 21.0213 36.4917 18.0454Z" fill="#9D8E84"/>
<path d="M38.075 23.244C34.2312 22.1135 32.4313 21.8056 33.6163 20.0526C34.8013 18.2995 41.2852 17.7414 42.3961 21.2232C43.9911 22.277 43.7571 24.3037 42.572 26.0567C41.387 27.8098 40.336 26.4095 38.075 23.244Z" fill="#9D8E84"/>
<path d="M13.056 32.5867C11.8261 32.5245 10.3967 32.9253 10.4896 31.0868C8.6051 28.2983 13.1597 27.2883 13.8814 26.863C15.1113 26.9252 14.5197 29.2483 14.4268 31.0868C14.3338 32.9253 14.286 32.6489 13.056 32.5867Z" fill="#9D8E84"/>
<path d="M14.6782 34.4029C14.6831 34.8588 14.7638 35.8566 14.884 36.4557C15.0881 37.4729 15.3579 38.2107 15.4732 38.6342C15.7218 39.5464 15.9803 40.197 16.0758 40.3739C16.4086 40.9899 16.842 41.5277 17.2914 42.1265C18.0544 43.1433 18.7089 43.7533 18.8443 43.8213C19.046 43.9225 19.5198 44.2167 20.4237 44.6373C21.5913 45.1806 22.4123 45.4063 22.9841 45.5234C23.4475 45.6183 24.2618 45.7885 25.4545 45.8983C26.6473 46.0081 28.1938 46.0532 29.0728 46.0606C30.1169 46.0695 30.4507 45.9905 31.0022 45.897C31.392 45.831 31.9945 45.6707 32.7207 45.4345C33.4468 45.1983 34.2756 44.8765 34.7863 44.6494C35.4834 44.3394 35.7846 44.1049 36.0733 43.9575C36.3565 43.8128 36.8111 43.529 37.4181 43.1798C37.9342 42.8828 38.4474 42.291 39.1316 41.477C39.9209 40.5379 40.2156 39.7834 40.3044 39.5659C40.4904 39.1102 40.8132 38.1334 41.0289 37.435C41.1627 37.0019 41.1914 36.5939 41.2321 36.1536C41.2674 35.8799 41.2926 35.6577 41.3482 35.3123C41.4017 35.0396 41.5064 34.5692 41.6711 34.0311" stroke="#63453E" stroke-width="1.2" stroke-linecap="round"/>
<path d="M14.1077 32.9679C13.6963 32.8308 12.6781 32.5428 12.2977 32.5685C12.043 32.5857 11.8289 32.87 11.5697 33.2497C11.287 33.6639 11.2046 34.2023 11.1527 34.8318C11.0826 35.6814 11.1864 36.3157 11.2986 36.5835C11.5484 37.1797 11.8611 37.7524 12.5691 38.4785C13.1243 38.8613 13.7465 39.0867 14.2992 39.1646C14.5776 39.1911 14.8518 39.1911 15.1344 39.1911" stroke="#63453E" stroke-width="1.2" stroke-linecap="round"/>
<path d="M41.6925 32.5139C41.7214 32.3452 42.1848 32.1216 42.2942 32.0109C42.4516 31.8517 42.696 31.866 42.9152 31.7803C43.3859 31.5964 44.1427 31.7627 44.4927 32.0513C44.8738 32.3655 44.9318 32.7158 45.0929 33.0147C45.2517 33.3093 45.2685 33.6535 45.2761 35.03C45.279 35.5348 45.1229 35.8011 44.9846 36.1332C44.6998 36.817 44.3934 37.2665 44.0936 37.5738C43.7779 37.8973 43.5745 38.0682 42.9117 38.4428C42.4204 38.7203 42.0419 38.7667 41.7696 38.8871C41.7183 38.9042 41.6605 38.9211 41.5656 38.9298C41.4707 38.9385 41.3404 38.9385 41.2063 38.9385" stroke="#63453E" stroke-width="1.2" stroke-linecap="round"/>
<path d="M33.7687 31.6488C33.7516 31.6488 33.5454 31.8033 33.2377 32.0717C33.07 32.218 33.1012 32.488 33.1357 32.7694C33.1504 32.8896 33.2045 32.9563 33.2866 33.0046C33.6955 33.2446 34.1833 33.0707 34.4482 32.9324C34.608 32.849 34.6786 32.6895 34.7176 32.5386C34.7791 32.3007 34.7223 32.0914 34.6964 31.992C34.6345 31.7537 34.2301 31.5802 33.9735 31.5232C33.7426 31.472 33.5095 31.5703 33.3667 31.6826C33.0943 31.897 33.1186 32.4518 33.1833 32.7318C33.2047 32.8244 33.498 32.819 33.8185 32.8019C33.9921 32.7926 34.0717 32.6721 34.1453 32.5728C34.225 32.4652 34.2108 32.2311 34.1979 31.9929C34.1929 31.8998 34.1593 31.8662 34.1117 31.84C34.0642 31.8137 33.9955 31.7965 33.9301 31.8091C33.7954 31.8351 33.7084 31.9689 33.6521 32.0857C33.6033 32.187 33.6127 32.3156 33.6299 32.4239C33.6366 32.4666 33.6814 32.4721 33.7119 32.468C33.7425 32.4638 33.7682 32.4466 33.7901 32.4249C33.8119 32.4032 33.8291 32.3775 33.8379 32.3299C33.8468 32.2823 33.8468 32.2136 33.8208 32.1429" stroke="#63453E" stroke-width="1.2" stroke-linecap="round"/>
<path d="M20.8033 31.6568C20.793 31.6568 20.6894 31.7654 20.5328 31.9455C20.4498 32.0408 20.4429 32.2299 20.4481 32.4726C20.4507 32.5974 20.4949 32.6646 20.5521 32.7427C20.6259 32.8435 20.7298 32.8998 20.8416 32.9389C21.0231 33.0024 21.2515 32.9888 21.4237 32.9862C21.6063 32.9835 21.7379 32.8534 21.8528 32.6944C21.9332 32.5832 21.9628 32.4151 21.9863 32.2224C22.0134 32.0002 21.984 31.8607 21.9605 31.8242C21.9025 31.734 21.8379 31.6831 21.7076 31.5737C21.6327 31.5107 21.4885 31.5158 21.3295 31.5339C21.0743 31.5629 21.0023 31.7242 20.9315 31.8288C20.8606 31.9334 20.8817 32.1674 20.9206 32.3146C20.9381 32.3806 21.0172 32.4037 21.1262 32.4219C21.3463 32.4588 21.5187 32.4248 21.5682 32.3858C21.6714 32.3045 21.6652 31.9987 21.6315 31.8242C21.6089 31.7076 21.4828 31.6208 21.4147 31.5629C21.2819 31.4501 20.9604 31.5418 20.8664 31.5965C20.8101 31.6292 20.7721 31.6723 20.7435 31.7191C20.6649 31.8473 20.699 31.9386 20.704 32.3082C20.7873 32.487 20.8607 32.5655 20.8841 32.5942C20.8972 32.6074 20.9127 32.6177 20.9287 32.6284" stroke="#63453E" stroke-width="1.2" stroke-linecap="round"/>
<path d="M27.2899 34.686C26.9769 35.1362 26.4184 36.1251 26.4997 36.3013C26.9985 36.7438 27.2887 37.0091 27.4843 37.1667C27.5672 37.2368 27.6172 37.2868 27.6688 37.3383" stroke="#63453E" stroke-width="1.2" stroke-linecap="round"/>
<path d="M30.3975 40.6765C30.3975 41.1646 29.3997 41.5603 27.592 41.5603C25.7844 41.5603 24.319 41.1646 24.319 40.6765C22.9158 39.4615 25.7844 39.7927 27.592 39.7927C29.3997 39.7927 31.5664 39.6821 30.3975 40.6765Z" fill="#FFA9A0"/>
<path d="M30.3975 40.6765C30.3975 41.1646 29.3997 41.5603 27.592 41.5603C25.7844 41.5603 24.319 41.1646 24.319 40.6765C22.9158 39.4615 25.7844 39.7927 27.592 39.7927C29.3997 39.7927 31.5664 39.6821 30.3975 40.6765Z" fill="#FFA9A0"/>
<path d="M13.5522 35.8335C13.6892 35.8639 13.8261 35.8944 13.9575 35.9176C14.0889 35.9409 14.2106 35.9561 14.3038 35.9716C14.3969 35.987 14.4578 36.0022 14.5666 36.0179" stroke="#63453E" stroke-width="1.2" stroke-linecap="round"/>
<path d="M41.6487 35.4318C42.0624 35.2756 42.5665 35.1021 42.6608 35.0591C42.6845 35.0472 42.7078 35.0395 42.7315 35.0277C42.7551 35.0159 42.7784 35.0004 42.8025 34.9844" stroke="#63453E" stroke-width="1.2" stroke-linecap="round"/>
<path d="M22.728 39.2974L20.8906 40.3998" stroke="#63453E" stroke-width="1.2" stroke-linecap="round"/>
<path d="M32.6484 39.2974L34.7614 39.8486" stroke="#63453E" stroke-width="1.2" stroke-linecap="round"/>
<path d="M14.6067 34.2399C14.6067 34.1705 14.6414 32.505 14.8153 29.8275C14.9133 28.3178 15.7248 27.5882 16.3705 26.8374C17.1425 25.9397 18.3823 25.0326 19.607 24.245C20.3165 23.7888 20.9085 23.7317 21.5547 23.8877C22.358 24.0817 22.697 24.7467 22.9413 24.8518C23.2313 24.9766 23.6417 24.8529 24.0783 24.6096C25.3981 23.8743 25.7076 22.6493 26.3207 22.2789C27.3582 21.6521 29.2068 22.4328 30.5566 23.3423C31.2844 23.8327 31.6289 24.3264 31.8733 24.4142C32.1689 24.5203 32.9551 23.8767 33.987 23.0891C34.644 22.5876 35.6168 22.5757 36.7533 22.6971C38.7619 22.9116 39.9609 25.4046 40.4033 26.3382C40.9205 27.4298 41.0159 28.5949 41.1047 29.5779C41.1932 30.5577 41.2618 31.6801 41.4021 32.154C41.4373 32.2769 41.472 32.4156 41.4899 32.6258C41.5077 32.836 41.5077 33.1134 41.6128 33.5043" stroke="#63453E" stroke-width="1.2" stroke-linecap="round"/>
<path d="M11.6877 32.7018C11.4414 32.4906 10.5266 31.5067 9.49714 29.3868C7.9636 26.2288 10.4459 24.8863 10.6794 24.3026C11.1559 23.1113 10.2018 21.0762 10.4125 19.5283C10.5818 18.2841 11.6495 17.9539 12.7256 15.7495C13.6363 13.8841 14.7623 12.5762 15.415 11.8524C16.0345 11.1654 17.3041 10.6648 18.9629 10.1702C19.7735 9.92856 20.5517 9.81576 22.297 9.7436C24.0423 9.67143 26.7391 9.67143 28.2334 9.70645C29.9407 9.74646 31.135 10.5141 32.6909 11.5393C33.7989 12.2694 35.03 12.0084 37.6265 11.9352C39.4928 11.8826 40.6953 13.4539 42.2995 13.9676C43.0168 14.1973 43.3486 14.8686 43.6134 15.5564C44.3533 17.4781 43.8813 19.3283 43.8277 19.5225C43.5762 20.434 45.6113 21.6939 45.8437 23.4758C46.1365 25.7207 45.8267 27.3581 45.7211 27.711C45.4844 28.5019 44.9426 28.9851 44.6253 29.4627C43.9524 30.1886 43.7041 30.5781 43.616 30.7898C43.5629 30.8965 43.4929 31.0016 43.3146 31.3221" stroke="#63453E" stroke-width="1.2" stroke-linecap="round"/>
<path d="M20.0688 28.1322C20.3886 27.986 20.7083 27.8399 21.0922 27.76C21.4761 27.6802 21.9146 27.671 22.3663 27.6616" stroke="#63453E" stroke-width="1.2" stroke-linecap="round"/>
<path d="M32.5803 27.3526C33.0448 27.3061 33.524 27.2822 33.9186 27.2861C34.1354 27.2882 34.3305 27.3521 34.6151 27.4689C34.768 27.5393 34.9383 27.6322 35.0377 27.6878C35.137 27.7434 35.1603 27.7589 35.2076 27.7983" stroke="#63453E" stroke-width="1.2" stroke-linecap="round"/>
<path d="M24.3259 40.0974C24.3259 40.1089 24.4233 40.3096 24.591 40.6335C24.6906 40.8258 24.7828 40.919 24.9381 41.0342C25.0486 41.1161 25.2425 41.2182 25.549 41.3201C25.8556 41.422 26.274 41.5137 26.7874 41.5696C27.3009 41.6254 27.8969 41.6426 28.2383 41.6457C28.6485 41.6495 28.8167 41.5969 29.0618 41.5077C29.2117 41.453 29.4042 41.3554 29.5475 41.2795C29.7819 41.1554 29.9342 41.0299 30.0584 40.9202C30.3003 40.7065 30.4496 40.3704 30.5135 40.2195C30.5682 40.0902 30.6177 40.0283 30.6381 39.953C30.6467 39.9299 30.6639 39.9012 30.6842 39.8578C30.7045 39.8144 30.7274 39.7571 30.751 39.6807" stroke="#63453E" stroke-width="1.2" stroke-linecap="round"/>
<path d="M24.3782 39.8893C24.5501 39.9237 24.7303 39.9586 24.9524 39.9875C25.0821 40.0044 25.2489 40.005 25.4405 40.0223C25.6321 40.0396 25.8441 40.0682 26.5379 40.0658C27.2316 40.0633 28.4006 40.029 29.0229 40.0055C29.6858 39.9805 29.761 39.9588 29.8389 39.9531C30.0289 39.9391 30.166 39.9012 30.2559 39.8836C30.3747 39.8432 30.4442 39.8199 30.4904 39.8142C30.5136 39.8084 30.5366 39.797 30.5602 39.7852" stroke="#63453E" stroke-width="1.2" stroke-linecap="round"/>
</svg>
