<svg width="25" height="18" viewBox="0 0 25 18" fill="none" xmlns="http://www.w3.org/2000/svg">
<g id="Bookmark">
<g id="&#236;&#177;&#133;&#234;&#176;&#136;&#237;&#148;&#188;" filter="url(#filter0_d_16_3586)">
<path id="Rectangle 2355" d="M25 2C25 0.895431 24.1046 0 23 0H22.3684V3.99474C22.3684 3.99765 22.3708 4 22.3737 4H23C24.1046 4 25 3.10457 25 2V2Z" fill="#828282"/>
<path id="Exclude" d="M24.9785 2.27734C24.9911 2.38169 25 2.48797 25 2.5957V3.73242C25 3.8355 24.992 3.93712 24.9805 4.03711H25V16.8086C24.9999 17.4666 24.4666 17.9999 23.8086 18H6.98145C3.12572 17.9998 9.03225e-05 14.8743 0 11.0186C1.05658e-05 7.16274 3.12567 4.03731 6.98145 4.03711H21.7949V4.02344C21.7949 4.03048 21.8006 4.03611 21.8076 4.03613H22.9639C23.9479 4.03602 24.7692 3.33812 24.959 2.41016L24.9785 2.27734ZM25 2C25 2.05427 24.9962 2.10795 24.9912 2.16113C24.9954 2.10791 25 2.0543 25 2ZM24.5352 0.705078V0.704102V0.705078ZM23.9346 0.208984V0.209961V0.208984ZM22.9639 -0.0361328C23.1747 -0.0361095 23.3781 -0.00479334 23.5693 0.0546875V0.0556641C23.5055 0.0357893 23.4404 0.0184676 23.374 0.00488281C23.3078 -0.00867172 23.2403 -0.0184397 23.1719 -0.0253906L22.9639 -0.0361328Z" fill="#FFD342"/>
<path id="&#237;&#153;&#149;&#236;&#158;&#165;" d="M9.38155 9.18421C9.82454 9.18421 10.171 9.25877 10.421 9.40789C10.6754 9.55263 10.8026 9.76754 10.8026 10.0526C10.8026 10.3377 10.6754 10.5548 10.421 10.7039C10.171 10.8487 9.82454 10.9211 9.38155 10.9211C8.93857 10.9211 8.58989 10.8487 8.3355 10.7039C8.0855 10.5548 7.9605 10.3377 7.9605 10.0526C7.9605 9.76754 8.0855 9.55263 8.3355 9.40789C8.58989 9.25877 8.93857 9.18421 9.38155 9.18421ZM9.38155 10.3289C9.82454 10.3289 10.046 10.2368 10.046 10.0526C10.046 9.86842 9.82454 9.77632 9.38155 9.77632C8.93857 9.77632 8.71708 9.86842 8.71708 10.0526C8.71708 10.2368 8.93857 10.3289 9.38155 10.3289ZM7.86182 8.97368C7.76971 8.97368 7.70173 8.94298 7.65787 8.88158C7.61401 8.81579 7.59208 8.73904 7.59208 8.65132C7.59208 8.5636 7.61401 8.48684 7.65787 8.42105C7.70173 8.35526 7.76971 8.32237 7.86182 8.32237H8.9605V8.06579C8.9605 7.95175 9.00217 7.86623 9.0855 7.80921C9.16883 7.75219 9.26752 7.72368 9.38155 7.72368C9.4912 7.72368 9.58769 7.75219 9.67103 7.80921C9.75875 7.86623 9.80261 7.95175 9.80261 8.06579V8.32237H10.8355C10.9276 8.32237 10.9956 8.35526 11.0394 8.42105C11.0833 8.48684 11.1052 8.5636 11.1052 8.65132C11.1052 8.73904 11.0833 8.81579 11.0394 8.88158C10.9956 8.94298 10.9276 8.97368 10.8355 8.97368H7.86182ZM12.3158 9.59211H12.8487C12.9539 9.59211 13.0307 9.62719 13.0789 9.69737C13.1272 9.76754 13.1513 9.85307 13.1513 9.95395C13.1513 10.0548 13.1272 10.1425 13.0789 10.2171C13.0307 10.2873 12.9539 10.3224 12.8487 10.3224H12.3158V11.6645C12.3158 11.7829 12.2741 11.8706 12.1908 11.9276C12.1074 11.9846 12.0109 12.0132 11.9013 12.0132C11.7916 12.0132 11.6951 11.9846 11.6118 11.9276C11.5285 11.8706 11.4868 11.7829 11.4868 11.6645V8.19737C11.4868 8.07895 11.5285 7.99123 11.6118 7.93421C11.6951 7.87719 11.7916 7.84868 11.9013 7.84868C12.0109 7.84868 12.1074 7.87719 12.1908 7.93421C12.2741 7.99123 12.3158 8.07895 12.3158 8.19737V9.59211ZM10.9934 11.8421C10.5636 11.8772 10.0614 11.9057 9.48682 11.9276C8.91664 11.9452 8.32454 11.9539 7.7105 11.9539C7.61401 11.9539 7.54164 11.9211 7.4934 11.8553C7.44954 11.7895 7.42761 11.7105 7.42761 11.6184C7.42761 11.5307 7.44954 11.4561 7.4934 11.3947C7.54164 11.3289 7.61401 11.2961 7.7105 11.2961C7.92103 11.2961 8.13155 11.2961 8.34208 11.2961C8.55261 11.2961 8.76313 11.2939 8.97366 11.2895V10.625H9.78945V11.2697C9.98243 11.261 10.1732 11.2522 10.3618 11.2434C10.5548 11.2303 10.7456 11.2149 10.9342 11.1974C11.0351 11.1886 11.1096 11.2127 11.1579 11.2697C11.2061 11.3268 11.2346 11.3991 11.2434 11.4868C11.2522 11.5746 11.2368 11.6535 11.1973 11.7237C11.1579 11.7939 11.0899 11.8333 10.9934 11.8421ZM11.4934 13.0724C11.4934 12.9715 11.443 12.9211 11.3421 12.9211H8.45392C8.35743 12.9211 8.28725 12.8882 8.2434 12.8224C8.19954 12.7566 8.17761 12.6798 8.17761 12.5921C8.17761 12.5044 8.19954 12.4276 8.2434 12.3618C8.28725 12.2917 8.35743 12.2566 8.45392 12.2566H11.7566C11.9671 12.2566 12.1118 12.2961 12.1908 12.375C12.2741 12.4539 12.3158 12.5965 12.3158 12.8026V13.6974C12.3158 13.8158 12.2719 13.9035 12.1842 13.9605C12.1009 14.0175 12.0066 14.0461 11.9013 14.0461C11.8004 14.0461 11.7061 14.0175 11.6184 13.9605C11.5351 13.9035 11.4934 13.8158 11.4934 13.6974V13.0724ZM15.6721 8.89474V9.05921C15.6721 9.26096 15.7028 9.42982 15.7642 9.56579C15.8256 9.70175 15.9264 9.82895 16.0668 9.94737C16.2115 10.0658 16.3453 10.1732 16.4681 10.2697C16.5953 10.3618 16.7071 10.443 16.8036 10.5132C16.8957 10.5789 16.944 10.6601 16.9484 10.7566C16.9528 10.8487 16.9242 10.9364 16.8628 11.0197C16.8365 11.0548 16.8058 11.0877 16.7707 11.1184C16.7357 11.1447 16.694 11.1645 16.6457 11.1776C16.6019 11.1908 16.5536 11.1952 16.501 11.1908C16.4528 11.182 16.4023 11.1601 16.3497 11.125C16.2751 11.0724 16.1808 11.0044 16.0668 10.9211C15.9571 10.8333 15.8365 10.7368 15.7049 10.6316C15.5471 10.5044 15.4374 10.4057 15.376 10.3355C15.319 10.2654 15.2817 10.1996 15.2642 10.1382H15.2576C15.24 10.2127 15.1984 10.2895 15.1326 10.3684C15.0668 10.4474 14.9549 10.5504 14.7971 10.6776C14.5427 10.8794 14.2883 11.0702 14.0339 11.25C13.9374 11.3202 13.8409 11.3377 13.7444 11.3026C13.6479 11.2632 13.5756 11.2083 13.5273 11.1382C13.4703 11.0592 13.4418 10.9693 13.4418 10.8684C13.4418 10.7675 13.4922 10.682 13.5931 10.6118C13.7422 10.5066 13.8826 10.4035 14.0142 10.3026C14.1501 10.2018 14.2905 10.0921 14.4352 9.97368C14.5756 9.85526 14.6764 9.72807 14.7378 9.59211C14.7992 9.45614 14.8299 9.28728 14.8299 9.08553V8.89474H13.8497C13.7488 8.89474 13.6742 8.85965 13.626 8.78947C13.5778 8.7193 13.5536 8.63596 13.5536 8.53947C13.5536 8.44298 13.5778 8.35965 13.626 8.28947C13.6742 8.2193 13.7488 8.18421 13.8497 8.18421H16.5865C16.6874 8.18421 16.762 8.2193 16.8102 8.28947C16.8585 8.35965 16.8826 8.44298 16.8826 8.53947C16.8826 8.63596 16.8585 8.7193 16.8102 8.78947C16.762 8.85965 16.6874 8.89474 16.5865 8.89474H15.6721ZM18.8102 9.26316C18.9155 9.26316 18.9922 9.29825 19.0405 9.36842C19.0887 9.4386 19.1128 9.52412 19.1128 9.625C19.1128 9.72588 19.0887 9.8136 19.0405 9.88816C18.9922 9.95833 18.9155 9.99342 18.8102 9.99342H18.1918V11.1184C18.1918 11.2412 18.1479 11.3311 18.0602 11.3882C17.9769 11.4452 17.8804 11.4737 17.7707 11.4737C17.6611 11.4737 17.5624 11.4452 17.4747 11.3882C17.3914 11.3311 17.3497 11.2412 17.3497 11.1184V8.20395C17.3497 8.08114 17.3914 7.99123 17.4747 7.93421C17.5624 7.87719 17.6611 7.84868 17.7707 7.84868C17.8804 7.84868 17.9769 7.87719 18.0602 7.93421C18.1479 7.99123 18.1918 8.08114 18.1918 8.20395V9.26316H18.8102ZM14.3299 12.7895C14.3299 12.364 14.501 12.0461 14.8431 11.8355C15.1896 11.6206 15.6655 11.5132 16.2707 11.5132C16.876 11.5132 17.3497 11.6206 17.6918 11.8355C18.0383 12.0461 18.2115 12.364 18.2115 12.7895C18.2115 13.2193 18.0383 13.5395 17.6918 13.75C17.3497 13.9605 16.876 14.0658 16.2707 14.0658C15.6655 14.0658 15.1896 13.9605 14.8431 13.75C14.501 13.5395 14.3299 13.2193 14.3299 12.7895ZM17.376 12.7895C17.376 12.6096 17.2905 12.4649 17.1194 12.3553C16.9528 12.2412 16.6699 12.1842 16.2707 12.1842C16.069 12.1842 15.8979 12.1996 15.7576 12.2303C15.6172 12.2566 15.5032 12.2961 15.4155 12.3487C15.3278 12.4013 15.2642 12.4649 15.2247 12.5395C15.1852 12.614 15.1655 12.6974 15.1655 12.7895C15.1655 12.8816 15.1852 12.9649 15.2247 13.0395C15.2642 13.114 15.3278 13.1776 15.4155 13.2303C15.5032 13.2829 15.6172 13.3224 15.7576 13.3487C15.8979 13.3794 16.069 13.3947 16.2707 13.3947C16.6699 13.3947 16.9528 13.3377 17.1194 13.2237C17.2905 13.114 17.376 12.9693 17.376 12.7895Z" fill="white"/>
</g>
</g>
<defs>
<filter id="filter0_d_16_3586" x="-5.26316" y="-3.9835" width="35.5263" height="28.5624" filterUnits="userSpaceOnUse" color-interpolation-filters="sRGB">
<feFlood flood-opacity="0" result="BackgroundImageFix"/>
<feColorMatrix in="SourceAlpha" type="matrix" values="0 0 0 0 0 0 0 0 0 0 0 0 0 0 0 0 0 0 127 0" result="hardAlpha"/>
<feOffset dy="1.31579"/>
<feGaussianBlur stdDeviation="2.63158"/>
<feComposite in2="hardAlpha" operator="out"/>
<feColorMatrix type="matrix" values="0 0 0 0 0 0 0 0 0 0 0 0 0 0 0 0 0 0 0.25 0"/>
<feBlend mode="normal" in2="BackgroundImageFix" result="effect1_dropShadow_16_3586"/>
<feBlend mode="normal" in="SourceGraphic" in2="effect1_dropShadow_16_3586" result="shape"/>
</filter>
</defs>
</svg>
