<svg width="25" height="18" viewBox="0 0 25 18" fill="none" xmlns="http://www.w3.org/2000/svg">
<g id="Bookmark">
<g id="&#236;&#177;&#133;&#234;&#176;&#136;&#237;&#148;&#188;" filter="url(#filter0_d_16_3586)">
<path id="Rectangle 2355" d="M25 2C25 0.895431 24.1046 0 23 0H22.3684V3.99474C22.3684 3.99765 22.3708 4 22.3737 4H23C24.1046 4 25 3.10457 25 2V2Z" fill="#828282"/>
<path id="Exclude" d="M24.9785 2.27734C24.9911 2.38169 25 2.48797 25 2.5957V3.73242C25 3.8355 24.992 3.93712 24.9805 4.03711H25V16.8086C24.9999 17.4666 24.4666 17.9999 23.8086 18H6.98145C3.12572 17.9998 9.03225e-05 14.8743 0 11.0186C1.05658e-05 7.16274 3.12567 4.03731 6.98145 4.03711H21.7949V4.02344C21.7949 4.03048 21.8006 4.03611 21.8076 4.03613H22.9639C23.9479 4.03602 24.7692 3.33812 24.959 2.41016L24.9785 2.27734ZM25 2C25 2.05427 24.9962 2.10795 24.9912 2.16113C24.9954 2.10791 25 2.0543 25 2ZM24.5352 0.705078V0.704102V0.705078ZM23.9346 0.208984V0.209961V0.208984ZM22.9639 -0.0361328C23.1747 -0.0361095 23.3781 -0.00479334 23.5693 0.0546875V0.0556641C23.5055 0.0357893 23.4404 0.0184676 23.374 0.00488281C23.3078 -0.00867172 23.2403 -0.0184397 23.1719 -0.0253906L22.9639 -0.0361328Z" fill="#FFF1C4"/>
<path id="&#235;&#170;&#133;&#236;&#158;&#145;" d="M10.5723 10.4671C10.5723 10.6732 10.5307 10.8158 10.4473 10.8947C10.3684 10.9737 10.2237 11.0132 10.0131 11.0132H8.28287C8.07234 11.0132 7.92541 10.9737 7.84208 10.8947C7.76313 10.8158 7.72366 10.6732 7.72366 10.4671V8.71711C7.72366 8.51097 7.76313 8.36842 7.84208 8.28947C7.92541 8.21053 8.07234 8.17105 8.28287 8.17105H10.0131C10.2237 8.17105 10.3684 8.21053 10.4473 8.28947C10.5307 8.36842 10.5723 8.51097 10.5723 8.71711V10.4671ZM9.74997 9.02632C9.74997 8.92544 9.69954 8.875 9.59866 8.875H8.69734C8.59647 8.875 8.54603 8.92544 8.54603 9.02632V10.1579C8.54603 10.2588 8.59647 10.3092 8.69734 10.3092H9.59866C9.69954 10.3092 9.74997 10.2588 9.74997 10.1579V9.02632ZM12.5263 11.1184C12.5263 11.2412 12.4824 11.3311 12.3947 11.3882C12.3114 11.4452 12.2171 11.4737 12.1118 11.4737C12.0066 11.4737 11.9101 11.4452 11.8223 11.3882C11.739 11.3311 11.6973 11.2412 11.6973 11.1184V10.5592H11.1184C11.0175 10.5592 10.943 10.5241 10.8947 10.4539C10.8509 10.3838 10.8289 10.2982 10.8289 10.1974C10.8289 10.1009 10.8509 10.0175 10.8947 9.94737C10.943 9.87719 11.0175 9.84211 11.1184 9.84211H11.6973V9.375H11.1184C11.0175 9.375 10.943 9.33991 10.8947 9.26974C10.8509 9.19956 10.8289 9.11404 10.8289 9.01316C10.8289 8.91667 10.8509 8.83333 10.8947 8.76316C10.943 8.69298 11.0175 8.65789 11.1184 8.65789H11.6973V8.20395C11.6973 8.08114 11.739 7.99123 11.8223 7.93421C11.9101 7.87719 12.0066 7.84868 12.1118 7.84868C12.2171 7.84868 12.3114 7.87719 12.3947 7.93421C12.4824 7.99123 12.5263 8.08114 12.5263 8.20395V11.1184ZM8.57234 12.7895C8.57234 12.364 8.74778 12.0461 9.09866 11.8355C9.45392 11.6206 9.94076 11.5132 10.5592 11.5132C11.1776 11.5132 11.6623 11.6206 12.0131 11.8355C12.3684 12.0461 12.546 12.364 12.546 12.7895C12.546 13.2193 12.3684 13.5395 12.0131 13.75C11.6623 13.9605 11.1776 14.0658 10.5592 14.0658C9.94076 14.0658 9.45392 13.9605 9.09866 13.75C8.74778 13.5395 8.57234 13.2193 8.57234 12.7895ZM11.7105 12.7895C11.7105 12.6096 11.6206 12.4649 11.4408 12.3553C11.2653 12.2412 10.9715 12.1842 10.5592 12.1842C10.1425 12.1842 9.84647 12.2412 9.67103 12.3553C9.49559 12.4649 9.40787 12.6096 9.40787 12.7895C9.40787 12.9693 9.49559 13.114 9.67103 13.2237C9.84647 13.3377 10.1425 13.3947 10.5592 13.3947C10.9715 13.3947 11.2653 13.3377 11.4408 13.2237C11.6206 13.114 11.7105 12.9693 11.7105 12.7895ZM15.6721 8.89474V9.05921C15.6721 9.26096 15.7028 9.42982 15.7642 9.56579C15.8256 9.70175 15.9264 9.82895 16.0668 9.94737C16.2115 10.0658 16.3453 10.1732 16.4681 10.2697C16.5953 10.3618 16.7071 10.443 16.8036 10.5132C16.8957 10.5789 16.944 10.6601 16.9484 10.7566C16.9528 10.8487 16.9242 10.9364 16.8628 11.0197C16.8365 11.0548 16.8058 11.0877 16.7707 11.1184C16.7357 11.1447 16.694 11.1645 16.6457 11.1776C16.6019 11.1908 16.5536 11.1952 16.501 11.1908C16.4528 11.182 16.4023 11.1601 16.3497 11.125C16.2751 11.0724 16.1808 11.0044 16.0668 10.9211C15.9571 10.8333 15.8365 10.7368 15.7049 10.6316C15.5471 10.5044 15.4374 10.4057 15.376 10.3355C15.319 10.2654 15.2817 10.1996 15.2642 10.1382H15.2576C15.24 10.2127 15.1984 10.2895 15.1326 10.3684C15.0668 10.4474 14.9549 10.5504 14.7971 10.6776C14.5427 10.8794 14.2883 11.0702 14.0339 11.25C13.9374 11.3202 13.8409 11.3377 13.7444 11.3026C13.6479 11.2632 13.5756 11.2083 13.5273 11.1382C13.4703 11.0592 13.4418 10.9693 13.4418 10.8684C13.4418 10.7675 13.4922 10.682 13.5931 10.6118C13.7422 10.5066 13.8826 10.4035 14.0142 10.3026C14.1501 10.2018 14.2905 10.0921 14.4352 9.97368C14.5756 9.85526 14.6764 9.72807 14.7378 9.59211C14.7992 9.45614 14.8299 9.28728 14.8299 9.08553V8.89474H13.8497C13.7488 8.89474 13.6742 8.85965 13.626 8.78947C13.5778 8.7193 13.5536 8.63596 13.5536 8.53947C13.5536 8.44298 13.5778 8.35965 13.626 8.28947C13.6742 8.2193 13.7488 8.18421 13.8497 8.18421H16.5865C16.6874 8.18421 16.762 8.2193 16.8102 8.28947C16.8585 8.35965 16.8826 8.44298 16.8826 8.53947C16.8826 8.63596 16.8585 8.7193 16.8102 8.78947C16.762 8.85965 16.6874 8.89474 16.5865 8.89474H15.6721ZM18.8102 9.23026C18.9155 9.23026 18.9922 9.26535 19.0405 9.33553C19.0887 9.4057 19.1128 9.49123 19.1128 9.59211C19.1128 9.69298 19.0887 9.7807 19.0405 9.85526C18.9922 9.92544 18.9155 9.96053 18.8102 9.96053H18.1918V11.0921C18.1918 11.2149 18.1479 11.3048 18.0602 11.3618C17.9769 11.4189 17.8804 11.4474 17.7707 11.4474C17.6611 11.4474 17.5624 11.4189 17.4747 11.3618C17.3914 11.3048 17.3497 11.2149 17.3497 11.0921V8.20395C17.3497 8.08114 17.3914 7.99123 17.4747 7.93421C17.5624 7.87719 17.6611 7.84868 17.7707 7.84868C17.8804 7.84868 17.9769 7.87719 18.0602 7.93421C18.1479 7.99123 18.1918 8.08114 18.1918 8.20395V9.23026H18.8102ZM17.3497 12.5526C17.3497 12.4518 17.2992 12.4013 17.1984 12.4013H14.4878C14.387 12.4013 14.3124 12.3662 14.2642 12.2961C14.2159 12.2259 14.1918 12.1425 14.1918 12.0461C14.1918 11.9496 14.2159 11.8662 14.2642 11.7961C14.3124 11.7259 14.387 11.6908 14.4878 11.6908H17.6326C17.8431 11.6908 17.9878 11.7303 18.0668 11.8092C18.1501 11.8882 18.1918 12.0307 18.1918 12.2368V13.6776C18.1918 13.8004 18.1479 13.8904 18.0602 13.9474C17.9769 14.0044 17.8804 14.0329 17.7707 14.0329C17.6611 14.0329 17.5624 14.0044 17.4747 13.9474C17.3914 13.8904 17.3497 13.8004 17.3497 13.6776V12.5526Z" fill="#342E29"/>
</g>
</g>
<defs>
<filter id="filter0_d_16_3586" x="-5.26316" y="-3.9835" width="35.5263" height="28.5624" filterUnits="userSpaceOnUse" color-interpolation-filters="sRGB">
<feFlood flood-opacity="0" result="BackgroundImageFix"/>
<feColorMatrix in="SourceAlpha" type="matrix" values="0 0 0 0 0 0 0 0 0 0 0 0 0 0 0 0 0 0 127 0" result="hardAlpha"/>
<feOffset dy="1.31579"/>
<feGaussianBlur stdDeviation="2.63158"/>
<feComposite in2="hardAlpha" operator="out"/>
<feColorMatrix type="matrix" values="0 0 0 0 0 0 0 0 0 0 0 0 0 0 0 0 0 0 0.25 0"/>
<feBlend mode="normal" in2="BackgroundImageFix" result="effect1_dropShadow_16_3586"/>
<feBlend mode="normal" in="SourceGraphic" in2="effect1_dropShadow_16_3586" result="shape"/>
</filter>
</defs>
</svg>
