<svg width="25" height="18" viewBox="0 0 25 18" fill="none" xmlns="http://www.w3.org/2000/svg">
<g id="Bookmark">
<g id="&#236;&#177;&#133;&#234;&#176;&#136;&#237;&#148;&#188;" filter="url(#filter0_d_16_3586)">
<path id="Rectangle 2355" d="M25 2C25 0.895431 24.1046 0 23 0H22.3684V3.99474C22.3684 3.99765 22.3708 4 22.3737 4H23C24.1046 4 25 3.10457 25 2V2Z" fill="#828282"/>
<path id="Exclude" d="M24.9785 2.27734C24.9911 2.38169 25 2.48797 25 2.5957V3.73242C25 3.8355 24.992 3.93712 24.9805 4.03711H25V16.8086C24.9999 17.4666 24.4666 17.9999 23.8086 18H6.98145C3.12572 17.9998 9.03225e-05 14.8743 0 11.0186C1.05658e-05 7.16274 3.12567 4.03731 6.98145 4.03711H21.7949V4.02344C21.7949 4.03048 21.8006 4.03611 21.8076 4.03613H22.9639C23.9479 4.03602 24.7692 3.33812 24.959 2.41016L24.9785 2.27734ZM25 2C25 2.05427 24.9962 2.10795 24.9912 2.16113C24.9954 2.10791 25 2.0543 25 2ZM24.5352 0.705078V0.704102V0.705078ZM23.9346 0.208984V0.209961V0.208984ZM22.9639 -0.0361328C23.1747 -0.0361095 23.3781 -0.00479334 23.5693 0.0546875V0.0556641C23.5055 0.0357893 23.4404 0.0184676 23.374 0.00488281C23.3078 -0.00867172 23.2403 -0.0184397 23.1719 -0.0253906L22.9639 -0.0361328Z" fill="#3C3530"/>
<path id="&#236;&#160;&#156;&#236;&#158;&#145;" d="M9.38813 9.13636V9.66925C9.38813 9.79645 9.39471 9.91487 9.40787 10.0245C9.42103 10.1298 9.44076 10.2285 9.46708 10.3206C9.49778 10.4127 9.53506 10.5026 9.57892 10.5903C9.62717 10.6736 9.68638 10.757 9.75655 10.8403C9.86182 10.9675 9.96489 11.0837 10.0658 11.189C10.1666 11.2943 10.2522 11.3842 10.3223 11.4587C10.3969 11.5377 10.4298 11.6298 10.421 11.735C10.4123 11.8359 10.3728 11.9214 10.3026 11.9916C10.228 12.0662 10.1403 12.1057 10.0394 12.11C9.94296 12.1144 9.85743 12.0793 9.78287 12.0048C9.73462 11.9565 9.66883 11.8907 9.5855 11.8074C9.50655 11.7197 9.42322 11.6254 9.3355 11.5245C9.19954 11.3754 9.10962 11.257 9.06576 11.1693C9.0219 11.0815 8.9934 11.0048 8.98024 10.939H8.97366C8.96489 11.0136 8.93638 11.0969 8.88813 11.189C8.83989 11.2811 8.74778 11.4039 8.61182 11.5574C8.5241 11.6583 8.43638 11.7548 8.34866 11.8469C8.26094 11.939 8.16664 12.0355 8.06576 12.1364C7.9912 12.2109 7.90129 12.2438 7.79603 12.235C7.69076 12.2219 7.60524 12.1824 7.53945 12.1166C7.46489 12.0421 7.42103 11.9543 7.40787 11.8535C7.3991 11.7482 7.43418 11.6539 7.51313 11.5706C7.63594 11.4434 7.75217 11.3228 7.86182 11.2087C7.97585 11.0903 8.0855 10.9675 8.19076 10.8403C8.26094 10.757 8.31796 10.6736 8.36182 10.5903C8.41006 10.5026 8.44734 10.4127 8.47366 10.3206C8.50436 10.2285 8.52629 10.1298 8.53945 10.0245C8.55261 9.91487 8.55918 9.79645 8.55918 9.66925V9.13636H7.79603C7.69515 9.13636 7.62059 9.10127 7.57234 9.0311C7.5241 8.96092 7.49997 8.87759 7.49997 8.7811C7.49997 8.68022 7.5241 8.59469 7.57234 8.52452C7.62059 8.45434 7.69515 8.41925 7.79603 8.41925H10.0855C10.1864 8.41925 10.2609 8.45434 10.3092 8.52452C10.3574 8.59469 10.3816 8.68022 10.3816 8.7811C10.3816 8.87759 10.3574 8.96092 10.3092 9.0311C10.2609 9.10127 10.1864 9.13636 10.0855 9.13636H9.38813ZM10.7039 10.5179H10.2302C10.1294 10.5179 10.0548 10.4829 10.0066 10.4127C9.95831 10.3425 9.93418 10.257 9.93418 10.1561C9.93418 10.0552 9.95831 9.96969 10.0066 9.89952C10.0548 9.82934 10.1294 9.79425 10.2302 9.79425H10.7039V8.32057C10.7039 8.20653 10.7434 8.1232 10.8223 8.07057C10.9013 8.01794 10.9912 7.99162 11.0921 7.99162C11.1886 7.99162 11.2763 8.01794 11.3552 8.07057C11.4342 8.1232 11.4737 8.20653 11.4737 8.32057V13.0706C11.4737 13.1846 11.4342 13.2679 11.3552 13.3206C11.2763 13.3732 11.1886 13.3995 11.0921 13.3995C10.9912 13.3995 10.9013 13.3732 10.8223 13.3206C10.7434 13.2679 10.7039 13.1846 10.7039 13.0706V10.5179ZM11.9013 8.25478C11.9013 8.14074 11.9408 8.05741 12.0197 8.00478C12.0987 7.95215 12.1886 7.92583 12.2894 7.92583C12.3903 7.92583 12.4802 7.95215 12.5592 8.00478C12.6381 8.05741 12.6776 8.14074 12.6776 8.25478V13.3469C12.6776 13.4609 12.6381 13.5443 12.5592 13.5969C12.4802 13.6495 12.3903 13.6758 12.2894 13.6758C12.1886 13.6758 12.0987 13.6495 12.0197 13.5969C11.9408 13.5443 11.9013 13.4609 11.9013 13.3469V8.25478ZM15.6721 8.97189V9.13636C15.6721 9.33811 15.7028 9.50697 15.7642 9.64294C15.8256 9.7789 15.9264 9.9061 16.0668 10.0245C16.2115 10.1429 16.3453 10.2504 16.4681 10.3469C16.5953 10.439 16.7071 10.5201 16.8036 10.5903C16.8957 10.6561 16.944 10.7372 16.9484 10.8337C16.9528 10.9258 16.9242 11.0136 16.8628 11.0969C16.8365 11.132 16.8058 11.1649 16.7707 11.1956C16.7357 11.2219 16.694 11.2416 16.6457 11.2548C16.6019 11.2679 16.5536 11.2723 16.501 11.2679C16.4528 11.2592 16.4023 11.2372 16.3497 11.2021C16.2751 11.1495 16.1808 11.0815 16.0668 10.9982C15.9571 10.9105 15.8365 10.814 15.7049 10.7087C15.5471 10.5815 15.4374 10.4829 15.376 10.4127C15.319 10.3425 15.2817 10.2767 15.2642 10.2153H15.2576C15.24 10.2899 15.1984 10.3666 15.1326 10.4456C15.0668 10.5245 14.9549 10.6276 14.7971 10.7548C14.5427 10.9565 14.2883 11.1473 14.0339 11.3271C13.9374 11.3973 13.8409 11.4149 13.7444 11.3798C13.6479 11.3403 13.5756 11.2855 13.5273 11.2153C13.4703 11.1364 13.4418 11.0464 13.4418 10.9456C13.4418 10.8447 13.4922 10.7592 13.5931 10.689C13.7422 10.5837 13.8826 10.4807 14.0142 10.3798C14.1501 10.2789 14.2905 10.1693 14.4352 10.0508C14.5756 9.93241 14.6764 9.80522 14.7378 9.66925C14.7992 9.53329 14.8299 9.36443 14.8299 9.16267V8.97189H13.8497C13.7488 8.97189 13.6742 8.9368 13.626 8.86662C13.5778 8.79645 13.5536 8.71311 13.5536 8.61662C13.5536 8.52013 13.5778 8.4368 13.626 8.36662C13.6742 8.29645 13.7488 8.26136 13.8497 8.26136H16.5865C16.6874 8.26136 16.762 8.29645 16.8102 8.36662C16.8585 8.4368 16.8826 8.52013 16.8826 8.61662C16.8826 8.71311 16.8585 8.79645 16.8102 8.86662C16.762 8.9368 16.6874 8.97189 16.5865 8.97189H15.6721ZM18.8102 9.30741C18.9155 9.30741 18.9922 9.3425 19.0405 9.41267C19.0887 9.48285 19.1128 9.56838 19.1128 9.66925C19.1128 9.77013 19.0887 9.85785 19.0405 9.93241C18.9922 10.0026 18.9155 10.0377 18.8102 10.0377H18.1918V11.1693C18.1918 11.2921 18.1479 11.382 18.0602 11.439C17.9769 11.496 17.8804 11.5245 17.7707 11.5245C17.6611 11.5245 17.5624 11.496 17.4747 11.439C17.3914 11.382 17.3497 11.2921 17.3497 11.1693V8.2811C17.3497 8.15829 17.3914 8.06838 17.4747 8.01136C17.5624 7.95434 17.6611 7.92583 17.7707 7.92583C17.8804 7.92583 17.9769 7.95434 18.0602 8.01136C18.1479 8.06838 18.1918 8.15829 18.1918 8.2811V9.30741H18.8102ZM17.3497 12.6298C17.3497 12.5289 17.2992 12.4785 17.1984 12.4785H14.4878C14.387 12.4785 14.3124 12.4434 14.2642 12.3732C14.2159 12.303 14.1918 12.2197 14.1918 12.1232C14.1918 12.0267 14.2159 11.9434 14.2642 11.8732C14.3124 11.803 14.387 11.7679 14.4878 11.7679H17.6326C17.8431 11.7679 17.9878 11.8074 18.0668 11.8864C18.1501 11.9653 18.1918 12.1079 18.1918 12.314V13.7548C18.1918 13.8776 18.1479 13.9675 18.0602 14.0245C17.9769 14.0815 17.8804 14.11 17.7707 14.11C17.6611 14.11 17.5624 14.0815 17.4747 14.0245C17.3914 13.9675 17.3497 13.8776 17.3497 13.7548V12.6298Z" fill="#FFF8E3"/>
</g>
</g>
<defs>
<filter id="filter0_d_16_3586" x="-5.26316" y="-3.9835" width="35.5263" height="28.5624" filterUnits="userSpaceOnUse" color-interpolation-filters="sRGB">
<feFlood flood-opacity="0" result="BackgroundImageFix"/>
<feColorMatrix in="SourceAlpha" type="matrix" values="0 0 0 0 0 0 0 0 0 0 0 0 0 0 0 0 0 0 127 0" result="hardAlpha"/>
<feOffset dy="1.31579"/>
<feGaussianBlur stdDeviation="2.63158"/>
<feComposite in2="hardAlpha" operator="out"/>
<feColorMatrix type="matrix" values="0 0 0 0 0 0 0 0 0 0 0 0 0 0 0 0 0 0 0.25 0"/>
<feBlend mode="normal" in2="BackgroundImageFix" result="effect1_dropShadow_16_3586"/>
<feBlend mode="normal" in="SourceGraphic" in2="effect1_dropShadow_16_3586" result="shape"/>
</filter>
</defs>
</svg>
