<svg width="25" height="19" viewBox="0 0 25 19" fill="none" xmlns="http://www.w3.org/2000/svg">
<path d="M25 2.03711C25 0.93254 24.1046 0.0371094 23 0.0371094H22.3684V4.03185C22.3684 4.03476 22.3708 4.03711 22.3737 4.03711H23C24.1046 4.03711 25 3.14168 25 2.03711Z" fill="#828282"/>
<path d="M24.9785 2.31543C24.991 2.41942 25 2.52546 25 2.63281V3.76953C25 3.87238 24.992 3.97445 24.9805 4.07422H25V16.8457C24.9997 17.5035 24.4664 18.038 23.8086 18.0381H6.98145C3.12583 18.0379 0.000263868 14.9113 0 11.0557C0.000145854 7.19996 3.12576 4.07442 6.98145 4.07422H21.7949V4.06055C21.795 4.06754 21.8006 4.07322 21.8076 4.07324H22.9639C23.9479 4.07313 24.7691 3.37516 24.959 2.44727L24.9785 2.31543ZM25 2.03809C25 2.09275 24.9962 2.14672 24.9912 2.2002C24.9955 2.14633 25 2.09207 25 2.03711V2.03809ZM24.8398 1.24414V1.24512V1.24414ZM22.9639 0C23.7373 8.54902e-05 24.4092 0.432232 24.7539 1.06738C24.4091 0.432639 23.737 0.00203869 22.9639 0.00195312H21.7949V0H22.9639Z" fill="#3C3530"/>
<path d="M9.38816 9.10413V9.63703C9.38816 9.76422 9.39474 9.88264 9.4079 9.99229C9.42106 10.0976 9.44079 10.1962 9.46711 10.2883C9.49781 10.3804 9.53509 10.4704 9.57895 10.5581C9.6272 10.6414 9.68641 10.7247 9.75658 10.8081C9.86185 10.9353 9.96492 11.0515 10.0658 11.1568C10.1667 11.262 10.2522 11.3519 10.3224 11.4265C10.3969 11.5054 10.4298 11.5976 10.4211 11.7028C10.4123 11.8037 10.3728 11.8892 10.3026 11.9594C10.2281 12.034 10.1404 12.0734 10.0395 12.0778C9.94299 12.0822 9.85746 12.0471 9.7829 11.9726C9.73465 11.9243 9.66886 11.8585 9.58553 11.7752C9.50658 11.6875 9.42325 11.5932 9.33553 11.4923C9.19957 11.3432 9.10965 11.2247 9.06579 11.137C9.02193 11.0493 8.99343 10.9726 8.98027 10.9068H8.97369C8.96492 10.9813 8.93641 11.0647 8.88816 11.1568C8.83992 11.2489 8.74781 11.3717 8.61185 11.5252C8.52413 11.6261 8.43641 11.7226 8.34869 11.8147C8.26097 11.9068 8.16667 12.0033 8.06579 12.1041C7.99123 12.1787 7.90132 12.2116 7.79606 12.2028C7.69079 12.1897 7.60527 12.1502 7.53948 12.0844C7.46492 12.0098 7.42106 11.9221 7.4079 11.8212C7.39913 11.716 7.43422 11.6217 7.51316 11.5383C7.63597 11.4111 7.7522 11.2905 7.86185 11.1765C7.97588 11.0581 8.08553 10.9353 8.19079 10.8081C8.26097 10.7247 8.31799 10.6414 8.36185 10.5581C8.41009 10.4704 8.44737 10.3804 8.47369 10.2883C8.50439 10.1962 8.52632 10.0976 8.53948 9.99229C8.55264 9.88264 8.55922 9.76422 8.55922 9.63703V9.10413H7.79606C7.69518 9.10413 7.62062 9.06904 7.57237 8.99887C7.52413 8.92869 7.5 8.84536 7.5 8.74887C7.5 8.64799 7.52413 8.56247 7.57237 8.49229C7.62062 8.42211 7.69518 8.38703 7.79606 8.38703H10.0855C10.1864 8.38703 10.261 8.42211 10.3092 8.49229C10.3575 8.56247 10.3816 8.64799 10.3816 8.74887C10.3816 8.84536 10.3575 8.92869 10.3092 8.99887C10.261 9.06904 10.1864 9.10413 10.0855 9.10413H9.38816ZM10.704 10.4857H10.2303C10.1294 10.4857 10.0548 10.4506 10.0066 10.3804C9.95834 10.3103 9.93422 10.2247 9.93422 10.1239C9.93422 10.023 9.95834 9.93747 10.0066 9.86729C10.0548 9.79711 10.1294 9.76203 10.2303 9.76203H10.704V8.28834C10.704 8.17431 10.7434 8.09097 10.8224 8.03834C10.9013 7.98571 10.9912 7.9594 11.0921 7.9594C11.1886 7.9594 11.2763 7.98571 11.3553 8.03834C11.4342 8.09097 11.4737 8.17431 11.4737 8.28834V13.0383C11.4737 13.1524 11.4342 13.2357 11.3553 13.2883C11.2763 13.341 11.1886 13.3673 11.0921 13.3673C10.9912 13.3673 10.9013 13.341 10.8224 13.2883C10.7434 13.2357 10.704 13.1524 10.704 13.0383V10.4857ZM11.9013 8.22255C11.9013 8.10852 11.9408 8.02518 12.0197 7.97255C12.0987 7.91992 12.1886 7.89361 12.2895 7.89361C12.3904 7.89361 12.4803 7.91992 12.5592 7.97255C12.6382 8.02518 12.6776 8.10852 12.6776 8.22255V13.3147C12.6776 13.4287 12.6382 13.512 12.5592 13.5647C12.4803 13.6173 12.3904 13.6436 12.2895 13.6436C12.1886 13.6436 12.0987 13.6173 12.0197 13.5647C11.9408 13.512 11.9013 13.4287 11.9013 13.3147V8.22255ZM15.6721 8.93966V9.10413C15.6721 9.30589 15.7028 9.47475 15.7642 9.61071C15.8256 9.74668 15.9265 9.87387 16.0668 9.99229C16.2116 10.1107 16.3453 10.2182 16.4681 10.3147C16.5953 10.4068 16.7072 10.4879 16.8037 10.5581C16.8958 10.6239 16.944 10.705 16.9484 10.8015C16.9528 10.8936 16.9243 10.9813 16.8629 11.0647C16.8366 11.0997 16.8059 11.1326 16.7708 11.1633C16.7357 11.1897 16.694 11.2094 16.6458 11.2226C16.6019 11.2357 16.5537 11.2401 16.501 11.2357C16.4528 11.2269 16.4023 11.205 16.3497 11.1699C16.2752 11.1173 16.1809 11.0493 16.0668 10.966C15.9572 10.8783 15.8366 10.7818 15.705 10.6765C15.5471 10.5493 15.4374 10.4506 15.376 10.3804C15.319 10.3103 15.2817 10.2445 15.2642 10.1831H15.2576C15.2401 10.2576 15.1984 10.3344 15.1326 10.4133C15.0668 10.4923 14.955 10.5954 14.7971 10.7226C14.5427 10.9243 14.2883 11.1151 14.0339 11.2949C13.9374 11.3651 13.8409 11.3826 13.7445 11.3476C13.648 11.3081 13.5756 11.2533 13.5273 11.1831C13.4703 11.1041 13.4418 11.0142 13.4418 10.9133C13.4418 10.8125 13.4923 10.7269 13.5931 10.6568C13.7423 10.5515 13.8826 10.4484 14.0142 10.3476C14.1502 10.2467 14.2905 10.137 14.4352 10.0186C14.5756 9.90019 14.6765 9.77299 14.7379 9.63703C14.7993 9.50106 14.83 9.3322 14.83 9.13045V8.93966H13.8497C13.7488 8.93966 13.6743 8.90457 13.626 8.8344C13.5778 8.76422 13.5537 8.68089 13.5537 8.5844C13.5537 8.4879 13.5778 8.40457 13.626 8.3344C13.6743 8.26422 13.7488 8.22913 13.8497 8.22913H16.5866C16.6874 8.22913 16.762 8.26422 16.8102 8.3344C16.8585 8.40457 16.8826 8.4879 16.8826 8.5844C16.8826 8.68089 16.8585 8.76422 16.8102 8.8344C16.762 8.90457 16.6874 8.93966 16.5866 8.93966H15.6721ZM18.8102 9.27519C18.9155 9.27519 18.9923 9.31027 19.0405 9.38045C19.0888 9.45062 19.1129 9.53615 19.1129 9.63703C19.1129 9.7379 19.0888 9.82562 19.0405 9.90019C18.9923 9.97036 18.9155 10.0054 18.8102 10.0054H18.1918V11.137C18.1918 11.2598 18.148 11.3497 18.0602 11.4068C17.9769 11.4638 17.8804 11.4923 17.7708 11.4923C17.6611 11.4923 17.5624 11.4638 17.4747 11.4068C17.3914 11.3497 17.3497 11.2598 17.3497 11.137V8.24887C17.3497 8.12606 17.3914 8.03615 17.4747 7.97913C17.5624 7.92211 17.6611 7.89361 17.7708 7.89361C17.8804 7.89361 17.9769 7.92211 18.0602 7.97913C18.148 8.03615 18.1918 8.12606 18.1918 8.24887V9.27519H18.8102ZM17.3497 12.5976C17.3497 12.4967 17.2993 12.4462 17.1984 12.4462H14.4879C14.387 12.4462 14.3124 12.4111 14.2642 12.341C14.2159 12.2708 14.1918 12.1875 14.1918 12.091C14.1918 11.9945 14.2159 11.9111 14.2642 11.841C14.3124 11.7708 14.387 11.7357 14.4879 11.7357H17.6326C17.8431 11.7357 17.9879 11.7752 18.0668 11.8541C18.1502 11.9331 18.1918 12.0756 18.1918 12.2818V13.7226C18.1918 13.8454 18.148 13.9353 18.0602 13.9923C17.9769 14.0493 17.8804 14.0778 17.7708 14.0778C17.6611 14.0778 17.5624 14.0493 17.4747 13.9923C17.3914 13.9353 17.3497 13.8454 17.3497 13.7226V12.5976Z" fill="#FFF8E3"/>
</svg>
