<svg width="390" height="64" viewBox="0 0 390 64" fill="none" xmlns="http://www.w3.org/2000/svg">
<g clip-path="url(#clip0_1_9952)">
<path d="M26.8655 41.0189C25.6225 41.0189 24.3683 40.8958 23.1031 40.6496C21.8602 40.381 20.7059 40.0005 19.6405 39.5081C18.5972 38.9933 17.7538 38.3777 17.1101 37.6615C16.4664 36.9229 16.1445 36.0724 16.1445 35.1099C16.1445 33.8789 16.533 32.894 17.3098 32.1554C18.0867 31.4168 18.9968 31.0699 20.04 31.1146C20.8613 31.137 21.6825 31.3161 22.5038 31.6518C23.3251 31.9651 24.1575 32.2785 25.0009 32.5919C25.8666 32.9052 26.7323 33.0619 27.5979 33.0619C28.4636 33.0619 29.0629 32.95 29.3959 32.7262C29.7288 32.5023 29.8953 32.2002 29.8953 31.8197C29.8953 31.372 29.6622 31.0027 29.1961 30.7117C28.73 30.4208 28.1417 30.197 27.4315 30.0403L25.8 29.6374C24.1131 29.2345 22.6037 28.7869 21.2719 28.2944C19.9401 27.7797 18.8858 27.1082 18.1089 26.28C17.3542 25.4295 16.9769 24.2992 16.9769 22.8891C16.9769 21.3447 17.3986 20.0912 18.2421 19.1288C19.0856 18.144 20.2287 17.4277 21.6715 16.9801C23.1142 16.5324 24.7235 16.3086 26.4992 16.3086C28.3193 16.3086 29.9175 16.4988 31.2937 16.8793C32.6698 17.2599 33.7353 17.8082 34.49 18.5245C35.2668 19.2407 35.6553 20.1136 35.6553 21.1432C35.6553 22.24 35.3556 23.1017 34.7563 23.7284C34.1792 24.3327 33.4023 24.6349 32.4257 24.6349C31.782 24.6349 31.105 24.523 30.3947 24.2992C29.7066 24.0753 28.9741 23.8627 28.1972 23.6613C27.4425 23.4374 26.6324 23.3255 25.7667 23.3255C24.9899 23.3255 24.4016 23.4486 24.0021 23.6948C23.6026 23.9187 23.4028 24.2208 23.4028 24.6013C23.4028 25.0713 23.6692 25.4183 24.2019 25.6421C24.7346 25.8659 25.6113 26.1345 26.8322 26.4479L28.6967 26.8843C30.2282 27.2648 31.5711 27.7237 32.7253 28.2609C33.8796 28.798 34.7785 29.5031 35.4222 30.376C36.0659 31.2489 36.3878 32.3904 36.3878 33.8005C36.3878 35.5016 35.9882 36.8893 35.1892 37.9637C34.3901 39.0156 33.2803 39.7878 31.8597 40.2803C30.4391 40.7727 28.7743 41.0189 26.8655 41.0189Z" fill="#FFD343"/>
<path d="M45.543 41.0195C44.3666 41.0195 43.3012 40.7509 42.3467 40.2137C41.4145 39.6766 40.682 38.9155 40.1493 37.9307C39.6166 36.9235 39.3502 35.7484 39.3502 34.4055V28.4965L38.1183 28.6644C37.4524 28.7539 36.8642 28.5189 36.3537 27.9593C35.8432 27.3997 35.5879 26.6947 35.5879 25.8442C35.5879 24.9937 35.8432 24.2998 36.3537 23.7626C36.8642 23.203 37.4524 22.968 38.1183 23.0575L39.3502 23.2254L39.3169 20.9424C39.2947 20.0471 39.55 19.3421 40.0827 18.8273C40.6154 18.2901 41.3923 18.0215 42.4133 18.0215C43.4344 18.0215 44.2223 18.2901 44.7773 18.8273C45.3322 19.3421 45.5874 20.0471 45.543 20.9424L45.4764 23.2254L47.2411 22.9904C48.4397 22.8114 49.3497 23.0352 49.9712 23.6619C50.5928 24.2662 50.9035 24.9937 50.9035 25.8442C50.9035 26.6947 50.5928 27.4333 49.9712 28.06C49.3719 28.6644 48.4952 28.8882 47.341 28.7315L45.4764 28.4965V33.499C45.4764 33.79 45.5763 34.0586 45.7761 34.3048C45.9759 34.5286 46.22 34.5958 46.5086 34.5062C46.8415 34.4167 47.1856 34.2264 47.5407 33.9355C47.918 33.6445 48.3953 33.499 48.9724 33.499C49.8381 33.499 50.504 33.8123 50.9701 34.4391C51.4362 35.0658 51.6693 35.838 51.6693 36.7556C51.6693 37.4719 51.414 38.1657 50.9035 38.8372C50.4152 39.4863 49.716 40.0123 48.8059 40.4152C47.8959 40.8181 46.8082 41.0195 45.543 41.0195Z" fill="#FFC04B"/>
<path d="M60.5352 40.9851C57.9382 40.9851 55.8628 40.2129 54.3091 38.6685C52.7775 37.1018 52.0117 34.8971 52.0117 32.0545C52.0117 30.3087 52.3669 28.7755 53.0772 27.4549C53.7874 26.1344 54.7752 25.1047 56.0404 24.3661C57.3278 23.6051 58.8261 23.2246 60.5352 23.2246C62.4441 23.2246 64.0311 23.6051 65.2963 24.3661C66.5615 25.1047 67.5049 26.1344 68.1264 27.4549C68.7699 28.7755 69.092 30.3087 69.092 32.0545C69.092 34.8971 68.3818 37.1018 66.9611 38.6685C65.5627 40.2129 63.4208 40.9851 60.5352 40.9851ZM55.9738 31.4838C55.9738 32.1776 56.3178 32.67 57.0059 32.961C57.694 33.2296 58.8704 33.3639 60.5352 33.3639C62.1999 33.3639 63.3763 33.2296 64.0644 32.961C64.7525 32.67 65.0966 32.1776 65.0966 31.4838C65.0966 30.8123 64.7525 30.3422 64.0644 30.0737C63.3763 29.8051 62.1999 29.6708 60.5352 29.6708C58.8704 29.6708 57.694 29.8051 57.0059 30.0737C56.3178 30.3422 55.9738 30.8123 55.9738 31.4838Z" fill="#C5E384"/>
<path d="M73.9405 40.9185C72.9635 40.9185 72.1759 40.6275 71.5766 40.0455C70.9991 39.4412 70.7109 38.7026 70.7109 37.8297V26.7168C70.7109 25.7767 70.9882 24.9821 71.5433 24.333C72.0979 23.6839 72.8969 23.3594 73.9405 23.3594C74.9612 23.3594 75.7384 23.6839 76.2712 24.333C76.8039 24.9821 77.0702 25.7991 77.0702 26.7839V28.4626H77.6695C77.6695 27.1868 77.8912 26.1796 78.3354 25.4409C78.8016 24.7023 79.3894 24.1763 80.1001 23.863C80.8102 23.5272 81.5203 23.3594 82.2309 23.3594C83.9399 23.3594 85.1942 23.9861 85.9932 25.2395C86.7923 26.4706 87.1919 28.2276 87.1919 30.5106V37.8297C87.1919 38.7026 86.9031 39.4412 86.3262 40.0455C85.7487 40.6275 84.972 40.9185 83.9956 40.9185C82.9967 40.9185 82.1976 40.6275 81.5983 40.0455C81.0209 39.4412 80.7327 38.7026 80.7327 37.8297V31.8871C80.7327 31.0813 80.5771 30.4546 80.2665 30.007C79.9778 29.5593 79.545 29.3355 78.968 29.3355C78.3022 29.3355 77.8137 29.5817 77.5031 30.0741C77.2143 30.5666 77.0702 31.1932 77.0702 31.9543V37.8297C77.0702 38.7026 76.7924 39.4412 76.2379 40.0455C75.6828 40.6275 74.917 40.9185 73.9405 40.9185Z" fill="#93E0ED"/>
<path d="M95.3775 47.8336C93.8901 47.8336 92.6692 47.5875 91.7151 47.095C90.7828 46.6026 90.0503 45.9535 89.5176 45.1477C89.0733 44.4539 88.8184 43.7265 88.7518 42.9654C88.7071 42.2044 88.8517 41.4994 89.1847 40.8503C89.5176 40.1788 90.017 39.664 90.6829 39.3059C91.3707 38.9254 92.0589 38.7799 92.7472 38.8694C93.4349 38.9366 94.0675 39.194 94.645 39.6416C95.2219 40.0669 95.6657 40.6265 95.9768 41.3203C96.3097 42.059 96.6427 42.5961 96.9756 42.9319C97.3304 43.29 97.7856 43.3683 98.3407 43.1669C98.8734 42.9878 99.0618 42.4954 98.9067 41.6896C98.7736 40.8839 98.4848 39.9326 98.0411 38.8359H96.8086C95.8545 38.8359 94.8999 38.489 93.9458 37.7951C92.9912 37.1012 92.1921 36.0045 91.5486 34.5049L88.8184 28.1258C88.3965 27.1186 88.3523 26.1897 88.6852 25.3392C89.04 24.4887 89.6726 23.8731 90.583 23.4927C91.4263 23.1122 92.2587 23.0898 93.0801 23.4255C93.9011 23.7613 94.5451 24.4775 95.0112 25.5742L97.5417 31.5168C97.963 32.4793 98.4182 33.1731 98.9067 33.5984C99.4171 34.0237 99.9498 34.0908 100.505 33.7998C100.993 33.5312 101.259 33.1619 101.304 32.6919C101.348 32.1994 101.115 31.6063 100.605 30.9125C100.383 30.5991 100.116 30.2522 99.8057 29.8717C99.517 29.4912 99.2506 29.0547 99.0066 28.5623C98.7845 28.0475 98.6737 27.4768 98.6737 26.85C98.6737 25.7981 99.0285 24.9363 99.7391 24.2649C100.449 23.571 101.381 23.2241 102.536 23.2241C103.579 23.2241 104.411 23.5598 105.033 24.2313C105.677 24.9028 105.999 25.7757 105.999 26.85C105.999 27.6111 105.91 28.4504 105.732 29.3681C105.554 30.2857 105.354 31.1363 105.132 31.9197L102.736 40.7496C102.38 42.0701 101.914 43.2676 101.337 44.342C100.76 45.4163 99.994 46.2668 99.0399 46.8936C98.0853 47.5203 96.8643 47.8336 95.3775 47.8336Z" fill="#FF9852"/>
</g>
<defs>
<clipPath id="clip0_1_9952">
<rect width="90" height="32" fill="white" transform="translate(16 16)"/>
</clipPath>
</defs>
</svg>
