<svg width="358" height="126" viewBox="0 0 358 126" fill="none" xmlns="http://www.w3.org/2000/svg">
<rect width="358" height="126" fill="white"/>
<path d="M211.907 53.611C213.178 72.043 199.2 77.4889 182.256 80.4213C166.583 81.678 147.522 81.2591 149.641 53.611C149.641 37.6473 165.736 25.5445 182.256 29.3142C197.505 27.6361 211.907 37.6473 211.907 53.611Z" fill="#F1F1F1"/>
<ellipse cx="172.938" cy="80.4205" rx="5.50665" ry="4.60802" fill="#DEDEDE"/>
<path d="M168.864 77.1955C168.697 77.3248 168.321 77.6469 168.161 77.8237C167.995 78.007 167.842 78.2446 167.752 78.4105C167.696 78.5149 167.598 78.7202 167.504 78.9843C167.462 79.1032 167.447 79.1953 167.438 79.5383C167.428 79.8814 167.428 80.4736 167.451 80.8584C167.484 81.4049 167.587 81.6049 167.62 81.6814C167.744 81.9705 168.01 82.3487 168.22 82.6317C168.44 82.9267 168.77 83.0081 168.976 83.1423C169.304 83.356 169.763 83.5363 170.097 83.6716C170.654 83.8966 170.928 83.9362 171.332 83.9978C171.574 84.0348 171.839 84.0669 172.13 84.1129C172.417 84.1582 172.702 84.1437 173.33 84.1819C173.87 84.2148 174.336 84.1669 174.603 84.1172C174.969 84.0491 175.181 83.9523 175.365 83.91C175.553 83.8664 175.773 83.7609 176.218 83.6227C176.447 83.5516 176.664 83.4618 176.839 83.3847C176.909 83.3539 177.059 83.2777 177.283 83.1439C177.522 83.0018 177.781 82.6735 178.039 82.2905C178.272 81.9437 178.308 81.7744 178.332 81.6594C178.357 81.5368 178.374 81.4141 178.43 80.8952C178.458 80.6362 178.44 80.2329 178.43 80.0029C178.416 79.6396 178.318 79.5349 178.243 79.4315C178.174 79.3368 178.046 79.107 177.928 78.9521C177.823 78.8137 177.783 78.7144 177.731 78.6223C177.634 78.449 177.435 78.2161 177.328 78.059C177.18 77.8437 177.013 77.7711 176.868 77.6676C176.748 77.582 176.647 77.5254 176.493 77.4417C175.803 77.0656 175.549 77.0271 175.347 76.9619C175.15 76.898 174.986 76.8279 174.817 76.7853C174.664 76.7468 174.246 76.7584 173.972 76.7355C173.829 76.7235 173.681 76.6972 173.503 76.6856C173.381 76.6776 172.989 76.6663 172.468 76.6625C172.216 76.6607 171.825 76.6433 171.239 76.6585C170.604 76.675 170.331 76.7657 170.156 76.7852C170.008 76.8016 169.86 76.8578 169.705 76.9039C169.616 76.942 169.531 76.973 169.419 77.0073C169.344 77.034 169.233 77.0796 169.09 77.1495" stroke="#BBBBBB" stroke-width="2" stroke-linecap="round"/>
<path d="M167.24 80.8394C167.074 80.7772 166.544 80.5884 166.025 80.5408C165.458 80.4887 164.678 80.1487 163.976 79.8655C163.303 79.5938 162.411 79.3314 161.711 79.0172C160.406 78.431 158.243 77.7271 157.657 77.3803C157.252 77.1403 156.775 76.7834 156.407 76.4838C155.979 76.1357 155.342 75.7473 154.575 75.1485C153.463 74.2814 153.074 73.5145 152.59 72.8053C151.907 71.8038 151.674 70.9363 151.322 70.1478C150.649 68.6367 150.706 67.103 150.356 65.9007C150.139 65.1565 149.806 64.2342 149.688 63.5099C149.526 62.5093 149.338 61.8428 149.172 60.2584C149.068 59.2746 149.105 58.5078 149.055 57.9279C148.991 57.1945 148.972 56.4326 148.872 55.244C148.8 54.4001 148.838 53.0589 148.887 52.0732C148.966 50.4914 149.303 49.5748 149.784 48.4801C150.124 47.7059 150.562 46.4511 151.08 45.2645C151.599 44.0778 152.16 42.9878 152.532 42.3017C153.044 41.3547 153.535 40.487 154.2 39.2942C154.529 38.7036 154.996 38.2259 155.795 37.4242C156.594 36.6225 157.749 35.5326 158.938 34.5818C160.127 33.631 161.315 32.8525 162.043 32.4047C162.979 31.8289 163.834 31.4558 165.344 30.7815C166.243 30.3805 167.482 30.0138 168.276 29.7897C169.384 29.4771 170.236 29.3778 171.448 29.1423C172.16 29.0041 173.089 28.938 175.941 28.9055C178.794 28.8729 183.547 28.9041 186.754 29.1225C189.962 29.341 191.48 29.7458 193.302 30.3904C195.123 31.0349 197.203 31.9069 198.901 32.7298C200.599 33.5527 201.853 34.3001 202.615 34.7941C203.642 35.4606 204.341 36.1045 205.404 36.9665C206.66 37.9842 207.345 38.8431 207.627 39.2975C207.798 39.5722 208.074 39.9076 208.524 40.6134C208.973 41.3193 209.6 42.3782 210.171 43.5932C210.742 44.8082 211.237 46.1473 211.508 47.0084C211.882 48.1945 211.979 49.1256 212.212 51.2517C212.383 52.8119 212.379 55.371 212.363 56.9668C212.342 59.1257 212.081 59.9186 211.898 60.6693C211.769 61.1995 211.617 62.0429 211.317 62.9432C211.018 63.8435 210.589 64.7777 210.104 65.6794C209.618 66.5811 209.09 67.422 208.637 68.0731C207.861 69.1867 207.347 69.7652 206.95 70.2502C205.514 72.0021 204.448 72.5953 203.583 73.3187C202.785 73.9851 201.419 74.6696 200.564 75.0975C199.987 75.3863 199.481 75.7416 198.881 75.9629C197.866 76.3372 196.949 76.8117 195.981 77.2048C195.143 77.5457 193.984 77.8498 192.898 78.1957C191.347 78.6897 189.88 79.2031 189.246 79.3918C188.927 79.4868 188.479 79.455 187.947 79.5801C187.371 79.7156 186.186 80.177 184.554 80.4601C183.517 80.5563 183.011 80.5875 182.612 80.6347C182.346 80.6507 179.696 80.4205 179.288 80.4205" stroke="#BBBBBB" stroke-width="2" stroke-linecap="round"/>
<path d="M152.331 73.1758C151.234 73.9777 150.58 74.1253 150.204 74.2692C150.066 74.3222 149.243 74.7386 148.024 75.3172C147.192 75.7119 146.929 76.2283 146.708 76.7022C146.388 77.3875 146.311 79.0842 146.508 79.9623C146.74 80.9978 147.584 81.38 148.101 81.9604C148.361 82.2516 148.859 82.4457 149.429 82.6464C149.903 82.813 150.638 82.825 151.538 82.8016C152.223 82.7838 152.729 82.5896 153.19 82.4244C153.679 82.2489 154.507 82.0004 155.723 81.318C156.415 80.9301 157.179 80.308 157.714 79.8663C158.509 79.1438 158.844 78.8077 158.964 78.7134C159.02 78.6659 159.063 78.6191 159.108 78.5709" stroke="#BBBBBB" stroke-width="2" stroke-linecap="round"/>
<path d="M187.068 80.2985C186.949 80.8537 186.733 81.4547 186.583 81.9032C186.448 82.3087 186.283 83.2135 186.221 85.0207C186.2 85.6317 186.91 85.9904 187.664 86.5367C188.15 86.8887 189.675 86.9714 191.26 87.0008C192.258 87.0193 193.505 85.9668 193.913 85.6855C194.834 85.0522 196.036 83.8116 196.608 83.0279C197.1 82.3534 197.481 81.5723 197.753 80.8017C197.918 80.3332 198.054 79.8353 198.145 79.2755C198.266 78.5362 198.446 78.0429 198.492 77.6229C198.627 77.2021 198.748 76.867 198.823 76.5167C198.838 76.4185 198.838 76.3076 198.928 76.1094" stroke="#BBBBBB" stroke-width="2" stroke-linecap="round"/>
<path d="M205.33 36.1472C205.46 35.7606 205.756 35.0782 206.117 34.2655C206.284 33.7749 206.513 33.3512 206.858 32.8963C207.007 32.6991 207.105 32.5702 207.304 32.3398" stroke="#BBBBBB" stroke-width="2" stroke-linecap="round"/>
<path d="M207.896 31.75C207.962 31.75 209.038 31.9433 210.796 32.4456C212.047 32.8029 212.435 33.766 212.862 34.2194C213.455 34.8503 213.687 35.5876 213.818 36.1871C214.011 37.0655 214.017 38.5096 213.984 39.9569C213.954 41.3117 213.359 42.5825 213.146 43.2512C212.834 44.1113 212.307 45.4136 212.125 45.9203C212.076 46.0345 212.011 46.1634 211.944 46.3938" stroke="#BBBBBB" stroke-width="2" stroke-linecap="round"/>
<path d="M170.93 28.7706C171.051 28.2194 171.162 27.7437 171.375 27.1716C171.519 26.7834 171.818 26.228 172.01 25.8779C172.202 25.5279 172.299 25.408 172.385 25.3283C172.529 25.1951 173.079 25.1157 173.959 25.0249C174.376 24.9818 174.741 24.9941 175.213 25.066C175.685 25.1379 176.255 25.2817 176.621 25.3857C177.137 25.5326 177.367 25.6354 177.55 25.6956C177.999 25.8434 178.624 26.106 178.952 26.3008C179.078 26.3759 179.3 26.5181 179.539 26.7055C179.682 26.8179 179.814 27.134 180.004 27.6112C180.133 28.0284 180.183 28.3098 180.189 28.4549C180.195 28.5161 180.207 28.552 180.219 28.6617" stroke="#BBBBBB" stroke-width="2" stroke-linecap="round"/>
<path d="M159.432 64.9722C159.846 65.4472 160.259 65.9222 160.714 66.4253C161.169 66.9285 161.653 67.4454 161.997 67.8251C162.341 68.2049 162.53 68.4319 162.621 68.5805C162.711 68.7291 162.697 68.7924 162.624 68.8505C162.443 68.9947 162.118 69.0423 161.786 69.1169C161.454 69.1917 160.923 69.344 160.321 69.4538C159.86 69.5377 159.61 69.6085 159.319 69.6521C158.674 69.7666 158.452 69.7983 158.27 69.8261C158.229 69.8306 158.188 69.8349 158.107 69.831" stroke="#BBBBBB" stroke-width="2" stroke-linecap="round"/>
<path d="M188.519 64.9236C188.217 65.1541 187.915 65.3847 187.405 65.7909C186.895 66.1972 186.187 66.7722 185.77 67.1254C185.236 67.5777 184.947 67.8415 184.578 68.1099C183.918 68.5896 183.564 68.9309 183.317 69.2153C183.266 69.2742 183.47 69.3586 184.237 69.5477C185.003 69.7368 186.393 70.0462 187.16 70.2269C188.25 70.5034 188.527 70.5288 188.619 70.5503C188.662 70.5656 188.698 70.5899 188.837 70.6426" stroke="#BBBBBB" stroke-width="2" stroke-linecap="round"/>
<path d="M140.472 69.052C139.619 69.3955 138.766 69.739 137.91 70.0973C137.053 70.4556 136.219 70.8182 135.724 71.0431C135.093 71.33 134.892 71.4422 134.77 71.4425C134.671 71.4427 134.704 71.0784 134.899 70.3497C135.036 69.8372 135.409 69.0867 135.655 68.5789C135.901 68.0712 136.049 67.8422 136.246 67.4379C136.715 66.4763 137.007 65.7568 137.137 65.5546C137.231 65.4098 136.342 65.2172 134.864 64.9957C133.962 64.8606 133.713 64.6765 133.245 64.5417C132.42 64.3039 132.139 64.2907 132.017 64.2237C131.896 64.1567 132.414 63.5817 133.497 62.6686C134.082 62.1747 134.802 61.6982 135.193 61.4139C135.789 60.9753 136.014 60.8596 136.126 60.7636C136.201 60.7058 136.312 60.6294 136.427 60.5508" stroke="#BBBBBB" stroke-width="2" stroke-linecap="round"/>
<path d="M136.234 60.5505C135.538 59.7812 134.721 59.0002 133.99 58.3693C133.495 57.8797 133.272 57.6618 133.134 57.4557C133.068 57.3697 133.013 57.3216 132.846 57.1992" stroke="#BBBBBB" stroke-width="2" stroke-linecap="round"/>
<path d="M132.793 56.7765C133 56.7982 133.208 56.8199 133.91 56.7912C134.612 56.7625 135.803 56.6828 136.474 56.646C137.455 56.5921 137.672 56.6102 137.776 56.5864C137.91 56.5994 138.235 56.5417 138.618 56.5012C138.687 56.503 138.218 56.5594 138.265 56.571" stroke="#BBBBBB" stroke-width="2" stroke-linecap="round"/>
<path d="M111.125 106.632C111.338 106.632 111.525 106.685 111.685 106.792C111.845 106.899 111.925 107.069 111.925 107.304V108.504H114.645C114.837 108.504 114.975 108.573 115.061 108.712C115.157 108.84 115.205 108.995 115.205 109.176C115.205 109.357 115.157 109.517 115.061 109.656C114.975 109.795 114.837 109.864 114.645 109.864H111.925V110.328C111.925 110.755 111.994 111.091 112.133 111.336C112.282 111.581 112.543 111.832 112.917 112.088C113.301 112.344 113.658 112.579 113.989 112.792C114.319 112.995 114.618 113.171 114.885 113.32C115.066 113.437 115.167 113.587 115.189 113.768C115.21 113.949 115.173 114.12 115.077 114.28C114.991 114.429 114.863 114.536 114.693 114.6C114.522 114.664 114.335 114.637 114.133 114.52C113.898 114.381 113.631 114.221 113.333 114.04C113.034 113.859 112.73 113.661 112.421 113.448C111.973 113.16 111.663 112.931 111.493 112.76C111.322 112.589 111.215 112.424 111.173 112.264H111.157C111.103 112.445 110.981 112.632 110.789 112.824C110.597 113.016 110.277 113.251 109.829 113.528C109.487 113.752 109.151 113.965 108.821 114.168C108.49 114.36 108.154 114.557 107.813 114.76C107.61 114.877 107.423 114.899 107.253 114.824C107.093 114.739 106.97 114.621 106.885 114.472C106.789 114.312 106.746 114.141 106.757 113.96C106.778 113.779 106.89 113.629 107.093 113.512C107.455 113.299 107.813 113.085 108.165 112.872C108.527 112.648 108.906 112.403 109.301 112.136C109.674 111.891 109.935 111.64 110.085 111.384C110.245 111.128 110.325 110.792 110.325 110.376V109.864H107.477C107.285 109.864 107.141 109.795 107.045 109.656C106.959 109.517 106.917 109.357 106.917 109.176C106.917 108.995 106.959 108.84 107.045 108.712C107.141 108.573 107.285 108.504 107.477 108.504H110.325V107.304C110.325 107.069 110.405 106.899 110.565 106.792C110.725 106.685 110.911 106.632 111.125 106.632ZM117.589 106.552C117.802 106.552 117.989 106.605 118.149 106.712C118.309 106.819 118.389 106.989 118.389 107.224V119.704C118.389 119.939 118.309 120.109 118.149 120.216C117.989 120.323 117.802 120.376 117.589 120.376C117.386 120.376 117.205 120.323 117.045 120.216C116.885 120.109 116.805 119.939 116.805 119.704V107.224C116.805 106.989 116.885 106.819 117.045 106.712C117.205 106.605 117.386 106.552 117.589 106.552ZM111.109 114.344C111.322 114.344 111.509 114.397 111.669 114.504C111.829 114.611 111.909 114.781 111.909 115.016V116.488C112.485 116.467 113.055 116.44 113.621 116.408C114.186 116.365 114.767 116.317 115.365 116.264C115.546 116.243 115.685 116.291 115.781 116.408C115.887 116.525 115.946 116.68 115.957 116.872C115.978 117.053 115.946 117.213 115.861 117.352C115.786 117.491 115.658 117.571 115.477 117.592C114.186 117.709 112.81 117.795 111.349 117.848C109.887 117.901 108.367 117.928 106.789 117.928C106.597 117.928 106.453 117.859 106.357 117.72C106.271 117.581 106.229 117.421 106.229 117.24C106.229 117.059 106.271 116.904 106.357 116.776C106.453 116.637 106.597 116.568 106.789 116.568C107.386 116.568 107.973 116.568 108.549 116.568C109.135 116.568 109.727 116.557 110.325 116.536V115.016C110.325 114.781 110.405 114.611 110.565 114.504C110.735 114.397 110.917 114.344 111.109 114.344ZM130.839 107.208C131.308 107.208 131.628 107.293 131.799 107.464C131.98 107.635 132.071 107.949 132.071 108.408V109.56C132.071 109.933 132.055 110.317 132.023 110.712C131.991 111.096 131.943 111.469 131.879 111.832C131.826 112.195 131.756 112.541 131.671 112.872C131.596 113.192 131.511 113.475 131.415 113.72L129.975 113.4C130.146 112.813 130.268 112.2 130.343 111.56C130.428 110.92 130.471 110.285 130.471 109.656V108.936C130.471 108.808 130.444 108.723 130.391 108.68C130.348 108.627 130.263 108.6 130.135 108.6H122.855C122.652 108.6 122.508 108.531 122.423 108.392C122.338 108.253 122.295 108.093 122.295 107.912C122.295 107.72 122.338 107.555 122.423 107.416C122.508 107.277 122.652 107.208 122.855 107.208H130.839ZM133.479 113.032C133.671 113.032 133.81 113.101 133.895 113.24C133.991 113.368 134.039 113.528 134.039 113.72C134.039 113.901 133.991 114.061 133.895 114.2C133.81 114.328 133.671 114.392 133.479 114.392H121.159C120.967 114.392 120.823 114.328 120.727 114.2C120.642 114.061 120.599 113.901 120.599 113.72C120.599 113.528 120.642 113.368 120.727 113.24C120.823 113.101 120.967 113.032 121.159 113.032H133.479ZM123.223 116.12C123.436 116.12 123.623 116.173 123.783 116.28C123.943 116.387 124.023 116.557 124.023 116.792V119.432C124.023 119.56 124.05 119.645 124.103 119.688C124.156 119.741 124.242 119.768 124.359 119.768H131.927C132.119 119.768 132.258 119.837 132.343 119.976C132.439 120.115 132.487 120.275 132.487 120.456C132.487 120.637 132.439 120.797 132.343 120.936C132.258 121.075 132.119 121.144 131.927 121.144H123.639C123.17 121.144 122.85 121.059 122.679 120.888C122.508 120.717 122.423 120.403 122.423 119.944V116.792C122.423 116.557 122.503 116.387 122.663 116.28C122.823 116.173 123.01 116.12 123.223 116.12ZM141.786 106.888C141.988 106.888 142.17 106.941 142.33 107.048C142.49 107.155 142.57 107.32 142.57 107.544V108.728H149.194V107.544C149.194 107.32 149.274 107.155 149.434 107.048C149.594 106.941 149.77 106.888 149.962 106.888C150.164 106.888 150.346 106.941 150.506 107.048C150.676 107.155 150.762 107.32 150.762 107.544V111.56C150.762 112.019 150.671 112.333 150.49 112.504C150.319 112.675 149.999 112.76 149.53 112.76H142.234C141.764 112.76 141.444 112.675 141.274 112.504C141.103 112.333 141.018 112.019 141.018 111.56V107.544C141.018 107.32 141.098 107.155 141.258 107.048C141.418 106.941 141.594 106.888 141.786 106.888ZM142.57 111.192C142.57 111.352 142.655 111.432 142.826 111.432H148.938C149.108 111.432 149.194 111.352 149.194 111.192V110.04H142.57V111.192ZM146.666 114.488H152.042C152.234 114.488 152.372 114.557 152.458 114.696C152.554 114.824 152.602 114.979 152.602 115.16C152.602 115.341 152.554 115.501 152.458 115.64C152.372 115.768 152.234 115.832 152.042 115.832H139.722C139.53 115.832 139.386 115.768 139.29 115.64C139.204 115.501 139.162 115.341 139.162 115.16C139.162 114.979 139.204 114.824 139.29 114.696C139.386 114.557 139.53 114.488 139.722 114.488H145.098V112.184H146.666V114.488ZM141.786 116.76C141.999 116.76 142.186 116.813 142.346 116.92C142.506 117.027 142.586 117.197 142.586 117.432V119.48C142.586 119.704 142.698 119.816 142.922 119.816H150.49C150.682 119.816 150.82 119.88 150.906 120.008C151.002 120.147 151.05 120.307 151.05 120.488C151.05 120.669 151.002 120.829 150.906 120.968C150.82 121.107 150.682 121.176 150.49 121.176H142.202C141.732 121.176 141.412 121.091 141.242 120.92C141.071 120.749 140.986 120.435 140.986 119.976V117.432C140.986 117.197 141.066 117.027 141.226 116.92C141.386 116.813 141.572 116.76 141.786 116.76ZM168.716 107.048C168.897 107.048 169.031 107.117 169.116 107.256C169.212 107.384 169.26 107.539 169.26 107.72C169.26 107.901 169.212 108.056 169.116 108.184C169.031 108.312 168.897 108.376 168.716 108.376H161.516C161.292 108.376 161.18 108.488 161.18 108.712V110.456C161.18 110.68 161.292 110.792 161.516 110.792H168.876C169.057 110.792 169.191 110.856 169.276 110.984C169.372 111.112 169.42 111.267 169.42 111.448C169.42 111.629 169.372 111.789 169.276 111.928C169.191 112.056 169.057 112.12 168.876 112.12H160.796C160.327 112.12 160.007 112.035 159.836 111.864C159.665 111.693 159.58 111.379 159.58 110.92V108.248C159.58 107.789 159.665 107.475 159.836 107.304C160.007 107.133 160.327 107.048 160.796 107.048H168.716ZM165.228 113.72H170.62C170.801 113.72 170.935 113.789 171.02 113.928C171.116 114.056 171.164 114.211 171.164 114.392C171.164 114.573 171.116 114.733 171.02 114.872C170.935 115 170.801 115.064 170.62 115.064H158.268C158.087 115.064 157.948 115 157.852 114.872C157.767 114.733 157.724 114.573 157.724 114.392C157.724 114.211 157.767 114.056 157.852 113.928C157.948 113.789 158.087 113.72 158.268 113.72H163.66V111.464H165.228V113.72ZM164.444 116.072C165.991 116.072 167.191 116.296 168.044 116.744C168.908 117.192 169.34 117.885 169.34 118.824C169.34 119.773 168.908 120.467 168.044 120.904C167.191 121.352 165.991 121.576 164.444 121.576C162.897 121.576 161.692 121.352 160.828 120.904C159.975 120.467 159.548 119.773 159.548 118.824C159.548 117.885 159.975 117.192 160.828 116.744C161.692 116.296 162.897 116.072 164.444 116.072ZM164.444 117.352C163.281 117.352 162.439 117.48 161.916 117.736C161.393 117.981 161.132 118.344 161.132 118.824C161.132 119.304 161.393 119.667 161.916 119.912C162.439 120.168 163.281 120.296 164.444 120.296C165.607 120.296 166.449 120.168 166.972 119.912C167.495 119.667 167.756 119.304 167.756 118.824C167.756 118.344 167.495 117.981 166.972 117.736C166.449 117.48 165.607 117.352 164.444 117.352ZM176.895 110.376C177.972 110.376 178.809 110.6 179.407 111.048C180.015 111.485 180.319 112.083 180.319 112.84C180.319 113.597 180.015 114.2 179.407 114.648C178.809 115.085 177.972 115.304 176.895 115.304C175.817 115.304 174.975 115.085 174.367 114.648C173.769 114.2 173.471 113.597 173.471 112.84C173.471 112.083 173.769 111.485 174.367 111.048C174.975 110.6 175.817 110.376 176.895 110.376ZM176.895 111.608C176.223 111.608 175.727 111.725 175.407 111.96C175.087 112.184 174.927 112.477 174.927 112.84C174.927 113.192 175.087 113.485 175.407 113.72C175.727 113.955 176.223 114.072 176.895 114.072C177.567 114.072 178.063 113.955 178.383 113.72C178.703 113.485 178.863 113.192 178.863 112.84C178.863 112.477 178.703 112.184 178.383 111.96C178.063 111.725 177.567 111.608 176.895 111.608ZM176.895 106.6C177.108 106.6 177.295 106.653 177.455 106.76C177.615 106.867 177.695 107.037 177.695 107.272V108.2H180.575C180.767 108.2 180.905 108.269 180.991 108.408C181.087 108.547 181.135 108.707 181.135 108.888C181.135 109.069 181.087 109.229 180.991 109.368C180.905 109.496 180.767 109.56 180.575 109.56H173.071C172.879 109.56 172.735 109.496 172.639 109.368C172.553 109.229 172.511 109.069 172.511 108.888C172.511 108.707 172.553 108.547 172.639 108.408C172.735 108.269 172.879 108.2 173.071 108.2H176.095V107.272C176.095 107.037 176.175 106.867 176.335 106.76C176.505 106.653 176.692 106.6 176.895 106.6ZM183.135 106.552C183.348 106.552 183.535 106.605 183.695 106.712C183.855 106.819 183.935 106.984 183.935 107.208V111.864H185.487C185.7 111.864 185.849 111.933 185.935 112.072C186.031 112.2 186.079 112.36 186.079 112.552C186.079 112.744 186.031 112.909 185.935 113.048C185.849 113.187 185.7 113.256 185.487 113.256H183.935V119.72C183.935 119.944 183.855 120.109 183.695 120.216C183.535 120.323 183.348 120.376 183.135 120.376C182.932 120.376 182.751 120.323 182.591 120.216C182.431 120.109 182.351 119.944 182.351 119.72V107.208C182.351 106.984 182.431 106.819 182.591 106.712C182.751 106.605 182.932 106.552 183.135 106.552ZM180.959 116.568C181.14 116.547 181.279 116.595 181.375 116.712C181.471 116.829 181.529 116.979 181.551 117.16C181.572 117.341 181.54 117.501 181.455 117.64C181.38 117.779 181.252 117.859 181.071 117.88C179.844 117.997 178.532 118.077 177.135 118.12C175.748 118.163 174.308 118.184 172.815 118.184C172.623 118.184 172.479 118.115 172.383 117.976C172.297 117.837 172.255 117.677 172.255 117.496C172.255 117.315 172.297 117.16 172.383 117.032C172.479 116.904 172.623 116.84 172.815 116.84C173.359 116.84 173.903 116.84 174.447 116.84C175.001 116.84 175.556 116.835 176.111 116.824V114.648H177.679V116.776C178.223 116.755 178.761 116.728 179.295 116.696C179.839 116.664 180.393 116.621 180.959 116.568ZM192.785 107.656C193.254 107.656 193.574 107.741 193.745 107.912C193.926 108.083 194.017 108.397 194.017 108.856V110.632C194.017 111.08 193.99 111.485 193.937 111.848C193.884 112.2 193.782 112.536 193.633 112.856C193.484 113.176 193.276 113.491 193.009 113.8C192.753 114.099 192.412 114.419 191.985 114.76C191.569 115.091 191.062 115.453 190.465 115.848C189.868 116.243 189.164 116.691 188.353 117.192C188.172 117.299 187.99 117.32 187.809 117.256C187.628 117.181 187.484 117.069 187.377 116.92C187.27 116.771 187.217 116.595 187.217 116.392C187.228 116.189 187.324 116.029 187.505 115.912C188.252 115.453 188.892 115.053 189.425 114.712C189.958 114.36 190.406 114.045 190.769 113.768C191.142 113.48 191.436 113.219 191.649 112.984C191.862 112.739 192.028 112.499 192.145 112.264C192.262 112.019 192.337 111.763 192.369 111.496C192.401 111.219 192.417 110.909 192.417 110.568V109.368C192.417 109.251 192.39 109.171 192.337 109.128C192.294 109.075 192.209 109.048 192.081 109.048H187.953C187.75 109.048 187.601 108.979 187.505 108.84C187.42 108.701 187.377 108.541 187.377 108.36C187.377 108.168 187.42 108.003 187.505 107.864C187.601 107.725 187.75 107.656 187.953 107.656H192.785ZM197.425 106.552C197.638 106.552 197.825 106.605 197.985 106.712C198.145 106.819 198.225 106.989 198.225 107.224V111.384H199.985C200.198 111.384 200.348 111.453 200.433 111.592C200.529 111.72 200.577 111.88 200.577 112.072C200.577 112.264 200.529 112.429 200.433 112.568C200.348 112.707 200.198 112.776 199.985 112.776H198.225V119.704C198.225 119.939 198.145 120.109 197.985 120.216C197.825 120.323 197.638 120.376 197.425 120.376C197.212 120.376 197.025 120.323 196.865 120.216C196.705 120.109 196.625 119.939 196.625 119.704V107.224C196.625 106.989 196.705 106.819 196.865 106.712C197.025 106.605 197.212 106.552 197.425 106.552ZM209.556 107.112C210.174 107.112 210.713 107.203 211.172 107.384C211.63 107.555 212.009 107.795 212.308 108.104C212.617 108.413 212.846 108.781 212.996 109.208C213.156 109.624 213.236 110.077 213.236 110.568C213.236 111.069 213.156 111.533 212.996 111.96C212.846 112.376 212.617 112.739 212.308 113.048C212.009 113.357 211.63 113.603 211.172 113.784C210.713 113.955 210.174 114.04 209.556 114.04C208.937 114.04 208.398 113.955 207.94 113.784C207.481 113.603 207.097 113.357 206.788 113.048C206.489 112.739 206.26 112.376 206.1 111.96C205.95 111.533 205.876 111.069 205.876 110.568C205.876 110.077 205.95 109.624 206.1 109.208C206.26 108.781 206.489 108.413 206.788 108.104C207.097 107.795 207.481 107.555 207.94 107.384C208.398 107.203 208.937 107.112 209.556 107.112ZM209.556 108.44C209.172 108.44 208.841 108.499 208.564 108.616C208.297 108.723 208.078 108.877 207.908 109.08C207.737 109.272 207.609 109.496 207.524 109.752C207.449 110.008 207.412 110.28 207.412 110.568C207.412 110.856 207.449 111.128 207.524 111.384C207.609 111.64 207.737 111.869 207.908 112.072C208.078 112.264 208.297 112.419 208.564 112.536C208.841 112.643 209.172 112.696 209.556 112.696C209.94 112.696 210.265 112.643 210.532 112.536C210.809 112.419 211.033 112.264 211.204 112.072C211.374 111.869 211.497 111.64 211.572 111.384C211.657 111.128 211.7 110.856 211.7 110.568C211.7 110.28 211.657 110.008 211.572 109.752C211.497 109.496 211.374 109.272 211.204 109.08C211.033 108.877 210.809 108.723 210.532 108.616C210.265 108.499 209.94 108.44 209.556 108.44ZM216.788 106.552C216.99 106.552 217.172 106.605 217.332 106.712C217.492 106.819 217.572 106.989 217.572 107.224V113.8C217.572 114.035 217.492 114.205 217.332 114.312C217.172 114.419 216.99 114.472 216.788 114.472C216.574 114.472 216.388 114.419 216.228 114.312C216.068 114.205 215.988 114.035 215.988 113.8V111.256H212.212V109.896H215.988V107.224C215.988 106.989 216.068 106.819 216.228 106.712C216.388 106.605 216.574 106.552 216.788 106.552ZM215.748 115.16C215.95 115.16 216.132 115.213 216.292 115.32C216.452 115.427 216.532 115.597 216.532 115.832V116.776C216.532 117 216.542 117.203 216.564 117.384C216.596 117.555 216.638 117.72 216.692 117.88C216.745 118.029 216.82 118.173 216.916 118.312C217.012 118.451 217.134 118.6 217.284 118.76C217.497 118.995 217.705 119.224 217.908 119.448C218.121 119.672 218.334 119.885 218.548 120.088C218.686 120.216 218.745 120.365 218.724 120.536C218.702 120.717 218.628 120.867 218.5 120.984C218.361 121.123 218.201 121.192 218.02 121.192C217.838 121.203 217.678 121.139 217.54 121C217.358 120.829 217.172 120.648 216.98 120.456C216.798 120.264 216.633 120.093 216.484 119.944C216.228 119.645 216.052 119.416 215.956 119.256C215.86 119.107 215.796 118.957 215.764 118.808H215.748C215.726 118.968 215.662 119.128 215.556 119.288C215.46 119.448 215.284 119.677 215.028 119.976C214.878 120.125 214.708 120.296 214.516 120.488C214.334 120.68 214.153 120.861 213.972 121.032C213.833 121.171 213.673 121.235 213.492 121.224C213.31 121.213 213.15 121.144 213.012 121.016C212.884 120.888 212.809 120.733 212.788 120.552C212.766 120.371 212.82 120.216 212.948 120.088C213.374 119.672 213.801 119.229 214.228 118.76C214.366 118.6 214.484 118.451 214.58 118.312C214.676 118.173 214.75 118.029 214.804 117.88C214.868 117.72 214.91 117.555 214.932 117.384C214.953 117.203 214.964 117 214.964 116.776V115.832C214.964 115.597 215.044 115.427 215.204 115.32C215.364 115.213 215.545 115.16 215.748 115.16ZM208.66 119.704C208.66 119.917 208.766 120.024 208.98 120.024H210.724C210.937 120.024 211.044 119.917 211.044 119.704V118.376H208.66V119.704ZM207.94 115.16C208.121 115.16 208.286 115.208 208.436 115.304C208.585 115.4 208.66 115.555 208.66 115.768V117.16H211.044V115.768C211.044 115.555 211.118 115.4 211.268 115.304C211.417 115.208 211.582 115.16 211.764 115.16C211.945 115.16 212.11 115.208 212.26 115.304C212.409 115.4 212.484 115.555 212.484 115.768V120.04C212.484 120.285 212.462 120.483 212.42 120.632C212.388 120.792 212.324 120.915 212.228 121C212.142 121.085 212.02 121.144 211.86 121.176C211.7 121.219 211.497 121.24 211.252 121.24H208.452C208.206 121.24 208.004 121.219 207.844 121.176C207.684 121.144 207.556 121.085 207.46 121C207.374 120.915 207.31 120.792 207.268 120.632C207.236 120.483 207.22 120.285 207.22 120.04V115.768C207.22 115.555 207.294 115.4 207.444 115.304C207.593 115.208 207.758 115.16 207.94 115.16ZM224.134 107.384C225.361 107.384 226.283 107.789 226.902 108.6C227.531 109.411 227.846 110.595 227.846 112.152C227.846 113.709 227.531 114.893 226.902 115.704C226.283 116.515 225.361 116.92 224.134 116.92C222.907 116.92 221.985 116.515 221.366 115.704C220.747 114.893 220.438 113.709 220.438 112.152C220.438 110.595 220.747 109.411 221.366 108.6C221.985 107.789 222.907 107.384 224.134 107.384ZM224.134 108.792C223.366 108.792 222.817 109.08 222.486 109.656C222.155 110.221 221.99 111.053 221.99 112.152C221.99 113.251 222.155 114.088 222.486 114.664C222.817 115.229 223.366 115.512 224.134 115.512C224.913 115.512 225.467 115.229 225.798 114.664C226.129 114.088 226.294 113.251 226.294 112.152C226.294 111.053 226.129 110.221 225.798 109.656C225.467 109.08 224.913 108.792 224.134 108.792ZM231.334 106.552C231.547 106.552 231.734 106.605 231.894 106.712C232.054 106.819 232.134 106.989 232.134 107.224V119.704C232.134 119.939 232.054 120.109 231.894 120.216C231.734 120.323 231.547 120.376 231.334 120.376C231.131 120.376 230.95 120.323 230.79 120.216C230.63 120.109 230.55 119.939 230.55 119.704V112.824H226.822V111.464H230.55V107.224C230.55 106.989 230.63 106.819 230.79 106.712C230.95 106.605 231.131 106.552 231.334 106.552ZM241.257 107.112C242.025 107.112 242.713 107.197 243.321 107.368C243.939 107.539 244.457 107.789 244.873 108.12C245.299 108.44 245.625 108.84 245.849 109.32C246.073 109.789 246.185 110.323 246.185 110.92C246.185 112.125 245.747 113.064 244.873 113.736C244.009 114.397 242.803 114.728 241.257 114.728C239.71 114.728 238.505 114.397 237.641 113.736C236.777 113.064 236.345 112.125 236.345 110.92C236.345 110.323 236.457 109.789 236.681 109.32C236.905 108.84 237.225 108.44 237.641 108.12C238.067 107.789 238.585 107.539 239.193 107.368C239.801 107.197 240.489 107.112 241.257 107.112ZM241.257 108.472C240.681 108.472 240.185 108.536 239.769 108.664C239.353 108.781 239.006 108.952 238.729 109.176C238.462 109.389 238.265 109.645 238.137 109.944C238.009 110.243 237.945 110.568 237.945 110.92C237.945 111.272 238.009 111.597 238.137 111.896C238.265 112.195 238.462 112.456 238.729 112.68C239.006 112.893 239.353 113.064 239.769 113.192C240.185 113.309 240.681 113.368 241.257 113.368C241.833 113.368 242.329 113.309 242.745 113.192C243.161 113.064 243.502 112.893 243.769 112.68C244.046 112.456 244.249 112.195 244.377 111.896C244.505 111.597 244.569 111.272 244.569 110.92C244.569 110.568 244.505 110.243 244.377 109.944C244.249 109.645 244.046 109.389 243.769 109.176C243.502 108.952 243.161 108.781 242.745 108.664C242.329 108.536 241.833 108.472 241.257 108.472ZM238.793 115.048C239.006 115.048 239.193 115.101 239.353 115.208C239.513 115.315 239.593 115.48 239.593 115.704V117.64H242.921V115.704C242.921 115.48 243.001 115.315 243.161 115.208C243.321 115.101 243.507 115.048 243.721 115.048C243.934 115.048 244.121 115.101 244.281 115.208C244.441 115.315 244.521 115.48 244.521 115.704V117.64H247.417C247.609 117.64 247.747 117.704 247.833 117.832C247.929 117.96 247.977 118.115 247.977 118.296C247.977 118.477 247.929 118.637 247.833 118.776C247.747 118.915 247.609 118.984 247.417 118.984H235.097C234.905 118.984 234.761 118.915 234.665 118.776C234.579 118.637 234.537 118.477 234.537 118.296C234.537 118.115 234.579 117.96 234.665 117.832C234.761 117.704 234.905 117.64 235.097 117.64H237.993V115.704C237.993 115.48 238.073 115.315 238.233 115.208C238.393 115.101 238.579 115.048 238.793 115.048ZM250.523 117.416C250.832 117.416 251.088 117.517 251.291 117.72C251.504 117.923 251.611 118.179 251.611 118.488C251.611 118.797 251.504 119.053 251.291 119.256C251.088 119.469 250.832 119.576 250.523 119.576C250.214 119.576 249.958 119.469 249.755 119.256C249.552 119.053 249.451 118.797 249.451 118.488C249.451 118.179 249.552 117.923 249.755 117.72C249.958 117.517 250.214 117.416 250.523 117.416Z" fill="#BBBBBB"/>
</svg>
