<svg width="358" height="202" viewBox="0 0 358 202" fill="none" xmlns="http://www.w3.org/2000/svg">
<rect width="358" height="202" fill="white"/>
<path d="M186.344 91.9463C183.542 91.7135 181.047 93.544 180.771 96.0352C180.646 97.1726 181.005 98.25 181.699 99.1084C181.69 99.1942 181.684 99.2808 181.684 99.3682C181.684 101.374 184.12 103 187.126 103C190.132 103 192.568 101.374 192.568 99.3682C192.568 98.3498 191.94 97.429 190.929 96.7695C191.134 94.3231 189.105 92.1757 186.344 91.9463Z" fill="#DEDEDE"/>
<path d="M200.41 51.5811H200.162C205.862 56.0606 209.41 62.3605 209.41 69.3389C209.41 82.9339 195.944 93.9551 179.333 93.9551C162.722 93.955 149.256 82.9339 149.256 69.3389C149.256 62.3604 152.805 56.0606 158.505 51.5811H156.65L178.53 31L200.41 51.5811Z" fill="#F1F1F1"/>
<path d="M164.97 95.4209C165.232 93.5965 167.933 92.4798 171.002 92.9268C174.071 93.3737 176.345 95.2156 176.083 97.04C176.02 97.4778 175.815 97.8734 175.5 98.2178C175.645 98.5302 175.725 98.8589 175.725 99.1992C175.725 101.205 173.031 102.831 169.709 102.831C166.387 102.831 163.693 101.205 163.693 99.1992C163.694 98.269 164.273 97.4208 165.226 96.7783C164.998 96.3398 164.904 95.8797 164.97 95.4209Z" fill="#DEDEDE"/>
<ellipse cx="178.53" cy="74.5838" rx="4.41134" ry="3.22836" fill="#DEDEDE"/>
<path d="M167.634 40.3646C165.017 43.2662 162.4 46.1678 159.824 49.0328C157.248 51.8977 154.792 54.6381 153.34 56.426C151.887 58.2139 151.514 58.9661 151.134 59.9447C150.755 60.9233 150.381 62.1054 150.162 64.1652C149.942 66.225 149.889 69.1266 149.968 70.9706C150.078 73.5278 150.588 74.8777 150.857 76.204C150.996 76.8905 151.232 77.5839 151.929 78.9916C152.627 80.3992 153.802 82.4948 155.635 84.5953C157.468 86.6958 159.925 88.7377 161.484 89.9776C163.043 91.2176 163.63 91.5937 164.734 92.0293C165.837 92.4648 167.439 92.9484 171.015 93.3588C174.59 93.7691 180.09 94.0915 183.217 94.2038C186.344 94.3162 186.931 94.2087 187.821 93.9116C188.711 93.6144 189.886 93.1308 191.105 92.5593C192.325 91.9877 193.553 91.3429 194.96 90.4466C196.367 89.5502 197.915 88.4218 199.487 87.1688C201.059 85.9159 202.608 84.5725 203.753 83.4238C205.703 81.4673 206.467 80.0443 206.897 79.1788C207.456 78.0522 207.979 77.1134 208.14 76.3285C208.317 75.4659 208.733 73.9187 209.002 71.4567C209.311 68.631 209.113 66.1013 208.871 64.3403C208.545 61.9639 207.605 60.5097 206.232 58.0404C205.424 56.5872 204.53 55.9994 203.721 55.077C202.988 54.2404 202.265 53.557 201.108 52.0956C199.309 49.8227 198.381 49.001 197.626 48.1828C197.079 47.5905 196.546 47.0438 195.471 46.0416C193.551 44.2522 192.773 43.2988 192.07 42.6735C191.282 41.9726 190.291 41.2341 189.052 40.1521C188.087 39.3094 187.378 38.847 186.436 38.0622C184.097 36.1124 182.847 35.102 182.173 34.5321C181.365 33.8497 180.42 33.3109 179.664 32.579C179.095 32.0276 178.8 31.6272 178.477 31.4375C177.428 30.8208 175.834 33.4151 174.919 34.2821C173.773 35.3684 172.491 36.346 171.977 36.7807C171.399 37.2705 170.711 37.6486 170.063 38.2185C169.74 38.4628 169.308 38.8422 168.85 39.303C168.659 39.4951 168.553 39.6026 168.443 39.7133" stroke="#BBBBBB" stroke-width="1.6087" stroke-linecap="round"/>
<path d="M166.632 61.1417C166.581 61.1417 166.428 61.1929 166.222 61.3217C166.047 61.4316 166.093 61.7094 166.143 61.9157C166.171 62.0282 166.296 62.122 166.501 62.1748C166.706 62.2275 167.011 62.2275 167.194 62.2019C167.377 62.1763 167.427 62.1251 167.466 62.0348C167.556 61.8258 167.557 61.5822 167.519 61.3887C167.479 61.189 167.275 61.0905 167.16 61.0002C167.038 60.9045 166.839 60.9091 166.659 60.9475C166.307 61.0227 166.401 61.6567 166.426 61.9925C166.436 62.1257 166.503 62.1748 166.681 62.2011C166.86 62.2275 167.165 62.2275 167.348 62.1763C167.617 62.101 167.685 61.8661 167.762 61.7501C167.788 61.6854 167.788 61.6086 167.75 61.5307C167.712 61.4527 167.636 61.3759 167.557 61.2968" stroke="#BBBBBB" stroke-width="1.6087" stroke-linecap="round"/>
<path d="M167.325 60.9926C167.071 60.8902 166.863 60.8374 166.697 60.8758C166.607 60.9142 166.505 60.991 166.427 61.0561C166.349 61.1213 166.299 61.1725 166.246 61.3028" stroke="#BBBBBB" stroke-width="1.6087" stroke-linecap="round"/>
<path d="M188.87 61.3008C188.784 61.4915 188.669 62.1056 188.755 62.3293C188.805 62.46 189.079 62.3872 189.623 62.3827C189.783 62.3814 189.854 62.2724 189.911 62.1909C190.01 62.0497 189.988 61.8786 189.969 61.7297C189.954 61.6144 189.835 61.5607 189.764 61.5031C189.556 61.3357 189.091 61.4542 188.961 61.5313C188.859 61.5919 188.803 61.7139 188.755 61.8675C188.734 61.9343 188.727 62.0404 188.731 62.1701C188.734 62.2533 188.784 62.3197 188.864 62.4012C189.078 62.6162 189.488 62.5701 189.753 62.4936C189.834 62.3981 189.892 62.3202 189.935 62.2676C189.959 62.234 189.987 62.1864 190.017 62.1085" stroke="#BBBBBB" stroke-width="1.6087" stroke-linecap="round"/>
<path d="M189.357 61.3867C189.168 61.3867 189.042 61.3867 188.984 61.3915C188.926 61.3964 188.841 61.4632 188.741 61.5638C188.648 61.657 188.64 61.8186 188.649 61.9627C188.655 62.054 188.745 62.1267 188.859 62.2083C188.926 62.2423 189.011 62.2614 189.126 62.2712C189.241 62.281 189.383 62.281 189.529 62.281" stroke="#BBBBBB" stroke-width="1.6087" stroke-linecap="round"/>
<path d="M189.282 61.5288C189.229 61.4986 189.195 61.4755 189.183 61.4565C189.177 61.4461 189.18 61.4299 189.185 61.4203C189.196 61.4016 189.233 61.4029 189.261 61.3973C189.271 61.3803 189.241 61.3384 189.231 61.2906C189.229 61.281 189.221 61.2734 189.214 61.2656" stroke="#BBBBBB" stroke-width="1.6087" stroke-linecap="round"/>
<path d="M176.71 71.4695C176.192 71.5865 175.277 71.954 175.034 72.0993C174.746 72.2722 174.48 72.7032 174.291 73.2005C174.206 73.4239 174.153 73.6088 174.133 73.9546C174.096 74.6244 174.14 75.145 174.185 75.3414C174.286 75.777 174.465 76.0506 174.609 76.2808C174.848 76.6625 175.313 77.0487 175.568 77.2199C175.68 77.2956 175.874 77.4166 176.199 77.5738C176.588 77.762 177.099 77.8503 177.891 77.9224C178.411 77.9697 179.174 77.9815 179.612 77.9884C180.287 77.999 180.468 77.8641 180.728 77.7331C180.965 77.6141 181.288 77.3536 181.7 77.0639C182 76.8533 182.112 76.565 182.236 76.4136C182.392 76.2237 182.503 75.897 182.64 75.6128C182.726 75.4366 182.765 75.1864 182.784 74.963C182.823 74.5314 182.791 74.0046 182.7 73.7943C182.616 73.5998 182.44 73.4272 182.276 73.1446C182.174 72.9687 182.1 72.8355 181.93 72.6912C181.705 72.4992 181.215 72.0233 180.913 71.8244C180.734 71.7067 180.431 71.5097 180.046 71.3976C179.949 71.3695 179.857 71.3647 179.5 71.358C178.524 71.3397 177.82 71.3643 177.69 71.384C177.442 71.4167 177.298 71.4825 177.213 71.5087C177.168 71.5219 177.116 71.5349 177.063 71.5483" stroke="#BBBBBB" stroke-width="1.6087" stroke-linecap="round"/>
<path d="M175.953 85.0274C176.08 84.2175 176.23 83.7151 176.486 83.49C177.313 82.7613 178.621 82.8315 179.331 82.9917C180.21 83.6272 180.551 84.0561 180.852 84.6486C180.895 84.7685 180.895 84.8324 180.895 84.8983" stroke="#BBBBBB" stroke-width="1.6087" stroke-linecap="round"/>
<path d="M186.951 51.9844C188.41 52.893 189.868 53.8016 190.672 54.3221C191.475 54.8426 191.58 54.9474 191.687 55.0554" stroke="#BBBBBB" stroke-width="1.6087" stroke-linecap="round"/>
<path d="M149.65 66.5156C147.632 66.993 146.484 67.426 145.409 67.9914C143.574 68.9563 143.057 69.1216 142.563 69.7079C142.028 70.3425 141.983 71.3806 142.004 72.1189C142.028 72.9815 142.723 73.5562 143.259 73.9918C144.065 74.6471 146.989 74.7327 148.843 74.3864C149.03 74.2983 149.153 74.2553 149.297 74.1901C149.442 74.1249 149.605 74.0388 150.021 73.8197" stroke="#BBBBBB" stroke-width="1.6087" stroke-linecap="round"/>
<path d="M209.584 64.8984C209.998 65.0799 211.661 66.174 212.467 66.844C213.281 67.5204 214.401 68.6508 215.105 69.272C215.539 69.6557 215.695 70.3936 215.922 71.3764C216.131 72.2763 215.886 73.0065 215.603 73.4168C214.7 74.7262 214.066 75.0668 213.553 75.3438C212.287 75.4819 210.458 75.3005 210.174 74.9803C210.041 74.8414 209.24 74.4109 209.01 74.18" stroke="#BBBBBB" stroke-width="1.6087" stroke-linecap="round"/>
<path d="M165.984 92.4805C165.922 93.0517 165.797 94.0362 165.643 94.644C165.528 95.0953 165.24 95.5418 164.941 95.9975C164.371 96.8649 164.101 97.0158 163.986 97.2608C163.912 97.4203 163.831 97.6246 163.749 97.9364C163.628 98.3932 163.624 99.0605 163.644 99.6947C163.656 100.048 163.891 100.332 164.344 100.804C164.634 101.105 165.125 101.477 165.563 101.759C166.342 102.262 167.057 102.466 167.912 102.651C168.493 102.777 169.401 102.87 170.03 102.931C170.983 103.022 171.549 102.958 172.116 102.798C172.965 102.559 173.599 102.062 173.992 101.758C174.279 101.535 174.633 100.981 175.098 100.053C175.339 99.5733 175.42 99.0245 175.483 98.5388C175.601 97.6379 175.567 97.1356 175.598 96.9838C175.609 96.7985 175.629 96.5608 175.66 95.9891C175.671 95.5514 175.671 94.8141 175.609 94.0038" stroke="#BBBBBB" stroke-width="1.6087" stroke-linecap="round"/>
<path d="M180.483 94.3532C180.463 94.704 180.494 94.2867 180.483 94.8601C180.473 95.4334 180.473 96.2187 180.493 96.7401C180.522 97.4968 180.676 97.9203 180.869 98.4326C181.165 99.2189 181.308 99.7778 181.379 99.9208C181.455 100.074 181.693 100.517 182.241 101.224C182.827 101.98 183.506 102.393 183.883 102.553C184.27 102.718 184.909 102.849 185.955 102.925C187.218 103.017 188.07 102.934 188.395 102.876C189.195 102.731 189.638 102.311 189.945 102.066C190.44 101.671 190.841 101.367 191.441 100.491C191.687 100.133 191.637 99.8305 191.667 99.535C191.756 98.6889 191.678 97.5016 191.556 97.2145C191.413 96.8783 191.393 96.5903 191.271 96.3452C191.1 96.0031 190.945 95.8136 190.802 95.6278C190.567 95.3208 190.517 94.9874 190.385 94.7502C190.199 94.4184 189.967 93.8736 189.885 93.6364C189.865 93.5855 189.845 93.5354 189.824 93.4845C189.804 93.4336 189.784 93.3835 189.763 93.2812" stroke="#BBBBBB" stroke-width="1.6087" stroke-linecap="round"/>
<path d="M91.012 128.144C91.6307 128.144 92.1693 128.235 92.628 128.416C93.0973 128.597 93.4867 128.848 93.796 129.168C94.1053 129.488 94.3347 129.867 94.484 130.304C94.644 130.731 94.724 131.195 94.724 131.696C94.724 132.208 94.644 132.683 94.484 133.12C94.3347 133.547 94.1053 133.92 93.796 134.24C93.4867 134.56 93.0973 134.811 92.628 134.992C92.1693 135.173 91.6307 135.264 91.012 135.264C90.3933 135.264 89.8493 135.173 89.38 134.992C88.9213 134.811 88.5373 134.56 88.228 134.24C87.9187 133.92 87.684 133.547 87.524 133.12C87.3747 132.683 87.3 132.208 87.3 131.696C87.3 131.195 87.3747 130.731 87.524 130.304C87.684 129.867 87.9187 129.488 88.228 129.168C88.5373 128.848 88.9213 128.597 89.38 128.416C89.8493 128.235 90.3933 128.144 91.012 128.144ZM91.012 129.488C90.6173 129.488 90.2813 129.547 90.004 129.664C89.7373 129.781 89.5133 129.941 89.332 130.144C89.1613 130.336 89.0333 130.571 88.948 130.848C88.8733 131.115 88.836 131.397 88.836 131.696C88.836 132.005 88.8733 132.293 88.948 132.56C89.0333 132.827 89.1613 133.061 89.332 133.264C89.5133 133.467 89.7373 133.627 90.004 133.744C90.2813 133.861 90.6173 133.92 91.012 133.92C91.4067 133.92 91.7373 133.861 92.004 133.744C92.2813 133.627 92.5053 133.467 92.676 133.264C92.8573 133.061 92.9853 132.827 93.06 132.56C93.1453 132.293 93.188 132.005 93.188 131.696C93.188 131.397 93.1453 131.115 93.06 130.848C92.9853 130.571 92.8573 130.336 92.676 130.144C92.5053 129.941 92.2813 129.781 92.004 129.664C91.7373 129.547 91.4067 129.488 91.012 129.488ZM97.636 127.552C97.8493 127.552 98.036 127.605 98.196 127.712C98.356 127.819 98.436 127.989 98.436 128.224V131.248H100.196C100.409 131.248 100.559 131.317 100.644 131.456C100.74 131.595 100.788 131.755 100.788 131.936C100.788 132.139 100.74 132.309 100.644 132.448C100.559 132.576 100.409 132.64 100.196 132.64H98.436V136.448C98.436 136.683 98.356 136.853 98.196 136.96C98.036 137.067 97.8493 137.12 97.636 137.12C97.4227 137.12 97.236 137.067 97.076 136.96C96.916 136.853 96.836 136.683 96.836 136.448V128.224C96.836 127.989 96.916 127.819 97.076 127.712C97.236 127.605 97.4227 127.552 97.636 127.552ZM93.844 136.144C94.0573 136.144 94.244 136.197 94.404 136.304C94.564 136.411 94.644 136.581 94.644 136.816V137.408C94.644 137.675 94.6653 137.909 94.708 138.112C94.7507 138.315 94.8253 138.496 94.932 138.656C95.0387 138.816 95.172 138.965 95.332 139.104C95.5027 139.243 95.7107 139.376 95.956 139.504C96.404 139.749 96.8573 139.984 97.316 140.208C97.7853 140.432 98.2653 140.651 98.756 140.864C98.9373 140.949 99.044 141.077 99.076 141.248C99.108 141.429 99.0813 141.605 98.996 141.776C98.9107 141.947 98.788 142.069 98.628 142.144C98.468 142.219 98.292 142.213 98.1 142.128C97.6413 141.925 97.204 141.723 96.788 141.52C96.3827 141.328 95.988 141.125 95.604 140.912C95.284 140.741 95.0173 140.587 94.804 140.448C94.6013 140.32 94.4307 140.197 94.292 140.08C94.164 139.963 94.068 139.856 94.004 139.76C93.94 139.653 93.892 139.552 93.86 139.456H93.844C93.812 139.563 93.764 139.669 93.7 139.776C93.636 139.872 93.5347 139.979 93.396 140.096C93.2573 140.224 93.0813 140.352 92.868 140.48C92.6653 140.619 92.404 140.773 92.084 140.944C91.7 141.157 91.3 141.36 90.884 141.552C90.4787 141.755 90.0467 141.957 89.588 142.16C89.396 142.245 89.22 142.251 89.06 142.176C88.9 142.101 88.7773 141.979 88.692 141.808C88.6067 141.627 88.58 141.445 88.612 141.264C88.644 141.083 88.7453 140.949 88.916 140.864C89.4173 140.651 89.8973 140.432 90.356 140.208C90.8147 139.984 91.268 139.749 91.716 139.504C91.9613 139.376 92.1693 139.243 92.34 139.104C92.5107 138.965 92.644 138.816 92.74 138.656C92.8467 138.496 92.9213 138.315 92.964 138.112C93.0173 137.909 93.044 137.675 93.044 137.408V136.816C93.044 136.581 93.124 136.411 93.284 136.304C93.444 136.197 93.6307 136.144 93.844 136.144ZM103.479 128.16C103.745 128.16 103.959 128.219 104.119 128.336C104.289 128.453 104.369 128.651 104.359 128.928L104.167 136.48C104.156 136.736 104.081 136.917 103.943 137.024C103.815 137.12 103.66 137.168 103.479 137.168C103.297 137.168 103.137 137.12 102.999 137.024C102.871 136.917 102.807 136.736 102.807 136.48L102.599 128.928C102.599 128.651 102.679 128.453 102.839 128.336C102.999 128.219 103.212 128.16 103.479 128.16ZM103.479 138.48C103.777 138.48 104.028 138.581 104.231 138.784C104.433 138.976 104.535 139.221 104.535 139.52C104.535 139.819 104.433 140.069 104.231 140.272C104.028 140.475 103.777 140.576 103.479 140.576C103.18 140.576 102.929 140.475 102.727 140.272C102.524 140.069 102.423 139.819 102.423 139.52C102.423 139.221 102.524 138.976 102.727 138.784C102.929 138.581 103.18 138.48 103.479 138.48ZM114.419 128.384C115.656 128.384 116.589 128.789 117.219 129.6C117.848 130.411 118.163 131.595 118.163 133.152C118.163 134.709 117.848 135.893 117.219 136.704C116.589 137.515 115.656 137.92 114.419 137.92C113.181 137.92 112.248 137.515 111.619 136.704C111 135.893 110.691 134.709 110.691 133.152C110.691 131.595 111 130.411 111.619 129.6C112.248 128.789 113.181 128.384 114.419 128.384ZM114.419 129.792C113.64 129.792 113.08 130.08 112.739 130.656C112.408 131.221 112.243 132.053 112.243 133.152C112.243 134.251 112.408 135.088 112.739 135.664C113.08 136.229 113.64 136.512 114.419 136.512C115.208 136.512 115.768 136.229 116.099 135.664C116.44 135.088 116.611 134.251 116.611 133.152C116.611 132.053 116.44 131.221 116.099 130.656C115.768 130.08 115.208 129.792 114.419 129.792ZM121.027 127.552C121.24 127.552 121.427 127.605 121.587 127.712C121.747 127.819 121.827 127.989 121.827 128.224V132.384H123.587C123.8 132.384 123.949 132.453 124.035 132.592C124.131 132.72 124.179 132.88 124.179 133.072C124.179 133.264 124.131 133.429 124.035 133.568C123.949 133.707 123.8 133.776 123.587 133.776H121.827V140.704C121.827 140.939 121.747 141.109 121.587 141.216C121.427 141.323 121.24 141.376 121.027 141.376C120.813 141.376 120.627 141.323 120.467 141.216C120.307 141.109 120.227 140.939 120.227 140.704V128.224C120.227 127.989 120.307 127.819 120.467 127.712C120.627 127.605 120.813 127.552 121.027 127.552ZM133.157 128.384C133.349 128.384 133.488 128.453 133.573 128.592C133.669 128.731 133.717 128.891 133.717 129.072C133.717 129.253 133.669 129.413 133.573 129.552C133.488 129.68 133.349 129.744 133.157 129.744H130.549V130.464C130.549 130.987 130.629 131.424 130.789 131.776C130.96 132.128 131.237 132.459 131.621 132.768C131.994 133.077 132.346 133.355 132.677 133.6C133.008 133.845 133.301 134.059 133.557 134.24C133.738 134.368 133.834 134.523 133.845 134.704C133.856 134.885 133.802 135.056 133.685 135.216C133.578 135.344 133.434 135.445 133.253 135.52C133.082 135.584 132.896 135.547 132.693 135.408C132.501 135.269 132.25 135.088 131.941 134.864C131.632 134.629 131.306 134.373 130.965 134.096C130.56 133.765 130.272 133.504 130.101 133.312C129.93 133.109 129.824 132.928 129.781 132.768H129.765C129.722 132.949 129.61 133.147 129.429 133.36C129.248 133.573 128.954 133.84 128.549 134.16C128.197 134.437 127.85 134.704 127.509 134.96C127.178 135.205 126.853 135.44 126.533 135.664C126.352 135.792 126.165 135.824 125.973 135.76C125.792 135.696 125.653 135.595 125.557 135.456C125.44 135.307 125.386 135.136 125.397 134.944C125.408 134.752 125.504 134.587 125.685 134.448C126.069 134.181 126.437 133.92 126.789 133.664C127.152 133.397 127.52 133.115 127.893 132.816C128.266 132.507 128.533 132.176 128.693 131.824C128.864 131.472 128.949 131.035 128.949 130.512V129.744H126.229C126.026 129.744 125.877 129.68 125.781 129.552C125.696 129.413 125.653 129.253 125.653 129.072C125.653 128.891 125.696 128.731 125.781 128.592C125.877 128.453 126.026 128.384 126.229 128.384H133.157ZM136.277 127.552C136.49 127.552 136.677 127.605 136.837 127.712C136.997 127.819 137.077 127.989 137.077 128.224V135.536C137.077 135.771 136.997 135.941 136.837 136.048C136.677 136.155 136.49 136.208 136.277 136.208C136.064 136.208 135.877 136.155 135.717 136.048C135.557 135.941 135.477 135.771 135.477 135.536V128.224C135.477 127.989 135.557 127.819 135.717 127.712C135.877 127.605 136.064 127.552 136.277 127.552ZM135.845 136.896C136.314 136.896 136.634 136.981 136.805 137.152C136.986 137.323 137.077 137.637 137.077 138.096V141.76C137.077 141.995 136.997 142.165 136.837 142.272C136.677 142.379 136.49 142.432 136.277 142.432C136.064 142.432 135.877 142.379 135.717 142.272C135.557 142.165 135.477 141.995 135.477 141.76V138.592C135.477 138.379 135.365 138.272 135.141 138.272H128.021C127.818 138.272 127.669 138.203 127.573 138.064C127.488 137.925 127.445 137.765 127.445 137.584C127.445 137.403 127.488 137.243 127.573 137.104C127.669 136.965 127.818 136.896 128.021 136.896H135.845ZM149.736 128.464C150.205 128.464 150.525 128.549 150.696 128.72C150.877 128.891 150.968 129.205 150.968 129.664V134.304C150.968 134.763 150.877 135.077 150.696 135.248C150.525 135.419 150.205 135.504 149.736 135.504H145.336C144.866 135.504 144.541 135.419 144.36 135.248C144.189 135.077 144.104 134.763 144.104 134.304V129.664C144.104 129.205 144.189 128.891 144.36 128.72C144.541 128.549 144.866 128.464 145.336 128.464H149.736ZM146.024 129.824C145.896 129.824 145.805 129.851 145.752 129.904C145.709 129.947 145.688 130.032 145.688 130.16V133.824C145.688 133.941 145.709 134.027 145.752 134.08C145.805 134.133 145.896 134.16 146.024 134.16H149.048C149.272 134.16 149.384 134.048 149.384 133.824V130.16C149.384 130.032 149.357 129.947 149.304 129.904C149.25 129.851 149.165 129.824 149.048 129.824H146.024ZM154.152 127.552C154.365 127.552 154.552 127.605 154.712 127.712C154.872 127.819 154.952 127.989 154.952 128.224V131.648H156.712C156.925 131.648 157.074 131.717 157.16 131.856C157.256 131.995 157.304 132.155 157.304 132.336C157.304 132.539 157.256 132.709 157.16 132.848C157.074 132.976 156.925 133.04 156.712 133.04H154.952V137.696C154.952 137.931 154.872 138.101 154.712 138.208C154.552 138.315 154.365 138.368 154.152 138.368C153.938 138.368 153.752 138.315 153.592 138.208C153.432 138.101 153.352 137.931 153.352 137.696V128.224C153.352 127.989 153.432 127.819 153.592 127.712C153.752 127.605 153.938 127.552 154.152 127.552ZM146.584 137.024C146.786 137.024 146.968 137.077 147.128 137.184C147.298 137.291 147.384 137.461 147.384 137.696V140.4C147.384 140.517 147.405 140.597 147.448 140.64C147.501 140.693 147.592 140.72 147.72 140.72H154.76C154.962 140.72 155.106 140.789 155.192 140.928C155.288 141.067 155.336 141.232 155.336 141.424C155.336 141.605 155.288 141.765 155.192 141.904C155.106 142.043 154.962 142.112 154.76 142.112H147C146.53 142.112 146.205 142.027 146.024 141.856C145.853 141.685 145.768 141.371 145.768 140.912V137.696C145.768 137.461 145.848 137.291 146.008 137.184C146.178 137.077 146.37 137.024 146.584 137.024ZM169.114 128.112C169.306 128.112 169.445 128.181 169.53 128.32C169.626 128.448 169.674 128.603 169.674 128.784C169.674 128.965 169.626 129.125 169.53 129.264C169.445 129.403 169.306 129.472 169.114 129.472H161.93C161.706 129.472 161.594 129.579 161.594 129.792V131.824C161.594 132.037 161.706 132.144 161.93 132.144H169.274C169.466 132.144 169.605 132.213 169.69 132.352C169.786 132.48 169.834 132.635 169.834 132.816C169.834 132.997 169.786 133.157 169.69 133.296C169.605 133.435 169.466 133.504 169.274 133.504H161.21C160.741 133.504 160.421 133.419 160.25 133.248C160.079 133.077 159.994 132.763 159.994 132.304V129.312C159.994 128.853 160.079 128.539 160.25 128.368C160.421 128.197 160.741 128.112 161.21 128.112H169.114ZM171.018 135.12C171.21 135.12 171.349 135.189 171.434 135.328C171.53 135.467 171.578 135.627 171.578 135.808C171.578 135.989 171.53 136.149 171.434 136.288C171.349 136.416 171.21 136.48 171.018 136.48H158.698C158.506 136.48 158.362 136.416 158.266 136.288C158.181 136.149 158.138 135.989 158.138 135.808C158.138 135.627 158.181 135.467 158.266 135.328C158.362 135.189 158.506 135.12 158.698 135.12H171.018ZM160.762 137.632C160.975 137.632 161.162 137.685 161.322 137.792C161.482 137.899 161.562 138.069 161.562 138.304V140.48C161.562 140.704 161.674 140.816 161.898 140.816H169.466C169.658 140.816 169.797 140.88 169.882 141.008C169.978 141.147 170.026 141.307 170.026 141.488C170.026 141.669 169.978 141.829 169.882 141.968C169.797 142.107 169.658 142.176 169.466 142.176H161.178C160.709 142.176 160.389 142.091 160.218 141.92C160.047 141.749 159.962 141.435 159.962 140.976V138.304C159.962 138.069 160.042 137.899 160.202 137.792C160.362 137.685 160.549 137.632 160.762 137.632ZM187.693 128.048C187.874 128.048 188.007 128.117 188.093 128.256C188.189 128.384 188.237 128.539 188.237 128.72C188.237 128.901 188.189 129.056 188.093 129.184C188.007 129.312 187.874 129.376 187.693 129.376H180.493C180.269 129.376 180.157 129.488 180.157 129.712V131.456C180.157 131.68 180.269 131.792 180.493 131.792H187.853C188.034 131.792 188.167 131.856 188.253 131.984C188.349 132.112 188.397 132.267 188.397 132.448C188.397 132.629 188.349 132.789 188.253 132.928C188.167 133.056 188.034 133.12 187.853 133.12H179.773C179.303 133.12 178.983 133.035 178.813 132.864C178.642 132.693 178.557 132.379 178.557 131.92V129.248C178.557 128.789 178.642 128.475 178.813 128.304C178.983 128.133 179.303 128.048 179.773 128.048H187.693ZM184.205 134.72H189.597C189.778 134.72 189.911 134.789 189.997 134.928C190.093 135.056 190.141 135.211 190.141 135.392C190.141 135.573 190.093 135.733 189.997 135.872C189.911 136 189.778 136.064 189.597 136.064H177.245C177.063 136.064 176.925 136 176.829 135.872C176.743 135.733 176.701 135.573 176.701 135.392C176.701 135.211 176.743 135.056 176.829 134.928C176.925 134.789 177.063 134.72 177.245 134.72H182.637V132.464H184.205V134.72ZM183.421 137.072C184.967 137.072 186.167 137.296 187.021 137.744C187.885 138.192 188.317 138.885 188.317 139.824C188.317 140.773 187.885 141.467 187.021 141.904C186.167 142.352 184.967 142.576 183.421 142.576C181.874 142.576 180.669 142.352 179.805 141.904C178.951 141.467 178.525 140.773 178.525 139.824C178.525 138.885 178.951 138.192 179.805 137.744C180.669 137.296 181.874 137.072 183.421 137.072ZM183.421 138.352C182.258 138.352 181.415 138.48 180.893 138.736C180.37 138.981 180.109 139.344 180.109 139.824C180.109 140.304 180.37 140.667 180.893 140.912C181.415 141.168 182.258 141.296 183.421 141.296C184.583 141.296 185.426 141.168 185.949 140.912C186.471 140.667 186.733 140.304 186.733 139.824C186.733 139.344 186.471 138.981 185.949 138.736C185.426 138.48 184.583 138.352 183.421 138.352ZM195.871 131.376C196.948 131.376 197.786 131.6 198.383 132.048C198.991 132.485 199.295 133.083 199.295 133.84C199.295 134.597 198.991 135.2 198.383 135.648C197.786 136.085 196.948 136.304 195.871 136.304C194.794 136.304 193.951 136.085 193.343 135.648C192.746 135.2 192.447 134.597 192.447 133.84C192.447 133.083 192.746 132.485 193.343 132.048C193.951 131.6 194.794 131.376 195.871 131.376ZM195.871 132.608C195.199 132.608 194.703 132.725 194.383 132.96C194.063 133.184 193.903 133.477 193.903 133.84C193.903 134.192 194.063 134.485 194.383 134.72C194.703 134.955 195.199 135.072 195.871 135.072C196.543 135.072 197.039 134.955 197.359 134.72C197.679 134.485 197.839 134.192 197.839 133.84C197.839 133.477 197.679 133.184 197.359 132.96C197.039 132.725 196.543 132.608 195.871 132.608ZM195.871 127.6C196.084 127.6 196.271 127.653 196.431 127.76C196.591 127.867 196.671 128.037 196.671 128.272V129.2H199.551C199.743 129.2 199.882 129.269 199.967 129.408C200.063 129.547 200.111 129.707 200.111 129.888C200.111 130.069 200.063 130.229 199.967 130.368C199.882 130.496 199.743 130.56 199.551 130.56H192.047C191.855 130.56 191.711 130.496 191.615 130.368C191.53 130.229 191.487 130.069 191.487 129.888C191.487 129.707 191.53 129.547 191.615 129.408C191.711 129.269 191.855 129.2 192.047 129.2H195.071V128.272C195.071 128.037 195.151 127.867 195.311 127.76C195.482 127.653 195.668 127.6 195.871 127.6ZM202.111 127.552C202.324 127.552 202.511 127.605 202.671 127.712C202.831 127.819 202.911 127.984 202.911 128.208V132.864H204.463C204.676 132.864 204.826 132.933 204.911 133.072C205.007 133.2 205.055 133.36 205.055 133.552C205.055 133.744 205.007 133.909 204.911 134.048C204.826 134.187 204.676 134.256 204.463 134.256H202.911V140.72C202.911 140.944 202.831 141.109 202.671 141.216C202.511 141.323 202.324 141.376 202.111 141.376C201.908 141.376 201.727 141.323 201.567 141.216C201.407 141.109 201.327 140.944 201.327 140.72V128.208C201.327 127.984 201.407 127.819 201.567 127.712C201.727 127.605 201.908 127.552 202.111 127.552ZM199.935 137.568C200.116 137.547 200.255 137.595 200.351 137.712C200.447 137.829 200.506 137.979 200.527 138.16C200.548 138.341 200.516 138.501 200.431 138.64C200.356 138.779 200.228 138.859 200.047 138.88C198.82 138.997 197.508 139.077 196.111 139.12C194.724 139.163 193.284 139.184 191.791 139.184C191.599 139.184 191.455 139.115 191.359 138.976C191.274 138.837 191.231 138.677 191.231 138.496C191.231 138.315 191.274 138.16 191.359 138.032C191.455 137.904 191.599 137.84 191.791 137.84C192.335 137.84 192.879 137.84 193.423 137.84C193.978 137.84 194.532 137.835 195.087 137.824V135.648H196.655V137.776C197.199 137.755 197.738 137.728 198.271 137.696C198.815 137.664 199.37 137.621 199.935 137.568ZM211.762 128.656C212.231 128.656 212.551 128.741 212.722 128.912C212.903 129.083 212.994 129.397 212.994 129.856V131.632C212.994 132.08 212.967 132.485 212.914 132.848C212.86 133.2 212.759 133.536 212.61 133.856C212.46 134.176 212.252 134.491 211.986 134.8C211.73 135.099 211.388 135.419 210.962 135.76C210.546 136.091 210.039 136.453 209.442 136.848C208.844 137.243 208.14 137.691 207.33 138.192C207.148 138.299 206.967 138.32 206.786 138.256C206.604 138.181 206.46 138.069 206.354 137.92C206.247 137.771 206.194 137.595 206.194 137.392C206.204 137.189 206.3 137.029 206.482 136.912C207.228 136.453 207.868 136.053 208.402 135.712C208.935 135.36 209.383 135.045 209.746 134.768C210.119 134.48 210.412 134.219 210.626 133.984C210.839 133.739 211.004 133.499 211.122 133.264C211.239 133.019 211.314 132.763 211.346 132.496C211.378 132.219 211.394 131.909 211.394 131.568V130.368C211.394 130.251 211.367 130.171 211.314 130.128C211.271 130.075 211.186 130.048 211.058 130.048H206.93C206.727 130.048 206.578 129.979 206.482 129.84C206.396 129.701 206.354 129.541 206.354 129.36C206.354 129.168 206.396 129.003 206.482 128.864C206.578 128.725 206.727 128.656 206.93 128.656H211.762ZM216.402 127.552C216.615 127.552 216.802 127.605 216.962 127.712C217.122 127.819 217.202 127.989 217.202 128.224V132.384H218.962C219.175 132.384 219.324 132.453 219.41 132.592C219.506 132.72 219.554 132.88 219.554 133.072C219.554 133.264 219.506 133.429 219.41 133.568C219.324 133.707 219.175 133.776 218.962 133.776H217.202V140.704C217.202 140.939 217.122 141.109 216.962 141.216C216.802 141.323 216.615 141.376 216.402 141.376C216.188 141.376 216.002 141.323 215.842 141.216C215.682 141.109 215.602 140.939 215.602 140.704V128.224C215.602 127.989 215.682 127.819 215.842 127.712C216.002 127.605 216.188 127.552 216.402 127.552ZM228.532 128.112C229.151 128.112 229.689 128.203 230.148 128.384C230.607 128.555 230.985 128.795 231.284 129.104C231.593 129.413 231.823 129.781 231.972 130.208C232.132 130.624 232.212 131.077 232.212 131.568C232.212 132.069 232.132 132.533 231.972 132.96C231.823 133.376 231.593 133.739 231.284 134.048C230.985 134.357 230.607 134.603 230.148 134.784C229.689 134.955 229.151 135.04 228.532 135.04C227.913 135.04 227.375 134.955 226.916 134.784C226.457 134.603 226.073 134.357 225.764 134.048C225.465 133.739 225.236 133.376 225.076 132.96C224.927 132.533 224.852 132.069 224.852 131.568C224.852 131.077 224.927 130.624 225.076 130.208C225.236 129.781 225.465 129.413 225.764 129.104C226.073 128.795 226.457 128.555 226.916 128.384C227.375 128.203 227.913 128.112 228.532 128.112ZM228.532 129.44C228.148 129.44 227.817 129.499 227.54 129.616C227.273 129.723 227.055 129.877 226.884 130.08C226.713 130.272 226.585 130.496 226.5 130.752C226.425 131.008 226.388 131.28 226.388 131.568C226.388 131.856 226.425 132.128 226.5 132.384C226.585 132.64 226.713 132.869 226.884 133.072C227.055 133.264 227.273 133.419 227.54 133.536C227.817 133.643 228.148 133.696 228.532 133.696C228.916 133.696 229.241 133.643 229.508 133.536C229.785 133.419 230.009 133.264 230.18 133.072C230.351 132.869 230.473 132.64 230.548 132.384C230.633 132.128 230.676 131.856 230.676 131.568C230.676 131.28 230.633 131.008 230.548 130.752C230.473 130.496 230.351 130.272 230.18 130.08C230.009 129.877 229.785 129.723 229.508 129.616C229.241 129.499 228.916 129.44 228.532 129.44ZM235.764 127.552C235.967 127.552 236.148 127.605 236.308 127.712C236.468 127.819 236.548 127.989 236.548 128.224V134.8C236.548 135.035 236.468 135.205 236.308 135.312C236.148 135.419 235.967 135.472 235.764 135.472C235.551 135.472 235.364 135.419 235.204 135.312C235.044 135.205 234.964 135.035 234.964 134.8V132.256H231.188V130.896H234.964V128.224C234.964 127.989 235.044 127.819 235.204 127.712C235.364 127.605 235.551 127.552 235.764 127.552ZM234.724 136.16C234.927 136.16 235.108 136.213 235.268 136.32C235.428 136.427 235.508 136.597 235.508 136.832V137.776C235.508 138 235.519 138.203 235.54 138.384C235.572 138.555 235.615 138.72 235.668 138.88C235.721 139.029 235.796 139.173 235.892 139.312C235.988 139.451 236.111 139.6 236.26 139.76C236.473 139.995 236.681 140.224 236.884 140.448C237.097 140.672 237.311 140.885 237.524 141.088C237.663 141.216 237.721 141.365 237.7 141.536C237.679 141.717 237.604 141.867 237.476 141.984C237.337 142.123 237.177 142.192 236.996 142.192C236.815 142.203 236.655 142.139 236.516 142C236.335 141.829 236.148 141.648 235.956 141.456C235.775 141.264 235.609 141.093 235.46 140.944C235.204 140.645 235.028 140.416 234.932 140.256C234.836 140.107 234.772 139.957 234.74 139.808H234.724C234.703 139.968 234.639 140.128 234.532 140.288C234.436 140.448 234.26 140.677 234.004 140.976C233.855 141.125 233.684 141.296 233.492 141.488C233.311 141.68 233.129 141.861 232.948 142.032C232.809 142.171 232.649 142.235 232.468 142.224C232.287 142.213 232.127 142.144 231.988 142.016C231.86 141.888 231.785 141.733 231.764 141.552C231.743 141.371 231.796 141.216 231.924 141.088C232.351 140.672 232.777 140.229 233.204 139.76C233.343 139.6 233.46 139.451 233.556 139.312C233.652 139.173 233.727 139.029 233.78 138.88C233.844 138.72 233.887 138.555 233.908 138.384C233.929 138.203 233.94 138 233.94 137.776V136.832C233.94 136.597 234.02 136.427 234.18 136.32C234.34 136.213 234.521 136.16 234.724 136.16ZM227.636 140.704C227.636 140.917 227.743 141.024 227.956 141.024H229.7C229.913 141.024 230.02 140.917 230.02 140.704V139.376H227.636V140.704ZM226.916 136.16C227.097 136.16 227.263 136.208 227.412 136.304C227.561 136.4 227.636 136.555 227.636 136.768V138.16H230.02V136.768C230.02 136.555 230.095 136.4 230.244 136.304C230.393 136.208 230.559 136.16 230.74 136.16C230.921 136.16 231.087 136.208 231.236 136.304C231.385 136.4 231.46 136.555 231.46 136.768V141.04C231.46 141.285 231.439 141.483 231.396 141.632C231.364 141.792 231.3 141.915 231.204 142C231.119 142.085 230.996 142.144 230.836 142.176C230.676 142.219 230.473 142.24 230.228 142.24H227.428C227.183 142.24 226.98 142.219 226.82 142.176C226.66 142.144 226.532 142.085 226.436 142C226.351 141.915 226.287 141.792 226.244 141.632C226.212 141.483 226.196 141.285 226.196 141.04V136.768C226.196 136.555 226.271 136.4 226.42 136.304C226.569 136.208 226.735 136.16 226.916 136.16ZM243.111 128.384C244.337 128.384 245.26 128.789 245.879 129.6C246.508 130.411 246.823 131.595 246.823 133.152C246.823 134.709 246.508 135.893 245.879 136.704C245.26 137.515 244.337 137.92 243.111 137.92C241.884 137.92 240.961 137.515 240.343 136.704C239.724 135.893 239.415 134.709 239.415 133.152C239.415 131.595 239.724 130.411 240.343 129.6C240.961 128.789 241.884 128.384 243.111 128.384ZM243.111 129.792C242.343 129.792 241.793 130.08 241.463 130.656C241.132 131.221 240.967 132.053 240.967 133.152C240.967 134.251 241.132 135.088 241.463 135.664C241.793 136.229 242.343 136.512 243.111 136.512C243.889 136.512 244.444 136.229 244.775 135.664C245.105 135.088 245.271 134.251 245.271 133.152C245.271 132.053 245.105 131.221 244.775 130.656C244.444 130.08 243.889 129.792 243.111 129.792ZM250.311 127.552C250.524 127.552 250.711 127.605 250.871 127.712C251.031 127.819 251.111 127.989 251.111 128.224V140.704C251.111 140.939 251.031 141.109 250.871 141.216C250.711 141.323 250.524 141.376 250.311 141.376C250.108 141.376 249.927 141.323 249.767 141.216C249.607 141.109 249.527 140.939 249.527 140.704V133.824H245.799V132.464H249.527V128.224C249.527 127.989 249.607 127.819 249.767 127.712C249.927 127.605 250.108 127.552 250.311 127.552ZM260.233 128.112C261.001 128.112 261.689 128.197 262.297 128.368C262.916 128.539 263.433 128.789 263.849 129.12C264.276 129.44 264.601 129.84 264.825 130.32C265.049 130.789 265.161 131.323 265.161 131.92C265.161 133.125 264.724 134.064 263.849 134.736C262.985 135.397 261.78 135.728 260.233 135.728C258.686 135.728 257.481 135.397 256.617 134.736C255.753 134.064 255.321 133.125 255.321 131.92C255.321 131.323 255.433 130.789 255.657 130.32C255.881 129.84 256.201 129.44 256.617 129.12C257.044 128.789 257.561 128.539 258.169 128.368C258.777 128.197 259.465 128.112 260.233 128.112ZM260.233 129.472C259.657 129.472 259.161 129.536 258.745 129.664C258.329 129.781 257.982 129.952 257.705 130.176C257.438 130.389 257.241 130.645 257.113 130.944C256.985 131.243 256.921 131.568 256.921 131.92C256.921 132.272 256.985 132.597 257.113 132.896C257.241 133.195 257.438 133.456 257.705 133.68C257.982 133.893 258.329 134.064 258.745 134.192C259.161 134.309 259.657 134.368 260.233 134.368C260.809 134.368 261.305 134.309 261.721 134.192C262.137 134.064 262.478 133.893 262.745 133.68C263.022 133.456 263.225 133.195 263.353 132.896C263.481 132.597 263.545 132.272 263.545 131.92C263.545 131.568 263.481 131.243 263.353 130.944C263.225 130.645 263.022 130.389 262.745 130.176C262.478 129.952 262.137 129.781 261.721 129.664C261.305 129.536 260.809 129.472 260.233 129.472ZM257.769 136.048C257.982 136.048 258.169 136.101 258.329 136.208C258.489 136.315 258.569 136.48 258.569 136.704V138.64H261.897V136.704C261.897 136.48 261.977 136.315 262.137 136.208C262.297 136.101 262.484 136.048 262.697 136.048C262.91 136.048 263.097 136.101 263.257 136.208C263.417 136.315 263.497 136.48 263.497 136.704V138.64H266.393C266.585 138.64 266.724 138.704 266.809 138.832C266.905 138.96 266.953 139.115 266.953 139.296C266.953 139.477 266.905 139.637 266.809 139.776C266.724 139.915 266.585 139.984 266.393 139.984H254.073C253.881 139.984 253.737 139.915 253.641 139.776C253.556 139.637 253.513 139.477 253.513 139.296C253.513 139.115 253.556 138.96 253.641 138.832C253.737 138.704 253.881 138.64 254.073 138.64H256.969V136.704C256.969 136.48 257.049 136.315 257.209 136.208C257.369 136.101 257.556 136.048 257.769 136.048ZM269.5 138.416C269.809 138.416 270.065 138.517 270.268 138.72C270.481 138.923 270.588 139.179 270.588 139.488C270.588 139.797 270.481 140.053 270.268 140.256C270.065 140.469 269.809 140.576 269.5 140.576C269.19 140.576 268.934 140.469 268.732 140.256C268.529 140.053 268.428 139.797 268.428 139.488C268.428 139.179 268.529 138.923 268.732 138.72C268.934 138.517 269.19 138.416 269.5 138.416ZM58.8219 152.656C59.0139 152.656 59.1526 152.725 59.2379 152.864C59.3339 153.003 59.3819 153.163 59.3819 153.344C59.3819 153.525 59.3339 153.685 59.2379 153.824C59.1526 153.963 59.0139 154.032 58.8219 154.032H56.1979V155.568C56.1979 155.92 56.2139 156.235 56.2459 156.512C56.2886 156.789 56.3579 157.051 56.4539 157.296C56.5499 157.531 56.6779 157.76 56.8379 157.984C56.9979 158.208 57.1953 158.437 57.4299 158.672C57.7713 159.013 58.1019 159.339 58.4219 159.648C58.7419 159.957 59.0353 160.224 59.3019 160.448C59.4619 160.597 59.5259 160.768 59.4939 160.96C59.4726 161.152 59.3979 161.312 59.2699 161.44C59.1419 161.579 58.9873 161.664 58.8059 161.696C58.6246 161.728 58.4539 161.675 58.2939 161.536C58.0593 161.323 57.7979 161.083 57.5099 160.816C57.2326 160.539 56.9286 160.24 56.5979 159.92C56.3739 159.685 56.1873 159.488 56.0379 159.328C55.8886 159.157 55.7659 159.008 55.6699 158.88C55.5846 158.752 55.5206 158.64 55.4779 158.544C55.4353 158.448 55.4086 158.357 55.3979 158.272H55.3819C55.3606 158.368 55.3286 158.464 55.2859 158.56C55.2433 158.656 55.1793 158.768 55.0939 158.896C55.0086 159.024 54.8913 159.173 54.7419 159.344C54.5926 159.515 54.4006 159.717 54.1659 159.952C53.8459 160.272 53.5313 160.581 53.2219 160.88C52.9126 161.179 52.5873 161.477 52.2459 161.776C52.0753 161.925 51.8939 161.973 51.7019 161.92C51.5099 161.867 51.3553 161.771 51.2379 161.632C51.1099 161.483 51.0406 161.317 51.0299 161.136C51.0299 160.944 51.1099 160.779 51.2699 160.64C51.6433 160.309 51.9953 159.984 52.3259 159.664C52.6566 159.344 52.9926 159.013 53.3339 158.672C53.5686 158.437 53.7659 158.208 53.9259 157.984C54.0859 157.76 54.2139 157.531 54.3099 157.296C54.4059 157.051 54.4699 156.789 54.5019 156.512C54.5446 156.235 54.5659 155.92 54.5659 155.568V154.032H51.8619C51.6593 154.032 51.5099 153.963 51.4139 153.824C51.3286 153.685 51.2859 153.525 51.2859 153.344C51.2859 153.163 51.3286 153.003 51.4139 152.864C51.5099 152.725 51.6593 152.656 51.8619 152.656H58.8219ZM61.8939 151.552C62.1073 151.552 62.2939 151.605 62.4539 151.712C62.6246 151.819 62.7099 151.989 62.7099 152.224V164.704C62.7099 164.939 62.6246 165.109 62.4539 165.216C62.2939 165.323 62.1073 165.376 61.8939 165.376C61.6913 165.376 61.5046 165.323 61.3339 165.216C61.1739 165.109 61.0939 164.939 61.0939 164.704V152.224C61.0939 151.989 61.1739 151.819 61.3339 151.712C61.5046 151.605 61.6913 151.552 61.8939 151.552ZM75.4484 152.144C75.9178 152.144 76.2378 152.229 76.4084 152.4C76.5898 152.571 76.6804 152.885 76.6804 153.344V154.288C76.6804 154.661 76.6591 155.035 76.6164 155.408C76.5844 155.781 76.5364 156.144 76.4724 156.496C76.4191 156.837 76.3498 157.157 76.2644 157.456C76.1898 157.755 76.1098 158.016 76.0244 158.24L74.5844 157.936C74.9151 156.805 75.0804 155.627 75.0804 154.4V153.856C75.0804 153.739 75.0538 153.659 75.0004 153.616C74.9578 153.563 74.8724 153.536 74.7444 153.536H67.4484C67.2564 153.536 67.1178 153.467 67.0324 153.328C66.9471 153.189 66.9044 153.029 66.9044 152.848C66.9044 152.656 66.9471 152.491 67.0324 152.352C67.1178 152.213 67.2564 152.144 67.4484 152.144H75.4484ZM78.0884 157.504C78.2804 157.504 78.4191 157.573 78.5044 157.712C78.6004 157.851 78.6484 158.011 78.6484 158.192C78.6484 158.373 78.6004 158.533 78.5044 158.672C78.4191 158.8 78.2804 158.864 78.0884 158.864H65.7684C65.5764 158.864 65.4324 158.8 65.3364 158.672C65.2511 158.533 65.2084 158.373 65.2084 158.192C65.2084 158.011 65.2511 157.851 65.3364 157.712C65.4324 157.573 65.5764 157.504 65.7684 157.504H78.0884ZM75.6084 160.768C76.0778 160.768 76.3978 160.853 76.5684 161.024C76.7498 161.195 76.8404 161.509 76.8404 161.968V165.056C76.8404 165.515 76.7498 165.829 76.5684 166C76.3978 166.171 76.0778 166.256 75.6084 166.256H68.2484C67.7791 166.256 67.4591 166.171 67.2884 166C67.1178 165.829 67.0324 165.515 67.0324 165.056V161.968C67.0324 161.509 67.1178 161.195 67.2884 161.024C67.4591 160.853 67.7791 160.768 68.2484 160.768H75.6084ZM68.9524 162.096C68.8244 162.096 68.7338 162.123 68.6804 162.176C68.6378 162.219 68.6164 162.299 68.6164 162.416V164.608C68.6164 164.725 68.6378 164.805 68.6804 164.848C68.7338 164.901 68.8244 164.928 68.9524 164.928H74.9044C75.0324 164.928 75.1178 164.901 75.1604 164.848C75.2138 164.805 75.2404 164.725 75.2404 164.608V162.416C75.2404 162.299 75.2138 162.219 75.1604 162.176C75.1178 162.123 75.0324 162.096 74.9044 162.096H68.9524ZM85.0989 152.496C85.3016 152.496 85.4829 152.549 85.6429 152.656C85.8136 152.763 85.8989 152.933 85.8989 153.168V155.92H89.6269V153.168C89.6269 152.933 89.7069 152.763 89.8669 152.656C90.0269 152.549 90.2083 152.496 90.4109 152.496C90.6136 152.496 90.7949 152.549 90.9549 152.656C91.1149 152.763 91.1949 152.933 91.1949 153.168V160.512C91.1949 160.971 91.1043 161.285 90.9229 161.456C90.7523 161.627 90.4323 161.712 89.9629 161.712H85.5469C85.0776 161.712 84.7523 161.627 84.5709 161.456C84.4003 161.285 84.3149 160.971 84.3149 160.512V153.168C84.3149 152.933 84.3949 152.763 84.5549 152.656C84.7149 152.549 84.8963 152.496 85.0989 152.496ZM85.8989 160.016C85.8989 160.144 85.9203 160.235 85.9629 160.288C86.0163 160.331 86.1069 160.352 86.2349 160.352H89.2909C89.4083 160.352 89.4936 160.331 89.5469 160.288C89.6003 160.235 89.6269 160.144 89.6269 160.016V157.28H85.8989V160.016ZM94.3469 151.552C94.5603 151.552 94.7469 151.605 94.9069 151.712C95.0669 151.819 95.1469 151.989 95.1469 152.224V156.384H96.9069C97.1203 156.384 97.2696 156.453 97.3549 156.592C97.4509 156.72 97.4989 156.88 97.4989 157.072C97.4989 157.264 97.4509 157.429 97.3549 157.568C97.2696 157.707 97.1203 157.776 96.9069 157.776H95.1469V164.704C95.1469 164.939 95.0669 165.109 94.9069 165.216C94.7469 165.323 94.5603 165.376 94.3469 165.376C94.1336 165.376 93.9469 165.323 93.7869 165.216C93.6269 165.109 93.5469 164.939 93.5469 164.704V152.224C93.5469 151.989 93.6269 151.819 93.7869 151.712C93.9469 151.605 94.1336 151.552 94.3469 151.552ZM108.653 152.384C109.123 152.384 109.443 152.469 109.613 152.64C109.795 152.811 109.885 153.125 109.885 153.584V155.712C109.885 156.16 109.795 156.469 109.613 156.64C109.443 156.811 109.123 156.896 108.653 156.896H102.109C101.885 156.896 101.773 157.008 101.773 157.232V158.432C101.773 158.645 101.885 158.752 102.109 158.752H109.677C109.869 158.752 110.008 158.821 110.093 158.96C110.189 159.099 110.237 159.259 110.237 159.44C110.237 159.621 110.189 159.781 110.093 159.92C110.008 160.048 109.869 160.112 109.677 160.112H101.437C100.968 160.112 100.643 160.027 100.461 159.856C100.291 159.685 100.205 159.371 100.205 158.912V156.784C100.205 156.325 100.291 156.016 100.461 155.856C100.643 155.685 100.968 155.6 101.437 155.6H107.981C108.205 155.6 108.317 155.488 108.317 155.264V154.08C108.317 153.856 108.205 153.744 107.981 153.744H100.733C100.541 153.744 100.397 153.68 100.301 153.552C100.216 153.413 100.173 153.253 100.173 153.072C100.173 152.891 100.216 152.731 100.301 152.592C100.397 152.453 100.541 152.384 100.733 152.384H108.653ZM105.853 162.624H111.213C111.405 162.624 111.544 162.693 111.629 162.832C111.725 162.96 111.773 163.115 111.773 163.296C111.773 163.477 111.725 163.637 111.629 163.776C111.544 163.915 111.405 163.984 111.213 163.984H98.8934C98.7014 163.984 98.5574 163.915 98.4614 163.776C98.3761 163.637 98.3334 163.477 98.3334 163.296C98.3334 163.115 98.3761 162.96 98.4614 162.832C98.5574 162.693 98.7014 162.624 98.8934 162.624H104.253V159.424H105.853V162.624ZM121.52 151.392C121.733 151.392 121.92 151.445 122.08 151.552C122.24 151.659 122.32 151.829 122.32 152.064V153.248H124.976C125.168 153.248 125.307 153.317 125.392 153.456C125.488 153.595 125.536 153.755 125.536 153.936C125.536 154.117 125.488 154.277 125.392 154.416C125.307 154.544 125.168 154.608 124.976 154.608H122.32V155.392C122.32 155.872 122.395 156.267 122.544 156.576C122.704 156.885 122.965 157.173 123.328 157.44C123.701 157.717 124.048 157.968 124.368 158.192C124.688 158.405 124.971 158.592 125.216 158.752C125.397 158.869 125.499 159.024 125.52 159.216C125.552 159.408 125.509 159.579 125.392 159.728C125.307 159.867 125.173 159.968 124.992 160.032C124.821 160.096 124.629 160.064 124.416 159.936C124.235 159.819 123.995 159.664 123.696 159.472C123.408 159.269 123.099 159.045 122.768 158.8C122.352 158.501 122.053 158.251 121.872 158.048C121.691 157.845 121.584 157.664 121.552 157.504H121.536C121.493 157.685 121.376 157.883 121.184 158.096C121.003 158.309 120.699 158.571 120.272 158.88C119.931 159.125 119.6 159.36 119.28 159.584C118.96 159.797 118.645 160.005 118.336 160.208C118.155 160.325 117.973 160.352 117.792 160.288C117.611 160.213 117.477 160.107 117.392 159.968C117.285 159.808 117.237 159.637 117.248 159.456C117.259 159.264 117.36 159.104 117.552 158.976C117.904 158.741 118.256 158.507 118.608 158.272C118.96 158.027 119.328 157.765 119.712 157.488C120.075 157.211 120.331 156.923 120.48 156.624C120.64 156.315 120.72 155.92 120.72 155.44V154.608H117.952C117.749 154.608 117.6 154.544 117.504 154.416C117.419 154.277 117.376 154.117 117.376 153.936C117.376 153.755 117.419 153.595 117.504 153.456C117.6 153.317 117.749 153.248 117.952 153.248H120.72V152.064C120.72 151.829 120.8 151.659 120.96 151.552C121.131 151.445 121.317 151.392 121.52 151.392ZM128.272 151.552C128.475 151.552 128.656 151.605 128.816 151.712C128.976 151.819 129.056 151.989 129.056 152.224V160.608C129.056 160.843 128.976 161.013 128.816 161.12C128.656 161.227 128.475 161.28 128.272 161.28C128.059 161.28 127.872 161.227 127.712 161.12C127.552 161.013 127.472 160.843 127.472 160.608V157.168H125.216C125.024 157.168 124.88 157.099 124.784 156.96C124.699 156.821 124.656 156.661 124.656 156.48C124.656 156.299 124.699 156.139 124.784 156C124.88 155.861 125.024 155.792 125.216 155.792H127.472V152.224C127.472 151.989 127.552 151.819 127.712 151.712C127.872 151.605 128.059 151.552 128.272 151.552ZM124.352 160.512C124.565 160.512 124.752 160.565 124.912 160.672C125.072 160.779 125.152 160.944 125.152 161.168V161.472C125.152 161.984 125.259 162.389 125.472 162.688C125.685 162.987 126.037 163.269 126.528 163.536C126.997 163.781 127.456 164.011 127.904 164.224C128.363 164.437 128.837 164.651 129.328 164.864C129.509 164.949 129.616 165.077 129.648 165.248C129.68 165.429 129.659 165.595 129.584 165.744C129.499 165.925 129.371 166.053 129.2 166.128C129.04 166.213 128.864 166.213 128.672 166.128C128.213 165.936 127.781 165.739 127.376 165.536C126.981 165.344 126.581 165.141 126.176 164.928C125.867 164.768 125.6 164.619 125.376 164.48C125.163 164.341 124.987 164.208 124.848 164.08C124.709 163.963 124.603 163.851 124.528 163.744C124.453 163.637 124.4 163.531 124.368 163.424H124.352C124.299 163.637 124.133 163.861 123.856 164.096C123.589 164.341 123.147 164.629 122.528 164.96C122.123 165.173 121.717 165.376 121.312 165.568C120.917 165.771 120.491 165.968 120.032 166.16C119.84 166.245 119.659 166.245 119.488 166.16C119.328 166.085 119.205 165.957 119.12 165.776C119.045 165.605 119.024 165.429 119.056 165.248C119.088 165.077 119.189 164.949 119.36 164.864C119.861 164.651 120.336 164.437 120.784 164.224C121.243 164.011 121.701 163.781 122.16 163.536C122.651 163.269 123.003 162.987 123.216 162.688C123.44 162.389 123.552 161.984 123.552 161.472V161.168C123.552 160.944 123.632 160.779 123.792 160.672C123.952 160.565 124.139 160.512 124.352 160.512ZM137.01 152.336C137.213 152.336 137.394 152.389 137.554 152.496C137.725 152.603 137.81 152.773 137.81 153.008V154.944H141.426V153.008C141.426 152.773 141.506 152.603 141.666 152.496C141.826 152.389 142.008 152.336 142.21 152.336C142.413 152.336 142.594 152.389 142.754 152.496C142.925 152.603 143.01 152.773 143.01 153.008V158.512C143.01 158.971 142.92 159.285 142.738 159.456C142.568 159.627 142.248 159.712 141.778 159.712H137.458C136.989 159.712 136.664 159.627 136.482 159.456C136.312 159.285 136.226 158.971 136.226 158.512V153.008C136.226 152.773 136.306 152.603 136.466 152.496C136.626 152.389 136.808 152.336 137.01 152.336ZM137.81 158.048C137.81 158.165 137.832 158.251 137.874 158.304C137.928 158.357 138.018 158.384 138.146 158.384H141.09C141.314 158.384 141.426 158.272 141.426 158.048V156.272H137.81V158.048ZM146.834 151.552C147.037 151.552 147.218 151.605 147.378 151.712C147.538 151.819 147.618 151.989 147.618 152.224V161.696C147.618 161.931 147.538 162.101 147.378 162.208C147.218 162.315 147.037 162.368 146.834 162.368C146.621 162.368 146.434 162.315 146.274 162.208C146.114 162.101 146.034 161.931 146.034 161.696V156.72H142.274V155.36H146.034V152.224C146.034 151.989 146.114 151.819 146.274 151.712C146.434 151.605 146.621 151.552 146.834 151.552ZM139.026 161.12C139.229 161.12 139.41 161.173 139.57 161.28C139.741 161.387 139.826 161.557 139.826 161.792V164.4C139.826 164.517 139.848 164.597 139.89 164.64C139.944 164.693 140.034 164.72 140.162 164.72H147.426C147.629 164.72 147.773 164.789 147.858 164.928C147.954 165.067 148.002 165.232 148.002 165.424C148.002 165.605 147.954 165.765 147.858 165.904C147.773 166.043 147.629 166.112 147.426 166.112H139.442C138.973 166.112 138.648 166.027 138.466 165.856C138.296 165.685 138.21 165.371 138.21 164.912V161.792C138.21 161.557 138.29 161.387 138.45 161.28C138.621 161.173 138.813 161.12 139.026 161.12ZM157.445 152.832C157.637 152.832 157.776 152.901 157.861 153.04C157.957 153.179 158.005 153.339 158.005 153.52C158.005 153.701 157.957 153.861 157.861 154C157.776 154.128 157.637 154.192 157.445 154.192H156.469V155.68C156.469 156.011 156.474 156.304 156.485 156.56C156.496 156.805 156.517 157.04 156.549 157.264C156.592 157.477 156.645 157.685 156.709 157.888C156.784 158.091 156.88 158.309 156.997 158.544C157.168 158.864 157.344 159.184 157.525 159.504C157.706 159.824 157.882 160.123 158.053 160.4C158.16 160.571 158.192 160.741 158.149 160.912C158.106 161.083 158.01 161.216 157.861 161.312C157.722 161.397 157.568 161.44 157.397 161.44C157.226 161.429 157.082 161.333 156.965 161.152C156.816 160.928 156.682 160.709 156.565 160.496C156.448 160.272 156.314 160.032 156.165 159.776C156.026 159.531 155.925 159.328 155.861 159.168C155.808 158.997 155.77 158.832 155.749 158.672H155.733C155.712 158.843 155.669 159.013 155.605 159.184C155.541 159.355 155.44 159.573 155.301 159.84C155.184 160.053 155.061 160.277 154.933 160.512C154.816 160.736 154.682 160.965 154.533 161.2C154.384 161.424 154.213 161.536 154.021 161.536C153.829 161.536 153.658 161.424 153.509 161.2C153.221 160.731 152.97 160.277 152.757 159.84C152.618 159.573 152.512 159.355 152.437 159.184C152.373 159.013 152.33 158.843 152.309 158.672H152.293C152.272 158.843 152.229 159.013 152.165 159.184C152.112 159.344 152.016 159.547 151.877 159.792C151.728 160.048 151.589 160.293 151.461 160.528C151.333 160.752 151.184 160.987 151.013 161.232C150.896 161.413 150.752 161.509 150.581 161.52C150.41 161.52 150.256 161.477 150.117 161.392C149.968 161.296 149.872 161.163 149.829 160.992C149.786 160.821 149.818 160.651 149.925 160.48C150.106 160.181 150.293 159.867 150.485 159.536C150.688 159.195 150.874 158.864 151.045 158.544C151.162 158.299 151.253 158.075 151.317 157.872C151.392 157.669 151.445 157.461 151.477 157.248C151.52 157.024 151.546 156.789 151.557 156.544C151.568 156.299 151.573 156.011 151.573 155.68V154.192H150.629C150.426 154.192 150.277 154.128 150.181 154C150.096 153.861 150.053 153.701 150.053 153.52C150.053 153.339 150.096 153.179 150.181 153.04C150.277 152.901 150.426 152.832 150.629 152.832H157.445ZM153.013 155.68C153.013 156.288 153.034 156.773 153.077 157.136C153.12 157.488 153.2 157.813 153.317 158.112C153.402 158.325 153.482 158.528 153.557 158.72C153.642 158.901 153.738 159.088 153.845 159.28C153.92 159.429 153.978 159.504 154.021 159.504C154.064 159.504 154.128 159.429 154.213 159.28C154.309 159.088 154.4 158.901 154.485 158.72C154.57 158.528 154.656 158.325 154.741 158.112C154.848 157.813 154.922 157.488 154.965 157.136C155.008 156.773 155.029 156.288 155.029 155.68V154.192H153.013V155.68ZM162.069 151.552C162.261 151.552 162.426 151.6 162.565 151.696C162.714 151.792 162.789 151.947 162.789 152.16V164.768C162.789 164.981 162.714 165.136 162.565 165.232C162.426 165.328 162.261 165.376 162.069 165.376C161.888 165.376 161.722 165.328 161.573 165.232C161.434 165.136 161.365 164.981 161.365 164.768V157.824H159.957V164.096C159.957 164.309 159.882 164.464 159.733 164.56C159.594 164.656 159.434 164.704 159.253 164.704C159.061 164.704 158.89 164.656 158.741 164.56C158.602 164.464 158.533 164.309 158.533 164.096V152.32C158.533 152.107 158.602 151.952 158.741 151.856C158.89 151.76 159.061 151.712 159.253 151.712C159.434 151.712 159.594 151.76 159.733 151.856C159.882 151.952 159.957 152.107 159.957 152.32V156.464H161.365V152.16C161.365 151.947 161.434 151.792 161.573 151.696C161.722 151.6 161.888 151.552 162.069 151.552ZM172.887 152.368C174.135 152.368 175.074 152.779 175.703 153.6C176.333 154.411 176.647 155.595 176.647 157.152C176.647 158.709 176.333 159.899 175.703 160.72C175.074 161.531 174.135 161.936 172.887 161.936C171.639 161.936 170.701 161.531 170.071 160.72C169.453 159.899 169.143 158.709 169.143 157.152C169.143 155.595 169.453 154.411 170.071 153.6C170.701 152.779 171.639 152.368 172.887 152.368ZM172.887 153.776C172.098 153.776 171.533 154.064 171.191 154.64C170.861 155.216 170.695 156.053 170.695 157.152C170.695 158.251 170.861 159.088 171.191 159.664C171.533 160.24 172.098 160.528 172.887 160.528C173.687 160.528 174.253 160.24 174.583 159.664C174.925 159.088 175.095 158.251 175.095 157.152C175.095 156.053 174.925 155.216 174.583 154.64C174.253 154.064 173.687 153.776 172.887 153.776ZM179.831 151.552C180.045 151.552 180.231 151.605 180.391 151.712C180.562 151.819 180.647 151.989 180.647 152.224V164.704C180.647 164.939 180.562 165.109 180.391 165.216C180.231 165.323 180.045 165.376 179.831 165.376C179.629 165.376 179.442 165.323 179.271 165.216C179.111 165.109 179.031 164.939 179.031 164.704V152.224C179.031 151.989 179.111 151.819 179.271 151.712C179.442 151.605 179.629 151.552 179.831 151.552ZM187.114 152.384C188.351 152.384 189.285 152.789 189.914 153.6C190.543 154.411 190.858 155.595 190.858 157.152C190.858 158.709 190.543 159.893 189.914 160.704C189.285 161.515 188.351 161.92 187.114 161.92C185.877 161.92 184.943 161.515 184.314 160.704C183.695 159.893 183.386 158.709 183.386 157.152C183.386 155.595 183.695 154.411 184.314 153.6C184.943 152.789 185.877 152.384 187.114 152.384ZM187.114 153.792C186.335 153.792 185.775 154.08 185.434 154.656C185.103 155.221 184.938 156.053 184.938 157.152C184.938 158.251 185.103 159.088 185.434 159.664C185.775 160.229 186.335 160.512 187.114 160.512C187.903 160.512 188.463 160.229 188.794 159.664C189.135 159.088 189.306 158.251 189.306 157.152C189.306 156.053 189.135 155.221 188.794 154.656C188.463 154.08 187.903 153.792 187.114 153.792ZM193.722 151.552C193.935 151.552 194.122 151.605 194.282 151.712C194.442 151.819 194.522 151.989 194.522 152.224V154.56H196.17C196.362 154.56 196.501 154.629 196.586 154.768C196.682 154.896 196.73 155.056 196.73 155.248C196.73 155.44 196.682 155.605 196.586 155.744C196.501 155.872 196.362 155.936 196.17 155.936H194.522V158.208H196.17C196.362 158.208 196.501 158.277 196.586 158.416C196.682 158.544 196.73 158.704 196.73 158.896C196.73 159.088 196.682 159.253 196.586 159.392C196.501 159.52 196.362 159.584 196.17 159.584H194.522V164.704C194.522 164.939 194.442 165.109 194.282 165.216C194.122 165.323 193.935 165.376 193.722 165.376C193.509 165.376 193.322 165.323 193.162 165.216C193.002 165.109 192.922 164.939 192.922 164.704V152.224C192.922 151.989 193.002 151.819 193.162 151.712C193.322 151.605 193.509 151.552 193.722 151.552ZM203.996 152.64C204.466 152.64 204.786 152.725 204.956 152.896C205.138 153.067 205.228 153.381 205.228 153.84V155.648C205.228 156.096 205.202 156.501 205.148 156.864C205.095 157.216 204.994 157.552 204.844 157.872C204.695 158.192 204.487 158.507 204.22 158.816C203.954 159.115 203.607 159.435 203.18 159.776C202.764 160.107 202.258 160.469 201.66 160.864C201.063 161.259 200.354 161.707 199.532 162.208C199.351 162.315 199.17 162.336 198.988 162.272C198.807 162.197 198.663 162.085 198.556 161.936C198.45 161.787 198.396 161.611 198.396 161.408C198.407 161.205 198.503 161.045 198.684 160.928C199.442 160.469 200.087 160.069 200.62 159.728C201.164 159.376 201.618 159.061 201.98 158.784C202.343 158.496 202.631 158.235 202.844 158C203.068 157.755 203.239 157.515 203.356 157.28C203.474 157.035 203.548 156.779 203.58 156.512C203.612 156.235 203.628 155.925 203.628 155.584V154.352C203.628 154.235 203.602 154.155 203.548 154.112C203.506 154.059 203.42 154.032 203.292 154.032H199.132C198.93 154.032 198.78 153.963 198.684 153.824C198.599 153.685 198.556 153.525 198.556 153.344C198.556 153.152 198.599 152.987 198.684 152.848C198.78 152.709 198.93 152.64 199.132 152.64H203.996ZM208.956 151.552C209.17 151.552 209.356 151.605 209.516 151.712C209.687 151.819 209.772 151.989 209.772 152.224V164.704C209.772 164.939 209.687 165.109 209.516 165.216C209.356 165.323 209.17 165.376 208.956 165.376C208.754 165.376 208.567 165.323 208.396 165.216C208.236 165.109 208.156 164.939 208.156 164.704V152.224C208.156 151.989 208.236 151.819 208.396 151.712C208.567 151.605 208.754 151.552 208.956 151.552ZM222.559 151.824C223.028 151.824 223.348 151.909 223.519 152.08C223.7 152.251 223.791 152.565 223.791 153.024V154.048C223.791 154.496 223.7 154.805 223.519 154.976C223.348 155.147 223.028 155.232 222.559 155.232H215.967C215.796 155.232 215.711 155.317 215.711 155.488V156.016C215.711 156.176 215.796 156.256 215.967 156.256H223.631C223.812 156.256 223.94 156.32 224.015 156.448C224.1 156.565 224.143 156.704 224.143 156.864C224.143 157.024 224.1 157.168 224.015 157.296C223.94 157.413 223.812 157.472 223.631 157.472H215.407C214.938 157.472 214.612 157.392 214.431 157.232C214.26 157.061 214.175 156.747 214.175 156.288V155.264C214.175 154.805 214.26 154.491 214.431 154.32C214.612 154.149 214.938 154.064 215.407 154.064H221.999C222.17 154.064 222.255 153.979 222.255 153.808V153.296C222.255 153.136 222.17 153.056 221.999 153.056H214.655C214.474 153.056 214.34 152.997 214.255 152.88C214.18 152.752 214.143 152.608 214.143 152.448C214.143 152.288 214.18 152.144 214.255 152.016C214.34 151.888 214.474 151.824 214.655 151.824H222.559ZM225.167 158.464C225.348 158.464 225.482 158.528 225.567 158.656C225.663 158.773 225.711 158.923 225.711 159.104C225.711 159.285 225.663 159.435 225.567 159.552C225.482 159.669 225.348 159.728 225.167 159.728H212.815C212.634 159.728 212.495 159.669 212.399 159.552C212.314 159.435 212.271 159.285 212.271 159.104C212.271 158.923 212.314 158.773 212.399 158.656C212.495 158.528 212.634 158.464 212.815 158.464H225.167ZM222.655 160.72C223.124 160.72 223.444 160.805 223.615 160.976C223.796 161.147 223.887 161.461 223.887 161.92V162.928C223.887 163.387 223.796 163.701 223.615 163.872C223.444 164.043 223.124 164.128 222.655 164.128H215.871C215.7 164.128 215.615 164.208 215.615 164.368V164.896C215.615 165.056 215.7 165.136 215.871 165.136H223.711C223.892 165.136 224.026 165.2 224.111 165.328C224.196 165.456 224.239 165.595 224.239 165.744C224.239 165.915 224.196 166.059 224.111 166.176C224.026 166.304 223.892 166.368 223.711 166.368H215.311C214.842 166.368 214.516 166.283 214.335 166.112C214.164 165.941 214.079 165.627 214.079 165.168V164.144C214.079 163.685 214.164 163.371 214.335 163.2C214.516 163.029 214.842 162.944 215.311 162.944H222.095C222.255 162.944 222.335 162.864 222.335 162.704V162.192C222.335 162.021 222.255 161.936 222.095 161.936H214.559C214.378 161.936 214.244 161.877 214.159 161.76C214.084 161.632 214.047 161.488 214.047 161.328C214.047 161.168 214.084 161.029 214.159 160.912C214.244 160.784 214.378 160.72 214.559 160.72H222.655ZM236.993 152.464C237.463 152.464 237.783 152.549 237.953 152.72C238.135 152.891 238.225 153.205 238.225 153.664V158.304C238.225 158.763 238.135 159.077 237.953 159.248C237.783 159.419 237.463 159.504 236.993 159.504H232.593C232.124 159.504 231.799 159.419 231.617 159.248C231.447 159.077 231.361 158.763 231.361 158.304V153.664C231.361 153.205 231.447 152.891 231.617 152.72C231.799 152.549 232.124 152.464 232.593 152.464H236.993ZM233.281 153.824C233.153 153.824 233.063 153.851 233.009 153.904C232.967 153.947 232.945 154.032 232.945 154.16V157.824C232.945 157.941 232.967 158.027 233.009 158.08C233.063 158.133 233.153 158.16 233.281 158.16H236.305C236.529 158.16 236.641 158.048 236.641 157.824V154.16C236.641 154.032 236.615 153.947 236.561 153.904C236.508 153.851 236.423 153.824 236.305 153.824H233.281ZM241.409 151.552C241.623 151.552 241.809 151.605 241.969 151.712C242.129 151.819 242.209 151.989 242.209 152.224V155.648H243.969C244.183 155.648 244.332 155.717 244.417 155.856C244.513 155.995 244.561 156.155 244.561 156.336C244.561 156.539 244.513 156.709 244.417 156.848C244.332 156.976 244.183 157.04 243.969 157.04H242.209V161.696C242.209 161.931 242.129 162.101 241.969 162.208C241.809 162.315 241.623 162.368 241.409 162.368C241.196 162.368 241.009 162.315 240.849 162.208C240.689 162.101 240.609 161.931 240.609 161.696V152.224C240.609 151.989 240.689 151.819 240.849 151.712C241.009 151.605 241.196 151.552 241.409 151.552ZM233.841 161.024C234.044 161.024 234.225 161.077 234.385 161.184C234.556 161.291 234.641 161.461 234.641 161.696V164.4C234.641 164.517 234.663 164.597 234.705 164.64C234.759 164.693 234.849 164.72 234.977 164.72H242.017C242.22 164.72 242.364 164.789 242.449 164.928C242.545 165.067 242.593 165.232 242.593 165.424C242.593 165.605 242.545 165.765 242.449 165.904C242.364 166.043 242.22 166.112 242.017 166.112H234.257C233.788 166.112 233.463 166.027 233.281 165.856C233.111 165.685 233.025 165.371 233.025 164.912V161.696C233.025 161.461 233.105 161.291 233.265 161.184C233.436 161.077 233.628 161.024 233.841 161.024ZM256.404 151.888C256.585 151.888 256.719 151.952 256.804 152.08C256.889 152.208 256.932 152.363 256.932 152.544C256.932 152.725 256.889 152.88 256.804 153.008C256.719 153.136 256.585 153.2 256.404 153.2H249.188C249.071 153.2 248.985 153.227 248.932 153.28C248.879 153.323 248.852 153.408 248.852 153.536V154.992C248.852 155.12 248.879 155.211 248.932 155.264C248.985 155.307 249.071 155.328 249.188 155.328H256.564C256.745 155.328 256.879 155.392 256.964 155.52C257.049 155.637 257.092 155.787 257.092 155.968C257.092 156.149 257.049 156.309 256.964 156.448C256.879 156.576 256.745 156.64 256.564 156.64H248.468C247.999 156.64 247.679 156.555 247.508 156.384C247.337 156.213 247.252 155.899 247.252 155.44V153.088C247.252 152.629 247.337 152.315 247.508 152.144C247.679 151.973 247.999 151.888 248.468 151.888H256.404ZM258.292 157.856C258.473 157.856 258.607 157.92 258.692 158.048C258.788 158.165 258.836 158.315 258.836 158.496C258.836 158.688 258.788 158.848 258.692 158.976C258.607 159.104 258.473 159.168 258.292 159.168H245.94C245.759 159.168 245.62 159.104 245.524 158.976C245.439 158.848 245.396 158.688 245.396 158.496C245.396 158.315 245.439 158.165 245.524 158.048C245.62 157.92 245.759 157.856 245.94 157.856H258.292ZM255.78 160.4C256.249 160.4 256.569 160.485 256.74 160.656C256.921 160.827 257.012 161.141 257.012 161.6V162.784C257.012 163.243 256.921 163.557 256.74 163.728C256.569 163.899 256.249 163.984 255.78 163.984H249.012C248.841 163.984 248.756 164.064 248.756 164.224V164.88C248.756 165.04 248.841 165.12 249.012 165.12H256.836C257.017 165.12 257.151 165.184 257.236 165.312C257.321 165.44 257.364 165.584 257.364 165.744C257.364 165.915 257.321 166.059 257.236 166.176C257.151 166.304 257.017 166.368 256.836 166.368H248.436C247.967 166.368 247.641 166.283 247.46 166.112C247.289 165.941 247.204 165.627 247.204 165.168V163.984C247.204 163.525 247.289 163.211 247.46 163.04C247.641 162.869 247.967 162.784 248.436 162.784H255.204C255.375 162.784 255.46 162.704 255.46 162.544V161.904C255.46 161.733 255.375 161.648 255.204 161.648H247.684C247.503 161.648 247.369 161.589 247.284 161.472C247.209 161.344 247.172 161.195 247.172 161.024C247.172 160.864 247.209 160.72 247.284 160.592C247.369 160.464 247.503 160.4 247.684 160.4H255.78ZM264.118 152.384C265.345 152.384 266.268 152.789 266.886 153.6C267.516 154.411 267.83 155.595 267.83 157.152C267.83 158.709 267.516 159.893 266.886 160.704C266.268 161.515 265.345 161.92 264.118 161.92C262.892 161.92 261.969 161.515 261.35 160.704C260.732 159.893 260.422 158.709 260.422 157.152C260.422 155.595 260.732 154.411 261.35 153.6C261.969 152.789 262.892 152.384 264.118 152.384ZM264.118 153.792C263.35 153.792 262.801 154.08 262.47 154.656C262.14 155.221 261.974 156.053 261.974 157.152C261.974 158.251 262.14 159.088 262.47 159.664C262.801 160.229 263.35 160.512 264.118 160.512C264.897 160.512 265.452 160.229 265.782 159.664C266.113 159.088 266.278 158.251 266.278 157.152C266.278 156.053 266.113 155.221 265.782 154.656C265.452 154.08 264.897 153.792 264.118 153.792ZM271.318 151.552C271.532 151.552 271.718 151.605 271.878 151.712C272.038 151.819 272.118 151.989 272.118 152.224V164.704C272.118 164.939 272.038 165.109 271.878 165.216C271.718 165.323 271.532 165.376 271.318 165.376C271.116 165.376 270.934 165.323 270.774 165.216C270.614 165.109 270.534 164.939 270.534 164.704V157.824H266.806V156.464H270.534V152.224C270.534 151.989 270.614 151.819 270.774 151.712C270.934 151.605 271.116 151.552 271.318 151.552ZM276.169 152.384C276.372 152.384 276.553 152.437 276.713 152.544C276.873 152.651 276.953 152.816 276.953 153.04V154.64H281.145V153.04C281.145 152.816 281.225 152.651 281.385 152.544C281.556 152.437 281.737 152.384 281.929 152.384C282.132 152.384 282.313 152.437 282.473 152.544C282.633 152.651 282.713 152.816 282.713 153.04V157.888C282.713 158.347 282.622 158.661 282.441 158.832C282.27 159.003 281.95 159.088 281.481 159.088H276.617C276.148 159.088 275.822 159.003 275.641 158.832C275.47 158.661 275.385 158.347 275.385 157.888V153.04C275.385 152.816 275.465 152.651 275.625 152.544C275.785 152.437 275.966 152.384 276.169 152.384ZM276.953 157.488C276.953 157.68 277.049 157.776 277.241 157.776H280.857C281.049 157.776 281.145 157.68 281.145 157.488V155.936H276.953V157.488ZM285.369 151.552C285.582 151.552 285.769 151.605 285.929 151.712C286.089 151.819 286.169 151.984 286.169 152.208V156.864H287.721C287.934 156.864 288.084 156.933 288.169 157.072C288.265 157.2 288.313 157.36 288.313 157.552C288.313 157.744 288.265 157.909 288.169 158.048C288.084 158.187 287.934 158.256 287.721 158.256H286.169V164.72C286.169 164.944 286.089 165.109 285.929 165.216C285.769 165.323 285.582 165.376 285.369 165.376C285.166 165.376 284.985 165.323 284.825 165.216C284.665 165.109 284.585 164.944 284.585 164.72V152.208C284.585 151.984 284.665 151.819 284.825 151.712C284.985 151.605 285.166 151.552 285.369 151.552ZM283.161 161.296C283.342 161.275 283.481 161.323 283.577 161.44C283.673 161.557 283.732 161.712 283.753 161.904C283.774 162.085 283.742 162.245 283.657 162.384C283.582 162.523 283.454 162.603 283.273 162.624C282.046 162.741 280.74 162.821 279.353 162.864C277.966 162.907 276.532 162.928 275.049 162.928C274.857 162.928 274.713 162.859 274.617 162.72C274.532 162.581 274.489 162.421 274.489 162.24C274.489 162.059 274.532 161.904 274.617 161.776C274.713 161.637 274.857 161.568 275.049 161.568C275.582 161.568 276.116 161.568 276.649 161.568C277.193 161.568 277.737 161.563 278.281 161.552V158.24H279.849V161.504C280.393 161.483 280.937 161.456 281.481 161.424C282.036 161.392 282.596 161.349 283.161 161.296ZM295.803 152.112C296.571 152.112 297.259 152.197 297.867 152.368C298.486 152.539 299.003 152.789 299.419 153.12C299.846 153.44 300.171 153.84 300.395 154.32C300.619 154.789 300.731 155.323 300.731 155.92C300.731 157.125 300.294 158.064 299.419 158.736C298.555 159.397 297.35 159.728 295.803 159.728C294.257 159.728 293.051 159.397 292.187 158.736C291.323 158.064 290.891 157.125 290.891 155.92C290.891 155.323 291.003 154.789 291.227 154.32C291.451 153.84 291.771 153.44 292.187 153.12C292.614 152.789 293.131 152.539 293.739 152.368C294.347 152.197 295.035 152.112 295.803 152.112ZM295.803 153.472C295.227 153.472 294.731 153.536 294.315 153.664C293.899 153.781 293.553 153.952 293.275 154.176C293.009 154.389 292.811 154.645 292.683 154.944C292.555 155.243 292.491 155.568 292.491 155.92C292.491 156.272 292.555 156.597 292.683 156.896C292.811 157.195 293.009 157.456 293.275 157.68C293.553 157.893 293.899 158.064 294.315 158.192C294.731 158.309 295.227 158.368 295.803 158.368C296.379 158.368 296.875 158.309 297.291 158.192C297.707 158.064 298.049 157.893 298.315 157.68C298.593 157.456 298.795 157.195 298.923 156.896C299.051 156.597 299.115 156.272 299.115 155.92C299.115 155.568 299.051 155.243 298.923 154.944C298.795 154.645 298.593 154.389 298.315 154.176C298.049 153.952 297.707 153.781 297.291 153.664C296.875 153.536 296.379 153.472 295.803 153.472ZM293.339 160.048C293.553 160.048 293.739 160.101 293.899 160.208C294.059 160.315 294.139 160.48 294.139 160.704V162.64H297.467V160.704C297.467 160.48 297.547 160.315 297.707 160.208C297.867 160.101 298.054 160.048 298.267 160.048C298.481 160.048 298.667 160.101 298.827 160.208C298.987 160.315 299.067 160.48 299.067 160.704V162.64H301.963C302.155 162.64 302.294 162.704 302.379 162.832C302.475 162.96 302.523 163.115 302.523 163.296C302.523 163.477 302.475 163.637 302.379 163.776C302.294 163.915 302.155 163.984 301.963 163.984H289.643C289.451 163.984 289.307 163.915 289.211 163.776C289.126 163.637 289.083 163.477 289.083 163.296C289.083 163.115 289.126 162.96 289.211 162.832C289.307 162.704 289.451 162.64 289.643 162.64H292.539V160.704C292.539 160.48 292.619 160.315 292.779 160.208C292.939 160.101 293.126 160.048 293.339 160.048ZM305.502 152.16C305.769 152.16 305.982 152.219 306.142 152.336C306.313 152.453 306.393 152.651 306.382 152.928L306.19 160.48C306.179 160.736 306.105 160.917 305.966 161.024C305.838 161.12 305.683 161.168 305.502 161.168C305.321 161.168 305.161 161.12 305.022 161.024C304.894 160.917 304.83 160.736 304.83 160.48L304.622 152.928C304.622 152.651 304.702 152.453 304.862 152.336C305.022 152.219 305.235 152.16 305.502 152.16ZM305.502 162.48C305.801 162.48 306.051 162.581 306.254 162.784C306.457 162.976 306.558 163.221 306.558 163.52C306.558 163.819 306.457 164.069 306.254 164.272C306.051 164.475 305.801 164.576 305.502 164.576C305.203 164.576 304.953 164.475 304.75 164.272C304.547 164.069 304.446 163.819 304.446 163.52C304.446 163.221 304.547 162.976 304.75 162.784C304.953 162.581 305.203 162.48 305.502 162.48Z" fill="#BBBBBB"/>
</svg>
