<svg width="358" height="202" viewBox="0 0 358 202" fill="none" xmlns="http://www.w3.org/2000/svg">
<rect width="358" height="202" fill="white"/>
<path d="M186.344 91.9453C183.542 91.7126 181.047 93.544 180.771 96.0352C180.646 97.1723 181.006 98.2492 181.699 99.1074C181.69 99.1933 181.684 99.2798 181.684 99.3672C181.684 101.373 184.12 102.999 187.126 102.999C190.132 102.999 192.568 101.373 192.568 99.3672C192.568 98.3489 191.94 97.428 190.929 96.7686C191.133 94.3223 189.105 92.1747 186.344 91.9453Z" fill="#DEDEDE"/>
<path d="M200.41 51.5811H200.162C205.862 56.0606 209.41 62.3605 209.41 69.3389C209.41 82.9339 195.944 93.9551 179.333 93.9551C162.722 93.955 149.256 82.9339 149.256 69.3389C149.256 62.3604 152.805 56.0606 158.505 51.5811H156.65L178.53 31L200.41 51.5811Z" fill="#F1F1F1"/>
<path d="M164.97 95.4209C165.232 93.5965 167.933 92.4798 171.002 92.9268C174.071 93.3737 176.345 95.2156 176.083 97.04C176.02 97.4778 175.815 97.8734 175.5 98.2178C175.645 98.5302 175.725 98.8589 175.725 99.1992C175.725 101.205 173.031 102.831 169.709 102.831C166.387 102.831 163.693 101.205 163.693 99.1992C163.694 98.269 164.273 97.4208 165.226 96.7783C164.998 96.3398 164.904 95.8797 164.97 95.4209Z" fill="#DEDEDE"/>
<ellipse cx="178.53" cy="74.5838" rx="4.41134" ry="3.22836" fill="#DEDEDE"/>
<path d="M167.634 40.3646C165.017 43.2662 162.4 46.1678 159.824 49.0328C157.248 51.8977 154.792 54.6381 153.34 56.426C151.887 58.2139 151.514 58.9661 151.134 59.9447C150.755 60.9233 150.381 62.1054 150.162 64.1652C149.942 66.225 149.889 69.1266 149.968 70.9706C150.078 73.5278 150.588 74.8777 150.857 76.204C150.996 76.8905 151.232 77.5839 151.929 78.9916C152.627 80.3992 153.802 82.4948 155.635 84.5953C157.468 86.6958 159.925 88.7377 161.484 89.9776C163.043 91.2176 163.63 91.5937 164.734 92.0293C165.837 92.4648 167.439 92.9484 171.015 93.3588C174.59 93.7691 180.09 94.0915 183.217 94.2038C186.344 94.3162 186.931 94.2087 187.821 93.9116C188.711 93.6144 189.886 93.1308 191.105 92.5593C192.325 91.9877 193.553 91.3429 194.96 90.4466C196.367 89.5502 197.915 88.4218 199.487 87.1688C201.059 85.9159 202.608 84.5725 203.753 83.4238C205.703 81.4673 206.467 80.0443 206.897 79.1788C207.456 78.0522 207.979 77.1134 208.14 76.3285C208.317 75.4659 208.733 73.9187 209.002 71.4567C209.311 68.631 209.113 66.1013 208.871 64.3403C208.545 61.9639 207.605 60.5097 206.232 58.0404C205.424 56.5872 204.53 55.9994 203.721 55.077C202.988 54.2404 202.265 53.557 201.108 52.0956C199.309 49.8227 198.381 49.001 197.626 48.1828C197.079 47.5905 196.546 47.0438 195.471 46.0416C193.551 44.2522 192.773 43.2988 192.07 42.6735C191.282 41.9726 190.291 41.2341 189.052 40.1521C188.087 39.3094 187.378 38.847 186.436 38.0622C184.097 36.1124 182.847 35.102 182.173 34.5321C181.365 33.8497 180.42 33.3109 179.664 32.579C179.095 32.0276 178.8 31.6272 178.477 31.4375C177.428 30.8208 175.834 33.4151 174.919 34.2821C173.773 35.3684 172.491 36.346 171.977 36.7807C171.399 37.2705 170.711 37.6486 170.063 38.2185C169.74 38.4628 169.308 38.8422 168.85 39.303C168.659 39.4951 168.553 39.6026 168.443 39.7133" stroke="#BBBBBB" stroke-width="1.6087" stroke-linecap="round"/>
<path d="M166.632 61.1417C166.581 61.1417 166.428 61.1929 166.222 61.3217C166.047 61.4316 166.093 61.7094 166.143 61.9157C166.171 62.0282 166.296 62.122 166.501 62.1748C166.706 62.2275 167.011 62.2275 167.194 62.2019C167.377 62.1763 167.427 62.1251 167.466 62.0348C167.556 61.8258 167.557 61.5822 167.519 61.3887C167.479 61.189 167.275 61.0905 167.16 61.0002C167.038 60.9045 166.839 60.9091 166.659 60.9475C166.307 61.0227 166.401 61.6567 166.426 61.9925C166.436 62.1257 166.503 62.1748 166.681 62.2011C166.86 62.2275 167.165 62.2275 167.348 62.1763C167.617 62.101 167.685 61.8661 167.762 61.7501C167.788 61.6854 167.788 61.6086 167.75 61.5307C167.712 61.4527 167.636 61.3759 167.557 61.2968" stroke="#BBBBBB" stroke-width="1.6087" stroke-linecap="round"/>
<path d="M167.325 60.9926C167.071 60.8902 166.863 60.8374 166.697 60.8758C166.607 60.9142 166.505 60.991 166.427 61.0561C166.349 61.1213 166.299 61.1725 166.246 61.3028" stroke="#BBBBBB" stroke-width="1.6087" stroke-linecap="round"/>
<path d="M188.87 61.3008C188.784 61.4915 188.669 62.1056 188.755 62.3293C188.805 62.46 189.079 62.3872 189.623 62.3827C189.783 62.3814 189.854 62.2724 189.911 62.1909C190.01 62.0497 189.988 61.8786 189.969 61.7297C189.954 61.6144 189.835 61.5607 189.764 61.5031C189.556 61.3357 189.091 61.4542 188.961 61.5313C188.859 61.5919 188.803 61.7139 188.755 61.8675C188.734 61.9343 188.727 62.0404 188.731 62.1701C188.734 62.2533 188.784 62.3197 188.864 62.4012C189.078 62.6162 189.488 62.5701 189.753 62.4936C189.834 62.3981 189.892 62.3202 189.935 62.2676C189.959 62.234 189.987 62.1864 190.017 62.1085" stroke="#BBBBBB" stroke-width="1.6087" stroke-linecap="round"/>
<path d="M189.357 61.3867C189.168 61.3867 189.042 61.3867 188.984 61.3915C188.926 61.3964 188.841 61.4632 188.741 61.5638C188.648 61.657 188.64 61.8186 188.649 61.9627C188.655 62.054 188.745 62.1267 188.859 62.2083C188.926 62.2423 189.011 62.2614 189.126 62.2712C189.241 62.281 189.383 62.281 189.529 62.281" stroke="#BBBBBB" stroke-width="1.6087" stroke-linecap="round"/>
<path d="M189.282 61.5288C189.229 61.4986 189.195 61.4755 189.183 61.4565C189.177 61.4461 189.18 61.4299 189.185 61.4203C189.196 61.4016 189.233 61.4029 189.261 61.3973C189.271 61.3803 189.241 61.3384 189.231 61.2906C189.229 61.281 189.221 61.2734 189.214 61.2656" stroke="#BBBBBB" stroke-width="1.6087" stroke-linecap="round"/>
<path d="M176.71 71.4695C176.192 71.5865 175.277 71.954 175.034 72.0993C174.746 72.2722 174.48 72.7032 174.291 73.2005C174.206 73.4239 174.153 73.6088 174.133 73.9546C174.096 74.6244 174.14 75.145 174.185 75.3414C174.286 75.777 174.465 76.0506 174.609 76.2808C174.848 76.6625 175.313 77.0487 175.568 77.2199C175.68 77.2956 175.874 77.4166 176.199 77.5738C176.588 77.762 177.099 77.8503 177.891 77.9224C178.411 77.9697 179.174 77.9815 179.612 77.9884C180.287 77.999 180.468 77.8641 180.728 77.7331C180.965 77.6141 181.288 77.3536 181.7 77.0639C182 76.8533 182.112 76.565 182.236 76.4136C182.392 76.2237 182.503 75.897 182.64 75.6128C182.726 75.4366 182.765 75.1864 182.784 74.963C182.823 74.5314 182.791 74.0046 182.7 73.7943C182.616 73.5998 182.44 73.4272 182.276 73.1446C182.174 72.9687 182.1 72.8355 181.93 72.6912C181.705 72.4992 181.215 72.0233 180.913 71.8244C180.734 71.7067 180.431 71.5097 180.046 71.3976C179.949 71.3695 179.857 71.3647 179.5 71.358C178.524 71.3397 177.82 71.3643 177.69 71.384C177.442 71.4167 177.298 71.4825 177.213 71.5087C177.168 71.5219 177.116 71.5349 177.063 71.5483" stroke="#BBBBBB" stroke-width="1.6087" stroke-linecap="round"/>
<path d="M175.953 85.0274C176.08 84.2175 176.23 83.7151 176.486 83.49C177.313 82.7613 178.621 82.8315 179.331 82.9917C180.21 83.6272 180.551 84.0561 180.852 84.6486C180.895 84.7685 180.895 84.8324 180.895 84.8983" stroke="#BBBBBB" stroke-width="1.6087" stroke-linecap="round"/>
<path d="M186.951 51.9844C188.41 52.893 189.868 53.8016 190.672 54.3221C191.475 54.8426 191.58 54.9474 191.687 55.0554" stroke="#BBBBBB" stroke-width="1.6087" stroke-linecap="round"/>
<path d="M149.65 66.5156C147.632 66.993 146.484 67.426 145.409 67.9914C143.574 68.9563 143.057 69.1216 142.563 69.7079C142.028 70.3425 141.983 71.3806 142.004 72.1189C142.028 72.9815 142.723 73.5562 143.259 73.9918C144.065 74.6471 146.989 74.7327 148.843 74.3864C149.03 74.2983 149.153 74.2553 149.297 74.1901C149.442 74.1249 149.605 74.0388 150.021 73.8197" stroke="#BBBBBB" stroke-width="1.6087" stroke-linecap="round"/>
<path d="M209.584 64.8984C209.998 65.0799 211.661 66.174 212.467 66.844C213.281 67.5204 214.401 68.6508 215.105 69.272C215.539 69.6557 215.695 70.3936 215.922 71.3764C216.131 72.2763 215.886 73.0065 215.603 73.4168C214.7 74.7262 214.066 75.0668 213.553 75.3438C212.287 75.4819 210.458 75.3005 210.174 74.9803C210.041 74.8414 209.24 74.4109 209.01 74.18" stroke="#BBBBBB" stroke-width="1.6087" stroke-linecap="round"/>
<path d="M165.984 92.4805C165.922 93.0517 165.797 94.0362 165.643 94.644C165.528 95.0953 165.24 95.5418 164.941 95.9975C164.371 96.8649 164.101 97.0158 163.986 97.2608C163.912 97.4203 163.831 97.6246 163.749 97.9364C163.628 98.3932 163.624 99.0605 163.644 99.6947C163.656 100.048 163.891 100.332 164.344 100.804C164.634 101.105 165.125 101.477 165.563 101.759C166.342 102.262 167.057 102.466 167.912 102.651C168.493 102.777 169.401 102.87 170.03 102.931C170.983 103.022 171.549 102.958 172.116 102.798C172.965 102.559 173.599 102.062 173.992 101.758C174.279 101.535 174.633 100.981 175.098 100.053C175.339 99.5733 175.42 99.0245 175.483 98.5388C175.601 97.6379 175.567 97.1356 175.598 96.9838C175.609 96.7985 175.629 96.5608 175.66 95.9891C175.671 95.5514 175.671 94.8141 175.609 94.0038" stroke="#BBBBBB" stroke-width="1.6087" stroke-linecap="round"/>
<path d="M180.483 94.3532C180.463 94.704 180.494 94.2867 180.483 94.8601C180.473 95.4334 180.473 96.2187 180.493 96.7401C180.522 97.4968 180.676 97.9203 180.869 98.4326C181.165 99.2189 181.308 99.7778 181.379 99.9208C181.455 100.074 181.693 100.517 182.241 101.224C182.827 101.98 183.506 102.393 183.883 102.553C184.27 102.718 184.909 102.849 185.955 102.925C187.218 103.017 188.07 102.934 188.395 102.876C189.195 102.731 189.638 102.311 189.945 102.066C190.44 101.671 190.841 101.367 191.441 100.491C191.687 100.133 191.637 99.8305 191.667 99.535C191.756 98.6889 191.678 97.5016 191.556 97.2145C191.413 96.8783 191.393 96.5903 191.271 96.3452C191.1 96.0031 190.945 95.8136 190.802 95.6278C190.567 95.3208 190.517 94.9874 190.385 94.7502C190.199 94.4184 189.967 93.8736 189.885 93.6364C189.865 93.5855 189.845 93.5354 189.824 93.4845C189.804 93.4336 189.784 93.3835 189.763 93.2812" stroke="#BBBBBB" stroke-width="1.6087" stroke-linecap="round"/>
<path d="M65.1683 128.144C65.7869 128.144 66.3256 128.235 66.7843 128.416C67.2536 128.597 67.6429 128.848 67.9523 129.168C68.2616 129.488 68.4909 129.867 68.6403 130.304C68.8003 130.731 68.8802 131.195 68.8802 131.696C68.8802 132.208 68.8003 132.683 68.6403 133.12C68.4909 133.547 68.2616 133.92 67.9523 134.24C67.6429 134.56 67.2536 134.811 66.7843 134.992C66.3256 135.173 65.7869 135.264 65.1683 135.264C64.5496 135.264 64.0056 135.173 63.5363 134.992C63.0776 134.811 62.6936 134.56 62.3843 134.24C62.0749 133.92 61.8403 133.547 61.6803 133.12C61.5309 132.683 61.4563 132.208 61.4563 131.696C61.4563 131.195 61.5309 130.731 61.6803 130.304C61.8403 129.867 62.0749 129.488 62.3843 129.168C62.6936 128.848 63.0776 128.597 63.5363 128.416C64.0056 128.235 64.5496 128.144 65.1683 128.144ZM65.1683 129.488C64.7736 129.488 64.4376 129.547 64.1603 129.664C63.8936 129.781 63.6696 129.941 63.4883 130.144C63.3176 130.336 63.1896 130.571 63.1043 130.848C63.0296 131.115 62.9923 131.397 62.9923 131.696C62.9923 132.005 63.0296 132.293 63.1043 132.56C63.1896 132.827 63.3176 133.061 63.4883 133.264C63.6696 133.467 63.8936 133.627 64.1603 133.744C64.4376 133.861 64.7736 133.92 65.1683 133.92C65.5629 133.92 65.8936 133.861 66.1603 133.744C66.4376 133.627 66.6616 133.467 66.8323 133.264C67.0136 133.061 67.1416 132.827 67.2163 132.56C67.3016 132.293 67.3443 132.005 67.3443 131.696C67.3443 131.397 67.3016 131.115 67.2163 130.848C67.1416 130.571 67.0136 130.336 66.8323 130.144C66.6616 129.941 66.4376 129.781 66.1603 129.664C65.8936 129.547 65.5629 129.488 65.1683 129.488ZM71.7923 127.552C72.0056 127.552 72.1923 127.605 72.3523 127.712C72.5123 127.819 72.5923 127.989 72.5923 128.224V131.248H74.3523C74.5656 131.248 74.7149 131.317 74.8003 131.456C74.8963 131.595 74.9443 131.755 74.9443 131.936C74.9443 132.139 74.8963 132.309 74.8003 132.448C74.7149 132.576 74.5656 132.64 74.3523 132.64H72.5923V136.448C72.5923 136.683 72.5123 136.853 72.3523 136.96C72.1923 137.067 72.0056 137.12 71.7923 137.12C71.5789 137.12 71.3923 137.067 71.2323 136.96C71.0723 136.853 70.9923 136.683 70.9923 136.448V128.224C70.9923 127.989 71.0723 127.819 71.2323 127.712C71.3923 127.605 71.5789 127.552 71.7923 127.552ZM68.0003 136.144C68.2136 136.144 68.4003 136.197 68.5603 136.304C68.7203 136.411 68.8003 136.581 68.8003 136.816V137.408C68.8003 137.675 68.8216 137.909 68.8643 138.112C68.9069 138.315 68.9816 138.496 69.0883 138.656C69.1949 138.816 69.3283 138.965 69.4883 139.104C69.6589 139.243 69.8669 139.376 70.1123 139.504C70.5603 139.749 71.0136 139.984 71.4723 140.208C71.9416 140.432 72.4216 140.651 72.9123 140.864C73.0936 140.949 73.2003 141.077 73.2323 141.248C73.2643 141.429 73.2376 141.605 73.1523 141.776C73.0669 141.947 72.9443 142.069 72.7843 142.144C72.6243 142.219 72.4483 142.213 72.2563 142.128C71.7976 141.925 71.3603 141.723 70.9443 141.52C70.5389 141.328 70.1443 141.125 69.7603 140.912C69.4403 140.741 69.1736 140.587 68.9603 140.448C68.7576 140.32 68.5869 140.197 68.4483 140.08C68.3203 139.963 68.2243 139.856 68.1603 139.76C68.0963 139.653 68.0483 139.552 68.0163 139.456H68.0003C67.9683 139.563 67.9203 139.669 67.8563 139.776C67.7923 139.872 67.6909 139.979 67.5523 140.096C67.4136 140.224 67.2376 140.352 67.0243 140.48C66.8216 140.619 66.5603 140.773 66.2403 140.944C65.8563 141.157 65.4563 141.36 65.0403 141.552C64.6349 141.755 64.2029 141.957 63.7443 142.16C63.5523 142.245 63.3763 142.251 63.2163 142.176C63.0563 142.101 62.9336 141.979 62.8483 141.808C62.7629 141.627 62.7363 141.445 62.7682 141.264C62.8003 141.083 62.9016 140.949 63.0723 140.864C63.5736 140.651 64.0536 140.432 64.5123 140.208C64.9709 139.984 65.4243 139.749 65.8723 139.504C66.1176 139.376 66.3256 139.243 66.4963 139.104C66.6669 138.965 66.8003 138.816 66.8963 138.656C67.0029 138.496 67.0776 138.315 67.1203 138.112C67.1736 137.909 67.2003 137.675 67.2003 137.408V136.816C67.2003 136.581 67.2803 136.411 67.4403 136.304C67.6003 136.197 67.7869 136.144 68.0003 136.144ZM77.6348 128.16C77.9014 128.16 78.1148 128.219 78.2748 128.336C78.4454 128.453 78.5254 128.651 78.5148 128.928L78.3228 136.48C78.3121 136.736 78.2374 136.917 78.0988 137.024C77.9708 137.12 77.8161 137.168 77.6348 137.168C77.4534 137.168 77.2934 137.12 77.1548 137.024C77.0268 136.917 76.9628 136.736 76.9628 136.48L76.7548 128.928C76.7548 128.651 76.8348 128.453 76.9948 128.336C77.1548 128.219 77.3681 128.16 77.6348 128.16ZM77.6348 138.48C77.9334 138.48 78.1841 138.581 78.3868 138.784C78.5894 138.976 78.6908 139.221 78.6908 139.52C78.6908 139.819 78.5894 140.069 78.3868 140.272C78.1841 140.475 77.9334 140.576 77.6348 140.576C77.3361 140.576 77.0854 140.475 76.8828 140.272C76.6801 140.069 76.5788 139.819 76.5788 139.52C76.5788 139.221 76.6801 138.976 76.8828 138.784C77.0854 138.581 77.3361 138.48 77.6348 138.48ZM88.5749 128.384C89.8122 128.384 90.7455 128.789 91.3749 129.6C92.0042 130.411 92.3189 131.595 92.3189 133.152C92.3189 134.709 92.0042 135.893 91.3749 136.704C90.7455 137.515 89.8122 137.92 88.5749 137.92C87.3375 137.92 86.4042 137.515 85.7749 136.704C85.1562 135.893 84.8469 134.709 84.8469 133.152C84.8469 131.595 85.1562 130.411 85.7749 129.6C86.4042 128.789 87.3375 128.384 88.5749 128.384ZM88.5749 129.792C87.7962 129.792 87.2362 130.08 86.8949 130.656C86.5642 131.221 86.3989 132.053 86.3989 133.152C86.3989 134.251 86.5642 135.088 86.8949 135.664C87.2362 136.229 87.7962 136.512 88.5749 136.512C89.3642 136.512 89.9242 136.229 90.2549 135.664C90.5962 135.088 90.7669 134.251 90.7669 133.152C90.7669 132.053 90.5962 131.221 90.2549 130.656C89.9242 130.08 89.3642 129.792 88.5749 129.792ZM95.1829 127.552C95.3962 127.552 95.5829 127.605 95.7429 127.712C95.9029 127.819 95.9829 127.989 95.9829 128.224V132.384H97.7429C97.9562 132.384 98.1055 132.453 98.1909 132.592C98.2869 132.72 98.3349 132.88 98.3349 133.072C98.3349 133.264 98.2869 133.429 98.1909 133.568C98.1055 133.707 97.9562 133.776 97.7429 133.776H95.9829V140.704C95.9829 140.939 95.9029 141.109 95.7429 141.216C95.5829 141.323 95.3962 141.376 95.1829 141.376C94.9695 141.376 94.7829 141.323 94.6229 141.216C94.4629 141.109 94.3829 140.939 94.3829 140.704V128.224C94.3829 127.989 94.4629 127.819 94.6229 127.712C94.7829 127.605 94.9695 127.552 95.1829 127.552ZM107.313 128.384C107.505 128.384 107.644 128.453 107.729 128.592C107.825 128.731 107.873 128.891 107.873 129.072C107.873 129.253 107.825 129.413 107.729 129.552C107.644 129.68 107.505 129.744 107.313 129.744H104.705V130.464C104.705 130.987 104.785 131.424 104.945 131.776C105.116 132.128 105.393 132.459 105.777 132.768C106.151 133.077 106.503 133.355 106.833 133.6C107.164 133.845 107.457 134.059 107.713 134.24C107.895 134.368 107.991 134.523 108.001 134.704C108.012 134.885 107.959 135.056 107.841 135.216C107.735 135.344 107.591 135.445 107.409 135.52C107.239 135.584 107.052 135.547 106.849 135.408C106.657 135.269 106.407 135.088 106.097 134.864C105.788 134.629 105.463 134.373 105.121 134.096C104.716 133.765 104.428 133.504 104.257 133.312C104.087 133.109 103.98 132.928 103.937 132.768H103.921C103.879 132.949 103.767 133.147 103.585 133.36C103.404 133.573 103.111 133.84 102.705 134.16C102.353 134.437 102.007 134.704 101.665 134.96C101.335 135.205 101.009 135.44 100.689 135.664C100.508 135.792 100.321 135.824 100.129 135.76C99.948 135.696 99.8094 135.595 99.7134 135.456C99.596 135.307 99.5427 135.136 99.5534 134.944C99.564 134.752 99.66 134.587 99.8414 134.448C100.225 134.181 100.593 133.92 100.945 133.664C101.308 133.397 101.676 133.115 102.049 132.816C102.423 132.507 102.689 132.176 102.849 131.824C103.02 131.472 103.105 131.035 103.105 130.512V129.744H100.385C100.183 129.744 100.033 129.68 99.9374 129.552C99.852 129.413 99.8094 129.253 99.8094 129.072C99.8094 128.891 99.852 128.731 99.9374 128.592C100.033 128.453 100.183 128.384 100.385 128.384H107.313ZM110.433 127.552C110.647 127.552 110.833 127.605 110.993 127.712C111.153 127.819 111.233 127.989 111.233 128.224V135.536C111.233 135.771 111.153 135.941 110.993 136.048C110.833 136.155 110.647 136.208 110.433 136.208C110.22 136.208 110.033 136.155 109.873 136.048C109.713 135.941 109.633 135.771 109.633 135.536V128.224C109.633 127.989 109.713 127.819 109.873 127.712C110.033 127.605 110.22 127.552 110.433 127.552ZM110.001 136.896C110.471 136.896 110.791 136.981 110.961 137.152C111.143 137.323 111.233 137.637 111.233 138.096V141.76C111.233 141.995 111.153 142.165 110.993 142.272C110.833 142.379 110.647 142.432 110.433 142.432C110.22 142.432 110.033 142.379 109.873 142.272C109.713 142.165 109.633 141.995 109.633 141.76V138.592C109.633 138.379 109.521 138.272 109.297 138.272H102.177C101.975 138.272 101.825 138.203 101.729 138.064C101.644 137.925 101.601 137.765 101.601 137.584C101.601 137.403 101.644 137.243 101.729 137.104C101.825 136.965 101.975 136.896 102.177 136.896H110.001ZM124.74 128.624C124.932 128.624 125.071 128.693 125.156 128.832C125.252 128.971 125.3 129.136 125.3 129.328C125.3 129.509 125.252 129.669 125.156 129.808C125.071 129.936 124.932 130 124.74 130H120.26C120.036 130 119.924 130.112 119.924 130.336V136C119.924 136.224 120.036 136.336 120.26 136.336C121.316 136.336 122.297 136.309 123.204 136.256C124.111 136.192 124.996 136.101 125.86 135.984C126.041 135.963 126.185 136.011 126.292 136.128C126.409 136.245 126.479 136.395 126.5 136.576C126.521 136.768 126.495 136.944 126.42 137.104C126.356 137.253 126.233 137.339 126.052 137.36C125.679 137.413 125.273 137.461 124.836 137.504C124.409 137.547 123.935 137.584 123.412 137.616C122.889 137.648 122.308 137.675 121.668 137.696C121.039 137.707 120.335 137.712 119.556 137.712C119.087 137.712 118.761 137.627 118.58 137.456C118.409 137.285 118.324 136.971 118.324 136.512V129.824C118.324 129.365 118.409 129.051 118.58 128.88C118.761 128.709 119.087 128.624 119.556 128.624H124.74ZM128.308 127.552C128.521 127.552 128.708 127.605 128.868 127.712C129.028 127.819 129.108 127.989 129.108 128.224V132.384H130.868C131.081 132.384 131.231 132.453 131.316 132.592C131.412 132.72 131.46 132.88 131.46 133.072C131.46 133.264 131.412 133.429 131.316 133.568C131.231 133.707 131.081 133.776 130.868 133.776H129.108V140.704C129.108 140.939 129.028 141.109 128.868 141.216C128.708 141.323 128.521 141.376 128.308 141.376C128.095 141.376 127.908 141.323 127.748 141.216C127.588 141.109 127.508 140.939 127.508 140.704V128.224C127.508 127.989 127.588 127.819 127.748 127.712C127.908 127.605 128.095 127.552 128.308 127.552ZM136.998 128.288C137.212 128.288 137.398 128.341 137.558 128.448C137.729 128.555 137.814 128.725 137.814 128.96V131.376C137.814 131.717 137.836 132.027 137.878 132.304C137.921 132.571 137.996 132.827 138.102 133.072C138.209 133.317 138.342 133.557 138.502 133.792C138.662 134.027 138.865 134.272 139.11 134.528C139.43 134.869 139.745 135.2 140.054 135.52C140.374 135.829 140.673 136.112 140.95 136.368C141.11 136.507 141.174 136.672 141.142 136.864C141.121 137.056 141.046 137.221 140.918 137.36C140.801 137.488 140.641 137.568 140.438 137.6C140.246 137.632 140.076 137.579 139.926 137.44C139.436 136.981 138.886 136.432 138.278 135.792C138.044 135.557 137.846 135.349 137.686 135.168C137.537 134.987 137.414 134.832 137.318 134.704C137.222 134.565 137.148 134.448 137.094 134.352C137.052 134.245 137.025 134.149 137.014 134.064H136.998C136.977 134.16 136.94 134.261 136.886 134.368C136.844 134.475 136.774 134.597 136.678 134.736C136.582 134.864 136.46 135.019 136.31 135.2C136.161 135.381 135.969 135.589 135.734 135.824C135.425 136.144 135.121 136.453 134.822 136.752C134.524 137.04 134.204 137.344 133.862 137.664C133.692 137.813 133.51 137.867 133.318 137.824C133.126 137.771 132.972 137.675 132.854 137.536C132.726 137.387 132.657 137.221 132.646 137.04C132.636 136.859 132.705 136.693 132.854 136.544C133.217 136.203 133.569 135.867 133.91 135.536C134.252 135.205 134.582 134.869 134.902 134.528C135.137 134.272 135.334 134.027 135.494 133.792C135.665 133.557 135.798 133.317 135.894 133.072C136.001 132.827 136.076 132.571 136.118 132.304C136.161 132.027 136.182 131.717 136.182 131.376V128.96C136.182 128.725 136.262 128.555 136.422 128.448C136.593 128.341 136.785 128.288 136.998 128.288ZM143.542 127.552C143.756 127.552 143.942 127.605 144.102 127.712C144.273 127.819 144.358 127.989 144.358 128.224V140.704C144.358 140.939 144.273 141.109 144.102 141.216C143.942 141.323 143.756 141.376 143.542 141.376C143.34 141.376 143.153 141.323 142.982 141.216C142.822 141.109 142.742 140.939 142.742 140.704V128.224C142.742 127.989 142.822 127.819 142.982 127.712C143.153 127.605 143.34 127.552 143.542 127.552ZM154.985 127.872C155.188 127.872 155.369 127.925 155.529 128.032C155.689 128.139 155.769 128.304 155.769 128.528V129.296C155.769 129.531 155.78 129.733 155.801 129.904C155.822 130.075 155.854 130.235 155.897 130.384C155.95 130.523 156.014 130.651 156.089 130.768C156.164 130.885 156.254 131.003 156.361 131.12C156.51 131.291 156.665 131.451 156.825 131.6C156.985 131.749 157.14 131.888 157.289 132.016C157.406 132.112 157.497 132.16 157.561 132.16C157.636 132.16 157.732 132.112 157.849 132.016C157.998 131.888 158.153 131.749 158.313 131.6C158.473 131.451 158.628 131.291 158.777 131.12C158.884 131.003 158.974 130.885 159.049 130.768C159.124 130.651 159.182 130.523 159.225 130.384C159.278 130.235 159.316 130.075 159.337 129.904C159.369 129.733 159.385 129.531 159.385 129.296V128.528C159.385 128.304 159.46 128.139 159.609 128.032C159.769 127.925 159.956 127.872 160.169 127.872C160.372 127.872 160.553 127.925 160.713 128.032C160.873 128.139 160.953 128.304 160.953 128.528V129.296C160.953 129.776 161.017 130.149 161.145 130.416C161.273 130.683 161.476 130.939 161.753 131.184C161.966 131.387 162.212 131.6 162.489 131.824C162.766 132.037 163.06 132.261 163.369 132.496C163.518 132.613 163.588 132.763 163.577 132.944C163.577 133.115 163.518 133.28 163.401 133.44C163.284 133.589 163.134 133.68 162.953 133.712C162.782 133.744 162.606 133.696 162.425 133.568C162.18 133.387 161.94 133.2 161.705 133.008C161.47 132.816 161.246 132.629 161.033 132.448C160.756 132.203 160.553 132 160.425 131.84C160.308 131.68 160.222 131.509 160.169 131.328H160.153C160.1 131.52 160.014 131.701 159.897 131.872C159.78 132.032 159.588 132.235 159.321 132.48C159.182 132.629 159.028 132.784 158.857 132.944C158.686 133.093 158.526 133.227 158.377 133.344C158.217 133.472 158.073 133.573 157.945 133.648C157.817 133.712 157.694 133.744 157.577 133.744C157.46 133.744 157.337 133.712 157.209 133.648C157.081 133.573 156.937 133.472 156.777 133.344C156.617 133.227 156.452 133.093 156.281 132.944C156.121 132.784 155.966 132.629 155.817 132.48C155.561 132.235 155.369 132.032 155.241 131.872C155.124 131.701 155.038 131.52 154.985 131.328H154.969C154.916 131.52 154.83 131.696 154.713 131.856C154.596 132.016 154.398 132.219 154.121 132.464C153.684 132.837 153.214 133.216 152.713 133.6C152.532 133.728 152.356 133.776 152.185 133.744C152.014 133.701 151.865 133.605 151.737 133.456C151.62 133.307 151.561 133.141 151.561 132.96C151.561 132.779 151.636 132.629 151.785 132.512C152.084 132.277 152.372 132.048 152.649 131.824C152.926 131.6 153.177 131.387 153.401 131.184C153.678 130.939 153.881 130.683 154.009 130.416C154.137 130.149 154.201 129.776 154.201 129.296V128.528C154.201 128.304 154.281 128.139 154.441 128.032C154.601 127.925 154.782 127.872 154.985 127.872ZM163.737 135.12C163.929 135.12 164.068 135.189 164.153 135.328C164.249 135.467 164.297 135.627 164.297 135.808C164.297 135.989 164.249 136.149 164.153 136.288C164.068 136.416 163.929 136.48 163.737 136.48H151.417C151.225 136.48 151.081 136.416 150.985 136.288C150.9 136.149 150.857 135.989 150.857 135.808C150.857 135.627 150.9 135.467 150.985 135.328C151.081 135.189 151.225 135.12 151.417 135.12H163.737ZM153.481 137.632C153.694 137.632 153.881 137.685 154.041 137.792C154.201 137.899 154.281 138.069 154.281 138.304V140.48C154.281 140.704 154.393 140.816 154.617 140.816H162.185C162.377 140.816 162.516 140.88 162.601 141.008C162.697 141.147 162.745 141.307 162.745 141.488C162.745 141.669 162.697 141.829 162.601 141.968C162.516 142.107 162.377 142.176 162.185 142.176H153.897C153.428 142.176 153.108 142.091 152.937 141.92C152.766 141.749 152.681 141.435 152.681 140.976V138.304C152.681 138.069 152.761 137.899 152.921 137.792C153.081 137.685 153.268 137.632 153.481 137.632ZM175.643 128.336C176.113 128.336 176.433 128.421 176.603 128.592C176.785 128.763 176.875 129.077 176.875 129.536V133.856C176.875 134.315 176.785 134.629 176.603 134.8C176.433 134.971 176.113 135.056 175.643 135.056H171.403C170.934 135.056 170.609 134.971 170.427 134.8C170.257 134.629 170.171 134.315 170.171 133.856V129.536C170.171 129.077 170.257 128.763 170.427 128.592C170.609 128.421 170.934 128.336 171.403 128.336H175.643ZM172.075 129.696C171.958 129.696 171.873 129.723 171.819 129.776C171.766 129.819 171.739 129.904 171.739 130.032V133.376C171.739 133.6 171.851 133.712 172.075 133.712H174.971C175.195 133.712 175.307 133.6 175.307 133.376V130.032C175.307 129.904 175.281 129.819 175.227 129.776C175.174 129.723 175.089 129.696 174.971 129.696H172.075ZM180.795 127.552C180.998 127.552 181.179 127.605 181.339 127.712C181.499 127.819 181.579 127.989 181.579 128.224V135.664C181.579 135.888 181.499 136.053 181.339 136.16C181.179 136.267 180.998 136.32 180.795 136.32C180.593 136.32 180.406 136.267 180.235 136.16C180.075 136.053 179.995 135.888 179.995 135.664V133.856H178.139C177.947 133.856 177.809 133.787 177.723 133.648C177.638 133.509 177.595 133.349 177.595 133.168C177.595 132.987 177.638 132.827 177.723 132.688C177.809 132.549 177.947 132.48 178.139 132.48H179.995V130.992H178.139C177.947 130.992 177.809 130.928 177.723 130.8C177.638 130.661 177.595 130.496 177.595 130.304C177.595 130.123 177.638 129.968 177.723 129.84C177.809 129.701 177.947 129.632 178.139 129.632H179.995V128.224C179.995 127.989 180.075 127.819 180.235 127.712C180.406 127.605 180.593 127.552 180.795 127.552ZM176.971 136.464C178.465 136.464 179.617 136.72 180.427 137.232C181.249 137.733 181.659 138.485 181.659 139.488C181.659 140.491 181.249 141.243 180.427 141.744C179.617 142.256 178.465 142.512 176.971 142.512C175.478 142.512 174.321 142.256 173.499 141.744C172.689 141.243 172.283 140.491 172.283 139.488C172.283 138.485 172.689 137.733 173.499 137.232C174.321 136.72 175.478 136.464 176.971 136.464ZM176.971 137.76C175.883 137.76 175.094 137.92 174.603 138.24C174.113 138.549 173.867 138.965 173.867 139.488C173.867 140.021 174.113 140.443 174.603 140.752C175.094 141.061 175.883 141.216 176.971 141.216C178.059 141.216 178.849 141.061 179.339 140.752C179.83 140.443 180.075 140.021 180.075 139.488C180.075 138.955 179.83 138.533 179.339 138.224C178.849 137.915 178.059 137.76 176.971 137.76ZM191.774 128.384C191.966 128.384 192.105 128.453 192.19 128.592C192.286 128.731 192.334 128.891 192.334 129.072C192.334 129.253 192.286 129.413 192.19 129.552C192.105 129.68 191.966 129.744 191.774 129.744H189.182V130.464C189.182 130.987 189.262 131.424 189.422 131.776C189.582 132.128 189.854 132.459 190.238 132.768C190.611 133.077 190.963 133.355 191.294 133.6C191.625 133.845 191.918 134.059 192.174 134.24C192.355 134.368 192.451 134.523 192.462 134.704C192.473 134.885 192.419 135.056 192.302 135.216C192.195 135.344 192.051 135.445 191.87 135.52C191.699 135.584 191.513 135.547 191.31 135.408C191.118 135.269 190.867 135.088 190.558 134.864C190.249 134.629 189.923 134.373 189.582 134.096C189.177 133.765 188.889 133.504 188.718 133.312C188.558 133.109 188.457 132.928 188.414 132.768H188.398C188.355 132.949 188.243 133.147 188.062 133.36C187.891 133.573 187.603 133.84 187.198 134.16C186.846 134.437 186.499 134.704 186.158 134.96C185.827 135.205 185.502 135.44 185.182 135.664C185.001 135.792 184.814 135.824 184.622 135.76C184.441 135.696 184.302 135.595 184.206 135.456C184.089 135.307 184.035 135.136 184.046 134.944C184.057 134.752 184.153 134.587 184.334 134.448C184.718 134.181 185.086 133.92 185.438 133.664C185.801 133.397 186.169 133.115 186.542 132.816C186.915 132.507 187.182 132.176 187.342 131.824C187.502 131.472 187.582 131.035 187.582 130.512V129.744H184.878C184.675 129.744 184.526 129.68 184.43 129.552C184.345 129.413 184.302 129.253 184.302 129.072C184.302 128.891 184.345 128.731 184.43 128.592C184.526 128.453 184.675 128.384 184.878 128.384H191.774ZM194.558 127.552C194.771 127.552 194.958 127.605 195.118 127.712C195.278 127.819 195.358 127.989 195.358 128.224V131.008H197.118C197.331 131.008 197.481 131.077 197.566 131.216C197.662 131.355 197.71 131.515 197.71 131.696C197.71 131.899 197.662 132.069 197.566 132.208C197.481 132.336 197.331 132.4 197.118 132.4H195.358V135.536C195.358 135.771 195.278 135.941 195.118 136.048C194.958 136.155 194.771 136.208 194.558 136.208C194.345 136.208 194.158 136.155 193.998 136.048C193.838 135.941 193.758 135.771 193.758 135.536V128.224C193.758 127.989 193.838 127.819 193.998 127.712C194.158 127.605 194.345 127.552 194.558 127.552ZM194.126 136.896C194.595 136.896 194.915 136.981 195.086 137.152C195.267 137.323 195.358 137.637 195.358 138.096V141.76C195.358 141.995 195.278 142.165 195.118 142.272C194.958 142.379 194.771 142.432 194.558 142.432C194.345 142.432 194.158 142.379 193.998 142.272C193.838 142.165 193.758 141.995 193.758 141.76V138.592C193.758 138.379 193.646 138.272 193.422 138.272H186.462C186.259 138.272 186.11 138.203 186.014 138.064C185.929 137.925 185.886 137.765 185.886 137.584C185.886 137.403 185.929 137.243 186.014 137.104C186.11 136.965 186.259 136.896 186.462 136.896H194.126ZM213.536 128.048C213.718 128.048 213.851 128.117 213.936 128.256C214.032 128.384 214.08 128.539 214.08 128.72C214.08 128.901 214.032 129.056 213.936 129.184C213.851 129.312 213.718 129.376 213.536 129.376H206.336C206.112 129.376 206 129.488 206 129.712V131.456C206 131.68 206.112 131.792 206.336 131.792H213.696C213.878 131.792 214.011 131.856 214.096 131.984C214.192 132.112 214.24 132.267 214.24 132.448C214.24 132.629 214.192 132.789 214.096 132.928C214.011 133.056 213.878 133.12 213.696 133.12H205.616C205.147 133.12 204.827 133.035 204.656 132.864C204.486 132.693 204.4 132.379 204.4 131.92V129.248C204.4 128.789 204.486 128.475 204.656 128.304C204.827 128.133 205.147 128.048 205.616 128.048H213.536ZM210.048 134.72H215.44C215.622 134.72 215.755 134.789 215.84 134.928C215.936 135.056 215.984 135.211 215.984 135.392C215.984 135.573 215.936 135.733 215.84 135.872C215.755 136 215.622 136.064 215.44 136.064H203.088C202.907 136.064 202.768 136 202.672 135.872C202.587 135.733 202.544 135.573 202.544 135.392C202.544 135.211 202.587 135.056 202.672 134.928C202.768 134.789 202.907 134.72 203.088 134.72H208.48V132.464H210.048V134.72ZM209.264 137.072C210.811 137.072 212.011 137.296 212.864 137.744C213.728 138.192 214.16 138.885 214.16 139.824C214.16 140.773 213.728 141.467 212.864 141.904C212.011 142.352 210.811 142.576 209.264 142.576C207.718 142.576 206.512 142.352 205.648 141.904C204.795 141.467 204.368 140.773 204.368 139.824C204.368 138.885 204.795 138.192 205.648 137.744C206.512 137.296 207.718 137.072 209.264 137.072ZM209.264 138.352C208.102 138.352 207.259 138.48 206.736 138.736C206.214 138.981 205.952 139.344 205.952 139.824C205.952 140.304 206.214 140.667 206.736 140.912C207.259 141.168 208.102 141.296 209.264 141.296C210.427 141.296 211.27 141.168 211.792 140.912C212.315 140.667 212.576 140.304 212.576 139.824C212.576 139.344 212.315 138.981 211.792 138.736C211.27 138.48 210.427 138.352 209.264 138.352ZM221.715 131.376C222.792 131.376 223.63 131.6 224.227 132.048C224.835 132.485 225.139 133.083 225.139 133.84C225.139 134.597 224.835 135.2 224.227 135.648C223.63 136.085 222.792 136.304 221.715 136.304C220.638 136.304 219.795 136.085 219.187 135.648C218.59 135.2 218.291 134.597 218.291 133.84C218.291 133.083 218.59 132.485 219.187 132.048C219.795 131.6 220.638 131.376 221.715 131.376ZM221.715 132.608C221.043 132.608 220.547 132.725 220.227 132.96C219.907 133.184 219.747 133.477 219.747 133.84C219.747 134.192 219.907 134.485 220.227 134.72C220.547 134.955 221.043 135.072 221.715 135.072C222.387 135.072 222.883 134.955 223.203 134.72C223.523 134.485 223.683 134.192 223.683 133.84C223.683 133.477 223.523 133.184 223.203 132.96C222.883 132.725 222.387 132.608 221.715 132.608ZM221.715 127.6C221.928 127.6 222.115 127.653 222.275 127.76C222.435 127.867 222.515 128.037 222.515 128.272V129.2H225.395C225.587 129.2 225.726 129.269 225.811 129.408C225.907 129.547 225.955 129.707 225.955 129.888C225.955 130.069 225.907 130.229 225.811 130.368C225.726 130.496 225.587 130.56 225.395 130.56H217.891C217.699 130.56 217.555 130.496 217.459 130.368C217.374 130.229 217.331 130.069 217.331 129.888C217.331 129.707 217.374 129.547 217.459 129.408C217.555 129.269 217.699 129.2 217.891 129.2H220.915V128.272C220.915 128.037 220.995 127.867 221.155 127.76C221.326 127.653 221.512 127.6 221.715 127.6ZM227.955 127.552C228.168 127.552 228.355 127.605 228.515 127.712C228.675 127.819 228.755 127.984 228.755 128.208V132.864H230.307C230.52 132.864 230.67 132.933 230.755 133.072C230.851 133.2 230.899 133.36 230.899 133.552C230.899 133.744 230.851 133.909 230.755 134.048C230.67 134.187 230.52 134.256 230.307 134.256H228.755V140.72C228.755 140.944 228.675 141.109 228.515 141.216C228.355 141.323 228.168 141.376 227.955 141.376C227.752 141.376 227.571 141.323 227.411 141.216C227.251 141.109 227.171 140.944 227.171 140.72V128.208C227.171 127.984 227.251 127.819 227.411 127.712C227.571 127.605 227.752 127.552 227.955 127.552ZM225.779 137.568C225.96 137.547 226.099 137.595 226.195 137.712C226.291 137.829 226.35 137.979 226.371 138.16C226.392 138.341 226.36 138.501 226.275 138.64C226.2 138.779 226.072 138.859 225.891 138.88C224.664 138.997 223.352 139.077 221.955 139.12C220.568 139.163 219.128 139.184 217.635 139.184C217.443 139.184 217.299 139.115 217.203 138.976C217.118 138.837 217.075 138.677 217.075 138.496C217.075 138.315 217.118 138.16 217.203 138.032C217.299 137.904 217.443 137.84 217.635 137.84C218.179 137.84 218.723 137.84 219.267 137.84C219.822 137.84 220.376 137.835 220.931 137.824V135.648H222.499V137.776C223.043 137.755 223.582 137.728 224.115 137.696C224.659 137.664 225.214 137.621 225.779 137.568ZM237.605 128.656C238.075 128.656 238.395 128.741 238.565 128.912C238.747 129.083 238.837 129.397 238.837 129.856V131.632C238.837 132.08 238.811 132.485 238.757 132.848C238.704 133.2 238.603 133.536 238.453 133.856C238.304 134.176 238.096 134.491 237.829 134.8C237.573 135.099 237.232 135.419 236.805 135.76C236.389 136.091 235.883 136.453 235.285 136.848C234.688 137.243 233.984 137.691 233.173 138.192C232.992 138.299 232.811 138.32 232.629 138.256C232.448 138.181 232.304 138.069 232.197 137.92C232.091 137.771 232.037 137.595 232.037 137.392C232.048 137.189 232.144 137.029 232.325 136.912C233.072 136.453 233.712 136.053 234.245 135.712C234.779 135.36 235.227 135.045 235.589 134.768C235.963 134.48 236.256 134.219 236.469 133.984C236.683 133.739 236.848 133.499 236.965 133.264C237.083 133.019 237.157 132.763 237.189 132.496C237.221 132.219 237.237 131.909 237.237 131.568V130.368C237.237 130.251 237.211 130.171 237.157 130.128C237.115 130.075 237.029 130.048 236.901 130.048H232.773C232.571 130.048 232.421 129.979 232.325 129.84C232.24 129.701 232.197 129.541 232.197 129.36C232.197 129.168 232.24 129.003 232.325 128.864C232.421 128.725 232.571 128.656 232.773 128.656H237.605ZM242.245 127.552C242.459 127.552 242.645 127.605 242.805 127.712C242.965 127.819 243.045 127.989 243.045 128.224V132.384H244.805C245.019 132.384 245.168 132.453 245.253 132.592C245.349 132.72 245.397 132.88 245.397 133.072C245.397 133.264 245.349 133.429 245.253 133.568C245.168 133.707 245.019 133.776 244.805 133.776H243.045V140.704C243.045 140.939 242.965 141.109 242.805 141.216C242.645 141.323 242.459 141.376 242.245 141.376C242.032 141.376 241.845 141.323 241.685 141.216C241.525 141.109 241.445 140.939 241.445 140.704V128.224C241.445 127.989 241.525 127.819 241.685 127.712C241.845 127.605 242.032 127.552 242.245 127.552ZM254.376 128.112C254.995 128.112 255.533 128.203 255.992 128.384C256.451 128.555 256.829 128.795 257.128 129.104C257.437 129.413 257.667 129.781 257.816 130.208C257.976 130.624 258.056 131.077 258.056 131.568C258.056 132.069 257.976 132.533 257.816 132.96C257.667 133.376 257.437 133.739 257.128 134.048C256.829 134.357 256.451 134.603 255.992 134.784C255.533 134.955 254.995 135.04 254.376 135.04C253.757 135.04 253.219 134.955 252.76 134.784C252.301 134.603 251.917 134.357 251.608 134.048C251.309 133.739 251.08 133.376 250.92 132.96C250.771 132.533 250.696 132.069 250.696 131.568C250.696 131.077 250.771 130.624 250.92 130.208C251.08 129.781 251.309 129.413 251.608 129.104C251.917 128.795 252.301 128.555 252.76 128.384C253.219 128.203 253.757 128.112 254.376 128.112ZM254.376 129.44C253.992 129.44 253.661 129.499 253.384 129.616C253.117 129.723 252.899 129.877 252.728 130.08C252.557 130.272 252.429 130.496 252.344 130.752C252.269 131.008 252.232 131.28 252.232 131.568C252.232 131.856 252.269 132.128 252.344 132.384C252.429 132.64 252.557 132.869 252.728 133.072C252.899 133.264 253.117 133.419 253.384 133.536C253.661 133.643 253.992 133.696 254.376 133.696C254.76 133.696 255.085 133.643 255.352 133.536C255.629 133.419 255.853 133.264 256.024 133.072C256.195 132.869 256.317 132.64 256.392 132.384C256.477 132.128 256.52 131.856 256.52 131.568C256.52 131.28 256.477 131.008 256.392 130.752C256.317 130.496 256.195 130.272 256.024 130.08C255.853 129.877 255.629 129.723 255.352 129.616C255.085 129.499 254.76 129.44 254.376 129.44ZM261.608 127.552C261.811 127.552 261.992 127.605 262.152 127.712C262.312 127.819 262.392 127.989 262.392 128.224V134.8C262.392 135.035 262.312 135.205 262.152 135.312C261.992 135.419 261.811 135.472 261.608 135.472C261.395 135.472 261.208 135.419 261.048 135.312C260.888 135.205 260.808 135.035 260.808 134.8V132.256H257.032V130.896H260.808V128.224C260.808 127.989 260.888 127.819 261.048 127.712C261.208 127.605 261.395 127.552 261.608 127.552ZM260.568 136.16C260.771 136.16 260.952 136.213 261.112 136.32C261.272 136.427 261.352 136.597 261.352 136.832V137.776C261.352 138 261.363 138.203 261.384 138.384C261.416 138.555 261.459 138.72 261.512 138.88C261.565 139.029 261.64 139.173 261.736 139.312C261.832 139.451 261.955 139.6 262.104 139.76C262.317 139.995 262.525 140.224 262.728 140.448C262.941 140.672 263.155 140.885 263.368 141.088C263.507 141.216 263.565 141.365 263.544 141.536C263.523 141.717 263.448 141.867 263.32 141.984C263.181 142.123 263.021 142.192 262.84 142.192C262.659 142.203 262.499 142.139 262.36 142C262.179 141.829 261.992 141.648 261.8 141.456C261.619 141.264 261.453 141.093 261.304 140.944C261.048 140.645 260.872 140.416 260.776 140.256C260.68 140.107 260.616 139.957 260.584 139.808H260.568C260.547 139.968 260.483 140.128 260.376 140.288C260.28 140.448 260.104 140.677 259.848 140.976C259.699 141.125 259.528 141.296 259.336 141.488C259.155 141.68 258.973 141.861 258.792 142.032C258.653 142.171 258.493 142.235 258.312 142.224C258.131 142.213 257.971 142.144 257.832 142.016C257.704 141.888 257.629 141.733 257.608 141.552C257.587 141.371 257.64 141.216 257.768 141.088C258.195 140.672 258.621 140.229 259.048 139.76C259.187 139.6 259.304 139.451 259.4 139.312C259.496 139.173 259.571 139.029 259.624 138.88C259.688 138.72 259.731 138.555 259.752 138.384C259.773 138.203 259.784 138 259.784 137.776V136.832C259.784 136.597 259.864 136.427 260.024 136.32C260.184 136.213 260.365 136.16 260.568 136.16ZM253.48 140.704C253.48 140.917 253.587 141.024 253.8 141.024H255.544C255.757 141.024 255.864 140.917 255.864 140.704V139.376H253.48V140.704ZM252.76 136.16C252.941 136.16 253.107 136.208 253.256 136.304C253.405 136.4 253.48 136.555 253.48 136.768V138.16H255.864V136.768C255.864 136.555 255.939 136.4 256.088 136.304C256.237 136.208 256.403 136.16 256.584 136.16C256.765 136.16 256.931 136.208 257.08 136.304C257.229 136.4 257.304 136.555 257.304 136.768V141.04C257.304 141.285 257.283 141.483 257.24 141.632C257.208 141.792 257.144 141.915 257.048 142C256.963 142.085 256.84 142.144 256.68 142.176C256.52 142.219 256.317 142.24 256.072 142.24H253.272C253.027 142.24 252.824 142.219 252.664 142.176C252.504 142.144 252.376 142.085 252.28 142C252.195 141.915 252.131 141.792 252.088 141.632C252.056 141.483 252.04 141.285 252.04 141.04V136.768C252.04 136.555 252.115 136.4 252.264 136.304C252.413 136.208 252.579 136.16 252.76 136.16ZM268.954 128.384C270.181 128.384 271.104 128.789 271.722 129.6C272.352 130.411 272.666 131.595 272.666 133.152C272.666 134.709 272.352 135.893 271.722 136.704C271.104 137.515 270.181 137.92 268.954 137.92C267.728 137.92 266.805 137.515 266.186 136.704C265.568 135.893 265.258 134.709 265.258 133.152C265.258 131.595 265.568 130.411 266.186 129.6C266.805 128.789 267.728 128.384 268.954 128.384ZM268.954 129.792C268.186 129.792 267.637 130.08 267.306 130.656C266.976 131.221 266.81 132.053 266.81 133.152C266.81 134.251 266.976 135.088 267.306 135.664C267.637 136.229 268.186 136.512 268.954 136.512C269.733 136.512 270.288 136.229 270.618 135.664C270.949 135.088 271.114 134.251 271.114 133.152C271.114 132.053 270.949 131.221 270.618 130.656C270.288 130.08 269.733 129.792 268.954 129.792ZM276.154 127.552C276.368 127.552 276.554 127.605 276.714 127.712C276.874 127.819 276.954 127.989 276.954 128.224V140.704C276.954 140.939 276.874 141.109 276.714 141.216C276.554 141.323 276.368 141.376 276.154 141.376C275.952 141.376 275.77 141.323 275.61 141.216C275.45 141.109 275.37 140.939 275.37 140.704V133.824H271.642V132.464H275.37V128.224C275.37 127.989 275.45 127.819 275.61 127.712C275.77 127.605 275.952 127.552 276.154 127.552ZM286.077 128.112C286.845 128.112 287.533 128.197 288.141 128.368C288.76 128.539 289.277 128.789 289.693 129.12C290.12 129.44 290.445 129.84 290.669 130.32C290.893 130.789 291.005 131.323 291.005 131.92C291.005 133.125 290.568 134.064 289.693 134.736C288.829 135.397 287.624 135.728 286.077 135.728C284.53 135.728 283.325 135.397 282.461 134.736C281.597 134.064 281.165 133.125 281.165 131.92C281.165 131.323 281.277 130.789 281.501 130.32C281.725 129.84 282.045 129.44 282.461 129.12C282.888 128.789 283.405 128.539 284.013 128.368C284.621 128.197 285.309 128.112 286.077 128.112ZM286.077 129.472C285.501 129.472 285.005 129.536 284.589 129.664C284.173 129.781 283.826 129.952 283.549 130.176C283.282 130.389 283.085 130.645 282.957 130.944C282.829 131.243 282.765 131.568 282.765 131.92C282.765 132.272 282.829 132.597 282.957 132.896C283.085 133.195 283.282 133.456 283.549 133.68C283.826 133.893 284.173 134.064 284.589 134.192C285.005 134.309 285.501 134.368 286.077 134.368C286.653 134.368 287.149 134.309 287.565 134.192C287.981 134.064 288.322 133.893 288.589 133.68C288.866 133.456 289.069 133.195 289.197 132.896C289.325 132.597 289.389 132.272 289.389 131.92C289.389 131.568 289.325 131.243 289.197 130.944C289.069 130.645 288.866 130.389 288.589 130.176C288.322 129.952 287.981 129.781 287.565 129.664C287.149 129.536 286.653 129.472 286.077 129.472ZM283.613 136.048C283.826 136.048 284.013 136.101 284.173 136.208C284.333 136.315 284.413 136.48 284.413 136.704V138.64H287.741V136.704C287.741 136.48 287.821 136.315 287.981 136.208C288.141 136.101 288.328 136.048 288.541 136.048C288.754 136.048 288.941 136.101 289.101 136.208C289.261 136.315 289.341 136.48 289.341 136.704V138.64H292.237C292.429 138.64 292.568 138.704 292.653 138.832C292.749 138.96 292.797 139.115 292.797 139.296C292.797 139.477 292.749 139.637 292.653 139.776C292.568 139.915 292.429 139.984 292.237 139.984H279.917C279.725 139.984 279.581 139.915 279.485 139.776C279.4 139.637 279.357 139.477 279.357 139.296C279.357 139.115 279.4 138.96 279.485 138.832C279.581 138.704 279.725 138.64 279.917 138.64H282.813V136.704C282.813 136.48 282.893 136.315 283.053 136.208C283.213 136.101 283.4 136.048 283.613 136.048ZM295.343 138.416C295.653 138.416 295.909 138.517 296.111 138.72C296.325 138.923 296.431 139.179 296.431 139.488C296.431 139.797 296.325 140.053 296.111 140.256C295.909 140.469 295.653 140.576 295.343 140.576C295.034 140.576 294.778 140.469 294.575 140.256C294.373 140.053 294.271 139.797 294.271 139.488C294.271 139.179 294.373 138.923 294.575 138.72C294.778 138.517 295.034 138.416 295.343 138.416ZM58.8219 152.656C59.0139 152.656 59.1526 152.725 59.2379 152.864C59.3339 153.003 59.3819 153.163 59.3819 153.344C59.3819 153.525 59.3339 153.685 59.2379 153.824C59.1526 153.963 59.0139 154.032 58.8219 154.032H56.1979V155.568C56.1979 155.92 56.2139 156.235 56.2459 156.512C56.2886 156.789 56.3579 157.051 56.4539 157.296C56.5499 157.531 56.6779 157.76 56.8379 157.984C56.9979 158.208 57.1953 158.437 57.4299 158.672C57.7713 159.013 58.1019 159.339 58.4219 159.648C58.7419 159.957 59.0353 160.224 59.3019 160.448C59.4619 160.597 59.5259 160.768 59.4939 160.96C59.4726 161.152 59.3979 161.312 59.2699 161.44C59.1419 161.579 58.9873 161.664 58.8059 161.696C58.6246 161.728 58.4539 161.675 58.2939 161.536C58.0593 161.323 57.7979 161.083 57.5099 160.816C57.2326 160.539 56.9286 160.24 56.5979 159.92C56.3739 159.685 56.1873 159.488 56.0379 159.328C55.8886 159.157 55.7659 159.008 55.6699 158.88C55.5846 158.752 55.5206 158.64 55.4779 158.544C55.4353 158.448 55.4086 158.357 55.3979 158.272H55.3819C55.3606 158.368 55.3286 158.464 55.2859 158.56C55.2433 158.656 55.1793 158.768 55.0939 158.896C55.0086 159.024 54.8913 159.173 54.7419 159.344C54.5926 159.515 54.4006 159.717 54.1659 159.952C53.8459 160.272 53.5313 160.581 53.2219 160.88C52.9126 161.179 52.5873 161.477 52.2459 161.776C52.0753 161.925 51.8939 161.973 51.7019 161.92C51.5099 161.867 51.3553 161.771 51.2379 161.632C51.1099 161.483 51.0406 161.317 51.0299 161.136C51.0299 160.944 51.1099 160.779 51.2699 160.64C51.6433 160.309 51.9953 159.984 52.3259 159.664C52.6566 159.344 52.9926 159.013 53.3339 158.672C53.5686 158.437 53.7659 158.208 53.9259 157.984C54.0859 157.76 54.2139 157.531 54.3099 157.296C54.4059 157.051 54.4699 156.789 54.5019 156.512C54.5446 156.235 54.5659 155.92 54.5659 155.568V154.032H51.8619C51.6593 154.032 51.5099 153.963 51.4139 153.824C51.3286 153.685 51.2859 153.525 51.2859 153.344C51.2859 153.163 51.3286 153.003 51.4139 152.864C51.5099 152.725 51.6593 152.656 51.8619 152.656H58.8219ZM61.8939 151.552C62.1073 151.552 62.2939 151.605 62.4539 151.712C62.6246 151.819 62.7099 151.989 62.7099 152.224V164.704C62.7099 164.939 62.6246 165.109 62.4539 165.216C62.2939 165.323 62.1073 165.376 61.8939 165.376C61.6913 165.376 61.5046 165.323 61.3339 165.216C61.1739 165.109 61.0939 164.939 61.0939 164.704V152.224C61.0939 151.989 61.1739 151.819 61.3339 151.712C61.5046 151.605 61.6913 151.552 61.8939 151.552ZM75.4484 152.144C75.9178 152.144 76.2378 152.229 76.4084 152.4C76.5898 152.571 76.6804 152.885 76.6804 153.344V154.288C76.6804 154.661 76.6591 155.035 76.6164 155.408C76.5844 155.781 76.5364 156.144 76.4724 156.496C76.4191 156.837 76.3498 157.157 76.2644 157.456C76.1898 157.755 76.1098 158.016 76.0244 158.24L74.5844 157.936C74.9151 156.805 75.0804 155.627 75.0804 154.4V153.856C75.0804 153.739 75.0538 153.659 75.0004 153.616C74.9578 153.563 74.8724 153.536 74.7444 153.536H67.4484C67.2564 153.536 67.1178 153.467 67.0324 153.328C66.9471 153.189 66.9044 153.029 66.9044 152.848C66.9044 152.656 66.9471 152.491 67.0324 152.352C67.1178 152.213 67.2564 152.144 67.4484 152.144H75.4484ZM78.0884 157.504C78.2804 157.504 78.4191 157.573 78.5044 157.712C78.6004 157.851 78.6484 158.011 78.6484 158.192C78.6484 158.373 78.6004 158.533 78.5044 158.672C78.4191 158.8 78.2804 158.864 78.0884 158.864H65.7684C65.5764 158.864 65.4324 158.8 65.3364 158.672C65.2511 158.533 65.2084 158.373 65.2084 158.192C65.2084 158.011 65.2511 157.851 65.3364 157.712C65.4324 157.573 65.5764 157.504 65.7684 157.504H78.0884ZM75.6084 160.768C76.0778 160.768 76.3978 160.853 76.5684 161.024C76.7498 161.195 76.8404 161.509 76.8404 161.968V165.056C76.8404 165.515 76.7498 165.829 76.5684 166C76.3978 166.171 76.0778 166.256 75.6084 166.256H68.2484C67.7791 166.256 67.4591 166.171 67.2884 166C67.1178 165.829 67.0324 165.515 67.0324 165.056V161.968C67.0324 161.509 67.1178 161.195 67.2884 161.024C67.4591 160.853 67.7791 160.768 68.2484 160.768H75.6084ZM68.9524 162.096C68.8244 162.096 68.7338 162.123 68.6804 162.176C68.6378 162.219 68.6164 162.299 68.6164 162.416V164.608C68.6164 164.725 68.6378 164.805 68.6804 164.848C68.7338 164.901 68.8244 164.928 68.9524 164.928H74.9044C75.0324 164.928 75.1178 164.901 75.1604 164.848C75.2138 164.805 75.2404 164.725 75.2404 164.608V162.416C75.2404 162.299 75.2138 162.219 75.1604 162.176C75.1178 162.123 75.0324 162.096 74.9044 162.096H68.9524ZM85.0989 152.496C85.3016 152.496 85.4829 152.549 85.6429 152.656C85.8136 152.763 85.8989 152.933 85.8989 153.168V155.92H89.6269V153.168C89.6269 152.933 89.7069 152.763 89.8669 152.656C90.0269 152.549 90.2083 152.496 90.4109 152.496C90.6136 152.496 90.7949 152.549 90.9549 152.656C91.1149 152.763 91.1949 152.933 91.1949 153.168V160.512C91.1949 160.971 91.1043 161.285 90.9229 161.456C90.7523 161.627 90.4323 161.712 89.9629 161.712H85.5469C85.0776 161.712 84.7523 161.627 84.5709 161.456C84.4003 161.285 84.3149 160.971 84.3149 160.512V153.168C84.3149 152.933 84.3949 152.763 84.5549 152.656C84.7149 152.549 84.8963 152.496 85.0989 152.496ZM85.8989 160.016C85.8989 160.144 85.9203 160.235 85.9629 160.288C86.0163 160.331 86.1069 160.352 86.2349 160.352H89.2909C89.4083 160.352 89.4936 160.331 89.5469 160.288C89.6003 160.235 89.6269 160.144 89.6269 160.016V157.28H85.8989V160.016ZM94.3469 151.552C94.5603 151.552 94.7469 151.605 94.9069 151.712C95.0669 151.819 95.1469 151.989 95.1469 152.224V156.384H96.9069C97.1203 156.384 97.2696 156.453 97.3549 156.592C97.4509 156.72 97.4989 156.88 97.4989 157.072C97.4989 157.264 97.4509 157.429 97.3549 157.568C97.2696 157.707 97.1203 157.776 96.9069 157.776H95.1469V164.704C95.1469 164.939 95.0669 165.109 94.9069 165.216C94.7469 165.323 94.5603 165.376 94.3469 165.376C94.1336 165.376 93.9469 165.323 93.7869 165.216C93.6269 165.109 93.5469 164.939 93.5469 164.704V152.224C93.5469 151.989 93.6269 151.819 93.7869 151.712C93.9469 151.605 94.1336 151.552 94.3469 151.552ZM108.653 152.384C109.123 152.384 109.443 152.469 109.613 152.64C109.795 152.811 109.885 153.125 109.885 153.584V155.712C109.885 156.16 109.795 156.469 109.613 156.64C109.443 156.811 109.123 156.896 108.653 156.896H102.109C101.885 156.896 101.773 157.008 101.773 157.232V158.432C101.773 158.645 101.885 158.752 102.109 158.752H109.677C109.869 158.752 110.008 158.821 110.093 158.96C110.189 159.099 110.237 159.259 110.237 159.44C110.237 159.621 110.189 159.781 110.093 159.92C110.008 160.048 109.869 160.112 109.677 160.112H101.437C100.968 160.112 100.643 160.027 100.461 159.856C100.291 159.685 100.205 159.371 100.205 158.912V156.784C100.205 156.325 100.291 156.016 100.461 155.856C100.643 155.685 100.968 155.6 101.437 155.6H107.981C108.205 155.6 108.317 155.488 108.317 155.264V154.08C108.317 153.856 108.205 153.744 107.981 153.744H100.733C100.541 153.744 100.397 153.68 100.301 153.552C100.216 153.413 100.173 153.253 100.173 153.072C100.173 152.891 100.216 152.731 100.301 152.592C100.397 152.453 100.541 152.384 100.733 152.384H108.653ZM105.853 162.624H111.213C111.405 162.624 111.544 162.693 111.629 162.832C111.725 162.96 111.773 163.115 111.773 163.296C111.773 163.477 111.725 163.637 111.629 163.776C111.544 163.915 111.405 163.984 111.213 163.984H98.8934C98.7014 163.984 98.5574 163.915 98.4614 163.776C98.3761 163.637 98.3334 163.477 98.3334 163.296C98.3334 163.115 98.3761 162.96 98.4614 162.832C98.5574 162.693 98.7014 162.624 98.8934 162.624H104.253V159.424H105.853V162.624ZM121.52 151.392C121.733 151.392 121.92 151.445 122.08 151.552C122.24 151.659 122.32 151.829 122.32 152.064V153.248H124.976C125.168 153.248 125.307 153.317 125.392 153.456C125.488 153.595 125.536 153.755 125.536 153.936C125.536 154.117 125.488 154.277 125.392 154.416C125.307 154.544 125.168 154.608 124.976 154.608H122.32V155.392C122.32 155.872 122.395 156.267 122.544 156.576C122.704 156.885 122.965 157.173 123.328 157.44C123.701 157.717 124.048 157.968 124.368 158.192C124.688 158.405 124.971 158.592 125.216 158.752C125.397 158.869 125.499 159.024 125.52 159.216C125.552 159.408 125.509 159.579 125.392 159.728C125.307 159.867 125.173 159.968 124.992 160.032C124.821 160.096 124.629 160.064 124.416 159.936C124.235 159.819 123.995 159.664 123.696 159.472C123.408 159.269 123.099 159.045 122.768 158.8C122.352 158.501 122.053 158.251 121.872 158.048C121.691 157.845 121.584 157.664 121.552 157.504H121.536C121.493 157.685 121.376 157.883 121.184 158.096C121.003 158.309 120.699 158.571 120.272 158.88C119.931 159.125 119.6 159.36 119.28 159.584C118.96 159.797 118.645 160.005 118.336 160.208C118.155 160.325 117.973 160.352 117.792 160.288C117.611 160.213 117.477 160.107 117.392 159.968C117.285 159.808 117.237 159.637 117.248 159.456C117.259 159.264 117.36 159.104 117.552 158.976C117.904 158.741 118.256 158.507 118.608 158.272C118.96 158.027 119.328 157.765 119.712 157.488C120.075 157.211 120.331 156.923 120.48 156.624C120.64 156.315 120.72 155.92 120.72 155.44V154.608H117.952C117.749 154.608 117.6 154.544 117.504 154.416C117.419 154.277 117.376 154.117 117.376 153.936C117.376 153.755 117.419 153.595 117.504 153.456C117.6 153.317 117.749 153.248 117.952 153.248H120.72V152.064C120.72 151.829 120.8 151.659 120.96 151.552C121.131 151.445 121.317 151.392 121.52 151.392ZM128.272 151.552C128.475 151.552 128.656 151.605 128.816 151.712C128.976 151.819 129.056 151.989 129.056 152.224V160.608C129.056 160.843 128.976 161.013 128.816 161.12C128.656 161.227 128.475 161.28 128.272 161.28C128.059 161.28 127.872 161.227 127.712 161.12C127.552 161.013 127.472 160.843 127.472 160.608V157.168H125.216C125.024 157.168 124.88 157.099 124.784 156.96C124.699 156.821 124.656 156.661 124.656 156.48C124.656 156.299 124.699 156.139 124.784 156C124.88 155.861 125.024 155.792 125.216 155.792H127.472V152.224C127.472 151.989 127.552 151.819 127.712 151.712C127.872 151.605 128.059 151.552 128.272 151.552ZM124.352 160.512C124.565 160.512 124.752 160.565 124.912 160.672C125.072 160.779 125.152 160.944 125.152 161.168V161.472C125.152 161.984 125.259 162.389 125.472 162.688C125.685 162.987 126.037 163.269 126.528 163.536C126.997 163.781 127.456 164.011 127.904 164.224C128.363 164.437 128.837 164.651 129.328 164.864C129.509 164.949 129.616 165.077 129.648 165.248C129.68 165.429 129.659 165.595 129.584 165.744C129.499 165.925 129.371 166.053 129.2 166.128C129.04 166.213 128.864 166.213 128.672 166.128C128.213 165.936 127.781 165.739 127.376 165.536C126.981 165.344 126.581 165.141 126.176 164.928C125.867 164.768 125.6 164.619 125.376 164.48C125.163 164.341 124.987 164.208 124.848 164.08C124.709 163.963 124.603 163.851 124.528 163.744C124.453 163.637 124.4 163.531 124.368 163.424H124.352C124.299 163.637 124.133 163.861 123.856 164.096C123.589 164.341 123.147 164.629 122.528 164.96C122.123 165.173 121.717 165.376 121.312 165.568C120.917 165.771 120.491 165.968 120.032 166.16C119.84 166.245 119.659 166.245 119.488 166.16C119.328 166.085 119.205 165.957 119.12 165.776C119.045 165.605 119.024 165.429 119.056 165.248C119.088 165.077 119.189 164.949 119.36 164.864C119.861 164.651 120.336 164.437 120.784 164.224C121.243 164.011 121.701 163.781 122.16 163.536C122.651 163.269 123.003 162.987 123.216 162.688C123.44 162.389 123.552 161.984 123.552 161.472V161.168C123.552 160.944 123.632 160.779 123.792 160.672C123.952 160.565 124.139 160.512 124.352 160.512ZM137.01 152.336C137.213 152.336 137.394 152.389 137.554 152.496C137.725 152.603 137.81 152.773 137.81 153.008V154.944H141.426V153.008C141.426 152.773 141.506 152.603 141.666 152.496C141.826 152.389 142.008 152.336 142.21 152.336C142.413 152.336 142.594 152.389 142.754 152.496C142.925 152.603 143.01 152.773 143.01 153.008V158.512C143.01 158.971 142.92 159.285 142.738 159.456C142.568 159.627 142.248 159.712 141.778 159.712H137.458C136.989 159.712 136.664 159.627 136.482 159.456C136.312 159.285 136.226 158.971 136.226 158.512V153.008C136.226 152.773 136.306 152.603 136.466 152.496C136.626 152.389 136.808 152.336 137.01 152.336ZM137.81 158.048C137.81 158.165 137.832 158.251 137.874 158.304C137.928 158.357 138.018 158.384 138.146 158.384H141.09C141.314 158.384 141.426 158.272 141.426 158.048V156.272H137.81V158.048ZM146.834 151.552C147.037 151.552 147.218 151.605 147.378 151.712C147.538 151.819 147.618 151.989 147.618 152.224V161.696C147.618 161.931 147.538 162.101 147.378 162.208C147.218 162.315 147.037 162.368 146.834 162.368C146.621 162.368 146.434 162.315 146.274 162.208C146.114 162.101 146.034 161.931 146.034 161.696V156.72H142.274V155.36H146.034V152.224C146.034 151.989 146.114 151.819 146.274 151.712C146.434 151.605 146.621 151.552 146.834 151.552ZM139.026 161.12C139.229 161.12 139.41 161.173 139.57 161.28C139.741 161.387 139.826 161.557 139.826 161.792V164.4C139.826 164.517 139.848 164.597 139.89 164.64C139.944 164.693 140.034 164.72 140.162 164.72H147.426C147.629 164.72 147.773 164.789 147.858 164.928C147.954 165.067 148.002 165.232 148.002 165.424C148.002 165.605 147.954 165.765 147.858 165.904C147.773 166.043 147.629 166.112 147.426 166.112H139.442C138.973 166.112 138.648 166.027 138.466 165.856C138.296 165.685 138.21 165.371 138.21 164.912V161.792C138.21 161.557 138.29 161.387 138.45 161.28C138.621 161.173 138.813 161.12 139.026 161.12ZM157.445 152.832C157.637 152.832 157.776 152.901 157.861 153.04C157.957 153.179 158.005 153.339 158.005 153.52C158.005 153.701 157.957 153.861 157.861 154C157.776 154.128 157.637 154.192 157.445 154.192H156.469V155.68C156.469 156.011 156.474 156.304 156.485 156.56C156.496 156.805 156.517 157.04 156.549 157.264C156.592 157.477 156.645 157.685 156.709 157.888C156.784 158.091 156.88 158.309 156.997 158.544C157.168 158.864 157.344 159.184 157.525 159.504C157.706 159.824 157.882 160.123 158.053 160.4C158.16 160.571 158.192 160.741 158.149 160.912C158.106 161.083 158.01 161.216 157.861 161.312C157.722 161.397 157.568 161.44 157.397 161.44C157.226 161.429 157.082 161.333 156.965 161.152C156.816 160.928 156.682 160.709 156.565 160.496C156.448 160.272 156.314 160.032 156.165 159.776C156.026 159.531 155.925 159.328 155.861 159.168C155.808 158.997 155.77 158.832 155.749 158.672H155.733C155.712 158.843 155.669 159.013 155.605 159.184C155.541 159.355 155.44 159.573 155.301 159.84C155.184 160.053 155.061 160.277 154.933 160.512C154.816 160.736 154.682 160.965 154.533 161.2C154.384 161.424 154.213 161.536 154.021 161.536C153.829 161.536 153.658 161.424 153.509 161.2C153.221 160.731 152.97 160.277 152.757 159.84C152.618 159.573 152.512 159.355 152.437 159.184C152.373 159.013 152.33 158.843 152.309 158.672H152.293C152.272 158.843 152.229 159.013 152.165 159.184C152.112 159.344 152.016 159.547 151.877 159.792C151.728 160.048 151.589 160.293 151.461 160.528C151.333 160.752 151.184 160.987 151.013 161.232C150.896 161.413 150.752 161.509 150.581 161.52C150.41 161.52 150.256 161.477 150.117 161.392C149.968 161.296 149.872 161.163 149.829 160.992C149.786 160.821 149.818 160.651 149.925 160.48C150.106 160.181 150.293 159.867 150.485 159.536C150.688 159.195 150.874 158.864 151.045 158.544C151.162 158.299 151.253 158.075 151.317 157.872C151.392 157.669 151.445 157.461 151.477 157.248C151.52 157.024 151.546 156.789 151.557 156.544C151.568 156.299 151.573 156.011 151.573 155.68V154.192H150.629C150.426 154.192 150.277 154.128 150.181 154C150.096 153.861 150.053 153.701 150.053 153.52C150.053 153.339 150.096 153.179 150.181 153.04C150.277 152.901 150.426 152.832 150.629 152.832H157.445ZM153.013 155.68C153.013 156.288 153.034 156.773 153.077 157.136C153.12 157.488 153.2 157.813 153.317 158.112C153.402 158.325 153.482 158.528 153.557 158.72C153.642 158.901 153.738 159.088 153.845 159.28C153.92 159.429 153.978 159.504 154.021 159.504C154.064 159.504 154.128 159.429 154.213 159.28C154.309 159.088 154.4 158.901 154.485 158.72C154.57 158.528 154.656 158.325 154.741 158.112C154.848 157.813 154.922 157.488 154.965 157.136C155.008 156.773 155.029 156.288 155.029 155.68V154.192H153.013V155.68ZM162.069 151.552C162.261 151.552 162.426 151.6 162.565 151.696C162.714 151.792 162.789 151.947 162.789 152.16V164.768C162.789 164.981 162.714 165.136 162.565 165.232C162.426 165.328 162.261 165.376 162.069 165.376C161.888 165.376 161.722 165.328 161.573 165.232C161.434 165.136 161.365 164.981 161.365 164.768V157.824H159.957V164.096C159.957 164.309 159.882 164.464 159.733 164.56C159.594 164.656 159.434 164.704 159.253 164.704C159.061 164.704 158.89 164.656 158.741 164.56C158.602 164.464 158.533 164.309 158.533 164.096V152.32C158.533 152.107 158.602 151.952 158.741 151.856C158.89 151.76 159.061 151.712 159.253 151.712C159.434 151.712 159.594 151.76 159.733 151.856C159.882 151.952 159.957 152.107 159.957 152.32V156.464H161.365V152.16C161.365 151.947 161.434 151.792 161.573 151.696C161.722 151.6 161.888 151.552 162.069 151.552ZM172.887 152.368C174.135 152.368 175.074 152.779 175.703 153.6C176.333 154.411 176.647 155.595 176.647 157.152C176.647 158.709 176.333 159.899 175.703 160.72C175.074 161.531 174.135 161.936 172.887 161.936C171.639 161.936 170.701 161.531 170.071 160.72C169.453 159.899 169.143 158.709 169.143 157.152C169.143 155.595 169.453 154.411 170.071 153.6C170.701 152.779 171.639 152.368 172.887 152.368ZM172.887 153.776C172.098 153.776 171.533 154.064 171.191 154.64C170.861 155.216 170.695 156.053 170.695 157.152C170.695 158.251 170.861 159.088 171.191 159.664C171.533 160.24 172.098 160.528 172.887 160.528C173.687 160.528 174.253 160.24 174.583 159.664C174.925 159.088 175.095 158.251 175.095 157.152C175.095 156.053 174.925 155.216 174.583 154.64C174.253 154.064 173.687 153.776 172.887 153.776ZM179.831 151.552C180.045 151.552 180.231 151.605 180.391 151.712C180.562 151.819 180.647 151.989 180.647 152.224V164.704C180.647 164.939 180.562 165.109 180.391 165.216C180.231 165.323 180.045 165.376 179.831 165.376C179.629 165.376 179.442 165.323 179.271 165.216C179.111 165.109 179.031 164.939 179.031 164.704V152.224C179.031 151.989 179.111 151.819 179.271 151.712C179.442 151.605 179.629 151.552 179.831 151.552ZM187.114 152.384C188.351 152.384 189.285 152.789 189.914 153.6C190.543 154.411 190.858 155.595 190.858 157.152C190.858 158.709 190.543 159.893 189.914 160.704C189.285 161.515 188.351 161.92 187.114 161.92C185.877 161.92 184.943 161.515 184.314 160.704C183.695 159.893 183.386 158.709 183.386 157.152C183.386 155.595 183.695 154.411 184.314 153.6C184.943 152.789 185.877 152.384 187.114 152.384ZM187.114 153.792C186.335 153.792 185.775 154.08 185.434 154.656C185.103 155.221 184.938 156.053 184.938 157.152C184.938 158.251 185.103 159.088 185.434 159.664C185.775 160.229 186.335 160.512 187.114 160.512C187.903 160.512 188.463 160.229 188.794 159.664C189.135 159.088 189.306 158.251 189.306 157.152C189.306 156.053 189.135 155.221 188.794 154.656C188.463 154.08 187.903 153.792 187.114 153.792ZM193.722 151.552C193.935 151.552 194.122 151.605 194.282 151.712C194.442 151.819 194.522 151.989 194.522 152.224V154.56H196.17C196.362 154.56 196.501 154.629 196.586 154.768C196.682 154.896 196.73 155.056 196.73 155.248C196.73 155.44 196.682 155.605 196.586 155.744C196.501 155.872 196.362 155.936 196.17 155.936H194.522V158.208H196.17C196.362 158.208 196.501 158.277 196.586 158.416C196.682 158.544 196.73 158.704 196.73 158.896C196.73 159.088 196.682 159.253 196.586 159.392C196.501 159.52 196.362 159.584 196.17 159.584H194.522V164.704C194.522 164.939 194.442 165.109 194.282 165.216C194.122 165.323 193.935 165.376 193.722 165.376C193.509 165.376 193.322 165.323 193.162 165.216C193.002 165.109 192.922 164.939 192.922 164.704V152.224C192.922 151.989 193.002 151.819 193.162 151.712C193.322 151.605 193.509 151.552 193.722 151.552ZM203.996 152.64C204.466 152.64 204.786 152.725 204.956 152.896C205.138 153.067 205.228 153.381 205.228 153.84V155.648C205.228 156.096 205.202 156.501 205.148 156.864C205.095 157.216 204.994 157.552 204.844 157.872C204.695 158.192 204.487 158.507 204.22 158.816C203.954 159.115 203.607 159.435 203.18 159.776C202.764 160.107 202.258 160.469 201.66 160.864C201.063 161.259 200.354 161.707 199.532 162.208C199.351 162.315 199.17 162.336 198.988 162.272C198.807 162.197 198.663 162.085 198.556 161.936C198.45 161.787 198.396 161.611 198.396 161.408C198.407 161.205 198.503 161.045 198.684 160.928C199.442 160.469 200.087 160.069 200.62 159.728C201.164 159.376 201.618 159.061 201.98 158.784C202.343 158.496 202.631 158.235 202.844 158C203.068 157.755 203.239 157.515 203.356 157.28C203.474 157.035 203.548 156.779 203.58 156.512C203.612 156.235 203.628 155.925 203.628 155.584V154.352C203.628 154.235 203.602 154.155 203.548 154.112C203.506 154.059 203.42 154.032 203.292 154.032H199.132C198.93 154.032 198.78 153.963 198.684 153.824C198.599 153.685 198.556 153.525 198.556 153.344C198.556 153.152 198.599 152.987 198.684 152.848C198.78 152.709 198.93 152.64 199.132 152.64H203.996ZM208.956 151.552C209.17 151.552 209.356 151.605 209.516 151.712C209.687 151.819 209.772 151.989 209.772 152.224V164.704C209.772 164.939 209.687 165.109 209.516 165.216C209.356 165.323 209.17 165.376 208.956 165.376C208.754 165.376 208.567 165.323 208.396 165.216C208.236 165.109 208.156 164.939 208.156 164.704V152.224C208.156 151.989 208.236 151.819 208.396 151.712C208.567 151.605 208.754 151.552 208.956 151.552ZM222.559 151.824C223.028 151.824 223.348 151.909 223.519 152.08C223.7 152.251 223.791 152.565 223.791 153.024V154.048C223.791 154.496 223.7 154.805 223.519 154.976C223.348 155.147 223.028 155.232 222.559 155.232H215.967C215.796 155.232 215.711 155.317 215.711 155.488V156.016C215.711 156.176 215.796 156.256 215.967 156.256H223.631C223.812 156.256 223.94 156.32 224.015 156.448C224.1 156.565 224.143 156.704 224.143 156.864C224.143 157.024 224.1 157.168 224.015 157.296C223.94 157.413 223.812 157.472 223.631 157.472H215.407C214.938 157.472 214.612 157.392 214.431 157.232C214.26 157.061 214.175 156.747 214.175 156.288V155.264C214.175 154.805 214.26 154.491 214.431 154.32C214.612 154.149 214.938 154.064 215.407 154.064H221.999C222.17 154.064 222.255 153.979 222.255 153.808V153.296C222.255 153.136 222.17 153.056 221.999 153.056H214.655C214.474 153.056 214.34 152.997 214.255 152.88C214.18 152.752 214.143 152.608 214.143 152.448C214.143 152.288 214.18 152.144 214.255 152.016C214.34 151.888 214.474 151.824 214.655 151.824H222.559ZM225.167 158.464C225.348 158.464 225.482 158.528 225.567 158.656C225.663 158.773 225.711 158.923 225.711 159.104C225.711 159.285 225.663 159.435 225.567 159.552C225.482 159.669 225.348 159.728 225.167 159.728H212.815C212.634 159.728 212.495 159.669 212.399 159.552C212.314 159.435 212.271 159.285 212.271 159.104C212.271 158.923 212.314 158.773 212.399 158.656C212.495 158.528 212.634 158.464 212.815 158.464H225.167ZM222.655 160.72C223.124 160.72 223.444 160.805 223.615 160.976C223.796 161.147 223.887 161.461 223.887 161.92V162.928C223.887 163.387 223.796 163.701 223.615 163.872C223.444 164.043 223.124 164.128 222.655 164.128H215.871C215.7 164.128 215.615 164.208 215.615 164.368V164.896C215.615 165.056 215.7 165.136 215.871 165.136H223.711C223.892 165.136 224.026 165.2 224.111 165.328C224.196 165.456 224.239 165.595 224.239 165.744C224.239 165.915 224.196 166.059 224.111 166.176C224.026 166.304 223.892 166.368 223.711 166.368H215.311C214.842 166.368 214.516 166.283 214.335 166.112C214.164 165.941 214.079 165.627 214.079 165.168V164.144C214.079 163.685 214.164 163.371 214.335 163.2C214.516 163.029 214.842 162.944 215.311 162.944H222.095C222.255 162.944 222.335 162.864 222.335 162.704V162.192C222.335 162.021 222.255 161.936 222.095 161.936H214.559C214.378 161.936 214.244 161.877 214.159 161.76C214.084 161.632 214.047 161.488 214.047 161.328C214.047 161.168 214.084 161.029 214.159 160.912C214.244 160.784 214.378 160.72 214.559 160.72H222.655ZM236.993 152.464C237.463 152.464 237.783 152.549 237.953 152.72C238.135 152.891 238.225 153.205 238.225 153.664V158.304C238.225 158.763 238.135 159.077 237.953 159.248C237.783 159.419 237.463 159.504 236.993 159.504H232.593C232.124 159.504 231.799 159.419 231.617 159.248C231.447 159.077 231.361 158.763 231.361 158.304V153.664C231.361 153.205 231.447 152.891 231.617 152.72C231.799 152.549 232.124 152.464 232.593 152.464H236.993ZM233.281 153.824C233.153 153.824 233.063 153.851 233.009 153.904C232.967 153.947 232.945 154.032 232.945 154.16V157.824C232.945 157.941 232.967 158.027 233.009 158.08C233.063 158.133 233.153 158.16 233.281 158.16H236.305C236.529 158.16 236.641 158.048 236.641 157.824V154.16C236.641 154.032 236.615 153.947 236.561 153.904C236.508 153.851 236.423 153.824 236.305 153.824H233.281ZM241.409 151.552C241.623 151.552 241.809 151.605 241.969 151.712C242.129 151.819 242.209 151.989 242.209 152.224V155.648H243.969C244.183 155.648 244.332 155.717 244.417 155.856C244.513 155.995 244.561 156.155 244.561 156.336C244.561 156.539 244.513 156.709 244.417 156.848C244.332 156.976 244.183 157.04 243.969 157.04H242.209V161.696C242.209 161.931 242.129 162.101 241.969 162.208C241.809 162.315 241.623 162.368 241.409 162.368C241.196 162.368 241.009 162.315 240.849 162.208C240.689 162.101 240.609 161.931 240.609 161.696V152.224C240.609 151.989 240.689 151.819 240.849 151.712C241.009 151.605 241.196 151.552 241.409 151.552ZM233.841 161.024C234.044 161.024 234.225 161.077 234.385 161.184C234.556 161.291 234.641 161.461 234.641 161.696V164.4C234.641 164.517 234.663 164.597 234.705 164.64C234.759 164.693 234.849 164.72 234.977 164.72H242.017C242.22 164.72 242.364 164.789 242.449 164.928C242.545 165.067 242.593 165.232 242.593 165.424C242.593 165.605 242.545 165.765 242.449 165.904C242.364 166.043 242.22 166.112 242.017 166.112H234.257C233.788 166.112 233.463 166.027 233.281 165.856C233.111 165.685 233.025 165.371 233.025 164.912V161.696C233.025 161.461 233.105 161.291 233.265 161.184C233.436 161.077 233.628 161.024 233.841 161.024ZM256.404 151.888C256.585 151.888 256.719 151.952 256.804 152.08C256.889 152.208 256.932 152.363 256.932 152.544C256.932 152.725 256.889 152.88 256.804 153.008C256.719 153.136 256.585 153.2 256.404 153.2H249.188C249.071 153.2 248.985 153.227 248.932 153.28C248.879 153.323 248.852 153.408 248.852 153.536V154.992C248.852 155.12 248.879 155.211 248.932 155.264C248.985 155.307 249.071 155.328 249.188 155.328H256.564C256.745 155.328 256.879 155.392 256.964 155.52C257.049 155.637 257.092 155.787 257.092 155.968C257.092 156.149 257.049 156.309 256.964 156.448C256.879 156.576 256.745 156.64 256.564 156.64H248.468C247.999 156.64 247.679 156.555 247.508 156.384C247.337 156.213 247.252 155.899 247.252 155.44V153.088C247.252 152.629 247.337 152.315 247.508 152.144C247.679 151.973 247.999 151.888 248.468 151.888H256.404ZM258.292 157.856C258.473 157.856 258.607 157.92 258.692 158.048C258.788 158.165 258.836 158.315 258.836 158.496C258.836 158.688 258.788 158.848 258.692 158.976C258.607 159.104 258.473 159.168 258.292 159.168H245.94C245.759 159.168 245.62 159.104 245.524 158.976C245.439 158.848 245.396 158.688 245.396 158.496C245.396 158.315 245.439 158.165 245.524 158.048C245.62 157.92 245.759 157.856 245.94 157.856H258.292ZM255.78 160.4C256.249 160.4 256.569 160.485 256.74 160.656C256.921 160.827 257.012 161.141 257.012 161.6V162.784C257.012 163.243 256.921 163.557 256.74 163.728C256.569 163.899 256.249 163.984 255.78 163.984H249.012C248.841 163.984 248.756 164.064 248.756 164.224V164.88C248.756 165.04 248.841 165.12 249.012 165.12H256.836C257.017 165.12 257.151 165.184 257.236 165.312C257.321 165.44 257.364 165.584 257.364 165.744C257.364 165.915 257.321 166.059 257.236 166.176C257.151 166.304 257.017 166.368 256.836 166.368H248.436C247.967 166.368 247.641 166.283 247.46 166.112C247.289 165.941 247.204 165.627 247.204 165.168V163.984C247.204 163.525 247.289 163.211 247.46 163.04C247.641 162.869 247.967 162.784 248.436 162.784H255.204C255.375 162.784 255.46 162.704 255.46 162.544V161.904C255.46 161.733 255.375 161.648 255.204 161.648H247.684C247.503 161.648 247.369 161.589 247.284 161.472C247.209 161.344 247.172 161.195 247.172 161.024C247.172 160.864 247.209 160.72 247.284 160.592C247.369 160.464 247.503 160.4 247.684 160.4H255.78ZM264.118 152.384C265.345 152.384 266.268 152.789 266.886 153.6C267.516 154.411 267.83 155.595 267.83 157.152C267.83 158.709 267.516 159.893 266.886 160.704C266.268 161.515 265.345 161.92 264.118 161.92C262.892 161.92 261.969 161.515 261.35 160.704C260.732 159.893 260.422 158.709 260.422 157.152C260.422 155.595 260.732 154.411 261.35 153.6C261.969 152.789 262.892 152.384 264.118 152.384ZM264.118 153.792C263.35 153.792 262.801 154.08 262.47 154.656C262.14 155.221 261.974 156.053 261.974 157.152C261.974 158.251 262.14 159.088 262.47 159.664C262.801 160.229 263.35 160.512 264.118 160.512C264.897 160.512 265.452 160.229 265.782 159.664C266.113 159.088 266.278 158.251 266.278 157.152C266.278 156.053 266.113 155.221 265.782 154.656C265.452 154.08 264.897 153.792 264.118 153.792ZM271.318 151.552C271.532 151.552 271.718 151.605 271.878 151.712C272.038 151.819 272.118 151.989 272.118 152.224V164.704C272.118 164.939 272.038 165.109 271.878 165.216C271.718 165.323 271.532 165.376 271.318 165.376C271.116 165.376 270.934 165.323 270.774 165.216C270.614 165.109 270.534 164.939 270.534 164.704V157.824H266.806V156.464H270.534V152.224C270.534 151.989 270.614 151.819 270.774 151.712C270.934 151.605 271.116 151.552 271.318 151.552ZM276.169 152.384C276.372 152.384 276.553 152.437 276.713 152.544C276.873 152.651 276.953 152.816 276.953 153.04V154.64H281.145V153.04C281.145 152.816 281.225 152.651 281.385 152.544C281.556 152.437 281.737 152.384 281.929 152.384C282.132 152.384 282.313 152.437 282.473 152.544C282.633 152.651 282.713 152.816 282.713 153.04V157.888C282.713 158.347 282.622 158.661 282.441 158.832C282.27 159.003 281.95 159.088 281.481 159.088H276.617C276.148 159.088 275.822 159.003 275.641 158.832C275.47 158.661 275.385 158.347 275.385 157.888V153.04C275.385 152.816 275.465 152.651 275.625 152.544C275.785 152.437 275.966 152.384 276.169 152.384ZM276.953 157.488C276.953 157.68 277.049 157.776 277.241 157.776H280.857C281.049 157.776 281.145 157.68 281.145 157.488V155.936H276.953V157.488ZM285.369 151.552C285.582 151.552 285.769 151.605 285.929 151.712C286.089 151.819 286.169 151.984 286.169 152.208V156.864H287.721C287.934 156.864 288.084 156.933 288.169 157.072C288.265 157.2 288.313 157.36 288.313 157.552C288.313 157.744 288.265 157.909 288.169 158.048C288.084 158.187 287.934 158.256 287.721 158.256H286.169V164.72C286.169 164.944 286.089 165.109 285.929 165.216C285.769 165.323 285.582 165.376 285.369 165.376C285.166 165.376 284.985 165.323 284.825 165.216C284.665 165.109 284.585 164.944 284.585 164.72V152.208C284.585 151.984 284.665 151.819 284.825 151.712C284.985 151.605 285.166 151.552 285.369 151.552ZM283.161 161.296C283.342 161.275 283.481 161.323 283.577 161.44C283.673 161.557 283.732 161.712 283.753 161.904C283.774 162.085 283.742 162.245 283.657 162.384C283.582 162.523 283.454 162.603 283.273 162.624C282.046 162.741 280.74 162.821 279.353 162.864C277.966 162.907 276.532 162.928 275.049 162.928C274.857 162.928 274.713 162.859 274.617 162.72C274.532 162.581 274.489 162.421 274.489 162.24C274.489 162.059 274.532 161.904 274.617 161.776C274.713 161.637 274.857 161.568 275.049 161.568C275.582 161.568 276.116 161.568 276.649 161.568C277.193 161.568 277.737 161.563 278.281 161.552V158.24H279.849V161.504C280.393 161.483 280.937 161.456 281.481 161.424C282.036 161.392 282.596 161.349 283.161 161.296ZM295.803 152.112C296.571 152.112 297.259 152.197 297.867 152.368C298.486 152.539 299.003 152.789 299.419 153.12C299.846 153.44 300.171 153.84 300.395 154.32C300.619 154.789 300.731 155.323 300.731 155.92C300.731 157.125 300.294 158.064 299.419 158.736C298.555 159.397 297.35 159.728 295.803 159.728C294.257 159.728 293.051 159.397 292.187 158.736C291.323 158.064 290.891 157.125 290.891 155.92C290.891 155.323 291.003 154.789 291.227 154.32C291.451 153.84 291.771 153.44 292.187 153.12C292.614 152.789 293.131 152.539 293.739 152.368C294.347 152.197 295.035 152.112 295.803 152.112ZM295.803 153.472C295.227 153.472 294.731 153.536 294.315 153.664C293.899 153.781 293.553 153.952 293.275 154.176C293.009 154.389 292.811 154.645 292.683 154.944C292.555 155.243 292.491 155.568 292.491 155.92C292.491 156.272 292.555 156.597 292.683 156.896C292.811 157.195 293.009 157.456 293.275 157.68C293.553 157.893 293.899 158.064 294.315 158.192C294.731 158.309 295.227 158.368 295.803 158.368C296.379 158.368 296.875 158.309 297.291 158.192C297.707 158.064 298.049 157.893 298.315 157.68C298.593 157.456 298.795 157.195 298.923 156.896C299.051 156.597 299.115 156.272 299.115 155.92C299.115 155.568 299.051 155.243 298.923 154.944C298.795 154.645 298.593 154.389 298.315 154.176C298.049 153.952 297.707 153.781 297.291 153.664C296.875 153.536 296.379 153.472 295.803 153.472ZM293.339 160.048C293.553 160.048 293.739 160.101 293.899 160.208C294.059 160.315 294.139 160.48 294.139 160.704V162.64H297.467V160.704C297.467 160.48 297.547 160.315 297.707 160.208C297.867 160.101 298.054 160.048 298.267 160.048C298.481 160.048 298.667 160.101 298.827 160.208C298.987 160.315 299.067 160.48 299.067 160.704V162.64H301.963C302.155 162.64 302.294 162.704 302.379 162.832C302.475 162.96 302.523 163.115 302.523 163.296C302.523 163.477 302.475 163.637 302.379 163.776C302.294 163.915 302.155 163.984 301.963 163.984H289.643C289.451 163.984 289.307 163.915 289.211 163.776C289.126 163.637 289.083 163.477 289.083 163.296C289.083 163.115 289.126 162.96 289.211 162.832C289.307 162.704 289.451 162.64 289.643 162.64H292.539V160.704C292.539 160.48 292.619 160.315 292.779 160.208C292.939 160.101 293.126 160.048 293.339 160.048ZM305.502 152.16C305.769 152.16 305.982 152.219 306.142 152.336C306.313 152.453 306.393 152.651 306.382 152.928L306.19 160.48C306.179 160.736 306.105 160.917 305.966 161.024C305.838 161.12 305.683 161.168 305.502 161.168C305.321 161.168 305.161 161.12 305.022 161.024C304.894 160.917 304.83 160.736 304.83 160.48L304.622 152.928C304.622 152.651 304.702 152.453 304.862 152.336C305.022 152.219 305.235 152.16 305.502 152.16ZM305.502 162.48C305.801 162.48 306.051 162.581 306.254 162.784C306.457 162.976 306.558 163.221 306.558 163.52C306.558 163.819 306.457 164.069 306.254 164.272C306.051 164.475 305.801 164.576 305.502 164.576C305.203 164.576 304.953 164.475 304.75 164.272C304.547 164.069 304.446 163.819 304.446 163.52C304.446 163.221 304.547 162.976 304.75 162.784C304.953 162.581 305.203 162.48 305.502 162.48Z" fill="#BBBBBB"/>
</svg>
