<svg width="168" height="168" viewBox="0 0 168 168" fill="none" xmlns="http://www.w3.org/2000/svg">
<g clip-path="url(#clip0_1_9492)">
<path d="M20.2814 100.91C17.9611 100.91 15.6201 100.679 13.2584 100.218C10.9381 99.7141 8.78357 99.0007 6.79476 98.0774C4.84739 97.1122 3.27291 95.958 2.07134 94.6151C0.869768 93.2302 0.268982 91.6355 0.268982 89.8308C0.268982 87.5226 0.994072 85.6761 2.44424 84.2912C3.89441 82.9062 5.59319 82.2558 7.54057 82.3397C9.07361 82.3817 10.6066 82.7174 12.1397 83.3469C13.6728 83.9344 15.2265 84.522 16.801 85.1095C18.4169 85.697 20.0328 85.9908 21.6487 85.9908C23.2646 85.9908 24.3833 85.781 25.0048 85.3613C25.6263 84.9416 25.9371 84.3751 25.9371 83.6616C25.9371 82.8223 25.502 82.1299 24.6319 81.5843C23.7618 81.0387 22.6638 80.6191 21.3379 80.3253L18.2926 79.5698C15.1436 78.8144 12.3261 77.9751 9.84013 77.0518C7.35412 76.0866 5.38602 74.8276 3.93585 73.2748C2.52711 71.68 1.82274 69.5607 1.82274 66.9167C1.82274 64.021 2.60998 61.6708 4.18445 59.8662C5.75892 58.0197 7.89275 56.6767 10.5859 55.8374C13.2791 54.998 16.2831 54.5784 19.5977 54.5784C22.9953 54.5784 25.9785 54.9351 28.5474 55.6485C31.1162 56.362 33.105 57.3902 34.5138 58.7331C35.9639 60.0761 36.6891 61.7128 36.6891 63.6433C36.6891 65.6997 36.1297 67.3154 35.011 68.4905C33.9338 69.6236 32.4835 70.1902 30.6605 70.1902C29.4589 70.1902 28.1951 69.9804 26.8693 69.5607C25.5848 69.141 24.2175 68.7423 22.7674 68.3646C21.3586 67.9449 19.8463 67.7351 18.2304 67.7351C16.7803 67.7351 15.6823 67.9659 14.9364 68.4276C14.1906 68.8473 13.8177 69.4138 13.8177 70.1272C13.8177 71.0085 14.3149 71.659 15.3094 72.0787C16.3038 72.4984 17.9403 73.002 20.2192 73.5895L23.6996 74.4079C26.5586 75.1213 29.0652 75.9816 31.2198 76.9889C33.3744 77.9961 35.0525 79.318 36.254 80.9548C37.4555 82.5915 38.0564 84.7318 38.0564 87.3757C38.0564 90.5653 37.3106 93.1672 35.8189 95.1816C34.3273 97.1541 32.2557 98.6019 29.6039 99.5253C26.9521 100.449 23.8446 100.91 20.2814 100.91Z" fill="#FFD343"/>
<path d="M55.1467 100.91C52.9508 100.91 50.962 100.407 49.1803 99.3993C47.4401 98.3921 46.0728 96.9652 45.0784 95.1187C44.084 93.2301 43.5868 91.0269 43.5868 88.5088V77.4295L41.2872 77.7442C40.0442 77.9121 38.9462 77.4715 37.9932 76.4223C37.0403 75.373 36.5638 74.0511 36.5638 72.4564C36.5638 70.8616 37.0403 69.5606 37.9932 68.5534C38.9462 67.5042 40.0442 67.0635 41.2872 67.2314L43.5868 67.5462L43.5246 63.2655C43.4831 61.5868 43.9597 60.2649 44.9541 59.2996C45.9485 58.2924 47.3986 57.7888 49.3046 57.7888C51.2106 57.7888 52.6814 58.2924 53.7173 59.2996C54.7531 60.2649 55.2296 61.5868 55.1467 63.2655L55.0224 67.5462L58.3164 67.1055C60.5538 66.7698 62.2525 67.1894 63.4127 68.3646C64.5729 69.4977 65.1529 70.8616 65.1529 72.4564C65.1529 74.0511 64.5729 75.436 63.4127 76.6111C62.294 77.7442 60.6574 78.1639 58.5028 77.8701L55.0224 77.4295V86.8091C55.0224 87.3548 55.2089 87.8584 55.5818 88.32C55.9547 88.7397 56.4104 88.8656 56.9491 88.6977C57.5706 88.5298 58.2128 88.1731 58.8757 87.6275C59.5801 87.0819 60.471 86.8091 61.5482 86.8091C63.1641 86.8091 64.4071 87.3967 65.2772 88.5718C66.1473 89.7469 66.5824 91.1948 66.5824 92.9154C66.5824 94.2583 66.1059 95.5593 65.1529 96.8183C64.2413 98.0353 62.9362 99.0216 61.2374 99.777C59.5387 100.532 57.5084 100.91 55.1467 100.91Z" fill="#FFC04B"/>
<path d="M83.1319 100.847C78.2841 100.847 74.4101 99.3994 71.5097 96.5036C68.6508 93.5659 67.2214 89.4322 67.2214 84.1023C67.2214 80.8289 67.8843 77.9541 69.2102 75.4781C70.536 73.002 72.3799 71.0715 74.7416 69.6866C77.1447 68.2597 79.9415 67.5463 83.1319 67.5463C86.6951 67.5463 89.6576 68.2597 92.0193 69.6866C94.3811 71.0715 96.1419 73.002 97.3021 75.4781C98.5034 77.9541 99.1045 80.8289 99.1045 84.1023C99.1045 89.4322 97.7789 93.5659 95.1269 96.5036C92.5165 99.3994 88.5182 100.847 83.1319 100.847ZM74.6173 83.0322C74.6173 84.3332 75.2594 85.2564 76.5439 85.802C77.8284 86.3056 80.0243 86.5574 83.1319 86.5574C86.2394 86.5574 88.4353 86.3056 89.7198 85.802C91.0043 85.2564 91.6464 84.3332 91.6464 83.0322C91.6464 81.7732 91.0043 80.8918 89.7198 80.3882C88.4353 79.8846 86.2394 79.6328 83.1319 79.6328C80.0243 79.6328 77.8284 79.8846 76.5439 80.3882C75.2594 80.8918 74.6173 81.7732 74.6173 83.0322Z" fill="#C5E384"/>
<path d="M108.155 100.721C106.331 100.721 104.861 100.176 103.742 99.0845C102.665 97.9514 102.127 96.5665 102.127 94.9298V74.0931C102.127 72.3304 102.644 70.8406 103.68 69.6235C104.715 68.4065 106.207 67.798 108.155 67.798C110.06 67.798 111.511 68.4065 112.506 69.6235C113.5 70.8406 113.997 72.3724 113.997 74.219V77.3665H115.116C115.116 74.9744 115.53 73.0858 116.359 71.7009C117.229 70.316 118.326 69.3297 119.653 68.7422C120.978 68.1127 122.304 67.798 123.631 67.798C126.821 67.798 129.162 68.9731 130.654 71.3232C132.145 73.6314 132.891 76.9258 132.891 81.2065V94.9298C132.891 96.5665 132.352 97.9514 131.275 99.0845C130.197 100.176 128.747 100.721 126.924 100.721C125.06 100.721 123.568 100.176 122.45 99.0845C121.372 97.9514 120.834 96.5665 120.834 94.9298V83.7875C120.834 82.2767 120.543 81.1015 119.964 80.2622C119.425 79.4229 118.617 79.0032 117.54 79.0032C116.297 79.0032 115.385 79.4648 114.805 80.3881C114.266 81.3114 113.997 82.4865 113.997 83.9134V94.9298C113.997 96.5665 113.479 97.9514 112.443 99.0845C111.407 100.176 109.978 100.721 108.155 100.721Z" fill="#93E0ED"/>
<path d="M148.172 113.689C145.396 113.689 143.117 113.228 141.336 112.304C139.595 111.381 138.228 110.164 137.234 108.653C136.404 107.352 135.928 105.988 135.804 104.561C135.721 103.134 135.991 101.812 136.612 100.595C137.234 99.3364 138.166 98.3712 139.409 97.6997C140.693 96.9863 141.977 96.7134 143.262 96.8813C144.546 97.0072 145.727 97.4899 146.805 98.3292C147.882 99.1266 148.71 100.176 149.291 101.477C149.912 102.862 150.534 103.869 151.155 104.498C151.818 105.17 152.667 105.317 153.703 104.939C154.698 104.603 155.049 103.68 154.76 102.169C154.511 100.658 153.972 98.8748 153.144 96.8184H150.844C149.063 96.8184 147.281 96.1679 145.5 94.8669C143.718 93.5659 142.226 91.5095 141.025 88.6977L135.928 76.737C135.141 74.8485 135.058 73.1069 135.68 71.5121C136.342 69.9174 137.523 68.7632 139.222 68.0498C140.797 67.3364 142.35 67.2944 143.884 67.9239C145.416 68.5534 146.618 69.8964 147.488 71.9528L152.212 83.0951C152.998 84.8997 153.848 86.2006 154.76 86.998C155.713 87.7954 156.707 87.9213 157.743 87.3757C158.654 86.8721 159.151 86.1797 159.235 85.2984C159.317 84.375 158.882 83.263 157.93 81.962C157.515 81.3745 157.018 80.7239 156.438 80.0105C155.899 79.2971 155.402 78.4787 154.946 77.5554C154.532 76.5902 154.325 75.52 154.325 74.3449C154.325 72.3725 154.987 70.7567 156.314 69.4977C157.639 68.1967 159.38 67.5462 161.534 67.5462C163.481 67.5462 165.035 68.1757 166.196 69.4348C167.397 70.6938 167.998 72.3305 167.998 74.3449C167.998 75.7718 167.832 77.3456 167.501 79.0662C167.169 80.7869 166.796 82.3817 166.381 83.8505L161.907 100.407C161.244 102.883 160.374 105.128 159.297 107.142C158.219 109.157 156.79 110.751 155.009 111.927C153.227 113.102 150.947 113.689 148.172 113.689Z" fill="#FF9852"/>
</g>
<defs>
<clipPath id="clip0_1_9492">
<rect width="168" height="60" fill="white" transform="translate(0 54)"/>
</clipPath>
</defs>
</svg>
