<svg width="90" height="32" viewBox="0 0 90 32" fill="none" xmlns="http://www.w3.org/2000/svg">
<g clip-path="url(#clip0_1055_11742)">
<path d="M10.8655 25.0189C9.62247 25.0189 8.36835 24.8958 7.10314 24.6496C5.86016 24.381 4.70592 24.0005 3.64049 23.5081C2.59725 22.9933 1.75378 22.3777 1.11008 21.6615C0.466381 20.9229 0.144531 20.0724 0.144531 19.1099C0.144531 17.8789 0.532972 16.894 1.30985 16.1554C2.08673 15.4168 2.99679 15.0699 4.04002 15.1146C4.8613 15.137 5.68255 15.3161 6.50384 15.6518C7.32513 15.9651 8.1575 16.2785 9.00095 16.5919C9.86661 16.9052 10.7323 17.0619 11.5979 17.0619C12.4636 17.0619 13.0629 16.95 13.3959 16.7262C13.7288 16.5023 13.8953 16.2002 13.8953 15.8197C13.8953 15.372 13.6622 15.0027 13.1961 14.7117C12.73 14.4208 12.1417 14.197 11.4315 14.0403L9.80002 13.6374C8.11307 13.2345 6.60372 12.7869 5.27193 12.2944C3.94014 11.7797 2.8858 11.1082 2.10892 10.28C1.35424 9.42949 0.976901 8.29915 0.976901 6.88905C0.976901 5.34466 1.39864 4.09124 2.2421 3.12879C3.08557 2.14396 4.22869 1.42772 5.67147 0.980071C7.11422 0.532417 8.72351 0.308594 10.4992 0.308594C12.3193 0.308594 13.9175 0.498846 15.2937 0.879349C16.6698 1.25985 17.7353 1.80822 18.49 2.52446C19.2668 3.2407 19.6553 4.11362 19.6553 5.14322C19.6553 6.23998 19.3556 7.10167 18.7563 7.7284C18.1792 8.33273 17.4023 8.63489 16.4257 8.63489C15.782 8.63489 15.105 8.52299 14.3947 8.29915C13.7066 8.07531 12.9741 7.86269 12.1972 7.66125C11.4425 7.43741 10.6324 7.32551 9.76673 7.32551C8.98987 7.32551 8.40164 7.44863 8.0021 7.69482C7.60257 7.91867 7.4028 8.22083 7.4028 8.60132C7.4028 9.07135 7.66916 9.41826 8.20187 9.6421C8.73459 9.86594 9.61133 10.1345 10.8322 10.4479L12.6967 10.8843C14.2282 11.2648 15.5711 11.7237 16.7253 12.2609C17.8796 12.798 18.7785 13.5031 19.4222 14.376C20.0659 15.2489 20.3878 16.3904 20.3878 17.8005C20.3878 19.5016 19.9882 20.8893 19.1892 21.9637C18.3901 23.0156 17.2803 23.7878 15.8597 24.2803C14.4391 24.7727 12.7743 25.0189 10.8655 25.0189Z" fill="#FFD343"/>
<path d="M29.543 25.0176C28.3666 25.0176 27.3012 24.749 26.3467 24.2118C25.4145 23.6746 24.682 22.9136 24.1493 21.9288C23.6166 20.9216 23.3502 19.7465 23.3502 18.4035V12.4945L22.1183 12.6624C21.4524 12.752 20.8642 12.5169 20.3537 11.9574C19.8432 11.3978 19.5879 10.6927 19.5879 9.84222C19.5879 8.9917 19.8432 8.29783 20.3537 7.76065C20.8642 7.20107 21.4524 6.96605 22.1183 7.0556L23.3502 7.22347L23.3169 4.94045C23.2947 4.04515 23.55 3.3401 24.0827 2.8253C24.6154 2.28812 25.3923 2.01953 26.4133 2.01953C27.4344 2.01953 28.2223 2.28812 28.7773 2.8253C29.3322 3.3401 29.5874 4.04515 29.543 4.94045L29.4764 7.22347L31.2411 6.98845C32.4397 6.80941 33.3497 7.0332 33.9712 7.65992C34.5928 8.26425 34.9035 8.9917 34.9035 9.84222C34.9035 10.6927 34.5928 11.4314 33.9712 12.0581C33.3719 12.6624 32.4952 12.8863 31.341 12.7296L29.4764 12.4945V17.497C29.4764 17.788 29.5763 18.0566 29.7761 18.3028C29.9759 18.5267 30.22 18.5938 30.5086 18.5043C30.8415 18.4147 31.1856 18.2245 31.5407 17.9335C31.918 17.6425 32.3953 17.497 32.9724 17.497C33.8381 17.497 34.504 17.8104 34.9701 18.4371C35.4362 19.0638 35.6693 19.836 35.6693 20.7537C35.6693 21.4699 35.414 22.1638 34.9035 22.8353C34.4152 23.4843 33.716 24.0104 32.8059 24.4132C31.8959 24.8161 30.8082 25.0176 29.543 25.0176Z" fill="#FFC04B"/>
<path d="M44.5352 24.9832C41.9382 24.9832 39.8628 24.211 38.3091 22.6666C36.7775 21.0998 36.0117 18.8952 36.0117 16.0526C36.0117 14.3067 36.3669 12.7735 37.0772 11.453C37.7874 10.1324 38.7752 9.10279 40.0404 8.36416C41.3278 7.60314 42.8261 7.22266 44.5352 7.22266C46.4441 7.22266 48.0311 7.60314 49.2963 8.36416C50.5615 9.10279 51.5049 10.1324 52.1264 11.453C52.7699 12.7735 53.092 14.3067 53.092 16.0526C53.092 18.8952 52.3818 21.0998 50.9611 22.6666C49.5627 24.211 47.4208 24.9832 44.5352 24.9832ZM39.9738 15.4818C39.9738 16.1757 40.3178 16.6681 41.0059 16.9591C41.694 17.2276 42.8704 17.3619 44.5352 17.3619C46.1999 17.3619 47.3763 17.2276 48.0644 16.9591C48.7525 16.6681 49.0966 16.1757 49.0966 15.4818C49.0966 14.8103 48.7525 14.3403 48.0644 14.0717C47.3763 13.8031 46.1999 13.6688 44.5352 13.6688C42.8704 13.6688 41.694 13.8031 41.0059 14.0717C40.3178 14.3403 39.9738 14.8103 39.9738 15.4818Z" fill="#C5E384"/>
<path d="M57.9405 24.9185C56.9635 24.9185 56.1759 24.6275 55.5766 24.0455C54.9991 23.4412 54.7109 22.7026 54.7109 21.8297V10.7168C54.7109 9.77669 54.9882 8.98209 55.5433 8.33301C56.0979 7.68394 56.8969 7.35938 57.9405 7.35938C58.9612 7.35938 59.7384 7.68394 60.2712 8.33301C60.8039 8.98209 61.0702 9.79909 61.0702 10.7839V12.4626H61.6695C61.6695 11.1868 61.8912 10.1796 62.3354 9.44095C62.8016 8.70233 63.3894 8.17632 64.1001 7.86298C64.8102 7.52724 65.5203 7.35938 66.2309 7.35938C67.9399 7.35938 69.1942 7.9861 69.9932 9.23951C70.7923 10.4706 71.1919 12.2276 71.1919 14.5106V21.8297C71.1919 22.7026 70.9031 23.4412 70.3262 24.0455C69.7487 24.6275 68.972 24.9185 67.9956 24.9185C66.9967 24.9185 66.1976 24.6275 65.5983 24.0455C65.0209 23.4412 64.7327 22.7026 64.7327 21.8297V15.8871C64.7327 15.0813 64.5771 14.4546 64.2665 14.007C63.9778 13.5593 63.545 13.3355 62.968 13.3355C62.3022 13.3355 61.8137 13.5817 61.5031 14.0741C61.2143 14.5666 61.0702 15.1932 61.0702 15.9543V21.8297C61.0702 22.7026 60.7924 23.4412 60.2379 24.0455C59.6828 24.6275 58.917 24.9185 57.9405 24.9185Z" fill="#93E0ED"/>
<path d="M79.3775 31.8317C77.8901 31.8317 76.6692 31.5855 75.7151 31.0931C74.7828 30.6006 74.0503 29.9516 73.5176 29.1458C73.0733 28.4519 72.8184 27.7245 72.7518 26.9635C72.7071 26.2025 72.8517 25.4974 73.1847 24.8483C73.5176 24.1769 74.017 23.6621 74.6829 23.304C75.3707 22.9235 76.0589 22.7779 76.7472 22.8675C77.4349 22.9346 78.0675 23.1921 78.645 23.6397C79.2219 24.065 79.6657 24.6245 79.9768 25.3184C80.3097 26.057 80.6427 26.5942 80.9756 26.9299C81.3304 27.2881 81.7856 27.3664 82.3407 27.1649C82.8734 26.9859 83.0618 26.4935 82.9067 25.6877C82.7736 24.8819 82.4848 23.9307 82.0411 22.8339H80.8086C79.8545 22.8339 78.8999 22.487 77.9458 21.7931C76.9912 21.0993 76.1921 20.0026 75.5486 18.5029L72.8184 12.1239C72.3965 11.1167 72.3523 10.1878 72.6852 9.33726C73.04 8.48675 73.6726 7.87119 74.583 7.49071C75.4263 7.11022 76.2587 7.08782 77.0801 7.42356C77.9011 7.7593 78.5451 8.47552 79.0112 9.57228L81.5417 15.5148C81.963 16.4773 82.4182 17.1711 82.9067 17.5964C83.4171 18.0217 83.9498 18.0888 84.5049 17.7979C84.9929 17.5293 85.2592 17.16 85.304 16.6899C85.3482 16.1975 85.1151 15.6044 84.6048 14.9105C84.3826 14.5972 84.1163 14.2502 83.8057 13.8697C83.517 13.4892 83.2506 13.0528 83.0066 12.5603C82.7845 12.0456 82.6737 11.4748 82.6737 10.8481C82.6737 9.79612 83.0285 8.93438 83.7391 8.2629C84.4492 7.56903 85.3815 7.22212 86.5359 7.22212C87.5789 7.22212 88.4113 7.55785 89.033 8.22933C89.6765 8.90081 89.9985 9.77372 89.9985 10.8481C89.9985 11.6091 89.9096 12.4485 89.7322 13.3661C89.5543 14.2838 89.3545 15.1344 89.1323 15.9177L86.7356 24.7476C86.3803 26.0682 85.9142 27.2657 85.3373 28.34C84.7598 29.4144 83.994 30.2649 83.0399 30.8916C82.0853 31.5184 80.8643 31.8317 79.3775 31.8317Z" fill="#FF9852"/>
</g>
<defs>
<clipPath id="clip0_1055_11742">
<rect width="90" height="32" fill="white"/>
</clipPath>
</defs>
</svg>
