<svg width="181" height="124" viewBox="0 0 181 124" fill="none" xmlns="http://www.w3.org/2000/svg">
<g clip-path="url(#clip0_493_55183)">
<path d="M26.7819 46.9099C24.4617 46.9099 22.1207 46.6791 19.7589 46.2175C17.4387 45.7139 15.2841 45.0005 13.2953 44.0771C11.3479 43.1119 9.77346 41.9578 8.57189 40.6148C7.37032 39.2299 6.76953 37.6352 6.76953 35.8306C6.76953 33.5224 7.49462 31.6758 8.94479 30.2909C10.395 28.906 12.0937 28.2555 14.0411 28.3394C15.5742 28.3814 17.1072 28.7171 18.6402 29.3467C20.1733 29.9342 21.7271 30.5218 23.3015 31.1093C24.9174 31.6968 26.5333 31.9906 28.1492 31.9906C29.7651 31.9906 30.8838 31.7808 31.5053 31.3611C32.1269 30.9414 32.4376 30.3748 32.4376 29.6614C32.4376 28.8221 32.0025 28.1296 31.1324 27.584C30.2623 27.0384 29.1643 26.6188 27.8385 26.325L24.7931 25.5696C21.6441 24.8142 18.8267 23.9749 16.3407 23.0516C13.8547 22.0864 11.8866 20.8273 10.4364 19.2745C9.02766 17.6798 8.32329 15.5604 8.32329 12.9165C8.32329 10.0208 9.11053 7.67059 10.685 5.866C12.2595 4.01943 14.3933 2.67649 17.0865 1.83714C19.7796 0.997794 22.7836 0.578125 26.0983 0.578125C29.4959 0.578125 32.4791 0.934848 35.0479 1.64829C37.6168 2.36173 39.6056 3.38992 41.0143 4.73288C42.4645 6.07583 43.1896 7.71255 43.1896 9.64305C43.1896 11.6995 42.6302 13.3151 41.5115 14.4903C40.4343 15.6234 38.9841 16.1899 37.161 16.1899C35.9595 16.1899 34.6957 15.9801 33.3699 15.5604C32.0854 15.1407 30.7181 14.7421 29.2679 14.3644C27.8592 13.9447 26.3469 13.7348 24.731 13.7348C23.2808 13.7348 22.1828 13.9657 21.437 14.4273C20.6912 14.847 20.3183 15.4136 20.3183 16.127C20.3183 17.0083 20.8155 17.6587 21.8099 18.0785C22.8043 18.4982 24.4409 19.0018 26.7198 19.5893L30.2002 20.4076C33.0591 21.121 35.5658 21.9814 37.7204 22.9886C39.875 23.9958 41.553 25.3178 42.7546 26.9545C43.9561 28.5912 44.5569 30.7316 44.5569 33.3755C44.5569 36.565 43.8111 39.167 42.3195 41.1814C40.8279 43.1538 38.7562 44.6017 36.1045 45.525C33.4527 46.4483 30.3452 46.9099 26.7819 46.9099Z" fill="#FFD343"/>
<path d="M61.6474 46.9104C59.4514 46.9104 57.4626 46.4068 55.681 45.3996C53.9408 44.3923 52.5734 42.9654 51.579 41.1189C50.5846 39.2304 50.0874 37.0271 50.0874 34.5091V23.4297L47.7879 23.7445C46.5449 23.9124 45.4468 23.4717 44.4939 22.4225C43.541 21.3733 43.0645 20.0513 43.0645 18.4566C43.0645 16.8619 43.541 15.5609 44.4939 14.5537C45.4468 13.5044 46.5449 13.0638 47.7879 13.2317L50.0874 13.5464L50.0253 9.26578C49.9838 7.58709 50.4603 6.26512 51.4547 5.29988C52.4491 4.29267 53.8993 3.78906 55.8053 3.78906C57.7112 3.78906 59.1821 4.29267 60.2179 5.29988C61.2538 6.26512 61.7302 7.58709 61.6474 9.26578L61.5231 13.5464L64.8171 13.1058C67.0545 12.7701 68.7532 13.1897 69.9134 14.3648C71.0736 15.4979 71.6536 16.8619 71.6536 18.4566C71.6536 20.0513 71.0736 21.4362 69.9134 22.6114C68.7947 23.7445 67.1581 24.1642 65.0035 23.8704L61.5231 23.4297V32.8094C61.5231 33.355 61.7095 33.8586 62.0824 34.3202C62.4553 34.7399 62.9111 34.8658 63.4497 34.6979C64.0713 34.53 64.7134 34.1734 65.3764 33.6278C66.0807 33.0821 66.9716 32.8094 68.0489 32.8094C69.6648 32.8094 70.9078 33.3969 71.7779 34.572C72.648 35.7471 73.083 37.195 73.083 38.9156C73.083 40.2585 72.6065 41.5596 71.6536 42.8186C70.742 44.0356 69.4369 45.0219 67.7381 45.7773C66.0394 46.5327 64.0091 46.9104 61.6474 46.9104Z" fill="#FFC04B"/>
<path d="M89.6312 46.8479C84.7835 46.8479 80.9095 45.4 78.0091 42.5043C75.1502 39.5665 73.7207 35.4328 73.7207 30.1029C73.7207 26.8295 74.3837 23.9547 75.7095 21.4787C77.0353 19.0026 78.8792 17.0721 81.2409 15.6872C83.6441 14.2603 86.4408 13.5469 89.6312 13.5469C93.1944 13.5469 96.157 14.2603 98.5187 15.6872C100.88 17.0721 102.641 19.0026 103.801 21.4787C105.003 23.9547 105.604 26.8295 105.604 30.1029C105.604 35.4328 104.278 39.5665 101.626 42.5043C99.0159 45.4 95.0176 46.8479 89.6312 46.8479ZM81.1166 29.0328C81.1166 30.3338 81.7588 31.257 83.0432 31.8026C84.3277 32.3062 86.5237 32.558 89.6312 32.558C92.7387 32.558 94.9346 32.3062 96.2191 31.8026C97.5036 31.257 98.1458 30.3338 98.1458 29.0328C98.1458 27.7738 97.5036 26.8924 96.2191 26.3888C94.9346 25.8852 92.7387 25.6334 89.6312 25.6334C86.5237 25.6334 84.3277 25.8852 83.0432 26.3888C81.7588 26.8924 81.1166 27.7738 81.1166 29.0328Z" fill="#C5E384"/>
<path d="M114.656 46.7202C112.832 46.7202 111.362 46.1745 110.243 45.0834C109.165 43.9503 108.627 42.5654 108.627 40.9287V20.092C108.627 18.3293 109.145 16.8395 110.181 15.6224C111.216 14.4054 112.708 13.7969 114.656 13.7969C116.561 13.7969 118.012 14.4054 119.006 15.6224C120 16.8395 120.498 18.3713 120.498 20.2179V23.3654H121.616C121.616 20.9733 122.03 19.0847 122.859 17.6998C123.729 16.3149 124.827 15.3286 126.153 14.7411C127.479 14.1116 128.804 13.7969 130.131 13.7969C133.321 13.7969 135.662 14.972 137.154 17.3221C138.646 19.6304 139.391 22.9247 139.391 27.2054V40.9287C139.391 42.5654 138.852 43.9503 137.775 45.0834C136.698 46.1745 135.248 46.7202 133.425 46.7202C131.56 46.7202 130.069 46.1745 128.95 45.0834C127.872 43.9503 127.334 42.5654 127.334 40.9287V29.7864C127.334 28.2756 127.044 27.1004 126.464 26.2611C125.925 25.4218 125.117 25.0021 124.04 25.0021C122.797 25.0021 121.885 25.4637 121.306 26.387C120.767 27.3104 120.498 28.4854 120.498 29.9123V40.9287C120.498 42.5654 119.979 43.9503 118.944 45.0834C117.908 46.1745 116.478 46.7202 114.656 46.7202Z" fill="#93E0ED"/>
<path d="M154.671 59.6883C151.895 59.6883 149.616 59.2267 147.835 58.3034C146.094 57.3801 144.727 56.1631 143.733 54.6523C142.903 53.3512 142.428 51.9874 142.303 50.5605C142.22 49.1335 142.49 47.8116 143.111 46.5946C143.733 45.3355 144.665 44.3703 145.908 43.6988C147.192 42.9854 148.477 42.7126 149.761 42.8805C151.045 43.0064 152.226 43.489 153.304 44.3283C154.381 45.1257 155.209 46.1749 155.79 47.4759C156.411 48.8608 157.033 49.868 157.654 50.4975C158.317 51.169 159.166 51.3159 160.203 50.9382C161.197 50.6025 161.548 49.6791 161.259 48.1683C161.011 46.6575 160.472 44.8739 159.643 42.8175H157.343C155.562 42.8175 153.78 42.167 151.999 40.866C150.217 39.565 148.725 37.5087 147.524 34.6969L142.428 22.7362C141.64 20.8477 141.557 19.106 142.179 17.5113C142.841 15.9166 144.022 14.7624 145.722 14.049C147.296 13.3356 148.849 13.2936 150.383 13.9231C151.915 14.5526 153.117 15.8955 153.988 17.9519L158.711 29.0942C159.498 30.8989 160.347 32.1998 161.259 32.9972C162.212 33.7946 163.206 33.9205 164.242 33.3749C165.153 32.8713 165.65 32.1788 165.734 31.2975C165.816 30.3742 165.381 29.2621 164.429 27.9611C164.014 27.3736 163.517 26.723 162.937 26.0096C162.398 25.2962 161.901 24.4779 161.446 23.5546C161.031 22.5893 160.824 21.5192 160.824 20.3441C160.824 18.3716 161.486 16.7559 162.813 15.4969C164.138 14.1958 165.879 13.5454 168.033 13.5454C169.981 13.5454 171.534 14.1749 172.695 15.4339C173.896 16.6929 174.497 18.3296 174.497 20.3441C174.497 21.771 174.331 23.3448 174 25.0654C173.668 26.786 173.295 28.3808 172.88 29.8496L168.406 46.4057C167.743 48.8817 166.873 51.127 165.796 53.1414C164.718 55.1559 163.289 56.7506 161.508 57.9257C159.726 59.1008 157.447 59.6883 154.671 59.6883Z" fill="#FF9852"/>
</g>
<path d="M34.0191 82.144C34.0191 81.8347 34.1311 81.5947 34.3551 81.424C34.5791 81.2533 34.8245 81.168 35.0911 81.168C35.3578 81.168 35.6031 81.2533 35.8271 81.424C36.0511 81.5947 36.1631 81.8347 36.1631 82.144V86.256H37.4911C37.7685 86.256 37.9871 86.3413 38.1471 86.512C38.3071 86.6827 38.3871 86.9067 38.3871 87.184C38.3871 87.4613 38.3071 87.6853 38.1471 87.856C37.9871 88.0267 37.7685 88.112 37.4911 88.112H36.1631V96.112C36.1631 96.4213 36.0511 96.6613 35.8271 96.832C35.6031 97.0027 35.3578 97.088 35.0911 97.088C34.8245 97.088 34.5791 97.0027 34.3551 96.832C34.1311 96.6613 34.0191 96.4213 34.0191 96.112V82.144ZM24.1791 83.344C24.1791 83.0667 24.2538 82.8427 24.4031 82.672C24.5631 82.5013 24.7818 82.416 25.0591 82.416H31.0911C31.3791 82.416 31.6245 82.5013 31.8271 82.672C32.0298 82.8427 32.1311 83.072 32.1311 83.36C32.1311 84.1493 32.0138 84.9973 31.7791 85.904C31.0645 88.784 29.0965 91.0613 25.8751 92.736C25.8005 92.7893 25.7098 92.832 25.6031 92.864C25.4965 92.8853 25.4005 92.896 25.3151 92.896C25.0271 92.896 24.7765 92.7947 24.5631 92.592C24.3605 92.3893 24.2591 92.1493 24.2591 91.872C24.2591 91.6907 24.3018 91.536 24.3871 91.408C24.4831 91.2693 24.6005 91.1627 24.7391 91.088C26.1045 90.3947 27.2031 89.5627 28.0351 88.592C28.8778 87.6107 29.4485 86.544 29.7471 85.392C29.8538 84.912 29.9178 84.5387 29.9391 84.272H25.0591C24.7818 84.272 24.5631 84.1867 24.4031 84.016C24.2538 83.8453 24.1791 83.6213 24.1791 83.344ZM42.0025 93.568C42.0025 92.8853 42.1998 92.2773 42.5945 91.744C42.9998 91.2 43.5652 90.7787 44.2905 90.48C45.0158 90.1707 45.8425 90.016 46.7705 90.016C47.6985 90.016 48.5252 90.1707 49.2505 90.48C49.9758 90.7787 50.5358 91.2 50.9305 91.744C51.3358 92.2773 51.5385 92.8853 51.5385 93.568C51.5385 94.2507 51.3358 94.8587 50.9305 95.392C50.5358 95.936 49.9758 96.3573 49.2505 96.656C48.5252 96.9653 47.6985 97.12 46.7705 97.12C45.8425 97.12 45.0158 96.9653 44.2905 96.656C43.5652 96.3573 42.9998 95.936 42.5945 95.392C42.1998 94.8587 42.0025 94.2507 42.0025 93.568ZM39.1385 88.448C39.1385 88.0533 39.3412 87.7547 39.7465 87.552C41.6985 86.5707 42.6745 85.4347 42.6745 84.144V83.984C41.6932 83.952 40.9092 83.8667 40.3225 83.728C40.0345 83.664 39.8158 83.552 39.6665 83.392C39.5172 83.2213 39.4425 83.0293 39.4425 82.816C39.4425 82.5067 39.5545 82.2773 39.7785 82.128C40.0025 81.9787 40.2692 81.92 40.5785 81.952C41.6665 82.112 42.7278 82.192 43.7625 82.192C44.7972 82.192 45.8585 82.112 46.9465 81.952C47.2558 81.92 47.5225 81.9787 47.7465 82.128C47.9705 82.2773 48.0825 82.5067 48.0825 82.816C48.0825 83.0293 48.0078 83.2213 47.8585 83.392C47.7092 83.552 47.4905 83.664 47.2025 83.728C46.5945 83.8667 45.7998 83.952 44.8185 83.984V84.096C44.8185 84.7893 45.0372 85.3867 45.4745 85.888C45.9225 86.3787 46.6532 86.9013 47.6665 87.456C48.0825 87.68 48.2905 87.968 48.2905 88.32C48.2905 88.5973 48.1892 88.8267 47.9865 89.008C47.7838 89.1893 47.5332 89.28 47.2345 89.28C47.0212 89.28 46.8078 89.232 46.5945 89.136C46.0612 88.8693 45.5225 88.5067 44.9785 88.048C44.4452 87.5787 44.0345 87.0827 43.7465 86.56C43.4478 87.0827 43.0372 87.5733 42.5145 88.032C41.9918 88.4907 41.4372 88.8747 40.8505 89.184C40.6372 89.2907 40.3865 89.344 40.0985 89.344C39.8105 89.344 39.5758 89.2587 39.3945 89.088C39.2238 88.9067 39.1385 88.6933 39.1385 88.448ZM44.1465 93.568C44.1465 94.0907 44.3758 94.5067 44.8345 94.816C45.3038 95.136 45.9492 95.296 46.7705 95.296C47.5918 95.296 48.2318 95.136 48.6905 94.816C49.1598 94.5067 49.3945 94.0907 49.3945 93.568C49.3945 93.0453 49.1598 92.6293 48.6905 92.32C48.2318 92 47.5918 91.84 46.7705 91.84C45.9492 91.84 45.3038 92 44.8345 92.32C44.3758 92.6293 44.1465 93.0453 44.1465 93.568ZM49.3785 82.144C49.3785 81.8347 49.4905 81.5947 49.7145 81.424C49.9385 81.2533 50.1838 81.168 50.4505 81.168C50.7172 81.168 50.9625 81.2533 51.1865 81.424C51.4105 81.5947 51.5225 81.8347 51.5225 82.144V84.416H52.8505C53.1278 84.416 53.3465 84.5013 53.5065 84.672C53.6665 84.8427 53.7465 85.0667 53.7465 85.344C53.7465 85.6213 53.6665 85.8453 53.5065 86.016C53.3465 86.1867 53.1278 86.272 52.8505 86.272H51.5225V89.072C51.5225 89.3813 51.4105 89.6213 51.1865 89.792C50.9625 89.9627 50.7172 90.048 50.4505 90.048C50.1838 90.048 49.9385 89.9627 49.7145 89.792C49.4905 89.6213 49.3785 89.3813 49.3785 89.072V82.144ZM68.6948 82.144C68.6948 81.8347 68.8068 81.5947 69.0308 81.424C69.2548 81.2533 69.5001 81.168 69.7668 81.168C70.0334 81.168 70.2788 81.2533 70.5028 81.424C70.7268 81.5947 70.8388 81.8347 70.8388 82.144V86.256H72.0068C72.2841 86.256 72.5028 86.3413 72.6628 86.512C72.8228 86.6827 72.9028 86.9067 72.9028 87.184C72.9028 87.4613 72.8228 87.6853 72.6628 87.856C72.5028 88.0267 72.2841 88.112 72.0068 88.112H70.8388V96.112C70.8388 96.4213 70.7268 96.6613 70.5028 96.832C70.2788 97.0027 70.0334 97.088 69.7668 97.088C69.5001 97.088 69.2548 97.0027 69.0308 96.832C68.8068 96.6613 68.6948 96.4213 68.6948 96.112V82.144ZM58.6788 83.296C58.6788 82.9547 58.7801 82.6987 58.9828 82.528C59.1854 82.3467 59.4628 82.256 59.8148 82.256H61.8148C62.1134 82.256 62.3428 82.3413 62.5028 82.512C62.6734 82.672 62.7588 82.8907 62.7588 83.168C62.7588 83.4453 62.6734 83.6693 62.5028 83.84C62.3428 84 62.1134 84.08 61.8148 84.08H60.7588V90.832C60.7588 90.9173 60.8014 90.9707 60.8868 90.992C61.0361 91.0133 61.2121 91.024 61.4148 91.024C61.5214 91.024 61.6388 91.0133 61.7668 90.992C61.8948 90.9707 62.0068 90.96 62.1028 90.96C62.3054 90.96 62.4761 91.0293 62.6148 91.168C62.7534 91.3067 62.8228 91.5093 62.8228 91.776C62.8228 92.192 62.6254 92.4853 62.2308 92.656C61.9321 92.784 61.5534 92.848 61.0948 92.848C60.4868 92.848 59.9641 92.784 59.5268 92.656C59.2281 92.5707 59.0094 92.416 58.8708 92.192C58.7428 91.968 58.6788 91.6533 58.6788 91.248V83.296ZM63.2548 83.296C63.2548 82.9547 63.3561 82.6987 63.5588 82.528C63.7614 82.3467 64.0388 82.256 64.3908 82.256H66.4548C66.7534 82.256 66.9828 82.3413 67.1428 82.512C67.3134 82.672 67.3988 82.8907 67.3988 83.168C67.3988 83.4453 67.3134 83.6693 67.1428 83.84C66.9828 84 66.7534 84.08 66.4548 84.08H65.3348V90.832C65.3348 90.9173 65.3774 90.9707 65.4628 90.992C65.6334 91.0133 65.8254 91.024 66.0388 91.024C66.1134 91.024 66.2681 91.0133 66.5028 90.992C66.7161 90.9707 66.8654 90.96 66.9508 90.96C67.1748 90.96 67.3561 91.0347 67.4948 91.184C67.6334 91.3227 67.7028 91.5093 67.7028 91.744C67.7028 91.968 67.6601 92.1493 67.5748 92.288C67.5001 92.416 67.3828 92.5227 67.2228 92.608C66.9348 92.768 66.4601 92.848 65.7987 92.848C65.4254 92.848 65.1321 92.8373 64.9188 92.816C64.7161 92.7947 64.4974 92.752 64.2628 92.688C63.8894 92.592 63.6281 92.432 63.4788 92.208C63.3294 91.984 63.2548 91.664 63.2548 91.248V83.296ZM75.4301 95.104C76.3901 94.88 77.1955 94.6133 77.8461 94.304C78.5075 93.9947 79.0088 93.6053 79.3501 93.136C79.4781 92.9547 79.5635 92.7947 79.6061 92.656C79.6595 92.5067 79.6861 92.32 79.6861 92.096C79.6861 91.7867 79.7875 91.552 79.9901 91.392C80.2035 91.232 80.4595 91.152 80.7581 91.152C81.0568 91.152 81.3075 91.232 81.5101 91.392C81.7235 91.552 81.8301 91.7867 81.8301 92.096C81.8301 92.32 81.8515 92.5067 81.8941 92.656C81.9475 92.7947 82.0381 92.9547 82.1661 93.136C82.5075 93.6053 83.0035 93.9947 83.6541 94.304C84.3155 94.6133 85.1261 94.88 86.0861 95.104C86.3421 95.1573 86.5448 95.264 86.6941 95.424C86.8541 95.5947 86.9341 95.792 86.9341 96.016C86.9341 96.304 86.8168 96.5387 86.5821 96.72C86.3475 96.9013 86.0755 96.9813 85.7661 96.96C85.6915 96.96 85.6008 96.9493 85.4941 96.928C84.7475 96.8 84.0061 96.576 83.2701 96.256C82.5341 95.9467 81.9315 95.6 81.4621 95.216C81.1421 94.96 80.9075 94.7253 80.7581 94.512C80.5768 94.7467 80.2781 95.0187 79.8621 95.328C79.4035 95.6693 78.8221 95.984 78.1181 96.272C77.4248 96.5707 76.7261 96.7893 76.0221 96.928L75.7181 96.976L75.5741 96.992C75.3075 96.992 75.0728 96.896 74.8701 96.704C74.6781 96.5227 74.5821 96.2933 74.5821 96.016C74.5821 95.792 74.6568 95.5947 74.8061 95.424C74.9661 95.264 75.1741 95.1573 75.4301 95.104ZM73.5901 89.552C73.5901 89.3067 73.6648 89.0933 73.8141 88.912C73.9635 88.7307 74.1768 88.64 74.4541 88.64H87.0621C87.3395 88.64 87.5528 88.7307 87.7021 88.912C87.8515 89.0933 87.9261 89.3067 87.9261 89.552C87.9261 89.7973 87.8461 90.0107 87.6861 90.192C87.5368 90.3733 87.3288 90.464 87.0621 90.464H74.4541C74.1875 90.464 73.9741 90.3733 73.8141 90.192C73.6648 90.0107 73.5901 89.7973 73.5901 89.552ZM75.3181 82.768C75.3181 82.448 75.4035 82.2027 75.5741 82.032C75.7555 81.8507 76.0168 81.76 76.3581 81.76H79.3501C79.6381 81.76 79.8728 81.8453 80.0541 82.016C80.2355 82.1867 80.3261 82.4053 80.3261 82.672C80.3261 82.9387 80.2355 83.1573 80.0541 83.328C79.8728 83.4987 79.6381 83.584 79.3501 83.584H77.4301V85.536C77.4301 85.6107 77.4728 85.664 77.5581 85.696C77.6221 85.7173 77.7235 85.7333 77.8621 85.744C78.0115 85.744 78.2141 85.744 78.4701 85.744C78.6835 85.744 78.9288 85.7227 79.2061 85.68C79.3875 85.648 79.5528 85.632 79.7021 85.632C79.9261 85.632 80.1075 85.712 80.2461 85.872C80.3955 86.032 80.4701 86.24 80.4701 86.496C80.4701 86.9013 80.2621 87.1787 79.8461 87.328C79.5901 87.4133 79.3128 87.472 79.0141 87.504C78.7261 87.536 78.3688 87.552 77.9421 87.552C77.0995 87.552 76.4915 87.4667 76.1181 87.296C75.8301 87.1787 75.6221 87.0133 75.4941 86.8C75.3768 86.5867 75.3181 86.2933 75.3181 85.92V82.768ZM80.8221 82.768C80.8221 82.448 80.9075 82.2027 81.0781 82.032C81.2595 81.8507 81.5208 81.76 81.8621 81.76H85.1901C85.4781 81.76 85.7128 81.8453 85.8941 82.016C86.0755 82.1867 86.1661 82.4053 86.1661 82.672C86.1661 82.9387 86.0755 83.1573 85.8941 83.328C85.7128 83.4987 85.4781 83.584 85.1901 83.584H82.9341V85.536C82.9341 85.6107 82.9768 85.664 83.0621 85.696C83.1261 85.7173 83.2328 85.7333 83.3821 85.744C83.5315 85.744 83.7341 85.744 83.9901 85.744C84.2888 85.744 84.6408 85.7227 85.0461 85.68C85.2595 85.648 85.4408 85.632 85.5901 85.632C85.8141 85.632 85.9955 85.712 86.1341 85.872C86.2835 86.032 86.3581 86.24 86.3581 86.496C86.3581 86.9013 86.1501 87.1787 85.7341 87.328C85.2861 87.4773 84.5555 87.552 83.5421 87.552C82.6355 87.552 81.9955 87.4667 81.6221 87.296C81.3341 87.1787 81.1261 87.0133 80.9981 86.8C80.8808 86.5867 80.8221 86.2933 80.8221 85.92V82.768ZM99.2535 82.144C99.2535 81.8347 99.3655 81.5947 99.5895 81.424C99.8135 81.2533 100.059 81.168 100.326 81.168C100.592 81.168 100.838 81.2533 101.062 81.424C101.286 81.5947 101.398 81.8347 101.398 82.144V85.376H102.726C103.003 85.376 103.222 85.4613 103.382 85.632C103.542 85.8027 103.622 86.0267 103.622 86.304C103.622 86.5813 103.542 86.8053 103.382 86.976C103.222 87.1467 103.003 87.232 102.726 87.232H101.398V91.792C101.398 92.1013 101.286 92.3413 101.062 92.512C100.838 92.6827 100.592 92.768 100.326 92.768C100.059 92.768 99.8135 92.6827 99.5895 92.512C99.3655 92.3413 99.2535 92.1013 99.2535 91.792V82.144ZM88.9815 83.312C88.9815 83.0347 89.0668 82.816 89.2375 82.656C89.4188 82.4853 89.6322 82.4 89.8775 82.4C89.9628 82.4 90.0268 82.4053 90.0695 82.416C90.8375 82.5333 91.7495 82.6027 92.8055 82.624V81.92C92.8055 81.6 92.9122 81.3653 93.1255 81.216C93.3388 81.056 93.5895 80.976 93.8775 80.976C94.1442 80.976 94.3895 81.056 94.6135 81.216C94.8375 81.376 94.9495 81.6107 94.9495 81.92V82.624C95.9522 82.5813 96.7788 82.512 97.4295 82.416C97.4722 82.4053 97.5362 82.4 97.6215 82.4C97.8668 82.4 98.0748 82.4853 98.2455 82.656C98.4268 82.816 98.5175 83.0347 98.5175 83.312C98.5175 83.536 98.4482 83.7227 98.3095 83.872C98.1708 84.0213 97.9788 84.1227 97.7335 84.176C96.8695 84.336 95.5362 84.416 93.7335 84.416C91.9522 84.416 90.6295 84.336 89.7655 84.176C89.5202 84.1227 89.3282 84.0213 89.1895 83.872C89.0508 83.7227 88.9815 83.536 88.9815 83.312ZM90.1655 87.968C90.1655 87.3813 90.3202 86.8587 90.6295 86.4C90.9388 85.9307 91.3762 85.5627 91.9415 85.296C92.5068 85.0293 93.1522 84.896 93.8775 84.896C94.6028 84.896 95.2482 85.0293 95.8135 85.296C96.3788 85.5627 96.8162 85.9307 97.1255 86.4C97.4348 86.8587 97.5895 87.3813 97.5895 87.968C97.5895 88.5547 97.4348 89.0827 97.1255 89.552C96.8162 90.0107 96.3788 90.3733 95.8135 90.64C95.2482 90.9067 94.6028 91.04 93.8775 91.04C93.1522 91.04 92.5068 90.9067 91.9415 90.64C91.3762 90.3733 90.9388 90.0107 90.6295 89.552C90.3202 89.0827 90.1655 88.5547 90.1655 87.968ZM91.3015 92.72C91.3015 92.4107 91.4135 92.1707 91.6375 92C91.8615 91.8293 92.1068 91.744 92.3735 91.744C92.6402 91.744 92.8855 91.8293 93.1095 92C93.3335 92.1707 93.4455 92.4107 93.4455 92.72V94.672C93.4455 94.7467 93.4668 94.8053 93.5095 94.848C93.5522 94.8907 93.6108 94.912 93.6855 94.912H100.934C101.211 94.912 101.43 94.9973 101.59 95.168C101.75 95.3387 101.83 95.5627 101.83 95.84C101.83 96.1173 101.75 96.3413 101.59 96.512C101.43 96.6827 101.211 96.768 100.934 96.768H92.6775C92.2828 96.768 91.9522 96.6453 91.6855 96.4C91.4295 96.1547 91.3015 95.8453 91.3015 95.472V92.72ZM92.2455 87.968C92.2455 88.3627 92.3895 88.688 92.6775 88.944C92.9762 89.1893 93.3762 89.312 93.8775 89.312C94.3788 89.312 94.7735 89.1893 95.0615 88.944C95.3602 88.688 95.5095 88.3627 95.5095 87.968C95.5095 87.5733 95.3602 87.2533 95.0615 87.008C94.7735 86.752 94.3788 86.624 93.8775 86.624C93.3762 86.624 92.9762 86.752 92.6775 87.008C92.3895 87.2533 92.2455 87.5733 92.2455 87.968ZM110.746 93.36C110.447 93.36 110.207 93.2747 110.026 93.104C109.844 92.9333 109.754 92.7147 109.754 92.448C109.754 92.1707 109.844 91.952 110.026 91.792C110.207 91.6213 110.447 91.536 110.746 91.536H119.354C119.706 91.536 119.994 91.6267 120.218 91.808C120.442 91.9893 120.554 92.2347 120.554 92.544V96.064C120.554 96.3733 120.442 96.6133 120.218 96.784C119.994 96.9547 119.748 97.04 119.482 97.04C119.215 97.04 118.97 96.9547 118.746 96.784C118.522 96.6133 118.41 96.3733 118.41 96.064V93.36H110.746ZM108.106 89.664C108.106 89.4187 108.18 89.2053 108.33 89.024C108.479 88.8427 108.692 88.752 108.97 88.752H114.202V87.808C113.434 87.776 112.746 87.712 112.138 87.616C111.54 87.52 111.114 87.4133 110.858 87.296C110.559 87.1573 110.351 86.9867 110.234 86.784C110.116 86.5813 110.058 86.2933 110.058 85.92V82.784C110.058 82.4747 110.17 82.2293 110.394 82.048C110.618 81.8667 110.906 81.776 111.258 81.776H119.29C119.642 81.776 119.93 81.8667 120.154 82.048C120.378 82.2293 120.49 82.4747 120.49 82.784V85.92C120.49 86.2933 120.431 86.5813 120.314 86.784C120.207 86.976 120.01 87.1413 119.722 87.28C119.466 87.408 119.028 87.52 118.41 87.616C117.802 87.712 117.114 87.776 116.346 87.808V88.752H121.578C121.855 88.752 122.068 88.8427 122.218 89.024C122.367 89.2053 122.442 89.4187 122.442 89.664C122.442 89.9093 122.362 90.1227 122.202 90.304C122.052 90.4853 121.844 90.576 121.578 90.576H108.97C108.703 90.576 108.49 90.4853 108.33 90.304C108.18 90.1227 108.106 89.9093 108.106 89.664ZM112.17 85.616C112.17 85.6907 112.212 85.744 112.298 85.776C112.5 85.84 112.89 85.904 113.466 85.968C114.042 86.0213 114.644 86.048 115.274 86.048C115.903 86.048 116.506 86.0213 117.082 85.968C117.658 85.904 118.047 85.84 118.25 85.776C118.335 85.744 118.378 85.6907 118.378 85.616V83.568H112.17V85.616ZM130.633 95.264C128.212 95.264 126.078 95.008 124.233 94.496C123.977 94.432 123.785 94.3147 123.657 94.144C123.529 93.9733 123.465 93.7867 123.465 93.584C123.465 93.3387 123.55 93.1253 123.721 92.944C123.892 92.752 124.11 92.656 124.377 92.656C124.473 92.656 124.569 92.672 124.665 92.704C126.158 93.0987 127.79 93.328 129.561 93.392V90.464C129.561 90.1333 129.657 89.888 129.849 89.728C130.052 89.568 130.313 89.488 130.633 89.488C130.953 89.488 131.209 89.568 131.401 89.728C131.604 89.888 131.705 90.1333 131.705 90.464V93.392C133.454 93.328 135.086 93.0987 136.601 92.704C136.665 92.6827 136.761 92.672 136.889 92.672C137.156 92.672 137.374 92.7627 137.545 92.944C137.716 93.1253 137.801 93.3387 137.801 93.584C137.801 93.7867 137.737 93.9733 137.609 94.144C137.481 94.3147 137.289 94.432 137.033 94.496C135.188 95.008 133.054 95.264 130.633 95.264ZM124.969 89.136C124.969 88.9013 125.038 88.704 125.177 88.544C125.316 88.3733 125.502 88.24 125.737 88.144C127.198 87.568 128.302 86.656 129.049 85.408C129.252 85.0773 129.385 84.768 129.449 84.48C129.524 84.192 129.561 83.888 129.561 83.568V83.056C129.561 82.7467 129.673 82.512 129.897 82.352C130.121 82.1813 130.366 82.096 130.633 82.096C130.9 82.096 131.145 82.1813 131.369 82.352C131.593 82.512 131.705 82.7467 131.705 83.056V83.568C131.705 83.888 131.737 84.192 131.801 84.48C131.876 84.768 132.014 85.0773 132.217 85.408C132.964 86.656 134.068 87.568 135.529 88.144C135.764 88.24 135.95 88.3733 136.089 88.544C136.228 88.704 136.297 88.9013 136.297 89.136C136.297 89.4027 136.212 89.6107 136.041 89.76C135.881 89.9093 135.668 89.9893 135.401 90C135.124 90.0213 134.905 90 134.745 89.936C133.87 89.6373 133.118 89.2267 132.489 88.704C131.87 88.1813 131.252 87.4933 130.633 86.64C130.025 87.4827 129.396 88.1707 128.745 88.704C128.105 89.2267 127.348 89.6373 126.473 89.936C126.324 89.9787 126.169 90 126.009 90C125.7 90 125.449 89.9253 125.257 89.776C125.065 89.6267 124.969 89.4133 124.969 89.136ZM139.705 87.36C139.705 87.04 139.811 86.7893 140.025 86.608C140.249 86.416 140.542 86.32 140.905 86.32H145.001V84.032H140.409C140.089 84.032 139.859 83.9467 139.721 83.776C139.593 83.5947 139.529 83.3707 139.529 83.104C139.529 82.848 139.593 82.6347 139.721 82.464C139.859 82.2827 140.089 82.192 140.409 82.192H145.929C146.291 82.192 146.579 82.288 146.793 82.48C147.017 82.6613 147.128 82.912 147.128 83.232V87.216C147.128 87.472 147.027 87.6853 146.825 87.856C146.622 88.0267 146.371 88.112 146.073 88.112H141.833V90.672C141.833 90.768 141.886 90.8267 141.993 90.848C142.313 90.8907 142.915 90.912 143.801 90.912C144.206 90.912 144.734 90.88 145.385 90.816C146.035 90.752 146.611 90.656 147.113 90.528C147.326 90.4853 147.47 90.464 147.545 90.464C147.79 90.464 147.993 90.56 148.153 90.752C148.313 90.9333 148.393 91.1467 148.393 91.392C148.393 91.8507 148.142 92.1493 147.641 92.288C147.097 92.4373 146.451 92.5493 145.705 92.624C144.958 92.6987 144.323 92.736 143.801 92.736C143.235 92.736 142.707 92.72 142.217 92.688C141.737 92.6453 141.283 92.5653 140.857 92.448C140.441 92.3307 140.142 92.1387 139.961 91.872C139.79 91.5947 139.705 91.2587 139.705 90.864V87.36ZM149.865 82.144C149.865 81.8347 149.977 81.5947 150.201 81.424C150.425 81.2533 150.67 81.168 150.937 81.168C151.203 81.168 151.449 81.2533 151.673 81.424C151.897 81.5947 152.009 81.8347 152.009 82.144V96.112C152.009 96.4213 151.897 96.6613 151.673 96.832C151.449 97.0027 151.203 97.088 150.937 97.088C150.67 97.088 150.425 97.0027 150.201 96.832C149.977 96.6613 149.865 96.4213 149.865 96.112V82.144ZM155.08 98.736C154.781 98.672 154.557 98.5387 154.408 98.336C154.259 98.144 154.205 97.8827 154.248 97.552L154.84 94.288C154.893 94.032 155.016 93.8293 155.208 93.68C155.4 93.5307 155.629 93.456 155.896 93.456C156.237 93.456 156.531 93.5467 156.776 93.728C157.021 93.9093 157.144 94.144 157.144 94.432C157.144 94.528 157.128 94.6293 157.096 94.736L156.328 97.936C156.253 98.2133 156.125 98.4213 155.944 98.56C155.763 98.6987 155.56 98.768 155.336 98.768C155.272 98.768 155.187 98.7573 155.08 98.736ZM2.00813 116.576C1.74146 116.576 1.51213 116.485 1.32013 116.304C1.12813 116.112 1.03213 115.883 1.03213 115.616C1.03213 115.36 1.15479 115.099 1.40013 114.832C1.90146 114.288 2.30146 113.723 2.60013 113.136C2.89879 112.549 3.13879 111.893 3.32013 111.168C3.44813 110.688 3.53346 110.219 3.57613 109.76C3.62946 109.291 3.65613 108.773 3.65613 108.208V106.992C3.65613 106.683 3.76279 106.443 3.97613 106.272C4.20013 106.101 4.44546 106.016 4.71213 106.016C4.98946 106.016 5.23479 106.101 5.44813 106.272C5.66146 106.432 5.76813 106.672 5.76813 106.992V108.208C5.76813 109.371 5.86946 110.352 6.07213 111.152C6.26413 111.92 6.50413 112.587 6.79213 113.152C7.09079 113.707 7.47479 114.261 7.94413 114.816C8.07213 114.965 8.17346 115.109 8.24813 115.248C8.32279 115.376 8.36013 115.525 8.36013 115.696C8.36013 115.931 8.26946 116.139 8.08813 116.32C7.90679 116.491 7.68279 116.576 7.41613 116.576C7.18146 116.576 6.97346 116.517 6.79213 116.4C6.61079 116.283 6.42946 116.112 6.24813 115.888C5.87479 115.408 5.53346 114.864 5.22413 114.256C4.92546 113.637 4.74946 113.093 4.69613 112.624C4.63213 113.093 4.45079 113.632 4.15213 114.24C3.85346 114.837 3.51746 115.381 3.14413 115.872C2.94146 116.128 2.76546 116.309 2.61613 116.416C2.46679 116.523 2.26413 116.576 2.00813 116.576ZM7.12813 110.736C7.12813 110.459 7.20813 110.235 7.36813 110.064C7.52813 109.893 7.74679 109.808 8.02413 109.808H9.08013V106.32C9.08013 106.011 9.19213 105.771 9.41613 105.6C9.64013 105.429 9.88013 105.344 10.1361 105.344C10.4028 105.344 10.6428 105.429 10.8561 105.6C11.0801 105.76 11.1921 106 11.1921 106.32V119.792C11.1921 120.112 11.0801 120.352 10.8561 120.512C10.6428 120.683 10.4028 120.768 10.1361 120.768C9.88013 120.768 9.64013 120.683 9.41613 120.512C9.19213 120.341 9.08013 120.101 9.08013 119.792V111.664H8.02413C7.74679 111.664 7.52813 111.579 7.36813 111.408C7.20813 111.237 7.12813 111.013 7.12813 110.736ZM12.3921 106.144C12.3921 105.835 12.5041 105.595 12.7281 105.424C12.9521 105.253 13.1921 105.168 13.4481 105.168C13.7148 105.168 13.9548 105.253 14.1681 105.424C14.3921 105.584 14.5041 105.824 14.5041 106.144V120.08C14.5041 120.4 14.3921 120.64 14.1681 120.8C13.9548 120.971 13.7148 121.056 13.4481 121.056C13.1921 121.056 12.9521 120.971 12.7281 120.8C12.5041 120.629 12.3921 120.389 12.3921 120.08V106.144ZM19.1275 117.568C19.1275 116.885 19.3248 116.277 19.7195 115.744C20.1248 115.2 20.6902 114.779 21.4155 114.48C22.1408 114.171 22.9675 114.016 23.8955 114.016C24.8235 114.016 25.6502 114.171 26.3755 114.48C27.1008 114.779 27.6608 115.2 28.0555 115.744C28.4608 116.277 28.6635 116.885 28.6635 117.568C28.6635 118.251 28.4608 118.859 28.0555 119.392C27.6608 119.936 27.1008 120.357 26.3755 120.656C25.6502 120.965 24.8235 121.12 23.8955 121.12C22.9675 121.12 22.1408 120.965 21.4155 120.656C20.6902 120.357 20.1248 119.936 19.7195 119.392C19.3248 118.859 19.1275 118.251 19.1275 117.568ZM16.4395 112.304C16.4395 111.941 16.6422 111.659 17.0475 111.456C17.5808 111.179 18.0608 110.827 18.4875 110.4C18.9248 109.963 19.2555 109.504 19.4795 109.024C19.6288 108.693 19.7355 108.405 19.7995 108.16C19.8635 107.915 19.8955 107.643 19.8955 107.344V106.688C19.8955 106.379 20.0075 106.139 20.2315 105.968C20.4555 105.797 20.7008 105.712 20.9675 105.712C21.2342 105.712 21.4795 105.797 21.7035 105.968C21.9275 106.139 22.0395 106.379 22.0395 106.688V107.296C22.0395 107.605 22.0662 107.888 22.1195 108.144C22.1835 108.4 22.2848 108.683 22.4235 108.992C22.6262 109.44 22.9302 109.861 23.3355 110.256C23.7515 110.651 24.2102 110.997 24.7115 111.296C25.1275 111.541 25.3355 111.829 25.3355 112.16C25.3355 112.427 25.2448 112.656 25.0635 112.848C24.8822 113.029 24.6368 113.12 24.3275 113.12C24.1462 113.12 23.9488 113.072 23.7355 112.976C23.2235 112.72 22.7115 112.373 22.1995 111.936C21.6982 111.488 21.2875 110.997 20.9675 110.464C20.6262 111.008 20.2102 111.509 19.7195 111.968C19.2288 112.427 18.7062 112.8 18.1515 113.088C17.9382 113.195 17.6928 113.248 17.4155 113.248C17.1382 113.248 16.9035 113.157 16.7115 112.976C16.5302 112.795 16.4395 112.571 16.4395 112.304ZM21.2715 117.568C21.2715 118.091 21.5008 118.507 21.9595 118.816C22.4288 119.136 23.0742 119.296 23.8955 119.296C24.7168 119.296 25.3568 119.136 25.8155 118.816C26.2848 118.507 26.5195 118.091 26.5195 117.568C26.5195 117.045 26.2848 116.629 25.8155 116.32C25.3568 116 24.7168 115.84 23.8955 115.84C23.0742 115.84 22.4288 116 21.9595 116.32C21.5008 116.629 21.2715 117.045 21.2715 117.568ZM26.5035 106.144C26.5035 105.835 26.6155 105.595 26.8395 105.424C27.0635 105.253 27.3088 105.168 27.5755 105.168C27.8422 105.168 28.0875 105.253 28.3115 105.424C28.5355 105.595 28.6475 105.835 28.6475 106.144V108.416H29.9755C30.2528 108.416 30.4715 108.501 30.6315 108.672C30.7915 108.843 30.8715 109.067 30.8715 109.344C30.8715 109.621 30.7915 109.845 30.6315 110.016C30.4715 110.187 30.2528 110.272 29.9755 110.272H28.6475V113.072C28.6475 113.381 28.5355 113.621 28.3115 113.792C28.0875 113.963 27.8422 114.048 27.5755 114.048C27.3088 114.048 27.0635 113.963 26.8395 113.792C26.6155 113.621 26.5035 113.381 26.5035 113.072V106.144ZM43.1109 106.144C43.1109 105.835 43.2229 105.595 43.4469 105.424C43.6709 105.253 43.9109 105.168 44.1669 105.168C44.4335 105.168 44.6735 105.253 44.8869 105.424C45.1109 105.584 45.2229 105.824 45.2229 106.144V120.08C45.2229 120.4 45.1109 120.64 44.8869 120.8C44.6735 120.971 44.4335 121.056 44.1669 121.056C43.9109 121.056 43.6709 120.971 43.4469 120.8C43.2229 120.629 43.1109 120.389 43.1109 120.08V106.144ZM31.7509 111.488C31.7509 110.368 31.8949 109.408 32.1829 108.608C32.4709 107.808 32.8762 107.2 33.3989 106.784C33.9322 106.368 34.5562 106.16 35.2709 106.16C36.2202 106.16 36.9989 106.517 37.6069 107.232C38.2149 107.936 38.5882 108.944 38.7269 110.256H39.7989V106.32C39.7989 106.011 39.9109 105.771 40.1349 105.6C40.3589 105.429 40.5989 105.344 40.8549 105.344C41.1215 105.344 41.3615 105.429 41.5749 105.6C41.7989 105.76 41.9109 106 41.9109 106.32V119.792C41.9109 120.112 41.7989 120.352 41.5749 120.512C41.3615 120.683 41.1215 120.768 40.8549 120.768C40.5989 120.768 40.3589 120.683 40.1349 120.512C39.9109 120.341 39.7989 120.101 39.7989 119.792V112.112H38.7749C38.7002 113.627 38.3535 114.789 37.7349 115.6C37.1162 116.411 36.2949 116.816 35.2709 116.816C34.1829 116.816 33.3242 116.357 32.6949 115.44C32.0655 114.512 31.7509 113.195 31.7509 111.488ZM33.8469 111.488C33.8469 112.651 33.9855 113.525 34.2629 114.112C34.5402 114.699 34.8815 114.992 35.2869 114.992C35.6922 114.992 36.0282 114.699 36.2949 114.112C36.5615 113.525 36.6949 112.651 36.6949 111.488C36.6949 110.336 36.5562 109.461 36.2789 108.864C36.0122 108.267 35.6815 107.968 35.2869 107.968C35.0309 107.968 34.7909 108.096 34.5669 108.352C34.3535 108.608 34.1775 109.003 34.0389 109.536C33.9109 110.059 33.8469 110.709 33.8469 111.488ZM52.5391 113.248C52.1231 113.131 51.8298 112.944 51.6591 112.688C51.4885 112.432 51.4031 112.107 51.4031 111.712V107.072C51.4031 106.763 51.5151 106.517 51.7391 106.336C51.9631 106.155 52.2511 106.064 52.6031 106.064H58.1551C58.4431 106.064 58.6618 106.149 58.8111 106.32C58.9711 106.48 59.0511 106.699 59.0511 106.976C59.0511 107.253 58.9711 107.477 58.8111 107.648C58.6511 107.819 58.4325 107.904 58.1551 107.904H53.5471V111.456C53.5471 111.541 53.5898 111.595 53.6751 111.616C54.0911 111.733 54.6991 111.792 55.4991 111.792C55.8618 111.792 56.3045 111.76 56.8271 111.696C57.3498 111.621 57.8725 111.515 58.3951 111.376C58.4911 111.344 58.6031 111.328 58.7311 111.328C58.9871 111.328 59.2111 111.413 59.4031 111.584C59.5951 111.744 59.6911 111.957 59.6911 112.224C59.6911 112.437 59.6165 112.629 59.4671 112.8C59.3285 112.96 59.1471 113.072 58.9231 113.136C58.3578 113.296 57.7658 113.419 57.1471 113.504C56.5285 113.579 55.9791 113.616 55.4991 113.616C54.3045 113.616 53.3178 113.493 52.5391 113.248ZM53.0671 115.856C53.0671 115.547 53.1791 115.307 53.4031 115.136C53.6271 114.965 53.8725 114.88 54.1391 114.88C54.4058 114.88 54.6511 114.965 54.8751 115.136C55.0991 115.307 55.2111 115.547 55.2111 115.856V118.672C55.2111 118.747 55.2325 118.805 55.2751 118.848C55.3178 118.891 55.3765 118.912 55.4511 118.912H62.6991C62.9765 118.912 63.1951 118.997 63.3551 119.168C63.5151 119.339 63.5951 119.563 63.5951 119.84C63.5951 120.117 63.5151 120.341 63.3551 120.512C63.1951 120.683 62.9765 120.768 62.6991 120.768H54.4431C54.0485 120.768 53.7178 120.645 53.4511 120.4C53.1951 120.155 53.0671 119.845 53.0671 119.472V115.856ZM61.0191 106.144C61.0191 105.835 61.1311 105.595 61.3551 105.424C61.5791 105.253 61.8245 105.168 62.0911 105.168C62.3578 105.168 62.6031 105.253 62.8271 105.424C63.0511 105.595 63.1631 105.835 63.1631 106.144V108.736H64.4911C64.7685 108.736 64.9871 108.821 65.1471 108.992C65.3071 109.163 65.3871 109.387 65.3871 109.664C65.3871 109.941 65.3071 110.165 65.1471 110.336C64.9871 110.507 64.7685 110.592 64.4911 110.592H63.1631V115.312C63.1631 115.621 63.0511 115.861 62.8271 116.032C62.6031 116.203 62.3578 116.288 62.0911 116.288C61.8245 116.288 61.5791 116.203 61.3551 116.032C61.1311 115.861 61.0191 115.621 61.0191 115.312V106.144ZM74.7034 117.376C73.946 117.376 73.274 117.216 72.6874 116.896C72.1114 116.576 71.6634 116.133 71.3434 115.568C71.034 115.003 70.8794 114.373 70.8794 113.68C70.8794 112.976 71.034 112.341 71.3434 111.776C71.6634 111.211 72.1114 110.768 72.6874 110.448C73.274 110.117 73.946 109.952 74.7034 109.952C75.4607 109.952 76.1274 110.117 76.7034 110.448C77.29 110.768 77.738 111.211 78.0474 111.776C78.3674 112.341 78.5274 112.976 78.5274 113.68C78.5274 114.373 78.3674 115.003 78.0474 115.568C77.738 116.133 77.29 116.576 76.7034 116.896C76.1274 117.216 75.4607 117.376 74.7034 117.376ZM69.9034 107.92C69.9034 107.643 69.9887 107.424 70.1594 107.264C70.3407 107.093 70.554 107.008 70.7994 107.008C70.8847 107.008 70.9487 107.013 70.9914 107.024C71.7914 107.173 72.6714 107.264 73.6314 107.296V106.144C73.6314 105.824 73.738 105.584 73.9514 105.424C74.1647 105.253 74.4154 105.168 74.7034 105.168C74.97 105.168 75.2154 105.253 75.4394 105.424C75.6634 105.595 75.7754 105.835 75.7754 106.144V107.296C76.8314 107.232 77.6687 107.141 78.2874 107.024C78.33 107.013 78.394 107.008 78.4794 107.008C78.7247 107.008 78.9327 107.093 79.1034 107.264C79.2847 107.424 79.3754 107.643 79.3754 107.92C79.3754 108.155 79.306 108.352 79.1674 108.512C79.0287 108.661 78.8367 108.763 78.5914 108.816C78.09 108.923 77.4767 109.008 76.7514 109.072C76.0367 109.125 75.3274 109.152 74.6234 109.152C73.93 109.152 73.226 109.125 72.5114 109.072C71.7967 109.008 71.1887 108.923 70.6874 108.816C70.442 108.763 70.25 108.661 70.1114 108.512C69.9727 108.352 69.9034 108.155 69.9034 107.92ZM72.9594 113.68C72.9594 114.267 73.1087 114.731 73.4074 115.072C73.7167 115.413 74.1487 115.584 74.7034 115.584C75.258 115.584 75.6847 115.413 75.9834 115.072C76.2927 114.731 76.4474 114.267 76.4474 113.68C76.4474 113.072 76.2927 112.592 75.9834 112.24C75.6847 111.888 75.258 111.712 74.7034 111.712C74.1487 111.712 73.7167 111.888 73.4074 112.24C73.1087 112.592 72.9594 113.072 72.9594 113.68ZM80.1754 106.144C80.1754 105.835 80.2874 105.595 80.5114 105.424C80.7354 105.253 80.9807 105.168 81.2474 105.168C81.514 105.168 81.7594 105.253 81.9834 105.424C82.2074 105.595 82.3194 105.835 82.3194 106.144V110.736H83.6474C83.9247 110.736 84.1434 110.821 84.3034 110.992C84.4634 111.163 84.5434 111.387 84.5434 111.664C84.5434 111.941 84.4634 112.165 84.3034 112.336C84.1434 112.507 83.9247 112.592 83.6474 112.592H82.3194V120.112C82.3194 120.421 82.2074 120.661 81.9834 120.832C81.7594 121.003 81.514 121.088 81.2474 121.088C80.9807 121.088 80.7354 121.003 80.5114 120.832C80.2874 120.661 80.1754 120.421 80.1754 120.112V106.144ZM88.1108 114.368C88.1108 114.464 88.1534 114.523 88.2388 114.544C88.4628 114.597 88.7508 114.64 89.1028 114.672C89.4548 114.704 89.7748 114.72 90.0628 114.72C90.9161 114.72 91.8121 114.597 92.7508 114.352C92.8468 114.32 92.9588 114.304 93.0868 114.304C93.3428 114.304 93.5668 114.389 93.7587 114.56C93.9508 114.72 94.0468 114.933 94.0468 115.2C94.0468 115.413 93.9721 115.605 93.8228 115.776C93.6841 115.936 93.5028 116.048 93.2788 116.112C92.2868 116.4 91.2148 116.544 90.0628 116.544C88.9214 116.544 87.9401 116.421 87.1188 116.176C86.7028 116.059 86.4041 115.872 86.2228 115.616C86.0521 115.36 85.9668 115.035 85.9668 114.64V107.104C85.9668 106.795 86.0788 106.555 86.3028 106.384C86.5268 106.213 86.7721 106.128 87.0388 106.128C87.3054 106.128 87.5508 106.213 87.7748 106.384C87.9988 106.555 88.1108 106.795 88.1108 107.104V114.368ZM95.5348 106.144C95.5348 105.835 95.6468 105.595 95.8708 105.424C96.0948 105.253 96.3401 105.168 96.6068 105.168C96.8734 105.168 97.1188 105.253 97.3428 105.424C97.5668 105.595 97.6788 105.835 97.6788 106.144V110.256H99.0068C99.2841 110.256 99.5028 110.341 99.6628 110.512C99.8228 110.683 99.9028 110.907 99.9028 111.184C99.9028 111.461 99.8228 111.685 99.6628 111.856C99.5028 112.027 99.2841 112.112 99.0068 112.112H97.6788V120.112C97.6788 120.421 97.5668 120.661 97.3428 120.832C97.1188 121.003 96.8734 121.088 96.6068 121.088C96.3401 121.088 96.0948 121.003 95.8708 120.832C95.6468 120.661 95.5348 120.421 95.5348 120.112V106.144ZM102.462 116.656C102.462 116.357 102.569 116.123 102.782 115.952C103.006 115.771 103.262 115.68 103.55 115.68C103.817 115.68 104.062 115.765 104.286 115.936C104.521 116.096 104.638 116.336 104.638 116.656V118.752C104.638 118.869 104.707 118.928 104.846 118.928H112.382C112.67 118.928 112.915 119.013 113.118 119.184C113.331 119.365 113.438 119.589 113.438 119.856C113.438 120.123 113.331 120.341 113.118 120.512C112.915 120.693 112.67 120.784 112.382 120.784H103.838C103.443 120.784 103.113 120.661 102.846 120.416C102.59 120.171 102.462 119.861 102.462 119.488V116.656ZM100.59 113.936C100.59 113.691 100.665 113.477 100.814 113.296C100.963 113.115 101.177 113.024 101.454 113.024H114.062C114.339 113.024 114.553 113.115 114.702 113.296C114.851 113.477 114.926 113.691 114.926 113.936C114.926 114.181 114.846 114.395 114.686 114.576C114.537 114.757 114.329 114.848 114.062 114.848H108.83V116.912C108.83 117.221 108.718 117.461 108.494 117.632C108.27 117.803 108.025 117.888 107.758 117.888C107.491 117.888 107.246 117.803 107.022 117.632C106.798 117.461 106.686 117.221 106.686 116.912V114.848H101.454C101.187 114.848 100.974 114.757 100.814 114.576C100.665 114.395 100.59 114.181 100.59 113.936ZM102.27 106.416C102.27 106.16 102.371 105.963 102.574 105.824C102.777 105.675 103.011 105.6 103.278 105.6C103.555 105.6 103.79 105.675 103.982 105.824C104.185 105.963 104.286 106.16 104.286 106.416V107.104H105.374V106.416C105.374 106.16 105.47 105.963 105.662 105.824C105.865 105.675 106.099 105.6 106.366 105.6C106.633 105.6 106.862 105.675 107.054 105.824C107.257 105.963 107.358 106.16 107.358 106.416V110.56C107.358 110.923 107.289 111.2 107.15 111.392C107.022 111.584 106.819 111.712 106.542 111.776C106.35 111.819 106.089 111.856 105.758 111.888C105.427 111.92 105.113 111.936 104.814 111.936C104.526 111.936 104.227 111.92 103.918 111.888C103.609 111.845 103.347 111.797 103.134 111.744C102.558 111.584 102.27 111.173 102.27 110.512V106.416ZM104.286 110.064C104.286 110.107 104.313 110.133 104.366 110.144C104.537 110.165 104.691 110.176 104.83 110.176C104.969 110.176 105.123 110.165 105.294 110.144C105.347 110.133 105.374 110.107 105.374 110.064V108.8H104.286V110.064ZM108.158 106.416C108.158 106.16 108.254 105.963 108.446 105.824C108.649 105.675 108.883 105.6 109.15 105.6C109.417 105.6 109.646 105.675 109.838 105.824C110.041 105.963 110.142 106.16 110.142 106.416V107.104H111.23V106.416C111.23 106.16 111.331 105.963 111.534 105.824C111.737 105.675 111.971 105.6 112.238 105.6C112.515 105.6 112.75 105.675 112.942 105.824C113.145 105.963 113.246 106.16 113.246 106.416V110.512C113.246 111.173 112.958 111.584 112.382 111.744C112.179 111.797 111.918 111.845 111.598 111.888C111.289 111.92 110.99 111.936 110.702 111.936C110.414 111.936 110.105 111.92 109.774 111.888C109.443 111.856 109.177 111.819 108.974 111.776C108.697 111.712 108.489 111.584 108.35 111.392C108.222 111.2 108.158 110.923 108.158 110.56V106.416ZM110.142 110.064C110.142 110.107 110.169 110.133 110.222 110.144C110.393 110.165 110.547 110.176 110.686 110.176C110.825 110.176 110.979 110.165 111.15 110.144C111.203 110.133 111.23 110.107 111.23 110.064V108.8H110.142V110.064ZM126.99 106.144C126.99 105.835 127.102 105.595 127.326 105.424C127.55 105.253 127.795 105.168 128.062 105.168C128.328 105.168 128.574 105.253 128.798 105.424C129.022 105.595 129.134 105.835 129.134 106.144V115.312C129.134 115.621 129.022 115.861 128.798 116.032C128.574 116.203 128.328 116.288 128.062 116.288C127.795 116.288 127.55 116.203 127.326 116.032C127.102 115.861 126.99 115.621 126.99 115.312V106.144ZM116.478 109.824C116.478 109.077 116.664 108.405 117.038 107.808C117.422 107.2 117.944 106.725 118.606 106.384C119.267 106.043 120.008 105.872 120.83 105.872C121.651 105.872 122.392 106.043 123.054 106.384C123.715 106.725 124.232 107.2 124.606 107.808C124.99 108.405 125.182 109.077 125.182 109.824C125.182 110.571 124.99 111.243 124.606 111.84C124.232 112.437 123.715 112.912 123.054 113.264C122.392 113.605 121.651 113.776 120.83 113.776C120.008 113.776 119.267 113.605 118.606 113.264C117.944 112.912 117.422 112.437 117.038 111.84C116.664 111.243 116.478 110.571 116.478 109.824ZM118.59 109.824C118.59 110.443 118.798 110.955 119.214 111.36C119.64 111.765 120.179 111.968 120.83 111.968C121.48 111.968 122.014 111.765 122.43 111.36C122.856 110.955 123.07 110.443 123.07 109.824C123.07 109.205 122.856 108.693 122.43 108.288C122.014 107.883 121.48 107.68 120.83 107.68C120.179 107.68 119.64 107.883 119.214 108.288C118.798 108.693 118.59 109.205 118.59 109.824ZM118.782 115.856C118.782 115.547 118.894 115.307 119.118 115.136C119.342 114.965 119.587 114.88 119.854 114.88C120.12 114.88 120.366 114.965 120.59 115.136C120.814 115.307 120.926 115.547 120.926 115.856V118.672C120.926 118.747 120.947 118.805 120.99 118.848C121.032 118.891 121.091 118.912 121.166 118.912H128.574C128.851 118.912 129.07 118.997 129.23 119.168C129.39 119.339 129.47 119.563 129.47 119.84C129.47 120.117 129.39 120.341 129.23 120.512C129.07 120.683 128.851 120.768 128.574 120.768H120.158C119.763 120.768 119.432 120.645 119.166 120.4C118.91 120.155 118.782 119.845 118.782 119.472V115.856ZM146.146 106.144C146.146 105.835 146.258 105.595 146.482 105.424C146.706 105.253 146.951 105.168 147.218 105.168C147.484 105.168 147.73 105.253 147.954 105.424C148.178 105.595 148.29 105.835 148.29 106.144V120.112C148.29 120.421 148.178 120.661 147.954 120.832C147.73 121.003 147.484 121.088 147.218 121.088C146.951 121.088 146.706 121.003 146.482 120.832C146.258 120.661 146.146 120.421 146.146 120.112V106.144ZM135.634 111.488C135.634 110.357 135.815 109.387 136.178 108.576C136.54 107.755 137.047 107.131 137.698 106.704C138.348 106.277 139.1 106.064 139.954 106.064C140.807 106.064 141.559 106.277 142.21 106.704C142.86 107.131 143.367 107.755 143.73 108.576C144.092 109.387 144.274 110.357 144.274 111.488C144.274 112.619 144.092 113.595 143.73 114.416C143.367 115.237 142.86 115.867 142.21 116.304C141.559 116.731 140.807 116.944 139.954 116.944C139.1 116.944 138.348 116.731 137.698 116.304C137.047 115.867 136.54 115.237 136.178 114.416C135.815 113.595 135.634 112.619 135.634 111.488ZM137.778 111.488C137.778 112.277 137.874 112.944 138.066 113.488C138.268 114.032 138.535 114.443 138.866 114.72C139.196 114.987 139.559 115.12 139.954 115.12C140.348 115.12 140.711 114.987 141.042 114.72C141.372 114.443 141.634 114.032 141.826 113.488C142.028 112.944 142.13 112.277 142.13 111.488C142.13 110.709 142.028 110.048 141.826 109.504C141.634 108.96 141.372 108.555 141.042 108.288C140.711 108.011 140.348 107.872 139.954 107.872C139.559 107.872 139.196 108.011 138.866 108.288C138.535 108.555 138.268 108.96 138.066 109.504C137.874 110.048 137.778 110.709 137.778 111.488ZM160.769 106.144C160.769 105.835 160.881 105.595 161.105 105.424C161.329 105.253 161.574 105.168 161.841 105.168C162.108 105.168 162.353 105.253 162.577 105.424C162.801 105.595 162.913 105.835 162.913 106.144V108.672H164.241C164.529 108.672 164.748 108.757 164.897 108.928C165.057 109.088 165.137 109.307 165.137 109.584C165.137 109.861 165.057 110.085 164.897 110.256C164.748 110.416 164.529 110.496 164.241 110.496H162.913V112.496H164.241C164.529 112.496 164.748 112.581 164.897 112.752C165.057 112.912 165.137 113.131 165.137 113.408C165.137 113.685 165.057 113.909 164.897 114.08C164.748 114.24 164.529 114.32 164.241 114.32H162.913V120.112C162.913 120.421 162.801 120.661 162.577 120.832C162.353 121.003 162.108 121.088 161.841 121.088C161.574 121.088 161.329 121.003 161.105 120.832C160.881 120.661 160.769 120.421 160.769 120.112V106.144ZM150.769 111.488C150.769 110.315 150.945 109.323 151.297 108.512C151.66 107.701 152.156 107.093 152.785 106.688C153.414 106.272 154.134 106.064 154.945 106.064C155.756 106.064 156.476 106.272 157.105 106.688C157.734 107.093 158.225 107.701 158.577 108.512C158.94 109.323 159.121 110.315 159.121 111.488C159.121 112.661 158.94 113.659 158.577 114.48C158.225 115.291 157.734 115.904 157.105 116.32C156.476 116.736 155.756 116.944 154.945 116.944C154.134 116.944 153.414 116.736 152.785 116.32C152.156 115.904 151.66 115.291 151.297 114.48C150.945 113.659 150.769 112.661 150.769 111.488ZM152.913 111.488C152.913 112.672 153.1 113.573 153.473 114.192C153.846 114.811 154.337 115.12 154.945 115.12C155.553 115.12 156.044 114.811 156.417 114.192C156.79 113.573 156.977 112.672 156.977 111.488C156.977 110.315 156.79 109.419 156.417 108.8C156.044 108.181 155.553 107.872 154.945 107.872C154.337 107.872 153.846 108.181 153.473 108.8C153.1 109.419 152.913 110.315 152.913 111.488ZM176.865 106.144C176.865 105.835 176.977 105.595 177.201 105.424C177.425 105.253 177.67 105.168 177.937 105.168C178.203 105.168 178.449 105.253 178.673 105.424C178.897 105.595 179.009 105.835 179.009 106.144V120.112C179.009 120.421 178.897 120.661 178.673 120.832C178.449 121.003 178.203 121.088 177.937 121.088C177.67 121.088 177.425 121.003 177.201 120.832C176.977 120.661 176.865 120.421 176.865 120.112V106.144ZM166.513 107.344C166.513 107.067 166.587 106.843 166.737 106.672C166.897 106.501 167.115 106.416 167.393 106.416H173.697C173.985 106.416 174.23 106.501 174.433 106.672C174.635 106.843 174.737 107.072 174.737 107.36C174.737 108.149 174.619 108.997 174.385 109.904C174.033 111.333 173.355 112.624 172.353 113.776C171.35 114.917 169.969 115.909 168.209 116.752C167.995 116.848 167.809 116.896 167.649 116.896C167.361 116.896 167.11 116.795 166.897 116.592C166.694 116.389 166.593 116.149 166.593 115.872C166.593 115.509 166.758 115.248 167.089 115.088C168.571 114.405 169.745 113.579 170.609 112.608C171.473 111.637 172.054 110.565 172.353 109.392C172.459 108.912 172.523 108.539 172.545 108.272H167.393C167.115 108.272 166.897 108.187 166.737 108.016C166.587 107.845 166.513 107.621 166.513 107.344Z" fill="#493B3B"/>
<defs>
<clipPath id="clip0_493_55183">
<rect width="168" height="60" fill="white" transform="translate(6.5)"/>
</clipPath>
</defs>
</svg>
