<svg width="168" height="60" viewBox="0 0 168 60" fill="none" xmlns="http://www.w3.org/2000/svg">
<path d="M20.2814 46.9102C17.9611 46.9102 15.6201 46.6793 13.2584 46.2177C10.9381 45.7141 8.78357 45.0007 6.79476 44.0774C4.84739 43.1122 3.27291 41.958 2.07134 40.6151C0.869768 39.2302 0.268982 37.6355 0.268982 35.8308C0.268982 33.5226 0.994072 31.6761 2.44424 30.2912C3.89441 28.9062 5.59319 28.2558 7.54057 28.3397C9.07361 28.3817 10.6066 28.7174 12.1397 29.3469C13.6728 29.9344 15.2265 30.522 16.801 31.1095C18.4169 31.697 20.0328 31.9908 21.6487 31.9908C23.2646 31.9908 24.3833 31.781 25.0048 31.3613C25.6263 30.9416 25.9371 30.3751 25.9371 29.6616C25.9371 28.8223 25.502 28.1299 24.6319 27.5843C23.7618 27.0387 22.6638 26.6191 21.3379 26.3253L18.2926 25.5698C15.1436 24.8144 12.3261 23.9751 9.84013 23.0518C7.35412 22.0866 5.38602 20.8276 3.93585 19.2748C2.52711 17.68 1.82274 15.5607 1.82274 12.9167C1.82274 10.021 2.60998 7.67083 4.18445 5.86624C5.75892 4.01968 7.89275 2.67673 10.5859 1.83739C13.2791 0.998038 16.2831 0.578369 19.5977 0.578369C22.9953 0.578369 25.9785 0.935092 28.5474 1.64854C31.1162 2.36198 33.105 3.39017 34.5138 4.73313C35.9639 6.07607 36.6891 7.71279 36.6891 9.64329C36.6891 11.6997 36.1297 13.3154 35.011 14.4905C33.9338 15.6236 32.4835 16.1902 30.6605 16.1902C29.4589 16.1902 28.1951 15.9804 26.8693 15.5607C25.5848 15.141 24.2175 14.7423 22.7674 14.3646C21.3586 13.9449 19.8463 13.7351 18.2304 13.7351C16.7803 13.7351 15.6823 13.9659 14.9364 14.4276C14.1906 14.8473 13.8177 15.4138 13.8177 16.1272C13.8177 17.0085 14.3149 17.659 15.3094 18.0787C16.3038 18.4984 17.9403 19.002 20.2192 19.5895L23.6996 20.4079C26.5586 21.1213 29.0652 21.9816 31.2198 22.9889C33.3744 23.9961 35.0525 25.318 36.254 26.9548C37.4555 28.5915 38.0564 30.7318 38.0564 33.3757C38.0564 36.5653 37.3106 39.1672 35.8189 41.1816C34.3273 43.1541 32.2557 44.6019 29.6039 45.5253C26.9521 46.4486 23.8446 46.9102 20.2814 46.9102Z" fill="#FFD343"/>
</svg>
