<svg width="168" height="60" viewBox="0 0 168 60" fill="none" xmlns="http://www.w3.org/2000/svg">
<path d="M20.2814 46.9102C17.9611 46.9102 15.6201 46.6793 13.2584 46.2177C10.9381 45.7141 8.78357 45.0007 6.79476 44.0774C4.84739 43.1122 3.27291 41.958 2.07134 40.6151C0.869768 39.2302 0.268982 37.6355 0.268982 35.8308C0.268982 33.5226 0.994072 31.6761 2.44424 30.2912C3.89441 28.9062 5.59319 28.2558 7.54057 28.3397C9.07361 28.3817 10.6066 28.7174 12.1397 29.3469C13.6728 29.9344 15.2265 30.522 16.801 31.1095C18.4169 31.697 20.0328 31.9908 21.6487 31.9908C23.2646 31.9908 24.3833 31.781 25.0048 31.3613C25.6263 30.9416 25.9371 30.3751 25.9371 29.6616C25.9371 28.8223 25.502 28.1299 24.6319 27.5843C23.7618 27.0387 22.6638 26.6191 21.3379 26.3253L18.2926 25.5698C15.1436 24.8144 12.3261 23.9751 9.84013 23.0518C7.35412 22.0866 5.38602 20.8276 3.93585 19.2748C2.52711 17.68 1.82274 15.5607 1.82274 12.9167C1.82274 10.021 2.60998 7.67083 4.18445 5.86624C5.75892 4.01968 7.89275 2.67673 10.5859 1.83739C13.2791 0.998038 16.2831 0.578369 19.5977 0.578369C22.9953 0.578369 25.9785 0.935092 28.5474 1.64854C31.1162 2.36198 33.105 3.39017 34.5138 4.73313C35.9639 6.07607 36.6891 7.71279 36.6891 9.64329C36.6891 11.6997 36.1297 13.3154 35.011 14.4905C33.9338 15.6236 32.4835 16.1902 30.6605 16.1902C29.4589 16.1902 28.1951 15.9804 26.8693 15.5607C25.5848 15.141 24.2175 14.7423 22.7674 14.3646C21.3586 13.9449 19.8463 13.7351 18.2304 13.7351C16.7803 13.7351 15.6823 13.9659 14.9364 14.4276C14.1906 14.8473 13.8177 15.4138 13.8177 16.1272C13.8177 17.0085 14.3149 17.659 15.3094 18.0787C16.3038 18.4984 17.9403 19.002 20.2192 19.5895L23.6996 20.4079C26.5586 21.1213 29.0652 21.9816 31.2198 22.9889C33.3744 23.9961 35.0525 25.318 36.254 26.9548C37.4555 28.5915 38.0564 30.7318 38.0564 33.3757C38.0564 36.5653 37.3106 39.1672 35.8189 41.1816C34.3273 43.1541 32.2557 44.6019 29.6039 45.5253C26.9521 46.4486 23.8446 46.9102 20.2814 46.9102Z" fill="#FFD343"/>
<path d="M55.1467 46.9101C52.9508 46.9101 50.962 46.4065 49.1803 45.3993C47.4401 44.3921 46.0728 42.9652 45.0784 41.1187C44.084 39.2301 43.5868 37.0269 43.5868 34.5088V23.4295L41.2872 23.7442C40.0442 23.9121 38.9462 23.4715 37.9932 22.4223C37.0403 21.373 36.5638 20.0511 36.5638 18.4564C36.5638 16.8616 37.0403 15.5606 37.9932 14.5534C38.9462 13.5042 40.0442 13.0635 41.2872 13.2314L43.5868 13.5462L43.5246 9.26554C43.4831 7.58685 43.9597 6.26488 44.9541 5.29964C45.9485 4.29242 47.3986 3.78882 49.3046 3.78882C51.2106 3.78882 52.6814 4.29242 53.7173 5.29964C54.7531 6.26488 55.2296 7.58685 55.1467 9.26554L55.0224 13.5462L58.3164 13.1055C60.5538 12.7698 62.2525 13.1894 63.4127 14.3646C64.5729 15.4977 65.1529 16.8616 65.1529 18.4564C65.1529 20.0511 64.5729 21.436 63.4127 22.6111C62.294 23.7442 60.6574 24.1639 58.5028 23.8701L55.0224 23.4295V32.8091C55.0224 33.3548 55.2089 33.8584 55.5818 34.32C55.9547 34.7397 56.4104 34.8656 56.9491 34.6977C57.5706 34.5298 58.2128 34.1731 58.8757 33.6275C59.5801 33.0819 60.471 32.8091 61.5482 32.8091C63.1641 32.8091 64.4071 33.3967 65.2772 34.5718C66.1473 35.7469 66.5824 37.1948 66.5824 38.9154C66.5824 40.2583 66.1059 41.5593 65.1529 42.8183C64.2413 44.0353 62.9362 45.0216 61.2374 45.777C59.5387 46.5324 57.5084 46.9101 55.1467 46.9101Z" fill="#FFC04B"/>
</svg>
