<svg width="168" height="60" viewBox="0 0 168 60" fill="none" xmlns="http://www.w3.org/2000/svg">
<path d="M20.2814 46.9099C17.9611 46.9099 15.6201 46.6791 13.2584 46.2175C10.9381 45.7139 8.78357 45.0005 6.79476 44.0771C4.84739 43.1119 3.27291 41.9578 2.07134 40.6148C0.869768 39.2299 0.268982 37.6352 0.268982 35.8306C0.268982 33.5224 0.994072 31.6758 2.44424 30.2909C3.89441 28.906 5.59319 28.2555 7.54057 28.3394C9.07361 28.3814 10.6066 28.7171 12.1397 29.3467C13.6728 29.9342 15.2265 30.5218 16.801 31.1093C18.4169 31.6968 20.0328 31.9906 21.6487 31.9906C23.2646 31.9906 24.3833 31.7808 25.0048 31.3611C25.6263 30.9414 25.9371 30.3748 25.9371 29.6614C25.9371 28.8221 25.502 28.1296 24.6319 27.584C23.7618 27.0384 22.6638 26.6188 21.3379 26.325L18.2926 25.5696C15.1436 24.8142 12.3261 23.9749 9.84013 23.0516C7.35412 22.0864 5.38602 20.8273 3.93585 19.2745C2.52711 17.6798 1.82274 15.5604 1.82274 12.9165C1.82274 10.0208 2.60998 7.67059 4.18445 5.866C5.75892 4.01943 7.89275 2.67649 10.5859 1.83714C13.2791 0.997794 16.2831 0.578125 19.5977 0.578125C22.9953 0.578125 25.9785 0.934848 28.5474 1.64829C31.1162 2.36173 33.105 3.38992 34.5138 4.73288C35.9639 6.07583 36.6891 7.71255 36.6891 9.64305C36.6891 11.6995 36.1297 13.3151 35.011 14.4903C33.9338 15.6234 32.4835 16.1899 30.6605 16.1899C29.4589 16.1899 28.1951 15.9801 26.8693 15.5604C25.5848 15.1407 24.2175 14.7421 22.7674 14.3644C21.3586 13.9447 19.8463 13.7348 18.2304 13.7348C16.7803 13.7348 15.6823 13.9657 14.9364 14.4273C14.1906 14.847 13.8177 15.4136 13.8177 16.127C13.8177 17.0083 14.3149 17.6587 15.3094 18.0785C16.3038 18.4982 17.9403 19.0018 20.2192 19.5893L23.6996 20.4076C26.5586 21.121 29.0652 21.9814 31.2198 22.9886C33.3744 23.9958 35.0525 25.3178 36.254 26.9545C37.4555 28.5912 38.0564 30.7316 38.0564 33.3755C38.0564 36.565 37.3106 39.167 35.8189 41.1814C34.3273 43.1538 32.2557 44.6017 29.6039 45.525C26.9521 46.4483 23.8446 46.9099 20.2814 46.9099Z" fill="#FFD343"/>
<path d="M55.1467 46.9104C52.9508 46.9104 50.962 46.4068 49.1803 45.3996C47.4401 44.3923 46.0728 42.9654 45.0784 41.1189C44.084 39.2304 43.5868 37.0271 43.5868 34.5091V23.4297L41.2872 23.7445C40.0442 23.9124 38.9462 23.4717 37.9932 22.4225C37.0403 21.3733 36.5638 20.0513 36.5638 18.4566C36.5638 16.8619 37.0403 15.5609 37.9932 14.5537C38.9462 13.5044 40.0442 13.0638 41.2872 13.2317L43.5868 13.5464L43.5246 9.26578C43.4831 7.58709 43.9597 6.26512 44.9541 5.29988C45.9485 4.29267 47.3986 3.78906 49.3046 3.78906C51.2106 3.78906 52.6814 4.29267 53.7173 5.29988C54.7531 6.26512 55.2296 7.58709 55.1467 9.26578L55.0224 13.5464L58.3164 13.1058C60.5538 12.7701 62.2525 13.1897 63.4127 14.3648C64.5729 15.4979 65.1529 16.8619 65.1529 18.4566C65.1529 20.0513 64.5729 21.4362 63.4127 22.6114C62.294 23.7445 60.6574 24.1642 58.5028 23.8704L55.0224 23.4297V32.8094C55.0224 33.355 55.2089 33.8586 55.5818 34.3202C55.9547 34.7399 56.4104 34.8658 56.9491 34.6979C57.5706 34.53 58.2128 34.1734 58.8757 33.6278C59.5801 33.0821 60.471 32.8094 61.5482 32.8094C63.1641 32.8094 64.4071 33.3969 65.2772 34.572C66.1473 35.7471 66.5824 37.195 66.5824 38.9156C66.5824 40.2585 66.1059 41.5596 65.1529 42.8186C64.2413 44.0356 62.9362 45.0218 61.2374 45.7773C59.5387 46.5327 57.5084 46.9104 55.1467 46.9104Z" fill="#FFC04B"/>
<path d="M83.1319 46.8474C78.2841 46.8474 74.4101 45.3995 71.5097 42.5038C68.6508 39.566 67.2214 35.4323 67.2214 30.1025C67.2214 26.829 67.8843 23.9542 69.2102 21.4782C70.536 19.0022 72.3799 17.0716 74.7416 15.6867C77.1447 14.2598 79.9415 13.5464 83.1319 13.5464C86.6951 13.5464 89.6576 14.2598 92.0193 15.6867C94.3811 17.0716 96.1419 19.0022 97.3021 21.4782C98.5034 23.9542 99.1045 26.829 99.1045 30.1025C99.1045 35.4323 97.7789 39.566 95.1269 42.5038C92.5165 45.3995 88.5182 46.8474 83.1319 46.8474ZM74.6173 29.0323C74.6173 30.3333 75.2594 31.2565 76.5439 31.8021C77.8284 32.3057 80.0243 32.5575 83.1319 32.5575C86.2394 32.5575 88.4353 32.3057 89.7198 31.8021C91.0043 31.2565 91.6464 30.3333 91.6464 29.0323C91.6464 27.7733 91.0043 26.892 89.7198 26.3884C88.4353 25.8847 86.2394 25.6329 83.1319 25.6329C80.0243 25.6329 77.8284 25.8847 76.5439 26.3884C75.2594 26.892 74.6173 27.7733 74.6173 29.0323Z" fill="#C5E384"/>
</svg>
