<svg width="76" height="74" viewBox="0 0 76 74" fill="none" xmlns="http://www.w3.org/2000/svg">
<path d="M45.1484 61.4062C42.3464 61.1735 39.8518 63.0041 39.5762 65.4951C39.4504 66.6325 39.8103 67.71 40.5039 68.5684C40.4948 68.6542 40.4883 68.7407 40.4883 68.8281C40.4883 70.834 42.9248 72.46 45.9307 72.46C48.9364 72.4599 51.373 70.8339 51.373 68.8281C51.373 67.8098 50.7452 66.889 49.7334 66.2295C49.9382 63.7832 47.9098 61.6357 45.1484 61.4062Z" fill="#DEDEDE"/>
<path d="M59.2148 21.042H58.9668C64.6669 25.5216 68.2148 31.8215 68.2148 38.7998C68.2147 52.3949 54.7488 63.416 38.1377 63.416C21.5266 63.416 8.06068 52.3948 8.06055 38.7998C8.06055 31.8213 11.6092 25.5216 17.3096 21.042H15.4551L37.335 0.460938L59.2148 21.042Z" fill="#F1F1F1"/>
<path d="M23.7744 64.8818C24.0369 63.0575 26.7379 61.9408 29.8066 62.3877C32.8754 62.8347 35.1501 64.6765 34.8877 66.501C34.8246 66.9387 34.6199 67.3343 34.3047 67.6787C34.4497 67.9911 34.5292 68.3198 34.5293 68.6602C34.5293 70.666 31.8358 72.2919 28.5137 72.292C25.1914 72.292 22.498 70.666 22.498 68.6602C22.4982 67.73 23.0777 66.8818 24.0303 66.2393C23.8031 65.8008 23.7084 65.3406 23.7744 64.8818Z" fill="#DEDEDE"/>
<ellipse cx="37.3352" cy="44.0448" rx="4.41134" ry="3.22836" fill="#DEDEDE"/>
<path d="M26.4382 9.82553C23.8217 12.7271 21.2051 15.6287 18.6291 18.4937C16.053 21.3587 13.5967 24.0991 12.1444 25.8869C10.6921 27.6748 10.3183 28.4271 9.93885 29.4057C9.5594 30.3843 9.18561 31.5664 8.96635 33.6262C8.74709 35.6859 8.69369 38.5876 8.77298 40.4316C8.88293 42.9888 9.39273 44.3387 9.66134 45.6649C9.80038 46.3514 10.0367 47.0449 10.7342 48.4525C11.4316 49.8602 12.6064 51.9558 14.4397 54.0563C16.2731 56.1568 18.7294 58.1986 20.2885 59.4386C21.8475 60.6785 22.4349 61.0546 23.5385 61.4902C24.6421 61.9258 26.244 62.4094 29.8193 62.8197C33.3946 63.23 38.8946 63.5524 42.0217 63.6648C45.1488 63.7771 45.7361 63.6697 46.6261 63.3725C47.5161 63.0753 48.6909 62.5917 49.9101 62.0202C51.1294 61.4487 52.3576 60.8039 53.7645 59.9075C55.1715 59.0111 56.7201 57.8827 58.2921 56.6298C59.8641 55.3768 61.4127 54.0335 62.5575 52.8847C64.5073 50.9282 65.2719 49.5052 65.7016 48.6398C66.2609 47.5131 66.7833 46.5743 66.9443 45.7895C67.1212 44.9268 67.5373 43.3796 67.8068 40.9176C68.116 38.0919 67.9176 35.5622 67.6757 33.8012C67.3492 31.4249 66.4095 29.9707 65.0365 27.5014C64.2285 26.0481 63.335 25.4603 62.526 24.5379C61.7922 23.7014 61.0696 23.0179 59.9127 21.5565C58.1132 19.2836 57.1861 18.462 56.4304 17.6437C55.8834 17.0514 55.3511 16.5048 54.2759 15.5025C52.356 13.7132 51.5776 12.7597 50.8745 12.1344C50.0864 11.4335 49.0954 10.695 47.8567 9.61304C46.8919 8.77031 46.1828 8.30797 45.241 7.52314C42.9012 5.57329 41.652 4.56292 40.9772 3.99302C40.1692 3.31059 39.2248 2.7718 38.4691 2.03989C37.8998 1.48851 37.605 1.08816 37.2822 0.898462C36.2327 0.281773 34.6389 2.87601 33.7239 3.74308C32.5775 4.82931 31.2959 5.80693 30.7821 6.24168C30.2034 6.73139 29.5159 7.10956 28.8678 7.67946C28.545 7.9237 28.113 8.30309 27.655 8.76389C27.4641 8.95603 27.3573 9.06349 27.2473 9.17422" stroke="#BBBBBB" stroke-width="1.6087" stroke-linecap="round"/>
<path d="M25.4368 30.6027C25.3859 30.6027 25.2326 30.6539 25.0272 30.7826C24.8517 30.8926 24.8973 31.1704 24.9482 31.3767C24.9759 31.4891 25.1008 31.583 25.3058 31.6357C25.5108 31.6884 25.816 31.6884 25.9987 31.6628C26.1813 31.6372 26.2322 31.5861 26.2711 31.4957C26.3611 31.2868 26.3617 31.0432 26.3235 30.8497C26.2841 30.65 26.0796 30.5515 25.9644 30.4611C25.8424 30.3655 25.6434 30.37 25.4638 30.4084C25.1117 30.4837 25.2056 31.1176 25.231 31.4534C25.2411 31.5866 25.3073 31.6357 25.4861 31.6621C25.6649 31.6884 25.9701 31.6884 26.1528 31.6372C26.4215 31.5619 26.4896 31.327 26.5667 31.2111C26.5929 31.1463 26.5929 31.0695 26.5547 30.9916C26.5166 30.9137 26.4403 30.8369 26.3617 30.7578" stroke="#BBBBBB" stroke-width="1.6087" stroke-linecap="round"/>
<path d="M26.1298 30.4535C25.8754 30.3511 25.6681 30.2984 25.5016 30.3368C25.4115 30.3752 25.3097 30.4519 25.2319 30.5171C25.1541 30.5822 25.1032 30.6334 25.0508 30.7637" stroke="#BBBBBB" stroke-width="1.6087" stroke-linecap="round"/>
<path d="M47.6745 30.7617C47.5891 30.9524 47.4739 31.5666 47.5594 31.7903C47.6094 31.921 47.8838 31.8481 48.4273 31.8436C48.5873 31.8423 48.6584 31.7333 48.7157 31.6518C48.8151 31.5106 48.7926 31.3395 48.7736 31.1907C48.759 31.0754 48.6401 31.0216 48.5685 30.9641C48.3604 30.7966 47.8953 30.9152 47.7657 30.9922C47.6637 31.0528 47.608 31.1748 47.56 31.3284C47.5391 31.3952 47.5312 31.5014 47.5359 31.631C47.539 31.7143 47.5882 31.7806 47.6691 31.8621C47.8824 32.0772 48.2932 32.031 48.5578 31.9546C48.6389 31.8591 48.6968 31.7812 48.7397 31.7285C48.7636 31.6949 48.792 31.6473 48.8212 31.5694" stroke="#BBBBBB" stroke-width="1.6087" stroke-linecap="round"/>
<path d="M48.1614 30.8477C47.9722 30.8477 47.8464 30.8477 47.7892 30.8524C47.7304 30.8573 47.646 30.9241 47.5458 31.0248C47.4531 31.1179 47.4447 31.2795 47.4542 31.4236C47.4602 31.5149 47.5494 31.5876 47.6636 31.6692C47.7305 31.7033 47.8157 31.7223 47.9305 31.7321C48.0453 31.7419 48.1872 31.7419 48.3334 31.7419" stroke="#BBBBBB" stroke-width="1.6087" stroke-linecap="round"/>
<path d="M48.0868 30.9897C48.0341 30.9595 47.9995 30.9364 47.9881 30.9174C47.9819 30.9071 47.9842 30.8909 47.9898 30.8812C48.0008 30.8625 48.0372 30.8639 48.0657 30.8582C48.0754 30.8412 48.0453 30.7993 48.0355 30.7515C48.0337 30.7419 48.0262 30.7343 48.0184 30.7266" stroke="#BBBBBB" stroke-width="1.6087" stroke-linecap="round"/>
<path d="M35.5151 40.9304C34.9968 41.0474 34.0816 41.4149 33.8391 41.5603C33.5507 41.7331 33.2846 42.1641 33.0953 42.6614C33.0103 42.8849 32.9577 43.0697 32.9382 43.4156C32.9003 44.0853 32.9444 44.6059 32.9898 44.8023C33.0906 45.2379 33.2697 45.5115 33.4138 45.7418C33.6526 46.1235 34.1176 46.5097 34.3724 46.6808C34.4852 46.7565 34.6786 46.8776 35.0037 47.0347C35.3929 47.2229 35.9038 47.3113 36.6959 47.3833C37.2156 47.4306 37.9789 47.4424 38.4167 47.4493C39.0912 47.4599 39.2722 47.3251 39.5329 47.1941C39.7699 47.075 40.0927 46.8146 40.5047 46.5248C40.8042 46.3142 40.9163 46.026 41.0406 45.8745C41.1964 45.6847 41.3078 45.3579 41.4452 45.0737C41.5303 44.8975 41.5692 44.6473 41.589 44.4239C41.6272 43.9923 41.5959 43.4656 41.5047 43.2552C41.4203 43.0607 41.2443 42.8881 41.0807 42.6055C40.9789 42.4297 40.9046 42.2965 40.7351 42.1521C40.5097 41.9602 40.0199 41.4842 39.7173 41.2853C39.5383 41.1676 39.2354 40.9706 38.8504 40.8585C38.754 40.8305 38.6616 40.8256 38.3049 40.8189C37.3284 40.8006 36.6248 40.8252 36.4947 40.8449C36.2463 40.8776 36.1027 40.9434 36.0181 40.9696C35.9723 40.9828 35.9206 40.9958 35.8674 41.0092" stroke="#BBBBBB" stroke-width="1.6087" stroke-linecap="round"/>
<path d="M34.7578 54.4884C34.8849 53.6785 35.0351 53.176 35.2905 52.9509C36.1176 52.2222 37.4253 52.2925 38.1358 52.4526C39.0145 53.0882 39.3559 53.517 39.6563 54.1096C39.7 54.2294 39.7 54.2933 39.7 54.3592" stroke="#BBBBBB" stroke-width="1.6087" stroke-linecap="round"/>
<path d="M45.7559 21.4453C47.2145 22.3539 48.6731 23.2625 49.4766 23.783C50.2801 24.3035 50.3843 24.4084 50.4916 24.5164" stroke="#BBBBBB" stroke-width="1.6087" stroke-linecap="round"/>
<path d="M8.45435 35.9766C6.4364 36.4539 5.28893 36.887 4.2138 37.4524C2.37906 38.4173 1.86137 38.5825 1.36739 39.1688C0.832675 39.8035 0.7881 40.8416 0.808502 41.5798C0.832342 42.4424 1.52752 43.0171 2.06354 43.4528C2.86985 44.1081 5.79342 44.1936 7.64754 43.8473C7.83487 43.7593 7.95728 43.7162 8.10195 43.651C8.24662 43.5858 8.40983 43.4997 8.8253 43.2806" stroke="#BBBBBB" stroke-width="1.6087" stroke-linecap="round"/>
<path d="M68.3886 34.3594C68.8031 34.5408 70.4657 35.6349 71.272 36.305C72.0859 36.9813 73.2057 38.1117 73.9094 38.733C74.3441 39.1167 74.4993 39.8546 74.7271 40.8373C74.9356 41.7372 74.6906 42.4674 74.4076 42.8777C73.5045 44.1872 72.8708 44.5278 72.3573 44.8047C71.0921 44.9429 69.2632 44.7614 68.979 44.4412C68.8452 44.3024 68.0445 43.8718 67.8145 43.6409" stroke="#BBBBBB" stroke-width="1.6087" stroke-linecap="round"/>
<path d="M24.7882 61.9414C24.7267 62.5126 24.6019 63.4972 24.4476 64.105C24.333 64.5563 24.0442 65.0027 23.7452 65.4584C23.1761 66.3258 22.9053 66.4767 22.7911 66.7217C22.7167 66.8812 22.6358 67.0855 22.5532 67.3973C22.4322 67.8542 22.4284 68.5215 22.4489 69.1557C22.4603 69.5085 22.6961 69.7929 23.1491 70.2649C23.4384 70.5663 23.93 70.9379 24.3675 71.2202C25.1471 71.7233 25.8619 71.9265 26.7164 72.1121C27.2973 72.2383 28.2061 72.3312 28.8346 72.3916C29.7872 72.4832 30.3541 72.4185 30.9211 72.2588C31.7693 72.0199 32.4034 71.5228 32.7962 71.2187C33.0838 70.996 33.438 70.4423 33.9031 69.5141C34.1436 69.0342 34.2248 68.4854 34.2881 67.9997C34.4056 67.0988 34.372 66.5966 34.403 66.4447C34.4136 66.2594 34.4341 66.0218 34.4651 65.45C34.4757 65.0123 34.4757 64.2751 34.4136 63.4647" stroke="#BBBBBB" stroke-width="1.6087" stroke-linecap="round"/>
<path d="M39.2881 63.8141C39.268 64.165 39.2985 63.7477 39.2881 64.321C39.2777 64.8944 39.2777 65.6796 39.2979 66.2011C39.3272 66.9577 39.4806 67.3812 39.6735 67.8936C39.9694 68.6798 40.1126 69.2387 40.1838 69.3818C40.2598 69.5345 40.4976 69.9784 41.0458 70.6854C41.632 71.4414 42.3109 71.8542 42.6874 72.0144C43.0746 72.1792 43.7142 72.3103 44.7599 72.3863C46.023 72.478 46.8751 72.3954 47.1999 72.3367C47.9994 72.1921 48.4427 71.7722 48.7495 71.5271C49.2445 71.1318 49.6455 70.8274 50.246 69.9516C50.4912 69.5939 50.4412 69.2914 50.4721 68.996C50.5605 68.1498 50.4828 66.9625 50.3606 66.6755C50.2174 66.3392 50.198 66.0512 50.0755 65.8062C49.9044 65.4641 49.7494 65.2746 49.607 65.0888C49.3717 64.7817 49.3216 64.4483 49.1893 64.2112C49.0042 63.8793 48.7715 63.3345 48.69 63.0973C48.6695 63.0465 48.6493 62.9963 48.6288 62.9455C48.6084 62.8946 48.5882 62.8445 48.5674 62.7422" stroke="#BBBBBB" stroke-width="1.6087" stroke-linecap="round"/>
</svg>
