<svg width="138" height="36" viewBox="0 0 138 36" fill="none" xmlns="http://www.w3.org/2000/svg">
<rect x="0.5" y="0.5" width="137" height="35" rx="17.5" stroke="#F1F1F1"/>
<path d="M21.5 18H32.5" stroke="#DEDEDE" stroke-width="1.5" stroke-linecap="round" stroke-linejoin="round"/>
<path d="M27 23.5V12.5" stroke="#DEDEDE" stroke-width="1.5" stroke-linecap="round" stroke-linejoin="round"/>
<path d="M49.6394 11.836C49.8074 11.836 49.9288 11.8967 50.0034 12.018C50.0874 12.1393 50.1294 12.2793 50.1294 12.438C50.1294 12.5967 50.0874 12.7367 50.0034 12.858C49.9288 12.97 49.8074 13.026 49.6394 13.026H47.3574V13.656C47.3574 14.1133 47.4274 14.496 47.5674 14.804C47.7168 15.112 47.9594 15.4013 48.2954 15.672C48.6221 15.9427 48.9301 16.1853 49.2194 16.4C49.5088 16.6147 49.7654 16.8013 49.9894 16.96C50.1481 17.072 50.2321 17.2073 50.2414 17.366C50.2508 17.5247 50.2041 17.674 50.1014 17.814C50.0081 17.926 49.8821 18.0147 49.7234 18.08C49.5741 18.136 49.4108 18.1033 49.2334 17.982C49.0654 17.8607 48.8461 17.702 48.5754 17.506C48.3048 17.3007 48.0201 17.0767 47.7214 16.834C47.3668 16.5447 47.1148 16.316 46.9654 16.148C46.8161 15.9707 46.7228 15.812 46.6854 15.672H46.6714C46.6341 15.8307 46.5361 16.0033 46.3774 16.19C46.2188 16.3767 45.9621 16.61 45.6074 16.89C45.2994 17.1327 44.9961 17.366 44.6974 17.59C44.4081 17.8047 44.1234 18.01 43.8434 18.206C43.6848 18.318 43.5214 18.346 43.3534 18.29C43.1948 18.234 43.0734 18.1453 42.9894 18.024C42.8868 17.8933 42.8401 17.744 42.8494 17.576C42.8588 17.408 42.9428 17.2633 43.1014 17.142C43.4374 16.9087 43.7594 16.68 44.0674 16.456C44.3848 16.2227 44.7068 15.9753 45.0334 15.714C45.3601 15.4433 45.5934 15.154 45.7334 14.846C45.8828 14.538 45.9574 14.1553 45.9574 13.698V13.026H43.5774C43.4001 13.026 43.2694 12.97 43.1854 12.858C43.1108 12.7367 43.0734 12.5967 43.0734 12.438C43.0734 12.2793 43.1108 12.1393 43.1854 12.018C43.2694 11.8967 43.4001 11.836 43.5774 11.836H49.6394ZM52.3694 11.108C52.5561 11.108 52.7194 11.1547 52.8594 11.248C52.9994 11.3413 53.0694 11.4907 53.0694 11.696V18.094C53.0694 18.2993 52.9994 18.4487 52.8594 18.542C52.7194 18.6353 52.5561 18.682 52.3694 18.682C52.1828 18.682 52.0194 18.6353 51.8794 18.542C51.7394 18.4487 51.6694 18.2993 51.6694 18.094V11.696C51.6694 11.4907 51.7394 11.3413 51.8794 11.248C52.0194 11.1547 52.1828 11.108 52.3694 11.108ZM51.9914 19.284C52.4021 19.284 52.6821 19.3587 52.8314 19.508C52.9901 19.6573 53.0694 19.9327 53.0694 20.334V23.54C53.0694 23.7453 52.9994 23.8947 52.8594 23.988C52.7194 24.0813 52.5561 24.128 52.3694 24.128C52.1828 24.128 52.0194 24.0813 51.8794 23.988C51.7394 23.8947 51.6694 23.7453 51.6694 23.54V20.768C51.6694 20.5813 51.5714 20.488 51.3754 20.488H45.1454C44.9681 20.488 44.8374 20.4273 44.7534 20.306C44.6788 20.1847 44.6414 20.0447 44.6414 19.886C44.6414 19.7273 44.6788 19.5873 44.7534 19.466C44.8374 19.3447 44.9681 19.284 45.1454 19.284H51.9914ZM62.2136 11.808C62.3816 11.808 62.503 11.8687 62.5776 11.99C62.6616 12.1113 62.7036 12.2513 62.7036 12.41C62.7036 12.5687 62.6616 12.7087 62.5776 12.83C62.503 12.942 62.3816 12.998 62.2136 12.998H59.9736V13.698C59.9736 14.146 60.039 14.5147 60.1696 14.804C60.3096 15.0933 60.5523 15.3687 60.8976 15.63C61.2243 15.8913 61.523 16.1247 61.7936 16.33C62.0736 16.526 62.3303 16.7033 62.5636 16.862C62.7223 16.974 62.8063 17.114 62.8156 17.282C62.825 17.4407 62.7783 17.5853 62.6756 17.716C62.5823 17.8467 62.4563 17.9353 62.2976 17.982C62.1483 18.0287 61.9896 17.996 61.8216 17.884C61.6536 17.772 61.4296 17.618 61.1496 17.422C60.879 17.2167 60.6036 17.0067 60.3236 16.792C59.969 16.5213 59.717 16.2973 59.5676 16.12C59.4276 15.9333 59.339 15.77 59.3016 15.63H59.2876C59.2503 15.7887 59.1523 15.966 58.9936 16.162C58.835 16.3487 58.5783 16.5773 58.2236 16.848C57.9343 17.072 57.6403 17.2913 57.3416 17.506C57.043 17.7207 56.7583 17.9213 56.4876 18.108C56.329 18.22 56.1703 18.2527 56.0116 18.206C55.853 18.15 55.7316 18.0613 55.6476 17.94C55.545 17.8093 55.4936 17.66 55.4936 17.492C55.503 17.324 55.5916 17.1793 55.7596 17.058C56.077 16.8433 56.3896 16.624 56.6976 16.4C57.0056 16.176 57.323 15.9333 57.6496 15.672C57.995 15.4013 58.233 15.1213 58.3636 14.832C58.5036 14.5427 58.5736 14.1787 58.5736 13.74V12.998H56.2356C56.0583 12.998 55.9276 12.942 55.8436 12.83C55.769 12.7087 55.7316 12.5687 55.7316 12.41C55.7316 12.2513 55.769 12.1113 55.8436 11.99C55.9276 11.8687 56.0583 11.808 56.2356 11.808H62.2136ZM65.2096 11.108C65.387 11.108 65.5456 11.1547 65.6856 11.248C65.8256 11.3413 65.8956 11.4907 65.8956 11.696V17.45C65.8956 17.6553 65.8256 17.8047 65.6856 17.898C65.5456 17.9913 65.387 18.038 65.2096 18.038C65.023 18.038 64.8596 17.9913 64.7196 17.898C64.5796 17.8047 64.5096 17.6553 64.5096 17.45V15.392H62.4936C62.3163 15.392 62.1856 15.3313 62.1016 15.21C62.027 15.0887 61.9896 14.9487 61.9896 14.79C61.9896 14.622 62.027 14.482 62.1016 14.37C62.1856 14.2487 62.3163 14.188 62.4936 14.188H64.5096V11.696C64.5096 11.4907 64.5796 11.3413 64.7196 11.248C64.8596 11.1547 65.023 11.108 65.2096 11.108ZM58.3356 18.64C58.513 18.64 58.6716 18.6867 58.8116 18.78C58.961 18.8733 59.0356 19.018 59.0356 19.214V20.39H64.5236V19.214C64.5236 19.018 64.5936 18.8733 64.7336 18.78C64.8736 18.6867 65.0276 18.64 65.1956 18.64C65.3823 18.64 65.5456 18.6867 65.6856 18.78C65.8256 18.8733 65.8956 19.018 65.8956 19.214V22.896C65.8956 23.2973 65.8163 23.5727 65.6576 23.722C65.5083 23.8713 65.2283 23.946 64.8176 23.946H58.7416C58.331 23.946 58.0463 23.8713 57.8876 23.722C57.7383 23.5727 57.6636 23.2973 57.6636 22.896V19.214C57.6636 19.018 57.7336 18.8733 57.8736 18.78C58.0136 18.6867 58.1676 18.64 58.3356 18.64ZM59.0356 22.504C59.0356 22.6067 59.0543 22.6813 59.0916 22.728C59.1383 22.7747 59.2176 22.798 59.3296 22.798H64.2296C64.4256 22.798 64.5236 22.7 64.5236 22.504V21.51H59.0356V22.504ZM75.2498 11.598C75.7911 11.598 76.2671 11.6773 76.6778 11.836C77.0885 11.9853 77.4291 12.1953 77.6998 12.466C77.9705 12.7367 78.1711 13.0587 78.3018 13.432C78.4418 13.796 78.5118 14.1927 78.5118 14.622C78.5118 15.0607 78.4418 15.4667 78.3018 15.84C78.1711 16.204 77.9705 16.5213 77.6998 16.792C77.4291 17.0627 77.0885 17.2773 76.6778 17.436C76.2671 17.5853 75.7911 17.66 75.2498 17.66C74.6991 17.66 74.2185 17.5853 73.8078 17.436C73.4065 17.2773 73.0705 17.0627 72.7998 16.792C72.5291 16.5213 72.3238 16.204 72.1838 15.84C72.0531 15.4667 71.9878 15.0607 71.9878 14.622C71.9878 14.1927 72.0531 13.796 72.1838 13.432C72.3238 13.0587 72.5291 12.7367 72.7998 12.466C73.0705 12.1953 73.4065 11.9853 73.8078 11.836C74.2185 11.6773 74.6991 11.598 75.2498 11.598ZM75.2498 12.76C74.9045 12.76 74.6105 12.8113 74.3678 12.914C74.1251 13.0073 73.9245 13.1427 73.7658 13.32C73.6165 13.488 73.5045 13.684 73.4298 13.908C73.3645 14.132 73.3318 14.37 73.3318 14.622C73.3318 14.874 73.3645 15.112 73.4298 15.336C73.5045 15.56 73.6165 15.7607 73.7658 15.938C73.9245 16.106 74.1251 16.2413 74.3678 16.344C74.6105 16.4373 74.9045 16.484 75.2498 16.484C75.5951 16.484 75.8891 16.4373 76.1318 16.344C76.3745 16.2413 76.5705 16.106 76.7198 15.938C76.8785 15.7607 76.9905 15.56 77.0558 15.336C77.1305 15.112 77.1678 14.874 77.1678 14.622C77.1678 14.37 77.1305 14.132 77.0558 13.908C76.9905 13.684 76.8785 13.488 76.7198 13.32C76.5705 13.1427 76.3745 13.0073 76.1318 12.914C75.8891 12.8113 75.5951 12.76 75.2498 12.76ZM81.3538 11.108C81.5405 11.108 81.7038 11.1547 81.8438 11.248C81.9838 11.3413 82.0538 11.4907 82.0538 11.696V17.45C82.0538 17.6553 81.9838 17.8047 81.8438 17.898C81.7038 17.9913 81.5405 18.038 81.3538 18.038C81.1671 18.038 81.0038 17.9913 80.8638 17.898C80.7238 17.8047 80.6538 17.6553 80.6538 17.45V11.696C80.6538 11.4907 80.7238 11.3413 80.8638 11.248C81.0038 11.1547 81.1671 11.108 81.3538 11.108ZM74.5498 18.64C74.7271 18.64 74.8858 18.6867 75.0258 18.78C75.1751 18.8733 75.2498 19.018 75.2498 19.214V20.39H80.6818V19.214C80.6818 19.018 80.7518 18.8733 80.8918 18.78C81.0318 18.6867 81.1858 18.64 81.3538 18.64C81.5405 18.64 81.7038 18.6867 81.8438 18.78C81.9838 18.8733 82.0538 19.018 82.0538 19.214V22.896C82.0538 23.2973 81.9745 23.5727 81.8158 23.722C81.6665 23.8713 81.3865 23.946 80.9758 23.946H74.9558C74.5451 23.946 74.2605 23.8713 74.1018 23.722C73.9525 23.5727 73.8778 23.2973 73.8778 22.896V19.214C73.8778 19.018 73.9478 18.8733 74.0878 18.78C74.2278 18.6867 74.3818 18.64 74.5498 18.64ZM75.2498 22.504C75.2498 22.6067 75.2685 22.6813 75.3058 22.728C75.3525 22.7747 75.4318 22.798 75.5438 22.798H80.3878C80.5838 22.798 80.6818 22.7 80.6818 22.504V21.51H75.2498V22.504ZM89.35 11.738C89.7607 11.738 90.0407 11.8127 90.19 11.962C90.3487 12.1113 90.428 12.3867 90.428 12.788V14.608C90.428 15.0093 90.3487 15.2847 90.19 15.434C90.0407 15.5833 89.7607 15.658 89.35 15.658H86.62C86.5173 15.658 86.4427 15.6813 86.396 15.728C86.3493 15.7653 86.326 15.84 86.326 15.952V17.03C86.326 17.2167 86.424 17.31 86.62 17.31C87.432 17.31 88.2487 17.296 89.07 17.268C89.8913 17.2307 90.6473 17.1747 91.338 17.1C91.4967 17.0813 91.6227 17.1233 91.716 17.226C91.8093 17.3193 91.8653 17.4453 91.884 17.604C91.9027 17.772 91.8793 17.9213 91.814 18.052C91.7487 18.1827 91.6367 18.2573 91.478 18.276C90.8527 18.3413 90.0967 18.3927 89.21 18.43C88.3327 18.4673 87.2733 18.486 86.032 18.486C85.6213 18.486 85.3367 18.4113 85.178 18.262C85.0287 18.1127 84.954 17.8373 84.954 17.436V15.602C84.954 15.2007 85.0287 14.9253 85.178 14.776C85.3367 14.6267 85.6213 14.552 86.032 14.552H88.762C88.958 14.552 89.056 14.454 89.056 14.258V13.208C89.056 13.096 89.0327 13.0213 88.986 12.984C88.9393 12.9373 88.8647 12.914 88.762 12.914H85.416C85.2573 12.914 85.1407 12.858 85.066 12.746C84.9913 12.6247 84.954 12.4847 84.954 12.326C84.954 12.1673 84.9913 12.032 85.066 11.92C85.1407 11.7987 85.2573 11.738 85.416 11.738H89.35ZM94.194 11.108C94.3713 11.108 94.53 11.1547 94.67 11.248C94.81 11.3413 94.88 11.4907 94.88 11.696V18.514C94.88 18.7193 94.81 18.8687 94.67 18.962C94.53 19.0553 94.3713 19.102 94.194 19.102C94.0167 19.102 93.8533 19.0553 93.704 18.962C93.564 18.8687 93.494 18.7193 93.494 18.514V16.344H91.674C91.5153 16.344 91.3987 16.288 91.324 16.176C91.2493 16.0547 91.212 15.9147 91.212 15.756C91.212 15.5973 91.2493 15.462 91.324 15.35C91.3987 15.238 91.5153 15.182 91.674 15.182H93.494V14.174H91.674C91.5153 14.174 91.3987 14.118 91.324 14.006C91.2493 13.8847 91.212 13.7447 91.212 13.586C91.212 13.4273 91.2493 13.292 91.324 13.18C91.3987 13.068 91.5153 13.012 91.674 13.012H93.494V11.696C93.494 11.4907 93.564 11.3413 93.704 11.248C93.8533 11.1547 94.0167 11.108 94.194 11.108ZM93.802 19.704C94.2127 19.704 94.4927 19.7787 94.642 19.928C94.8007 20.0773 94.88 20.3527 94.88 20.754V23.54C94.88 23.7453 94.81 23.8947 94.67 23.988C94.53 24.0813 94.3667 24.128 94.18 24.128C93.9933 24.128 93.83 24.0813 93.69 23.988C93.55 23.8947 93.48 23.7453 93.48 23.54V21.188C93.48 21.0013 93.382 20.908 93.186 20.908H86.9C86.7227 20.908 86.592 20.8473 86.508 20.726C86.4333 20.6047 86.396 20.4647 86.396 20.306C86.396 20.1473 86.4333 20.0073 86.508 19.886C86.592 19.7647 86.7227 19.704 86.9 19.704H93.802ZM100.804 14.972C101.271 14.972 101.691 15.042 102.064 15.182C102.438 15.3127 102.75 15.4993 103.002 15.742C103.264 15.9847 103.464 16.274 103.604 16.61C103.744 16.946 103.814 17.3193 103.814 17.73C103.814 18.1407 103.744 18.514 103.604 18.85C103.464 19.186 103.264 19.4753 103.002 19.718C102.75 19.9607 102.438 20.152 102.064 20.292C101.691 20.4227 101.271 20.488 100.804 20.488C100.338 20.488 99.9175 20.4227 99.5442 20.292C99.1709 20.152 98.8535 19.9607 98.5922 19.718C98.3309 19.4753 98.1302 19.186 97.9902 18.85C97.8595 18.514 97.7942 18.1407 97.7942 17.73C97.7942 17.3193 97.8595 16.946 97.9902 16.61C98.1302 16.274 98.3309 15.9847 98.5922 15.742C98.8535 15.4993 99.1709 15.3127 99.5442 15.182C99.9175 15.042 100.338 14.972 100.804 14.972ZM100.804 11.08C100.991 11.08 101.154 11.1267 101.294 11.22C101.434 11.3133 101.504 11.4627 101.504 11.668V12.872H104.024C104.192 12.872 104.314 12.9327 104.388 13.054C104.472 13.166 104.514 13.3013 104.514 13.46C104.514 13.6187 104.472 13.7587 104.388 13.88C104.314 14.0013 104.192 14.062 104.024 14.062H97.4302C97.2622 14.062 97.1362 14.0013 97.0522 13.88C96.9775 13.7587 96.9402 13.6187 96.9402 13.46C96.9402 13.3013 96.9775 13.166 97.0522 13.054C97.1362 12.9327 97.2622 12.872 97.4302 12.872H100.104V11.668C100.104 11.4627 100.174 11.3133 100.314 11.22C100.464 11.1267 100.627 11.08 100.804 11.08ZM100.804 16.106C100.272 16.106 99.8475 16.2553 99.5302 16.554C99.2222 16.8433 99.0682 17.2353 99.0682 17.73C99.0682 18.2153 99.2222 18.6073 99.5302 18.906C99.8475 19.2047 100.272 19.354 100.804 19.354C101.336 19.354 101.756 19.2047 102.064 18.906C102.382 18.6073 102.54 18.2153 102.54 17.73C102.54 17.2353 102.382 16.8433 102.064 16.554C101.756 16.2553 101.336 16.106 100.804 16.106ZM106.236 11.108C106.423 11.108 106.586 11.1547 106.726 11.248C106.866 11.3413 106.936 11.4907 106.936 11.696V15.476H108.476C108.663 15.476 108.794 15.5367 108.868 15.658C108.952 15.77 108.994 15.91 108.994 16.078C108.994 16.246 108.952 16.3907 108.868 16.512C108.794 16.6333 108.663 16.694 108.476 16.694H106.936V22.616C106.936 22.8213 106.866 22.9707 106.726 23.064C106.586 23.1573 106.423 23.204 106.236 23.204C106.059 23.204 105.9 23.1573 105.76 23.064C105.62 22.9707 105.55 22.8213 105.55 22.616V11.696C105.55 11.4907 105.62 11.3413 105.76 11.248C105.9 11.1547 106.059 11.108 106.236 11.108ZM115.226 12.06C115.637 12.06 115.917 12.1347 116.066 12.284C116.225 12.4333 116.304 12.7087 116.304 13.11V14.692C116.304 15.084 116.281 15.4387 116.234 15.756C116.188 16.064 116.099 16.358 115.968 16.638C115.838 16.918 115.656 17.1933 115.422 17.464C115.189 17.7253 114.886 18.0053 114.512 18.304C114.148 18.5933 113.705 18.9107 113.182 19.256C112.66 19.6013 112.039 19.9933 111.32 20.432C111.162 20.5253 111.003 20.544 110.844 20.488C110.686 20.4227 110.56 20.3247 110.466 20.194C110.373 20.0633 110.326 19.9093 110.326 19.732C110.336 19.5547 110.42 19.4147 110.578 19.312C111.241 18.9107 111.806 18.5607 112.272 18.262C112.748 17.954 113.145 17.6787 113.462 17.436C113.78 17.184 114.032 16.9553 114.218 16.75C114.414 16.5353 114.564 16.3253 114.666 16.12C114.769 15.9053 114.834 15.6813 114.862 15.448C114.89 15.2053 114.904 14.9347 114.904 14.636V13.558C114.904 13.4553 114.881 13.3853 114.834 13.348C114.797 13.3013 114.722 13.278 114.61 13.278H110.97C110.793 13.278 110.662 13.2173 110.578 13.096C110.504 12.9747 110.466 12.8347 110.466 12.676C110.466 12.508 110.504 12.3633 110.578 12.242C110.662 12.1207 110.793 12.06 110.97 12.06H115.226ZM119.566 11.108C119.753 11.108 119.916 11.1547 120.056 11.248C120.206 11.3413 120.28 11.4907 120.28 11.696V22.616C120.28 22.8213 120.206 22.9707 120.056 23.064C119.916 23.1573 119.753 23.204 119.566 23.204C119.389 23.204 119.226 23.1573 119.076 23.064C118.936 22.9707 118.866 22.8213 118.866 22.616V11.696C118.866 11.4907 118.936 11.3413 119.076 11.248C119.226 11.1547 119.389 11.108 119.566 11.108Z" fill="#BBBBBB"/>
</svg>
