<svg width="358" height="212" viewBox="0 0 358 212" fill="none" xmlns="http://www.w3.org/2000/svg">
<path d="M16 0.5H342C350.56 0.5 357.5 7.43959 357.5 16V196C357.5 204.56 350.56 211.5 342 211.5H16C7.43959 211.5 0.5 204.56 0.5 196V16C0.5 7.43959 7.43959 0.5 16 0.5Z" fill="url(#paint0_radial_493_60170)"/>
<path d="M16 0.5H342C350.56 0.5 357.5 7.43959 357.5 16V196C357.5 204.56 350.56 211.5 342 211.5H16C7.43959 211.5 0.5 204.56 0.5 196V16C0.5 7.43959 7.43959 0.5 16 0.5Z" fill="#FFF8E3"/>
<path d="M16 0.5H342C350.56 0.5 357.5 7.43959 357.5 16V196C357.5 204.56 350.56 211.5 342 211.5H16C7.43959 211.5 0.5 204.56 0.5 196V16C0.5 7.43959 7.43959 0.5 16 0.5Z" stroke="#EEEDEC"/>
<path d="M27.368 46.784C28.52 44.192 29.576 41.616 30.536 39.056C31.496 36.48 32.36 33.776 33.128 30.944C33.24 30.544 33.544 30.344 34.04 30.344C34.536 30.344 34.84 30.544 34.952 30.944C35.72 33.776 36.584 36.48 37.544 39.056C38.504 41.616 39.56 44.192 40.712 46.784C40.792 46.976 40.832 47.128 40.832 47.24C40.832 47.528 40.632 47.744 40.232 47.888C40.008 47.952 39.872 47.984 39.824 47.984C39.52 47.984 39.28 47.768 39.104 47.336C38.368 45.752 37.648 44.024 36.944 42.152H31.136C30.432 44.024 29.712 45.752 28.976 47.336C28.8 47.752 28.576 47.96 28.304 47.96C28.16 47.96 28.016 47.928 27.872 47.864C27.664 47.784 27.504 47.696 27.392 47.6C27.296 47.504 27.248 47.384 27.248 47.24C27.248 47.128 27.288 46.976 27.368 46.784ZM36.344 40.592C35.304 37.776 34.536 35.256 34.04 33.032C33.544 35.256 32.776 37.776 31.736 40.592H36.344ZM45.2941 30.248C45.5981 30.248 45.8141 30.32 45.9421 30.464C46.0701 30.592 46.1341 30.816 46.1341 31.136V47.12C46.1341 47.44 46.0701 47.664 45.9421 47.792C45.8141 47.936 45.5981 48.008 45.2941 48.008C44.9901 48.008 44.7661 47.936 44.6221 47.792C44.4941 47.664 44.4301 47.44 44.4301 47.12V31.136C44.4301 30.816 44.4941 30.592 44.6221 30.464C44.7661 30.32 44.9901 30.248 45.2941 30.248ZM59.8766 48.344C56.3566 48.344 53.1646 47.944 50.3006 47.144C50.1086 47.08 49.9566 46.984 49.8446 46.856C49.7486 46.712 49.7006 46.56 49.7006 46.4C49.7006 46.192 49.7726 46.016 49.9166 45.872C50.0606 45.712 50.2526 45.632 50.4926 45.632C50.6046 45.632 50.6926 45.64 50.7566 45.656C53.5246 46.344 56.2766 46.72 59.0126 46.784V42.032C56.9646 41.984 55.2766 41.744 53.9486 41.312C53.5166 41.168 53.2126 40.968 53.0366 40.712C52.8606 40.44 52.7726 40.072 52.7726 39.608V35.888C52.7726 35.296 53.1246 35 53.8286 35H65.1806V31.256H53.4206C53.1486 31.256 52.9326 31.184 52.7726 31.04C52.6286 30.88 52.5566 30.704 52.5566 30.512C52.5566 30.304 52.6286 30.128 52.7726 29.984C52.9326 29.84 53.1486 29.768 53.4206 29.768H65.8526C66.5566 29.768 66.9086 30.064 66.9086 30.656V35.744C66.9086 35.936 66.8286 36.104 66.6686 36.248C66.5246 36.376 66.3246 36.44 66.0686 36.44H54.5006V39.272C54.5006 39.496 54.5406 39.672 54.6206 39.8C54.7166 39.928 54.8846 40.024 55.1246 40.088C55.6206 40.232 56.3166 40.352 57.2126 40.448C58.1086 40.528 59.0446 40.568 60.0206 40.568C61.0286 40.568 62.1646 40.496 63.4286 40.352C64.6926 40.192 65.8446 39.984 66.8846 39.728C66.9486 39.712 67.0286 39.704 67.1246 39.704C67.3486 39.704 67.5246 39.776 67.6526 39.92C67.7966 40.064 67.8686 40.24 67.8686 40.448C67.8686 40.608 67.8126 40.752 67.7006 40.88C67.6046 41.008 67.4526 41.104 67.2446 41.168C66.2686 41.408 65.2046 41.608 64.0526 41.768C62.9006 41.912 61.7966 42 60.7406 42.032V46.784C63.4766 46.72 66.2286 46.344 68.9966 45.656C69.0606 45.64 69.1486 45.632 69.2606 45.632C69.5006 45.632 69.6926 45.712 69.8366 45.872C69.9806 46.016 70.0526 46.192 70.0526 46.4C70.0526 46.56 69.9966 46.712 69.8846 46.856C69.7886 46.984 69.6446 47.08 69.4526 47.144C66.5886 47.944 63.3966 48.344 59.8766 48.344ZM93.8246 29.216C93.8246 28.944 93.9046 28.736 94.0646 28.592C94.2406 28.448 94.4486 28.376 94.6886 28.376C94.9286 28.376 95.1286 28.448 95.2886 28.592C95.4646 28.736 95.5526 28.944 95.5526 29.216V33.848H98.2886C98.5606 33.848 98.7686 33.92 98.9126 34.064C99.0566 34.208 99.1286 34.392 99.1286 34.616C99.1286 34.84 99.0566 35.024 98.9126 35.168C98.7686 35.312 98.5606 35.384 98.2886 35.384H95.5526V42.968C95.5526 43.24 95.4646 43.448 95.2886 43.592C95.1286 43.736 94.9286 43.808 94.6886 43.808C94.4486 43.808 94.2406 43.736 94.0646 43.592C93.9046 43.448 93.8246 43.24 93.8246 42.968V29.216ZM79.2806 30.608C79.2806 30.016 79.6326 29.72 80.3366 29.72H88.3046C89.0086 29.72 89.3606 30.016 89.3606 30.608V37.76C89.3606 38.208 89.3046 38.528 89.1926 38.72C89.0966 38.912 88.8966 39.088 88.5926 39.248C88.1606 39.488 87.5766 39.68 86.8406 39.824C86.1206 39.968 85.2806 40.04 84.3206 40.04C83.3606 40.04 82.5126 39.968 81.7766 39.824C81.0566 39.68 80.4806 39.488 80.0486 39.248C79.7446 39.088 79.5366 38.912 79.4246 38.72C79.3286 38.528 79.2806 38.208 79.2806 37.76V30.608ZM80.9606 37.544C80.9606 37.736 80.9926 37.88 81.0566 37.976C81.1206 38.056 81.2486 38.128 81.4406 38.192C82.1286 38.432 83.0886 38.552 84.3206 38.552C84.8966 38.552 85.4406 38.52 85.9526 38.456C86.4806 38.392 86.8966 38.304 87.2006 38.192C87.3926 38.128 87.5206 38.056 87.5846 37.976C87.6486 37.88 87.6806 37.736 87.6806 37.544V31.208H80.9606V37.544ZM81.8966 43.544C81.8966 43.272 81.9766 43.064 82.1366 42.92C82.3126 42.776 82.5206 42.704 82.7606 42.704C83.0006 42.704 83.2006 42.776 83.3606 42.92C83.5366 43.064 83.6246 43.272 83.6246 43.544V48.608C83.6246 48.72 83.6566 48.808 83.7206 48.872C83.8006 48.952 83.8966 48.992 84.0086 48.992H95.3606C95.6326 48.992 95.8406 49.064 95.9846 49.208C96.1286 49.352 96.2006 49.536 96.2006 49.76C96.2006 49.984 96.1286 50.168 95.9846 50.312C95.8406 50.456 95.6326 50.528 95.3606 50.528H83.2166C82.8326 50.528 82.5126 50.4 82.2566 50.144C82.0166 49.904 81.8966 49.592 81.8966 49.208V43.544ZM105.301 40.16C104.869 40.016 104.565 39.816 104.389 39.56C104.213 39.288 104.125 38.92 104.125 38.456V30.896C104.125 30.304 104.477 30.008 105.181 30.008H117.181C117.453 30.008 117.661 30.08 117.805 30.224C117.949 30.368 118.021 30.544 118.021 30.752C118.021 30.976 117.949 31.16 117.805 31.304C117.661 31.448 117.453 31.52 117.181 31.52H105.853V38.12C105.853 38.344 105.893 38.52 105.973 38.648C106.069 38.776 106.237 38.872 106.477 38.936C106.989 39.096 107.661 39.216 108.493 39.296C109.325 39.376 110.221 39.416 111.181 39.416C112.157 39.416 113.213 39.336 114.349 39.176C115.485 39 116.565 38.768 117.589 38.48C117.717 38.448 117.805 38.432 117.853 38.432C118.077 38.432 118.253 38.504 118.381 38.648C118.509 38.776 118.573 38.944 118.573 39.152C118.573 39.328 118.517 39.488 118.405 39.632C118.309 39.76 118.157 39.856 117.949 39.92C116.861 40.24 115.693 40.488 114.445 40.664C113.213 40.824 112.021 40.904 110.869 40.904C108.661 40.904 106.805 40.656 105.301 40.16ZM101.029 46.352C101.029 46.128 101.101 45.944 101.245 45.8C101.389 45.64 101.581 45.56 101.821 45.56C101.933 45.56 102.013 45.568 102.061 45.584C105.101 46.352 108.141 46.736 111.181 46.736C114.221 46.736 117.261 46.352 120.301 45.584C120.349 45.568 120.429 45.56 120.541 45.56C120.781 45.56 120.973 45.64 121.117 45.8C121.261 45.96 121.333 46.144 121.333 46.352C121.333 46.512 121.277 46.664 121.165 46.808C121.069 46.936 120.933 47.024 120.757 47.072C117.893 47.872 114.701 48.272 111.181 48.272C107.661 48.272 104.469 47.872 101.605 47.072C101.413 47.024 101.269 46.936 101.173 46.808C101.077 46.68 101.029 46.528 101.029 46.352ZM143.442 40.28C143.714 40.28 143.922 40.352 144.066 40.496C144.21 40.624 144.282 40.8 144.282 41.024C144.282 41.232 144.21 41.408 144.066 41.552C143.922 41.696 143.714 41.768 143.442 41.768H124.53C124.258 41.768 124.05 41.696 123.906 41.552C123.762 41.408 123.69 41.232 123.69 41.024C123.69 40.8 123.762 40.624 123.906 40.496C124.05 40.352 124.258 40.28 124.53 40.28H143.442ZM126.786 44.648C126.786 44.376 126.874 44.168 127.05 44.024C127.226 43.88 127.434 43.808 127.674 43.808C127.93 43.808 128.138 43.88 128.298 44.024C128.474 44.168 128.562 44.376 128.562 44.648V48.632C128.562 48.744 128.594 48.832 128.658 48.896C128.738 48.976 128.834 49.016 128.946 49.016H140.922C141.194 49.016 141.402 49.088 141.546 49.232C141.69 49.376 141.762 49.56 141.762 49.784C141.762 50.008 141.69 50.192 141.546 50.336C141.402 50.48 141.194 50.552 140.922 50.552H128.106C127.722 50.552 127.402 50.424 127.146 50.168C126.906 49.928 126.786 49.616 126.786 49.232V44.648ZM126.978 30.272C126.978 30.016 127.058 29.808 127.218 29.648C127.378 29.488 127.586 29.408 127.842 29.408C128.098 29.408 128.306 29.488 128.466 29.648C128.626 29.808 128.706 30.016 128.706 30.272V34.76C128.706 35 128.746 35.168 128.826 35.264C128.906 35.36 129.066 35.448 129.306 35.528C130.426 35.848 131.986 36.008 133.986 36.008C134.994 36.008 136.058 35.936 137.178 35.792C138.314 35.632 139.386 35.408 140.394 35.12C140.522 35.088 140.618 35.072 140.682 35.072C140.906 35.072 141.074 35.144 141.186 35.288C141.314 35.416 141.378 35.584 141.378 35.792C141.378 35.968 141.322 36.128 141.21 36.272C141.114 36.4 140.962 36.496 140.754 36.56C139.73 36.864 138.618 37.096 137.418 37.256C136.234 37.416 135.09 37.496 133.986 37.496C132.866 37.496 131.762 37.432 130.674 37.304C129.602 37.176 128.754 37 128.13 36.776C127.682 36.616 127.378 36.424 127.218 36.2C127.058 35.96 126.978 35.592 126.978 35.096V30.272Z" fill="black"/>
<path d="M37.52 75.704C36.032 75.704 34.68 75.488 33.464 75.056C32.264 74.608 31.312 73.96 30.608 73.112C29.92 72.248 29.576 71.232 29.576 70.064C29.576 68.896 29.92 67.888 30.608 67.04C31.312 66.176 32.264 65.528 33.464 65.096C34.68 64.648 36.032 64.424 37.52 64.424C39.008 64.424 40.352 64.648 41.552 65.096C42.768 65.528 43.72 66.176 44.408 67.04C45.112 67.888 45.464 68.896 45.464 70.064C45.464 71.232 45.112 72.248 44.408 73.112C43.72 73.96 42.768 74.608 41.552 75.056C40.352 75.488 39.008 75.704 37.52 75.704ZM26.768 77.888C26.768 77.52 26.896 77.2 27.152 76.928C27.408 76.64 27.736 76.496 28.136 76.496C28.28 76.496 28.424 76.52 28.568 76.568C31.272 77.272 34.256 77.624 37.52 77.624C40.784 77.624 43.768 77.272 46.472 76.568C46.568 76.536 46.712 76.52 46.904 76.52C47.304 76.52 47.632 76.656 47.888 76.928C48.144 77.2 48.272 77.52 48.272 77.888C48.272 78.192 48.176 78.472 47.984 78.728C47.792 78.984 47.504 79.16 47.12 79.256C44.784 79.912 42.12 80.288 39.128 80.384V86.168C39.128 86.616 38.968 86.968 38.648 87.224C38.344 87.48 37.968 87.608 37.52 87.608C37.088 87.608 36.712 87.48 36.392 87.224C36.072 86.968 35.912 86.616 35.912 86.168V80.384C32.92 80.288 30.256 79.912 27.92 79.256C27.536 79.16 27.248 78.984 27.056 78.728C26.864 78.472 26.768 78.192 26.768 77.888ZM32.744 70.064C32.744 71.008 33.184 71.728 34.064 72.224C34.96 72.72 36.112 72.968 37.52 72.968C38.928 72.968 40.072 72.72 40.952 72.224C41.848 71.728 42.296 71.008 42.296 70.064C42.296 69.12 41.848 68.4 40.952 67.904C40.072 67.408 38.928 67.16 37.52 67.16C36.112 67.16 34.96 67.408 34.064 67.904C33.184 68.4 32.744 69.12 32.744 70.064ZM51.1271 73.04C51.1271 72.56 51.2871 72.184 51.6071 71.912C51.9431 71.624 52.3831 71.48 52.9271 71.48H59.0711V68.048H52.1831C51.7031 68.048 51.3591 67.92 51.1511 67.664C50.9591 67.392 50.8631 67.056 50.8631 66.656C50.8631 66.272 50.9591 65.952 51.1511 65.696C51.3591 65.424 51.7031 65.288 52.1831 65.288H60.4631C61.0071 65.288 61.4391 65.432 61.7591 65.72C62.0951 65.992 62.2631 66.368 62.2631 66.848V72.824C62.2631 73.208 62.1111 73.528 61.8071 73.784C61.5031 74.04 61.1271 74.168 60.6791 74.168H54.3191V78.008C54.3191 78.152 54.3991 78.24 54.5591 78.272C55.0391 78.336 55.9431 78.368 57.2711 78.368C57.8791 78.368 58.6711 78.32 59.6471 78.224C60.6231 78.128 61.4871 77.984 62.2391 77.792C62.5591 77.728 62.7751 77.696 62.8871 77.696C63.2551 77.696 63.5591 77.84 63.7991 78.128C64.0391 78.4 64.1591 78.72 64.1591 79.088C64.1591 79.776 63.7831 80.224 63.0311 80.432C62.2151 80.656 61.2471 80.824 60.1271 80.936C59.0071 81.048 58.0551 81.104 57.2711 81.104C56.4231 81.104 55.6311 81.08 54.8951 81.032C54.1751 80.968 53.4951 80.848 52.8551 80.672C52.2311 80.496 51.7831 80.208 51.5111 79.808C51.2551 79.392 51.1271 78.888 51.1271 78.296V73.04ZM66.3671 65.216C66.3671 64.752 66.5351 64.392 66.8711 64.136C67.2071 63.88 67.5751 63.752 67.9751 63.752C68.3751 63.752 68.7431 63.88 69.0791 64.136C69.4151 64.392 69.5831 64.752 69.5831 65.216V86.168C69.5831 86.632 69.4151 86.992 69.0791 87.248C68.7431 87.504 68.3751 87.632 67.9751 87.632C67.5751 87.632 67.2071 87.504 66.8711 87.248C66.5351 86.992 66.3671 86.632 66.3671 86.168V65.216ZM88.3021 65.216C88.3021 64.752 88.4701 64.392 88.8061 64.136C89.1421 63.88 89.5101 63.752 89.9101 63.752C90.3101 63.752 90.6781 63.88 91.0141 64.136C91.3501 64.392 91.5181 64.752 91.5181 65.216V71.384H93.5101C93.9261 71.384 94.2541 71.512 94.4941 71.768C94.7341 72.024 94.8541 72.36 94.8541 72.776C94.8541 73.192 94.7341 73.528 94.4941 73.784C94.2541 74.04 93.9261 74.168 93.5101 74.168H91.5181V86.168C91.5181 86.632 91.3501 86.992 91.0141 87.248C90.6781 87.504 90.3101 87.632 89.9101 87.632C89.5101 87.632 89.1421 87.504 88.8061 87.248C88.4701 86.992 88.3021 86.632 88.3021 86.168V65.216ZM73.5421 67.016C73.5421 66.6 73.6541 66.264 73.8781 66.008C74.1181 65.752 74.4461 65.624 74.8621 65.624H83.9101C84.3421 65.624 84.7101 65.752 85.0141 66.008C85.3181 66.264 85.4701 66.608 85.4701 67.04C85.4701 68.224 85.2941 69.496 84.9421 70.856C83.8701 75.176 80.9181 78.592 76.0861 81.104C75.9741 81.184 75.8381 81.248 75.6781 81.296C75.5181 81.328 75.3741 81.344 75.2461 81.344C74.8141 81.344 74.4381 81.192 74.1181 80.888C73.8141 80.584 73.6621 80.224 73.6621 79.808C73.6621 79.536 73.7261 79.304 73.8541 79.112C73.9981 78.904 74.1741 78.744 74.3821 78.632C76.4301 77.592 78.0781 76.344 79.3261 74.888C80.5901 73.416 81.4461 71.816 81.8941 70.088C82.0541 69.368 82.1501 68.808 82.1821 68.408H74.8621C74.4461 68.408 74.1181 68.28 73.8781 68.024C73.6541 67.768 73.5421 67.432 73.5421 67.016ZM99.8452 82.04C99.3972 82.04 99.0372 81.912 98.7652 81.656C98.4932 81.4 98.3572 81.072 98.3572 80.672C98.3572 80.256 98.4932 79.928 98.7652 79.688C99.0372 79.432 99.3972 79.304 99.8452 79.304H112.757C113.285 79.304 113.717 79.44 114.053 79.712C114.389 79.984 114.557 80.352 114.557 80.816V86.096C114.557 86.56 114.389 86.92 114.053 87.176C113.717 87.432 113.349 87.56 112.949 87.56C112.549 87.56 112.181 87.432 111.845 87.176C111.509 86.92 111.341 86.56 111.341 86.096V82.04H99.8452ZM95.8852 76.496C95.8852 76.128 95.9972 75.808 96.2212 75.536C96.4452 75.264 96.7652 75.128 97.1812 75.128H105.029V73.832C105.029 73.416 105.197 73.096 105.533 72.872C105.885 72.632 106.253 72.512 106.637 72.512C107.021 72.512 107.381 72.632 107.717 72.872C108.069 73.096 108.245 73.416 108.245 73.832V75.128H116.093C116.509 75.128 116.829 75.264 117.053 75.536C117.277 75.808 117.389 76.128 117.389 76.496C117.389 76.864 117.269 77.184 117.029 77.456C116.805 77.728 116.493 77.864 116.093 77.864H97.1812C96.7812 77.864 96.4612 77.728 96.2212 77.456C95.9972 77.184 95.8852 76.864 95.8852 76.496ZM98.1652 72.368C98.1652 72.016 98.2772 71.72 98.5012 71.48C98.7412 71.24 99.0612 71.08 99.4612 71C100.997 70.712 102.309 70.304 103.397 69.776C104.501 69.232 105.053 68.616 105.053 67.928V67.712C103.229 67.696 101.485 67.568 99.8212 67.328C99.4052 67.264 99.0852 67.112 98.8612 66.872C98.6532 66.616 98.5492 66.328 98.5492 66.008C98.5492 65.624 98.7012 65.296 99.0052 65.024C99.3092 64.752 99.7252 64.64 100.253 64.688C101.581 64.816 102.717 64.912 103.661 64.976C104.621 65.04 105.613 65.072 106.637 65.072C107.661 65.072 108.645 65.04 109.589 64.976C110.549 64.912 111.693 64.816 113.021 64.688C113.533 64.64 113.941 64.76 114.245 65.048C114.549 65.32 114.701 65.648 114.701 66.032C114.701 66.352 114.589 66.632 114.365 66.872C114.157 67.112 113.853 67.264 113.453 67.328C111.821 67.568 110.093 67.696 108.269 67.712V67.928C108.269 68.616 108.821 69.232 109.925 69.776C111.029 70.32 112.341 70.736 113.861 71.024C114.261 71.104 114.573 71.264 114.797 71.504C115.037 71.728 115.157 72.016 115.157 72.368C115.157 72.816 115.005 73.176 114.701 73.448C114.397 73.72 113.965 73.824 113.405 73.76C112.093 73.584 110.797 73.216 109.517 72.656C108.253 72.096 107.301 71.464 106.661 70.76C106.021 71.464 105.053 72.096 103.757 72.656C102.477 73.216 101.165 73.584 99.8212 73.76C99.7572 73.776 99.6692 73.784 99.5572 73.784C99.1092 73.784 98.7652 73.648 98.5252 73.376C98.2852 73.104 98.1652 72.768 98.1652 72.368Z" fill="#FF8041"/>
<path d="M134.38 65.216C134.38 64.752 134.548 64.392 134.884 64.136C135.22 63.88 135.588 63.752 135.988 63.752C136.388 63.752 136.756 63.88 137.092 64.136C137.428 64.392 137.596 64.752 137.596 65.216V69.104H139.588C140.004 69.104 140.332 69.232 140.572 69.488C140.812 69.744 140.932 70.08 140.932 70.496C140.932 70.912 140.812 71.248 140.572 71.504C140.332 71.76 140.004 71.888 139.588 71.888H137.596V78.968C137.596 79.432 137.428 79.792 137.092 80.048C136.756 80.304 136.388 80.432 135.988 80.432C135.588 80.432 135.22 80.304 134.884 80.048C134.548 79.792 134.38 79.432 134.38 78.968V65.216ZM119.836 66.608C119.836 66.144 120.004 65.776 120.34 65.504C120.676 65.232 121.108 65.096 121.636 65.096H129.604C130.132 65.096 130.564 65.232 130.9 65.504C131.236 65.776 131.404 66.144 131.404 66.608V73.664C131.404 74.224 131.316 74.656 131.14 74.96C130.98 75.248 130.684 75.496 130.252 75.704C129.788 75.928 129.156 76.104 128.356 76.232C127.556 76.36 126.644 76.424 125.62 76.424C124.596 76.424 123.684 76.36 122.884 76.232C122.1 76.104 121.484 75.936 121.036 75.728C120.588 75.52 120.276 75.264 120.1 74.96C119.924 74.656 119.836 74.224 119.836 73.664V66.608ZM122.452 79.784C122.452 79.32 122.62 78.96 122.956 78.704C123.292 78.448 123.66 78.32 124.06 78.32C124.46 78.32 124.828 78.448 125.164 78.704C125.5 78.96 125.668 79.32 125.668 79.784V84.008C125.668 84.12 125.7 84.208 125.764 84.272C125.828 84.336 125.916 84.368 126.028 84.368H136.9C137.316 84.368 137.644 84.496 137.884 84.752C138.124 85.008 138.244 85.344 138.244 85.76C138.244 86.176 138.124 86.512 137.884 86.768C137.644 87.024 137.316 87.152 136.9 87.152H124.516C123.924 87.152 123.428 86.968 123.028 86.6C122.644 86.232 122.452 85.768 122.452 85.208V79.784ZM123.004 73.208C123.004 73.336 123.068 73.416 123.196 73.448C123.74 73.608 124.548 73.688 125.62 73.688C126.692 73.688 127.5 73.608 128.044 73.448C128.172 73.416 128.236 73.336 128.236 73.208V67.832H123.004V73.208ZM142.947 71.336C142.947 70.056 143.227 68.936 143.787 67.976C144.347 67 145.115 66.248 146.091 65.72C147.083 65.192 148.195 64.928 149.427 64.928C150.659 64.928 151.763 65.192 152.739 65.72C153.731 66.248 154.507 67 155.067 67.976C155.627 68.936 155.907 70.056 155.907 71.336C155.907 72.616 155.627 73.744 155.067 74.72C154.507 75.68 153.731 76.424 152.739 76.952C151.763 77.48 150.659 77.744 149.427 77.744C148.195 77.744 147.083 77.48 146.091 76.952C145.115 76.424 144.347 75.68 143.787 74.72C143.227 73.744 142.947 72.616 142.947 71.336ZM141.963 81.944C141.963 81.528 142.099 81.2 142.371 80.96C142.643 80.704 142.979 80.576 143.379 80.576C143.507 80.576 143.723 80.608 144.027 80.672C144.603 80.8 145.371 80.904 146.331 80.984C147.291 81.064 148.323 81.104 149.427 81.104C150.515 81.104 151.571 81.032 152.595 80.888C153.635 80.744 154.515 80.552 155.235 80.312C155.619 80.184 155.923 80.12 156.147 80.12C156.547 80.12 156.875 80.24 157.131 80.48C157.387 80.72 157.515 81.04 157.515 81.44C157.515 81.744 157.403 82.016 157.179 82.256C156.955 82.496 156.643 82.688 156.243 82.832C155.395 83.152 154.363 83.4 153.147 83.576C151.931 83.752 150.691 83.84 149.427 83.84C146.691 83.84 144.571 83.64 143.067 83.24C142.747 83.16 142.483 83.008 142.275 82.784C142.067 82.544 141.963 82.264 141.963 81.944ZM146.115 71.336C146.115 72.52 146.419 73.432 147.027 74.072C147.651 74.696 148.451 75.008 149.427 75.008C150.403 75.008 151.195 74.696 151.803 74.072C152.427 73.432 152.739 72.52 152.739 71.336C152.739 70.152 152.427 69.248 151.803 68.624C151.195 67.984 150.403 67.664 149.427 67.664C148.451 67.664 147.651 67.984 147.027 68.624C146.419 69.248 146.115 70.152 146.115 71.336ZM158.523 65.216C158.523 64.752 158.691 64.392 159.027 64.136C159.363 63.88 159.731 63.752 160.131 63.752C160.531 63.752 160.899 63.88 161.235 64.136C161.571 64.392 161.739 64.752 161.739 65.216V86.168C161.739 86.632 161.571 86.992 161.235 87.248C160.899 87.504 160.531 87.632 160.131 87.632C159.731 87.632 159.363 87.504 159.027 87.248C158.691 86.992 158.523 86.632 158.523 86.168V65.216ZM188.194 83C188.194 83.912 187.906 84.72 187.33 85.424C186.754 86.144 185.954 86.696 184.93 87.08C183.922 87.48 182.762 87.68 181.45 87.68C180.138 87.68 178.97 87.48 177.946 87.08C176.938 86.696 176.146 86.144 175.57 85.424C174.994 84.72 174.706 83.912 174.706 83C174.706 82.072 174.994 81.248 175.57 80.528C176.146 79.808 176.938 79.248 177.946 78.848C178.97 78.448 180.138 78.248 181.45 78.248C182.762 78.248 183.922 78.448 184.93 78.848C185.954 79.248 186.754 79.808 187.33 80.528C187.906 81.248 188.194 82.072 188.194 83ZM170.698 75.584C170.698 75.216 170.81 74.896 171.034 74.624C171.258 74.352 171.578 74.216 171.994 74.216H179.842V72.608C177.762 72.528 176.25 72.328 175.306 72.008C174.698 71.8 174.266 71.52 174.01 71.168C173.77 70.816 173.65 70.32 173.65 69.68V66.176C173.65 65.712 173.818 65.344 174.154 65.072C174.49 64.8 174.922 64.664 175.45 64.664H187.69C188.122 64.664 188.45 64.792 188.674 65.048C188.914 65.288 189.034 65.616 189.034 66.032C189.034 66.432 188.914 66.752 188.674 66.992C188.45 67.232 188.122 67.352 187.69 67.352H176.818V69.32C176.818 69.464 176.882 69.552 177.01 69.584C178.018 69.84 179.498 69.968 181.45 69.968C183.754 69.968 185.826 69.728 187.666 69.248C187.906 69.2 188.066 69.176 188.146 69.176C188.546 69.176 188.882 69.296 189.154 69.536C189.442 69.776 189.586 70.096 189.586 70.496C189.586 70.816 189.474 71.096 189.25 71.336C189.042 71.576 188.77 71.744 188.434 71.84C186.77 72.272 184.978 72.528 183.058 72.608V74.216H190.906C191.322 74.216 191.642 74.352 191.866 74.624C192.09 74.896 192.202 75.216 192.202 75.584C192.202 75.952 192.082 76.272 191.842 76.544C191.618 76.816 191.306 76.952 190.906 76.952H171.994C171.594 76.952 171.274 76.816 171.034 76.544C170.81 76.272 170.698 75.952 170.698 75.584ZM177.922 83C177.922 83.608 178.242 84.088 178.882 84.44C179.522 84.808 180.386 84.992 181.474 84.992C182.53 84.992 183.378 84.808 184.018 84.44C184.658 84.088 184.978 83.608 184.978 83C184.978 82.376 184.65 81.88 183.994 81.512C183.354 81.128 182.514 80.936 181.474 80.936C180.402 80.936 179.538 81.128 178.882 81.512C178.242 81.88 177.922 82.376 177.922 83ZM209.193 65.216C209.193 64.752 209.361 64.392 209.697 64.136C210.033 63.88 210.401 63.752 210.801 63.752C211.201 63.752 211.569 63.88 211.905 64.136C212.241 64.392 212.409 64.752 212.409 65.216V72.824H214.401C214.817 72.824 215.145 72.952 215.385 73.208C215.625 73.464 215.745 73.8 215.745 74.216C215.745 74.632 215.625 74.968 215.385 75.224C215.145 75.48 214.817 75.608 214.401 75.608H212.409V86.168C212.409 86.632 212.241 86.992 211.905 87.248C211.569 87.504 211.201 87.632 210.801 87.632C210.401 87.632 210.033 87.504 209.697 87.248C209.361 86.992 209.193 86.632 209.193 86.168V65.216ZM193.497 82.232C193.497 81.816 193.633 81.488 193.905 81.248C194.177 80.992 194.513 80.864 194.913 80.864C195.041 80.864 195.257 80.896 195.561 80.96C196.617 81.184 197.833 81.32 199.209 81.368V78.92C197.993 78.664 197.025 78.144 196.305 77.36C195.585 76.56 195.225 75.64 195.225 74.6C195.225 73.768 195.457 73.016 195.921 72.344C196.385 71.656 197.041 71.112 197.889 70.712C198.737 70.312 199.713 70.112 200.817 70.112C201.921 70.112 202.897 70.312 203.745 70.712C204.593 71.112 205.249 71.656 205.713 72.344C206.177 73.016 206.409 73.768 206.409 74.6C206.409 75.64 206.049 76.56 205.329 77.36C204.609 78.144 203.641 78.664 202.425 78.92V81.32C203.801 81.208 205.041 80.968 206.145 80.6C206.529 80.472 206.833 80.408 207.057 80.408C207.457 80.408 207.785 80.528 208.041 80.768C208.297 81.008 208.425 81.328 208.425 81.728C208.425 82.032 208.313 82.304 208.089 82.544C207.865 82.784 207.553 82.976 207.153 83.12C205.313 83.792 203.153 84.128 200.673 84.128C198.129 84.128 196.105 83.928 194.601 83.528C194.281 83.448 194.017 83.288 193.809 83.048C193.601 82.824 193.497 82.552 193.497 82.232ZM193.713 67.64C193.713 67.16 193.873 66.8 194.193 66.56C194.529 66.304 194.913 66.208 195.345 66.272C196.465 66.464 197.753 66.584 199.209 66.632V65.264C199.209 64.832 199.369 64.48 199.689 64.208C200.009 63.92 200.385 63.776 200.817 63.776C201.249 63.776 201.625 63.92 201.945 64.208C202.265 64.48 202.425 64.832 202.425 65.264V66.608C203.801 66.56 205.025 66.456 206.097 66.296C206.161 66.28 206.241 66.272 206.337 66.272C206.721 66.272 207.049 66.392 207.321 66.632C207.593 66.872 207.729 67.208 207.729 67.64C207.729 67.992 207.625 68.288 207.417 68.528C207.209 68.752 206.921 68.904 206.553 68.984C205.913 69.096 205.049 69.192 203.961 69.272C202.873 69.352 201.825 69.392 200.817 69.392C198.337 69.392 196.361 69.256 194.889 68.984C194.521 68.904 194.233 68.752 194.025 68.528C193.817 68.288 193.713 67.992 193.713 67.64ZM198.345 74.6C198.345 75.144 198.569 75.592 199.017 75.944C199.465 76.28 200.065 76.448 200.817 76.448C201.569 76.448 202.169 76.28 202.617 75.944C203.065 75.592 203.289 75.144 203.289 74.6C203.289 74.056 203.065 73.616 202.617 73.28C202.169 72.928 201.569 72.752 200.817 72.752C200.065 72.752 199.465 72.928 199.017 73.28C198.569 73.616 198.345 74.056 198.345 74.6ZM219.464 80.168C219 80.168 218.616 80.048 218.312 79.808C218.024 79.552 217.872 79.168 217.856 78.656L217.712 67.16C217.696 66.68 217.864 66.304 218.216 66.032C218.568 65.744 218.984 65.6 219.464 65.6C219.944 65.6 220.352 65.736 220.688 66.008C221.04 66.28 221.208 66.664 221.192 67.16L221.048 78.656C221.032 79.152 220.88 79.528 220.592 79.784C220.304 80.04 219.928 80.168 219.464 80.168ZM217.52 83.96C217.52 83.416 217.704 82.968 218.072 82.616C218.44 82.248 218.904 82.064 219.464 82.064C220.024 82.064 220.488 82.248 220.856 82.616C221.224 82.968 221.408 83.416 221.408 83.96C221.408 84.52 221.224 84.976 220.856 85.328C220.488 85.696 220.024 85.88 219.464 85.88C218.904 85.88 218.44 85.696 218.072 85.328C217.704 84.976 217.52 84.52 217.52 83.96Z" fill="#736A64"/>
<path d="M36.1594 103.626C36.2808 103.626 36.3694 103.668 36.4254 103.752C36.4814 103.836 36.5094 103.934 36.5094 104.046C36.5094 104.167 36.4814 104.27 36.4254 104.354C36.3694 104.438 36.2808 104.48 36.1594 104.48H29.5374C29.3601 104.48 29.2714 104.569 29.2714 104.746V106.776C29.2714 106.953 29.3601 107.042 29.5374 107.042H36.2994C36.4208 107.042 36.5094 107.084 36.5654 107.168C36.6214 107.252 36.6494 107.35 36.6494 107.462C36.6494 107.583 36.6214 107.686 36.5654 107.77C36.5094 107.854 36.4208 107.896 36.2994 107.896H29.2154C28.8514 107.896 28.5994 107.831 28.4594 107.7C28.3194 107.56 28.2494 107.313 28.2494 106.958V104.564C28.2494 104.209 28.3194 103.967 28.4594 103.836C28.5994 103.696 28.8514 103.626 29.2154 103.626H36.1594ZM32.8974 109.548H37.8814C38.0028 109.548 38.0914 109.59 38.1474 109.674C38.2034 109.758 38.2314 109.861 38.2314 109.982C38.2314 110.103 38.2034 110.206 38.1474 110.29C38.0914 110.374 38.0028 110.416 37.8814 110.416H26.9054C26.7841 110.416 26.6954 110.374 26.6394 110.29C26.5834 110.206 26.5554 110.103 26.5554 109.982C26.5554 109.861 26.5834 109.758 26.6394 109.674C26.6954 109.59 26.7841 109.548 26.9054 109.548H31.8894V107.49H32.8974V109.548ZM32.3934 111.522C33.7281 111.522 34.7548 111.713 35.4734 112.096C36.2014 112.469 36.5654 113.053 36.5654 113.846C36.5654 114.639 36.2014 115.223 35.4734 115.596C34.7548 115.979 33.7281 116.17 32.3934 116.17C31.0588 116.17 30.0274 115.979 29.2994 115.596C28.5808 115.223 28.2214 114.639 28.2214 113.846C28.2214 113.053 28.5808 112.469 29.2994 112.096C30.0274 111.713 31.0588 111.522 32.3934 111.522ZM32.3934 112.348C31.3201 112.348 30.5268 112.479 30.0134 112.74C29.5001 112.992 29.2434 113.361 29.2434 113.846C29.2434 114.331 29.5001 114.7 30.0134 114.952C30.5268 115.213 31.3201 115.344 32.3934 115.344C33.4668 115.344 34.2601 115.213 34.7734 114.952C35.2868 114.7 35.5434 114.331 35.5434 113.846C35.5434 113.361 35.2868 112.992 34.7734 112.74C34.2601 112.479 33.4668 112.348 32.3934 112.348ZM43.3016 106.44C44.235 106.44 44.949 106.636 45.4436 107.028C45.9476 107.411 46.1996 107.919 46.1996 108.554C46.1996 109.189 45.9476 109.702 45.4436 110.094C44.949 110.477 44.235 110.668 43.3016 110.668C42.3683 110.668 41.6496 110.477 41.1456 110.094C40.651 109.702 40.4036 109.189 40.4036 108.554C40.4036 107.919 40.651 107.411 41.1456 107.028C41.6496 106.636 42.3683 106.44 43.3016 106.44ZM43.3016 107.266C42.639 107.266 42.1443 107.387 41.8176 107.63C41.5003 107.873 41.3416 108.181 41.3416 108.554C41.3416 108.937 41.5003 109.249 41.8176 109.492C42.1443 109.735 42.639 109.856 43.3016 109.856C43.9643 109.856 44.4543 109.735 44.7716 109.492C45.0983 109.249 45.2616 108.937 45.2616 108.554C45.2616 108.181 45.0983 107.873 44.7716 107.63C44.4543 107.387 43.9643 107.266 43.3016 107.266ZM43.3016 103.206C43.4323 103.206 43.549 103.239 43.6516 103.304C43.7636 103.369 43.8196 103.477 43.8196 103.626V104.662H46.6476C46.7783 104.662 46.8716 104.704 46.9276 104.788C46.9836 104.872 47.0116 104.975 47.0116 105.096C47.0116 105.227 46.9836 105.334 46.9276 105.418C46.8716 105.502 46.7783 105.544 46.6476 105.544H39.8576C39.727 105.544 39.6336 105.502 39.5776 105.418C39.5216 105.334 39.4936 105.227 39.4936 105.096C39.4936 104.975 39.5216 104.872 39.5776 104.788C39.6336 104.704 39.727 104.662 39.8576 104.662H42.7836V103.626C42.7836 103.477 42.835 103.369 42.9376 103.304C43.0496 103.239 43.171 103.206 43.3016 103.206ZM48.8176 103.164C48.9483 103.164 49.065 103.197 49.1676 103.262C49.2703 103.327 49.3216 103.435 49.3216 103.584V107.91H50.9176C51.0483 107.91 51.1416 107.957 51.1976 108.05C51.2536 108.134 51.2816 108.237 51.2816 108.358C51.2816 108.489 51.2536 108.601 51.1976 108.694C51.1416 108.778 51.0483 108.82 50.9176 108.82H49.3216V114.728C49.3216 114.877 49.2703 114.985 49.1676 115.05C49.065 115.115 48.9483 115.148 48.8176 115.148C48.687 115.148 48.5703 115.115 48.4676 115.05C48.365 114.985 48.3136 114.877 48.3136 114.728V103.584C48.3136 103.435 48.365 103.327 48.4676 103.262C48.5703 103.197 48.687 103.164 48.8176 103.164ZM47.0536 112.04C47.1563 112.031 47.2403 112.063 47.3056 112.138C47.371 112.203 47.413 112.301 47.4316 112.432C47.4503 112.553 47.4316 112.661 47.3756 112.754C47.3196 112.838 47.2356 112.885 47.1236 112.894C45.8823 112.997 44.6503 113.071 43.4276 113.118C42.2143 113.155 40.9543 113.174 39.6476 113.174C39.517 113.174 39.4236 113.132 39.3676 113.048C39.3116 112.964 39.2836 112.861 39.2836 112.74C39.2836 112.619 39.3116 112.516 39.3676 112.432C39.4236 112.348 39.517 112.306 39.6476 112.306C40.1703 112.306 40.6883 112.306 41.2016 112.306C41.7243 112.306 42.2563 112.297 42.7976 112.278V110.248H43.8056V112.25C44.8323 112.213 45.915 112.143 47.0536 112.04ZM61.3358 104.256C61.4665 104.256 61.5598 104.298 61.6158 104.382C61.6718 104.466 61.6998 104.573 61.6998 104.704C61.6998 104.825 61.6718 104.933 61.6158 105.026C61.5598 105.11 61.4665 105.152 61.3358 105.152H59.2638V106.804C59.2638 107.103 59.2778 107.373 59.3058 107.616C59.3338 107.849 59.3805 108.069 59.4458 108.274C59.5205 108.47 59.6138 108.661 59.7258 108.848C59.8471 109.035 59.9918 109.226 60.1598 109.422C60.4305 109.749 60.6918 110.052 60.9438 110.332C61.2051 110.603 61.4385 110.845 61.6438 111.06C61.7278 111.153 61.7651 111.261 61.7558 111.382C61.7558 111.503 61.7045 111.611 61.6018 111.704C61.5178 111.788 61.4151 111.839 61.2938 111.858C61.1818 111.867 61.0745 111.821 60.9718 111.718C60.8318 111.569 60.6405 111.368 60.3978 111.116C60.1645 110.864 59.9265 110.593 59.6838 110.304C59.3478 109.912 59.1145 109.609 58.9838 109.394C58.8625 109.179 58.7925 108.993 58.7738 108.834H58.7598C58.7318 108.993 58.6525 109.189 58.5218 109.422C58.4005 109.646 58.1718 109.949 57.8358 110.332C57.5931 110.621 57.3411 110.901 57.0798 111.172C56.8278 111.443 56.5805 111.699 56.3378 111.942C56.2351 112.045 56.1185 112.087 55.9878 112.068C55.8665 112.049 55.7685 112.003 55.6938 111.928C55.6005 111.835 55.5445 111.727 55.5258 111.606C55.5165 111.485 55.5631 111.373 55.6658 111.27C55.9458 110.981 56.2305 110.682 56.5198 110.374C56.8091 110.066 57.0891 109.749 57.3598 109.422C57.5278 109.226 57.6678 109.035 57.7798 108.848C57.8918 108.661 57.9805 108.47 58.0458 108.274C58.1205 108.069 58.1718 107.849 58.1998 107.616C58.2371 107.373 58.2558 107.103 58.2558 106.804V105.152H56.0718C55.9505 105.152 55.8618 105.11 55.8058 105.026C55.7498 104.933 55.7218 104.825 55.7218 104.704C55.7218 104.573 55.7498 104.466 55.8058 104.382C55.8618 104.298 55.9505 104.256 56.0718 104.256H61.3358ZM63.3798 103.304C63.5011 103.304 63.6085 103.337 63.7018 103.402C63.8045 103.467 63.8558 103.57 63.8558 103.71V114.154C63.8558 114.294 63.8045 114.397 63.7018 114.462C63.6085 114.527 63.5011 114.56 63.3798 114.56C63.2491 114.56 63.1325 114.527 63.0298 114.462C62.9365 114.397 62.8898 114.294 62.8898 114.154V108.232H61.1678C61.0465 108.232 60.9578 108.19 60.9018 108.106C60.8458 108.013 60.8178 107.901 60.8178 107.77C60.8178 107.649 60.8458 107.546 60.9018 107.462C60.9578 107.378 61.0465 107.336 61.1678 107.336H62.8898V103.71C62.8898 103.57 62.9365 103.467 63.0298 103.402C63.1325 103.337 63.2491 103.304 63.3798 103.304ZM65.8438 103.164C65.9745 103.164 66.0865 103.197 66.1798 103.262C66.2825 103.327 66.3338 103.43 66.3338 103.57V114.742C66.3338 114.882 66.2825 114.985 66.1798 115.05C66.0865 115.115 65.9745 115.148 65.8438 115.148C65.7225 115.148 65.6105 115.115 65.5078 115.05C65.4145 114.985 65.3678 114.882 65.3678 114.742V103.57C65.3678 103.43 65.4145 103.327 65.5078 103.262C65.6105 103.197 65.7225 103.164 65.8438 103.164ZM75.198 103.92C75.3193 103.92 75.408 103.962 75.464 104.046C75.52 104.13 75.548 104.233 75.548 104.354C75.548 104.485 75.52 104.592 75.464 104.676C75.408 104.76 75.3193 104.802 75.198 104.802H72.636V105.712C72.636 106.188 72.7107 106.589 72.86 106.916C73.0093 107.233 73.2613 107.537 73.616 107.826C73.9707 108.106 74.302 108.363 74.61 108.596C74.9273 108.829 75.2027 109.03 75.436 109.198C75.5573 109.282 75.6227 109.385 75.632 109.506C75.6413 109.618 75.6087 109.725 75.534 109.828C75.4687 109.921 75.38 109.987 75.268 110.024C75.156 110.061 75.0347 110.033 74.904 109.94C74.7173 109.819 74.4747 109.651 74.176 109.436C73.8773 109.212 73.5647 108.969 73.238 108.708C72.874 108.409 72.608 108.162 72.44 107.966C72.272 107.761 72.1693 107.583 72.132 107.434H72.118C72.0807 107.593 71.978 107.779 71.81 107.994C71.642 108.199 71.3713 108.447 70.998 108.736C70.6713 108.997 70.3447 109.249 70.018 109.492C69.7007 109.725 69.3973 109.94 69.108 110.136C68.9867 110.22 68.87 110.248 68.758 110.22C68.646 110.183 68.5527 110.117 68.478 110.024C68.4033 109.921 68.366 109.809 68.366 109.688C68.3753 109.557 68.4453 109.45 68.576 109.366C69.2573 108.89 69.9387 108.386 70.62 107.854C70.9747 107.555 71.2267 107.247 71.376 106.93C71.5253 106.603 71.6 106.202 71.6 105.726V104.802H68.954C68.8327 104.802 68.744 104.76 68.688 104.676C68.632 104.592 68.604 104.485 68.604 104.354C68.604 104.233 68.632 104.13 68.688 104.046C68.744 103.962 68.8327 103.92 68.954 103.92H75.198ZM77.55 103.164C77.6807 103.164 77.7973 103.197 77.9 103.262C78.012 103.327 78.068 103.435 78.068 103.584V106.272H79.846C79.9767 106.272 80.07 106.319 80.126 106.412C80.182 106.496 80.21 106.603 80.21 106.734C80.21 106.855 80.182 106.963 80.126 107.056C80.07 107.14 79.9767 107.182 79.846 107.182H78.068V110.234C78.068 110.383 78.012 110.491 77.9 110.556C77.7973 110.621 77.6807 110.654 77.55 110.654C77.4193 110.654 77.3027 110.621 77.2 110.556C77.0973 110.491 77.046 110.383 77.046 110.234V103.584C77.046 103.435 77.0973 103.327 77.2 103.262C77.3027 103.197 77.4193 103.164 77.55 103.164ZM77.102 111.368C77.466 111.368 77.718 111.438 77.858 111.578C77.998 111.709 78.068 111.951 78.068 112.306V115.652C78.068 115.801 78.012 115.909 77.9 115.974C77.7973 116.039 77.6807 116.072 77.55 116.072C77.4193 116.072 77.3027 116.039 77.2 115.974C77.0973 115.909 77.046 115.801 77.046 115.652V112.502C77.046 112.334 76.9573 112.25 76.78 112.25H70.368C70.2467 112.25 70.158 112.208 70.102 112.124C70.046 112.04 70.018 111.937 70.018 111.816C70.018 111.685 70.046 111.578 70.102 111.494C70.158 111.41 70.2467 111.368 70.368 111.368H77.102ZM84.8462 107C85.3035 107 85.7142 107.07 86.0782 107.21C86.4422 107.341 86.7502 107.527 87.0022 107.77C87.2542 108.003 87.4455 108.288 87.5762 108.624C87.7069 108.951 87.7722 109.31 87.7722 109.702C87.7722 110.094 87.7069 110.458 87.5762 110.794C87.4455 111.121 87.2542 111.405 87.0022 111.648C86.7502 111.881 86.4422 112.068 86.0782 112.208C85.7142 112.339 85.3035 112.404 84.8462 112.404C84.3889 112.404 83.9782 112.339 83.6142 112.208C83.2502 112.068 82.9422 111.881 82.6902 111.648C82.4382 111.405 82.2469 111.121 82.1162 110.794C81.9855 110.458 81.9202 110.094 81.9202 109.702C81.9202 109.31 81.9855 108.951 82.1162 108.624C82.2469 108.288 82.4382 108.003 82.6902 107.77C82.9422 107.527 83.2502 107.341 83.6142 107.21C83.9782 107.07 84.3889 107 84.8462 107ZM84.8462 103.164C84.9769 103.164 85.0935 103.197 85.1962 103.262C85.3082 103.327 85.3642 103.435 85.3642 103.584V104.998H88.1782C88.2995 104.998 88.3882 105.04 88.4442 105.124C88.5002 105.208 88.5282 105.311 88.5282 105.432C88.5282 105.563 88.5002 105.67 88.4442 105.754C88.3882 105.838 88.2995 105.88 88.1782 105.88H81.3742C81.2435 105.88 81.1502 105.838 81.0942 105.754C81.0382 105.67 81.0102 105.563 81.0102 105.432C81.0102 105.311 81.0382 105.208 81.0942 105.124C81.1502 105.04 81.2435 104.998 81.3742 104.998H84.3282V103.584C84.3282 103.435 84.3795 103.327 84.4822 103.262C84.5942 103.197 84.7155 103.164 84.8462 103.164ZM84.8462 107.854C84.2302 107.854 83.7449 108.027 83.3902 108.372C83.0449 108.708 82.8722 109.151 82.8722 109.702C82.8722 110.253 83.0449 110.701 83.3902 111.046C83.7449 111.382 84.2302 111.55 84.8462 111.55C85.4622 111.55 85.9429 111.382 86.2882 111.046C86.6429 110.701 86.8202 110.253 86.8202 109.702C86.8202 109.151 86.6429 108.708 86.2882 108.372C85.9429 108.027 85.4622 107.854 84.8462 107.854ZM90.3062 103.164C90.4369 103.164 90.5535 103.197 90.6562 103.262C90.7589 103.327 90.8102 103.435 90.8102 103.584V107.63H92.5882C92.7189 107.63 92.8122 107.677 92.8682 107.77C92.9242 107.854 92.9522 107.957 92.9522 108.078C92.9522 108.209 92.9242 108.321 92.8682 108.414C92.8122 108.498 92.7189 108.54 92.5882 108.54H90.8102V114.728C90.8102 114.877 90.7589 114.985 90.6562 115.05C90.5535 115.115 90.4369 115.148 90.3062 115.148C90.1755 115.148 90.0589 115.115 89.9562 115.05C89.8535 114.985 89.8022 114.877 89.8022 114.728V103.584C89.8022 103.435 89.8535 103.327 89.9562 103.262C90.0589 103.197 90.1755 103.164 90.3062 103.164ZM99.2404 104.144C99.6044 104.144 99.8564 104.214 99.9964 104.354C100.136 104.485 100.206 104.727 100.206 105.082V106.664C100.206 107.056 100.183 107.406 100.136 107.714C100.09 108.022 99.9964 108.316 99.8564 108.596C99.7257 108.867 99.539 109.133 99.2964 109.394C99.063 109.655 98.7597 109.935 98.3864 110.234C98.013 110.523 97.5604 110.841 97.0284 111.186C96.4964 111.531 95.871 111.928 95.1524 112.376C95.0497 112.441 94.9377 112.455 94.8164 112.418C94.7044 112.381 94.611 112.311 94.5364 112.208C94.4617 112.105 94.429 111.989 94.4384 111.858C94.4477 111.727 94.5084 111.625 94.6204 111.55C95.6377 110.934 96.4497 110.421 97.0564 110.01C97.663 109.599 98.125 109.226 98.4424 108.89C98.7597 108.545 98.965 108.204 99.0584 107.868C99.1517 107.523 99.1984 107.107 99.1984 106.622V105.292C99.1984 105.124 99.1097 105.04 98.9324 105.04H94.9424C94.8117 105.04 94.7184 104.998 94.6624 104.914C94.6064 104.821 94.5784 104.713 94.5784 104.592C94.5784 104.471 94.6064 104.368 94.6624 104.284C94.7184 104.191 94.8117 104.144 94.9424 104.144H99.2404ZM103.636 103.164C103.767 103.164 103.884 103.197 103.986 103.262C104.098 103.327 104.154 103.435 104.154 103.584V114.728C104.154 114.877 104.098 114.985 103.986 115.05C103.884 115.115 103.767 115.148 103.636 115.148C103.506 115.148 103.389 115.115 103.286 115.05C103.184 114.985 103.132 114.877 103.132 114.728V103.584C103.132 103.435 103.184 103.327 103.286 103.262C103.389 103.197 103.506 103.164 103.636 103.164Z" fill="#BBBBBB"/>
<path d="M110.455 113.959L113.715 110.699C114.1 110.314 114.1 109.684 113.715 109.299L110.455 106.039" stroke="#BBBBBB" stroke-miterlimit="10" stroke-linecap="round" stroke-linejoin="round"/>
<path opacity="0.8" d="M130.11 120.7C129.674 120.804 129.238 120.908 128.271 122.25C127.305 123.592 125.821 126.168 125.384 127.832C124.946 129.497 125.601 130.17 126.111 130.605C126.908 131.283 127.964 131.561 129.396 131.801C131.088 132.085 132.457 131.766 133.214 131.607C133.95 131.451 134.746 130.914 135.71 130.284C137.752 128.95 138.575 127.087 138.719 126.033C138.88 124.849 138.581 123.823 138.062 122.93C137.87 122.6 137.648 122.265 137.027 122.002C136.064 121.595 134.602 122.389 133.395 123.166C131.635 124.298 131.178 126.765 131.1 128.281C131.052 129.23 131.228 130.119 131.47 130.833C131.703 131.519 132.477 132.503 133.642 133.681C134.677 134.726 135.899 134.838 137.466 134.842C138.69 134.845 140.784 134.705 142.055 134.554C143.737 134.355 144.537 133.719 145.284 133.188C145.829 132.799 146.309 131.997 146.893 130.935C147.9 129.102 147.736 126.839 147.412 125.863C147.188 125.185 144.313 125.48 142.487 125.831C142.018 125.921 141.671 126.619 141.115 127.747C140.252 129.498 140.34 131.634 140.458 133.119C140.533 134.074 141.372 135.008 142.311 135.983C143.26 136.969 145.788 136.476 147.885 136.188C149.133 136.016 150.008 135.384 150.705 134.902C152.9 133.257 153.916 132.576 154.348 132.216C154.541 132.046 154.683 131.904 154.83 131.758" stroke="#FFE695" stroke-width="2" stroke-linecap="round"/>
<path opacity="0.8" d="M307.379 131.978C312.111 127.066 314.943 124.441 316.527 124.298C319.674 124.013 322.015 124.343 322.611 124.675C324.247 125.587 324.504 129.19 324.51 133.159C324.511 133.818 323.918 133.885 323.567 133.886C322.225 133.892 321.522 132.27 320.875 131.077C320.012 129.483 321.116 127.215 321.767 126.018C322.321 125 324.396 124.066 326.737 123.201C329.158 123.104 331.273 123.198 332.367 123.483C332.869 123.673 333.263 123.957 333.669 124.249" stroke="#C5E384" stroke-width="2" stroke-linecap="round"/>
<path opacity="0.8" d="M287.82 122.647C287.722 122.661 287.625 122.676 287.931 121.484C288.237 120.292 288.949 117.893 289.279 116.424C289.608 114.954 289.534 114.488 289.456 114.007" stroke="#C8E3F3" stroke-width="2" stroke-linecap="round"/>
<path opacity="0.8" d="M294.453 124.844C294.644 124.795 294.834 124.747 295.698 123.988C296.562 123.23 298.093 121.764 299.67 120.254" stroke="#C8E3F3" stroke-width="2" stroke-linecap="round"/>
<path opacity="0.8" d="M148.716 151.432C148.652 151.354 148.587 151.276 146.967 151.782C145.346 152.289 142.172 153.383 138.902 154.51" stroke="#FFDFC9" stroke-width="2" stroke-linecap="round"/>
<path opacity="0.8" d="M150.352 156.078C150.015 156.486 149.678 156.895 148.863 157.548C148.048 158.2 146.766 159.085 145.445 159.996" stroke="#FFDFC9" stroke-width="2" stroke-linecap="round"/>
<path opacity="0.8" d="M155.261 159.996C155.261 160.063 155.261 160.13 154.586 161.165C153.912 162.2 152.562 164.203 151.172 166.265" stroke="#FFDFC9" stroke-width="2" stroke-linecap="round"/>
<path d="M267.062 139.629C273.659 131.687 288.887 132.784 301.077 142.079C304.395 144.61 307.145 147.488 309.259 150.496C319.943 154.577 326.809 162.601 325.481 170.626C323.821 180.652 310.002 186.883 294.616 184.544C279.807 182.293 268.945 172.924 269.63 163.285C263.442 155.031 262.09 145.617 267.062 139.629Z" fill="#8BD4D4"/>
<path d="M187.588 132.555C193.091 119.845 205.529 112.546 216.127 116.123C224.858 119.069 229.733 128.518 228.931 139.141C231.53 145.43 231.794 152.971 229.104 160.29C223.697 175.002 208.41 183.248 194.959 178.709C181.51 174.17 174.99 158.564 180.397 143.853C182.015 139.452 184.516 135.63 187.588 132.555Z" fill="#FF9852"/>
<ellipse cx="27.5837" cy="20.4353" rx="27.5837" ry="20.4353" transform="matrix(1.00204 -0.0152998 0.0165882 0.997529 215.324 139.039)" fill="#FFD342"/>
<path d="M206.34 115.375C207.878 115.577 210.437 115.965 211.98 116.298C213.567 116.64 214.098 116.925 214.542 117.121C215.227 117.423 216.143 117.726 217.161 118.322C218.21 118.936 219.402 119.87 220.861 121.502C222.035 122.815 222.434 123.763 222.716 124.302C223.023 124.888 223.277 125.525 223.549 126.192C223.825 126.869 224.133 127.609 224.562 128.459C224.961 129.249 225.223 130.039 225.43 130.699C225.649 131.4 225.785 131.875 225.942 132.184C226.217 132.721 226.414 133.405 226.59 134.002C226.778 134.637 226.95 135.201 227.175 135.642C227.737 136.745 228.04 137.946 228.192 139.126C228.509 138.983 228.849 138.836 229.214 138.687C231.169 137.89 233.746 137.064 235.036 136.64C235.687 136.425 236.014 136.312 236.183 136.249C236.224 136.234 236.253 136.223 236.273 136.214C236.282 136.211 236.289 136.208 236.294 136.206C236.473 136.096 236.681 136.071 236.871 136.119C236.999 135.929 237.21 135.797 237.455 135.782C237.653 135.77 237.768 135.749 237.839 135.732C237.926 135.712 237.943 135.702 238.071 135.664L238.095 135.657L238.119 135.65C238.559 135.549 239.159 135.591 239.708 135.649C240.369 135.59 241.354 135.457 242.309 135.509C242.654 135.528 242.97 135.502 243.55 135.494C244.099 135.487 244.782 135.502 245.71 135.609C247.035 135.762 249.515 136.102 250.885 136.373C252.44 136.681 253.339 136.837 254.4 137.414C254.996 137.738 255.446 138.054 255.806 138.296C256.177 138.546 256.434 138.704 256.714 138.802C257.572 139.101 258.406 139.681 258.999 140.087C259.094 140.153 259.324 140.263 259.745 140.458C260.133 140.637 260.627 140.864 261.152 141.139C261.375 141.255 261.606 141.382 261.841 141.52C265.377 137.946 267.269 136.89 269.244 136.289C271.642 135.561 274.529 135.196 277.905 135.459C280.405 135.653 284.45 136.369 286.906 136.823C289.153 137.238 290.719 137.767 291.932 138.334C293.139 138.899 293.982 139.498 294.732 139.989C295.485 140.483 296.246 141.171 297.011 141.908C297.798 142.666 298.572 143.457 299.436 144.26C299.419 144.245 299.453 144.279 299.609 144.341C299.752 144.398 299.952 144.462 300.212 144.53C300.734 144.665 301.441 144.804 302.317 144.953C304.078 145.253 306.4 145.579 309.131 146.015C311.667 146.419 313.561 147.426 316.531 149.088C320.13 151.102 322.427 153.775 323.467 155.716C323.923 156.567 324.185 157.468 324.319 158.459C324.915 158.132 325.427 157.866 325.854 157.666C326.358 157.43 326.829 157.241 327.2 157.198C328.853 157.005 330.197 158.008 331.706 159.207C332.397 159.756 332.615 160.477 332.67 161.131C332.697 161.448 332.687 161.764 332.673 162.044C332.657 162.34 332.64 162.576 332.638 162.814C332.631 163.652 332.242 164.307 331.747 164.79L331.695 164.84L331.635 164.88C330.021 165.946 327.419 166.602 325.702 166.709L325.646 166.712L325.591 166.708C325.17 166.672 324.612 166.59 323.933 166.391C323.715 167.966 323.456 169.332 323.192 170.452C322.808 172.08 322.398 173.274 322.067 173.815C321.487 174.764 320.763 175.299 319.927 176.012C317.992 177.663 315.645 179.702 313.226 181.243C311.96 182.05 310.589 182.636 308.721 183.3C308.328 183.439 307.941 183.57 307.561 183.695C307.568 183.704 307.575 183.713 307.583 183.722C307.834 183.964 308.101 184.257 308.341 184.571L309.18 185.544C309.551 185.965 310.028 186.495 310.652 187.161C310.949 187.478 311.29 187.716 311.697 188.041C312.051 188.323 312.518 188.72 312.725 189.28C312.82 189.536 312.901 190.035 312.873 190.557C312.846 191.081 312.7 191.796 312.179 192.337C312.04 192.481 311.867 192.666 311.698 192.816C311.533 192.962 311.292 193.15 310.988 193.237C310.962 193.244 310.919 193.26 310.827 193.299C310.746 193.334 310.626 193.386 310.496 193.437C310.222 193.543 309.872 193.653 309.42 193.703C308.517 193.803 307.296 193.66 305.515 192.964C304.266 192.476 303.434 192.058 302.815 191.654C302.185 191.243 301.797 190.859 301.431 190.481C300.851 189.88 300.253 188.936 299.753 187.987C299.335 187.195 298.962 186.353 298.707 185.623C297.69 185.621 296.504 185.43 293.715 185.106C291.103 184.803 286.607 184.078 283.679 183.594C283.303 185.863 282.942 188.047 282.71 189.297L282.708 189.308L282.706 189.317C282.368 190.894 282.244 191.331 282.162 191.672L282.158 191.692L282.152 191.712C282.087 191.929 282.038 192.14 281.979 192.376C281.924 192.601 281.859 192.852 281.77 193.089C281.585 193.585 281.259 194.113 280.581 194.386C280.081 194.587 278.91 194.837 277.786 194.854C277.219 194.863 276.604 194.814 276.066 194.636C275.527 194.459 274.967 194.116 274.7 193.479C274.419 192.81 274.181 191.458 274.777 190C275.387 188.51 275.948 187.482 277.988 182.101C277.345 181.796 276.883 181.5 276.481 181.251C274.9 180.272 273.955 179.215 271.659 177.214C270.383 176.102 269.464 175.114 268.453 173.836C267.945 173.194 267.593 172.529 267.312 171.939C267.015 171.315 266.83 170.858 266.603 170.467L266.603 170.466C266.079 169.613 265.863 168.921 265.749 168.402L265.66 167.939L265.567 167.403C265.256 167.715 264.964 167.996 264.698 168.249C264.178 168.74 263.795 169.092 263.536 169.386C261.876 171.269 260.654 172.295 259.211 173.609C257.831 174.866 256.977 175.995 254.812 177.217C253.824 177.775 252.685 178.385 251.448 178.8C251.454 178.834 251.46 178.867 251.466 178.901C251.466 178.901 251.467 178.91 251.473 178.928C251.479 178.947 251.489 178.973 251.503 179.007C251.531 179.077 251.574 179.168 251.637 179.287C251.763 179.525 251.944 179.832 252.191 180.244L252.294 180.399C252.405 180.557 252.542 180.726 252.703 180.917C252.907 181.16 253.155 181.446 253.379 181.739C253.827 182.322 254.295 183.077 254.326 184.009C254.35 184.743 254.19 185.584 253.701 186.203C253.411 186.57 252.957 187.039 252.279 187.213C251.876 187.316 250.936 187.5 249.917 187.512C248.938 187.524 247.675 187.383 246.825 186.642C246.55 186.402 246.207 186.111 245.918 185.794C245.628 185.476 245.335 185.073 245.205 184.579C245.131 184.299 245.109 183.858 245.105 183.414C245.1 182.939 245.116 182.363 245.148 181.758C245.205 180.693 245.317 179.5 245.471 178.573C242.893 178.151 239.13 177.474 235.864 176.852C235.533 178.849 235.215 180.775 235.016 181.826L235.012 181.84L235.009 181.853C234.695 183.228 234.134 184.053 233.306 185.041L233.245 185.114L233.167 185.17C232.625 185.561 231.898 185.762 231.135 185.823C230.359 185.885 229.482 185.808 228.584 185.584C228.23 185.496 227.819 185.394 227.49 185.228C227.129 185.046 226.757 184.73 226.655 184.184C226.352 182.561 226.955 180.73 228.088 178.397C228.585 177.373 228.972 176.549 229.237 175.96C229.309 175.801 229.369 175.659 229.421 175.537C227.739 175.155 226.904 174.92 226.326 174.766C225.904 174.654 225.662 174.606 225.409 174.543C225.178 174.486 224.935 174.416 224.695 174.264C223.622 173.581 222.583 172.953 221.809 172.294C221.738 172.233 221.667 172.169 221.596 172.105C221.249 172.714 220.82 173.232 220.328 173.682L220.315 173.693L220.302 173.704C219.793 174.129 219.259 174.516 218.802 174.866C218.799 174.869 218.795 174.871 218.791 174.873C218.868 174.975 218.942 175.073 219.007 175.159C219.299 175.501 219.611 175.829 219.964 176.167L219.965 176.168C220.362 176.55 220.715 176.922 221.302 177.154C221.498 177.232 221.65 177.278 221.932 177.382C222.174 177.472 222.456 177.588 222.722 177.75C223.285 178.09 223.807 178.661 223.809 179.602C223.811 180.017 223.794 180.457 223.724 180.831C223.689 181.018 223.635 181.223 223.544 181.411C223.454 181.596 223.298 181.827 223.03 181.973C222.202 182.426 220.447 183.258 218.342 183.014C217.288 182.891 215.531 182.624 214.595 182.462C213.659 182.3 213.471 182.242 213.162 182.105C212.575 181.844 212.045 181.557 211.536 181.026C211.129 180.601 210.762 180.046 210.37 179.282C209.19 179.49 208.076 179.675 205.809 179.365C203.746 179.082 199.99 178.511 197.4 177.988C194.791 177.461 193.392 176.993 191.987 176.419C190.599 175.852 189.249 175.202 187.805 174.403C187.194 174.065 186.572 173.701 185.968 173.331C185.834 173.626 185.653 173.896 185.453 174.135L185.276 174.385C185.215 174.478 185.145 174.586 185.051 174.725C184.887 174.966 184.668 175.262 184.369 175.509C184.047 175.775 183.546 176.223 183.119 176.563C182.671 176.92 182.147 177.294 181.61 177.502C181.031 177.725 179.813 178.173 177.773 178.104C176.624 178.065 175.214 177.875 174.366 177.702C173.879 177.602 173.418 177.524 173.123 177.452C172.86 177.389 172.399 177.269 172.14 176.865C171.639 176.084 170.851 174.57 171.455 172.949C171.685 172.332 172.052 171.671 172.735 171.361C173.189 171.155 174.276 170.732 175.815 170.481C177.447 170.216 178.501 170.028 180.937 169.224C180.883 169.157 180.828 169.09 180.773 169.021C180.332 168.456 179.897 167.814 179.502 167.223C179.098 166.62 178.743 166.082 178.437 165.679C177.411 164.325 176.461 162.199 175.846 159.016C175.558 157.525 175.414 156.225 175.381 155.323C175.331 153.973 175.429 152.259 175.918 150.232C176.144 149.296 176.316 148.313 176.717 146.723C176.033 146.619 175.382 146.518 174.964 146.438L174.946 146.434L174.929 146.431C174.312 146.281 173.84 146.17 172.959 145.919L172.922 145.908L172.887 145.894C171.644 145.398 170.85 145.127 170.121 144.842C169.472 144.588 168.902 144.335 168.507 143.937C168.24 143.667 167.968 143.448 167.643 143.155C167.347 142.889 167.013 142.566 166.782 142.175C166.489 141.681 166.266 140.845 166.233 140.03C166.201 139.237 166.341 138.202 167.071 137.526C167.243 137.367 167.547 137.061 167.906 136.86C168.314 136.632 168.828 136.513 169.418 136.702C169.574 136.752 169.73 136.797 169.898 136.846C170.061 136.893 170.236 136.945 170.409 137.003C170.758 137.118 171.133 137.271 171.491 137.516C171.698 137.658 171.977 137.821 172.33 138.035C172.671 138.242 173.062 138.484 173.452 138.758C174.379 139.409 175.784 139.988 178.479 140.288C178.508 140.291 178.538 140.296 178.566 140.303C178.847 139.414 179.128 138.58 179.385 137.918C179.86 136.689 180.336 135.812 180.753 135.098C181.182 134.364 181.492 133.889 181.718 133.357C182.159 132.322 183.248 129.974 185.257 126.961C186.145 125.63 186.881 124.662 187.769 123.81C189.392 122.25 190.829 120.748 191.956 119.599C192.644 118.899 193.347 118.225 194.561 117.592C195.977 116.855 198 115.878 200.458 115.544C202.654 115.246 204.261 115.101 206.34 115.375ZM279.379 182.653C277.345 188.018 276.747 189.137 276.169 190.55C275.747 191.581 275.933 192.519 276.088 192.887C276.128 192.982 276.238 193.11 276.554 193.214C276.871 193.318 277.298 193.365 277.783 193.357C278.764 193.343 279.743 193.116 280.032 192.999C280.164 192.946 280.259 192.858 280.363 192.582C280.418 192.434 280.465 192.259 280.521 192.035C280.571 191.83 280.63 191.579 280.704 191.326C280.79 190.968 280.907 190.556 281.232 189.04C281.462 187.802 281.822 185.626 282.2 183.344C281.038 183.131 280.124 182.899 279.379 182.653ZM181.989 170.449C179.036 171.45 177.864 171.662 176.039 171.958C174.651 172.184 173.694 172.563 173.344 172.722C173.235 172.772 173.056 172.938 172.863 173.455C172.54 174.321 172.911 175.239 173.356 175.959C173.387 175.969 173.432 175.982 173.495 175.998C173.766 176.063 174.099 176.115 174.686 176.235C175.461 176.393 176.787 176.571 177.843 176.607C179.61 176.667 180.616 176.287 181.083 176.107C181.391 175.988 181.764 175.739 182.19 175.399C182.637 175.042 182.986 174.718 183.417 174.362C183.547 174.255 183.668 174.105 183.81 173.896C183.928 173.724 184.111 173.426 184.282 173.212L184.288 173.205L184.294 173.197C184.444 173.019 184.547 172.857 184.61 172.714C184.625 172.658 184.638 172.587 184.655 172.494C184.316 172.267 183.993 172.042 183.691 171.821C183.057 171.356 182.525 170.914 182.03 170.432C182.016 170.437 182.003 170.444 181.989 170.449ZM230.607 176.559C230.334 177.164 229.94 178.002 229.439 179.034C228.32 181.339 227.936 182.762 228.126 183.855C228.138 183.863 228.155 183.876 228.183 183.89C228.335 183.967 228.57 184.033 228.965 184.132C229.726 184.321 230.44 184.378 231.034 184.331C231.586 184.286 231.983 184.155 232.227 184.005C232.931 183.156 233.31 182.555 233.542 181.545C233.739 180.501 234.057 178.582 234.39 176.569C233.695 176.434 233.039 176.305 232.441 176.184C231.88 176.07 231.371 175.962 230.908 175.864C230.833 176.046 230.733 176.28 230.607 176.559ZM217.462 176.048C217.209 176.29 216.84 176.555 216.434 176.813C215.954 177.12 215.366 177.452 214.729 177.77C213.856 178.205 212.859 178.628 211.891 178.925C212.167 179.421 212.404 179.749 212.631 179.986C212.948 180.317 213.279 180.51 213.789 180.737C213.881 180.777 213.921 180.795 214.035 180.824C214.174 180.86 214.407 180.908 214.87 180.988C215.788 181.146 217.516 181.409 218.535 181.527C220.091 181.708 221.444 181.125 222.211 180.719C222.221 180.686 222.235 180.639 222.247 180.576C222.29 180.343 222.307 180.017 222.306 179.625C222.305 179.347 222.194 179.19 221.93 179.031C221.784 178.942 221.604 178.865 221.392 178.786C221.22 178.722 220.922 178.622 220.732 178.546C219.823 178.187 219.261 177.585 218.915 177.252L218.63 176.972C218.352 176.693 218.093 176.413 217.845 176.122L217.831 176.106L217.819 176.09C217.767 176.021 217.708 175.943 217.647 175.862L217.462 176.048ZM249.973 179.107C249.384 179.124 248.526 179.043 246.951 178.806C246.811 179.651 246.704 180.781 246.648 181.819C246.617 182.402 246.603 182.945 246.608 183.38C246.613 183.846 246.64 184.106 246.659 184.181C246.703 184.346 246.818 184.541 247.036 184.78C247.255 185.02 247.521 185.247 247.823 185.51C248.234 185.868 249.002 186.026 249.917 186.015C250.791 186.004 251.608 185.844 251.922 185.763C252.112 185.715 252.303 185.567 252.525 185.287C252.712 185.05 252.841 184.609 252.824 184.076C252.809 183.621 252.578 183.174 252.18 182.656C251.982 182.397 251.771 182.156 251.545 181.886C251.328 181.628 251.097 181.344 250.912 181.049L250.904 181.036C250.658 180.623 250.453 180.279 250.304 179.997C250.164 179.731 250.032 179.447 249.984 179.173C249.981 179.151 249.976 179.129 249.973 179.107ZM206.125 116.859C204.246 116.612 202.798 116.735 200.643 117.027C198.457 117.324 196.625 118.196 195.245 118.916C194.242 119.439 193.672 119.979 193.024 120.639C191.914 121.771 190.45 123.302 188.804 124.882C188.034 125.621 187.371 126.482 186.507 127.778C184.559 130.699 183.512 132.961 183.101 133.927C182.824 134.575 182.429 135.189 182.05 135.839C181.659 136.509 181.224 137.311 180.787 138.441C180.099 140.218 179.204 143.352 178.637 145.353C177.876 148.036 177.706 149.208 177.379 150.564C176.925 152.445 176.838 154.021 176.883 155.25C176.912 156.06 177.045 157.283 177.322 158.716C177.909 161.755 178.792 163.647 179.641 164.766C179.981 165.214 180.367 165.802 180.755 166.383C181.152 166.976 181.56 167.576 181.963 168.092C182.762 169.114 183.498 169.811 184.591 170.611C185.699 171.424 187.145 172.316 188.549 173.093C189.946 173.866 191.243 174.49 192.572 175.034C193.885 175.57 195.194 176.011 197.717 176.521C200.26 177.034 203.98 177.601 206.032 177.881C208.232 178.182 209.16 177.98 210.378 177.767C210.445 177.755 210.513 177.739 210.582 177.725C210.616 177.714 210.65 177.709 210.684 177.703C211.735 177.472 212.971 176.981 214.068 176.434C214.665 176.136 215.205 175.83 215.635 175.556C216.08 175.272 216.358 175.053 216.469 174.933C216.912 174.46 217.408 174.058 217.894 173.684C218.391 173.303 218.858 172.965 219.333 172.57C219.824 172.119 220.221 171.598 220.508 170.952C219.704 169.983 218.986 168.86 218.417 167.831C218.198 167.434 217.15 165.786 216.224 163.182C215.746 161.836 215.388 160.934 215.016 159.18C214.753 157.941 214.41 155.965 214.349 154.285C214.288 152.628 214.417 151.245 214.741 150.209C215.122 148.996 215.474 148.052 215.98 147.243C216.495 146.417 217.144 145.769 218.059 145.094C218.578 144.712 220.529 143.414 223.288 141.731C224.281 141.126 224.566 141.021 225.246 140.645C225.608 140.445 226.104 140.158 226.755 139.821C226.643 138.594 226.372 137.389 225.833 136.333C225.535 135.749 225.327 135.047 225.148 134.441C224.957 133.797 224.799 133.265 224.6 132.876C224.369 132.422 224.184 131.766 223.994 131.161C223.793 130.516 223.559 129.822 223.217 129.145C222.76 128.241 222.435 127.455 222.156 126.771C221.873 126.077 221.649 125.517 221.382 125.006C221.081 124.432 220.764 123.657 219.734 122.506C218.357 120.966 217.28 120.138 216.387 119.615C215.464 119.074 214.765 118.863 213.92 118.49C213.505 118.307 213.082 118.071 211.644 117.761C210.162 117.442 207.652 117.06 206.125 116.859ZM306.058 184.169C303.685 184.879 301.67 185.3 300.266 185.494C300.482 186.051 300.766 186.674 301.085 187.278C301.564 188.187 302.086 188.985 302.522 189.436C302.858 189.785 303.157 190.077 303.65 190.399C304.154 190.728 304.882 191.102 306.078 191.569C307.718 192.209 308.687 192.279 309.272 192.215C309.563 192.182 309.781 192.115 309.966 192.043C310.065 192.005 310.148 191.968 310.251 191.925C310.296 191.905 310.349 191.884 310.407 191.862L310.579 191.803C310.576 191.803 310.616 191.784 310.707 191.704C310.818 191.605 310.934 191.481 311.101 191.307C311.254 191.148 311.352 190.865 311.372 190.497C311.381 190.325 311.371 190.16 311.354 190.026C311.336 189.89 311.315 189.818 311.314 189.813C311.265 189.68 311.118 189.509 310.748 189.213C310.432 188.96 309.941 188.609 309.548 188.19C308.273 186.832 307.596 186.024 307.19 185.547L307.177 185.531L307.164 185.515C306.961 185.247 306.729 184.992 306.514 184.786L306.49 184.762C306.349 184.614 306.244 184.473 306.161 184.364C306.115 184.303 306.083 184.237 306.058 184.169ZM250.573 137.841C249.264 137.581 246.831 137.248 245.518 137.096C244.665 136.998 244.046 136.984 243.551 136.991C243.088 136.997 242.617 137.025 242.208 137.003C241.361 136.957 240.533 137.081 239.752 137.147L239.679 137.153L239.606 137.146C238.996 137.079 238.62 137.071 238.448 137.108C238.29 137.158 238.045 137.244 237.529 137.275C237.45 137.28 237.375 137.269 237.302 137.251C237.251 137.328 237.185 137.398 237.104 137.454C236.995 137.53 236.894 137.577 236.694 137.651C236.495 137.725 236.142 137.846 235.492 138.06C234.177 138.493 231.662 139.299 229.768 140.071C227.894 140.836 226.709 141.539 225.962 141.952C225.168 142.391 225.03 142.415 224.062 143.006C221.307 144.685 219.404 145.955 218.944 146.294C218.138 146.888 217.641 147.401 217.254 148.021C216.857 148.658 216.549 149.447 216.176 150.639C215.923 151.444 215.793 152.636 215.85 154.212C215.907 155.766 216.231 157.645 216.488 158.853C216.836 160.495 217.157 161.305 217.642 162.668C218.516 165.129 219.489 166.648 219.736 167.096C220.242 168.012 220.849 168.959 221.5 169.778C221.751 169.703 222.031 169.757 222.231 169.948C222.462 170.169 222.516 170.503 222.394 170.782C222.527 170.913 222.66 171.037 222.794 171.151C223.468 171.724 224.382 172.278 225.515 172.999C225.541 173.015 225.587 173.039 225.789 173.09C225.969 173.134 226.306 173.207 226.73 173.319C227.571 173.543 228.945 173.943 232.759 174.717C236.586 175.494 242.816 176.632 246.275 177.185C249.774 177.744 250.121 177.639 250.548 177.519C251.792 177.167 252.97 176.545 254.083 175.917C256.048 174.808 256.664 173.913 258.205 172.51C259.678 171.169 260.822 170.21 262.413 168.406C262.731 168.045 263.186 167.626 263.669 167.17C264.166 166.699 264.734 166.151 265.334 165.49C266.169 164.57 266.544 163.907 267.272 162.82C267.749 162.109 268.35 160.673 268.844 159.08C269.326 157.528 269.595 155.895 269.669 154.877C269.822 152.748 268.664 151.77 268.082 150.56C267.775 149.922 267.438 149.436 267.118 149.016C266.821 148.626 266.459 148.197 266.221 147.803C265.883 147.24 265.3 146.712 264.619 146.03C264.198 145.608 263.663 145.094 263.151 144.479C262.743 143.988 262.221 143.561 261.661 143.186C261.57 143.151 261.484 143.098 261.41 143.027C261.406 143.023 261.403 143.019 261.399 143.015C261.083 142.817 260.76 142.633 260.44 142.466C259.952 142.21 259.491 141.999 259.098 141.817C258.739 141.651 258.361 141.478 258.136 141.323C257.505 140.89 256.837 140.437 256.201 140.215C255.722 140.048 255.325 139.79 254.953 139.54C254.571 139.282 254.188 139.012 253.668 138.73C252.843 138.282 252.186 138.16 250.573 137.841ZM286.614 138.295C284.14 137.838 280.176 137.138 277.769 136.951C274.569 136.702 271.871 137.05 269.666 137.721C268.06 138.209 266.412 139.049 263.1 142.365C263.537 142.704 263.955 143.084 264.313 143.515C264.771 144.065 265.245 144.52 265.692 144.968C266.275 145.552 267.055 146.26 267.514 147.022C267.696 147.325 267.944 147.607 268.32 148.101C268.674 148.566 269.074 149.14 269.439 149.9C269.766 150.578 271.358 152.312 271.167 154.965C271.086 156.094 270.796 157.841 270.279 159.505C269.775 161.129 269.123 162.738 268.519 163.64C267.868 164.612 267.415 165.388 266.559 166.354C266.788 166.446 266.965 166.65 267.01 166.911L267.142 167.666C267.221 168.127 267.33 168.772 267.896 169.688L267.901 169.697L267.906 169.704C268.173 170.163 268.426 170.768 268.672 171.283C268.934 171.833 269.23 172.385 269.638 172.9C270.599 174.114 271.456 175.036 272.656 176.082C275.096 178.208 275.84 179.082 277.286 179.977C277.811 180.302 278.321 180.635 279.152 180.971C279.987 181.309 281.168 181.658 283 181.962C285.824 182.432 291.039 183.286 293.907 183.619C297.37 184.021 298.175 184.185 299.178 184.112C300.721 184 304.099 183.36 308.232 181.891C310.061 181.241 311.306 180.699 312.428 179.985C314.738 178.513 316.997 176.553 318.958 174.88C319.888 174.087 320.364 173.738 320.786 173.048C320.977 172.735 321.344 171.758 321.729 170.128C322.105 168.534 322.48 166.393 322.721 163.822C323.057 160.242 323.071 158.173 322.14 156.435C321.237 154.751 319.145 152.277 315.782 150.396C312.792 148.722 311.114 147.849 308.875 147.492C306.194 147.064 303.807 146.728 302.045 146.428C301.16 146.277 300.402 146.13 299.816 145.979C299.524 145.903 299.258 145.821 299.034 145.731C298.824 145.647 298.586 145.532 298.402 145.361C297.535 144.554 296.697 143.701 295.96 142.99C295.2 142.259 294.523 141.655 293.894 141.242C293.105 140.725 292.366 140.2 291.279 139.691C290.198 139.185 288.756 138.69 286.614 138.295ZM240.531 170.422C240.764 170.078 241.231 169.983 241.574 170.211C241.918 170.439 242.007 170.903 241.774 171.247C241.729 171.314 241.708 171.348 241.697 171.367C241.689 171.38 241.685 171.386 241.678 171.401C241.669 171.421 241.66 171.44 241.653 171.455C241.65 171.463 241.648 171.469 241.646 171.474C241.645 171.478 241.644 171.481 241.643 171.481L241.618 171.561L241.576 171.633C241.421 171.897 241.125 172.231 240.778 172.504C240.436 172.773 239.932 173.071 239.353 173.103C238.992 173.123 238.42 173.102 237.729 172.929C237.127 172.778 236.67 172.608 236.09 172.13C235.709 171.816 235.046 171.256 234.708 170.94C234.548 170.789 234.412 170.65 234.323 170.513C234.273 170.436 234.212 170.323 234.185 170.178C234.157 170.024 234.181 169.899 234.184 169.88C234.252 169.472 234.639 169.191 235.048 169.253C235.325 169.295 235.538 169.485 235.629 169.729C235.656 169.757 235.694 169.796 235.746 169.844C236.046 170.125 236.675 170.657 237.057 170.972C237.419 171.27 237.655 171.363 238.112 171.477C238.646 171.611 239.065 171.621 239.288 171.608C239.416 171.601 239.62 171.519 239.856 171.333C240.056 171.176 240.196 171.008 240.256 170.924C240.281 170.862 240.306 170.806 240.327 170.764C240.376 170.663 240.423 170.582 240.531 170.422ZM196.704 161.657C196.972 161.698 197.18 161.876 197.276 162.108C197.291 162.132 197.318 162.173 197.361 162.232C197.464 162.373 197.63 162.583 197.861 162.855C198.322 163.398 199.028 164.17 199.982 165.106C200.541 165.653 201.261 165.725 201.878 165.736C203.05 165.095 203.699 164.265 203.919 163.96C203.934 163.913 203.954 163.832 203.981 163.668C204.049 163.26 204.436 162.979 204.845 163.041C205.255 163.103 205.532 163.485 205.464 163.893C205.437 164.06 205.392 164.366 205.256 164.643L205.231 164.695L205.197 164.744C204.967 165.071 204.088 166.286 202.393 167.152L202.229 167.236L202.046 167.236C201.415 167.234 200.012 167.247 198.922 166.179C197.939 165.216 197.201 164.412 196.707 163.83C196.462 163.541 196.272 163.301 196.141 163.121C196.077 163.033 196.019 162.949 195.975 162.876C195.954 162.841 195.926 162.791 195.902 162.737C195.89 162.71 195.872 162.666 195.857 162.612C195.847 162.573 195.813 162.446 195.84 162.284C195.908 161.876 196.295 161.595 196.704 161.657ZM239.82 161.209L239.856 161.215L239.89 161.224C240.505 161.393 241.054 161.502 241.502 161.897C241.663 162.04 242.004 162.298 242.202 162.721C242.339 163.014 242.479 163.407 242.596 163.87C242.725 164.377 242.773 165.208 242.527 166.06C242.453 166.313 242.349 166.605 242.153 166.889C241.953 167.18 241.683 167.425 241.325 167.635C240.92 167.872 240.287 168.163 239.649 168.269C238.993 168.377 238.408 168.281 237.958 168.184C237.767 168.143 237.537 168.098 237.348 168.05C237.171 168.005 236.922 167.934 236.715 167.799C236.505 167.661 236.249 167.491 236.009 167.242C235.763 166.986 235.554 166.671 235.379 166.251C235.167 165.743 234.911 165.102 234.873 164.53C234.865 164.412 234.853 164.204 234.933 163.957C235.01 163.719 235.15 163.508 235.328 163.303C235.706 162.868 236.039 162.51 236.297 162.254C236.424 162.127 236.542 162.016 236.643 161.931C236.693 161.89 236.751 161.845 236.812 161.805C236.832 161.792 236.909 161.739 237.019 161.699C237.068 161.468 237.225 161.263 237.458 161.16C237.529 161.129 237.645 161.077 237.817 161.04L237.858 161.032C238.08 160.997 238.393 161.017 238.678 161.046C238.837 161.062 239.015 161.084 239.207 161.112L239.82 161.209ZM293.27 169.081L293.61 169.149L293.64 169.156L293.668 169.165C294.001 169.276 294.267 169.449 294.463 169.718L294.543 169.839L294.559 169.866L294.572 169.895C294.819 170.408 295.004 170.928 295.112 171.277C295.221 171.627 295.408 172.265 295.418 172.866C295.425 173.315 295.399 173.85 295.304 174.35C295.214 174.819 295.041 175.392 294.655 175.79C294.597 175.851 294.466 175.985 294.276 176.09C294.068 176.204 293.825 176.263 293.551 176.246C293.226 176.226 292.9 176.199 292.635 176.152C292.503 176.129 292.357 176.096 292.222 176.045C292.113 176.004 291.88 175.905 291.723 175.672C291.693 175.628 291.688 175.632 291.565 175.483C291.468 175.366 291.349 175.204 291.252 174.983C291.142 174.733 291.113 174.434 291.108 174.173C291.101 173.89 291.122 173.555 291.162 173.178C291.244 172.422 291.417 171.437 291.673 170.255C291.72 170.038 291.858 169.865 292.037 169.761C292.038 169.725 292.039 169.688 292.045 169.652C292.113 169.243 292.5 168.962 292.909 169.024C293.023 169.042 293.148 169.061 293.27 169.081ZM238.508 162.535C238.371 162.522 238.26 162.514 238.177 162.512C238.135 162.51 238.107 162.51 238.09 162.51C238.084 162.513 238.074 162.518 238.051 162.528C238.039 162.533 238.026 162.537 238.014 162.541C237.967 162.763 237.823 162.952 237.62 163.057C237.615 163.061 237.608 163.067 237.6 163.074C237.547 163.119 237.463 163.195 237.351 163.307C237.128 163.528 236.822 163.857 236.46 164.274C236.411 164.331 236.384 164.368 236.371 164.388C236.371 164.395 236.372 164.403 236.373 164.413C236.392 164.699 236.539 165.113 236.768 165.662C236.881 165.933 236.994 166.089 237.101 166.199C237.214 166.317 237.344 166.409 237.55 166.544C237.533 166.533 237.569 166.557 237.736 166.599C237.89 166.638 238.063 166.672 238.293 166.721C238.686 166.806 239.048 166.854 239.422 166.792C239.814 166.727 240.267 166.528 240.575 166.348C240.764 166.237 240.859 166.137 240.917 166.052C240.979 165.961 241.029 165.848 241.082 165.663C241.249 165.085 241.208 164.524 241.139 164.254C241.04 163.863 240.928 163.56 240.837 163.365C240.823 163.335 240.802 163.302 240.754 163.253C240.691 163.188 240.628 163.138 240.497 163.022C240.376 162.916 240.28 162.887 239.52 162.679C239.123 162.611 238.776 162.562 238.508 162.535ZM293.135 170.583C292.888 171.726 292.731 172.643 292.657 173.319C292.62 173.661 292.606 173.927 292.611 174.122C292.615 174.337 292.641 174.393 292.63 174.369C292.653 174.42 292.682 174.464 292.732 174.525C292.765 174.565 292.783 174.585 292.831 174.641C292.837 174.648 292.842 174.656 292.848 174.663C292.866 174.667 292.888 174.674 292.913 174.679C293.076 174.707 293.304 174.727 293.587 174.745C293.652 174.671 293.755 174.47 293.828 174.089C293.898 173.72 293.921 173.292 293.915 172.907C293.91 172.544 293.786 172.09 293.677 171.737C293.586 171.447 293.435 171.025 293.242 170.613C293.233 170.609 293.22 170.603 293.201 170.596C293.181 170.591 293.159 170.587 293.135 170.583ZM237.573 163.081C237.576 163.08 237.579 163.079 237.581 163.078C237.584 163.076 237.587 163.074 237.591 163.072C237.585 163.075 237.579 163.078 237.573 163.081ZM196.586 147.749C197.258 147.916 197.879 148.1 198.376 148.289C198.623 148.383 198.853 148.483 199.048 148.59C199.228 148.687 199.443 148.824 199.599 149.013C199.666 149.094 199.861 149.31 199.979 149.471C200.119 149.66 200.286 149.937 200.328 150.292C200.352 150.497 200.327 150.872 200.277 151.282C200.224 151.729 200.131 152.309 199.984 152.968C199.838 153.627 199.713 154.026 199.43 154.494C199.266 154.765 199.09 155.046 198.904 155.284C198.729 155.509 198.489 155.772 198.178 155.928C197.804 156.116 197.434 156.124 196.722 156.038C196.025 155.954 194.768 155.781 193.998 155.573C193.512 155.443 193.101 155.318 192.769 155.169C192.429 155.017 192.125 154.822 191.893 154.528C191.622 154.186 191.129 153.503 191.039 152.401C190.985 151.745 191.127 151.006 191.843 150.247C192.479 149.573 193.552 148.897 194.138 148.581C194.437 148.419 194.678 148.313 194.893 148.259C194.91 148.255 194.928 148.254 194.945 148.25C195.056 148.057 195.249 147.911 195.486 147.873C195.565 147.861 195.586 147.856 195.602 147.852L195.602 147.852C195.812 147.777 196.054 147.715 196.431 147.728L196.509 147.731L196.586 147.749ZM196.184 149.233C196.156 149.238 196.128 149.245 196.071 149.267L196.049 149.275L196.027 149.282C196.017 149.285 196.007 149.286 195.998 149.288C195.861 149.577 195.553 149.757 195.223 149.717C195.178 149.731 195.067 149.774 194.84 149.896C194.3 150.187 193.399 150.769 192.932 151.264C192.723 151.486 192.627 151.668 192.581 151.81C192.534 151.953 192.524 152.096 192.538 152.261C192.593 152.942 192.885 153.348 193.078 153.593C193.113 153.636 193.188 153.708 193.399 153.802C193.618 153.9 193.932 154.001 194.406 154.128C195.059 154.304 196.215 154.467 196.921 154.552C197.26 154.593 197.422 154.597 197.5 154.592C197.508 154.591 197.514 154.59 197.519 154.589C197.527 154.584 197.543 154.573 197.567 154.55C197.607 154.512 197.659 154.455 197.721 154.375C197.848 154.213 197.986 153.998 198.145 153.735C198.304 153.472 198.385 153.257 198.517 152.663C198.652 152.052 198.737 151.52 198.784 151.122C198.808 150.924 198.823 150.762 198.83 150.642C198.836 150.549 198.835 150.501 198.835 150.486C198.832 150.477 198.818 150.44 198.763 150.366C198.727 150.317 198.683 150.264 198.625 150.196C198.573 150.136 198.499 150.052 198.433 149.973C198.46 150.004 198.445 149.977 198.314 149.905C198.198 149.842 198.035 149.769 197.824 149.689C197.422 149.536 196.893 149.377 196.29 149.224C196.238 149.225 196.205 149.229 196.184 149.233ZM291.857 161.629C292.514 161.729 293.175 161.829 293.587 161.907L293.603 161.91L293.618 161.913C294.346 162.083 294.895 162.459 295.407 163.116L295.46 163.185L295.497 163.263C295.686 163.678 295.956 164.452 295.628 165.179C295.458 165.556 295.217 166.012 294.937 166.398C294.798 166.591 294.634 166.787 294.448 166.948C294.271 167.102 294.015 167.276 293.693 167.328C293.203 167.407 292.537 167.404 291.861 167.248C291.183 167.092 290.44 166.768 289.865 166.155C289.614 165.888 289.565 165.557 289.568 165.314C289.571 165.069 289.628 164.809 289.703 164.559C289.855 164.055 290.136 163.416 290.502 162.662C290.603 162.456 290.786 162.317 290.992 162.262C290.992 162.26 290.993 162.258 290.993 162.256C291.061 161.847 291.448 161.567 291.857 161.629ZM291.905 163.153C291.893 163.203 291.877 163.252 291.853 163.3C291.491 164.047 291.256 164.594 291.142 164.973C291.107 165.089 291.089 165.175 291.08 165.233C291.387 165.51 291.787 165.691 292.217 165.79C292.681 165.897 293.13 165.896 293.429 165.855C293.438 165.848 293.452 165.84 293.469 165.825C293.536 165.768 293.623 165.671 293.723 165.533C293.922 165.258 294.114 164.9 294.259 164.579C294.294 164.5 294.292 164.295 294.16 163.976C293.85 163.599 293.593 163.452 293.272 163.375C292.949 163.314 292.453 163.237 291.905 163.153ZM168.941 138.128C168.817 138.088 168.739 138.103 168.63 138.164C168.472 138.253 168.333 138.389 168.086 138.617C167.858 138.829 167.709 139.289 167.736 139.952C167.761 140.594 167.943 141.174 168.078 141.403C168.187 141.587 168.375 141.784 168.658 142.038C168.912 142.267 169.279 142.57 169.584 142.879C169.73 143.025 170.012 143.184 170.686 143.448C171.273 143.678 172.256 144.023 173.419 144.487C174.235 144.719 174.675 144.824 175.271 144.969C175.685 145.048 176.366 145.153 177.107 145.265C177.135 145.167 177.162 145.066 177.191 144.963C177.445 144.068 177.773 142.918 178.122 141.754C175.379 141.432 173.75 140.809 172.576 139.985C172.229 139.741 171.873 139.52 171.537 139.316C171.212 139.12 170.881 138.925 170.629 138.753C170.432 138.618 170.203 138.518 169.918 138.423C169.775 138.376 169.625 138.332 169.46 138.284C169.299 138.237 169.121 138.185 168.941 138.128ZM330.759 160.382C329.143 159.097 328.288 158.576 327.356 158.684C327.26 158.696 326.993 158.778 326.481 159.018C325.997 159.245 325.368 159.576 324.587 160.014C324.536 160.042 324.484 160.061 324.431 160.077C324.446 161.228 324.354 162.501 324.218 163.943C324.189 164.26 324.156 164.571 324.122 164.876C324.779 165.093 325.306 165.174 325.687 165.209C327.205 165.103 329.434 164.517 330.752 163.674C331.002 163.413 331.133 163.14 331.135 162.821C331.138 162.541 331.159 162.235 331.172 161.986C331.185 161.721 331.191 161.488 331.173 161.274C331.138 160.867 331.025 160.593 330.759 160.382ZM232.336 146.346C232.419 146.36 232.504 146.379 232.587 146.405C232.668 146.431 232.785 146.477 232.898 146.559C232.999 146.632 233.137 146.764 233.208 146.97L233.234 147.063L233.264 147.258C233.284 147.457 233.272 147.669 233.226 147.87C233.166 148.133 233.029 148.463 232.734 148.707C232.632 148.792 232.5 148.891 232.352 148.967C232.215 149.037 231.971 149.136 231.68 149.091C231.634 149.084 231.458 149.058 231.279 148.947C231.076 148.82 230.931 148.625 230.86 148.388C230.795 148.168 230.75 147.967 230.727 147.801C230.716 147.723 230.706 147.626 230.709 147.53C230.711 147.484 230.717 147.407 230.741 147.319C230.757 147.261 230.821 147.034 231.053 146.873L231.119 146.832C231.153 146.813 231.189 146.801 231.224 146.788C231.232 146.774 231.237 146.759 231.246 146.745C231.299 146.661 231.401 146.527 231.577 146.429C231.757 146.331 231.944 146.307 232.106 146.319L232.336 146.346ZM252.419 149.184C252.687 149.224 252.896 149.403 252.991 149.635C253.011 149.636 253.031 149.637 253.051 149.64C253.461 149.702 253.738 150.084 253.67 150.493C253.66 150.554 253.642 150.67 253.605 150.792L253.583 150.862L253.549 150.927C253.345 151.31 253.008 151.616 252.614 151.839L252.467 151.922L252.299 151.936C252.07 151.954 251.813 151.91 251.636 151.853C251.557 151.827 251.326 151.751 251.159 151.525C251.006 151.32 250.983 151.101 250.988 150.949C250.939 150.828 250.92 150.692 250.943 150.552C250.965 150.414 251.007 150.191 251.208 149.924C251.351 149.733 251.57 149.528 251.683 149.432C251.736 149.387 251.825 149.314 251.934 149.26C252 149.228 252.093 149.192 252.207 149.179C252.322 149.166 252.414 149.183 252.419 149.184ZM282.016 149.666C282.252 149.715 282.615 149.823 282.886 150.122L282.997 150.262L283.072 150.391C283.247 150.725 283.383 151.293 283.051 151.851C283 151.937 282.679 152.666 281.876 152.74C281.514 152.774 281.025 152.695 280.716 152.588C280.567 152.536 280.3 152.427 280.12 152.166C279.91 151.863 279.938 151.54 279.99 151.333L280.032 151.192C280.044 151.157 280.058 151.123 280.072 151.089C280.069 151.059 280.064 151.028 280.064 150.995C280.069 150.727 280.127 150.301 280.42 149.968L280.528 149.859C280.578 149.813 280.644 149.762 280.725 149.717C280.904 149.618 281.103 149.578 281.307 149.592C281.433 149.601 281.741 149.61 282.016 149.666ZM301.32 150.846C301.634 150.798 302.016 150.864 302.331 151.052C302.621 151.226 302.852 151.501 302.963 151.839L303.004 151.988L303.027 152.129C303.066 152.462 302.997 152.811 302.844 153.09C302.643 153.455 302.309 153.688 301.912 153.759C301.611 153.813 301.272 153.784 301.011 153.694C300.887 153.652 300.67 153.572 300.475 153.432C300.27 153.285 300.008 153.009 299.985 152.574C299.973 152.344 300.041 152.148 300.089 152.033C300.138 151.913 300.202 151.796 300.241 151.724C300.305 151.606 300.398 151.514 300.505 151.446C300.557 151.34 300.635 151.217 300.754 151.109C300.928 150.951 301.13 150.875 301.32 150.846ZM210.928 135.417C211.33 135.512 211.576 135.915 211.476 136.317C211.41 136.585 211.364 136.799 211.339 136.963C211.323 137.066 211.319 137.13 211.318 137.165C211.323 137.172 211.328 137.181 211.335 137.19C211.384 137.255 211.457 137.333 211.569 137.447C211.674 137.554 211.895 137.641 212.249 137.643C212.516 137.645 212.754 137.597 212.884 137.559C212.923 137.525 212.956 137.495 212.986 137.467C212.997 137.431 213.015 137.378 213.036 137.298C213.143 136.898 213.555 136.655 213.956 136.755C214.356 136.856 214.595 137.263 214.489 137.664C214.426 137.9 214.361 138.117 214.237 138.304L214.202 138.355L214.16 138.4C214.025 138.546 213.884 138.669 213.743 138.786L213.659 138.856L213.56 138.9C213.257 139.032 212.743 139.144 212.22 139.14C211.703 139.137 210.997 139.02 210.487 138.501C210.38 138.392 210.243 138.25 210.128 138.098C210.017 137.951 209.876 137.727 209.832 137.444C209.797 137.219 209.82 136.972 209.853 136.758C209.887 136.528 209.945 136.263 210.017 135.975C210.117 135.573 210.525 135.323 210.928 135.417ZM195.092 129.704C195.498 129.78 195.762 130.172 195.681 130.578C195.633 130.817 195.631 131.193 195.671 131.554C195.69 131.726 195.716 131.874 195.742 131.977C195.758 131.983 195.776 131.993 195.801 132C195.902 132.027 196.04 132.044 196.199 132.043C196.356 132.043 196.511 132.027 196.638 132.003C196.643 132.003 196.647 132 196.652 132C196.689 131.933 196.724 131.874 196.754 131.818C196.803 131.727 196.867 131.612 196.947 131.501C196.959 131.48 197.063 131.301 197.199 131.139C197.466 130.819 197.94 130.772 198.258 131.033C198.576 131.294 198.617 131.766 198.351 132.086C198.316 132.128 198.297 132.156 198.283 132.178C198.274 132.192 198.267 132.206 198.253 132.228C198.242 132.248 198.222 132.28 198.199 132.315L198.181 132.343L198.159 132.369C198.161 132.368 198.155 132.375 198.141 132.399C198.125 132.425 198.105 132.46 198.075 132.516C198.016 132.624 197.932 132.784 197.809 132.993L197.698 133.182L197.503 133.284C197.321 133.379 197.094 133.438 196.897 133.475C196.683 133.515 196.435 133.54 196.183 133.54C195.933 133.541 195.654 133.517 195.385 133.444C195.123 133.372 194.817 133.237 194.578 132.979C194.465 132.857 194.404 132.718 194.374 132.643C194.337 132.552 194.308 132.456 194.284 132.364C194.237 132.178 194.201 131.96 194.176 131.737C194.128 131.303 194.116 130.755 194.207 130.302C194.289 129.897 194.685 129.628 195.092 129.704Z" fill="#968F7C"/>
<defs>
<radialGradient id="paint0_radial_493_60170" cx="0" cy="0" r="1" gradientUnits="userSpaceOnUse" gradientTransform="translate(179 106) rotate(90) scale(106 179)">
<stop stop-color="#FFF1C4"/>
<stop offset="1" stop-color="#FFF8E3"/>
</radialGradient>
</defs>
</svg>
