<svg width="161" height="104" viewBox="0 0 161 104" fill="none" xmlns="http://www.w3.org/2000/svg">
<path d="M65.1953 76.665C67.9125 76.7692 70.0534 78.4639 69.9775 80.4502C69.9243 81.8394 68.8005 83.0023 67.2002 83.541C67.268 83.788 67.2999 84.0415 67.29 84.2998C67.2089 86.4174 64.4249 88.0299 61.0713 87.9014C57.7177 87.7728 55.0644 85.9516 55.1455 83.834C55.2168 81.9816 57.3569 80.5155 60.1367 80.2637C60.1346 80.2006 60.1353 80.137 60.1377 80.0732C60.2139 78.087 62.4781 76.561 65.1953 76.665Z" fill="#A6DEDE"/>
<path d="M91.7842 77.0049C89.067 77.109 86.9262 78.8038 87.002 80.79C87.0552 82.1792 88.1791 83.3422 89.7793 83.8809C89.7115 84.1278 89.6796 84.3813 89.6895 84.6396C89.7706 86.7572 92.5547 88.3697 95.9082 88.2412C99.2616 88.1127 101.915 86.2922 101.834 84.1748C101.763 82.3222 99.6228 80.8554 96.8428 80.6035C96.8448 80.5405 96.8442 80.4768 96.8418 80.4131C96.7654 78.4268 94.5014 76.9008 91.7842 77.0049Z" fill="#A6DEDE"/>
<path d="M75 24C80.7166 24 85.9656 26.0829 90.0879 29.5586C100.157 31.9668 107.703 41.8933 107.703 53.7744C107.703 67.4572 97.6958 78.5498 85.3516 78.5498C79.7964 79.4916 75.6101 79.0894 72.457 77.7334C71.7286 77.7309 71.0047 77.6934 70.2871 77.623C59.0958 77.6125 49.8782 72.7606 47.6484 64.7314C46.5633 60.8237 47.2853 56.7076 49.416 52.8447C49.6081 50.2489 50.238 47.73 51.25 45.3848C52.9318 33.2909 62.9239 24 75 24Z" fill="#C5E384"/>
<ellipse cx="75.5" cy="61.5" rx="3.5" ry="2.5" fill="#FFD342"/>
<path d="M78.0272 23.9358C74.2259 23.8272 71.6702 23.7712 70.1949 23.9342C69.3074 24.0322 68.1766 24.4229 66.4758 25.2424C64.7751 26.0619 62.5486 27.3653 61.1301 28.281C59.1032 29.5896 58.2831 30.5693 57.4365 31.6883C56.891 32.4092 56.2097 33.5133 55.5473 34.7516C54.1864 37.2959 53.3463 39.2894 52.7983 40.3294C52.3376 41.2038 51.9212 42.9574 51.1272 45.4472C50.3628 47.8442 49.9448 49.8196 49.3162 51.6496C48.9331 52.7649 48.5247 54.2941 48.2466 55.4304C47.9684 56.5667 47.8598 57.2726 47.8039 58.478C47.7479 59.6834 47.7479 61.3669 47.8022 62.6143C47.8899 64.6266 48.4572 66.2198 49.1961 67.5898C50.1507 69.3597 51.7994 70.8818 53.6384 72.4493C53.9731 72.7346 54.1625 72.7545 55.2783 73.2713C56.394 73.788 58.4576 74.7655 60.9054 75.7035C63.3533 76.6415 66.1229 77.5104 69.3417 78.148C72.5605 78.7857 76.1446 79.1658 79.5387 79.3617C82.9328 79.5575 86.0282 79.5575 88.3016 79.286C90.575 79.0144 91.9326 78.4714 93.1751 77.9201C94.4175 77.3688 95.5036 76.8258 96.6605 76.0301C97.8173 75.2345 99.0121 74.2027 100.171 72.9652C102.544 70.4302 103.806 68.3723 104.244 67.4688C104.582 66.7735 104.956 65.2522 105.886 61.8951C106.492 59.7062 106.924 56.4202 107.204 54.1986C107.619 50.9051 107.375 49.5004 107.183 48.9261C106.747 47.619 106.118 45.5065 105.183 43.7983C104.252 42.0967 103.268 39.6382 102.03 38.2016C100.977 36.9796 100.138 36.1726 99.0952 35.2667C98.0236 34.3355 95.9808 32.9965 94.5689 32.0018C93.5167 31.2605 92.7324 30.6301 91.1436 29.563C89.6691 28.5726 88.5624 27.5594 87.6582 27.0641C86.4621 26.409 85.6003 26.0784 84.2863 25.4465C83.0393 24.8468 82.3091 24.7059 81.4863 24.4031C80.6618 24.1004 80.1682 24.0461 79.7584 23.9638C79.5116 23.9358 79.1857 23.9358 78.85 23.9358" stroke="#61ACAD" stroke-width="2" stroke-linecap="round"/>
<path d="M64.9681 42.9492C64.5731 43.2006 64.3427 43.3749 64.3019 43.4833C64.2508 43.619 64.3599 43.8186 64.4911 43.9908C64.6366 44.1817 65.0655 44.1189 65.3166 44.0829C65.4048 44.0702 65.4575 43.9742 65.5117 43.8659C65.596 43.6978 65.5938 43.4941 65.5893 43.3582C65.5833 43.1776 65.3495 43.0673 65.2046 42.9903C65.1474 42.9599 65.0426 42.9764 64.9783 42.9899C64.914 43.0034 64.887 43.0303 64.8687 43.0576C64.8503 43.085 64.8413 43.1119 64.8321 43.1396" stroke="#61ACAD" stroke-width="2" stroke-linecap="round"/>
<path d="M86.6788 42.9164C86.5587 43.0515 86.4386 43.1866 86.4067 43.2862C86.3749 43.3859 86.4349 43.4459 86.586 43.4843C86.9687 43.5817 87.2848 43.5232 87.3908 43.4627C87.5427 43.3263 87.6642 43.1748 87.7097 43.0462C87.7251 42.9778 87.7251 42.9027 87.6796 42.7344" stroke="#61ACAD" stroke-width="2" stroke-linecap="round"/>
<path d="M87.271 42.457L86.998 42.548" stroke="#61ACAD" stroke-width="2" stroke-linecap="round"/>
<path d="M73.9853 58.5989C73.9464 58.5989 73.1692 58.9677 72.0026 59.5655C71.5851 59.7794 71.5542 59.872 71.5342 60.2518C71.4785 61.3098 71.5531 62.1666 71.6896 62.5281C72.0294 63.4282 72.9015 63.8516 73.4834 64.0896C73.607 64.1401 73.7664 64.1869 74.4192 64.2364C75.0719 64.2858 76.2174 64.3246 76.8949 64.3058C77.5724 64.287 77.7471 64.2093 77.9051 64.1013C78.2204 63.8859 78.5526 63.2709 78.8859 62.5069C79.0904 62.0382 79.045 61.4659 78.9479 60.7128C78.8424 59.894 78.379 59.482 78.0866 59.2966C77.109 58.677 76.6552 58.5212 76.1736 58.4129C76.0651 58.3835 75.968 58.3447 75.6656 58.3247C75.3632 58.3047 74.8584 58.3047 74.3383 58.3047" stroke="#61ACAD" stroke-width="2" stroke-linecap="round"/>
<path d="M47.9353 54.9531C48.0002 55.0181 47.0271 55.3438 45.372 55.7865C43.7789 56.2128 42.5589 56.2323 41.723 56.4281C41.115 56.5705 40.8842 57.3127 40.6874 57.8858C40.3305 58.9253 41.5001 60.5519 42.1609 61.3312C42.593 61.8408 43.2752 61.9058 45.4178 61.9068C46.2605 61.6775 46.9159 61.4158 47.3434 61.0876C47.4423 61.0212 47.5397 60.9888 47.6401 60.9553" stroke="#61ACAD" stroke-width="2" stroke-linecap="round"/>
<path d="M104.709 41.0764C106.019 40.487 106.805 40.0944 108.066 39.1449C108.547 38.783 109.003 38.65 110.361 38.6652C111.137 38.6739 111.398 39.1734 111.76 39.5823C112.081 39.9457 112.089 41.5881 111.746 42.8771C111.472 43.9097 110.843 44.1247 110.532 44.4372C110.172 44.7993 109.729 45.2071 109.319 45.4216C108.713 45.6027 108.056 45.6676 107.534 45.766C107.206 45.7995 106.752 45.7995 106.283 45.7995" stroke="#61ACAD" stroke-width="2" stroke-linecap="round"/>
<path d="M62.2343 76.5508C61.3901 77.9146 60.7603 78.7795 59.7995 79.3502C59.0531 79.7934 57.7022 80.4079 56.9027 80.8236C55.469 81.5691 55.0868 82.4172 54.708 83.5325C54.5179 84.0921 54.6903 84.6173 54.8044 85.0099C55.0586 85.8841 55.9665 86.355 57.6672 87.0113C58.2036 87.2183 58.8436 87.2091 59.7783 87.2425C60.7131 87.276 61.947 87.276 62.7287 87.211C63.5105 87.1461 63.8027 87.0162 64.4079 86.6408C65.9464 85.6864 67.0213 84.8505 67.2998 84.5396C67.7105 84.0809 68.2975 83.1177 68.8908 81.9503C69.2844 80.7523 69.679 79.8982 69.7774 79.4569C69.8108 79.2104 69.8108 78.9182 69.9092 78.4203" stroke="#61ACAD" stroke-width="2" stroke-linecap="round"/>
<path d="M86.7031 79.7663C87.7422 82.2341 88.4723 83.7326 88.7999 84.1744C89.2734 84.8128 89.9768 85.4693 91.3986 86.2383C92.1812 86.6616 93.1776 86.9748 94.3938 87.1913C95.61 87.4077 97.0387 87.4727 97.9208 87.4737C99.0969 87.475 99.7859 87.1155 100.506 86.6412C101.156 86.2134 101.494 85.6396 101.707 84.9867C102.032 83.9895 101.759 83.2436 101.562 83.0803C101.116 82.7086 100.677 82.4249 100.283 82.145C99.7762 81.7848 98.6799 81.2776 98.0861 80.8663C97.5728 80.5108 96.2259 79.351 95.298 78.2274C95.1987 78.0621 95.1337 77.9322 95.0678 77.8328C95.0019 77.7334 94.9369 77.6685 94.87 77.6016" stroke="#61ACAD" stroke-width="2" stroke-linecap="round"/>
<path d="M74.8594 68.9993C74.8594 69.0144 74.8594 69.0296 75.215 69.2795C75.5706 69.5294 76.2818 70.0136 76.7844 70.2933C77.5239 70.7049 78.0972 70.6959 78.5475 70.6808C78.8647 70.6702 79.1982 70.4983 79.5949 70.3151C79.9197 70.1651 80.3895 69.9641 80.8708 69.6814C81.2011 69.4874 81.4158 69.2451 81.607 68.9546C81.817 68.6355 81.9358 68.328 82.0963 67.8623C82.1651 67.7163 82.1962 67.5938 82.2038 67.4565C82.2114 67.3948 82.2265 67.3494 82.2421 67.2109" stroke="#61ACAD" stroke-width="2" stroke-linecap="round"/>
<path d="M6.96023 28.8138C6.45178 28.9406 5.94334 29.0674 4.81594 30.7009C3.68853 32.3344 1.95759 35.4707 1.44745 37.4964C0.93732 39.5221 1.70045 40.3421 2.29577 40.871C3.2253 41.6968 4.45758 42.0353 6.12717 42.3277C8.10124 42.6733 9.69755 42.285 10.5808 42.0905C11.4389 41.9015 12.3679 41.2477 13.4925 40.4808C15.8742 38.8567 16.8346 36.5891 17.0022 35.3054C17.1902 33.8652 16.8416 32.6161 16.2355 31.5288C16.0114 31.1269 15.7528 30.7186 15.029 30.3992C13.9049 29.9031 12.2002 30.8696 10.7919 31.8156C8.73901 33.1945 8.20603 36.1966 8.11574 38.0419C8.05918 39.1979 8.26428 40.2801 8.54691 41.1487C8.81854 41.9835 9.72151 43.1823 11.0806 44.6153C12.2875 45.8879 13.7132 46.0239 15.5401 46.0285C16.968 46.0322 19.4104 45.8625 20.8931 45.6789C22.8553 45.4359 23.7882 44.6624 24.6593 44.015C25.2952 43.5424 25.8558 42.5657 26.5361 41.2733C27.7106 39.0417 27.5192 36.2867 27.1421 35.0985C26.8804 34.2739 23.527 34.6322 21.397 35.0597C20.85 35.1695 20.446 36.0198 19.7973 37.3921C18.7899 39.5234 18.8931 42.1238 19.0302 43.932C19.1183 45.0945 20.0968 46.2306 21.192 47.4178C22.299 48.6178 25.2481 48.0186 27.6932 47.6671C29.1498 47.4578 30.1704 46.6889 30.9829 46.1019C33.5429 44.0991 34.7279 43.271 35.2317 42.8323C35.4577 42.6259 35.6234 42.4528 35.7942 42.2745" stroke="#C2E8E9" stroke-width="2" stroke-linecap="round"/>
<path d="M127 65.5364C132.786 59.2679 136.249 55.9181 138.185 55.7354C142.034 55.3724 144.896 55.7939 145.625 56.2176C147.625 57.3809 147.939 61.9784 147.946 67.0433C147.947 67.8841 147.223 67.9693 146.794 67.9711C145.153 67.9781 144.293 65.909 143.502 64.3857C142.447 62.3526 143.796 59.4578 144.593 57.9309C145.27 56.6323 147.807 55.4396 150.67 54.3364C153.63 54.2122 156.217 54.3327 157.554 54.6962C158.167 54.9391 158.649 55.3007 159.146 55.6733" stroke="#C5E384" stroke-width="2" stroke-linecap="round"/>
<path d="M121.394 26.5428C121.274 26.5298 121.154 26.5169 121.907 25.1433C122.66 23.7698 124.29 21.036 125.162 19.3281C126.034 17.6201 126.099 17.0209 126.165 16.4035" stroke="#72CACB" stroke-width="2" stroke-linecap="round"/>
<path d="M124.512 33.3386C124.753 33.3386 124.994 33.3386 126.263 32.6756C127.533 32.0126 129.823 30.6865 132.183 29.3203" stroke="#72CACB" stroke-width="2" stroke-linecap="round"/>
<path d="M22 65.3619C21.9208 65.2622 21.8416 65.1626 19.8604 65.809C17.8792 66.4555 13.9984 67.8511 10 69.2891" stroke="#72CACB" stroke-width="2" stroke-linecap="round"/>
<path d="M24 71.2891C23.5875 71.8101 23.175 72.3312 22.1787 73.1641C21.1825 73.997 19.615 75.1259 18 76.2891" stroke="#72CACB" stroke-width="2" stroke-linecap="round"/>
<path d="M30 76.2891C30 76.3742 30 76.4594 29.175 77.7807C28.35 79.102 26.7 81.6568 25 84.2891" stroke="#72CACB" stroke-width="2" stroke-linecap="round"/>
</svg>
