<svg width="158" height="68" viewBox="0 0 158 68" fill="none" xmlns="http://www.w3.org/2000/svg">
<path d="M93.3877 15.9795C98.227 7.42651 112.347 6.2624 124.925 13.3789C128.349 15.3165 131.305 17.669 133.698 20.2383C144.107 22.5884 151.613 29.2624 151.613 37.1289C151.613 46.956 139.898 54.9219 125.446 54.9219C111.536 54.9219 100.164 47.5418 99.3301 38.2256C92.4077 31.2324 89.7397 22.4271 93.3877 15.9795Z" fill="#8BD4D4"/>
<path d="M19.5029 20.7744C22.6166 7.82097 32.9063 -0.966372 43.1592 0.913086C51.6058 2.46153 57.5057 10.7878 58.3818 21.0625C61.717 26.6981 63.1026 33.8692 61.748 41.2588C59.0254 56.1115 46.2704 66.218 33.2588 63.833C20.2471 61.4478 11.9062 47.4739 14.6289 32.6211C15.4433 28.1785 17.155 24.1605 19.5029 20.7744Z" fill="#FF9852"/>
<ellipse cx="74.5609" cy="37.9628" rx="25.644" ry="19.7375" transform="rotate(-9.92638 74.5609 37.9628)" fill="#FFD342"/>
<path d="M34.0762 1.58789C35.5162 1.55802 37.9227 1.55734 39.3906 1.65137C40.9045 1.74839 41.4407 1.94513 41.8789 2.06836C42.543 2.2551 43.4407 2.41471 44.4688 2.83887C45.5303 3.27689 46.7694 4.00053 48.3574 5.35156C49.6367 6.43998 50.1485 7.29311 50.4873 7.76562C50.8583 8.28302 51.1876 8.8559 51.5381 9.4541C51.8937 10.0611 52.2873 10.7236 52.8086 11.4727C53.2951 12.1717 53.6558 12.8894 53.9453 13.4912C54.2528 14.1305 54.4481 14.5629 54.6377 14.833C54.9721 15.3092 55.2577 15.9363 55.5098 16.4805C55.7786 17.0608 56.0213 17.5737 56.293 17.9609C56.9636 18.9165 57.4194 19.9982 57.7363 21.083C57.9842 20.9156 58.2484 20.7416 58.5312 20.5645C60.2037 19.5169 62.4433 18.3514 63.5596 17.7588C64.1232 17.4595 64.4056 17.3037 64.5498 17.2197C64.5843 17.1996 64.6088 17.1849 64.625 17.1748C64.63 17.1717 64.6337 17.1681 64.6367 17.166C64.7848 17.0361 64.9721 16.9761 65.1572 16.9824C65.2538 16.7861 65.4331 16.6321 65.6631 16.5801C65.8385 16.5406 65.9369 16.5057 65.9951 16.4814C66.0693 16.4505 66.0784 16.441 66.1934 16.3838L66.2158 16.373L66.2393 16.3633C66.6388 16.197 67.2048 16.1479 67.7139 16.124C68.3046 15.9721 69.1923 15.7019 70.0781 15.6123C70.3937 15.5804 70.6715 15.5115 71.208 15.4189C71.7121 15.332 72.3446 15.2464 73.2148 15.2139C74.4524 15.1676 76.7786 15.132 78.0781 15.1924C79.5467 15.2607 80.4081 15.2796 81.4814 15.6816C82.0804 15.9061 82.5436 16.1452 82.9092 16.3242C83.287 16.5093 83.5396 16.6182 83.7998 16.6689C84.643 16.8331 85.5044 17.2709 86.1064 17.5723C86.1966 17.6174 86.4164 17.6876 86.835 17.8135C87.2175 17.9285 87.7066 18.0737 88.2314 18.2607C88.4362 18.3337 88.6493 18.4152 88.8672 18.5039C91.5497 14.601 93.123 13.3149 94.8486 12.4502C96.9431 11.4008 99.5429 10.6299 102.686 10.3896C105.011 10.2119 108.831 10.3091 111.148 10.3857C113.276 10.4561 114.798 10.735 116.003 11.1035C117.2 11.4699 118.069 11.9226 118.828 12.2822C119.599 12.6477 120.406 13.1986 121.219 13.792C122.054 14.4016 122.877 15.0412 123.786 15.6816C123.791 15.6831 123.834 15.7039 123.943 15.7305C124.079 15.7633 124.267 15.7947 124.515 15.8213C125.009 15.8745 125.675 15.9034 126.5 15.9189C128.159 15.9502 130.332 15.9239 132.903 15.9434C135.305 15.9615 137.206 16.6558 140.178 17.8125C143.794 19.2198 146.31 21.4497 147.561 23.1582C148.094 23.8877 148.469 24.6886 148.74 25.5879C149.204 25.2168 149.608 24.9082 149.951 24.667C150.375 24.3689 150.787 24.1136 151.133 24.0146C151.904 23.7941 152.64 23.8866 153.368 24.1426C154.075 24.3912 154.82 24.8107 155.626 25.2881C156.358 25.7222 156.668 26.3886 156.817 27.002C156.89 27.3018 156.929 27.6051 156.958 27.874C156.989 28.1594 157.009 28.3893 157.043 28.6172C157.163 29.4165 156.908 30.0998 156.523 30.6377L156.482 30.6953L156.431 30.7451C155.106 32.0069 152.811 33.0173 151.243 33.3711L151.187 33.3838L151.129 33.3877C150.747 33.4137 150.239 33.4182 149.609 33.334C149.648 34.8581 149.617 36.19 149.546 37.291C149.441 38.9038 149.247 40.1052 149.025 40.6709C148.637 41.6654 148.052 42.2842 147.395 43.0869C145.873 44.9457 144.03 47.239 142.045 49.0664C141.003 50.0254 139.831 50.7883 138.219 51.6953C137.888 51.8812 137.561 52.0581 137.24 52.2295C137.242 52.2312 137.244 52.2336 137.246 52.2354C137.517 52.4341 137.811 52.6796 138.082 52.9482C138.524 53.343 139.245 53.9968 140.581 55.0801C140.897 55.3364 141.24 55.5106 141.666 55.7646C142.035 55.9847 142.532 56.3011 142.811 56.8135C142.937 57.0464 143.086 57.5123 143.14 58.0156C143.193 58.5183 143.171 59.2232 142.772 59.8203C142.668 59.9773 142.536 60.1806 142.403 60.3496C142.275 60.5122 142.077 60.7346 141.799 60.8682C141.78 60.8771 141.746 60.8968 141.668 60.9473C141.6 60.9914 141.496 61.0612 141.384 61.1289C141.145 61.2724 140.836 61.43 140.421 61.5459C139.592 61.7771 138.437 61.8155 136.691 61.4072C135.47 61.1216 134.64 60.8426 134.005 60.543C133.359 60.2383 132.941 59.9247 132.548 59.6152C131.92 59.121 131.226 58.3022 130.624 57.4678C130.128 56.7811 129.666 56.0401 129.323 55.3857C128.948 55.4427 128.55 55.4768 128.048 55.5C127.309 55.5341 126.268 55.5549 124.71 55.6123C122.285 55.7017 118.094 55.6616 115.337 55.625C115.337 57.8402 115.337 59.9688 115.314 61.1934L115.313 61.2031V61.2129C115.243 62.7691 115.196 63.2051 115.173 63.543L115.172 63.5635L115.169 63.583C115.143 63.7995 115.129 64.0089 115.111 64.2432C115.094 64.4656 115.074 64.7149 115.028 64.9551C114.934 65.4515 114.717 66.013 114.121 66.3828C113.686 66.6528 112.642 67.0642 111.606 67.2451C111.083 67.3365 110.502 67.3809 109.969 67.2871C109.431 67.1924 108.851 66.938 108.504 66.3584C108.143 65.756 107.721 64.4976 108.046 63.0186C108.378 61.5066 108.736 60.4424 109.787 55.0117C109.163 54.8147 108.7 54.6 108.302 54.4238C106.698 53.7146 105.662 52.8347 103.262 51.2598C101.921 50.3802 100.927 49.5663 99.8057 48.4902C99.2402 47.9477 98.8148 47.3602 98.4678 46.8369C98.0998 46.2821 97.8633 45.8735 97.5967 45.5342V45.5332C96.78 44.5418 96.5118 43.7473 96.3457 43.249L96.2148 42.8564C96.0027 43.1601 95.8018 43.4383 95.6162 43.6904C95.2142 44.2367 94.9186 44.6281 94.7266 44.9453C93.4904 46.988 92.525 48.1486 91.4023 49.6143C90.3318 51.012 89.7158 52.2232 87.9121 53.7109C87.0972 54.3831 86.1495 55.131 85.0811 55.709C85.0906 55.7377 85.1008 55.7662 85.1104 55.7949C85.1109 55.7963 85.1141 55.8038 85.1211 55.8184C85.1291 55.8351 85.1414 55.8584 85.1592 55.8887C85.1956 55.9507 85.2489 56.0315 85.3242 56.1357C85.4765 56.3465 85.6913 56.6159 85.9844 56.9795C86.1276 57.1483 86.3133 57.3251 86.543 57.5332C86.7659 57.7351 87.0382 57.9735 87.2891 58.2217C87.7912 58.7186 88.3365 59.3753 88.5059 60.2627C88.6389 60.9602 88.6206 61.7875 88.2656 62.4521C88.0565 62.8436 87.7081 63.3688 87.0947 63.6416C86.7371 63.8006 85.8972 64.1151 84.957 64.2764C84.0578 64.4305 82.8538 64.4836 81.9395 63.8838C81.6523 63.6953 81.2904 63.4647 80.9746 63.2012C80.6565 62.9358 80.3247 62.5897 80.1289 62.1338C80.0182 61.876 79.9308 61.4564 79.8594 61.0332C79.7828 60.5794 79.7104 60.0257 79.6484 59.4424C79.5404 58.4255 79.462 57.2811 79.4609 56.377C77.0503 56.3478 73.5566 56.2504 70.5049 56.1318C70.5049 58.08 70.5054 59.9558 70.4824 60.9844L70.4814 60.998V61.0117C70.4023 62.3712 70.0125 63.2418 69.4033 64.3086L69.3564 64.3896L69.291 64.458C68.8456 64.9185 68.1979 65.2212 67.499 65.3926C66.7882 65.5668 65.9632 65.6213 65.0986 65.5371C64.7635 65.5044 64.3618 65.4657 64.0254 65.3516C63.6485 65.2236 63.2504 64.9658 63.0723 64.4531C62.5486 62.946 62.8236 61.1089 63.5078 58.7129C63.8081 57.6613 64.0378 56.8176 64.1914 56.2168C64.231 56.0621 64.262 55.9236 64.291 55.8037C62.7252 55.685 61.935 55.5827 61.3877 55.5205C60.9846 55.4747 60.7614 55.464 60.5156 55.4404C60.2936 55.4191 60.049 55.3866 59.7949 55.2705C58.7113 54.7754 57.6585 54.3233 56.8447 53.8027C56.7933 53.7698 56.7428 53.7348 56.6914 53.7002C56.467 54.308 56.1601 54.8466 55.7881 55.334L55.7773 55.3486L55.7666 55.3613C55.3636 55.8416 54.9314 56.2914 54.5674 56.6914H54.5664C54.6465 56.7718 54.7234 56.8493 54.792 56.918C55.0312 57.1312 55.2799 57.3355 55.5469 57.5391L55.8232 57.7441V57.7451C56.2495 58.0556 56.6182 58.3504 57.1748 58.4834C57.3672 58.5293 57.5043 58.5488 57.7852 58.6094C58.0223 58.6605 58.3037 58.7316 58.5781 58.8496C59.165 59.102 59.7328 59.5841 59.8779 60.4824C59.942 60.8793 59.9935 61.3021 59.9863 61.6699C59.9827 61.8537 59.9642 62.0569 59.9092 62.25C59.8556 62.4378 59.7476 62.6864 59.5146 62.873C58.8243 63.4263 57.3278 64.4902 55.3359 64.5635C54.3497 64.5997 52.6983 64.5996 51.8154 64.5811C50.9312 64.5625 50.7406 64.5336 50.4268 64.4443C49.8447 64.2788 49.3065 64.0779 48.752 63.6377C48.3187 63.2937 47.9041 62.8246 47.4395 62.1709C46.4043 62.5354 45.4011 62.8669 43.2979 62.8994C41.3643 62.9292 37.8341 62.9295 35.3799 62.8057C32.9044 62.6807 31.5453 62.4361 30.166 62.0898C28.8056 61.7483 27.4671 61.3219 26.0205 60.7666C25.4322 60.5408 24.8314 60.2944 24.2432 60.0391C24.164 60.3202 24.0442 60.5862 23.9062 60.8291L23.7822 61.0928C23.7402 61.1907 23.6925 61.3046 23.627 61.4512C23.5133 61.7053 23.3565 62.0216 23.1172 62.3047C22.8644 62.6037 22.4713 63.1076 22.1328 63.4941C21.7767 63.9007 21.3485 64.3391 20.8799 64.6201C20.3791 64.9205 19.3217 65.5314 17.4277 65.7637C16.364 65.8941 15.0379 65.9167 14.2314 65.874C13.7757 65.8499 13.3335 65.842 13.0508 65.8164C12.7974 65.7935 12.3321 65.7433 12.0195 65.3789C11.4366 64.6988 10.4865 63.3643 10.7939 61.7295C10.9102 61.1118 11.1453 60.4174 11.7383 60.0117C12.1268 59.7462 13.0638 59.1802 14.4434 58.7148C15.8888 58.2273 16.8208 57.8953 18.9072 56.7871C18.8527 56.7356 18.7963 56.6844 18.7412 56.6309C18.2504 56.1542 17.7543 55.6022 17.3027 55.0947C16.8412 54.5761 16.4348 54.1142 16.0947 53.7744C14.944 52.6246 13.7501 50.726 12.7041 47.7725C12.2139 46.3881 11.8848 45.1658 11.7178 44.3086C11.4677 43.025 11.2968 41.373 11.4375 39.3643C11.5022 38.4404 11.5118 37.4809 11.6367 35.915C11.0138 35.9147 10.4231 35.9133 10.0381 35.8975L10.001 35.8955C9.41309 35.8417 8.9624 35.8046 8.11523 35.6924L8.07617 35.6865L8.03711 35.6777C6.82065 35.383 6.06301 35.2416 5.34473 35.0732C4.71169 34.9248 4.13625 34.7628 3.70312 34.4307C3.41875 34.2127 3.14087 34.0448 2.7959 33.8105C2.48328 33.5983 2.12349 33.3347 1.84863 32.9902C1.50227 32.5561 1.17081 31.7873 1.01758 31.0146C0.868658 30.2635 0.837386 29.2518 1.40723 28.4951C1.5389 28.3204 1.77465 27.9786 2.07812 27.7305C2.42574 27.4464 2.89912 27.2469 3.49707 27.3467C3.64612 27.3716 3.79511 27.3918 3.95605 27.4141C4.11289 27.4357 4.28276 27.4591 4.45215 27.4893C4.79277 27.55 5.16754 27.6427 5.54102 27.8291C5.74985 27.9334 6.02658 28.0493 6.38379 28.2031C6.72829 28.3515 7.1264 28.5261 7.52734 28.7324C8.46072 29.2127 9.8205 29.5614 12.3252 29.457C12.3375 29.4565 12.3501 29.457 12.3623 29.457C12.4839 28.5769 12.6132 27.7491 12.7461 27.0859C12.9955 25.8419 13.2988 24.9342 13.5723 24.1914C13.8537 23.4271 14.0654 22.928 14.1924 22.3867C14.4396 21.3326 15.0818 18.9285 16.4658 15.7549C17.0769 14.3538 17.6035 13.3202 18.2891 12.374C19.5398 10.6478 20.6285 9.00354 21.4873 7.74121C22.0112 6.97112 22.5556 6.21985 23.5781 5.43359C24.7632 4.52243 26.4771 3.28858 28.6904 2.6084C30.6589 2.00355 32.1183 1.62856 34.0762 1.58789ZM111.248 55.3584C110.202 60.7537 109.826 61.9092 109.511 63.3408C109.28 64.3905 109.596 65.2605 109.791 65.5869C109.836 65.6614 109.94 65.7587 110.229 65.8096C110.521 65.8611 110.91 65.8442 111.349 65.7676C112.237 65.6123 113.09 65.2569 113.33 65.1084C113.426 65.0486 113.501 64.9596 113.555 64.6758C113.583 64.5259 113.599 64.3516 113.616 64.1299C113.632 63.9197 113.648 63.6622 113.68 63.4023C113.705 63.0506 113.748 62.6239 113.814 61.1455C113.837 59.9298 113.837 57.8172 113.837 55.5986C112.791 55.5641 111.949 55.4778 111.248 55.3584ZM20.1465 57.8271C17.5958 59.212 16.551 59.5873 14.9219 60.1367C13.6918 60.5517 12.8778 61.0498 12.585 61.25C12.5072 61.3034 12.3668 61.4794 12.2676 62.0068C12.1042 62.8764 12.575 63.6933 13.083 64.3096C13.1099 64.3136 13.1441 64.3194 13.1865 64.3232C13.4431 64.3464 13.749 64.3462 14.3105 64.376C15.0398 64.4146 16.2777 64.393 17.2451 64.2744C18.8577 64.0767 19.7116 63.572 20.1084 63.334C20.3651 63.18 20.6654 62.8923 21.0039 62.5059C21.36 62.0993 21.6298 61.7415 21.9727 61.3359C22.072 61.2183 22.1594 61.059 22.2578 60.8389C22.3388 60.6577 22.4626 60.3452 22.5869 60.1152L22.5908 60.1074L22.5957 60.0996C22.7056 59.9079 22.7748 59.7382 22.8105 59.5928C22.8155 59.5396 22.8178 59.4731 22.8193 59.3877C22.4813 59.2232 22.1565 59.0574 21.8516 58.8926C21.212 58.547 20.665 58.2077 20.1465 57.8271ZM65.6445 56.5889C65.4863 57.2075 65.2528 58.0654 64.9502 59.125C64.2764 61.4843 64.1391 62.9002 64.4756 63.918C64.4838 63.9214 64.4941 63.9263 64.5068 63.9307C64.6474 63.9784 64.8643 64.0069 65.2441 64.0439C65.9613 64.1138 66.6144 64.0648 67.1416 63.9355C67.6254 63.8169 67.9577 63.6413 68.1514 63.4717C68.666 62.5598 68.9232 61.9311 68.9824 60.9316C69.0048 59.9085 69.0048 58.0361 69.0049 56.0703C68.3665 56.0426 67.7626 56.0157 67.2109 55.9873C66.7001 55.961 66.2343 55.9332 65.8086 55.9072C65.7674 56.0886 65.7138 56.3181 65.6445 56.5889ZM53.5996 57.9004C53.4089 58.1955 53.0721 58.5494 52.6914 58.9004C52.2965 59.2644 51.8069 59.6685 51.2695 60.0664C50.5426 60.6047 49.6994 61.1497 48.8613 61.5752C49.1847 62.0017 49.4468 62.2741 49.6846 62.4629C50.0175 62.7272 50.3409 62.8599 50.8369 63.001C50.9251 63.0261 50.9611 63.0361 51.0635 63.0469C51.1926 63.0604 51.4107 63.0719 51.8467 63.0811C52.7104 63.0992 54.3321 63.0993 55.2812 63.0645C56.7037 63.0121 57.8369 62.2759 58.4775 61.7773C58.4816 61.7447 58.4852 61.6997 58.4863 61.6406C58.4908 61.4113 58.4579 61.0961 58.3975 60.7217C58.3545 60.4554 58.2316 60.3331 57.9863 60.2275C57.8448 60.1667 57.6735 60.1203 57.4688 60.0762C57.3075 60.0414 57.0116 59.9867 56.8262 59.9424C55.9227 59.7265 55.3055 59.2234 54.9414 58.958L54.6367 58.7314C54.3387 58.5042 54.0581 58.2731 53.7861 58.0303L53.7705 58.0166L53.6211 57.8672C53.6139 57.8781 53.6067 57.8894 53.5996 57.9004ZM83.6787 56.2441C83.1413 56.3388 82.3555 56.3824 80.9609 56.3857C80.9623 57.2112 81.0344 58.294 81.1396 59.2842C81.1994 59.8466 81.2688 60.3679 81.3389 60.7832C81.4141 61.229 81.4787 61.4741 81.5078 61.542C81.5717 61.6904 81.704 61.8556 81.9355 62.0488C82.1696 62.2441 82.4448 62.4209 82.7617 62.6289C83.1698 62.8967 83.872 62.9405 84.7041 62.7979C85.4948 62.6622 86.2136 62.3923 86.4854 62.2715C86.6333 62.2057 86.7807 62.0476 86.9424 61.7451C87.0769 61.4933 87.1302 61.0525 87.0332 60.5439C86.9508 60.1118 86.6724 59.7224 86.2334 59.2881C86.0138 59.0708 85.7856 58.8715 85.5361 58.6455C85.2986 58.4303 85.0424 58.1904 84.8262 57.9326L84.8164 57.9209C84.5277 57.5627 84.2878 57.262 84.1084 57.0137C83.9388 56.7789 83.773 56.5249 83.6875 56.2686C83.6848 56.2603 83.6814 56.2523 83.6787 56.2441ZM34.1074 3.08789C32.36 3.12418 31.0591 3.44952 29.1309 4.04199C27.1858 4.63976 25.6476 5.73464 24.4922 6.62305C23.6585 7.26421 23.2205 7.86034 22.7275 8.58496C21.8818 9.82814 20.772 11.5048 19.5039 13.2549C18.9121 14.0717 18.4358 14.9902 17.8408 16.3545C16.4995 19.4301 15.883 21.7458 15.6523 22.7295C15.4976 23.3892 15.2283 24.0344 14.9795 24.71C14.7228 25.4071 14.4461 26.2369 14.2168 27.3809C13.8561 29.1806 13.5119 32.3076 13.2959 34.3027C13.0061 36.9791 13.0277 38.125 12.9336 39.4688C12.803 41.3332 12.9617 42.8537 13.1895 44.0225C13.3397 44.7932 13.6474 45.9431 14.1182 47.2725C15.1169 50.0926 16.2115 51.7707 17.1543 52.7129C17.5341 53.0924 17.9794 53.5994 18.4229 54.0977C18.8762 54.6071 19.3394 55.1208 19.7861 55.5547C20.6698 56.4129 21.4464 56.9691 22.5645 57.5732C23.7003 58.187 25.1569 58.8281 26.5586 59.3662C27.9536 59.9017 29.2341 60.3091 30.5312 60.6348C31.8099 60.9557 33.0711 61.1873 35.4551 61.3076C37.8604 61.429 41.3523 61.4291 43.2744 61.3994C45.3227 61.3678 46.1328 61.043 47.2139 60.6631C47.2635 60.6456 47.3127 60.6238 47.3633 60.6045C47.4152 60.5758 47.4702 60.5573 47.5254 60.542C48.4355 60.1686 49.4706 59.5315 50.377 58.8604C50.8769 58.4901 51.3244 58.1199 51.6748 57.7969C52.0391 57.461 52.2566 57.2132 52.3389 57.0859C52.6737 56.5675 53.0684 56.1099 53.458 55.6816C53.8546 55.2458 54.2296 54.8569 54.6025 54.4141C54.9836 53.9127 55.2693 53.357 55.4355 52.6963C54.5508 51.8843 53.7232 50.9169 53.0479 50.0176C52.7872 49.6705 51.5748 48.246 50.3311 45.8887C49.6889 44.6716 49.2246 43.8605 48.6172 42.2363C48.1884 41.0899 47.5735 39.2505 47.2627 37.6533C46.9561 36.0773 46.8646 34.7368 47.0049 33.7002C47.1694 32.4847 47.3493 31.5314 47.6895 30.6836C48.0369 29.8177 48.5345 29.1013 49.2734 28.3203C49.6909 27.8792 51.284 26.3526 53.5576 24.3418C54.376 23.618 54.6263 23.4724 55.1885 23.0176C55.4873 22.7758 55.8947 22.4312 56.4346 22.0176C56.1464 20.8613 55.7153 19.7507 55.0645 18.8232C54.7016 18.3062 54.4045 17.6641 54.1484 17.1113C53.8755 16.5222 53.6501 16.0369 53.4102 15.6953C53.1282 15.2937 52.8583 14.6917 52.5938 14.1416C52.311 13.5538 51.9921 12.9254 51.5771 12.3291C51.021 11.5298 50.6026 10.8255 50.2432 10.2119C49.8787 9.5898 49.5889 9.0877 49.2676 8.63965C48.9043 8.13301 48.4983 7.44149 47.3848 6.49414C45.8927 5.22481 44.7864 4.59278 43.8965 4.22559C42.9733 3.84469 42.3123 3.7488 41.4727 3.5127C41.0665 3.39845 40.6498 3.2353 39.2939 3.14844C37.8909 3.0586 35.5362 3.05826 34.1074 3.08789ZM135.847 52.9443C133.823 53.9422 132.075 54.6262 130.828 55.0156C131.109 55.5126 131.459 56.063 131.84 56.5898C132.417 57.3889 133.014 58.0725 133.477 58.4365C133.837 58.72 134.151 58.9533 134.646 59.1865C135.151 59.4249 135.87 59.6753 137.033 59.9473C138.624 60.3192 139.508 60.2437 140.018 60.1016C140.271 60.0308 140.455 59.937 140.61 59.8438C140.694 59.7932 140.763 59.7464 140.851 59.6895C140.889 59.6644 140.936 59.6347 140.986 59.6045L141.133 59.5254C141.126 59.5293 141.156 59.5092 141.225 59.4219C141.311 59.3124 141.397 59.1778 141.524 58.9873C141.638 58.8164 141.687 58.5322 141.648 58.1748C141.631 58.0086 141.596 57.8527 141.561 57.7275C141.524 57.6008 141.494 57.5353 141.492 57.5303C141.431 57.4179 141.279 57.2804 140.897 57.0527C140.573 56.8593 140.064 56.5914 139.637 56.2451C138.262 55.1307 137.519 54.4553 137.074 54.0586L137.059 54.0449L137.043 54.0293C136.819 53.8049 136.569 53.5958 136.343 53.4316L136.329 53.4219L136.315 53.4111C136.161 53.2882 136.042 53.1679 135.949 53.0752C135.909 53.035 135.876 52.9904 135.847 52.9443ZM78.0088 16.6904C76.7726 16.633 74.4953 16.6671 73.2705 16.7129C72.4777 16.7425 71.9128 16.8199 71.4629 16.8975C71.046 16.9694 70.6107 17.0669 70.2295 17.1055C69.4539 17.1839 68.7241 17.4192 68.0127 17.5977L67.9385 17.6162L67.8623 17.6191C67.2878 17.6437 66.9546 17.6916 66.8184 17.7471C66.6803 17.8187 66.4619 17.9384 65.9932 18.0439C65.9291 18.0583 65.8645 18.0598 65.8018 18.0576C65.7663 18.1302 65.7215 18.2004 65.6611 18.2607C65.5687 18.3531 65.4779 18.4152 65.3037 18.5166C65.1312 18.617 64.8258 18.785 64.2627 19.084C63.1225 19.6893 60.9434 20.8242 59.3281 21.8359C57.7305 22.8367 56.7545 23.6797 56.1318 24.1836C55.4675 24.7211 55.3479 24.7608 54.5508 25.4658C52.2825 27.4719 50.7323 28.9616 50.3633 29.3516C49.7177 30.0338 49.342 30.5945 49.082 31.2422C48.8148 31.9083 48.6529 32.7068 48.4912 33.9014C48.3819 34.709 48.4439 35.8681 48.7354 37.3662C49.0228 38.8437 49.6048 40.5942 50.0225 41.7109C50.5906 43.23 51.0079 43.9568 51.6582 45.1895C52.832 47.4141 53.952 48.7234 54.2471 49.1162C54.8399 49.9057 55.5263 50.7081 56.2324 51.3867C56.4553 51.2951 56.718 51.3125 56.9336 51.4561C57.2023 51.6352 57.3151 51.957 57.2441 52.2539C57.3814 52.3561 57.5175 52.4522 57.6533 52.5391C58.3525 52.9863 59.2683 53.3809 60.418 53.9062C60.4329 53.9131 60.4678 53.9289 60.6582 53.9473C60.8254 53.9633 61.152 53.9842 61.5576 54.0303C62.3613 54.1217 63.6791 54.3036 67.2881 54.4893C70.9111 54.6756 76.7899 54.859 80.042 54.8848C83.3335 54.9108 83.6192 54.759 83.9746 54.5898C85.0527 54.0767 86.0342 53.3157 86.958 52.5537C88.5856 51.2113 89.0098 50.2715 90.2119 48.7021C91.3586 47.2052 92.2605 46.1236 93.4434 44.1689C93.6807 43.7768 94.0357 43.308 94.4082 42.8018C94.7923 42.2798 95.2287 41.6741 95.6777 40.9561C96.3027 39.9567 96.5442 39.269 97.0469 38.123C97.3754 37.374 97.7085 35.9149 97.9199 34.3193C98.1258 32.7649 98.1243 31.1636 98.0371 30.1797C97.8546 28.1223 96.651 27.3614 95.9316 26.2852C95.5551 25.7217 95.174 25.3071 94.8184 24.9531C94.4894 24.6257 94.0882 24.2654 93.8096 23.9209C93.4178 23.4368 92.8106 23.0205 92.0811 22.4658C91.6316 22.1241 91.0603 21.7078 90.4961 21.1924C90.0491 20.7841 89.5071 20.4519 88.9375 20.1758C88.8583 20.155 88.7798 20.1245 88.708 20.0762C88.6995 20.0704 88.6918 20.0636 88.6836 20.0576C88.3665 19.9148 88.0444 19.7868 87.7275 19.6738C87.2439 19.5014 86.7909 19.3666 86.4033 19.25C86.0522 19.1444 85.6719 19.0313 85.4355 18.9131C84.789 18.5895 84.1166 18.2591 83.5127 18.1416C83.0382 18.0492 82.6283 17.8562 82.25 17.6709C81.8592 17.4795 81.4705 17.279 80.9551 17.0859C80.1452 16.7826 79.5379 16.7615 78.0088 16.6904ZM111.099 11.8848C108.761 11.8075 105.028 11.7145 102.8 11.8848C99.8401 12.1111 97.4311 12.8337 95.5205 13.791C94.1361 14.4848 92.7597 15.5187 90.2314 19.165C90.6798 19.4246 91.1161 19.7272 91.5078 20.085C92.0087 20.5425 92.5095 20.9075 92.9883 21.2715C93.6081 21.7428 94.4357 22.3104 94.9756 22.9775C95.187 23.2388 95.4537 23.4693 95.876 23.8896C96.2717 24.2836 96.7274 24.7759 97.1787 25.4512C97.5777 26.0481 99.3036 27.481 99.5312 30.0469C99.628 31.138 99.628 32.8502 99.4072 34.5166C99.1919 36.1416 98.838 37.7746 98.4209 38.7256C97.9739 39.7447 97.6757 40.5502 97.043 41.5928C97.2664 41.6617 97.4545 41.8326 97.5342 42.0713L97.7686 42.7744C97.8939 43.1504 98.061 43.6559 98.5391 44.3057L98.7637 44.5928L98.7695 44.5996L98.7754 44.6074C99.0904 45.0083 99.4158 45.5524 99.7178 46.0078C100.041 46.4949 100.395 46.9767 100.844 47.4072C101.907 48.4273 102.83 49.1823 104.085 50.0059C106.65 51.6887 107.455 52.4098 108.908 53.0527C109.439 53.2876 109.952 53.5286 110.757 53.7275C111.566 53.9275 112.695 54.0883 114.415 54.1133C117.074 54.1519 121.98 54.2119 124.655 54.1133C126.259 54.0542 127.239 54.0361 127.979 54.002C128.699 53.9687 129.114 53.9222 129.544 53.8203C130.932 53.491 133.923 52.3903 137.483 50.3877C139.059 49.5015 140.114 48.8056 141.029 47.9629C142.92 46.2224 144.69 44.0226 146.234 42.1367C146.967 41.242 147.347 40.8418 147.628 40.124C147.755 39.7976 147.944 38.8093 148.049 37.1943C148.152 35.6153 148.171 33.5144 148.002 31.0205C147.767 27.5464 147.465 25.5668 146.351 24.0439C145.271 22.5693 142.987 20.5161 139.634 19.2109C136.638 18.045 134.98 17.4591 132.892 17.4434C130.373 17.4243 128.131 17.4502 126.472 17.4189C125.638 17.4032 124.918 17.3731 124.354 17.3125C124.073 17.2822 123.813 17.2427 123.59 17.1885C123.381 17.1377 123.135 17.0585 122.932 16.915C122.015 16.2695 121.115 15.5733 120.334 15.0029C119.527 14.4141 118.819 13.9378 118.186 13.6377C117.382 13.257 116.632 12.8646 115.564 12.5381C114.504 12.2137 113.115 11.9514 111.099 11.8848ZM73.6992 49.2783C73.8671 48.8999 74.31 48.729 74.6885 48.8965C75.067 49.0644 75.238 49.5072 75.0703 49.8857C75.0395 49.9553 75.0249 49.9913 75.0176 50.0107C75.0125 50.0242 75.0102 50.0308 75.0059 50.0459C74.9999 50.0667 74.9949 50.0857 74.9912 50.1016C74.9894 50.1093 74.9882 50.1163 74.9873 50.1211C74.9865 50.1251 74.9864 50.1275 74.9863 50.1279L74.9746 50.208L74.9473 50.2832C74.8452 50.5595 74.6237 50.9232 74.3447 51.2373C74.0717 51.5446 73.645 51.9156 73.0967 52.0352C72.7616 52.1082 72.2259 52.1725 71.5566 52.1064C70.9742 52.0489 70.5175 51.9495 69.9033 51.5703C69.5069 51.3255 68.8141 50.8865 68.4551 50.6318C68.2844 50.5107 68.1343 50.3942 68.0283 50.2725C67.9683 50.2035 67.8945 50.1018 67.8477 49.9658C67.7982 49.822 67.8017 49.6984 67.8018 49.6816C67.8018 49.2676 68.1378 48.9319 68.5518 48.9316C68.834 48.9316 69.0761 49.0899 69.2041 49.3203C69.2326 49.3424 69.2716 49.3715 69.3232 49.4082C69.6387 49.632 70.2942 50.0487 70.6914 50.2939C71.0578 50.5202 71.2767 50.5711 71.7041 50.6133C72.204 50.6626 72.5818 50.6119 72.7773 50.5693C72.8713 50.5487 73.0352 50.4521 73.2227 50.2412C73.3781 50.0663 73.4803 49.8891 73.5225 49.7998C73.536 49.7363 73.551 49.6786 73.5635 49.6348C73.5931 49.5307 73.6246 49.4464 73.6992 49.2783ZM32.2686 47.2383C32.5425 47.2383 32.7793 47.3871 32.9102 47.6064C32.9268 47.6261 32.9577 47.66 33.0059 47.71C33.1207 47.829 33.3039 48.005 33.5566 48.2314C34.0604 48.6828 34.8225 49.3176 35.8379 50.0723C36.4046 50.4935 37.0404 50.4677 37.5977 50.3906C38.557 49.617 39.0195 48.7407 39.1748 48.417C39.1815 48.3697 39.1885 48.2899 39.1885 48.1279C39.1885 47.7139 39.5245 47.3782 39.9385 47.3779C40.3525 47.3782 40.6885 47.7139 40.6885 48.1279C40.6885 48.2917 40.6941 48.5892 40.6113 48.874L40.5947 48.9287L40.5713 48.9795C40.4112 49.3253 39.7876 50.6216 38.3574 51.7021L38.207 51.8154L38.0215 51.8447C37.443 51.9351 36.1279 52.1566 34.9434 51.2764C33.8952 50.4974 33.097 49.8336 32.5557 49.3486C32.2861 49.1071 32.0748 48.9053 31.9268 48.752C31.8542 48.6767 31.787 48.6041 31.7344 48.5391C31.7094 48.5081 31.6765 48.4645 31.6455 48.415C31.6302 48.3906 31.6062 48.3499 31.584 48.2988C31.5684 48.2631 31.5186 48.1458 31.5186 47.9883C31.5186 47.5742 31.8545 47.2385 32.2686 47.2383ZM71.7051 40.5439L71.7422 40.5449L71.7793 40.5488C72.3599 40.6196 72.9017 40.6449 73.3887 40.9688C73.5559 41.0801 73.9165 41.2829 74.166 41.665C74.3367 41.9267 74.5259 42.2839 74.7041 42.71C74.8993 43.1768 75.0683 43.9642 74.9717 44.8135C74.9429 45.0659 74.8924 45.3592 74.7559 45.6602C74.6158 45.9687 74.4036 46.247 74.1025 46.5039C73.7654 46.7914 73.2223 47.1669 72.6426 47.3643C72.0432 47.5682 71.4808 47.5606 71.0498 47.5332C70.8711 47.5219 70.6504 47.5117 70.4678 47.4932C70.2981 47.4759 70.0468 47.4425 69.8252 47.3379C69.611 47.2368 69.3455 47.1094 69.083 46.9023C68.8127 46.689 68.5718 46.4137 68.3467 46.0361C68.0757 45.5815 67.7418 45.005 67.6201 44.4629C67.5951 44.3515 67.5532 44.1547 67.5889 43.9072C67.6233 43.669 67.7202 43.4458 67.8535 43.2217C68.1335 42.7511 68.3834 42.36 68.5811 42.0771C68.6788 41.9373 68.7716 41.8125 68.8525 41.7158C68.8921 41.6686 68.9386 41.6155 68.9893 41.5674C69.004 41.5533 69.0653 41.4948 69.1592 41.4385C69.1708 41.2097 69.2851 40.9885 69.4902 40.8516C69.5508 40.8112 69.6539 40.7422 69.8135 40.6787L69.834 40.6709L69.8535 40.6641C70.0629 40.5944 70.3628 40.5686 70.6279 40.5547C70.7772 40.5469 70.9446 40.5419 71.125 40.54L71.7051 40.5439ZM121.529 40.3027C121.741 40.3027 122.003 40.3022 122.198 40.3203L122.229 40.3232L122.26 40.3281C122.597 40.388 122.88 40.5218 123.107 40.7578L123.201 40.8652L123.221 40.8896L123.238 40.915C123.543 41.3708 123.791 41.8425 123.943 42.1611C124.096 42.4801 124.365 43.064 124.465 43.6367C124.539 44.0656 124.596 44.5803 124.585 45.0713C124.574 45.531 124.503 46.1053 124.208 46.5449C124.164 46.6108 124.062 46.7637 123.898 46.8955C123.717 47.041 123.491 47.1391 123.221 47.1641C122.92 47.1918 122.613 47.2141 122.357 47.208C122.231 47.205 122.086 47.1939 121.947 47.1631C121.834 47.1378 121.59 47.0719 121.401 46.8613C121.369 46.8251 121.369 46.8341 121.23 46.7061C121.123 46.6064 120.986 46.4674 120.862 46.2676C120.722 46.0418 120.651 45.7599 120.606 45.5117C120.558 45.2424 120.526 44.9182 120.506 44.5518C120.466 43.8174 120.475 42.8521 120.53 41.6846C120.54 41.4721 120.639 41.2848 120.788 41.1553C120.783 41.1217 120.779 41.0875 120.779 41.0527C120.779 40.6388 121.115 40.3032 121.529 40.3027ZM70.7061 42.0527C70.4986 42.0636 70.3869 42.0777 70.3457 42.084C70.3407 42.0872 70.3332 42.0923 70.3223 42.0996C70.3167 42.1032 70.3102 42.1059 70.3047 42.1094C70.2943 42.3285 70.1871 42.5307 70.0127 42.665C70.0098 42.6685 70.0071 42.6738 70.0029 42.6787C69.9616 42.7281 69.8966 42.8124 69.8105 42.9355C69.6402 43.1794 69.4105 43.538 69.1426 43.9883C69.1063 44.0493 69.0866 44.0883 69.0781 44.1094C69.0794 44.1157 69.0817 44.1237 69.084 44.1338C69.1444 44.403 69.3421 44.7766 69.6348 45.2676C69.7785 45.5086 69.903 45.6387 70.0117 45.7246C70.1258 45.8146 70.2515 45.8796 70.4521 45.9746C70.4562 45.9757 70.4627 45.9785 70.4717 45.9805C70.5036 45.9871 70.5514 45.9941 70.6191 46.001C70.7641 46.0157 70.9237 46.0221 71.1445 46.0361C71.5135 46.0596 71.8406 46.0527 72.1592 45.9443C72.4975 45.8292 72.8762 45.5788 73.1289 45.3633C73.2809 45.2337 73.3499 45.1276 73.3896 45.04C73.4327 44.945 73.4604 44.829 73.4814 44.6436C73.5471 44.066 73.4237 43.5352 73.3203 43.2881C73.1703 42.9294 73.0221 42.6559 72.9102 42.4844C72.8942 42.4601 72.8723 42.435 72.8242 42.3975C72.7977 42.3768 72.7649 42.3535 72.7197 42.3232C72.6971 42.3081 72.6728 42.2923 72.6455 42.2744C72.619 42.2571 72.5883 42.2372 72.5576 42.2168C72.447 42.1433 72.3753 42.1323 71.6348 42.042C71.2678 42.0349 70.95 42.04 70.7061 42.0527ZM122.025 41.8115C121.973 42.9285 121.969 43.8195 122.004 44.4717C122.022 44.8035 122.05 45.0594 122.083 45.2451C122.12 45.4519 122.153 45.5011 122.138 45.4766C122.165 45.5198 122.196 45.5558 122.249 45.6045C122.285 45.6379 122.303 45.6533 122.356 45.7012C122.358 45.7026 122.36 45.7046 122.361 45.7061C122.371 45.7065 122.382 45.7077 122.394 45.708C122.535 45.7114 122.731 45.6997 122.976 45.6787C123.02 45.5893 123.078 45.3866 123.086 45.0361C123.094 44.6726 123.051 44.2601 122.987 43.8926C122.927 43.5462 122.745 43.1308 122.591 42.8096C122.466 42.5488 122.267 42.1734 122.031 41.8125C122.03 41.8121 122.027 41.812 122.025 41.8115ZM69.9707 42.6963C69.9729 42.6947 69.9759 42.6935 69.9775 42.6924C69.979 42.6914 69.9802 42.6896 69.9814 42.6885C69.9779 42.6909 69.9743 42.6939 69.9707 42.6963ZM30.0586 33.959C30.7015 34.0211 31.3026 34.1067 31.79 34.2158C32.0327 34.2702 32.2622 34.3335 32.4609 34.4082C32.6437 34.4769 32.8701 34.5807 33.0488 34.7451C33.1188 34.8095 33.336 34.9915 33.4697 35.1289C33.6295 35.2931 33.826 35.5359 33.9189 35.8711C33.972 36.0629 34.0045 36.4252 34.0215 36.8252C34.0399 37.2596 34.0427 37.8271 34.0088 38.4785C33.9749 39.1292 33.9207 39.5293 33.7324 40.0186C33.6237 40.3012 33.5042 40.5955 33.3701 40.8506C33.2442 41.0902 33.0616 41.3833 32.792 41.584C32.4617 41.8295 32.1026 41.8917 31.4346 41.9131C30.7841 41.9339 29.5995 41.9512 28.8555 41.8643C28.3909 41.8099 27.9905 41.7487 27.6572 41.6533C27.3144 41.5551 26.996 41.4083 26.7314 41.1543C26.4275 40.8625 25.8699 40.2778 25.6201 39.2354C25.4723 38.6183 25.4881 37.891 26.0312 37.0576C26.5139 36.3173 27.3975 35.5132 27.8887 35.124C28.1393 34.9254 28.3499 34.7839 28.5459 34.6982C28.5553 34.6941 28.5659 34.6922 28.5752 34.6885C28.6522 34.485 28.8138 34.3155 29.0361 34.2412C29.0709 34.2296 29.0907 34.2231 29.1074 34.2168C29.1214 34.2115 29.1281 34.2075 29.1309 34.2061C29.3163 34.1015 29.5374 34.0048 29.8945 33.9609L29.9766 33.9502L30.0586 33.959ZM29.9346 35.4795C29.9152 35.4866 29.8942 35.4961 29.8457 35.5244L29.8252 35.5361L29.8047 35.5469C29.8017 35.5483 29.7979 35.5493 29.7949 35.5508C29.7069 35.8482 29.4436 36.0681 29.1221 36.0859C29.0808 36.1089 28.9885 36.1666 28.8203 36.2998C28.3714 36.6555 27.6381 37.34 27.2881 37.877C27.1319 38.1166 27.072 38.3031 27.0508 38.4463C27.0296 38.5903 27.0418 38.7299 27.0791 38.8857C27.233 39.5279 27.5605 39.8707 27.7705 40.0723C27.8013 40.1018 27.8711 40.1548 28.0703 40.2119C28.2791 40.2716 28.5774 40.3221 29.0303 40.375C29.6483 40.4472 30.7264 40.4352 31.3867 40.4141C31.6952 40.4042 31.8388 40.3834 31.9043 40.3691C31.9235 40.3465 31.9722 40.2852 32.042 40.1523C32.1329 39.9794 32.2272 39.7544 32.333 39.4795C32.4383 39.2057 32.4802 38.9879 32.5107 38.4004C32.5422 37.7962 32.5399 37.276 32.5234 36.8887C32.5152 36.695 32.503 36.538 32.4912 36.4229C32.4777 36.291 32.4685 36.2529 32.4736 36.2715C32.4689 36.2624 32.4502 36.232 32.3945 36.1748C32.3554 36.1346 32.3073 36.0908 32.2441 36.0352C32.1879 35.9856 32.1055 35.9151 32.0332 35.8486C32.0692 35.8817 32.061 35.8604 31.9336 35.8125C31.8223 35.7707 31.6652 35.7252 31.4619 35.6797C31.079 35.594 30.5812 35.5194 30.0156 35.4619C29.9736 35.4696 29.9483 35.4745 29.9346 35.4795ZM120.344 33.3848L121.075 33.3975L121.092 33.3984L121.107 33.3994C121.733 33.4504 122.251 33.6788 122.755 34.1094L122.971 34.3066L123.033 34.3672L123.079 34.4404C123.317 34.813 123.682 35.5128 123.492 36.2529C123.394 36.6377 123.242 37.1102 123.044 37.5205C122.945 37.7249 122.824 37.9378 122.677 38.1211C122.537 38.2946 122.321 38.5091 122.016 38.6113C121.57 38.7605 120.948 38.8564 120.294 38.8047C119.637 38.7526 118.892 38.5466 118.261 38.0352C117.98 37.8078 117.886 37.4917 117.853 37.2637C117.818 37.0287 117.831 36.7731 117.862 36.5234C117.925 36.0204 118.086 35.3678 118.307 34.5938C118.367 34.3831 118.513 34.2215 118.694 34.1309C118.695 33.7177 119.031 33.383 119.444 33.3828C119.752 33.3828 120.062 33.3829 120.344 33.3848ZM119.748 35.0059C119.529 35.7723 119.398 36.329 119.351 36.708C119.336 36.8221 119.333 36.9053 119.333 36.9629C119.644 37.1702 120.02 37.2785 120.412 37.3096C120.835 37.343 121.229 37.2804 121.488 37.2021C121.493 37.1965 121.501 37.1902 121.508 37.1816C121.558 37.119 121.622 37.016 121.692 36.8701C121.833 36.5791 121.955 36.2083 122.039 35.8809C122.06 35.7981 122.025 35.6035 121.858 35.3213C121.526 35.0142 121.282 34.9206 120.998 34.8955C120.705 34.885 120.263 34.8832 119.771 34.8828C119.767 34.9237 119.76 34.965 119.748 35.0059ZM3.13574 28.8281C3.11313 28.8352 3.07753 28.8516 3.02734 28.8926C2.90139 28.9957 2.79784 29.1421 2.60547 29.3975C2.43202 29.628 2.3639 30.0904 2.48926 30.7227C2.61034 31.3333 2.86446 31.8589 3.02051 32.0547C3.14458 32.2102 3.3418 32.3687 3.63867 32.5703C3.90323 32.7499 4.28844 32.9889 4.61621 33.2402C4.76031 33.3507 5.02941 33.4582 5.68652 33.6123C6.2513 33.7447 7.21452 33.9361 8.3457 34.209C9.12344 34.3114 9.54078 34.3467 10.1074 34.3984C10.488 34.4137 11.102 34.4148 11.7764 34.415C11.7857 34.3255 11.7946 34.2344 11.8047 34.1416C11.9007 33.255 12.0262 32.1174 12.168 30.9629C9.63147 31.0454 8.04549 30.6863 6.84082 30.0664C6.48807 29.8849 6.12972 29.7269 5.79102 29.5811C5.46516 29.4407 5.12951 29.3 4.87109 29.1709C4.67858 29.0748 4.46095 29.0142 4.18945 28.9658C4.05279 28.9415 3.9097 28.9213 3.75098 28.8994C3.59651 28.8781 3.42449 28.8554 3.25 28.8262C3.18813 28.8159 3.15472 28.8223 3.13574 28.8281ZM152.871 25.5576C152.343 25.3721 151.936 25.3456 151.546 25.457C151.472 25.4784 151.247 25.5891 150.813 25.8936C150.406 26.1796 149.882 26.5878 149.232 27.1191C149.193 27.151 149.152 27.1784 149.109 27.2012C149.297 28.2975 149.404 29.5254 149.498 30.9189C149.518 31.221 149.535 31.5176 149.551 31.8086C150.156 31.9121 150.628 31.9127 150.971 31.8926C152.333 31.5728 154.269 30.6964 155.34 29.709C155.527 29.4273 155.606 29.1468 155.56 28.8398C155.519 28.5716 155.493 28.2768 155.467 28.0371C155.439 27.781 155.408 27.5576 155.359 27.3564C155.265 26.9674 155.121 26.732 154.861 26.5781C154.047 26.0955 153.42 25.7507 152.871 25.5576ZM62.5938 27.4219C62.6742 27.4228 62.7597 27.4284 62.8438 27.4424C62.9274 27.4564 63.0504 27.4848 63.1758 27.5518C63.305 27.6208 63.4839 27.7582 63.5771 28.002C63.6665 28.2355 63.7076 28.5092 63.6924 28.7734C63.6775 29.0305 63.6028 29.3697 63.3652 29.6514C63.2837 29.748 63.1763 29.8648 63.0479 29.9619C62.9306 30.0505 62.7064 30.1915 62.4072 30.1904C62.3613 30.1903 62.1822 30.1923 61.9873 30.1055C61.7654 30.0065 61.5981 29.8308 61.4971 29.6133C61.404 29.4127 61.3313 29.2262 61.2852 29.0713C61.2631 28.9974 61.2399 28.9068 61.2285 28.8145C61.2231 28.7704 61.2161 28.6954 61.2246 28.6084C61.2299 28.554 61.2539 28.3235 61.4482 28.1289L61.5059 28.0781C61.5323 28.0566 61.5614 28.0389 61.5898 28.0215C61.5939 28.0103 61.5958 27.9972 61.6006 27.9854L61.6348 27.9102C61.6779 27.8263 61.7494 27.7206 61.8652 27.627C62.0251 27.4978 62.2073 27.4423 62.3721 27.4297L62.5938 27.4219ZM81.4229 27.2129C81.689 27.2129 81.9216 27.3525 82.0547 27.5615C82.0605 27.5614 82.0664 27.5606 82.0723 27.5605C82.4863 27.5608 82.8223 27.8965 82.8223 28.3105C82.8223 28.3709 82.823 28.4841 82.8076 28.6055L82.7988 28.6748L82.7773 28.7422C82.6484 29.1399 82.3832 29.4861 82.0498 29.7617L81.917 29.8711L81.75 29.9121C81.5308 29.9656 81.2761 29.9612 81.0967 29.9307C81.0144 29.9166 80.7744 29.8725 80.5752 29.6699C80.3963 29.4879 80.3436 29.2749 80.3262 29.1299C80.2638 29.0205 80.2247 28.8956 80.2246 28.7607C80.2246 28.6265 80.2287 28.4073 80.373 28.1211C80.4764 27.9165 80.6465 27.6866 80.7363 27.5771C80.7778 27.5267 80.8512 27.4403 80.9482 27.3691C81.0068 27.3263 81.0938 27.2742 81.207 27.2422C81.3173 27.2112 81.4119 27.2127 81.4229 27.2129ZM108.617 23.375C108.849 23.3874 109.217 23.4416 109.523 23.6982L109.651 23.8213L109.742 23.9355C109.957 24.2351 110.165 24.7584 109.946 25.3379C109.926 25.3924 109.851 25.6242 109.733 25.8135C109.59 26.0444 109.35 26.2832 108.971 26.3818C108.631 26.47 108.158 26.4645 107.85 26.4053C107.698 26.3761 107.42 26.3066 107.205 26.0723C106.961 25.8058 106.939 25.4899 106.955 25.2881L106.973 25.1475C106.979 25.1116 106.986 25.076 106.994 25.041C106.987 25.0125 106.978 24.9838 106.974 24.9531C106.937 24.6972 106.925 24.2819 107.145 23.918L107.228 23.7959C107.268 23.7432 107.323 23.6819 107.394 23.625C107.551 23.4978 107.741 23.425 107.946 23.4072L108.223 23.3818C108.343 23.3731 108.483 23.3679 108.617 23.375ZM126.57 21.6719C126.848 21.6102 127.174 21.6325 127.466 21.7559C127.774 21.8865 128.033 22.1243 128.188 22.4346L128.249 22.5723L128.292 22.7041C128.378 23.0169 128.368 23.3587 128.27 23.6475C128.141 24.0256 127.865 24.3105 127.49 24.4443C127.21 24.5443 126.88 24.5658 126.613 24.5156C126.491 24.4926 126.271 24.4473 126.062 24.3369C125.837 24.2186 125.552 23.9834 125.465 23.5703C125.419 23.3525 125.451 23.1561 125.478 23.0391C125.505 22.9168 125.546 22.7957 125.57 22.7217C125.611 22.5992 125.683 22.4965 125.771 22.4141C125.804 22.305 125.856 22.177 125.95 22.0547C126.09 21.8721 126.273 21.7624 126.455 21.7031L126.57 21.6719ZM41.3232 20.084C41.736 20.116 42.0445 20.4768 42.0127 20.8896C41.9922 21.156 41.9832 21.3671 41.9854 21.5273C41.9867 21.6268 41.9928 21.6889 41.9971 21.7227C42.001 21.7269 42.0053 21.7327 42.0107 21.7383C42.0631 21.7909 42.1391 21.8529 42.2598 21.9463C42.3516 22.0174 42.5436 22.0688 42.8564 22.0215C43.0859 21.9867 43.2842 21.9125 43.3936 21.8613C43.4206 21.8277 43.4434 21.7973 43.4639 21.7695C43.4691 21.7336 43.4771 21.6805 43.4844 21.6016C43.5223 21.1892 43.8875 20.8852 44.2998 20.9229C44.7122 20.9608 45.0154 21.3268 44.9775 21.7393C44.956 21.9736 44.9294 22.191 44.8438 22.3887L44.8193 22.4434L44.7871 22.4941C44.6848 22.6543 44.5721 22.7929 44.4609 22.9258L44.3916 23.0098L44.3008 23.0693C44.0354 23.2454 43.5715 23.4306 43.0811 23.5049C42.5964 23.5782 41.9066 23.5691 41.3418 23.1318C41.2271 23.043 41.0772 22.9266 40.9473 22.7959C40.8199 22.6678 40.6552 22.4715 40.5713 22.2051C40.5053 21.9953 40.4881 21.7566 40.4854 21.5469C40.4824 21.3223 40.4955 21.0609 40.5176 20.7744C40.5494 20.3616 40.9105 20.0525 41.3232 20.084ZM25.9463 16.9238C26.3599 16.9377 26.6844 17.2846 26.6709 17.6982C26.6631 17.9352 26.7184 18.2958 26.8096 18.6348C26.8508 18.7881 26.8948 18.9181 26.9326 19.0117C26.9389 19.0127 26.9458 19.0156 26.9531 19.0166C27.0409 19.0273 27.1613 19.0235 27.3018 19.001C27.4357 18.9795 27.5666 18.9426 27.6738 18.9043C27.6955 18.8402 27.7171 18.7832 27.7354 18.7285C27.7664 18.6355 27.8092 18.5164 27.8662 18.3984H27.8643C27.8694 18.3815 27.9395 18.1916 28.041 18.0127C28.2454 17.6527 28.7034 17.5264 29.0635 17.7305C29.4236 17.9349 29.5499 18.3928 29.3457 18.7529C29.3206 18.7971 29.3072 18.8275 29.2979 18.8506C29.292 18.8649 29.2871 18.8782 29.2783 18.9014C29.2707 18.9216 29.258 18.9566 29.2422 18.9932L29.2285 19.0234L29.2129 19.0518C29.2116 19.0544 29.208 19.0634 29.2012 19.0811C29.1908 19.1082 29.1784 19.1455 29.1592 19.2031C29.1219 19.3148 29.0683 19.4798 28.9873 19.6982L28.9121 19.9004L28.7412 20.0312C28.5816 20.1539 28.3755 20.2466 28.1973 20.3115C28.0034 20.382 27.7754 20.4445 27.5391 20.4824C27.3054 20.5198 27.0377 20.5373 26.7715 20.5049C26.5092 20.4729 26.195 20.3849 25.9268 20.1641C25.7987 20.0585 25.7194 19.931 25.6807 19.8643C25.6329 19.782 25.5911 19.6932 25.5557 19.6084C25.4842 19.4374 25.4178 19.2342 25.3613 19.0244C25.2514 18.616 25.1572 18.0951 25.1719 17.6494C25.1856 17.2356 25.5325 16.9104 25.9463 16.9238Z" fill="#968F7C"/>
</svg>
