<svg width="56" height="56" viewBox="0 0 56 56" fill="none" xmlns="http://www.w3.org/2000/svg">
<path d="M0 28C0 12.536 12.536 0 28 0C43.464 0 56 12.536 56 28C56 43.464 43.464 56 28 56C12.536 56 0 43.464 0 28Z" fill="#FFDFC9"/>
<path d="M17.0908 38.8955C17.6333 37.4362 20.1315 37.0183 22.6709 37.9619C25.21 38.9055 26.829 40.8531 26.2871 42.3125C26.1749 42.6145 25.9776 42.871 25.7148 43.0811C25.3623 44.4376 23.3543 45.4709 20.9336 45.4609C20.6878 45.4599 20.4468 45.4436 20.2109 45.4219C19.9513 45.446 19.6848 45.4621 19.4131 45.4609C16.7485 45.4498 14.5934 44.1789 14.5996 42.6221C14.604 41.5592 15.6149 40.6383 17.1035 40.1641C16.9564 39.725 16.9434 39.2923 17.0908 38.8955Z" fill="#F2FBE0"/>
<path d="M30.6215 40.7915C30.5341 39.2369 32.7106 37.8505 35.4825 37.6945C38.2546 37.5386 40.5726 38.6723 40.66 40.2269C40.6853 40.6754 40.5215 41.1092 40.21 41.5042C40.1623 42.8206 38.7961 44.3625 36.7616 45.2414C36.5385 45.3378 36.314 45.4197 36.0917 45.4936C35.8614 45.6212 35.6211 45.7431 35.3691 45.852C32.9228 46.9089 30.4392 46.6072 29.8216 45.1779C29.4002 44.2024 29.9565 42.9542 31.1301 41.9238C30.8258 41.5867 30.6447 41.2041 30.6215 40.7915Z" fill="#F2FBE0"/>
<path d="M22.4434 9.39062C23.4898 9.39094 24.3686 10.8018 24.6367 12.7236C24.9591 12.9458 25.2814 13.1986 25.5928 13.4834C26.647 14.4478 27.3649 15.5513 27.6348 16.4951C27.8457 16.4897 28.0577 16.4863 28.2705 16.4863C28.472 16.4863 28.6732 16.4893 28.873 16.4941C29.1686 15.9496 29.7906 15.4261 30.623 15.0107C30.8893 14.076 31.5794 12.9873 32.5928 12.0254C34.4197 10.2914 36.6036 9.62574 37.4707 10.5391C37.8239 10.9112 37.8996 11.4872 37.7471 12.1572C38.8617 13.2525 40.1655 15.2731 41.249 17.7285C41.9229 19.2556 42.4151 20.7328 42.7051 22.0068C44.4724 23.9164 45.5009 26.1973 45.501 28.6484C45.501 35.3655 37.7863 40.8115 28.2705 40.8115C18.7549 40.8114 11.041 35.3654 11.041 28.6484C11.0411 26.9637 11.5269 25.3592 12.4043 23.9004C12.078 22.8631 12.6275 21.1262 13.873 19.5537C14.4989 18.7636 15.2068 18.1367 15.8926 17.7168C16.0251 16.7546 16.5537 15.581 17.4199 14.4873C18.3245 13.3454 19.3988 12.5422 20.334 12.2178C20.6752 10.559 21.4909 9.39062 22.4434 9.39062ZM36.1738 17.8389C36.2546 17.8684 36.335 17.8984 36.415 17.9287C36.3911 17.8635 36.3689 17.7981 36.3457 17.7334C36.2902 17.7696 36.2322 17.8037 36.1738 17.8389Z" fill="#FFF5EE"/>
<ellipse cx="27.7634" cy="31.1854" rx="2.02705" ry="1.01352" fill="#C2E8E9"/>
<path d="M22.8008 8.22266C22.9639 8.22398 23.1099 8.27279 23.2305 8.34668C23.4287 8.46844 23.5532 8.66253 23.6025 8.73633C23.9689 9.28468 24.2925 9.83402 24.5684 10.3037C24.8523 10.7871 25.0718 11.162 25.249 11.4082C25.4416 11.6757 25.6107 11.9328 25.7725 12.1807C25.936 12.4313 26.0924 12.6723 26.2686 12.9238C26.7557 13.619 27.0965 14.1172 27.3574 14.502C27.6203 14.8896 27.7954 15.1524 27.9609 15.3896C28.0874 15.5709 28.1889 15.7138 28.2715 15.8271C28.2803 15.8148 28.2913 15.8033 28.3008 15.79C28.3651 15.6998 28.4455 15.585 28.5303 15.4775C28.9398 14.9581 29.5149 14.5176 30.6201 13.6172C31.5387 12.8688 33.0332 11.5346 33.9404 10.7686C34.711 10.1179 35.3547 9.65005 35.8389 9.34473C36.0795 9.193 36.2908 9.07468 36.4648 8.99414C36.5507 8.95444 36.64 8.91855 36.7266 8.89258C36.7891 8.87384 36.9421 8.83055 37.1152 8.85645C37.3626 8.89377 37.5247 9.04045 37.6055 9.12891C37.6924 9.22421 37.7587 9.33345 37.8096 9.42676C37.912 9.61496 38.014 9.86317 38.1182 10.1348C38.3398 10.7127 38.5935 11.4497 38.9854 12.4326C39.407 13.4904 40.065 14.7093 40.5225 15.5723C41.181 16.8147 41.658 17.6891 41.9922 18.4414C42.1069 18.6997 42.2229 18.8948 42.3447 19.084C42.453 19.252 42.5925 19.4578 42.7217 19.6826C43.0353 20.1065 43.3523 20.6033 43.4619 20.8057L43.4854 20.8477L43.501 20.8926C43.5206 20.9463 43.5336 20.9939 43.542 21.0283C43.546 21.0449 43.5498 21.0626 43.5527 21.0752C43.5559 21.0887 43.5586 21.101 43.5615 21.1133C43.5721 21.157 43.5886 21.2206 43.626 21.3252C43.6682 21.4434 43.672 21.5653 43.6475 21.6797C43.6624 21.6913 43.6793 21.7007 43.6934 21.7139C43.9076 21.9141 44.0507 22.0899 44.1543 22.2588C44.2405 22.3993 44.3038 22.5511 44.3242 22.5977C44.6464 23.2217 45.0129 24.0797 45.3779 25.8779L45.5352 26.7158L45.542 26.7559L45.5439 26.7969C45.5936 27.88 45.6888 29.6653 45.4824 30.9502C45.3315 31.8894 45.213 32.7253 45.0459 33.4287C44.8764 34.1423 44.6436 34.786 44.2295 35.3447C43.0077 36.9934 42.4231 37.7464 41.2285 38.3643C41.1585 38.4005 41.082 38.4389 41 38.4805C41.021 38.5355 41.045 38.6112 41.0566 38.6992C41.0654 38.7659 41.0655 38.8264 41.0654 38.8604C41.0654 38.8985 41.0654 38.9154 41.0654 38.9414L41.0811 39.0977C41.0885 39.1443 41.0977 39.1883 41.1094 39.2363C41.1333 39.3346 41.1775 39.4938 41.21 39.6934C41.2576 39.9864 41.3589 40.3439 41.3164 41.001C41.296 41.3161 41.2854 41.7712 41.1602 42.1738C41.0546 42.5125 40.8398 43.1108 40.3545 43.7666C39.9649 44.293 39.5393 44.7268 39.0547 45.0801C38.7911 45.2723 38.535 45.4323 37.7227 45.7676C36.9318 46.094 35.576 46.6044 34.5283 46.8535C33.4499 47.1099 32.7079 47.0941 32.1006 47.0049C31.5464 46.9234 31.0683 46.7966 30.708 46.6035C30.329 46.4004 29.8336 46.1425 29.5801 45.6484C29.4767 45.4469 29.3501 45.2088 29.2559 44.9893C29.1656 44.779 29.0646 44.4987 29.0703 44.2119C29.0819 43.6427 29.1923 43.1893 29.5469 42.6914C29.8304 42.2933 30.082 41.8834 30.1748 41.5645C30.2031 41.4671 30.2295 41.334 30.2607 41.1533C29.3745 41.2159 28.3973 41.2412 27.4141 41.2314C27.407 41.2468 27.4023 41.2586 27.3955 41.2734L27.3438 41.4199C27.331 41.4651 27.3221 41.5094 27.3125 41.5576C27.293 41.6559 27.2659 41.8196 27.2109 42.0156C27.1308 42.3015 27.0705 42.6692 26.752 43.2598C26.5997 43.5419 26.3963 43.9586 26.1094 44.2842C25.8684 44.5577 25.4186 45.0291 24.6953 45.4551C24.1147 45.797 23.5414 46.0403 22.9482 46.1885C22.6263 46.2689 22.3245 46.3231 21.4365 46.3359C20.5711 46.3485 19.1084 46.3236 18.041 46.1719C16.9433 46.0158 16.2694 45.7329 15.75 45.4307C15.2761 45.1548 14.8913 44.8644 14.6416 44.5557C14.3809 44.2332 14.0289 43.8122 14.0049 43.2578C13.9952 43.0355 13.98 42.7694 13.9863 42.5322C13.9924 42.3049 14.0187 42.0056 14.1475 41.7402C14.4006 41.2184 14.6958 40.8426 15.2314 40.5146C15.6615 40.2513 16.0657 39.9645 16.2861 39.7051C16.3947 39.5774 16.5397 39.3632 16.7617 39.0215C16.1513 38.7267 15.6619 38.442 15.3252 38.1611C14.7573 37.6874 13.7457 36.7426 12.667 34.6865C11.9857 33.3878 11.4283 32.27 11.0391 31.3506C10.66 30.4551 10.4019 29.6628 10.3916 29.0459C10.3648 27.4429 10.6937 25.222 11.3105 22.7461C11.3267 22.6813 11.3548 22.6227 11.3877 22.5684C11.3978 22.4926 11.4187 22.4169 11.457 22.3457C11.7669 21.7717 12.079 21.1947 12.9297 19.8467C13.7766 18.5047 15.16 16.3961 16.7988 14.3232C18.4368 12.2514 20.2806 10.288 21.2764 9.27637C21.5233 9.02553 21.7269 8.82484 21.8945 8.6748C22.0506 8.53515 22.2256 8.3925 22.4121 8.30859C22.5139 8.26287 22.6467 8.22153 22.8008 8.22266ZM39.749 39.0664C38.792 39.4779 37.5551 39.9238 36.1631 40.1865C35.2304 40.3625 33.8967 40.7626 31.6289 41.0254C31.5697 41.4164 31.5174 41.7258 31.4521 41.9502C31.2975 42.4813 30.9368 43.0354 30.6504 43.4375C30.4626 43.7012 30.4032 43.9078 30.3955 44.2852C30.3957 44.2884 30.3977 44.3084 30.4092 44.3506C30.4224 44.3991 30.4441 44.4629 30.4785 44.543C30.5502 44.7097 30.647 44.8917 30.7646 45.1211C30.7743 45.14 30.796 45.175 30.8789 45.2363C30.9727 45.3056 31.1058 45.3811 31.3203 45.4961C31.4728 45.5778 31.7655 45.6747 32.251 45.7461C32.6837 45.8097 33.2504 45.8322 34.1631 45.6152C35.1069 45.3908 36.3874 44.9141 37.1611 44.5947C37.9126 44.2846 38.0717 44.1697 38.2295 44.0547C38.5982 43.7858 38.9375 43.445 39.2646 43.0029C39.6407 42.4948 39.8051 42.0346 39.8887 41.7666C39.9597 41.5384 39.9661 41.2762 39.9922 40.873C40.0233 40.3911 39.96 40.2093 39.9004 39.8428C39.8783 39.7067 39.8543 39.6249 39.8193 39.4814C39.7906 39.3633 39.7635 39.2322 39.749 39.0664ZM17.9658 39.5527C17.6839 39.9916 17.4622 40.3282 17.2764 40.5469C16.9089 40.9793 16.3434 41.3577 15.9102 41.623C15.6242 41.7982 15.4821 41.966 15.3164 42.3076C15.3181 42.304 15.31 42.3199 15.3018 42.3682C15.2936 42.4162 15.2884 42.4812 15.2861 42.5664C15.2813 42.7448 15.2927 42.9468 15.3037 43.2012C15.3044 43.2173 15.3087 43.2542 15.3584 43.3398C15.4148 43.4369 15.5038 43.5546 15.6523 43.7383C15.7577 43.8685 15.9871 44.0638 16.4043 44.3066C16.7766 44.5233 17.2903 44.7519 18.2246 44.8848C19.1895 45.0219 20.5698 45.0484 21.417 45.0361C22.2409 45.0242 22.4369 44.9757 22.6328 44.9268C23.0882 44.813 23.5459 44.6221 24.0352 44.334C24.5975 44.0028 24.9447 43.6405 25.1348 43.4248C25.2962 43.2415 25.4123 43.0043 25.6074 42.6426C25.8396 42.2122 25.8581 42.0241 25.959 41.6641C25.9959 41.5322 26.0083 41.4499 26.0371 41.3047C26.0441 41.2695 26.0539 41.2338 26.0625 41.1963C25.7314 41.1823 25.4039 41.1661 25.084 41.1445C23.2851 41.0235 21.6493 40.8676 20.248 40.3936C19.3841 40.1013 18.6229 39.8195 17.9658 39.5527ZM22.2021 10.1885C21.2253 11.1809 19.417 13.1078 17.8184 15.1299C16.2205 17.151 14.8653 19.2153 14.0293 20.54C13.1973 21.8584 12.9003 22.4095 12.6016 22.9629C12.5959 22.9734 12.5872 22.9821 12.5811 22.9922C12.5779 23.0144 12.5778 23.0373 12.5723 23.0596C11.9677 25.4862 11.6673 27.5832 11.6914 29.0244C11.6972 29.3662 11.8593 29.9531 12.2363 30.8438C12.6036 31.7113 13.1403 32.7896 13.8184 34.082C14.8069 35.9663 15.7019 36.7814 16.1582 37.1621C16.4269 37.3862 16.925 37.6792 17.6973 38.0273C18.4581 38.3703 19.4466 38.7502 20.6641 39.1621C21.8845 39.575 23.3621 39.7259 25.1719 39.8477C26.9492 39.9672 28.9509 39.9662 30.5459 39.8281C33.3333 39.5869 34.7318 39.1338 35.9219 38.9092C38.0309 38.5112 39.7731 37.6536 40.6309 37.21C41.5201 36.7501 41.943 36.247 43.1855 34.5703C43.4514 34.2115 43.6312 33.7597 43.7812 33.1279C43.9338 32.4859 44.0417 31.7248 44.1992 30.7441C44.3771 29.6366 44.3002 28.0358 44.248 26.9014C43.8491 24.6308 43.4579 23.7514 43.1621 23.1807L43.1553 23.168L43.1504 23.1562C43.0869 23.02 43.0877 23.0066 43.0459 22.9385C43.0143 22.8871 42.9515 22.7994 42.8057 22.6631C42.6335 22.502 42.57 22.2697 42.6152 22.0547C42.5215 21.9815 42.4453 21.8828 42.4023 21.7627C42.3478 21.61 42.3182 21.5014 42.2979 21.417C42.294 21.401 42.2899 21.3862 42.2871 21.374C42.1832 21.1963 41.9259 20.79 41.6621 20.4355L41.6367 20.4014L41.6162 20.3643C41.5064 20.1678 41.4003 20.0184 41.252 19.7881C41.1096 19.567 40.9553 19.311 40.8037 18.9697C40.4934 18.271 40.0489 17.455 39.374 16.1816C38.9296 15.3431 38.2321 14.0523 37.7783 12.9141C37.3897 11.9391 37.0996 11.1097 36.9043 10.6006C36.8583 10.4807 36.8169 10.3795 36.7812 10.2949C36.7086 10.3363 36.6252 10.3857 36.5322 10.4443C36.1097 10.7108 35.5149 11.1406 34.7793 11.7617C33.9352 12.4745 32.3569 13.8791 31.4414 14.625C30.2577 15.5895 29.8469 15.9089 29.5518 16.2832C29.4911 16.3602 29.4316 16.4437 29.3594 16.5449C29.2925 16.6386 29.2113 16.7521 29.125 16.8545C29.0415 16.9535 28.9237 17.0791 28.7715 17.1748C28.6087 17.2771 28.3759 17.3627 28.1016 17.3154C27.8989 17.2803 27.7491 17.1757 27.6582 17.0996C27.563 17.0198 27.4779 16.9248 27.4053 16.8359C27.2614 16.6598 27.0905 16.4132 26.8955 16.1338C26.7233 15.887 26.537 15.6086 26.2812 15.2314C26.0233 14.8512 25.6866 14.3586 25.2041 13.6699C25.013 13.3972 24.8436 13.1368 24.6836 12.8916C24.5219 12.6439 24.3679 12.4081 24.1943 12.167C23.9728 11.8593 23.7159 11.4192 23.4473 10.9619C23.2162 10.5685 22.9631 10.142 22.6865 9.71289C22.5625 9.82835 22.4048 9.98261 22.2021 10.1885ZM30.0332 34.5557C30.3709 34.4344 30.7428 34.6096 30.8643 34.9473C30.8753 34.9779 30.8866 35.0079 30.8975 35.0381C30.9578 35.206 30.9729 35.3772 30.9541 35.5654L30.9482 35.6162L30.9355 35.666C30.9017 35.7953 30.8395 36.0486 30.7158 36.2764C30.5825 36.5217 30.3372 36.8126 29.9131 36.9062C29.6672 36.9604 29.3653 36.9723 29.1123 36.957C28.9827 36.9492 28.8445 36.9335 28.7168 36.9043C28.6478 36.8885 28.5238 36.8551 28.3975 36.7842C28.3007 36.8595 28.1865 36.9301 28.0488 36.9863C27.8516 37.0668 27.1091 37.3633 26.3633 36.9277C25.9683 36.6968 25.724 36.2762 25.5879 36.0576C25.3981 35.7529 25.4912 35.3519 25.7959 35.1621C26.1006 34.9724 26.5016 35.0655 26.6914 35.3701C26.8783 35.6702 26.9576 35.7695 27.0195 35.8057C27.1019 35.8536 27.1893 35.8669 27.2861 35.8574C27.3893 35.8473 27.4841 35.8132 27.5576 35.7832C27.5656 35.7799 27.5715 35.7744 27.5771 35.7715C27.5773 35.7565 27.5791 35.7375 27.5791 35.7139C27.5791 35.6757 27.5825 35.638 27.5889 35.6016C27.544 35.3212 27.6859 35.0342 27.9561 34.9092C28.2817 34.7589 28.6677 34.9011 28.8184 35.2266C28.8529 35.3013 28.9177 35.42 28.9893 35.5332C29.0156 35.5749 29.041 35.6122 29.0635 35.6436C29.0976 35.6486 29.1402 35.6561 29.1904 35.6592C29.3344 35.6678 29.479 35.6572 29.5781 35.6426C29.5907 35.6172 29.607 35.5815 29.623 35.5322C29.6343 35.4974 29.6427 35.461 29.6533 35.4219C29.6492 35.4105 29.6458 35.3983 29.6416 35.3867C29.5202 35.0491 29.6957 34.6773 30.0332 34.5557ZM21.3633 31.3428C21.7073 31.2423 22.0687 31.4393 22.1699 31.7832C22.271 32.1274 22.0736 32.4894 21.7295 32.5908L18.2275 33.6191C17.8831 33.7203 17.5211 33.5231 17.4199 33.1787C17.3189 32.8345 17.5162 32.4734 17.8604 32.3721L21.3633 31.3428ZM26.6123 29.2832C27.238 29.2832 27.8713 29.2832 28.3145 29.3047C28.7667 29.3267 29.0377 29.3713 29.2314 29.4199L29.2822 29.4326L29.3301 29.4531C29.4272 29.4949 29.6976 29.5953 29.9141 29.75C30.137 29.9095 30.352 30.1546 30.4326 30.5117L30.459 30.6719L30.4795 30.9219C30.484 31.0044 30.4858 31.0855 30.4834 31.1621C30.4793 31.2952 30.4618 31.5101 30.3525 31.707C30.2428 31.9049 30.0815 32.1757 29.7949 32.3799C29.4972 32.592 29.0749 32.9078 28.3154 32.9424C27.8777 32.9622 27.0997 32.9765 26.6436 32.9287C26.1725 32.8793 25.8248 32.8179 25.54 32.5371C25.3416 32.3412 25.2265 32.0767 25.1631 31.8389C25.0959 31.5867 25.0683 31.298 25.0879 30.998C25.0935 30.9115 25.0992 30.7359 25.1367 30.584C25.1873 30.3794 25.2914 30.1971 25.4668 30.043L25.7002 29.8438C25.7724 29.784 25.8396 29.7312 25.8984 29.6865C25.956 29.6429 26.0158 29.6002 26.0713 29.5654C26.0745 29.5634 26.0785 29.5617 26.082 29.5596C26.1997 29.3931 26.393 29.2833 26.6123 29.2832ZM33.9102 30.5811C34.9895 30.8822 36.0757 31.1852 36.6963 31.3662C37.3256 31.5497 37.4569 31.6025 37.5527 31.6367C37.5814 31.647 37.6017 31.6532 37.6162 31.6572C37.6318 31.6615 37.6466 31.6646 37.6738 31.6709C38.0234 31.752 38.2411 32.1016 38.1602 32.4512C38.079 32.8006 37.7295 33.0185 37.3799 32.9375C37.3173 32.923 37.2363 32.9046 37.1152 32.8613C37.0382 32.8338 36.9324 32.7891 36.333 32.6143C35.7217 32.436 34.6441 32.1353 33.5605 31.833C33.2152 31.7364 33.0132 31.3777 33.1094 31.0322C33.2059 30.6866 33.5645 30.4848 33.9102 30.5811ZM26.8916 30.584C26.8469 30.6207 26.7986 30.6529 26.7451 30.6768C26.7318 30.686 26.7113 30.7006 26.6836 30.7217C26.6116 30.7763 26.5125 30.8575 26.3926 30.9609C26.3919 30.9707 26.3914 30.982 26.3906 30.9941C26.3898 31.007 26.3886 31.0203 26.3877 31.0352C26.3868 31.0499 26.3859 31.0663 26.3848 31.083C26.3738 31.252 26.3917 31.3979 26.4199 31.5039C26.4298 31.541 26.4413 31.5678 26.4492 31.5869C26.5055 31.5992 26.6051 31.6175 26.7793 31.6357C27.1294 31.6723 27.8204 31.6633 28.2559 31.6436C28.451 31.6347 28.5813 31.5946 28.6826 31.5479C28.7958 31.4955 28.8902 31.4287 29.041 31.3213C29.0708 31.3001 29.1063 31.2593 29.1826 31.1279C29.1827 31.126 29.1835 31.1241 29.1836 31.1221C29.1856 31.0563 29.1795 30.9566 29.165 30.8125C29.1631 30.811 29.1606 30.8094 29.1582 30.8076C29.1342 30.7905 29.0962 30.7683 29.0352 30.7402C28.9799 30.7149 28.9391 30.699 28.8789 30.6738C28.7802 30.6519 28.5978 30.6204 28.251 30.6035C27.9065 30.5868 27.4228 30.5844 26.8916 30.584ZM18.2588 28.3271C18.5267 28.3823 18.7964 28.4385 19.5068 28.6396C20.2077 28.8381 21.3421 29.1794 22.501 29.5283C22.8446 29.6319 23.0389 29.9942 22.9355 30.3379C22.832 30.6816 22.4697 30.8769 22.126 30.7734C20.9618 30.423 19.8402 30.0854 19.1523 29.8906C18.4749 29.6988 18.2363 29.6498 17.9971 29.6006C17.6458 29.528 17.419 29.1844 17.4912 28.833C17.5635 28.4816 17.9074 28.2552 18.2588 28.3271ZM26.6309 30.7148C26.6473 30.7108 26.6607 30.7086 26.6689 30.7061C26.6775 30.7033 26.6852 30.699 26.6924 30.6963C26.6723 30.7032 26.6518 30.7099 26.6309 30.7148ZM36.9609 27.7598C37.307 27.6655 37.6641 27.8699 37.7588 28.2158C37.8532 28.562 37.649 28.9191 37.3027 29.0137L33.5508 30.0381C33.2046 30.1324 32.8474 29.9282 32.7529 29.582C32.6588 29.236 32.8629 28.8787 33.209 28.7842L36.9609 27.7598ZM20.8662 22.3975C20.9514 22.4102 21.0692 22.4342 21.1865 22.4863L21.3037 22.5488L21.4258 22.624C21.49 22.6647 21.5674 22.716 21.625 22.7627C21.7611 22.8733 22.0064 23.1179 22.0059 23.5117C22.0058 23.5461 22.0087 23.5782 22.0146 23.667C22.0195 23.7396 22.0262 23.8513 22.0156 23.9717C21.9911 24.2488 21.8744 24.5726 21.5391 24.8105C21.372 24.929 21.1882 24.9719 21.0557 24.9902C20.9143 25.0097 20.7657 25.0099 20.624 25.001C20.6022 24.9997 20.4207 24.9962 20.2471 24.9189C20.0145 24.8153 19.8573 24.6214 19.7832 24.3887C19.7129 24.1674 19.6631 23.9628 19.6406 23.7979C19.6304 23.723 19.6199 23.6156 19.6318 23.5059C19.6348 23.4786 19.6426 23.4314 19.6592 23.374C19.6563 23.2744 19.6609 23.1725 19.6758 23.0713C19.6851 23.0084 19.7155 22.7937 19.8867 22.6143C20.0801 22.4118 20.3183 22.3853 20.4209 22.3799L20.6533 22.3779C20.7277 22.3809 20.7992 22.3875 20.8662 22.3975ZM34.0322 21.6963C34.2454 21.6964 34.4325 21.8002 34.5498 21.959C34.7819 22.0248 34.9687 22.2154 35.0137 22.4688C35.0342 22.5842 35.0454 22.6867 35.0527 22.7783C35.0602 22.8176 35.0654 22.8579 35.0654 22.8994C35.0654 22.924 35.0646 22.9724 35.0615 23.0303C35.0607 23.0664 35.0597 23.1007 35.0576 23.1328C35.0472 23.2924 35.0197 23.4967 34.8711 23.7109C34.8223 23.7813 34.668 23.9996 34.4014 24.1182L34.3701 24.1514L34.2559 24.2031C34.1392 24.2559 34.0076 24.2881 33.8789 24.2969C33.7817 24.3035 33.6389 24.298 33.4873 24.2432C33.4689 24.2408 33.4501 24.2395 33.4316 24.2363C33.3853 24.2284 33.1921 24.1982 33.0195 24.0547C32.8132 23.883 32.7439 23.6499 32.7373 23.4541C32.7306 23.4194 32.7253 23.3833 32.7227 23.3457C32.7127 23.206 32.695 22.9633 32.7305 22.7324C32.7634 22.5176 32.8763 22.1042 33.3057 21.9111L33.5195 21.8223C33.5847 21.7975 33.6441 21.777 33.6963 21.7607C33.7481 21.7446 33.7971 21.7315 33.8398 21.7217C33.8588 21.7173 33.9422 21.6964 34.0322 21.6963Z" fill="#FF9852"/>
</svg>
