<svg width="56" height="56" viewBox="0 0 56 56" fill="none" xmlns="http://www.w3.org/2000/svg">
<path d="M0 28C0 12.536 12.536 0 28 0C43.464 0 56 12.536 56 28C56 43.464 43.464 56 28 56C12.536 56 0 43.464 0 28Z" fill="#D8EEFC"/>
<path d="M20.5625 40.0469C22.388 40.0469 23.8681 41.1856 23.8682 42.5898C23.8682 42.8558 23.8133 43.1116 23.7148 43.3525C23.8133 43.5935 23.8681 43.8493 23.8682 44.1152C23.8682 44.8853 23.4208 45.5728 22.7178 46.0391C22.2794 46.6882 20.7984 47.1669 19.0371 47.167C16.9311 47.167 15.2233 46.484 15.2227 45.6416C15.2227 45.331 15.4549 45.0418 15.8535 44.8008C15.7743 44.5827 15.7314 44.3528 15.7314 44.1152C15.7316 43.1779 16.3916 42.3608 17.373 41.9199C17.7553 40.8407 19.0384 40.0469 20.5625 40.0469Z" fill="#C2E8E9"/>
<path d="M34.292 40.0469C32.4665 40.0469 30.9864 41.1856 30.9863 42.5898C30.9863 42.8557 31.0403 43.1117 31.1387 43.3525C31.0403 43.5934 30.9864 43.8494 30.9863 44.1152C30.9863 44.9759 31.5438 45.7343 32.3945 46.1943C32.984 46.7703 34.1807 47.167 35.5635 47.167C37.5293 47.1669 39.123 46.3697 39.123 45.3867C39.123 44.9015 38.7344 44.4617 38.1045 44.1406C38.1046 44.1323 38.1055 44.1236 38.1055 44.1152C38.1054 43.571 37.9161 43.0679 37.5957 42.6543C37.5964 42.6329 37.5977 42.6114 37.5977 42.5898C37.5976 41.1856 36.1175 40.0469 34.292 40.0469Z" fill="#C2E8E9"/>
<path d="M27.1758 13.5977C30.1395 13.5977 32.9261 14.2085 35.3535 15.2812C41.5039 16.958 45.8861 21.1058 45.998 26.0527C46.0322 27.5648 45.6633 29.0202 44.9629 30.3682C44.549 36.6276 37.2637 41.7411 28.2188 41.9453C27.78 41.9552 27.3449 41.9526 26.9141 41.9395C17.7144 42.1152 10.1505 36.9468 10.002 30.3682C9.98666 29.6908 10.0515 29.025 10.1885 28.375C10.1561 28.0294 10.1397 27.6803 10.1396 27.3281C10.1396 19.745 17.7671 13.5977 27.1758 13.5977Z" fill="#F2FBE0"/>
<path d="M19.0361 9.52344C19.8177 9.52362 20.3153 10.0521 20.3154 10.5488C20.3154 11.0456 19.8178 11.574 19.0361 11.5742C18.2542 11.5742 17.7559 11.0457 17.7559 10.5488C17.756 10.052 18.2543 9.52344 19.0361 9.52344Z" fill="#D6F29C" stroke="#72CACB"/>
<circle cx="36.0725" cy="10.0412" r="1.02561" fill="#D6F29C" stroke="#72CACB"/>
<path d="M26.6631 30.375C27.775 30.375 28.4521 31.0581 28.4521 31.6553C28.4518 32.2524 27.7748 32.9346 26.6631 32.9346C25.5516 32.9344 24.8753 32.2523 24.875 31.6553C24.875 31.0581 25.5513 30.3751 26.6631 30.375Z" fill="#FFF1C4" stroke="#72CACB"/>
<path d="M26.6641 35.9688C26.8117 35.9688 26.9928 36.0515 27.1562 36.2803C27.3191 36.5083 27.4355 36.8497 27.4355 37.249C27.4355 37.6482 27.3191 37.9889 27.1562 38.2168C26.9928 38.4457 26.8117 38.5283 26.6641 38.5283C26.5164 38.5283 26.3354 38.4456 26.1719 38.2168C26.0091 37.9889 25.8927 37.6482 25.8926 37.249C25.8926 36.8497 26.009 36.5083 26.1719 36.2803C26.3354 36.0515 26.5164 35.9688 26.6641 35.9688Z" fill="#FFF0E5" stroke="#72CACB"/>
<path d="M23.8008 14.3068C23.1566 14.1609 22.7743 14.3119 22.0037 14.3362C21.2026 14.3615 20.0667 14.7266 18.6197 15.2897C17.1749 15.8519 16.2658 16.4214 15.7258 16.8618C15.4108 17.1187 14.971 17.3995 14.4276 17.8536C13.8843 18.3077 13.2401 18.9153 12.707 19.6051C12.1738 20.2949 11.7712 21.0483 11.3759 22.0685C10.9806 23.0886 10.6048 24.3525 10.371 25.8786C10.1372 27.4047 10.0566 29.1548 10.2299 30.7004C10.4031 32.246 10.8326 33.5342 11.3759 34.6475C11.9192 35.7608 12.5634 36.6601 13.1503 37.3422C13.7371 38.0242 14.2471 38.4617 14.7379 38.8208C15.2288 39.1799 15.6851 39.4472 16.5777 39.8037C17.4704 40.1602 18.7856 40.5977 19.6779 40.8717C20.5701 41.1457 20.9996 41.2429 23.0862 41.3659C25.1729 41.4889 28.9038 41.6348 31.3626 41.5398C33.8214 41.4447 34.895 41.1045 35.636 40.8441C36.3769 40.5837 36.7527 40.4136 37.3892 40.0464C38.0256 39.6792 38.9114 39.1202 39.6226 38.6135C40.3339 38.1067 40.8439 37.6692 41.4153 37.0792C41.9867 36.4893 42.604 35.7601 43.1904 34.8497C43.7769 33.9393 44.3137 32.8699 44.7244 31.9301C45.1352 30.9902 45.4036 30.2124 45.5553 29.1433C45.707 28.0742 45.7338 26.7374 45.7342 25.9151C45.7348 24.8251 45.5191 23.9179 45.114 22.7295C44.7428 21.6402 44.1892 21.1625 43.9607 20.8211C43.4465 20.053 42.5934 19.2261 41.9297 18.6004C41.5815 18.2721 41.2628 18.0454 40.8976 17.739C39.9109 16.9113 38.5519 15.9824 38.0508 15.676C37.4972 15.3374 36.8707 15.1722 36.4518 15.0006C35.9802 14.8074 35.1122 14.6573 34.1776 14.3996C33.2168 14.1345 32.5045 14.1403 31.1613 14.1156C29.8988 14.0924 27.456 14.1396 26.1306 14.1642C24.8053 14.1889 24.6711 14.2132 24.4946 14.2257C24.3181 14.2382 24.1416 14.2331 23.8391 14.3068" stroke="#72CACB" stroke-width="1.3" stroke-linecap="round"/>
<path d="M19.5705 14.8695C19.409 14.2013 19.3168 13.6467 19.2818 13.2191C19.2656 13.0206 19.2239 12.7227 19.1439 12.4108C19.0022 11.8589 18.1855 12.051 17.6435 11.6022C17.3169 11.3318 17.1451 10.8976 17.064 10.4481C17.0247 10.2304 17.0973 10.0214 17.1437 9.89248C17.3289 9.37827 18.2285 9.09394 18.8971 8.98927C19.4872 8.89688 19.9622 9.02323 20.1583 9.11542C20.5658 9.30693 20.7254 10.0616 20.7375 10.9957C20.743 11.4221 20.3802 11.6795 20.0918 11.9457C19.9878 12.0039 19.8506 12.0497 19.7341 12.0732C19.6177 12.0968 19.5262 12.0968 19.4319 12.0968" stroke="#72CACB" stroke-width="1.3" stroke-linecap="round"/>
<path d="M35.627 14.6623C35.627 14.1583 35.8099 12.7727 36.0193 12.2951C36.0429 12.1225 36.0886 11.9367 36.1579 11.7637C36.1815 11.6823 36.1815 11.6137 36.1815 11.543" stroke="#72CACB" stroke-width="1.3" stroke-linecap="round"/>
<path d="M36.4708 11.341C36.3747 11.381 36.2299 11.4293 36.0932 11.4576C35.9578 11.4855 35.4609 11.494 35.1081 11.394C34.8685 11.326 34.7736 11.0839 34.7054 10.9639C34.5998 10.778 34.5723 10.6092 34.5561 10.4096C34.5181 9.94046 34.6041 9.57159 34.696 9.39154C35.0278 8.74096 35.36 8.64599 35.4767 8.59772C35.5256 8.5775 35.6651 8.56562 35.9535 8.52941C36.3663 8.4776 36.7669 8.58082 37.0121 8.68931C37.1432 8.74728 37.1946 8.80649 37.2786 8.91438C37.4479 9.1318 37.5566 9.52043 37.5928 9.93013C37.6356 10.414 37.4685 10.5923 37.3204 10.7529C37.1804 10.881 37.0664 10.9787 37.0062 11.0229C36.9779 11.0431 36.954 11.0591 36.8811 11.0755" stroke="#72CACB" stroke-width="1.3" stroke-linecap="round"/>
<path d="M17.8891 40.6445C17.7511 41.1282 17.3673 42.2109 17.1579 42.4823C16.9572 42.7423 16.6709 43.082 16.3391 43.4406C16.1498 43.6453 15.7141 44.0743 15.3021 44.8502C15.0817 45.2654 15.2739 45.8525 15.448 46.3228C15.5354 46.5588 15.8992 46.7946 16.6458 47.1339C17.0654 47.3247 17.6339 47.387 18.2893 47.4403C18.9447 47.4937 19.6866 47.4937 20.1378 47.4764C20.7289 47.4538 21.1798 47.1993 21.8574 46.7306C22.2365 46.4683 22.6385 46.0893 22.9467 45.756C23.9015 44.7235 23.9362 43.8882 24.0494 43.6168C24.1496 43.3765 24.1453 43.0517 24.1803 42.6763C24.2321 42.4765 24.2676 42.2319 24.2763 41.9968C24.2849 41.8999 24.3022 41.8481 24.3199 41.7948" stroke="#72CACB" stroke-width="1.3" stroke-linecap="round"/>
<path d="M30.9863 42.225C31.0533 42.5213 31.1045 42.7924 31.1466 43.0163C31.1839 43.2148 31.3403 43.791 31.5175 44.5687C31.6386 45.0996 31.9144 45.5581 32.4798 46.2693C33.0388 46.9723 33.5037 46.9971 33.7996 47.0723C34.0043 47.1243 34.1975 47.1322 34.734 47.1547C35.2032 47.1743 36.0739 47.1623 36.5807 47.1475C37.4005 47.1235 37.6622 46.8939 37.9246 46.796C38.1445 46.7141 38.3052 46.6093 38.5162 46.4971C38.9774 46.2518 39.0832 45.8167 39.1088 45.5251C39.1436 45.1294 39.1177 44.5599 38.9911 44.41C38.7513 44.1258 38.4249 43.8418 38.2474 43.6321C38.0781 43.4322 37.8001 43.1389 37.6386 42.9066C37.5254 42.7437 37.4107 42.4665 37.2836 42.0767C37.258 42.001 37.2413 41.9566 37.2327 41.9115C37.224 41.8664 36.9503 41.1083 36.8995 41.0625" stroke="#72CACB" stroke-width="1.3" stroke-linecap="round"/>
<path d="M19.9451 25.0993C19.8476 25.4502 19.8461 25.7089 19.9346 25.8368C19.9902 25.9172 20.0629 25.936 20.1462 25.9508C20.2763 25.9738 20.3878 25.946 20.4808 25.8923C20.6559 25.7911 20.7717 25.651 20.8209 25.5725C20.8654 25.5013 20.8606 25.3855 20.8557 25.2675C20.8485 25.0936 20.6444 24.9523 20.5461 24.8585C20.4653 24.7815 20.2906 24.7745 20.1088 24.8086C19.9283 24.8425 19.847 25.1469 19.7879 25.4125C19.7658 25.5121 19.7679 25.5417 19.802 25.5909C19.9043 25.7083 20.1208 25.7786 20.3569 25.7737C20.4468 25.7688 20.4761 25.7591 20.5062 25.7491" stroke="#72CACB" stroke-width="1.3" stroke-linecap="round"/>
<path d="M32.8737 23.6503C32.7672 23.8481 32.7123 23.9958 32.7427 24.1258C32.7941 24.3454 32.9348 24.4879 33.0191 24.5455C33.1859 24.6593 33.3495 24.642 33.4992 24.6268C33.5666 24.6199 33.6108 24.5811 33.6496 24.5007C33.8216 24.1439 33.7732 23.9053 33.7427 23.7621C33.7283 23.6947 33.6277 23.62 33.5355 23.5355C33.4818 23.4862 33.359 23.4888 33.213 23.4964C33.1579 23.4993 33.1431 23.5193 33.1277 23.5537C33.097 23.6415 33.0813 23.8029 33.0965 23.9948C33.1117 24.0802 33.1422 24.1411 33.1966 24.2269" stroke="#72CACB" stroke-width="1.3" stroke-linecap="round"/>
<path d="M24.7952 31.0686C24.779 31.0686 24.6976 31.1822 24.5829 31.3665C24.5261 31.4576 24.5247 31.6328 24.5774 31.9596C24.6926 32.6728 25.0569 32.773 25.1964 32.9086C25.2712 32.9814 25.4012 33.0357 25.5402 33.1338C25.6902 33.2397 25.8926 33.3308 26.2555 33.4127C26.5008 33.468 26.8863 33.4621 27.1112 33.4624C27.3934 33.4627 27.5732 33.3728 27.7901 33.2665C27.9551 33.1856 28.147 33.0209 28.4168 32.7554C28.9446 32.236 28.9596 31.9796 29.0089 31.7949C29.0919 31.4839 29.026 31.1187 28.9234 30.8809C28.8366 30.6796 28.6659 30.5122 28.5095 30.3395C28.3992 30.2176 28.2311 30.1428 27.9895 30.04C27.8536 29.9822 27.6494 29.9458 27.2743 29.8843C27.0233 29.8432 26.6393 29.8634 26.3779 29.8715C25.8177 29.8889 25.722 29.9943 25.4522 30.1824C25.2665 30.3119 25.1317 30.56 25.0456 30.6297C25.0249 30.6502 25.0087 30.6746 24.9922 30.6952C24.9758 30.7159 24.9595 30.7321 24.9428 30.7488" stroke="#72CACB" stroke-width="1.3" stroke-linecap="round"/>
<path d="M25.926 36.0538C25.9002 36.0641 25.8744 36.0744 25.8045 36.1983C25.7345 36.3221 25.6211 36.5592 25.5627 36.7252C25.5043 36.8911 25.5043 36.9787 25.5223 37.0986C25.5403 37.2185 25.5764 37.368 25.6466 37.5738C25.7167 37.7797 25.8198 38.0374 25.9012 38.2062C26.0219 38.4564 26.1184 38.5422 26.1909 38.5966C26.316 38.6906 26.4514 38.7401 26.5371 38.7687C26.6261 38.7984 26.8458 38.7873 27.1215 38.7561C27.2658 38.7398 27.3726 38.6626 27.4948 38.5717C27.5867 38.5034 27.6385 38.3971 27.7396 38.2366C27.8083 38.1276 27.8768 37.9421 27.9218 37.6714C27.9668 37.4006 27.9771 37.045 27.9798 36.8411C27.9842 36.5112 27.889 36.3565 27.7956 36.1744C27.656 35.9022 27.5507 35.877 27.4338 35.8042C27.2829 35.7102 27.1758 35.7155 27.1003 35.6817C26.9114 35.6633 26.5412 35.6891 26.3827 35.7436C26.3118 35.7723 26.2602 35.8032 26.2071 35.8351" stroke="#72CACB" stroke-width="1.3" stroke-linecap="round"/>
<path d="M23.4278 18.8743C23.2935 19.7381 23.3526 20.3054 23.643 20.7682C23.8606 21.1151 24.1129 21.3506 24.4264 21.5603C24.6837 21.7325 25.201 21.6953 25.6931 21.6806C26.3074 21.6621 26.9035 21.0702 27.1585 20.7637C27.3286 20.5593 27.3978 20.3081 27.45 19.9595C27.552 19.2776 27.4878 18.7852 27.4507 18.7033C27.4156 18.626 27.2353 18.4727 26.9008 18.2712C26.4961 18.0274 26.0115 18.3061 25.7729 18.4924C25.6261 18.6069 25.6072 18.7396 25.5848 18.9545C25.5365 19.4182 25.6658 19.9763 25.8814 20.4604C26.2323 21.2481 26.5462 21.4106 26.7998 21.5456C27.326 21.8256 28.1537 21.8297 28.7472 21.7556C29.3638 21.6786 29.6063 21.2189 29.808 20.9872C29.9054 20.815 30.0245 20.6663 30.1367 20.487C30.1593 20.442 30.1741 20.3977 30.1893 20.352" stroke="#72CACB" stroke-width="1.3" stroke-linecap="round"/>
</svg>
