<svg width="120" height="120" viewBox="0 0 120 120" fill="none" xmlns="http://www.w3.org/2000/svg">
<path d="M0 60C0 26.8629 26.8629 0 60 0C93.1371 0 120 26.8629 120 60C120 93.1371 93.1371 120 60 120C26.8629 120 0 93.1371 0 60Z" fill="#FFF1C4"/>
<ellipse cx="8.53876" cy="6.48089" rx="8.53876" ry="6.48089" transform="matrix(0.867562 -0.49733 0.461101 0.887348 30.8164 86.4609)" fill="#C7D2FE"/>
<path d="M73.4365 82.5098C77.0227 80.0003 81.727 80.6376 83.9443 83.9326C86.1617 87.2276 85.052 91.9328 81.4658 94.4424C77.8797 96.9518 73.1753 96.3155 70.958 93.0205C68.7406 89.7255 69.8504 85.0194 73.4365 82.5098Z" fill="#C7D2FE"/>
<ellipse cx="8.24504" cy="6.48089" rx="8.24504" ry="6.48089" transform="matrix(0.867562 -0.49733 0.461101 0.887348 32.8164 87.5156)" fill="#C7D2FE"/>
<ellipse cx="6.26076" cy="7.018" rx="6.26076" ry="7.018" transform="matrix(0.811238 -0.584716 0.546968 0.837154 69.2656 86.6836)" fill="#C7D2FE"/>
<path fill-rule="evenodd" clip-rule="evenodd" d="M19.5666 32.2598C20.5329 27.9996 27.5154 26.0966 35.1623 28.0098C37.7327 28.6529 40.0506 29.6468 41.9592 30.8428C45.7884 28.7803 50.4017 27.5515 55.3762 27.4961C60.8138 27.4356 65.8481 28.7863 69.9182 31.1172C73.0595 29.3885 78.7599 28.4803 85.1907 28.9395C94.8065 29.6261 102.413 33.1052 102.18 36.71C101.947 40.3149 93.9613 42.6807 84.345 41.9942C83.9312 41.9646 83.5213 41.9284 83.1155 41.8887C89.483 46.6317 93.4796 53.3241 93.5549 60.7822C93.7025 75.4092 78.7183 87.4351 60.0871 87.6426C41.4558 87.8501 26.2329 76.1603 26.0852 61.5332C26.0319 56.2495 27.9525 51.3052 31.3069 47.1348C31.3042 47.0418 31.301 46.9488 31.3 46.8555C31.2883 45.6894 31.4092 44.5458 31.6526 43.4346C24.0114 41.5192 18.601 36.518 19.5666 32.2598Z" fill="#FFFBEC"/>
<ellipse cx="24.27" cy="8.54389" rx="24.27" ry="8.54389" transform="matrix(0.999938 -0.0111364 0.010095 0.999949 27.8164 27.0469)" fill="#FFFBEC"/>
<ellipse cx="24.27" cy="8.54389" rx="24.27" ry="8.54389" transform="matrix(0.772935 0.634485 -0.63529 0.772274 52.6758 20.9844)" fill="#FFFBEC"/>
<ellipse cx="4.82599" cy="2.93564" rx="4.82599" ry="2.93564" transform="matrix(0.997461 0.0712158 -0.0645851 0.997912 92.1953 36.0977)" fill="#FFFBEC"/>
<ellipse cx="4.82599" cy="2.93564" rx="4.82599" ry="2.93564" transform="matrix(0.997461 0.0712158 -0.0645851 0.997912 77.1953 39.25)" fill="#FFFBEC"/>
<ellipse cx="4.82599" cy="5.69998" rx="4.82599" ry="5.69998" transform="matrix(0.997461 0.0712158 -0.0645851 0.997912 18.5527 29.5312)" fill="#FFFBEC"/>
<ellipse cx="19.3862" cy="15.4744" rx="19.3862" ry="15.4744" transform="matrix(0.999938 -0.0111364 0.010095 0.999949 26.8164 54.3867)" fill="#FFFBEC"/>
<ellipse cx="19.3862" cy="15.0916" rx="19.3862" ry="15.0916" transform="matrix(0.999938 -0.0111364 0.010095 0.999949 58.8164 43.8828)" fill="#FFFBEC"/>
<ellipse cx="58.3164" cy="68.522" rx="4.5" ry="3.15091" fill="#FFF1C4"/>
<path d="M36.8952 29.6835C36.8952 29.5956 35.9742 29.1986 33.4905 28.3799C31.9403 27.8689 29.751 27.3413 28.1692 27.0469C25.6894 26.5853 24.5083 26.8404 23.8353 27.2594C23.3531 27.5597 22.6601 28.162 21.8749 29.028C20.1451 30.9358 19.2643 32.4788 19.0322 33.0763C18.3907 34.7274 17.9539 36.8248 17.8468 38.0512C17.8253 38.297 17.784 38.5169 17.888 38.74C17.992 38.9632 18.2432 39.183 19.0423 39.5821C19.8415 39.9811 21.181 40.5527 23.1687 41.1769C25.1565 41.801 27.7518 42.4605 29.2772 42.8223C31.1705 43.2712 31.693 43.3172 31.8624 43.5157C32.1282 43.8273 31.6956 44.3378 31.1704 45.0213C30.0409 46.4913 29.2436 47.9324 28.9062 48.8177C28.1691 50.7517 27.7214 52.1918 27.467 53.9252C27.4011 54.3749 27.2571 54.8112 27.1506 56.6645C27.044 58.5177 26.9603 61.7713 26.8544 63.7551C26.7484 65.7389 26.6229 66.3545 26.5163 67.5949C26.4098 68.8353 26.326 70.6819 26.4085 71.9409C26.5331 73.8435 27.1683 74.6695 27.5267 75.1784C27.9605 75.7947 29.0216 77.061 30.8349 78.7671C31.7448 79.6232 32.732 80.3412 33.6465 80.9241C34.5611 81.507 35.3983 81.9027 36.2901 82.4143C38.1388 83.4749 39.3028 84.3075 40.4996 84.7932C41.436 85.1731 43.0778 85.7185 46.0956 86.2767C49.1133 86.835 53.4668 87.3626 57.3839 87.6344C61.3011 87.9062 64.6499 87.9062 66.6681 87.8622C68.6863 87.8182 69.2723 87.7303 69.8463 87.597C70.4203 87.4638 70.9645 87.288 71.8727 86.9116C72.781 86.5352 74.0368 85.9636 75.4791 85.2515C76.9213 84.5394 78.512 83.704 80.8175 82.0426C83.123 80.3812 86.0951 77.919 87.8146 76.4528C89.534 74.9866 89.9108 74.5909 90.5234 73.5297C91.1361 72.4685 91.9733 70.7538 92.5511 69.6506C93.1289 68.5475 93.422 68.1078 93.8241 67.3317C94.7808 65.4853 95.3716 63.9283 95.6038 63.0649C95.8664 62.088 96.0477 60.9985 96.3642 59.7814C96.7535 58.2844 96.7683 56.2528 96.7055 54.3669C96.6699 53.2985 95.9691 52.2958 94.9162 50.8122C93.6441 49.0197 92.4985 48.2042 92.267 47.8944C91.9456 47.4644 91.4431 47.1383 90.916 46.8945C90.367 46.6406 88.8731 45.8127 87.0344 44.5476C85.9294 43.7873 85.4799 43.629 85.3315 43.4964C84.8852 43.0978 86.7408 42.5645 89.1363 42.298C90.8962 42.1022 93.7924 42.2074 95.5315 42.2734C97.7793 42.3586 98.8346 42.6071 99.7429 42.5411C100.816 42.4632 101.332 40.9683 101.672 39.6826C102.262 37.4528 101.421 36.6596 101.146 36.0367C100.755 35.1532 100.112 34.352 99.4346 33.5719C98.8772 32.93 98.2093 32.4841 95.4293 31.0885C93.3318 30.0354 91.5712 30.0393 90.7074 29.8847C89.6158 29.6894 88.6118 29.3292 86.5543 29.2399C84.9168 29.1688 82.0689 29.3265 80.2048 29.4377C76.5375 29.6566 75.9674 30.2591 75.4594 30.4823C74.7111 30.811 72.8038 30.4403 71.4459 29.8194C69.6038 28.9772 68.8638 28.8842 67.1628 28.5757C65.8452 28.3368 63.3306 27.9595 61.9112 27.7557C60.2449 27.5164 59.4376 27.4639 58.5503 27.3087C58.0763 27.2258 57.7011 27.1082 55.6042 27.0415C53.7593 26.9829 50.326 27.0189 48.4531 27.0629C45.9337 27.122 45.1861 27.4186 44.3825 27.5292C43.2842 27.6803 41.9311 27.9515 40.9163 28.1281C39.7784 28.326 39.3078 28.6603 38.7998 28.8835C38.2499 29.0614 37.7844 29.1946 37.5522 29.3052C37.4457 29.3718 37.362 29.4597 37.2757 29.5503" stroke="#818CF8" stroke-width="2" stroke-linecap="round"/>
<path d="M42.6039 47.3575C42.562 47.5773 42.5202 47.7972 42.5823 47.9764C42.6445 48.1556 42.8119 48.2875 43.1075 48.3554C43.4031 48.4234 43.8217 48.4234 44.142 48.3135C44.4623 48.2036 44.6717 47.9837 44.7795 47.7385C44.8873 47.4934 44.8873 47.2296 44.7827 46.9837C44.678 46.7379 44.4687 46.5181 44.1097 46.4048C43.7507 46.2916 43.2483 46.2916 42.9895 46.3795C42.7308 46.4674 42.7308 46.6433 42.7517 46.7999C42.7726 46.9564 42.8145 47.0883 42.9198 47.1783C43.1533 47.3778 43.5743 47.3575 43.9124 47.2915C44.0533 47.264 44.083 47.0937 44.0627 46.9817C44.0424 46.8698 43.9587 46.7819 43.7691 46.7366C43.5794 46.6913 43.2864 46.6913 43.1354 46.7572C42.9845 46.8232 42.9845 46.9551 42.9845 47.091" stroke="#818CF8" stroke-width="2" stroke-linecap="round"/>
<path d="M70.6611 45.4821C70.3901 45.5228 70.1924 45.7063 70.0948 45.9832C70.0333 46.1575 70.0159 46.3027 70.0449 46.4462C70.0722 46.5809 70.2306 46.652 70.4247 46.7444C70.8141 46.9297 71.2077 46.7351 71.3347 46.643C71.5338 46.4986 71.5796 46.1819 71.5802 45.7097C71.5804 45.534 71.3661 45.3601 71.1611 45.1651C71.0338 45.0441 70.8576 45.0509 70.6819 45.0814C70.545 45.1728 70.4658 45.2967 70.4268 45.4196C70.4071 45.4815 70.3878 45.5425 70.3678 45.7285" stroke="#818CF8" stroke-width="2" stroke-linecap="round"/>
<path d="M55.3534 65.6246C54.1534 66.2345 53.3997 66.8129 53.1944 67.4777C52.9207 68.3641 53.1827 69.0529 53.3094 69.2577C53.6662 69.8346 54.1006 70.4901 54.5109 70.8696C54.7987 71.1357 55.1951 71.3322 55.6238 71.5371C56.1176 71.773 56.8931 71.9076 57.8585 72C58.8012 72.0902 59.5542 71.9908 60.0422 71.8987C60.423 71.8268 60.7284 71.6014 61.0501 71.3251C61.4128 71.0137 61.861 70.3928 62.359 69.6751C62.7047 69.1767 62.8992 68.626 63.0458 68.0111C63.2885 66.9934 62.7848 66.1408 62.51 65.8307C62.2482 65.5352 61.5343 65.4607 61.1029 65.2864C60.7141 65.1293 60.3401 65.1318 59.7275 65.0806C58.6168 64.9879 57.74 65.0905 57.5057 65.1314C57.2309 65.1934 56.6098 65.3153 56.1658 65.3883C56.0972 65.3985 56.0197 65.4188 55.94 65.4398" stroke="#818CF8" stroke-width="2" stroke-linecap="round"/>
<path d="M56.0078 78.4172C56.0078 78.4985 56.6659 78.8046 57.7888 79.2051C58.2458 79.368 58.5053 79.3412 58.7897 79.2294C59.9324 78.7803 60.0742 78.233 60.1519 78.1405C60.1954 78.0889 60.3071 78.1091 60.386 78.1396C60.7875 78.2948 61.4778 78.7646 62.601 79.0119C62.995 79.0987 63.5436 79.0739 63.8518 79.0538C64.16 79.0338 64.2181 78.9728 64.3157 78.7584C64.4134 78.5441 64.5489 78.1781 64.6187 77.949C64.6885 77.7198 64.6885 77.6385 64.6885 77.5547" stroke="#818CF8" stroke-width="2" stroke-linecap="round"/>
<path d="M37.6261 83.7227C36.4608 84.7426 35.5368 85.574 34.8845 86.1396C34.2771 86.6662 33.8016 86.9493 33.4926 87.4444C32.9222 88.3584 32.5912 89.1468 32.5422 89.7274C32.4533 90.7799 32.9139 91.8914 33.6805 92.714C34.3681 93.4519 35.4936 94.0559 36.8316 94.639C37.4478 94.9076 37.9753 95.0181 39.0513 95.1392C40.1273 95.2602 41.7458 95.3622 43.0812 95.2448C44.4167 95.1273 45.4201 94.7874 46.3093 94.4082C47.9746 93.6982 49.0013 92.9628 49.5236 92.5003C50.148 91.6915 50.3441 90.9384 50.4589 90.0128C50.4756 89.5012 50.4756 88.5833 50.4756 87.6375" stroke="#818CF8" stroke-width="2" stroke-linecap="round"/>
<path d="M68.7911 88.5608C69.1301 90.3716 69.5284 91.6686 70.2624 92.4991C71.3676 93.7497 72.8105 94.312 73.5629 94.6634C74.5006 95.1013 75.6217 95.1126 77.052 95.3596C78.0011 95.5234 79.4232 95.6326 80.2228 95.6615C81.7777 95.7177 82.9235 94.7431 83.8093 93.9362C84.452 93.3509 84.5316 92.4896 84.8157 91.9471C84.9363 91.7168 85.1888 91.1763 85.4428 90.1182C85.7499 88.8385 85.6464 87.9398 85.5405 87.6879C85.3327 87.1933 84.1 85.4487 83.3859 84.4343C83.0911 84.0156 82.7916 83.6504 82.5373 83.2273C82.4229 83.0605 82.3415 82.8794 82.2793 82.6837C82.2392 82.5927 82.1815 82.5186 82.1222 82.4422" stroke="#818CF8" stroke-width="2" stroke-linecap="round"/>
</svg>
