<svg width="168" height="107" viewBox="0 0 168 107" fill="none" xmlns="http://www.w3.org/2000/svg">
<ellipse cx="69.3487" cy="97.5384" rx="7.2897" ry="4.35761" transform="rotate(-20.2999 69.3487 97.5384)" fill="#FFDFC9"/>
<ellipse cx="86.8516" cy="98.7819" rx="6.37305" ry="4.61626" transform="rotate(-32.0704 86.8516 98.7819)" fill="#FFDFC9"/>
<path d="M72.209 15.5625C77.2978 15.5628 81.5522 22.8038 82.6328 32.5029C86.8045 21.6931 94.3494 14.564 99.7578 16.4668C105.321 18.4244 106.516 29.1972 102.429 40.5283C100.776 45.1085 98.5123 49.0778 96.0352 52.0537C104.281 56.0249 109.832 63.4705 109.832 72C109.832 84.7026 97.5199 95 82.332 95C67.1442 95 54.832 84.7026 54.832 72C54.832 64.681 58.9191 58.1596 65.2891 53.9473C62.9807 49.9521 61.5156 43.996 61.5156 37.3428C61.5156 25.3138 66.3032 15.5625 72.209 15.5625Z" fill="#FFF1C4"/>
<ellipse cx="79" cy="79.5" rx="4" ry="3.5" fill="#FFF0E5"/>
<path d="M67.8753 51.8593C65.506 48.2715 63.5746 44.8634 62.3397 42.3049C61.6349 40.8448 60.7003 39.0327 59.9033 36.2024C59.2081 33.7334 59.2596 30.6849 59.457 27.5379C59.6002 25.2552 61.088 23.663 62.5192 21.9742C64.1981 19.9932 65.6376 18.6949 66.7888 17.9102C69.9107 15.7822 72.1688 15.6224 75.6415 15.5007C76.3291 15.4766 76.6443 15.6177 77.0045 15.9698C78.9 17.8232 79.2003 20.0256 80.0343 22.3737C80.6623 24.1415 81.2633 27.2176 81.7084 29.4086C82.1536 31.5995 82.3115 32.8474 82.3929 35.8692C82.4743 38.8909 82.4743 43.6486 82.4348 45.8655C82.3953 48.0825 82.3163 47.6145 82.2756 46.7494C82.1763 44.6384 82.3929 42.0248 82.7112 39.7039C83.1048 36.8341 84.0682 35.0857 85.0973 31.9552C85.9029 29.5048 87.548 25.393 88.4012 23.0685C89.653 19.6582 91.2432 18.4633 92.1239 17.5522C93.209 16.4296 94.6752 16.0147 96.701 15.542C99.7428 14.8323 102.413 15.8516 103.606 16.7935C105.054 17.9367 105.847 19.0825 106.165 19.9062C106.618 21.0775 106.646 24.3389 106.449 28.9394C106.286 32.724 105.213 34.8375 104.814 35.7025C104.072 37.3139 102.271 40.6517 101.303 42.637C100.907 43.2657 100.584 43.8211 99.7537 45.1116C99.0022 46.168 97.5806 48.0399 96.1159 50.2049" stroke="#BCB39B" stroke-width="2" stroke-linecap="round"/>
<path d="M67.9751 52.1664C67.756 52.1653 66.6539 52.6013 64.443 53.9088C63.342 54.56 62.7035 55.5136 62.1696 56.1867C61.7988 56.6542 60.8999 57.4412 59.7579 58.6957C59.2544 59.2489 58.9811 59.6978 58.3012 61.0206C57.6212 62.3434 56.5622 64.5431 55.9802 65.8566C55.2516 67.5009 55.1403 68.1908 54.883 69.0246C54.4764 70.3426 54.3281 71.6133 54.1998 72.6657C54.1239 73.2874 53.9618 74.0786 53.8866 75.3348C53.8114 76.5909 53.8114 78.2858 53.9026 79.5376C53.9939 80.7893 54.1765 81.5466 54.3984 82.2793C54.8319 83.7109 55.4679 84.8359 56.0754 85.6899C56.6309 86.4708 57.4928 87.6377 58.7631 88.8748C59.3171 89.4141 59.7778 89.679 60.2957 89.9719C60.8136 90.2648 61.3978 90.5533 63.1594 91.1166C64.9211 91.6799 67.8423 92.5093 71.3008 93.2251C74.7593 93.9408 78.6665 94.5178 81.8113 94.779C84.9561 95.0402 87.2201 94.968 89.3723 94.7145C91.5246 94.461 93.4964 94.0283 94.7496 93.7152C96.4933 93.2795 97.3682 92.8197 98.4333 92.1312C99.1174 91.689 100.01 90.9379 101.155 89.8451C102.301 88.7524 103.652 87.3099 104.604 86.098C105.556 84.8861 106.067 83.9486 106.695 82.3837C107.324 80.8189 108.054 78.6552 108.503 76.9455C108.953 75.2359 109.099 74.0459 109.174 72.6936C109.249 71.3412 109.249 69.8627 109.158 68.6864C109.067 67.51 108.884 66.6806 108.662 65.9288C108.243 64.5096 107.739 63.5345 107.426 62.9346C106.982 62.0849 105.901 60.4125 104.899 59.1629C104.403 58.5434 103.429 57.2762 102.52 56.2484C101.996 55.6555 101.506 55.2633 101.154 54.8273C100.804 54.3924 100.288 54.1705 99.6068 53.6258C98.7516 52.9424 97.9647 52.4221 97.522 52.0047C96.6357 51.2933 96.3037 51.0015 96.1012 50.8381C96.0083 50.7469 95.9353 50.6387 95.7493 50.418" stroke="#BCB39B" stroke-width="2" stroke-linecap="round"/>
<path d="M77.4935 76.3514C77.0627 76.5061 76.6318 76.6608 76.188 76.9403C75.7441 77.2199 75.3002 77.6195 75.052 77.8706C74.7379 78.1881 74.7111 78.3951 74.6914 78.8348C74.6756 79.184 74.6846 79.7902 74.7107 80.1862C74.7482 80.7538 74.9473 81.09 75.1578 81.4085C75.3507 81.7003 75.7761 82.0789 76.329 82.4953C76.567 82.6746 76.7774 82.7055 77.0676 82.7514C77.3578 82.7974 77.7364 82.836 78.2056 82.856C78.6748 82.8759 79.2231 82.8759 79.5578 82.863C79.9983 82.846 80.2481 82.7075 80.5245 82.545C80.7649 82.4035 81.1699 82.1617 81.6506 81.7718C81.8653 81.5976 81.9876 81.4335 82.1332 81.2119C82.2788 80.9904 82.4355 80.7068 82.5684 80.3608C82.7013 80.0149 82.8058 79.6152 82.8596 79.1708C82.9134 78.7264 82.9134 78.2493 82.8938 77.9327C82.8653 77.4714 82.7555 77.2636 82.6179 77.1079C82.2317 76.6712 81.9782 76.6124 81.7149 76.4887C81.3805 76.3317 81.0417 76.3123 80.7205 76.2736C80.1181 76.2011 79.6179 76.0779 79.3548 76.0908C79.0918 76.1295 78.9181 76.156 78.8392 76.1625C78.7994 76.1689 78.7602 76.1818 78.6803 76.2342" stroke="#BCB39B" stroke-width="2" stroke-linecap="round"/>
<path d="M78.8594 88.0715C78.9316 88.2854 79.0038 88.4994 79.4832 88.877C79.9626 89.2547 80.8471 89.7895 81.402 90.065C82.1199 90.4215 82.6128 90.2871 83.0769 90.1526C83.4794 90.0359 83.7084 89.7652 83.8722 89.5766C83.9999 89.3703 84.0918 89.0996 84.1465 88.6515C84.1651 88.3638 84.1651 87.9537 84.1651 87.5312" stroke="#BCB39B" stroke-width="2" stroke-linecap="round"/>
<path d="M58.968 33.8633C57.9583 34.2622 56.4283 36.1628 54.747 39.0804C53.6711 40.9472 53.2078 42.7669 52.8254 45.0015C52.6238 46.1793 52.6953 47.4854 52.9225 48.7266C53.3694 51.168 54.2742 52.5453 54.7064 52.9729C55.4415 53.7001 56.4651 53.5047 57.8909 53.2547C58.7859 53.0977 59.8783 51.8004 61.3287 49.7192C62.1637 48.521 62.6276 46.6907 62.9649 44.7446C63.3023 42.7986 63.3528 40.7046 63.3535 39.4762C63.3547 37.5304 62.7439 37.0392 62.4623 36.459C62.3977 36.3258 62.2849 36.2323 62.0814 36.2558C61.5492 36.317 60.6066 37.3806 59.4354 38.9633C58.3861 40.3813 57.9506 42.0643 57.5681 43.8963C57.355 44.917 57.4381 46.177 57.6653 46.7692C57.8925 47.3615 58.3469 47.2618 58.8334 46.8863C59.8248 45.8627 60.9003 44.1478 61.767 41.639C62.0783 40.1773 62.1288 38.3325 62.1808 36.4318" stroke="#BCB39B" stroke-width="2" stroke-linecap="round"/>
<path d="M61.418 34.1641C60.0043 38.5018 58.5907 42.8395 57.9129 45.3234C57.2351 47.8073 57.3361 48.3059 57.4639 48.6375C57.5916 48.9692 57.7431 49.1188 58.1493 49.1958C58.5555 49.2729 59.2118 49.2729 59.8024 49.0236C61.0269 48.5066 62.0743 46.9642 63.2202 45.3567C64.0127 43.7491 64.4258 42.0297 64.5535 40.2212C64.5803 39.3101 64.5298 38.4127 64.4778 37.488" stroke="#BCB39B" stroke-width="2" stroke-linecap="round"/>
<path d="M62.7946 35.2227C62.6431 35.2227 62.4916 35.2227 61.4291 37.2669C60.3666 39.3111 58.3976 43.3995 57.459 45.5805C56.5203 47.7615 56.6718 47.911 56.8761 48.0379C57.3086 48.3067 58.1987 48.3673 59.3691 48.2177C60.5214 48.0705 61.5645 46.8625 62.6339 45.6069C63.0975 44.9497 63.4004 44.2517 63.6069 43.2938C63.8135 42.3359 63.9145 41.1393 64.0185 39.9064" stroke="#BCB39B" stroke-width="2" stroke-linecap="round"/>
<path d="M60.4995 34.7695C60.2975 34.7695 60.0956 34.7695 59.0827 37.088C58.0699 39.4064 56.2524 44.0433 55.6695 46.4071C55.0866 48.7709 55.7934 48.721 56.3595 48.6454C58.2 47.819 59.375 46.1072 59.7827 44.8018C59.938 44.0947 59.9885 43.2969 60.0405 42.475" stroke="#BCB39B" stroke-width="2" stroke-linecap="round"/>
<path d="M61.1113 37.7892C60.2025 33.9002 59.2937 30.0112 58.8256 26.5867C58.3574 23.1623 58.3574 20.3204 58.4836 18.258C58.6099 16.1957 58.8623 14.999 59.1438 14.0087C59.4253 13.0183 59.7282 12.2704 60.6416 10.863C61.555 9.45563 63.0696 7.41141 64.0265 6.18382C65.2865 4.5676 65.903 4.09805 66.4109 3.7717C67.0862 3.33781 68.0418 3.04043 69.5893 2.68915C70.6248 2.45411 72.1971 2.23815 76.3103 2.0848C80.4235 1.93144 87.0373 1.88159 90.6212 1.95562C94.205 2.02965 94.5584 2.22909 95.4978 2.65591C97.9367 3.76404 99.6638 4.59815 99.969 4.97511C100.985 6.23047 102.11 8.92229 102.825 10.5873C103.157 11.363 103.386 12.2009 103.894 13.7276C104.263 14.837 104.604 16.7003 104.913 20.4677C105.222 24.2351 105.424 29.8691 105.503 33.3948C105.582 36.9204 105.531 38.1669 105.48 38.9835C105.407 40.1512 105.326 40.6583 105.25 40.9099C105.214 41.0311 105.023 41.0617 104.895 40.9378C104.547 40.6026 104.359 39.9074 103.927 39.3295C103.711 39.0401 103.444 38.8015 103.163 38.9722C102.333 39.4754 102.216 41.9033 102.215 44.3698C102.215 45.292 102.416 45.54 102.696 45.7183C102.976 45.8965 103.38 45.9963 103.967 45.7983C105.403 45.3138 106.949 43.6907 108.527 41.583C109.372 40.4544 109.803 38.877 110.139 36.9597C110.476 35.0424 110.577 32.7489 110.578 31.4926C110.58 30.2363 110.479 30.0867 110.351 29.9349C110.223 29.783 110.072 29.6334 109.767 29.5564C109.027 29.3696 107.984 29.7286 106.763 30.4304C105.202 31.3285 103.955 33.0964 102.962 34.88C102.49 35.7258 102.422 36.6137 102.344 37.873C102.165 40.7733 102.367 42.7222 102.571 43.1498C102.659 43.3353 102.774 43.4278 103.003 43.5041C103.567 43.6924 104.555 43.3824 105.751 42.655C107.039 41.8711 107.67 40.3652 107.976 38.7335C108.323 36.8811 107.979 35.5259 107.75 34.9978C107.646 34.7575 107.471 34.6193 107.317 34.5174C107.034 34.3292 106.351 34.3141 105.233 34.5884C103.718 34.9599 102.73 36.8736 101.915 38.8566C101.48 39.9152 101.302 41.1886 101.172 42.454C100.915 44.9563 101.295 46.8484 101.879 47.8796C102.148 48.3534 102.615 48.5617 103.025 48.6902C103.811 48.9362 105.164 48.4696 106.869 47.6167C108.531 46.7853 109.452 44.9492 110.166 43.0417C110.549 42.0189 110.476 40.7354 110.3 39.5199C109.952 37.1137 108.849 35.5274 108.085 34.8225C107.79 34.5502 107.624 34.5166 107.243 34.7153C106.195 35.2616 104.925 36.9718 103.678 39.2577C103.073 40.3653 102.783 41.4938 102.576 42.732C102.369 43.9702 102.318 45.3164 102.494 46.1096C102.67 46.9028 103.074 47.1022 103.787 47.18C105.499 47.3669 107.408 46.5583 109.113 45.228C109.995 44.5392 110.766 43.6484 111.284 42.7131C111.801 41.7779 112.003 40.7807 112.107 39.4443C112.211 38.108 112.211 36.4626 112.059 35.2411C111.811 33.2361 111.04 32.3515 110.582 32.0999C110.242 31.9133 109.766 31.8967 109.054 31.9466C108.131 32.0113 107.015 32.7972 105.87 34.0777C104.707 35.3776 104.105 37.2256 103.621 39.359C103.047 41.8884 103.64 43.8281 104.175 44.5828C104.519 45.0681 105.067 45.2922 106.032 45.4184C107.489 45.6089 109.042 44.7951 110.264 43.5902C111.502 42.369 112.004 40.5178 112.437 38.7342C113.293 35.2098 112.722 32.906 112.417 32.6786C111.144 33.3034 110.02 34.2613 109.689 34.7387C109.559 34.9668 109.509 35.1663 109.304 35.5228" stroke="#BCB39B" stroke-width="2" stroke-linecap="round"/>
<path d="M111.221 30.832C111.692 31.53 111.88 31.8088 111.94 32.1116C111.951 32.2049 111.975 32.3202 111.987 32.4142C111.999 32.5081 111.999 32.5773 111.999 32.6486" stroke="#BCB39B" stroke-width="2" stroke-linecap="round"/>
<path d="M110.162 32.3672C110.068 32.4133 109.975 32.4594 109.6 32.829C109.225 33.1986 108.571 33.8903 107.969 34.6029" stroke="#BCB39B" stroke-width="2" stroke-linecap="round"/>
<path d="M61.7539 34.9295C62.0558 34.6313 62.3924 34.4777 62.6971 34.5076C63.0941 34.8672 63.4307 35.3804 63.4765 35.8886C63.492 36.3074 63.492 37.0528 63.492 37.8208" stroke="#BCB39B" stroke-width="2" stroke-linecap="round"/>
<path d="M63.8574 35.5586C63.8876 35.6182 63.9178 35.6779 63.9635 35.962C64.0093 36.2462 64.0697 36.7531 64.2233 37.2753" stroke="#BCB39B" stroke-width="2" stroke-linecap="round"/>
<path d="M59.9232 40.7109C58.7459 42.2612 57.5685 43.8114 56.8715 45.087C56.1744 46.3626 55.9933 47.3166 55.8999 48.1211C55.8066 48.9256 55.8066 49.5516 55.8066 50.1967" stroke="#BCB39B" stroke-width="2" stroke-linecap="round"/>
<path d="M53.4458 72.1563C53.1527 72.1425 52.8596 72.1287 52.3527 72.1423C51.8458 72.1559 51.1339 72.1972 50.4881 72.2944C49.8422 72.3915 49.2839 72.5431 48.766 72.7178C48.2481 72.8924 47.7875 73.0854 47.4455 73.2606C46.8748 73.5531 46.6227 73.8127 46.4613 74.055C46.1737 74.4868 46.0441 74.9949 46.051 75.3496C46.0556 75.5811 46.1562 75.8033 46.3596 76.1225C46.6384 76.5599 47.0296 76.8757 47.4225 77.1671C47.6662 77.3478 48.0387 77.5412 48.442 77.7442C49.2681 78.16 49.8494 78.3666 50.0607 78.4153C50.1467 78.4351 50.1882 78.4502 50.5169 78.4573C50.8455 78.4644 51.4596 78.4644 51.9226 78.4299C52.3855 78.3955 52.6786 78.3265 53.0229 78.2137" stroke="#BCB39B" stroke-width="2" stroke-linecap="round"/>
<path d="M110.438 67.9406C110.474 67.9406 110.962 67.8872 111.826 67.8061C112.525 67.7406 112.989 67.7608 113.316 67.7337C113.714 67.7009 114.046 67.7424 114.346 67.8407C114.834 68.0009 115.249 68.3355 115.568 68.5691C115.857 68.7818 116.143 68.9837 116.47 69.2708C116.914 69.6612 117.364 69.9917 117.601 70.2704C117.903 70.625 118.113 71.1611 118.359 71.6659C118.48 71.9158 118.551 72.1529 118.578 72.3773C118.608 72.618 118.533 72.8373 118.388 73.0526C118.187 73.3505 117.463 73.8074 116.507 74.2933C116.132 74.4838 115.965 74.5297 115.539 74.6196C115.112 74.7095 114.426 74.8343 113.829 74.8986C112.749 75.0149 112.116 74.945 111.871 74.9002C111.477 74.783 111.313 74.6933 111.204 74.5945C111.149 74.5491 111.095 74.5134 110.984 74.4227" stroke="#BCB39B" stroke-width="2" stroke-linecap="round"/>
<path d="M110.766 74.3147L110.492 74.207" stroke="#BCB39B" stroke-width="2" stroke-linecap="round"/>
<path d="M67.4039 93.7266C66.1662 95.5399 65.8275 95.7081 65.4508 95.8875C64.647 96.2703 63.6916 96.5939 63.3255 96.7524C63.0383 96.8768 62.695 97.1203 61.9552 97.6682C61.446 98.0454 61.1171 98.764 61.0053 99.9121C60.948 100.501 61.356 101 62.2761 101.895C62.7284 102.335 63.3215 102.604 64.011 102.909C64.8847 103.295 65.6774 103.448 66.5465 103.522C67.1733 103.575 68.1848 103.575 68.9213 103.554C69.6578 103.534 70.0906 103.471 70.7582 103.22C71.4259 102.968 72.3153 102.53 72.9418 102.147C73.5683 101.765 73.9049 101.452 74.2345 101.061C74.9262 100.24 75.2948 99.5283 75.4526 99.1285C75.7025 98.4949 75.7086 97.8846 75.8295 97.0197C75.8543 96.7027 75.9024 96.3649 75.9752 95.8189C76 95.4816 76 95.0223 76 94.5491" stroke="#BCB39B" stroke-width="2" stroke-linecap="round"/>
<path d="M66.2539 67.3086C66.2539 67.3528 66.8354 67.8615 67.8059 68.6089C68.3078 68.9954 69.2068 68.9151 70.3461 68.7936C70.8367 68.6722 71.1499 68.4292 71.4453 68.1714C71.7408 67.9137 72.0092 67.6486 72.2857 67.3755" stroke="#BCB39B" stroke-width="2" stroke-linecap="round"/>
<path d="M86.3828 67.6445C87.4563 68.5723 88.1883 69.1386 88.7501 69.2725C89.1251 69.3618 89.7146 69.318 90.2378 69.2076C91.2083 68.8762 91.7586 68.5824 91.9389 68.4157C92.0297 68.3153 92.1192 68.1827 92.2113 68.0462" stroke="#BCB39B" stroke-width="2" stroke-linecap="round"/>
<path d="M1 49.0328C1 48.8703 1 48.7077 2.76919 47.6488C4.53838 46.5899 8.07676 44.6396 11.2985 43.3098C14.5202 41.9801 17.3179 41.33 18.8827 40.9951C20.4474 40.6602 20.6942 40.6602 20.9486 40.6602" stroke="#BCB39B" stroke-width="1.5" stroke-linecap="round"/>
<path d="M26.4095 39.6924C27.662 39.5685 28.9145 39.4447 29.7235 39.3968C30.5325 39.3488 30.8601 39.3805 31.1976 39.4132" stroke="#BCB39B" stroke-width="1.5" stroke-linecap="round"/>
<path d="M35.4883 39.2461L42.4703 40.4775" stroke="#BCB39B" stroke-width="1.5" stroke-linecap="round"/>
<path d="M146.07 50.0201C146.153 50.0201 146.235 50.0201 147.059 49.8982C147.883 49.7763 149.447 49.5325 151.057 49.2812" stroke="#BCB39B" stroke-width="1.5" stroke-linecap="round"/>
<path d="M8.8125 38.4869C10.376 37.9993 11.9394 37.5116 14.2261 36.9759C16.5127 36.4403 19.475 35.8713 22.4823 35.5782C25.4895 35.2852 28.4519 35.2852 31.504 35.2852" stroke="#BCB39B" stroke-width="1.5" stroke-linecap="round"/>
<path d="M34.4102 34.9883C35.9736 35.0696 37.5371 35.1508 38.4248 35.274C39.3125 35.3971 39.4771 35.5597 40.1453 35.7271" stroke="#BCB39B" stroke-width="1.5" stroke-linecap="round"/>
<path d="M122.547 51.0469L131.773 53.2635" stroke="#BCB39B" stroke-width="1.5" stroke-linecap="round"/>
<path d="M136.117 53.7904C136.877 53.9117 137.637 54.0331 139.072 54.1423C140.507 54.2516 142.594 54.3452 144.423 54.3254C146.252 54.3055 147.76 54.1695 148.656 54.0757C149.792 53.9567 150.537 53.8498 151.984 53.6083C152.938 53.4492 154.3 53.0278 155.278 52.7159C157.596 51.7582 158.269 51.3758 158.591 51.1703C158.698 51.1015 158.849 51.021 159.009 50.8501" stroke="#BCB39B" stroke-width="1.5" stroke-linecap="round"/>
<path d="M154.074 47.6698C154.31 47.6698 154.545 47.6698 155.534 47.2921C156.523 46.9144 158.259 46.159 159.565 45.5374C160.871 44.9159 161.695 44.451 162.222 44.168C162.946 43.7796 163.991 43.185 165.342 42.2909C166.376 41.4488 166.614 41.2437 166.747 41.0826C166.822 41.0086 166.91 40.9505 167.001 40.8906" stroke="#BCB39B" stroke-width="1.5" stroke-linecap="round"/>
<path d="M119.443 45.3242C120.681 45.8616 121.919 46.399 123.55 46.9513C125.18 47.5036 127.166 48.0544 129.774 48.5666C132.382 49.0787 135.551 49.5355 137.884 49.7775C140.218 50.0196 141.619 50.033 143.062 50.0469" stroke="#BCB39B" stroke-width="1.5" stroke-linecap="round"/>
<path d="M83.3118 95.3047C83.1654 96.2815 83.0678 96.866 83.0064 97.0376C82.87 97.4192 82.7034 97.6426 82.3686 98.0044C82.0905 98.3049 81.5603 98.8227 81.2646 99.111C80.924 99.443 80.8102 99.533 80.7155 99.6513C80.6199 99.7707 80.4701 100.02 80.2641 100.337C80.1744 100.476 80.1533 100.582 80.1122 100.804C80.0712 101.026 80.0206 101.365 80.0198 101.725C80.0191 102.085 80.0696 102.455 80.2059 102.804C80.3422 103.152 80.5627 103.466 80.8516 103.745C81.1405 104.024 81.4912 104.258 81.9305 104.458C82.3698 104.658 82.8871 104.817 83.259 104.92C83.6309 105.023 83.8417 105.067 84.167 105.098C84.4924 105.128 84.926 105.145 85.5686 105.085C86.2112 105.025 87.0497 104.888 87.5666 104.789C88.0835 104.69 88.2534 104.633 88.5979 104.46C88.9423 104.287 89.4562 103.999 90.0201 103.602C90.584 103.206 91.1824 102.709 91.5821 102.322C91.9819 101.935 92.1649 101.671 92.3871 101.301C92.6093 100.931 92.8652 100.461 93.0625 100.004C93.2598 99.5476 93.3907 99.1178 93.4835 98.727C93.5763 98.3362 93.6268 97.9974 93.5755 97.0091C93.5242 96.0208 93.6253 96.1665 93.4658 94.4896" stroke="#BCB39B" stroke-width="2" stroke-linecap="round"/>
</svg>
