<svg width="64" height="64" viewBox="0 0 64 64" fill="none" xmlns="http://www.w3.org/2000/svg">
<path d="M42.107 20.0008C42.107 14.4193 37.5823 9.89453 32.0008 9.89453C26.4193 9.89453 21.8945 14.4193 21.8945 20.0008C21.8945 25.5823 26.4193 30.107 32.0008 30.107C37.5823 30.107 42.107 25.5823 42.107 20.0008Z" stroke="#736A64" stroke-width="1.5" stroke-miterlimit="10"/>
<path d="M35.7178 17.5693L30.8565 22.4307L28.4258 20" stroke="#736A64" stroke-width="1.5" stroke-linecap="round" stroke-linejoin="round"/>
<path d="M7.00963 39.458C7.14029 39.458 7.25696 39.4907 7.35963 39.556C7.46229 39.6213 7.51363 39.7287 7.51363 39.878V42.79C7.51363 42.8927 7.53229 42.9627 7.56963 43C7.61629 43.028 7.68629 43.042 7.77963 43.042H14.6676C14.789 43.042 14.8776 43.0887 14.9336 43.182C14.9896 43.266 15.0176 43.364 15.0176 43.476C15.0176 43.5973 14.9896 43.7047 14.9336 43.798C14.8776 43.882 14.789 43.924 14.6676 43.924H7.45763C7.09363 43.924 6.84163 43.8587 6.70163 43.728C6.56163 43.588 6.49163 43.3407 6.49163 42.986V39.878C6.49163 39.7287 6.54296 39.6213 6.64563 39.556C6.74829 39.4907 6.86963 39.458 7.00963 39.458ZM11.1396 45.646H16.1236C16.245 45.646 16.3336 45.688 16.3896 45.772C16.4456 45.856 16.4736 45.9587 16.4736 46.08C16.4736 46.2013 16.4456 46.304 16.3896 46.388C16.3336 46.472 16.245 46.514 16.1236 46.514H5.14763C5.02629 46.514 4.93763 46.472 4.88163 46.388C4.82563 46.304 4.79763 46.2013 4.79763 46.08C4.79763 45.9587 4.82563 45.856 4.88163 45.772C4.93763 45.688 5.02629 45.646 5.14763 45.646H10.1316V43.616H11.1396V45.646ZM13.8416 47.9C14.2056 47.9 14.4576 47.97 14.5976 48.11C14.7376 48.2407 14.8076 48.4833 14.8076 48.838V51.708C14.8076 51.8573 14.7563 51.9647 14.6536 52.03C14.551 52.0953 14.4343 52.128 14.3036 52.128C14.173 52.128 14.0563 52.0953 13.9536 52.03C13.851 51.9647 13.7996 51.8573 13.7996 51.708V49.02C13.7996 48.9173 13.7763 48.852 13.7296 48.824C13.6923 48.7867 13.627 48.768 13.5336 48.768H6.63163C6.51963 48.768 6.43563 48.726 6.37963 48.642C6.32363 48.558 6.29563 48.4553 6.29563 48.334C6.29563 48.2127 6.32363 48.11 6.37963 48.026C6.43563 47.942 6.51963 47.9 6.63163 47.9H13.8416ZM23.3778 39.458C24.7125 39.458 25.7345 39.6493 26.4438 40.032C27.1625 40.4053 27.5218 40.9887 27.5218 41.782C27.5218 42.5753 27.1625 43.1633 26.4438 43.546C25.7345 43.9193 24.7125 44.106 23.3778 44.106C22.0431 44.106 21.0165 43.9193 20.2978 43.546C19.5885 43.1633 19.2338 42.5753 19.2338 41.782C19.2338 40.9887 19.5885 40.4053 20.2978 40.032C21.0165 39.6493 22.0431 39.458 23.3778 39.458ZM23.3778 40.298C22.3045 40.298 21.5158 40.424 21.0118 40.676C20.5078 40.928 20.2558 41.2967 20.2558 41.782C20.2558 42.2673 20.5078 42.636 21.0118 42.888C21.5158 43.14 22.3045 43.266 23.3778 43.266C24.4511 43.266 25.2398 43.14 25.7438 42.888C26.2478 42.636 26.4998 42.2673 26.4998 41.782C26.4998 41.2967 26.2478 40.928 25.7438 40.676C25.2398 40.424 24.4511 40.298 23.3778 40.298ZM28.8658 45.324C28.9871 45.324 29.0758 45.366 29.1318 45.45C29.1878 45.534 29.2158 45.6367 29.2158 45.758C29.2158 45.8887 29.1878 45.996 29.1318 46.08C29.0758 46.164 28.9871 46.206 28.8658 46.206H17.8898C17.7685 46.206 17.6798 46.164 17.6238 46.08C17.5678 45.996 17.5398 45.8887 17.5398 45.758C17.5398 45.6367 17.5678 45.534 17.6238 45.45C17.6798 45.366 17.7685 45.324 17.8898 45.324H28.8658ZM26.5838 47.62C26.9478 47.62 27.1998 47.69 27.3398 47.83C27.4798 47.9607 27.5498 48.2033 27.5498 48.558V50.98C27.5498 51.3347 27.4798 51.5773 27.3398 51.708C27.1998 51.848 26.9478 51.918 26.5838 51.918H20.1718C19.8078 51.918 19.5558 51.848 19.4158 51.708C19.2758 51.5773 19.2058 51.3347 19.2058 50.98V48.558C19.2058 48.2033 19.2758 47.9607 19.4158 47.83C19.5558 47.69 19.8078 47.62 20.1718 47.62H26.5838ZM20.4798 48.474C20.3025 48.474 20.2138 48.558 20.2138 48.726V50.812C20.2138 50.98 20.3025 51.064 20.4798 51.064H26.2758C26.4531 51.064 26.5418 50.98 26.5418 50.812V48.726C26.5418 48.558 26.4531 48.474 26.2758 48.474H20.4798ZM37.772 39.612C38.304 39.612 38.766 39.6727 39.158 39.794C39.5593 39.9153 39.8907 40.088 40.152 40.312C40.4133 40.5267 40.6093 40.7833 40.74 41.082C40.8707 41.3807 40.936 41.7027 40.936 42.048C40.936 42.4027 40.8707 42.7293 40.74 43.028C40.6093 43.3267 40.4133 43.588 40.152 43.812C39.8907 44.0267 39.5593 44.1947 39.158 44.316C38.766 44.4373 38.304 44.498 37.772 44.498C37.24 44.498 36.7733 44.4373 36.372 44.316C35.98 44.1947 35.6533 44.0267 35.392 43.812C35.1307 43.588 34.9347 43.3267 34.804 43.028C34.6733 42.7293 34.608 42.4027 34.608 42.048C34.608 41.7027 34.6733 41.3807 34.804 41.082C34.9347 40.7833 35.1307 40.5267 35.392 40.312C35.6533 40.088 35.98 39.9153 36.372 39.794C36.7733 39.6727 37.24 39.612 37.772 39.612ZM37.772 40.466C37.016 40.466 36.4607 40.62 36.106 40.928C35.7607 41.2267 35.588 41.6 35.588 42.048C35.588 42.496 35.7607 42.874 36.106 43.182C36.4607 43.49 37.016 43.644 37.772 43.644C38.528 43.644 39.0787 43.49 39.424 43.182C39.7787 42.874 39.956 42.496 39.956 42.048C39.956 41.6 39.7787 41.2267 39.424 40.928C39.0787 40.62 38.528 40.466 37.772 40.466ZM43.302 39.164C43.4327 39.164 43.5493 39.1967 43.652 39.262C43.7547 39.3273 43.806 39.4347 43.806 39.584V43.238H45.402C45.5327 43.238 45.626 43.2847 45.682 43.378C45.738 43.462 45.766 43.5647 45.766 43.686C45.766 43.8167 45.738 43.9287 45.682 44.022C45.626 44.106 45.5327 44.148 45.402 44.148H43.806V48.418C43.806 48.558 43.7547 48.6607 43.652 48.726C43.5493 48.7913 43.4327 48.824 43.302 48.824C43.1713 48.824 43.0547 48.7913 42.952 48.726C42.8493 48.6607 42.798 48.558 42.798 48.418V39.584C42.798 39.4347 42.8493 39.3273 42.952 39.262C43.0547 39.1967 43.1713 39.164 43.302 39.164ZM41.51 45.87C41.6127 45.8513 41.6967 45.8793 41.762 45.954C41.8367 46.0287 41.8787 46.1267 41.888 46.248C41.8973 46.3693 41.874 46.4767 41.818 46.57C41.7713 46.654 41.692 46.7053 41.58 46.724C40.3387 46.8267 39.1113 46.9013 37.898 46.948C36.6847 46.9853 35.4293 47.004 34.132 47.004C34.0013 47.004 33.908 46.962 33.852 46.878C33.796 46.7847 33.768 46.6773 33.768 46.556C33.768 46.444 33.796 46.346 33.852 46.262C33.908 46.1687 34.0013 46.122 34.132 46.122C34.6547 46.122 35.1727 46.122 35.686 46.122C36.2087 46.122 36.7407 46.1173 37.282 46.108V43.84H38.29V46.066C38.8127 46.0473 39.34 46.024 39.872 45.996C40.404 45.9587 40.95 45.9167 41.51 45.87ZM36.232 47.984C36.3627 47.984 36.4793 48.0167 36.582 48.082C36.694 48.1473 36.75 48.2547 36.75 48.404V50.658C36.75 50.8353 36.8387 50.924 37.016 50.924H43.82C43.9413 50.924 44.03 50.966 44.086 51.05C44.142 51.134 44.17 51.2367 44.17 51.358C44.17 51.4793 44.142 51.582 44.086 51.666C44.03 51.75 43.9413 51.792 43.82 51.792H36.68C36.316 51.792 36.064 51.722 35.924 51.582C35.784 51.4513 35.714 51.2087 35.714 50.854V48.404C35.714 48.2547 35.7653 48.1473 35.868 48.082C35.98 48.0167 36.1013 47.984 36.232 47.984ZM55.5122 39.92C55.8762 39.92 56.1282 39.99 56.2682 40.13C56.4082 40.2607 56.4782 40.5033 56.4782 40.858V42.65C56.4782 43.0047 56.4082 43.252 56.2682 43.392C56.1282 43.5227 55.8762 43.588 55.5122 43.588H49.5062C49.3289 43.588 49.2402 43.6767 49.2402 43.854V45.296C49.2402 45.464 49.3289 45.548 49.5062 45.548H56.4642C56.5855 45.548 56.6742 45.59 56.7302 45.674C56.7862 45.758 56.8142 45.8607 56.8142 45.982C56.8142 46.1033 56.7862 46.2107 56.7302 46.304C56.6742 46.388 56.5855 46.43 56.4642 46.43H49.1982C48.8342 46.43 48.5822 46.3647 48.4422 46.234C48.3022 46.094 48.2322 45.8467 48.2322 45.492V43.686C48.2322 43.3313 48.3022 43.0887 48.4422 42.958C48.5822 42.818 48.8342 42.748 49.1982 42.748H55.2182C55.3955 42.748 55.4842 42.6593 55.4842 42.482V41.054C55.4842 40.8767 55.3955 40.788 55.2182 40.788H48.5542C48.4329 40.788 48.3442 40.746 48.2882 40.662C48.2322 40.578 48.2042 40.4753 48.2042 40.354C48.2042 40.2327 48.2322 40.13 48.2882 40.046C48.3442 39.962 48.4329 39.92 48.5542 39.92H55.5122ZM51.0042 48.978H53.7762V45.968H54.7422V48.978H57.8502C57.9715 48.978 58.0602 49.02 58.1162 49.104C58.1722 49.188 58.2002 49.2907 58.2002 49.412C58.2002 49.5333 58.1722 49.636 58.1162 49.72C58.0602 49.804 57.9715 49.846 57.8502 49.846H46.8742C46.7529 49.846 46.6642 49.804 46.6082 49.72C46.5522 49.636 46.5242 49.5333 46.5242 49.412C46.5242 49.2907 46.5522 49.188 46.6082 49.104C46.6642 49.02 46.7529 48.978 46.8742 48.978H50.0382V45.968H51.0042V48.978Z" fill="#736A64"/>
</svg>
