<svg width="64" height="64" viewBox="0 0 64 64" fill="none" xmlns="http://www.w3.org/2000/svg">
<circle cx="32" cy="32" r="32" fill="#C5E384"/>
<path d="M28.6667 38.5846V25.418C28.6667 24.168 28.1699 23.668 26.915 23.668H23.7516C22.4967 23.668 22 24.168 22 25.418V38.5846C22 39.8346 22.4967 40.3346 23.7516 40.3346H26.915C28.1699 40.3346 28.6667 39.8346 28.6667 38.5846Z" fill="white" stroke="white" stroke-width="2.5" stroke-linecap="round" stroke-linejoin="round"/>
<path d="M42.0007 38.5846V25.418C42.0007 24.168 41.5039 23.668 40.249 23.668H37.0856C35.8394 23.668 35.334 24.168 35.334 25.418V38.5846C35.334 39.8346 35.8307 40.3346 37.0856 40.3346H40.249C41.5039 40.3346 42.0007 39.8346 42.0007 38.5846Z" fill="white" stroke="white" stroke-width="2.5" stroke-linecap="round" stroke-linejoin="round"/>
</svg>
