<svg width="64" height="64" viewBox="0 0 64 64" fill="none" xmlns="http://www.w3.org/2000/svg">
<path d="M29.1101 13.0784C29.9801 12.8184 30.9401 12.6484 32.0001 12.6484C36.7901 12.6484 40.6701 16.5284 40.6701 21.3184C40.6701 26.1084 36.7901 29.9884 32.0001 29.9884C27.2101 29.9884 23.3301 26.1084 23.3301 21.3184C23.3301 19.5384 23.8701 17.8784 24.7901 16.4984" stroke="#BBBBBB" stroke-width="1.5" stroke-linecap="round" stroke-linejoin="round"/>
<path d="M27.8691 13.32L30.7591 10" stroke="#BBBBBB" stroke-width="1.5" stroke-linecap="round" stroke-linejoin="round"/>
<path d="M27.8691 13.3203L31.2391 15.7803" stroke="#BBBBBB" stroke-width="1.5" stroke-linecap="round" stroke-linejoin="round"/>
<path d="M10.5796 40.164C10.7103 40.164 10.827 40.1967 10.9296 40.262C11.0416 40.3273 11.0976 40.4347 11.0976 40.584V41.928H13.7436C13.865 41.928 13.9536 41.97 14.0096 42.054C14.0656 42.138 14.0936 42.2453 14.0936 42.376C14.0936 42.4973 14.0656 42.6047 14.0096 42.698C13.9536 42.782 13.865 42.824 13.7436 42.824H11.0976V43.958C11.0976 44.266 11.1116 44.5413 11.1396 44.784C11.177 45.0173 11.233 45.2367 11.3076 45.442C11.3916 45.638 11.5036 45.834 11.6436 46.03C11.793 46.226 11.9796 46.436 12.2036 46.66C12.5303 46.9867 12.8383 47.2947 13.1276 47.584C13.4263 47.864 13.697 48.1067 13.9396 48.312C14.0516 48.4053 14.0983 48.5173 14.0796 48.648C14.061 48.7693 14.0143 48.872 13.9396 48.956C13.8556 49.0493 13.753 49.1053 13.6316 49.124C13.5196 49.1333 13.4123 49.096 13.3096 49.012C13.095 48.8253 12.8523 48.6013 12.5816 48.34C12.3203 48.0787 12.031 47.794 11.7136 47.486C11.4896 47.262 11.3076 47.0753 11.1676 46.926C11.037 46.7673 10.9296 46.632 10.8456 46.52C10.771 46.3987 10.715 46.296 10.6776 46.212C10.6403 46.1187 10.6123 46.0347 10.5936 45.96H10.5796C10.561 46.044 10.533 46.1327 10.4956 46.226C10.4583 46.31 10.3976 46.4127 10.3136 46.534C10.239 46.646 10.1316 46.7813 9.99163 46.94C9.86096 47.0987 9.68363 47.2853 9.45963 47.5C9.14229 47.808 8.84363 48.0973 8.56363 48.368C8.28363 48.6293 7.98963 48.8953 7.68163 49.166C7.56963 49.2687 7.45296 49.306 7.33163 49.278C7.21029 49.25 7.10763 49.1893 7.02363 49.096C6.94896 49.0027 6.90696 48.9 6.89763 48.788C6.88829 48.6667 6.93496 48.5593 7.03763 48.466C7.38296 48.1767 7.70496 47.8873 8.00363 47.598C8.31163 47.2993 8.62896 46.9867 8.95563 46.66C9.17963 46.436 9.36163 46.226 9.50163 46.03C9.65096 45.834 9.76296 45.638 9.83763 45.442C9.92163 45.2367 9.97763 45.0173 10.0056 44.784C10.043 44.5413 10.0616 44.266 10.0616 43.958V42.824H7.35963C7.23829 42.824 7.14963 42.782 7.09363 42.698C7.03763 42.6047 7.00963 42.4973 7.00963 42.376C7.00963 42.2453 7.03763 42.138 7.09363 42.054C7.14963 41.97 7.23829 41.928 7.35963 41.928H10.0616V40.584C10.0616 40.4347 10.113 40.3273 10.2156 40.262C10.3276 40.1967 10.449 40.164 10.5796 40.164ZM16.5156 40.164C16.6463 40.164 16.763 40.1967 16.8656 40.262C16.9683 40.3273 17.0196 40.4347 17.0196 40.584V51.728C17.0196 51.8773 16.9683 51.9847 16.8656 52.05C16.763 52.1153 16.6463 52.148 16.5156 52.148C16.385 52.148 16.2683 52.1153 16.1656 52.05C16.063 51.9847 16.0116 51.8773 16.0116 51.728V45.554H13.5756C13.445 45.554 13.3516 45.512 13.2956 45.428C13.2396 45.344 13.2116 45.2367 13.2116 45.106C13.2116 44.9847 13.2396 44.882 13.2956 44.798C13.3516 44.714 13.445 44.672 13.5756 44.672H16.0116V40.584C16.0116 40.4347 16.063 40.3273 16.1656 40.262C16.2683 40.1967 16.385 40.164 16.5156 40.164ZM25.1278 40.458C26.4625 40.458 27.4845 40.6493 28.1938 41.032C28.9125 41.4053 29.2718 41.9887 29.2718 42.782C29.2718 43.5753 28.9125 44.1633 28.1938 44.546C27.4845 44.9193 26.4625 45.106 25.1278 45.106C23.7931 45.106 22.7665 44.9193 22.0478 44.546C21.3385 44.1633 20.9838 43.5753 20.9838 42.782C20.9838 41.9887 21.3385 41.4053 22.0478 41.032C22.7665 40.6493 23.7931 40.458 25.1278 40.458ZM25.1278 41.298C24.0545 41.298 23.2658 41.424 22.7618 41.676C22.2578 41.928 22.0058 42.2967 22.0058 42.782C22.0058 43.2673 22.2578 43.636 22.7618 43.888C23.2658 44.14 24.0545 44.266 25.1278 44.266C26.2011 44.266 26.9898 44.14 27.4938 43.888C27.9978 43.636 28.2498 43.2673 28.2498 42.782C28.2498 42.2967 27.9978 41.928 27.4938 41.676C26.9898 41.424 26.2011 41.298 25.1278 41.298ZM30.6158 46.324C30.7371 46.324 30.8258 46.366 30.8818 46.45C30.9378 46.534 30.9658 46.6367 30.9658 46.758C30.9658 46.8887 30.9378 46.996 30.8818 47.08C30.8258 47.164 30.7371 47.206 30.6158 47.206H19.6398C19.5185 47.206 19.4298 47.164 19.3738 47.08C19.3178 46.996 19.2898 46.8887 19.2898 46.758C19.2898 46.6367 19.3178 46.534 19.3738 46.45C19.4298 46.366 19.5185 46.324 19.6398 46.324H30.6158ZM28.3338 48.62C28.6978 48.62 28.9498 48.69 29.0898 48.83C29.2298 48.9607 29.2998 49.2033 29.2998 49.558V51.98C29.2998 52.3347 29.2298 52.5773 29.0898 52.708C28.9498 52.848 28.6978 52.918 28.3338 52.918H21.9218C21.5578 52.918 21.3058 52.848 21.1658 52.708C21.0258 52.5773 20.9558 52.3347 20.9558 51.98V49.558C20.9558 49.2033 21.0258 48.9607 21.1658 48.83C21.3058 48.69 21.5578 48.62 21.9218 48.62H28.3338ZM22.2298 49.474C22.0525 49.474 21.9638 49.558 21.9638 49.726V51.812C21.9638 51.98 22.0525 52.064 22.2298 52.064H28.0258C28.2031 52.064 28.2918 51.98 28.2918 51.812V49.726C28.2918 49.558 28.2031 49.474 28.0258 49.474H22.2298ZM34.202 40.57C34.3327 40.57 34.4493 40.6027 34.552 40.668C34.6547 40.7333 34.706 40.836 34.706 40.976V42.502H41.034V40.976C41.034 40.836 41.0807 40.7333 41.174 40.668C41.2767 40.6027 41.3933 40.57 41.524 40.57C41.6547 40.57 41.7713 40.6027 41.874 40.668C41.9767 40.7333 42.028 40.836 42.028 40.976V45.106C42.028 45.4607 41.958 45.708 41.818 45.848C41.678 45.9787 41.426 46.044 41.062 46.044H34.678C34.314 46.044 34.062 45.9787 33.922 45.848C33.782 45.708 33.712 45.4607 33.712 45.106V40.976C33.712 40.836 33.7587 40.7333 33.852 40.668C33.9547 40.6027 34.0713 40.57 34.202 40.57ZM34.706 44.952C34.706 45.092 34.7853 45.162 34.944 45.162H40.796C40.9547 45.162 41.034 45.092 41.034 44.952V43.37H34.706V44.952ZM43.344 47.724C43.4747 47.724 43.568 47.766 43.624 47.85C43.68 47.934 43.708 48.0413 43.708 48.172C43.708 48.2933 43.68 48.396 43.624 48.48C43.568 48.564 43.4747 48.606 43.344 48.606H38.388V52.708C38.388 52.8573 38.332 52.9647 38.22 53.03C38.1173 53.0953 38.0007 53.128 37.87 53.128C37.7393 53.128 37.6227 53.0953 37.52 53.03C37.4173 52.9647 37.366 52.8573 37.366 52.708V48.606H32.396C32.2653 48.606 32.172 48.564 32.116 48.48C32.06 48.396 32.032 48.2933 32.032 48.172C32.032 48.0413 32.06 47.934 32.116 47.85C32.172 47.766 32.2653 47.724 32.396 47.724H43.344ZM51.1162 41.06C51.2469 41.06 51.3402 41.102 51.3962 41.186C51.4522 41.27 51.4802 41.3727 51.4802 41.494C51.4802 41.6247 51.4522 41.732 51.3962 41.816C51.3402 41.9 51.2469 41.942 51.1162 41.942H46.8322C46.6549 41.942 46.5662 42.026 46.5662 42.194V44.574H50.5562C50.6775 44.574 50.7662 44.616 50.8222 44.7C50.8782 44.784 50.9062 44.8867 50.9062 45.008C50.9062 45.1293 50.8782 45.232 50.8222 45.316C50.7662 45.4 50.6775 45.442 50.5562 45.442H46.5662V47.892C46.5662 48.06 46.6549 48.144 46.8322 48.144C47.8682 48.144 48.8202 48.1207 49.6882 48.074C50.5562 48.018 51.4055 47.9293 52.2362 47.808C52.3482 47.7893 52.4415 47.8173 52.5162 47.892C52.5909 47.9573 52.6375 48.0553 52.6562 48.186C52.6749 48.3167 52.6562 48.4333 52.6002 48.536C52.5535 48.6293 52.4742 48.6853 52.3622 48.704C51.9982 48.7507 51.6109 48.7973 51.2002 48.844C50.7989 48.8813 50.3602 48.914 49.8842 48.942C49.4175 48.97 48.9042 48.9933 48.3442 49.012C47.7935 49.0213 47.1869 49.026 46.5242 49.026C46.1602 49.026 45.9082 48.9607 45.7682 48.83C45.6282 48.69 45.5582 48.4427 45.5582 48.088V41.998C45.5582 41.6433 45.6282 41.4007 45.7682 41.27C45.9082 41.13 46.1602 41.06 46.5242 41.06H51.1162ZM54.7422 40.164C54.8729 40.164 54.9895 40.1967 55.0922 40.262C55.1949 40.3273 55.2462 40.4347 55.2462 40.584V51.728C55.2462 51.8773 55.1949 51.9847 55.0922 52.05C54.9895 52.1153 54.8729 52.148 54.7422 52.148C54.6115 52.148 54.4949 52.1153 54.3922 52.05C54.2895 51.9847 54.2382 51.8773 54.2382 51.728V45.33H52.0822C51.9515 45.33 51.8582 45.288 51.8022 45.204C51.7462 45.1107 51.7182 44.9987 51.7182 44.868C51.7182 44.7467 51.7462 44.644 51.8022 44.56C51.8582 44.476 51.9515 44.434 52.0822 44.434H54.2382V40.584C54.2382 40.4347 54.2895 40.3273 54.3922 40.262C54.4949 40.1967 54.6115 40.164 54.7422 40.164Z" fill="#BBBBBB"/>
</svg>
