<svg width="73" height="71" viewBox="0 0 73 71" fill="none" xmlns="http://www.w3.org/2000/svg">
<path d="M3.13086 30.9414L25.3653 19.8728L39.7511 48.7706L18.8245 59.1882L3.13086 30.9414Z" fill="#FFEDB3"/>
<path d="M4.4375 23.7422L29.4063 21.4447L47.5966 57.985L23.1331 61.2975L4.4375 23.7422Z" fill="#FBFBDF"/>
<path d="M48.9512 1.69141L29.4511 21.5312L47.6414 58.0715L67.6467 39.2467L48.9512 1.69141Z" fill="#FFF1C4"/>
<path d="M29.293 21.1992C29.832 22.0781 30.371 22.9569 30.8013 23.6396C31.2315 24.3223 31.5366 24.7823 32.3549 26.3471C33.1732 27.912 34.4953 30.5679 35.3646 32.2121C36.2338 33.8563 36.6101 34.4082 37.938 36.9705C39.2658 39.5328 41.5338 44.0887 42.7327 46.4715C43.9316 48.8542 43.9926 48.9258 44.0494 49.0138C44.1063 49.1018 44.1572 49.2039 44.2096 49.3092" stroke="#AE602C" stroke-width="2.5" stroke-linecap="round"/>
<path d="M29.5686 20.09C30.1241 19.3957 30.577 18.8855 30.9475 18.4736C31.4561 17.9084 32.3113 16.62 33.5091 15.1629C34.2962 14.2053 34.8836 13.6832 35.2822 13.1514C35.707 12.5846 36.6605 11.7795 37.7884 10.7444C38.605 9.99492 39.6053 8.9073 40.9156 7.74597C41.4601 7.26343 41.7121 6.94489 42.3689 6.37161C43.0256 5.79833 44.0673 4.96647 44.8261 4.39249C46.0079 3.49854 46.7928 3.07585 47.4224 2.72761C48.5621 1.98407 48.9413 1.76049 49.1302 1.61367C49.222 1.55006 49.3053 1.50858 49.4333 1.33939" stroke="#AE602C" stroke-width="2.5" stroke-linecap="round"/>
<path d="M49.5977 1.25C50.4448 2.60359 51.2919 3.95718 53.3254 8.00185C55.3588 12.0465 58.5529 18.7412 60.3233 22.3715C62.0938 26.0017 62.3437 26.3646 62.5142 26.6352C62.9869 27.3858 63.3571 28.0458 63.771 28.7021C63.9741 29.0741 64.1714 29.4009 64.5479 30.0516C64.8271 30.5767 65.2854 31.4972 65.7575 32.4457" stroke="#AE602C" stroke-width="2.5" stroke-linecap="round"/>
<path d="M44.7601 49.1265C45.5101 48.405 46.2601 47.6836 47.2367 46.7569C48.2133 45.8303 49.3938 44.7204 50.1686 44.0309C51.247 43.0712 51.9952 42.5023 53.5147 41.221C54.6376 40.2742 56.562 38.8311 58.4171 37.5689C60.2723 36.3067 62.0222 35.2963 62.9654 34.7203C63.9919 34.0331 64.2722 33.8218 64.6085 33.6196C64.7503 33.5142 64.8336 33.4031 65.0878 33.2048" stroke="#AE602C" stroke-width="2.5" stroke-linecap="round"/>
<path d="M4.66602 23.6133C6.58263 23.0073 7.77831 22.6262 8.61478 22.3844C9.24065 22.2035 10.2846 21.9367 11.3837 21.7065C13.5966 21.2432 15.0029 21.1038 15.5203 21.0567C16.1252 21.0016 16.728 20.9128 17.7114 20.8605C19.5466 20.763 20.951 20.604 21.9825 20.58C24.0735 20.5313 25.6369 20.3812 26.0778 20.4249C26.8305 20.4559 27.2505 20.4578 27.7137 20.5431C27.8267 20.5581 27.9239 20.5445 28.1503 20.5732" stroke="#AE602C" stroke-width="2.5" stroke-linecap="round"/>
<path d="M4.79297 24.9141C5.23821 25.7388 6.16573 27.3214 6.55879 27.9696C6.67449 28.1604 6.85169 28.3491 8.27768 30.8982C9.70367 33.4472 12.3839 38.344 13.9522 41.1039C15.5204 43.8638 15.8954 44.3385 16.1302 44.6667C16.4729 45.1457 16.6314 45.4605 17.2301 46.5575C17.7537 47.5171 18.6342 49.3422 19.1339 50.4156C19.7031 51.7678 19.9551 52.4177 20.2356 53.0159C20.3356 53.2515 20.3494 53.349 20.3637 53.4495" stroke="#AE602C" stroke-width="2.5" stroke-linecap="round"/>
<path d="M21.1211 53.9258C21.3989 53.9268 21.9586 53.8591 22.7982 53.6869C23.6543 53.5114 24.7338 53.1802 26.1258 52.8559C27.649 52.5011 28.7771 52.0124 29.4772 51.8744C30.5699 51.6589 31.4285 51.431 32.6147 51.225C33.4232 51.0846 34.662 50.9385 35.5557 50.8486C36.9598 50.7073 38.1872 50.5972 39.3435 50.3555C40.6835 50.0754 41.9641 49.9472 42.4365 49.9077C42.5419 49.9074 42.6669 49.9496 42.7799 49.9646C42.8929 49.9795 42.9901 49.966 43.1324 50.0365" stroke="#AE602C" stroke-width="2.5" stroke-linecap="round"/>
<path d="M37.5618 21.7493C37.6269 21.7169 37.6919 21.6845 38.8914 20.53C40.0909 19.3755 42.4229 17.0999 43.6459 15.8897C44.8689 14.6794 44.9122 14.6034 44.9671 14.5481C45.022 14.4928 45.0871 14.4604 45.1541 14.427" stroke="#AE602C" stroke-width="2.5" stroke-linecap="round"/>
<path d="M40.9806 25.8116C42.7702 24.4041 44.5598 22.9966 45.5848 22.1795C46.8159 21.1782 47.1475 20.9019 47.3934 20.7383C47.5199 20.6613 47.65 20.5965 47.7841 20.5297" stroke="#AE602C" stroke-width="2.5" stroke-linecap="round"/>
<path d="M43.1465 32.321C44.6216 31.0973 46.0967 29.8736 47.3989 28.9188C48.7011 27.9641 49.7858 27.3154 50.4042 26.9107C51.1419 26.3651 51.3299 26.1875 51.6237 25.9869C51.8525 25.8186 52.2429 25.5155 52.6452 25.2031" stroke="#AE602C" stroke-width="2.5" stroke-linecap="round"/>
<path d="M6.34745 29.11C3.88736 30.3918 3.42846 30.7361 3.12897 31.0564C2.30375 31.939 4.68217 34.4169 6.25542 36.83C6.90479 37.826 7.39604 38.2598 8.78056 40.6345C10.1651 43.0092 12.4649 47.2866 13.7521 49.6388C15.0393 51.991 15.2443 52.2885 15.7597 53.2651C18.0989 57.791 18.5363 58.3238 18.8113 58.7032C18.9724 58.9681 19.1774 59.3797 19.3885 59.8039" stroke="#AE602C" stroke-width="2.5" stroke-linecap="round"/>
<ellipse cx="24.053" cy="33.6368" rx="4.38303" ry="5.8692" transform="rotate(-26.4648 24.053 33.6368)" fill="#D9DD8D"/>
<path d="M24.8651 39.3099C24.3767 39.3854 23.028 39.1897 22.3099 39.011C21.6577 38.8488 20.6891 38.0787 20.2591 37.675C20.0455 37.4744 19.9544 37.2807 19.7192 37.0498C19.174 36.5147 18.9323 35.5207 18.7105 34.7615C18.5574 34.2378 18.6221 33.8337 18.7034 33.2519C18.761 32.8402 18.909 32.2013 19.0591 31.6988C19.2092 31.1964 19.3716 30.8522 19.6511 30.3738C19.9307 29.8955 20.3223 29.2935 20.6579 28.8449C21.223 28.0895 21.6415 27.7581 21.8676 27.6093C22.1101 27.4497 22.6232 27.3645 23.3356 27.3233C24.0089 27.2843 24.8985 27.5828 25.9529 28.0349C26.9399 28.458 27.4406 29.0047 27.6573 29.247C27.833 29.4434 28.23 29.8662 28.8124 30.6734C29.4755 31.5924 29.7181 32.5131 29.8339 33.0112C29.9842 33.6581 29.5275 34.7352 29.0114 35.6836C28.7928 36.169 28.677 36.3718 28.6095 36.5018C28.5803 36.565 28.5612 36.6224 28.5415 36.8267" stroke="#95AA3A" stroke-width="2.5" stroke-linecap="round"/>
<path d="M25.5564 36.7919C26.0531 37.7418 26.5498 38.6917 27.1257 39.8238C27.7015 40.956 28.3415 42.2416 28.6856 42.9566C29.1629 43.9487 29.1833 44.3678 29.2371 44.7168C29.2608 44.8139 29.3181 44.929 29.3524 45.0218C29.3867 45.1147 29.3963 45.1818 29.4061 45.396" stroke="#CD9955" stroke-width="2.5" stroke-linecap="round"/>
<path d="M46.2461 56.8516L49.9282 55.0186" stroke="#AE602C" stroke-width="2.5" stroke-linecap="round"/>
<path d="M44.5801 50.4297C44.9707 51.2143 45.3612 51.9988 45.736 52.6429C46.1108 53.287 46.458 53.7669 46.8157 54.2613" stroke="#AE602C" stroke-width="2.5" stroke-linecap="round"/>
<path d="M19.082 59.3867C19.2025 59.6287 19.3127 59.8502 19.4339 60.0332C19.507 60.1195 19.6033 60.1923 19.8156 60.5565C20.0279 60.9207 20.3532 61.5741 20.6883 62.2473" stroke="#AE602C" stroke-width="2.5" stroke-linecap="round"/>
<path d="M21.2383 62.4414C21.3587 62.3814 21.4792 62.3215 21.9629 62.0807C22.4466 61.8399 23.2898 61.4201 26.0854 60.6928C28.8809 59.9654 33.6032 58.9433 36.1382 58.3809C38.6733 57.8184 38.8781 57.7467 39.1041 57.7101C39.5662 57.6354 40.3492 57.5926 41.2487 57.4496C41.8109 57.3536 42.6238 57.2829 43.9161 57.1722C44.594 57.0955 45.3168 56.9772 46.0615 56.8554" stroke="#AE602C" stroke-width="2.5" stroke-linecap="round"/>
<path d="M65.7293 32.3182C65.7669 32.3938 66.0497 33.0091 66.4535 33.9154C66.594 34.2453 66.6034 34.3113 66.7117 34.5533C66.82 34.7952 67.027 35.2109 67.2403 35.6393" stroke="#AE602C" stroke-width="2.5" stroke-linecap="round"/>
<path d="M67.2933 35.749C67.3028 35.7679 67.3122 35.7868 67.3452 35.8532C67.3783 35.9196 67.4348 36.033 67.4359 36.1782" stroke="#AE602C" stroke-width="2.5" stroke-linecap="round"/>
<path d="M50.134 54.725C50.2657 54.4708 50.3974 54.2166 50.7945 53.733C51.1916 53.2495 51.8502 52.5443 52.6504 51.7394C53.4506 50.9344 54.3726 50.0509 54.9228 49.4876C55.473 48.9243 55.6235 48.7079 56.0256 48.2815C56.4277 47.8552 57.0769 47.2255 57.5053 46.8306C58.1061 46.2771 58.4946 45.943 58.8407 45.5685C59.1326 45.2525 59.8781 44.589 60.8697 43.6312C61.5332 42.9904 62.039 42.63 62.3805 42.317C62.8272 41.9078 63.961 41.0314 64.6906 40.4282C65.2008 40.0062 65.6122 39.755 66.049 39.4897C66.7817 39.0446 67.0855 38.8071 68.1898 38.1977C68.4093 38.0766 68.3889 37.9925 68.3418 37.8734C68.2099 37.5843 68.1133 37.3429 68.0755 37.1956C68.0471 37.1143 68.0001 37.0198 67.9516 36.9225" stroke="#AE602C" stroke-width="2.5" stroke-linecap="round"/>
<path d="M20.6933 54.3205C20.6451 54.3445 21.0178 55.5178 21.7105 57.4583C22.1864 58.6008 22.4207 59.3132 22.4877 59.8742C22.5065 60.0968 22.4945 60.1933 22.4821 60.2929" stroke="#AE602C" stroke-width="2.5" stroke-linecap="round"/>
<path d="M23.6484 57.5234C25.0367 56.9097 26.5694 56.4571 28.3712 56.1056C30.5011 55.6901 32.1352 55.2881 33.0065 55.2446C33.6349 55.2131 34.2247 55.108 35.6798 54.9273C36.7994 54.7883 38.6775 54.4427 39.8167 54.233C41.8791 53.8533 42.6545 53.6861 43.1932 53.6318C43.7201 53.5786 44.1204 53.5798 44.6189 53.5278C44.7444 53.5046 44.8524 53.4895 44.962 53.5129C45.0716 53.5362 45.1796 53.5985 45.2908 53.6626" stroke="#AE602C" stroke-width="2.5" stroke-linecap="round"/>
<path d="M47.3899 51.328C49.0558 50.0347 50.2225 49.0602 50.875 48.3463C51.2338 47.9538 51.5893 47.4471 52.6052 46.4146C53.6212 45.3822 55.2717 43.8259 56.2762 42.9474C57.5335 41.8478 58.3853 41.403 59.1715 40.7972C60.0871 40.0917 61.0352 39.225 62.5516 38.0987C63.3836 37.6247 63.9973 37.2805 64.4246 37.0092C64.6513 36.8765 64.8981 36.7536 65.2926 36.44" stroke="#AE602C" stroke-width="2.5" stroke-linecap="round"/>
</svg>
