<svg width="64" height="64" viewBox="0 0 64 64" fill="none" xmlns="http://www.w3.org/2000/svg">
<path d="M28.0928 10.1562H35.9072C37.956 10.1563 39.4119 10.694 40.3584 11.6377C41.3046 12.5812 41.8437 14.0323 41.8438 16.0742V20.9443C41.8438 22.9865 41.3046 24.4382 40.3584 25.3818C39.4119 26.3255 37.9559 26.8632 35.9072 26.8633H35.4189C35.1095 26.8633 34.8675 27.0194 34.7197 27.1963L34.709 27.209L34.6982 27.2227L33.2344 29.1689C32.8921 29.6215 32.4415 29.8437 32 29.8438C31.6137 29.8438 31.2201 29.6738 30.8984 29.3281L30.7656 29.1689L29.3008 27.2227L29.2402 27.1514C29.1796 27.0893 29.1216 27.0508 29.0957 27.0342C29.0481 27.0036 29.0009 26.9802 28.9639 26.9629C28.9003 26.9332 28.806 26.8952 28.71 26.876L28.6465 26.8633H28.0928C26.0802 26.8633 24.6405 26.5826 23.6914 25.7832C22.7687 25.006 22.1562 23.5997 22.1562 20.9443V16.0742C22.1563 14.0324 22.6946 12.5812 23.6406 11.6377C24.5871 10.6938 26.0438 10.1563 28.0928 10.1562ZM28.0928 10.3047C26.2553 10.3047 24.7709 10.731 23.7539 11.7451C22.7366 12.7596 22.3087 14.2408 22.3086 16.0742V20.9443C22.3086 23.175 22.6819 24.7165 23.7412 25.6455C24.7771 26.5539 26.3002 26.7148 28.0928 26.7148H28.5811C28.8713 26.7148 29.2434 26.8982 29.4238 27.1338V27.1348L30.8896 29.083L30.8926 29.0859C31.1536 29.4281 31.5376 29.6807 32 29.6807C32.4624 29.6806 32.8464 29.4281 33.1074 29.0859L33.1104 29.083L34.5752 27.1348C34.7733 26.8714 35.0876 26.7148 35.4189 26.7148H35.9072C37.7446 26.7148 39.2282 26.2875 40.2451 25.2734C41.2625 24.2589 41.6914 22.7779 41.6914 20.9443V16.0742C41.6913 14.2408 41.2624 12.7596 40.2451 11.7451C39.2282 10.7313 37.7444 10.3047 35.9072 10.3047H28.0928Z" fill="#9D9793" stroke="#9D9793" stroke-width="1.31249"/>
<path d="M32 18.6797C32.1764 18.6797 32.3201 18.8257 32.3203 18.9971C32.3203 19.1729 32.182 19.3154 32 19.3154C31.8181 19.3153 31.6797 19.1729 31.6797 18.9971C31.6799 18.8257 31.8237 18.6798 32 18.6797Z" fill="#9D9793" stroke="#9D9793" stroke-width="1.31249"/>
<path d="M35.9062 18.6797C36.0826 18.6797 36.2263 18.8257 36.2266 18.9971C36.2266 19.1729 36.0882 19.3154 35.9062 19.3154C35.7244 19.3153 35.5859 19.1729 35.5859 18.9971C35.5862 18.8257 35.73 18.6798 35.9062 18.6797Z" fill="#9D9793" stroke="#9D9793" stroke-width="1.31249"/>
<path d="M28.0939 19.9715C27.547 19.9715 27.1172 19.5332 27.1172 18.9975C27.1172 18.4617 27.5567 18.0234 28.0939 18.0234C28.6311 18.0234 29.0707 18.4617 29.0707 18.9975C29.0707 19.5332 28.6409 19.9715 28.0939 19.9715Z" fill="#9D9793"/>
<path d="M22.5378 40.248C22.6685 40.248 22.7851 40.2807 22.8878 40.346C22.9905 40.4113 23.0418 40.514 23.0418 40.654V42.012H25.1138C25.2445 42.012 25.3378 42.054 25.3938 42.138C25.4498 42.222 25.4778 42.3247 25.4778 42.446C25.4778 42.5767 25.4498 42.684 25.3938 42.768C25.3378 42.852 25.2445 42.894 25.1138 42.894H23.0418V44.154C23.0418 44.4433 23.0558 44.7 23.0838 44.924C23.1211 45.148 23.1771 45.358 23.2518 45.554C23.3265 45.75 23.4245 45.9367 23.5458 46.114C23.6671 46.2913 23.8165 46.478 23.9938 46.674C24.2645 46.9727 24.5211 47.248 24.7638 47.5C25.0065 47.752 25.2165 47.962 25.3938 48.13C25.4778 48.2047 25.5151 48.3073 25.5058 48.438C25.4965 48.5593 25.4451 48.662 25.3518 48.746C25.2678 48.8393 25.1698 48.8907 25.0578 48.9C24.9458 48.9 24.8431 48.858 24.7498 48.774C24.5538 48.5873 24.3485 48.3867 24.1338 48.172C23.9285 47.9573 23.7278 47.7427 23.5318 47.528C23.2145 47.192 22.9811 46.9073 22.8318 46.674C22.6825 46.4313 22.5938 46.2167 22.5658 46.03H22.5518C22.5145 46.226 22.4165 46.4453 22.2578 46.688C22.1085 46.9307 21.8751 47.22 21.5578 47.556C21.3618 47.7707 21.1378 48.004 20.8858 48.256C20.6431 48.508 20.3818 48.7693 20.1018 49.04C20.0178 49.1147 19.9151 49.152 19.7938 49.152C19.6725 49.1427 19.5698 49.096 19.4858 49.012C19.3925 48.9093 19.3411 48.802 19.3318 48.69C19.3225 48.5687 19.3551 48.466 19.4298 48.382C19.7285 48.102 20.0131 47.822 20.2838 47.542C20.5545 47.262 20.8205 46.9727 21.0818 46.674C21.2591 46.478 21.4085 46.2913 21.5298 46.114C21.6511 45.9367 21.7491 45.75 21.8238 45.554C21.8985 45.358 21.9498 45.148 21.9778 44.924C22.0151 44.7 22.0338 44.4433 22.0338 44.154V42.894H19.7798C19.6491 42.894 19.5558 42.852 19.4998 42.768C19.4438 42.684 19.4158 42.5767 19.4158 42.446C19.4158 42.3247 19.4438 42.222 19.4998 42.138C19.5558 42.054 19.6491 42.012 19.7798 42.012H22.0338V40.654C22.0338 40.514 22.0851 40.4113 22.1878 40.346C22.2905 40.2807 22.4071 40.248 22.5378 40.248ZM29.5938 40.164C29.7245 40.164 29.8365 40.1967 29.9298 40.262C30.0325 40.3273 30.0838 40.43 30.0838 40.57V51.742C30.0838 51.882 30.0325 51.9847 29.9298 52.05C29.8365 52.1153 29.7245 52.148 29.5938 52.148C29.4725 52.148 29.3605 52.1153 29.2578 52.05C29.1645 51.9847 29.1178 51.882 29.1178 51.742V45.442H27.2558V51.154C27.2558 51.294 27.2045 51.3967 27.1018 51.462C27.0085 51.5273 26.8965 51.56 26.7658 51.56C26.6445 51.56 26.5325 51.5273 26.4298 51.462C26.3365 51.3967 26.2898 51.294 26.2898 51.154V40.71C26.2898 40.57 26.3365 40.4673 26.4298 40.402C26.5325 40.3367 26.6445 40.304 26.7658 40.304C26.8965 40.304 27.0085 40.3367 27.1018 40.402C27.2045 40.4673 27.2558 40.57 27.2558 40.71V44.56H29.1178V40.57C29.1178 40.43 29.1645 40.3273 29.2578 40.262C29.3605 40.1967 29.4725 40.164 29.5938 40.164ZM38.486 40.822C38.6167 40.822 38.71 40.864 38.766 40.948C38.822 41.032 38.85 41.1347 38.85 41.256C38.85 41.368 38.822 41.4707 38.766 41.564C38.71 41.648 38.6167 41.69 38.486 41.69H34.174C34.0713 41.69 34.0013 41.7087 33.964 41.746C33.9267 41.774 33.908 41.8393 33.908 41.942V43.496H38.346C38.4767 43.496 38.57 43.538 38.626 43.622C38.682 43.706 38.71 43.804 38.71 43.916C38.71 44.028 38.682 44.126 38.626 44.21C38.57 44.294 38.4767 44.336 38.346 44.336H33.908V45.918C33.908 46.086 33.9967 46.17 34.174 46.17C35.2753 46.17 36.2647 46.1467 37.142 46.1C38.0287 46.044 38.8873 45.9553 39.718 45.834C39.83 45.8153 39.9233 45.8433 39.998 45.918C40.0727 45.9833 40.1193 46.0813 40.138 46.212C40.1567 46.3333 40.138 46.4453 40.082 46.548C40.0353 46.6413 39.956 46.6973 39.844 46.716C39.48 46.7627 39.0927 46.8093 38.682 46.856C38.2807 46.8933 37.8373 46.926 37.352 46.954C36.8667 46.982 36.3393 47.0053 35.77 47.024C35.2007 47.0333 34.566 47.038 33.866 47.038C33.502 47.038 33.25 46.9727 33.11 46.842C32.97 46.702 32.9 46.4547 32.9 46.1V41.76C32.9 41.4053 32.97 41.1627 33.11 41.032C33.25 40.892 33.502 40.822 33.866 40.822H38.486ZM41.916 40.164C42.0467 40.164 42.1633 40.1967 42.266 40.262C42.3687 40.3273 42.42 40.4347 42.42 40.584V47.682C42.42 47.8313 42.3687 47.9387 42.266 48.004C42.1633 48.0693 42.0467 48.102 41.916 48.102C41.7853 48.102 41.664 48.0693 41.552 48.004C41.4493 47.9387 41.398 47.8313 41.398 47.682V40.584C41.398 40.4347 41.4493 40.3273 41.552 40.262C41.664 40.1967 41.7853 40.164 41.916 40.164ZM38.556 48.27C39.8347 48.27 40.8147 48.4753 41.496 48.886C42.1773 49.2873 42.518 49.8893 42.518 50.692C42.518 51.4947 42.1773 52.0967 41.496 52.498C40.8147 52.9087 39.8347 53.114 38.556 53.114C37.2773 53.114 36.2973 52.9087 35.616 52.498C34.944 52.0967 34.608 51.4947 34.608 50.692C34.608 49.8893 34.944 49.2873 35.616 48.886C36.2973 48.4753 37.2773 48.27 38.556 48.27ZM38.556 49.11C37.548 49.11 36.806 49.25 36.33 49.53C35.854 49.8007 35.616 50.188 35.616 50.692C35.616 51.196 35.854 51.5833 36.33 51.854C36.806 52.134 37.548 52.274 38.556 52.274C39.5733 52.274 40.32 52.134 40.796 51.854C41.272 51.5833 41.51 51.196 41.51 50.692C41.51 50.188 41.272 49.8007 40.796 49.53C40.32 49.25 39.5733 49.11 38.556 49.11Z" fill="#9D9793"/>
</svg>
