<svg width="114" height="128" viewBox="0 0 114 128" fill="none" xmlns="http://www.w3.org/2000/svg">
<path d="M41.9805 1.32422C47.3763 1.86444 55.0944 7.59403 56.3018 11.6035C56.9531 10.9272 57.8263 10.1469 58.915 9.22363C60.6585 5.55898 70.4323 -0.540757 76.3525 2.28223C80.7108 5.92121 83.9913 15.6938 82.248 19.3584C82.0494 20.8447 81.7324 22.1108 81.168 23.043C81.3719 22.9344 81.5994 22.8069 81.8467 22.6484C85.2614 20.4604 101.186 16.8879 104.722 22.417C106.5 27.8126 104.125 37.8441 100.71 40.0322C100.091 40.7828 99.4772 41.4263 98.8584 41.9219C104.599 46.031 114.238 55.6173 112.557 60.6768C109.485 65.4545 99.4602 72.6975 95.6133 71.416C93.7469 72.266 92.2178 72.6811 90.9844 72.7383C91.816 78.9177 91.3959 89.7244 86.5791 91.7734C80.9689 92.6291 71.3904 92.7297 69.8047 88.9941C66.1547 84.7701 65.956 77.2255 77.957 73.4629C82.3536 71.2529 85.0276 69.634 86.6816 68.5752C86.2438 64.4874 88.1951 58.0242 90.8389 52.0898C92.2981 46.547 92.8133 43.2848 93.0801 41.4404C91.6251 40.057 90.0047 37.6731 88.127 33.9814C83.1222 27.1503 80.6935 25.0558 80.0781 24.2021C78.1883 25.4304 74.7573 24.7381 68.3721 20.8818C63.3383 18.8633 59.7703 17.5903 57.5742 16.5225C57.2468 19.0859 54.2202 20.7597 45.793 21.2041C30.6833 24.499 33.5605 19.7384 32.9512 15.7256C32.3417 11.7127 35.4979 2.31174 41.9805 1.32422ZM11.2285 19.0537C16.1578 16.2383 26.45 16.5784 29.2695 19.4951C34.191 22.1251 35.6942 25.2179 25.8428 33.0439C22.8842 36.2996 21.0411 38.6207 19.8516 40.207C22.6272 41.1082 23.4758 44.3957 20.8418 53.1309C20.2442 57.6591 20.0596 60.6751 19.9922 62.6562C21.9509 63.286 24.5114 65.2171 28.002 68.958C40.2412 78.4209 36.7411 77.9772 34.0645 81.0254C31.3877 84.074 21.0759 87.2442 15.251 84.6689C12.051 79.9767 12.6057 71.4144 14.2373 66.6299C14.5264 65.9633 14.8286 65.354 15.1533 64.8184C9.70563 62.376 -0.209869 55.4546 0.868164 49.9834C3.11346 45.2758 10.588 40.1718 14.875 39.9766C11.7762 35.1943 7.06672 23.0865 11.2285 19.0537Z" fill="#FF9D52"/>
<path d="M28.9834 13.1953C32.3637 13.1954 36.0865 17.5186 36.7754 21.1162C42.6675 18.1733 49.577 16.228 56.9893 15.459C65.557 15.459 73.2087 18.0225 79.4395 22.1328C79.5381 21.7937 79.6594 21.4524 79.8037 21.1113C81.2634 17.6613 84.4955 15.5113 87.9414 16.9727C91.3873 18.4341 94.4858 22.2425 91.5381 25.8662C89.8683 27.2447 88.6198 28.3825 87.458 29.1074C92.3947 34.7207 95.5151 41.4848 96.2383 48.25C96.2382 66.3594 92.2262 78.3673 56.9893 81.04C34.6288 82.736 13.3804 68.6025 17.7412 48.25C17.7412 39.9982 21.3651 32.9282 27.3721 27.4619C24.3569 26.303 21.6426 23.0047 21.6426 19.9795C21.6426 16.2327 25.241 13.1953 28.9834 13.1953Z" fill="#FFE07B"/>
<path d="M32.3721 92.3438C32.3721 81.7278 38.0184 66.9027 52.7002 73.1221C62.4864 74.0322 67.4682 76.4408 70.3389 80.166C71.4495 79.1978 74.3596 78.3664 80.7656 77.7705C88.6571 75.9049 95.6358 76.8567 96.3525 79.8955C96.3521 85.5345 91.2524 86.9099 83.3613 88.7754C78.5193 89.92 75.5745 89.583 73.8555 88.4512C74.1578 89.6835 74.4357 90.9819 74.7217 92.3438C74.3812 96.0931 80.4273 101.708 76.8018 105.94C77.2715 106.786 77.547 107.886 77.5469 109.291C81.4785 113.73 95.6144 120.037 78.7754 123.007C74.2577 124.136 70.526 122.981 66.5947 118.543C65.003 114.8 63.8757 112.406 63.3467 110.689C60.3885 111.082 56.8707 111.381 52.7002 111.565C50.7889 111.455 49.0404 111.321 47.4414 111.167C48.0223 113.028 46.6604 115.507 43.9883 121.791C40.057 126.229 36.3254 127.384 31.8076 126.255C19.3964 125.479 29.9171 117.227 33.8486 112.788C33.8485 110.851 34.3277 109.482 35.1006 108.552C28.0501 105.254 32.3719 99.6862 32.3721 92.3438Z" fill="#FFE07B"/>
<ellipse cx="55.5225" cy="56.721" rx="7.34088" ry="5.08815" fill="#FF9D52"/>
<path d="M59.4774 70.2856C58.3472 72.547 58.2133 74.243 56.6539 74.243C55.0946 74.243 53.8305 72.4712 53.8305 70.2856C53.8305 68.0999 51.5711 66.8935 56.6539 66.3281C60.6059 66.3281 59.4774 68.0999 59.4774 70.2856Z" fill="#FFBBBB"/>
<path d="M27.1974 26.7812C25.1639 28.4319 24.3515 29.6775 23.594 30.924C23.193 31.5838 22.6214 32.221 21.6456 33.9228C20.6698 35.6246 19.2721 38.3518 18.4177 40.6152C17.5632 42.8787 17.2944 44.5958 17.1022 47.2227C16.91 49.8496 16.8025 53.3343 16.9621 55.8618C17.1218 58.3892 17.5518 59.8538 17.9078 60.8608C18.4519 62.4001 19.0245 63.4992 19.4578 64.6194C19.823 65.5635 21.1879 67.267 23.1126 69.5343C23.9382 70.5069 24.5535 71.044 25.772 71.9363C26.9905 72.8285 28.8183 74.0405 31.5071 75.3972C34.1958 76.7539 37.6901 78.2185 40.1353 79.1245C42.5805 80.0305 43.8707 80.3335 45.2074 80.5654C46.544 80.7972 47.888 80.9487 50.7575 80.9763C53.6271 81.0038 57.9815 80.9028 60.8161 80.7245C63.6506 80.5462 64.8333 80.2937 65.9533 80.1131C67.0732 79.9326 68.0947 79.8315 69.696 79.5523C71.2974 79.273 73.4477 78.8184 76.0607 77.8772C78.6737 76.9361 81.6842 75.522 83.5576 74.5915C86.1138 73.3219 87.5471 72.1842 88.984 70.9369C90.1418 69.9318 90.8639 68.7653 91.9716 66.6357C92.7743 65.0927 93.7782 62.4861 94.4396 60.7805C95.101 59.0748 95.316 58.3173 95.5612 55.6039C95.8064 52.8905 96.0752 48.2442 95.8642 44.9922C95.6533 41.7401 94.9544 40.023 94.1374 38.3304C93.3205 36.6377 92.4066 35.0217 91.6939 34.0124C90.6543 32.5403 89.2462 31.5783 87.9984 30.305C87.6771 29.9772 87.3403 29.6302 86.9849 29.2697" stroke="#A54700" stroke-width="1.5" stroke-linecap="round"/>
<path d="M66.8204 102.529C66.8204 111.272 71.9025 110.426 54.9621 112.122C38.5834 112.122 41.9744 111.272 41.9744 102.529C41.9744 93.7865 47.5363 86.6992 54.3974 86.6992C61.2584 86.6992 66.8204 93.7865 66.8204 102.529Z" fill="#FFF1C4"/>
<path d="M36.0059 20.7833C37.0285 20.2395 37.7371 19.9194 38.2176 19.6871C39.1657 19.2288 41.2983 18.3453 44.9829 17.3049C46.6983 16.8205 48.1498 16.5175 49.6012 16.2145C50.0411 16.0094 50.3099 15.9589 50.5551 15.9076C50.8002 15.8563 51.0153 15.8058 51.2613 15.7546C52.211 15.6023 53.198 15.2412 56.3976 15.4753C58.1342 15.6023 59.1942 15.9249 61.6399 16.0109C63.0751 16.0614 64.8491 16.3718 66.4692 17.008C67.9639 17.5949 69.805 17.7375 71.9306 18.4879C74.7505 19.4834 76.4396 20.0564 78.551 21.857C78.7403 22.0184 78.9568 22.2116 79.1998 22.4305" stroke="#A54700" stroke-width="1.5" stroke-linecap="round"/>
<path d="M26.9203 26.7452C26.8541 26.7452 24.9415 25.4731 23.2234 24.0657C21.8389 22.9317 21.5914 21.8638 21.5082 21.6094C21.4305 21.3717 21.2907 20.7124 21.2737 19.6099C21.2581 18.6051 22.0193 17.4499 23.1031 16.3122C23.8655 15.5119 24.5617 15.1674 25.2101 14.7269C26.1487 14.0891 27.3978 13.8743 28.6961 13.7723C30.3206 13.6447 31.6089 13.9395 32.2923 14.3464C33.432 15.025 33.9148 15.8773 34.6489 16.893C35.6876 19.1755 35.8209 19.5161 35.9211 19.7696C35.9552 19.9557 35.9552 20.2586 35.9552 20.5707" stroke="#A54700" stroke-width="1.5" stroke-linecap="round"/>
<path d="M79.4375 22.2229C80.0564 21.0455 80.5853 18.8902 81.1315 18.2654C81.55 17.7868 82.1246 17.1158 82.8256 16.5694C83.6135 15.9551 83.2385 16.1936 83.955 16.0058C84.8298 15.7765 87.3147 16.0782 87.7043 16.1716C88.1403 16.2761 88.8742 16.8255 89.826 17.5907C91.2432 18.73 91.7221 19.6449 92.1755 20.1758C92.8691 20.9881 93.0049 22.4595 92.9904 23.8185C92.9797 24.8128 92.5379 25.3399 92.3499 25.7159C91.904 26.6076 89.7164 27.0647 89.2872 27.5786C89.0371 27.8781 88.3819 28.0006 87.8811 28.4072C87.7554 28.502 86.9059 28.9432 86.7784 29.0071" stroke="#A54700" stroke-width="1.5" stroke-linecap="round"/>
<path d="M29.9373 25.2683C29.628 25.0981 29.4432 24.9437 29.2414 24.6803C29.0864 24.478 28.8097 24.17 28.5601 23.7971C28.4013 23.5599 28.297 22.9788 28.1421 22.6187C28.0396 22.3803 28.0025 22.0609 27.9944 21.7822C27.9851 21.4643 28.218 21.1933 28.5884 20.8527C29.2821 20.2148 29.8723 20.1546 30.3841 19.9914C30.7803 19.865 31.1285 19.9984 31.4055 20.1676C31.9587 20.5055 32.4126 21.0194 32.6755 21.3986C32.9744 21.8299 33.0795 22.0591 33.103 22.3225C33.1388 22.7243 33.1111 23.3452 33.0106 23.5086C32.907 23.6769 32.7711 23.8724 32.6084 24.0663C32.388 24.3288 32.121 24.3383 31.9196 24.4462C31.6351 24.5987 31.4708 24.7252 31.2156 24.7875C31.0231 24.8796 30.8359 24.9735 30.6968 25.0276C30.6344 25.0511 30.5884 25.0665 30.4946 25.0823" stroke="#A54700" stroke-width="1.5" stroke-linecap="round"/>
<path d="M99.4726 93.3608C100.696 95.1713 99.8021 97.9151 97.4771 99.4893C95.152 101.063 92.2758 100.872 91.0529 99.0614C89.83 97.2509 91.031 94.9336 93.356 93.3594C98.1811 93.3594 98.2497 91.5502 99.4726 93.3608Z" fill="#FF9D52"/>
<path d="M82.2519 24.8038C83.1093 25.6745 83.3995 26.0362 83.6111 26.2617C83.8574 26.5242 84.1734 26.4741 84.4509 26.5043C84.6662 26.5276 84.9703 26.4265 85.3679 26.2036C85.8689 25.9228 86.1562 25.5914 86.2768 25.4343C86.5322 25.1017 86.6281 24.6477 86.6345 24.1039C86.6382 23.7832 86.4598 23.522 86.3086 23.2918C86.1162 22.999 85.8926 22.7958 85.638 22.6075C85.4983 22.5042 85.2992 22.5525 84.957 22.5405C84.6865 22.531 84.2199 22.5045 83.8777 22.5461C83.3161 22.6144 82.9907 22.9145 82.7553 23.1438C82.422 23.6527 82.216 23.9319 82.1437 24.0104C82.1072 24.0529 82.0713 24.1008 81.998 24.1865" stroke="#A54700" stroke-width="1.5" stroke-linecap="round"/>
<path d="M37.775 37.9717C37.7337 38.0504 37.7331 38.3958 37.8211 38.8871C37.856 39.0816 38.002 39.1326 38.143 39.163C38.4432 39.2277 38.6811 39.1836 38.8935 39.1244C39.2909 39.0138 39.5981 38.8463 39.7436 38.7226C40.0668 38.4481 40.0261 37.8269 39.9639 37.4758C39.9295 37.2815 39.6203 37.1678 39.4483 37.0781C39.3326 37.0178 38.9662 36.9491 38.4488 36.9338C38.3169 36.9298 38.2237 36.998 38.1094 37.092C37.7183 37.4137 37.9207 38.2185 38.0506 38.4181C38.1071 38.505 38.1915 38.5674 38.2953 38.6318C38.4333 38.7173 38.6698 38.7465 38.9145 38.7416C39.067 38.7385 39.1916 38.6675 39.3114 38.5733C39.4911 38.432 39.5362 38.1026 39.526 37.8345C39.5205 37.6873 39.3595 37.6344 39.2764 37.5699C39.0715 37.411 38.5998 37.5444 38.3802 37.6732C38.3071 37.7524 38.2443 37.8421 38.1974 37.951C38.1815 38.0108 38.1815 38.0796 38.1815 38.1505" stroke="#A54700" stroke-width="1.5" stroke-linecap="round"/>
<path d="M70.1084 37.3352C69.6505 38.0048 69.6273 38.192 69.6444 38.6205C69.6533 38.8436 69.8844 39.0034 70.0543 39.1443C70.2935 39.3426 71.0072 39.3098 71.5568 39.2398C71.7964 39.2093 71.9624 38.8997 72.1149 38.6825C72.2063 38.5524 72.2216 38.2894 72.21 37.9487C72.1958 37.5333 71.6595 37.1483 71.4184 37.0358C71.0145 36.8474 70.5677 36.9586 70.3557 37.0585C70.1399 37.1603 70.0267 37.4163 69.9443 37.78C69.8694 38.1105 69.9439 38.3691 69.9732 38.4628C70.0383 38.6717 70.3881 38.862 70.8346 38.9805C71.0277 39.0317 71.1879 38.9692 71.2992 38.8932C71.5708 38.7078 71.482 38.1843 71.4061 37.8532C71.3656 37.6764 70.8861 37.7231 70.5964 37.7872C70.4433 37.8211 70.4138 38.0164 70.3962 38.116C70.3768 38.2258 70.4018 38.3222 70.4485 38.3809C70.5416 38.4163 70.648 38.4283 70.7533 38.4108C70.8121 38.3934 70.8818 38.3585 70.9537 38.3225" stroke="#A54700" stroke-width="1.5" stroke-linecap="round"/>
<path d="M48.4847 56.5337C48.4847 56.6513 48.671 57.3293 48.994 58.3528C49.1829 58.9515 49.4591 59.3817 49.7701 59.8488C49.9105 60.0596 50.0461 60.1835 50.3624 60.4501C50.6786 60.7166 51.1792 61.1135 51.5768 61.3988C51.9744 61.6841 52.2538 61.8458 52.6131 61.9805C52.9724 62.1152 53.4031 62.2181 53.9102 62.2858C54.4173 62.3535 54.9878 62.3829 55.6542 62.3393C56.3206 62.2956 57.0656 62.1781 57.7172 61.9852C58.3688 61.7923 58.9043 61.5277 59.3373 61.2739C59.7704 61.02 60.0847 60.7848 60.3048 60.6048C60.6497 60.3229 60.8777 60.098 61.1065 59.8982C61.3455 59.6895 61.548 59.4004 61.8874 58.943C62.1263 58.6209 62.4363 58.0446 62.6333 57.654C62.9217 57.0822 62.9834 56.5957 63.0363 56.048C63.1392 54.983 62.8899 54.7084 62.7668 54.4857C62.612 54.2057 62.3382 54.0403 61.9389 53.8546C61.5653 53.6808 61.3504 53.4167 60.8636 53.194C60.4953 53.0256 60.1277 52.9562 59.8346 52.8597C59.5257 52.7582 59.0824 52.6894 58.5662 52.5188C58.1057 52.3666 57.7754 52.3473 57.2385 52.2731C56.7967 52.2121 56.0031 52.2284 55.5487 52.2134C55.0943 52.1985 55.0012 52.1838 54.7437 52.1836C54.0669 52.183 53.5654 52.2279 53.4246 52.2502C53.1657 52.2912 52.8613 52.4056 52.4723 52.5615C52.2044 52.6689 51.7324 52.7174 51.3849 52.888C50.8293 53.1608 50.509 53.2519 50.232 53.4152C49.766 53.6899 49.2968 54.0243 48.974 54.3942C48.7845 54.6114 48.6385 54.81 48.5496 55.0483C48.4923 55.2019 48.4382 55.3748 48.4084 55.5975C48.4025 55.6572 48.3909 55.716 48.3849 55.8638C48.3789 56.0117 48.3789 56.2469 48.3789 56.4892" stroke="#A54700" stroke-width="1.5" stroke-linecap="round"/>
<path d="M53.0102 68.4148C53.0102 68.4784 53.1025 69.1465 53.2745 70.1806C53.4129 71.0123 53.6249 71.1258 53.8559 71.4841C54.0534 71.7905 54.4375 72.3031 54.6646 72.605C54.9501 72.9844 55.1796 73.1311 55.4633 73.3152C55.6878 73.4609 55.8605 73.597 56.0785 73.6451C56.3956 73.7151 56.6988 73.6297 56.9495 73.5419C57.2592 73.4334 57.5742 73.1816 57.8717 72.8618C58.0257 72.696 58.1691 72.4784 58.3419 72.2131C58.5148 71.9479 58.7085 71.6302 58.8729 71.2918C59.1909 70.6371 59.3271 70.1169 59.3783 69.8449C59.5122 69.1325 59.6069 68.4167 59.6393 68.0711C59.6839 67.5964 59.6815 67.1638 59.6583 67.0757C59.6364 66.9926 59.5516 66.9549 59.4308 66.9308C59.2925 66.9032 59.1418 66.9067 58.3105 66.8906C57.553 66.8759 56.114 66.9063 55.3312 66.9224C54.5484 66.9385 54.4654 66.9544 54.3258 66.9626C53.7285 66.9976 53.4681 67.0189 53.2674 67.0589C53.189 67.0745 53.0594 67.067 52.9883 67.0988C52.9172 67.1306 52.9079 67.1941 52.9032 67.2745C52.8984 67.3549 52.8984 67.4502 52.8984 67.5484" stroke="#A54700" stroke-width="1.5" stroke-linecap="round"/>
<path d="M27.9199 51.8945C29.1146 52.1793 30.3093 52.4641 31.266 52.6962C32.2228 52.9284 32.9055 53.0992 33.7123 53.3866C34.5191 53.674 35.4293 54.0727 36.3671 54.4834" stroke="#A54700" stroke-width="1.5" stroke-linecap="round"/>
<path d="M28.2637 60.5249C28.3206 60.5249 28.3774 60.5249 29.5161 60.4679C30.6547 60.411 32.8734 60.2971 35.1593 60.1797" stroke="#A54700" stroke-width="1.5" stroke-linecap="round"/>
<path d="M75.6719 53.1034L81.3608 51.7227" stroke="#A54700" stroke-width="1.5" stroke-linecap="round"/>
<path d="M76.3633 59.3164C78.3544 59.7721 80.3455 60.2277 81.5135 60.4624C82.6814 60.6972 82.9659 60.6972 83.2589 60.8698" stroke="#A54700" stroke-width="1.5" stroke-linecap="round"/>
<ellipse cx="6.32404" cy="8.47956" rx="6.32404" ry="8.47956" transform="matrix(0.964652 -0.263527 0.262948 0.96481 33.5527 91.0898)" fill="#FFE07B"/>
<path d="M32.4883 93.7861C32.3837 94.1298 32.2902 94.4406 32.2087 94.7075C31.6346 96.5854 31.2904 97.3831 30.9376 99.0087C30.7654 99.8026 30.7526 101.142 30.849 102.386C30.9454 103.63 31.2381 104.753 31.5374 105.529C32.0101 106.755 32.7726 107.408 33.3997 107.95C33.9123 108.393 34.5629 108.681 35.5328 109.016C36.9222 109.496 38.0865 109.815 38.9758 110.162C39.5489 110.385 40.397 110.63 42.7506 110.955C45.1043 111.281 48.945 111.66 51.7314 111.832C54.5178 112.004 56.1335 111.957 58.351 111.748C60.5685 111.539 63.3389 111.169 64.8465 110.95C66.5199 110.708 67.5422 110.472 68.9113 110.236C69.5474 110.126 69.8046 110.102 70.7372 109.831C71.556 109.594 73.0264 108.994 74.022 108.495C76.3857 107.311 76.8059 106.1 77.0402 105.614C77.4 104.869 77.4609 103.894 77.5874 102.94C77.7898 101.415 77.4174 100.882 77.3112 100.461C77.1606 99.864 77.0084 99.4549 76.8306 98.8703C76.4973 97.7743 76.0878 96.1521 75.731 95.2496C75.2318 93.9867 75.189 93.574 75.0349 93.1503C74.8497 92.6413 74.709 92.3026 74.6843 91.8215C74.5937 91.4521 74.4343 91.1721 74.3043 90.8258" stroke="#A54700" stroke-width="1.5" stroke-linecap="round"/>
<path d="M34.0565 109.444C34.0591 109.506 33.9306 110.225 33.5847 111.506C33.2761 112.649 32.676 113.259 32.2103 113.949C30.6007 116.331 30.0559 116.66 29.3759 117.283C28.6128 117.982 27.7308 118.7 27.1627 119.318C26.476 120.066 26.3776 120.982 26.2235 121.895C26.0682 122.816 26.2974 123.648 26.4629 124.156C26.8257 125.27 27.8566 125.554 29.0662 126.067C30.3402 126.607 31.6518 126.364 33.4949 126.411C34.6979 126.441 36.4456 126.286 37.6743 126.093C39.5956 125.792 40.5154 125.142 41.029 124.761C41.9892 124.048 42.6765 123.014 43.1804 122.351C43.642 121.743 44.4458 120.78 45.3487 119.286C45.8035 118.533 46.2323 116.64 46.5577 115.162C46.8622 114.076 47.0908 113.303 47.1276 113.036C47.1367 112.864 47.1261 112.616 47.2076 112.263" stroke="#A54700" stroke-width="1.5" stroke-linecap="round"/>
<path d="M76.6942 107.22C76.6995 107.282 76.9007 107.398 77.428 108.623C77.8986 109.715 78.6043 110.241 79.1801 110.863C81.1699 113.013 81.7815 113.267 82.5723 113.794C83.4597 114.387 84.4738 114.982 85.1474 115.52C85.9614 116.171 86.183 117.066 86.4623 117.951C86.7439 118.844 86.6125 119.699 86.5056 120.225C86.2712 121.378 85.2316 121.796 84.035 122.464C82.7747 123.168 81.3738 123.101 79.4551 123.391C78.2029 123.58 76.3578 123.657 75.0497 123.629C73.0045 123.584 71.9596 123.061 71.3738 122.751C70.2788 122.171 69.4271 121.237 68.8147 120.646C68.2539 120.104 67.2896 119.255 66.153 117.893C65.5804 117.207 64.8872 115.387 64.3557 113.964C63.8969 112.927 63.5579 112.191 63.4848 111.931C63.453 111.761 63.4319 111.514 63.3011 111.175" stroke="#A54700" stroke-width="1.5" stroke-linecap="round"/>
<path d="M78.1113 100.59C78.248 100.179 78.4371 99.9901 78.8 99.726C79.1035 99.5052 79.4179 99.4613 79.6173 99.4192C80.1887 99.2985 80.5764 99.3346 81.0089 99.3186C81.115 99.3147 81.2089 99.303 81.4608 99.3028C81.7127 99.3027 82.1198 99.3131 82.5017 99.3655C82.8836 99.4179 83.228 99.512 83.4576 99.5656C83.7888 99.643 84.1809 99.7137 84.7697 99.8454C85.0746 99.9136 85.4002 99.9458 86.0156 99.9673C86.6311 99.9888 87.5287 99.9888 88.0537 99.9732C88.5787 99.9575 88.7039 99.9261 88.8989 99.8577C89.359 99.6963 89.8324 99.4727 90.2061 99.2778C90.6876 99.0075 90.8989 98.9125 90.9778 98.8546C91.0149 98.828 91.0463 98.8071 91.1101 98.7539" stroke="#A54700" stroke-width="1.5" stroke-linecap="round"/>
<path d="M91.109 98.7591C90.7402 98.2743 90.6979 98.0213 90.6191 97.5326C90.5764 97.2678 90.603 96.8156 90.65 96.4848C90.6969 96.1541 90.7909 95.9555 90.928 95.7331C91.2216 95.2567 91.467 94.9914 91.5668 94.8968C91.7154 94.7561 91.9715 94.4651 92.3972 94.1228C92.616 93.9469 92.8751 93.8118 93.2494 93.6581C93.6237 93.5044 94.1142 93.3476 94.9619 93.1624C95.8095 92.9772 96.9993 92.7682 97.6488 92.6501C98.4883 92.4895 98.6357 92.4791 98.7671 92.4528C98.8359 92.437 98.9089 92.4161 99.0475 92.3945" stroke="#A54700" stroke-width="1.5" stroke-linecap="round"/>
<path d="M99.2697 92.5469C99.2697 92.5678 99.2906 92.8607 99.3379 93.3352C99.3669 93.6259 99.4279 93.9066 99.4435 94.2229C99.4532 94.4193 99.5436 94.6352 99.57 95.16C99.5885 95.5277 99.5651 96.1028 99.5493 96.4407C99.5295 96.8633 99.4911 97.0214 99.4755 97.1845C99.4563 97.3836 99.2084 97.8209 98.8037 98.453C98.6051 98.7631 98.3468 99.0014 98.1032 99.2142C97.6398 99.6188 97.2677 99.8082 97.0365 99.9133C96.9075 99.972 96.7636 100.06 96.4274 100.197C96.0912 100.334 95.5693 100.523 95.1909 100.63C94.6029 100.797 94.284 100.769 94.1262 100.753C93.9898 100.74 93.8308 100.738 93.4797 100.654C92.7927 100.49 92.3332 100.284 92.2543 100.236C92.0938 100.14 91.7766 99.7379 91.5531 99.4241C91.5214 99.3763 91.49 99.3345 91.4635 99.2973C91.4369 99.2601 91.416 99.2288 91.3945 99.1965" stroke="#A54700" stroke-width="1.5" stroke-linecap="round"/>
<path d="M32.5645 13.3049C32.6273 12.5584 32.8169 11.7206 33.0864 10.9939C33.4648 9.97367 34.056 8.54144 34.6409 7.47984C35.6793 5.59484 36.4029 4.8509 36.8015 4.51359C37.3802 4.02396 37.7364 3.47906 38.2141 3.09934C38.7248 2.69331 39.5747 2.1864 40.1195 1.76629C40.5047 1.46925 41.1329 1.16197 41.6116 0.957568C41.9549 0.810928 43.0017 0.863042 43.8332 0.970091C44.6208 1.07149 45.1352 1.45443 45.6591 1.67015C46.037 1.82575 46.4363 2.20741 47.0873 2.54512C47.4983 2.7583 47.8022 2.93615 48.1679 3.12439C48.6018 3.34771 49.3871 3.87656 49.8824 4.25506C50.2169 4.51067 50.3739 5.00763 50.7868 5.34574C51.3286 5.7894 51.6445 6.11286 51.9302 6.36937C52.3863 6.77881 52.8827 7.21646 53.2161 7.48712C53.4852 7.70563 53.7704 8.10517 54.0738 8.4562C54.3218 8.74325 54.942 9.42206 55.3596 9.92378C55.6773 10.2881 55.9306 10.5564 56.1059 10.8666C56.1535 10.9345 56.2164 10.9878 56.2811 11.0427" stroke="#A54700" stroke-width="1.5" stroke-linecap="round"/>
<path d="M56.9141 10.9263C57.9794 9.61011 58.6665 8.93982 59.2024 8.41881C59.7733 7.86388 61.2038 6.92475 62.1035 6.23217C62.871 5.64137 64.1232 4.76333 64.8328 4.14434C66.0121 3.11562 67.6073 2.49091 68.1903 2.25038C68.6213 2.07258 69.0209 1.78781 69.4453 1.60573C69.8845 1.41734 70.2763 1.28321 70.8561 1.08725C71.5629 0.890451 72.0645 0.834104 72.3934 0.820227C72.536 0.80635 72.6292 0.778595 72.7252 0.75" stroke="#A54700" stroke-width="1.5" stroke-linecap="round"/>
<path d="M72.7246 0.75C73.2547 0.806734 73.8507 1.14885 74.2841 1.451C75.1631 2.06367 76.1446 2.81131 76.609 3.16977C77.1441 3.58289 77.8028 4.09899 78.2208 4.53094C78.5472 4.86819 79.1301 5.84225 79.7484 7.02162C80.1493 7.78615 80.9935 8.68408 81.2267 9.32792C81.5577 10.2418 81.9911 11.2044 82.1734 11.8629C82.4893 12.7233 82.6896 13.7557 82.7723 14.3716C82.7892 14.6144 82.7892 14.9832 82.8889 15.4491" stroke="#A54700" stroke-width="1.5" stroke-linecap="round"/>
<path d="M15.0601 64.3697C14.7719 64.209 14.2556 63.9515 13.4038 63.693C12.699 63.4791 12.0975 63.0473 11.5976 62.7898C10.8015 62.3797 10.4209 62.0483 9.82529 61.6446C9.12387 61.1692 8.39235 60.695 7.66621 60.1766C6.89629 59.627 6.42568 59.21 5.86053 58.7245C5.27932 58.2253 4.5267 57.5024 3.99056 56.8533C3.31088 56.0305 2.68573 55.4327 2.37874 55.046C1.99684 54.5649 1.91221 54.2382 1.57331 53.9647C1.00236 53.504 1.04007 52.9487 0.959819 52.561C0.943382 52.4638 0.943382 52.3679 0.911474 52.2547C0.879566 52.1414 0.81575 52.0136 0.75 51.7852" stroke="#A54700" stroke-width="1.5" stroke-linecap="round"/>
<path d="M0.75 51.3969C1.23345 49.9467 1.48871 49.1104 1.87643 48.5915C2.46813 47.7997 2.81142 47.4298 3.27795 46.9782C3.63072 46.6368 4.19409 46.0756 4.95068 45.5601C6.25043 44.6745 7.86829 43.6216 8.59491 43.1066C10.0055 42.1068 11.382 41.4919 11.9481 41.2654C12.3415 41.108 12.9928 40.8143 13.5275 40.5718C14.0107 40.3526 14.478 40.2005 14.8652 40.0873C14.9624 40.0708 15.0581 40.0708 15.1553 40.0069C15.2525 39.943 15.3482 39.8152 15.4468 39.6836" stroke="#A54700" stroke-width="1.5" stroke-linecap="round"/>
<path d="M15.2643 39.5163C14.8875 38.8375 14.3869 38.0346 13.9448 37.2393C13.1957 35.8918 13.0504 35.3856 12.6607 34.7812C12.3428 34.2879 12.3708 33.4729 11.7807 32.0751C11.4213 31.2238 11.2623 30.6243 11.1245 30.0683C11.0012 29.571 10.7866 28.9113 10.4075 27.8276C10.2217 27.2964 10.2807 26.8187 10.1931 26.4263C10.045 25.763 9.95446 24.6021 9.89065 23.4556C9.83942 22.5352 9.87744 21.5252 9.95295 21.072C10.1025 20.8206 10.2051 20.5923 10.2176 20.4037C10.2301 20.3149 10.255 20.24 10.3562 20.0117" stroke="#A54700" stroke-width="1.5" stroke-linecap="round"/>
<path d="M10.207 19.8633C10.6843 19.5617 11.0361 19.26 11.6142 18.9697C12.0676 18.742 12.7442 18.5554 13.4143 18.1634C13.7523 17.9657 14.132 17.9733 14.5221 17.8981C14.9666 17.8124 15.3644 17.7465 15.7933 17.6713C15.9972 17.6355 17.2181 17.5953 18.9545 17.6078C19.8459 17.6959 20.2484 17.7465 20.6259 17.8093C20.7271 17.8221 20.8268 17.8221 20.9295 17.8221" stroke="#A54700" stroke-width="1.5" stroke-linecap="round"/>
<path d="M16.2868 85.7436C16.5143 85.7159 16.5929 85.7216 16.6757 85.739C16.8431 85.7844 17.0024 85.7954 17.1828 85.7907C17.6993 85.8759 18.5711 86.081 20.4044 85.7106C21.2649 85.5367 22.5951 85.2311 23.363 85.067C24.1308 84.9028 24.332 84.8876 24.8163 84.781C26.052 84.5091 26.8889 84.2702 27.6792 84.0751C28.3725 83.904 29.6301 83.6151 30.5611 83.3645C31.4921 83.1139 32.0898 82.9287 32.4625 82.7473C32.7049 82.6293 32.9252 82.5344 33.1657 82.4302" stroke="#A54700" stroke-width="1.5" stroke-linecap="round"/>
<path d="M16.1945 85.6937C15.8615 85.5079 15.1301 84.9094 14.7276 84.3769C13.832 83.192 13.8459 82.5375 13.3483 81.3597C12.8381 80.1519 12.7406 78.9984 12.6536 78.383C12.5896 77.931 12.5716 77.4991 12.6793 76.9834C12.7895 76.4559 12.7832 75.7712 12.8669 74.688C12.9936 73.047 13.3702 71.9594 13.4439 71.703C13.5932 71.183 13.9588 70.0066 14.2791 68.8704C14.3432 68.6433 14.5007 68.0538 14.6884 67.0161C15.0254 65.5516 15.0621 65.3025 15.1324 65.1787C15.1663 65.1107 15.1967 65.0324 15.2831 64.867" stroke="#A54700" stroke-width="1.5" stroke-linecap="round"/>
<path d="M91.5742 18.9697C92.0726 18.9697 92.5785 18.9198 93.6538 18.8442C94.4782 18.7862 95.8753 18.8185 96.7063 18.8559C98.3609 18.9304 99.1992 19.322 99.8399 19.5484C100.475 19.7727 101.187 20.1521 101.728 20.3925C102.691 20.8207 103.025 21.0608 103.29 21.2244C103.353 21.2626 103.428 21.2876 103.504 21.3378C103.58 21.3881 103.654 21.463 103.731 21.5401" stroke="#A54700" stroke-width="1.5" stroke-linecap="round"/>
<path d="M104.184 21.9922C104.434 22.3664 104.838 23.3258 104.876 23.7295C104.886 23.8311 104.914 23.9306 104.927 24.7179C104.939 25.5053 104.939 26.9772 104.877 28.197C104.815 29.4168 104.69 30.3399 104.626 30.9401C104.535 31.7874 104.338 32.6706 103.985 33.6779C103.71 34.4656 103.455 35.0179 103.291 35.5101C103.15 35.9348 102.627 36.8278 101.897 38.1398C101.039 39.6797 100.888 40.1345 100.674 40.5499C100.308 41.1181 100.258 41.4197 100.107 41.7096C100.057 41.8226 100.007 41.9973 99.8047 42.2528" stroke="#A54700" stroke-width="1.5" stroke-linecap="round"/>
<path d="M100.158 42.6797C100.482 43.1068 101.389 43.5597 102.457 44.1516C103.237 44.584 103.807 45.0475 104.458 45.6239C104.868 45.9877 105.556 46.6728 106.04 47.182C106.804 47.9865 107.179 48.4993 107.493 48.8384C107.856 49.2309 108.111 49.6832 108.411 50.1727C108.846 50.8812 109.568 51.8212 110.172 52.8281C110.753 53.7989 111.155 54.5684 111.459 55.2398C111.749 55.882 111.938 56.5627 112.088 56.9162C112.29 57.445 112.466 57.9492 112.579 58.2134C112.617 58.328 112.617 58.4028 112.693 58.4799" stroke="#A54700" stroke-width="1.5" stroke-linecap="round"/>
<path d="M112.692 58.5664C112.692 59.3935 112.393 61.0536 111.85 61.9657C111.423 62.6843 110.733 63.3246 109.813 64.1203C109.489 64.4005 108.871 64.888 108.004 65.4796C107.427 65.8727 106.606 66.4741 105.389 67.4421C104.765 67.9381 104.047 68.3353 103.414 68.6661C102.256 69.2704 101.543 69.5275 101.267 69.6659C100.606 69.9971 99.6344 70.4083 98.6999 70.8498C98.1402 71.1142 97.5171 71.2157 96.7869 71.43C96.1023 71.631 95.5523 71.7449 94.6232 71.9343C94.1095 72.0389 93.3157 72.2741 92.6206 72.4634C92.0788 72.6022 91.6258 72.7534 91.3234 72.7915C91.2475 72.804 91.1727 72.829 91.0957 72.8547" stroke="#A54700" stroke-width="1.5" stroke-linecap="round"/>
<path d="M74.2311 90.5293C74.1473 90.2056 74.1232 90.0382 74.0575 89.7742C73.9882 89.4954 73.8836 89.3058 73.7702 89.0247C73.6123 88.6338 73.524 88.3213 73.4821 88.2137C73.4332 88.088 73.3567 87.7949 73.1834 87.2688C72.8009 86.108 72.7687 85.8735 72.7446 85.6571C72.7143 85.3849 72.6486 85.1059 72.5292 84.4945C72.432 83.9968 72.3853 83.5806 72.1343 82.8988C71.9072 82.282 71.8214 82.0683 71.7617 81.8882C71.6965 81.6915 71.6063 81.2545 71.5637 80.8384C71.5337 80.5923 71.5099 80.2564 71.4858 79.9741C71.474 79.9193 71.4502 79.8956 71.4258 79.8711" stroke="#A54700" stroke-width="1.5" stroke-linecap="round"/>
<path d="M35.8134 77.7656C35.275 78.8103 34.7365 79.855 34.2691 80.9001C33.3595 82.9341 32.9984 84.3111 32.8871 85.0225C32.8235 85.4292 32.6808 85.9182 32.568 86.955C32.4552 87.9917 32.3602 89.5587 32.3904 90.919C32.4207 92.2794 32.579 93.3855 32.9298 94.7542C33.2806 96.1229 33.819 97.7206 34.4606 99.1121C35.1022 100.504 35.8306 101.64 36.4751 102.533C37.5952 104.085 38.4344 104.858 38.8654 105.184C39.2331 105.461 39.6504 105.635 40.0492 105.852C40.4498 106.07 42.0699 106.071 44.3709 105.963C45.822 105.895 46.5279 105.265 47.1019 104.679C47.48 104.293 47.8025 103.54 48.0141 102.607C48.2257 101.675 48.2574 100.538 48.0837 99.3532C47.91 98.1684 47.5299 96.9701 47.1283 95.4464C46.7266 93.9227 46.3149 92.1099 46.0553 91.0838C45.5775 89.1957 45.2189 87.9796 44.9799 87.3274C44.6997 86.5628 44.7716 85.961 44.7073 85.5881C44.4837 85.0923 44.3234 84.4713 44.2913 83.6543C44.2908 83.0216 44.3224 81.9462 44.4511 80.652" stroke="#A54700" stroke-width="1.5" stroke-linecap="round"/>
<path d="M74.4355 78.6063C75.3344 78.7699 76.5329 78.8542 77.9332 78.8133C79.1756 78.777 80.7808 78.32 83.2068 77.7021C84.6054 77.3458 86.3683 77.0023 87.3347 76.7922C88.4266 76.5548 89.8164 76.4991 91.8172 76.5195C93.1476 76.5331 94.1981 77.4039 95.1706 78.4991C95.6979 79.0929 95.9363 79.5955 96.1839 80.4601C96.5563 81.7601 95.8583 83.1468 95.199 83.9922C94.6601 84.6833 94.2884 85.1747 93.3252 85.6266C91.2985 86.5772 89.7892 87.1171 88.8885 87.4661C86.7235 88.3048 84.9618 88.6877 84.4678 88.7905C82.8989 89.1173 80.9182 89.3905 80.1339 89.4934C79.3892 89.5554 76.7706 89.6384 75.1803 89.5151C75.0558 89.4735 74.9333 89.4326 74.807 89.3905" stroke="#A54700" stroke-width="1.5" stroke-linecap="round"/>
<path d="M91.0977 76.3939C91.1042 76.0124 91.1096 75.6593 91.114 75.3527C91.1344 73.9353 91.1344 73.5262 91.1344 73.1172" stroke="#A54700" stroke-width="1.5" stroke-linecap="round"/>
<path d="M75.2871 91.2103C75.4555 91.2524 75.6189 91.2933 75.7638 91.3559C75.9086 91.4185 76.0312 91.5003 76.1767 91.5412C76.8595 91.6664 77.5242 91.7631 80.3293 91.9751C81.1495 92.0371 82.2849 92.1795 83.7334 92.0569C84.9492 91.954 86.6814 91.7459 87.7325 90.9611C88.458 90.4194 89.0576 89.3967 89.3407 88.562C89.4821 88.1452 89.5464 87.7804 89.6014 87.4141" stroke="#A54700" stroke-width="1.5" stroke-linecap="round"/>
<path d="M42.0007 110.541C41.7947 110.07 41.7354 109.307 41.662 108.596C41.647 108.098 41.6178 107.709 41.5736 107.489C41.5586 107.356 41.5586 107.181 41.5586 107" stroke="#A54700" stroke-width="1.5" stroke-linecap="round"/>
<path d="M46.4199 90.359C47.9196 89.0328 48.8056 88.5017 49.2477 88.2206C49.9437 87.7781 50.956 87.3792 51.5015 87.3198C52.0752 87.2575 53.3955 87.172 54.8983 87.2012C56.0264 87.2231 57.1155 87.7616 58.8198 88.4663C60.3827 89.1125 61.449 89.9438 61.9053 90.2828C62.1987 90.5008 62.6277 90.8282 63.2303 91.5191C64.5 92.975 64.9267 93.9248 65.3259 94.8698C65.8435 96.095 66.0479 97.0215 66.2994 97.7784C66.4616 98.2662 66.7552 98.9708 66.86 99.5197C66.987 100.185 67.2274 101.299 67.4343 102.219C67.5969 102.941 67.5528 103.723 67.6262 104.27C67.6634 104.548 67.6996 105.051 67.788 106.137C67.8181 107.983 67.7889 109.214 67.7447 109.391C67.7297 109.48 67.7297 109.567 67.6412 109.835" stroke="#A54700" stroke-width="1.5" stroke-linecap="round"/>
</svg>
