<svg width="64" height="64" viewBox="0 0 64 64" fill="none" xmlns="http://www.w3.org/2000/svg">
<path d="M32 23.5C34.21 23.5 36 21.71 36 19.5V14C36 11.79 34.21 10 32 10C29.79 10 28 11.79 28 14V19.5C28 21.71 29.79 23.5 32 23.5Z" stroke="#9D9793" stroke-width="1.5" stroke-linecap="round" stroke-linejoin="round"/>
<path d="M24.3496 17.6484V19.3484C24.3496 23.5684 27.7796 26.9984 31.9996 26.9984C36.2196 26.9984 39.6496 23.5684 39.6496 19.3484V17.6484" stroke="#9D9793" stroke-width="1.5" stroke-linecap="round" stroke-linejoin="round"/>
<path d="M30.6094 14.4311C31.5094 14.1011 32.4894 14.1011 33.3894 14.4311" stroke="#9D9793" stroke-width="1.5" stroke-linecap="round" stroke-linejoin="round"/>
<path d="M31.1992 16.5503C31.7292 16.4103 32.2792 16.4103 32.8092 16.5503" stroke="#9D9793" stroke-width="1.5" stroke-linecap="round" stroke-linejoin="round"/>
<path d="M32 27V30" stroke="#9D9793" stroke-width="1.5" stroke-linecap="round" stroke-linejoin="round"/>
<path d="M18.7567 40.458C20.0914 40.458 21.1134 40.6493 21.8227 41.032C22.5414 41.4053 22.9007 41.9887 22.9007 42.782C22.9007 43.5753 22.5414 44.1633 21.8227 44.546C21.1134 44.9193 20.0914 45.106 18.7567 45.106C17.4221 45.106 16.3954 44.9193 15.6767 44.546C14.9674 44.1633 14.6127 43.5753 14.6127 42.782C14.6127 41.9887 14.9674 41.4053 15.6767 41.032C16.3954 40.6493 17.4221 40.458 18.7567 40.458ZM18.7567 41.298C17.6834 41.298 16.8947 41.424 16.3907 41.676C15.8867 41.928 15.6347 42.2967 15.6347 42.782C15.6347 43.2673 15.8867 43.636 16.3907 43.888C16.8947 44.14 17.6834 44.266 18.7567 44.266C19.8301 44.266 20.6187 44.14 21.1227 43.888C21.6267 43.636 21.8787 43.2673 21.8787 42.782C21.8787 42.2967 21.6267 41.928 21.1227 41.676C20.6187 41.424 19.8301 41.298 18.7567 41.298ZM24.2447 46.324C24.3661 46.324 24.4547 46.366 24.5107 46.45C24.5667 46.534 24.5947 46.6367 24.5947 46.758C24.5947 46.8887 24.5667 46.996 24.5107 47.08C24.4547 47.164 24.3661 47.206 24.2447 47.206H13.2687C13.1474 47.206 13.0587 47.164 13.0027 47.08C12.9467 46.996 12.9187 46.8887 12.9187 46.758C12.9187 46.6367 12.9467 46.534 13.0027 46.45C13.0587 46.366 13.1474 46.324 13.2687 46.324H24.2447ZM21.9627 48.62C22.3267 48.62 22.5787 48.69 22.7187 48.83C22.8587 48.9607 22.9287 49.2033 22.9287 49.558V51.98C22.9287 52.3347 22.8587 52.5773 22.7187 52.708C22.5787 52.848 22.3267 52.918 21.9627 52.918H15.5507C15.1867 52.918 14.9347 52.848 14.7947 52.708C14.6547 52.5773 14.5847 52.3347 14.5847 51.98V49.558C14.5847 49.2033 14.6547 48.9607 14.7947 48.83C14.9347 48.69 15.1867 48.62 15.5507 48.62H21.9627ZM15.8587 49.474C15.6814 49.474 15.5927 49.558 15.5927 49.726V51.812C15.5927 51.98 15.6814 52.064 15.8587 52.064H21.6547C21.8321 52.064 21.9207 51.98 21.9207 51.812V49.726C21.9207 49.558 21.8321 49.474 21.6547 49.474H15.8587ZM31.4989 40.696C31.6296 40.696 31.7462 40.7333 31.8489 40.808C31.9609 40.8733 32.0169 40.9807 32.0169 41.13V41.998C32.0169 42.334 32.0356 42.628 32.0729 42.88C32.1196 43.1227 32.1942 43.3467 32.2969 43.552C32.3996 43.7573 32.5442 43.9487 32.7309 44.126C32.9176 44.294 33.1509 44.4713 33.4309 44.658C33.8509 44.9287 34.2896 45.204 34.7469 45.484C35.2136 45.7547 35.7082 46.0347 36.2309 46.324C36.3336 46.38 36.3896 46.4733 36.3989 46.604C36.4082 46.7253 36.3802 46.8373 36.3149 46.94C36.2496 47.052 36.1609 47.1313 36.0489 47.178C35.9369 47.2153 35.8296 47.206 35.7269 47.15C35.2882 46.9073 34.8309 46.6507 34.3549 46.38C33.8882 46.1 33.4542 45.8293 33.0529 45.568C32.5302 45.232 32.1569 44.9427 31.9329 44.7C31.7089 44.448 31.5689 44.2287 31.5129 44.042H31.4989C31.4429 44.238 31.3029 44.462 31.0789 44.714C30.8549 44.9567 30.4816 45.246 29.9589 45.582C29.5482 45.8433 29.1096 46.114 28.6429 46.394C28.1762 46.6647 27.7236 46.9213 27.2849 47.164C27.1729 47.22 27.0609 47.2293 26.9489 47.192C26.8462 47.1453 26.7576 47.066 26.6829 46.954C26.6176 46.8513 26.5896 46.7347 26.5989 46.604C26.6082 46.4733 26.6642 46.38 26.7669 46.324C27.2896 46.0347 27.7796 45.7547 28.2369 45.484C28.7036 45.204 29.1469 44.9287 29.5669 44.658C29.8469 44.4713 30.0802 44.294 30.2669 44.126C30.4536 43.9487 30.5982 43.7573 30.7009 43.552C30.8036 43.3467 30.8736 43.1227 30.9109 42.88C30.9576 42.628 30.9809 42.334 30.9809 41.998V41.13C30.9809 40.9807 31.0322 40.8733 31.1349 40.808C31.2469 40.7333 31.3682 40.696 31.4989 40.696ZM31.4989 47.08C31.6296 47.08 31.7462 47.1127 31.8489 47.178C31.9609 47.2433 32.0169 47.3507 32.0169 47.5V49.964H36.9729C37.1036 49.964 37.1969 50.006 37.2529 50.09C37.3089 50.174 37.3369 50.2813 37.3369 50.412C37.3369 50.5333 37.3089 50.636 37.2529 50.72C37.1969 50.804 37.1036 50.846 36.9729 50.846H26.0249C25.8942 50.846 25.8009 50.804 25.7449 50.72C25.6889 50.636 25.6609 50.5333 25.6609 50.412C25.6609 50.2813 25.6889 50.174 25.7449 50.09C25.8009 50.006 25.8942 49.964 26.0249 49.964H30.9949V47.5C30.9949 47.3507 31.0462 47.2433 31.1489 47.178C31.2516 47.1127 31.3682 47.08 31.4989 47.08ZM43.7091 41.158C44.0731 41.158 44.3251 41.228 44.4651 41.368C44.6051 41.4987 44.6751 41.7413 44.6751 42.096V43.65C44.6751 44.0513 44.6518 44.406 44.6051 44.714C44.5584 45.022 44.4698 45.316 44.3391 45.596C44.2178 45.8667 44.0404 46.1327 43.8071 46.394C43.5831 46.6553 43.2844 46.9307 42.9111 47.22C42.5471 47.5093 42.0991 47.8267 41.5671 48.172C41.0444 48.5173 40.4238 48.914 39.7051 49.362C39.6024 49.4273 39.4904 49.4413 39.3691 49.404C39.2571 49.3667 39.1638 49.2967 39.0891 49.194C39.0144 49.0913 38.9818 48.9747 38.9911 48.844C39.0004 48.7133 39.0611 48.6107 39.1731 48.536C39.8451 48.1253 40.4238 47.766 40.9091 47.458C41.3944 47.1407 41.8051 46.856 42.1411 46.604C42.4771 46.3427 42.7431 46.1047 42.9391 45.89C43.1444 45.666 43.2984 45.442 43.4011 45.218C43.5131 44.9847 43.5831 44.742 43.6111 44.49C43.6484 44.2287 43.6671 43.9347 43.6671 43.608V42.306C43.6671 42.138 43.5784 42.054 43.4011 42.054H39.4951C39.3644 42.054 39.2711 42.012 39.2151 41.928C39.1591 41.8347 39.1311 41.7273 39.1311 41.606C39.1311 41.4847 39.1591 41.382 39.2151 41.298C39.2711 41.2047 39.3644 41.158 39.4951 41.158H43.7091ZM48.3711 40.164C48.5018 40.164 48.6184 40.1967 48.7211 40.262C48.8238 40.3273 48.8751 40.4347 48.8751 40.584V51.728C48.8751 51.8773 48.8238 51.9847 48.7211 52.05C48.6184 52.1153 48.5018 52.148 48.3711 52.148C48.2404 52.148 48.1238 52.1153 48.0211 52.05C47.9184 51.9847 47.8671 51.8773 47.8671 51.728V45.442H44.2131V44.56H47.8671V40.584C47.8671 40.4347 47.9184 40.3273 48.0211 40.262C48.1238 40.1967 48.2404 40.164 48.3711 40.164Z" fill="#9D9793"/>
</svg>
