<svg width="26" height="26" viewBox="0 0 26 26" fill="none" xmlns="http://www.w3.org/2000/svg">
<path d="M13.0293 1.57031L16.9792 7.98516L24.442 9.67443L19.4204 15.3283L20.0827 22.7872L13.0293 19.8666L5.97587 22.7872L6.6382 15.3283L1.61662 9.67443L9.07938 7.98516L13.0293 1.57031Z" fill="#FBDCA1"/>
<path d="M19.9371 14.3047C19.6952 14.5194 19.5363 14.6356 19.4004 14.76" stroke="#D97E68" stroke-width="2.05714" stroke-linecap="round"/>
<path d="M8.33594 8.06171C8.6675 7.2865 8.92713 6.86289 9.22337 6.39035C9.35336 6.18301 9.59069 5.74921 10.023 5.07334C10.2472 4.72283 10.4554 4.34155 10.7518 3.86054C11.0483 3.37953 11.4202 2.80638 11.6976 2.40628C12.3163 1.51383 12.4673 1.39745 12.6621 1.24919C12.8232 1.12661 12.9874 1.10092 13.1534 1.03696C13.2011 1.01859 13.2613 1.02976 13.3123 1.04374C13.4116 1.071 13.5218 1.21233 13.7232 1.52136C14.0615 2.04065 14.4164 2.63694 14.7196 3.06712C14.904 3.32871 15.067 3.69597 15.3695 4.26594C15.7311 4.9471 15.8918 5.42049 15.9921 5.71511C16.2013 6.32942 16.4548 6.80401 16.5558 7.00819C16.7579 7.41681 16.8163 7.77789 16.8741 7.97635C16.8867 8.01951 16.903 8.06086 16.9389 8.08247C17.108 8.18399 17.3641 8.17439 17.5886 8.19578C17.9 8.22545 18.4737 8.28707 18.9676 8.40717C19.2834 8.48398 19.6608 8.54166 19.9711 8.57682C20.1583 8.59803 20.5836 8.71068 21.2257 8.81638C21.6574 8.88743 22.0299 8.9513 22.405 8.95829C22.9933 8.96925 23.5334 9.26138 23.7218 9.29717C23.8958 9.33026 24.0254 9.34653 24.1118 9.43061C24.1713 9.48846 24.1983 9.62653 24.199 9.74726C24.2002 9.98346 23.9123 10.4585 23.4801 11.128C23.0848 11.7405 22.6683 11.9865 22.4887 12.1693C22.2034 12.4595 21.6598 12.832 21.1399 13.22C20.7593 13.5041 20.3305 13.9609 19.9384 14.3089" stroke="#D97E68" stroke-width="2.05714" stroke-linecap="round"/>
<path d="M12.9727 19.9648C12.3147 20.2724 11.6182 20.5986 11.0335 20.8807C10.7124 21.0357 10.7435 21.0182 10.0868 21.272C9.6587 21.4374 9.23991 21.668 8.77788 21.8654C8.5264 21.9729 8.14248 22.2043 7.57232 22.4441C7.01744 22.6774 6.7382 22.8406 6.47858 22.9537C6.39146 23.01 6.30478 23.0388 6.19664 23.0528C6.14571 23.0668 6.1028 23.0948 6.05859 23.1236" stroke="#D97E68" stroke-width="2.05714" stroke-linecap="round"/>
<path d="M5.70908 22.9517C5.65187 22.7281 5.6224 22.3053 5.65816 21.6856C5.69437 21.058 5.86772 20.5113 5.92536 20.0953C5.96595 19.8024 6.05539 19.2985 6.14186 18.6426C6.23404 17.9432 6.35922 17.4185 6.40234 17.1913C6.4459 16.9797 6.46021 16.7395 6.48188 16.5427C6.48925 16.4158 6.48925 16.2341 6.48925 16.0469" stroke="#D97E68" stroke-width="2.05714" stroke-linecap="round"/>
<path d="M8.2081 8.05859C7.40714 8.19839 6.8801 8.29836 6.67812 8.3547C6.52829 8.39649 6.31708 8.4678 5.42077 8.69888C4.6785 8.89025 3.36591 9.27944 2.66659 9.48786C1.80165 9.74563 1.5204 9.85132 1.28137 9.91528C1.23044 9.92248 1.18753 9.92248 1.15113 9.93646C1.11472 9.95044 1.08611 9.9784 1.05664 10.0072" stroke="#D97E68" stroke-width="2.05714" stroke-linecap="round"/>
<path d="M1.0293 9.94531C1.08651 10.1703 1.28848 10.4808 1.68507 11.0164C1.81456 11.1913 2.15359 11.5516 2.59373 12.1089C3.00278 12.6268 3.35331 12.8809 3.95208 13.4937C4.75629 14.2373 5.01505 14.5186 5.32559 14.8573C5.49051 15.0257 5.79087 15.3193 6.10034 15.6217" stroke="#D97E68" stroke-width="2.05714" stroke-linecap="round"/>
<path d="M13.4453 19.9375C13.692 20.0034 13.9387 20.0693 14.2006 20.1459C14.4624 20.2224 14.7319 20.3076 15.2739 20.514C15.816 20.7205 16.6224 21.0456 17.136 21.2409C17.6495 21.4362 17.8457 21.4918 18.0572 21.5717C18.2687 21.6516 18.4897 21.7541 18.669 21.8266C19.1462 22.0195 19.2894 22.0226 19.3786 22.0619C19.401 22.071 19.4227 22.0764 19.4415 22.0856C19.4603 22.0948 20.7305 22.503 20.7461 22.5162" stroke="#D97E68" stroke-width="2.05714" stroke-linecap="round"/>
<path d="M19.377 14.7344C19.5237 15.2447 19.5966 15.5312 19.6795 15.8184C19.711 15.9277 19.8165 16.3092 19.9631 16.8736C20.0513 17.2134 20.1565 17.5478 20.2115 17.9374C20.245 18.1746 20.2575 18.3917 20.3033 18.6778C20.3544 18.9966 20.3767 19.2886 20.4362 19.5034C20.485 19.6791 20.5143 19.8627 20.583 20.1394C20.6892 20.5673 20.6706 20.9032 20.6797 21.0285C20.689 21.1562 20.7257 21.5728 20.7075 22.1242C20.6893 22.3204 20.653 22.3471 20.6116 22.3608C20.5702 22.3745 20.5247 22.3745 20.4229 22.3476" stroke="#D97E68" stroke-width="2.05714" stroke-linecap="round"/>
</svg>
