<svg width="62" height="45" viewBox="0 0 62 45" fill="none" xmlns="http://www.w3.org/2000/svg">
<path d="M32.8089 32.9924C32.0091 38.977 35.3154 38.977 38.4073 38.977C41.4992 38.977 43.2059 38.0075 43.2059 34.7023C43.2059 31.3971 41.4992 27.0078 38.4073 27.0078C35.3154 27.0078 32.8089 29.6872 32.8089 32.9924Z" fill="#F5DCC5"/>
<path d="M27.391 21.2737C33.9603 26.19 39.145 28.3273 40.0064 27.012C40.8678 25.6967 37.0797 21.4268 30.5105 16.5105C23.9412 11.5942 17.6137 5.63471 17.0561 9.99043C13.6143 10.7628 20.8218 16.3574 27.391 21.2737Z" fill="#FFD342"/>
<path d="M20.2366 29.0376C26.8059 33.9539 33.6065 41.5365 32.852 34.7759C33.7134 33.4606 29.9253 29.1907 23.356 24.2744C16.7868 19.3581 11.7744 14.1013 11.2168 18.457C7.775 19.2293 13.6674 24.1213 20.2366 29.0376Z" fill="#FFD342"/>
<path d="M23.4228 25.6477C29.992 30.5639 33.6092 32.9888 36.0382 31.386C37.608 29.569 34.5811 25.9342 28.0119 21.0179C21.4426 16.1017 16.0134 9.05222 13.0878 14.3644C9.64599 15.1367 16.8535 20.7314 23.4228 25.6477Z" fill="#FFF1C4"/>
<path d="M5.84343 8.35772C3.9913 11.5746 4.19397 15.3036 6.29609 16.6867C8.39821 18.0697 8.56342 13.9803 10.4155 10.7633C12.2677 7.54642 15.1053 6.4202 13.0032 5.03717C10.9011 3.65414 7.69555 5.1408 5.84343 8.35772Z" fill="#FF9595"/>
<rect width="3.18811" height="14.2569" transform="matrix(-0.802293 -0.59693 -0.545634 0.838024 17.6375 7.87109)" fill="#BBBBBB"/>
<ellipse cx="2.39931" cy="3.41977" rx="2.39931" ry="3.41977" transform="matrix(-1 0 0 1 44.0047 32.1367)" fill="#564D4D"/>
<path d="M24.5155 11.4972C21.1976 8.86762 20.0236 8.03747 19.3156 7.56417C18.629 7.10513 18.3688 6.98003 18.2517 6.90853C18.1191 6.82741 17.955 6.70163 17.7229 6.52146C17.6936 6.49867 17.6632 6.4776 17.6325 6.45863C17.5654 6.2674 17.4453 6.09383 17.2781 5.96392C17.2119 5.9125 17.1462 5.86144 16.8812 5.66195C16.6241 5.46849 16.1341 5.10084 15.7469 4.84803C15.1646 4.46791 14.6189 4.22065 14.5575 4.18629C14.3784 4.08567 14.1753 4.01604 14.0508 3.97307C13.8986 3.92052 13.7667 3.87672 13.6195 3.81713C13.426 3.73879 13.2281 3.6775 13.0729 3.62969C12.9039 3.5776 12.7779 3.5386 12.6631 3.49413C12.5272 3.4415 12.3404 3.36295 12.1379 3.30978C11.9765 3.26743 11.5865 3.16067 11.0814 3.1151C10.8863 3.09752 10.7305 3.10322 10.6229 3.10836C10.5637 3.11119 10.5427 3.11218 10.5174 3.11281C10.5102 3.11298 10.5063 3.1132 10.5053 3.11328L10.5197 3.1146L10.3425 3.1066C10.167 3.10832 9.99923 3.13558 9.85851 3.16518C9.65884 3.2072 9.43962 3.27093 9.21022 3.34421C8.86163 3.45556 8.51079 3.64952 8.26838 3.78886C7.96844 3.96127 7.71973 4.13845 7.41816 4.39348C7.13068 4.63661 6.79248 4.95331 6.58605 5.15528C6.2851 5.44975 6.16585 5.5804 5.9196 5.81372C5.70306 6.01889 5.49483 6.28676 5.25461 6.61396C4.99972 6.96114 4.67751 7.43497 4.47896 7.74531C4.14335 8.26993 3.99681 8.71156 3.88403 9.12923C3.82221 9.35825 3.79809 9.59247 3.78246 9.74008C3.76404 9.91406 3.75255 10.0264 3.73036 10.1376C3.63453 10.6182 3.65643 11.2091 3.65184 11.3216C3.63326 11.7769 3.62939 12.3848 3.6477 12.7447C3.66268 13.0384 3.75873 13.5842 3.87133 14.2175C3.97156 14.7809 4.26231 15.2528 4.38885 15.4779C4.5508 15.7661 4.6922 16.0006 4.80037 16.1799C4.92014 16.3784 4.97116 16.4653 4.99432 16.5118C5.19187 16.9085 5.45012 17.1444 5.56473 17.2643C5.59207 17.293 5.64615 17.3601 5.77318 17.5211C5.88497 17.6629 6.03153 17.8479 6.20209 18.0466C6.52818 18.4264 6.91951 18.8464 7.13912 19.0763C7.47013 19.4228 7.67524 19.6301 8.01955 19.9621L8.04281 19.9851L8.06772 20.0057C8.26234 20.1713 8.57177 20.411 8.75329 20.5453C8.96593 20.7026 9.04438 20.7457 9.1247 20.7929C9.16813 20.8184 9.21298 20.8388 9.25797 20.8569C9.30582 20.9939 9.37973 21.124 9.48238 21.2359C9.48954 21.2437 9.49703 21.2521 9.50708 21.2637C9.51425 21.272 9.53508 21.2956 9.55163 21.3143C9.59686 21.3655 9.65122 21.424 9.72505 21.4909C9.78592 21.546 9.85718 21.6047 9.90569 21.6447C9.96303 21.692 10.0064 21.7278 10.043 21.7599C10.1734 21.8745 10.2828 21.9786 13.2701 24.3182C16.2746 26.6713 22.0182 31.1509 24.953 33.4605C27.8784 35.7626 27.9889 35.8887 28.6966 36.4691C29.4104 37.0545 30.67 38.0532 31.3125 38.5516C31.4287 38.6417 31.5284 38.7158 31.6125 38.7796C31.7478 38.9965 31.9554 39.1644 32.2106 39.2328C32.4284 39.2911 32.6343 39.3193 32.7179 39.3342L32.7184 39.3334C33.1151 39.4098 33.8609 39.4501 34.6603 39.4528L34.6737 39.4521L34.6866 39.4523C34.9759 39.4449 35.2475 39.4594 35.537 39.477C35.8147 39.4939 36.1325 39.5151 36.4502 39.5098C36.7355 39.505 37.2921 39.5646 38.3975 39.446C39.2822 39.351 40.7914 39.143 41.6021 39.0231C42.369 38.9098 42.6187 38.8699 42.9182 38.7456C43.4322 38.5322 43.9576 38.1417 44.4438 37.6758C44.6221 37.5383 44.7566 37.3355 44.8138 37.0895C44.8398 36.9776 44.8585 36.8467 44.8543 36.7003C44.8501 36.551 44.8225 36.4342 44.8064 36.3719L44.8008 36.349L44.7938 36.3263C44.7938 36.3263 44.7906 36.3131 44.7818 36.2677C44.7773 36.2446 44.7721 36.2187 44.7658 36.1837C44.7598 36.1502 44.7525 36.1086 44.7442 36.0645L44.7253 35.9659L44.6901 35.872C44.5166 35.4166 44.4609 35.1616 44.1309 34.2115C43.9917 33.8106 43.8415 33.4286 43.5146 32.4634C43.1873 31.4971 42.7578 30.1691 42.4656 29.2987C42.3227 28.873 42.2225 28.5911 42.1463 28.3796C42.0679 28.1623 42.0265 28.0493 41.9891 27.9294C41.8062 27.3438 41.6162 26.652 41.4148 25.887C41.3928 25.8034 41.3617 25.7249 41.3235 25.652C41.2807 25.3861 41.1426 25.1354 40.92 24.9625C40.6935 24.7867 40.4456 24.5933 40.1983 24.3825C40.1126 24.3094 39.9804 24.1816 39.7443 23.9598C39.5242 23.7529 39.2455 23.496 38.9187 23.2152C38.6763 23.0069 38.5749 22.8752 35.8581 20.653C33.1508 18.4384 27.8327 14.1262 24.5155 11.4972ZM19.1257 22.9084C22.0316 25.2058 26.6839 28.9364 29.1794 30.9265C30.4309 31.9246 31.1372 32.4819 31.572 32.8209C31.5751 32.9487 31.5856 33.0655 31.5967 33.1609C31.621 33.3698 31.6606 33.5943 31.6893 33.7634C31.7215 33.9526 31.7426 34.0885 31.7509 34.1948C31.7771 34.5315 31.8106 34.8439 31.8308 35.0588C31.8415 35.1727 31.8485 35.259 31.8521 35.3258C31.8543 35.3678 31.8545 35.3911 31.8544 35.4004L31.8462 35.494L31.8543 35.5879C31.8885 35.9902 31.8984 36.2301 31.9019 36.4145C31.2514 35.9025 30.4147 35.2385 29.8906 34.8087C29.1888 34.2331 29.0603 34.0918 26.1151 31.7741C23.1787 29.4633 17.4252 24.976 14.4284 22.6288C11.418 20.2711 11.366 20.2111 11.2909 20.1451C11.225 20.0872 11.1546 20.0293 11.1043 19.9879C11.0453 19.9392 11.0141 19.9128 10.9965 19.8968C10.9941 19.8946 10.9928 19.8929 10.9924 19.8924C10.9918 19.8917 10.99 19.8902 10.9876 19.8874C10.9792 19.8779 10.9757 19.8733 10.956 19.8506C10.9417 19.8341 10.9234 19.8125 10.9015 19.7886C11.0787 19.5363 11.313 19.1997 11.647 18.7189C11.8485 18.4289 12.0855 18.0856 12.3398 17.7182C12.9118 18.162 13.4486 18.5789 13.7535 18.8094C14.1004 19.0718 14.1817 19.1204 14.6908 19.4902C15.2185 19.8735 16.2239 20.6142 19.1257 22.9084ZM16.2186 7.72129C16.2378 7.77607 16.262 7.82887 16.2897 7.88017C16.2411 7.95266 16.1897 8.02633 16.1461 8.09684L16.1378 8.10895L16.1312 8.12227C16.0694 8.22871 15.8261 8.61693 15.5858 9.04992L15.3891 9.37592C15.3311 9.47352 15.288 9.5461 15.2479 9.60806C15.1683 9.73074 15.0915 9.86669 15.0212 9.98854C14.9459 10.1192 14.8535 10.2767 14.7212 10.4873C14.6181 10.6516 14.478 10.8692 14.3317 11.0955C14.1879 11.3177 14.0374 11.5497 13.9235 11.731C13.7037 12.0809 13.6393 12.2088 12.9175 13.2709C12.1865 14.3463 10.8352 16.3012 10.0407 17.4448C9.74384 17.8721 9.52623 18.1836 9.35855 18.4229C9.34271 18.4098 9.32701 18.3981 9.31282 18.3862C9.00782 18.0916 8.82365 17.9076 8.51871 17.5883C8.3969 17.4608 8.22239 17.2712 8.03864 17.0688L14.9997 6.82198C15.2667 7.00948 15.5563 7.22667 15.7546 7.37587C16.0143 7.57136 16.0712 7.61552 16.1268 7.65867C16.1565 7.68175 16.1874 7.70213 16.2186 7.72129ZM39.8646 27.7422C39.9457 28.0272 40.0244 28.3006 40.1047 28.5578C40.1602 28.7355 40.2219 28.9036 40.2926 29.0998C40.3655 29.3019 40.4606 29.5675 40.5965 29.9723C40.6666 30.1811 40.7513 30.4354 40.8431 30.7141C40.4387 31.3275 40.0667 31.974 39.7845 32.5412C39.6755 32.7603 39.5234 33.026 39.4118 33.3031C39.286 33.6158 39.14 33.8367 38.9782 34.1114L38.9652 34.1322L38.9533 34.155C38.6069 34.8135 38.4271 35.1195 38.1715 35.5555L37.845 36.0535C37.7172 36.2442 37.5739 36.456 37.424 36.6767C37.2757 36.8951 37.2203 37.1552 37.2478 37.406C36.8986 37.4126 36.677 37.3957 36.3796 37.4007C36.1508 37.4045 35.916 37.3893 35.6116 37.3709C35.3257 37.3535 34.9937 37.3354 34.6275 37.3435L34.6268 37.3429C34.3243 37.3419 34.0537 37.3335 33.8233 37.3237C33.8803 37.1665 33.9011 36.9915 33.8789 36.8117C33.8794 36.8081 33.8798 36.8034 33.8803 36.7992C33.8813 36.7918 33.8826 36.783 33.8837 36.7734L33.8907 36.7111L33.8904 36.6491C33.8905 36.3805 33.8862 36.0831 33.8387 35.506C33.8438 35.2962 33.8234 35.0658 33.8069 34.8903C33.783 34.6357 33.7543 34.3758 33.7299 34.0618C33.7126 33.8403 33.6747 33.6098 33.6439 33.4288C33.6364 33.3846 33.6314 33.3424 33.6247 33.3028C33.677 33.3004 33.7345 33.2964 33.7958 33.2937C34.0743 33.2817 34.7775 33.2775 35.1761 33.2425C35.4263 33.2205 35.6071 33.2127 35.7437 33.2082C35.8532 33.2045 36.0154 33.2017 36.1346 33.1896C36.1931 33.1836 36.4824 33.1582 36.7402 32.912C36.9725 32.6899 37.0456 32.4189 37.0725 32.2928C37.1237 32.0526 37.1206 31.7539 37.1096 31.4542C37.0857 30.8021 37.0013 29.5788 36.9272 28.9079C36.9175 28.8202 36.908 28.7343 36.8989 28.6564C37.0296 28.5974 37.1812 28.5315 37.3591 28.4647C37.7297 28.3255 37.9194 28.313 38.3653 28.1872C38.8079 28.0623 39.335 27.9019 39.8646 27.7422ZM6.67925 15.4312C6.61332 15.3124 6.53579 15.1827 6.46598 15.067C6.35921 14.89 6.23355 14.6796 6.08934 14.423C5.90045 14.0868 5.8419 13.9744 5.82247 13.8654C5.69457 13.1461 5.63613 12.7866 5.63026 12.6724C5.61668 12.4058 5.6186 11.8715 5.63565 11.4539C5.63955 11.3584 5.64078 11.2626 5.64099 11.1841C5.64122 11.0997 5.64086 11.0298 5.64245 10.9582C5.64559 10.8183 5.65479 10.7094 5.67385 10.6137C5.71992 10.3827 5.74078 10.1585 5.75586 10.016C5.77364 9.84807 5.78433 9.78434 5.794 9.74829C5.87442 9.45042 5.94932 9.23419 6.12842 8.95424C6.30564 8.67724 6.60275 8.23982 6.82921 7.93133C7.07047 7.60272 7.18469 7.46883 7.25732 7.40001C7.50454 7.16577 7.71804 6.94476 7.94805 6.7197C8.13374 6.53804 8.43433 6.25643 8.67359 6.05407C8.89895 5.8635 9.05353 5.75585 9.24003 5.64865C9.48375 5.50856 9.67821 5.40902 9.81561 5.36506C10.0197 5.29987 10.1709 5.25834 10.2809 5.23519C10.3418 5.22238 10.3765 5.21859 10.3897 5.21725L10.3716 5.21434L10.6029 5.22242C10.6569 5.22107 10.7201 5.217 10.7514 5.21551C10.8257 5.21196 10.8822 5.21153 10.9513 5.21774C11.2864 5.24795 11.5436 5.31697 11.6967 5.35714C11.7622 5.37435 11.8001 5.39144 12.0151 5.47473C12.2068 5.54901 12.4036 5.60889 12.5545 5.65538C12.7192 5.70612 12.8396 5.74398 12.944 5.78623C13.0233 5.81833 13.1011 5.84544 13.1734 5.87176L6.67925 15.4312ZM41.6924 33.2709C41.9833 34.1241 42.1757 34.6374 42.2693 34.907C42.4825 35.5208 42.6278 35.9875 42.7682 36.3874C42.5242 36.5852 42.3175 36.714 42.1635 36.7779C42.1256 36.7938 42.135 36.8079 41.2902 36.9328C40.8444 36.9987 40.191 37.09 39.553 37.1746C39.6561 37.0195 39.7511 36.8762 39.8292 36.7523L39.8385 36.7386L39.8463 36.7237C40.1133 36.2682 40.3119 35.9328 40.6823 35.2295C40.8013 35.0303 41.0467 34.6439 41.2397 34.1644C41.3127 33.983 41.3434 33.9587 41.5444 33.5546C41.5903 33.4623 41.641 33.3682 41.6924 33.2709ZM15.8876 12.8375C15.9139 12.8604 15.9952 12.9424 16.2545 13.1507C16.5203 13.3643 16.9417 13.6905 17.2704 13.9776C17.6307 14.2925 17.8816 14.5549 20.692 16.7906C23.4924 19.0183 28.6928 23.0959 31.5458 25.3237C33.5375 26.8791 34.3851 27.5285 34.8846 27.9083C34.8626 28.0588 34.8638 28.1902 34.8674 28.27C34.877 28.4815 34.9214 28.8104 34.955 29.1141C35.0104 29.6151 35.0743 30.4964 35.1077 31.1302C35.0648 31.1335 35.0192 31.1359 34.9725 31.14C34.6103 31.1718 34.1194 31.1667 33.676 31.1859C33.3547 31.1998 33.1104 31.2115 32.9309 31.2281C32.9105 31.23 32.8891 31.2337 32.8665 31.2362C32.4626 30.9227 31.7533 30.3659 30.3523 29.2485C27.8655 27.2653 23.201 23.5252 20.2909 21.2244C17.377 18.9206 16.3481 18.1616 15.7898 17.7561C15.2134 17.3374 15.2182 17.3513 14.884 17.0985C14.5924 16.8781 14.0724 16.4745 13.5035 16.033C13.8929 15.4673 14.2581 14.9359 14.5353 14.528C15.2811 13.4308 15.3645 13.2729 15.5828 12.9254C15.6243 12.8594 15.6725 12.7858 15.7234 12.7064C15.7999 12.7662 15.8559 12.81 15.8876 12.8375ZM23.348 13.1794C26.6534 15.7991 31.9629 20.1037 34.6665 22.3152C37.3595 24.5181 37.4375 24.6293 37.6888 24.8453C37.9818 25.0969 38.2342 25.3305 38.4444 25.5281C38.5656 25.6419 38.6916 25.7556 38.8002 25.856C38.4459 25.9627 38.1135 26.0646 37.8198 26.1475C37.6329 26.2001 37.1114 26.3061 36.6651 26.4737C36.5994 26.4984 36.5373 26.5255 36.4768 26.5496C36.0055 26.1963 35.4581 25.7837 32.7023 23.6318C29.8498 21.4043 24.6553 17.3323 21.8626 15.1108C19.0809 12.898 18.8539 12.6566 18.5136 12.3592C18.142 12.0345 17.654 11.6547 17.4328 11.477C17.3193 11.3858 17.267 11.3415 17.2397 11.3172C17.2257 11.3047 17.2155 11.2947 17.1985 11.279C17.1813 11.2632 17.1565 11.2406 17.1259 11.2141C17.0425 11.1416 16.92 11.0469 16.8114 10.9625C16.8441 10.9062 16.8659 10.865 16.8902 10.8275C16.9557 10.7264 17.0191 10.6199 17.0746 10.5265C17.133 10.4282 17.1877 10.3365 17.2473 10.2411L17.2625 10.217L17.2766 10.191C17.5175 9.75269 17.6752 9.51372 17.8129 9.2785C17.8424 9.2307 17.8806 9.17602 17.9249 9.11009C18.0209 9.17126 18.1371 9.24716 18.2812 9.34351C18.9205 9.77091 20.0439 10.5608 23.348 13.1794Z" fill="#742D2D"/>
<path d="M56.9887 27.0117C57.3966 27.1275 58.0541 27.4785 58.6405 28.4669C58.9955 29.0652 59.387 30.2353 59.6648 31.2223C60.1603 32.9827 60.0264 34.2897 59.7814 35.1214C59.5389 35.9445 58.6352 36.5428 57.4766 37.0688C56.8337 37.3607 55.966 37.3632 55.2762 37.3645C54.5863 37.3658 54.0717 37.2789 53.4003 36.9302C52.7289 36.5814 51.9163 35.9734 51.3623 35.472C50.474 34.668 50.0959 33.9168 49.8226 33.2899C49.532 32.6235 49.7101 31.9856 49.9284 31.6062C50.1232 31.2677 50.3126 31.0775 50.5436 30.9319C50.9843 30.6541 51.5421 30.609 52.0464 30.6814C52.7117 30.7769 53.3469 31.3952 53.8796 32.0808C54.347 32.6825 54.4985 33.3842 54.5806 34.2287C54.7014 35.4722 54.2564 36.7165 53.6145 37.5781C53.1432 38.2109 52.7223 38.5047 52.2865 38.6942C51.6531 38.9696 50.8912 39.0899 50.0056 39.1631C48.7715 39.2652 47.5006 38.8302 46.4361 38.1743C45.9132 37.808 45.4257 37.3737 45.0933 37.0921C44.7609 36.8104 44.5984 36.6946 44.4309 36.4875" stroke="#742D2D" stroke-width="2.04886" stroke-linecap="round"/>
</svg>
