<svg width="40" height="40" viewBox="0 0 40 40" fill="none" xmlns="http://www.w3.org/2000/svg">
<path d="M38.058 16.2667C38.2406 15.1446 38.1642 13.1728 36.5724 10.7421C35.6087 9.27057 33.3948 7.14039 31.47 5.47271C28.0375 2.49857 24.9427 1.52895 22.7994 1.30625C20.6784 1.08586 18.3451 2.72141 15.8975 5.05767C14.5393 6.35416 13.5894 8.49345 12.8357 10.1949C12.082 11.8963 11.7179 13.253 11.7742 15.2571C11.8305 17.2612 12.3181 19.8716 12.8465 21.7379C13.6938 24.7303 14.9772 26.4109 16.0942 27.7091C17.2816 29.0892 18.9146 29.2841 20.0083 29.1227C20.9839 28.9788 21.6191 28.7005 22.1991 28.2751C23.3055 27.4638 24.0142 26.1318 24.3998 24.8149C24.9084 23.0778 24.2046 20.8949 23.2372 18.898C22.3884 17.1458 20.97 16.0739 19.1539 15.0313C16.4797 13.4959 13.1878 13.3566 10.5454 14.0837C8.60474 14.6177 7.48396 15.3642 6.58207 16.2514C5.2714 17.5407 4.17082 19.3017 3.04176 21.4147C1.46841 24.3593 1.06697 27.9289 1.38825 31.2089C1.64578 32.8638 2.09513 34.4992 2.36885 35.5999C2.64256 36.7005 2.72702 37.2169 3.012 37.8361" stroke="#863B3B" stroke-width="2.57143" stroke-linecap="round"/>
</svg>
