<svg width="36" height="36" viewBox="0 0 36 36" fill="none" xmlns="http://www.w3.org/2000/svg">
<path d="M18 0.25C27.8031 0.25 35.75 8.19695 35.75 18C35.75 27.8031 27.8031 35.75 18 35.75C8.19695 35.75 0.25 27.8031 0.25 18C0.25 8.19695 8.19695 0.25 18 0.25Z" fill="#FFF8E3"/>
<path d="M18 0.25C27.8031 0.25 35.75 8.19695 35.75 18C35.75 27.8031 27.8031 35.75 18 35.75C8.19695 35.75 0.25 27.8031 0.25 18C0.25 8.19695 8.19695 0.25 18 0.25Z" stroke="#FF9D52" stroke-width="0.5"/>
<path d="M14.3057 7.01562C15.6559 7.15079 17.5863 8.58458 17.8857 9.58594C18.0488 9.41671 18.2671 9.22045 18.54 8.98926C18.9764 8.07405 21.4193 6.55104 22.8994 7.25586C23.9891 8.16464 24.8098 10.6053 24.374 11.5205C24.3247 11.8889 24.2447 12.2023 24.1055 12.4346C24.1556 12.4078 24.212 12.3776 24.2725 12.3389C25.1262 11.7924 29.1081 10.8996 29.9922 12.2803C30.4365 13.6278 29.8429 16.1331 28.9893 16.6797C28.8341 16.8677 28.6786 17.0275 28.5234 17.1514C29.9587 18.1773 32.3693 20.5722 31.9492 21.8359C31.1812 23.029 28.6748 24.8372 27.7129 24.5176C27.1435 24.7766 26.6995 24.8736 26.3623 24.8438C26.3209 26.5678 25.8744 29.5022 24.6064 29.7422C23.1905 29.652 20.2782 28.6188 20.0889 27.623C19.4223 26.398 19.9731 24.4683 23.1045 24.1895C24.2702 23.891 25.0025 23.6398 25.4648 23.4697C25.4745 22.4517 25.9267 21.0184 26.5186 19.6914C26.8843 18.3038 27.0125 17.4883 27.0791 17.0283C26.7161 16.6825 26.311 16.0883 25.8428 15.1689C24.5969 13.4705 23.9901 12.9435 23.833 12.7285C23.3608 13.0369 22.503 12.8647 20.9043 11.9004C19.6443 11.3957 18.752 11.0764 18.2031 10.8096C18.1225 11.4508 17.3678 11.8694 15.2588 11.9805C11.4807 12.8034 12.2003 11.6145 12.0479 10.6123C11.8956 9.61 12.6849 7.26213 14.3057 7.01562ZM6.61816 11.4385C7.85067 10.7356 10.4228 10.8207 11.1279 11.5488C12.3585 12.2056 12.7345 12.9773 10.2715 14.9316C9.53204 15.7444 9.07283 16.3255 8.77539 16.7217C9.46873 16.9471 9.68066 17.7679 9.02246 19.9482C8.87337 21.0766 8.82846 21.8294 8.81152 22.3242C9.30089 22.4824 9.94045 22.965 10.8115 23.8975C13.8716 26.2605 14.1261 26.0094 13.457 26.7705C12.7875 27.5319 9.1243 28.9654 7.66797 28.3223C6.86835 27.1502 6.96228 24.5111 7.37012 23.3164C7.44228 23.1502 7.51758 22.9979 7.59863 22.8643C6.236 22.2533 3.75875 20.5277 4.02832 19.1621C4.58985 17.9866 6.45845 16.713 7.53027 16.6641C6.75548 15.4703 5.57736 12.4458 6.61816 11.4385Z" fill="#FF9D52"/>
<path d="M13.379 27.0428C13.0212 25.6945 13.3302 24.8933 16.4392 25.3643C20.3056 25.32 21.1356 25.4752 21.0829 26.4875C21.0301 27.4998 18.2597 30.386 16.7183 30.7848C15.3639 30.3618 13.8001 28.233 13.379 27.0428Z" fill="#FF9D52"/>
<path d="M11.0576 9.96875C11.9024 9.96875 12.8301 11.0481 13.0029 11.9463C14.477 11.2101 16.2064 10.7235 18.0615 10.5312C20.2042 10.5313 22.1168 11.1732 23.6748 12.2002C23.6993 12.1163 23.7289 12.0317 23.7646 11.9473C24.1296 11.0858 24.9373 10.5494 25.7988 10.9141C26.6604 11.279 27.4353 12.2298 26.6982 13.1348C26.282 13.478 25.9704 13.7613 25.6807 13.9424C26.9135 15.3436 27.6933 17.0314 27.874 18.7197C27.874 23.2419 26.8709 26.2407 18.0615 26.9082C12.4711 27.3317 7.15879 23.8021 8.24902 18.7197C8.24902 16.6598 9.15534 14.8961 10.6562 13.5312C9.90199 13.2422 9.22271 12.4189 9.22266 11.6631C9.22266 10.7274 10.122 9.96884 11.0576 9.96875Z" fill="#FFE07B"/>
<path d="M10.6134 13.3633C10.105 13.7755 9.90193 14.0865 9.71254 14.3978C9.6123 14.5626 9.4694 14.7217 9.22543 15.1467C8.98147 15.5716 8.63202 16.2526 8.4184 16.8179C8.20478 17.3831 8.13758 17.8119 8.08952 18.4679C8.04146 19.1238 8.01458 19.994 8.0545 20.6252C8.09441 21.2563 8.20194 21.6221 8.29093 21.8735C8.42696 22.2579 8.57012 22.5324 8.67845 22.8121C8.76975 23.0479 9.11099 23.4733 9.59219 24.0395C9.7986 24.2823 9.95243 24.4165 10.2571 24.6393C10.5617 24.8621 11.0187 25.1647 11.6909 25.5035C12.3631 25.8423 13.2367 26.208 13.8481 26.4343C14.4594 26.6605 14.782 26.7362 15.1162 26.7941C15.4503 26.852 15.7863 26.8898 16.5038 26.8967C17.2212 26.9036 18.3099 26.8784 19.0185 26.8338C19.7272 26.7893 20.0229 26.7263 20.3029 26.6812C20.5829 26.6361 20.8383 26.6108 21.2386 26.5411C21.639 26.4714 22.1766 26.3579 22.8299 26.1228C23.4831 25.8878 24.2358 25.5347 24.7042 25.3023C25.3433 24.9853 25.7016 24.7012 26.0608 24.3897C26.3503 24.1387 26.5308 23.8474 26.8078 23.3156C27.0085 22.9303 27.2595 22.2794 27.4248 21.8535C27.5902 21.4275 27.6439 21.2384 27.7052 20.5608C27.7665 19.8832 27.8337 18.723 27.781 17.9109C27.7282 17.0988 27.5535 16.67 27.3493 16.2473C27.145 15.8246 26.9165 15.4211 26.7383 15.169C26.4785 14.8014 26.1264 14.5612 25.8144 14.2432C25.7341 14.1614 25.6499 14.0747 25.5611 13.9847" stroke="#A54700" stroke-width="0.7" stroke-linecap="round"/>
<path d="M12.8125 11.8643C13.0682 11.7285 13.2454 11.6486 13.3655 11.5906C13.6025 11.4761 14.1358 11.2555 15.057 10.9956C15.4859 10.8747 15.8488 10.799 16.2117 10.7233C16.3217 10.6721 16.3889 10.6595 16.4502 10.6467C16.5115 10.6339 16.5653 10.6213 16.6268 10.6085C16.8643 10.5704 17.111 10.4803 17.911 10.5387C18.3452 10.5704 18.6103 10.651 19.2218 10.6725C19.5806 10.6851 20.0242 10.7626 20.4292 10.9215C20.8029 11.0681 21.2633 11.1037 21.7947 11.2911C22.4998 11.5397 22.9221 11.6828 23.45 12.1325C23.4974 12.1728 23.5515 12.221 23.6123 12.2757" stroke="#A54700" stroke-width="0.7" stroke-linecap="round"/>
<path d="M18.6815 24.2305C18.3989 24.7952 18.3655 25.2188 17.9756 25.2188C17.5857 25.2188 17.2697 24.7763 17.2697 24.2305C17.2697 23.6847 16.7047 23.3834 17.9756 23.2422C18.9637 23.2422 18.6815 23.6847 18.6815 24.2305Z" fill="#FFBBBB"/>
<path d="M10.5447 13.3567C10.5281 13.3567 10.0499 13.039 9.62035 12.6875C9.27419 12.4043 9.2123 12.1376 9.1915 12.0741C9.17208 12.0147 9.13713 11.8501 9.13287 11.5748C9.12899 11.3238 9.31929 11.0353 9.59028 10.7512C9.78092 10.5513 9.95498 10.4653 10.1171 10.3553C10.3518 10.196 10.6641 10.1424 10.9887 10.1169C11.3949 10.085 11.717 10.1587 11.8879 10.2603C12.1728 10.4297 12.2935 10.6426 12.4771 10.8963C12.7368 11.4663 12.7701 11.5513 12.7952 11.6146C12.8037 11.6611 12.8037 11.7367 12.8037 11.8147" stroke="#A54700" stroke-width="0.7" stroke-linecap="round"/>
<path d="M23.6719 12.222C23.8266 11.928 23.9589 11.3897 24.0954 11.2337C24.2 11.1142 24.3437 10.9466 24.519 10.8101C24.716 10.6567 24.6222 10.7163 24.8014 10.6694C25.0201 10.6121 25.6414 10.6875 25.7388 10.7108C25.8478 10.7369 26.0313 10.8741 26.2693 11.0652C26.6237 11.3497 26.7434 11.5782 26.8567 11.7108C27.0302 11.9136 27.0641 12.2811 27.0605 12.6205C27.0578 12.8688 26.9474 13.0004 26.9004 13.0944C26.7889 13.317 26.2419 13.4312 26.1346 13.5595C26.0721 13.6343 25.9082 13.6649 25.783 13.7664C25.7516 13.7901 25.5392 13.9003 25.5073 13.9163" stroke="#A54700" stroke-width="0.7" stroke-linecap="round"/>
<path d="M11.2983 12.9826C11.221 12.9401 11.1748 12.9016 11.1243 12.8358C11.0856 12.7853 11.0164 12.7084 10.954 12.6152C10.9143 12.556 10.8882 12.4109 10.8495 12.3209C10.8239 12.2614 10.8146 12.1817 10.8126 12.1121C10.8102 12.0327 10.8685 11.965 10.9611 11.8799C11.1345 11.7206 11.2821 11.7056 11.41 11.6648C11.5091 11.6333 11.5962 11.6666 11.6654 11.7088C11.8037 11.7932 11.9172 11.9216 11.983 12.0163C12.0577 12.124 12.084 12.1812 12.0899 12.247C12.0988 12.3473 12.0919 12.5024 12.0668 12.5432C12.0409 12.5852 12.0069 12.6341 11.9662 12.6825C11.9111 12.748 11.8443 12.7504 11.794 12.7773C11.7229 12.8154 11.6818 12.847 11.618 12.8626C11.5698 12.8856 11.523 12.909 11.4883 12.9226C11.4726 12.9284 11.4611 12.9322 11.4377 12.9362" stroke="#A54700" stroke-width="0.7" stroke-linecap="round"/>
<path d="M24.376 12.8703C24.5903 13.0877 24.6629 13.178 24.7158 13.2344C24.7774 13.2999 24.8564 13.2874 24.9258 13.2949C24.9796 13.3008 25.0556 13.2755 25.1551 13.2198C25.2803 13.1497 25.3522 13.067 25.3823 13.0277C25.4462 12.9447 25.4701 12.8313 25.4717 12.6955C25.4727 12.6154 25.4281 12.5502 25.3903 12.4927C25.3422 12.4195 25.2862 12.3688 25.2226 12.3218C25.1877 12.296 25.1379 12.308 25.0523 12.305C24.9847 12.3027 24.868 12.2961 24.7825 12.3064C24.642 12.3235 24.5607 12.3984 24.5018 12.4557C24.4185 12.5828 24.367 12.6525 24.3489 12.6721C24.3398 12.6827 24.3308 12.6947 24.3125 12.7161" stroke="#A54700" stroke-width="0.7" stroke-linecap="round"/>
<path d="M13.3731 15.8216C13.364 15.8398 13.3639 15.9195 13.3833 16.0329C13.3909 16.0778 13.423 16.0896 13.4541 16.0966C13.5201 16.1115 13.5724 16.1013 13.6191 16.0877C13.7065 16.0621 13.7741 16.0235 13.8061 15.9949C13.8772 15.9316 13.8683 15.7882 13.8546 15.7072C13.847 15.6623 13.779 15.6361 13.7412 15.6154C13.7157 15.6015 13.6351 15.5856 13.5213 15.5821C13.4923 15.5812 13.4718 15.5969 13.4467 15.6186C13.3607 15.6928 13.4052 15.8786 13.4337 15.9247C13.4462 15.9447 13.4647 15.9591 13.4876 15.974C13.5179 15.9937 13.5699 16.0004 13.6238 15.9993C13.6573 15.9986 13.6847 15.9822 13.7111 15.9605C13.7506 15.9279 13.7605 15.8518 13.7583 15.79C13.757 15.756 13.7217 15.7438 13.7034 15.7289C13.6583 15.6922 13.5545 15.723 13.5062 15.7527C13.4902 15.771 13.4763 15.7917 13.466 15.8169C13.4625 15.8306 13.4625 15.8465 13.4625 15.8629" stroke="#A54700" stroke-width="0.7" stroke-linecap="round"/>
<path d="M21.4295 15.4245C21.315 15.5917 21.3092 15.6385 21.3134 15.7455C21.3157 15.8012 21.3735 15.8411 21.4159 15.8763C21.4757 15.9258 21.6542 15.9176 21.7916 15.9002C21.8515 15.8925 21.893 15.8152 21.9311 15.761C21.954 15.7285 21.9578 15.6628 21.9549 15.5777C21.9514 15.474 21.8173 15.3778 21.757 15.3497C21.656 15.3027 21.5443 15.3305 21.4913 15.3554C21.4373 15.3808 21.409 15.4448 21.3884 15.5356C21.3697 15.6181 21.3883 15.6827 21.3956 15.7061C21.4119 15.7583 21.4994 15.8058 21.611 15.8354C21.6593 15.8482 21.6994 15.8326 21.7272 15.8136C21.7951 15.7673 21.7729 15.6366 21.7539 15.5539C21.7438 15.5097 21.6239 15.5214 21.5515 15.5374C21.5132 15.5459 21.5058 15.5946 21.5014 15.6195C21.4966 15.6469 21.5028 15.671 21.5145 15.6857C21.5378 15.6945 21.5644 15.6975 21.5907 15.6931C21.6054 15.6888 21.6228 15.6801 21.6408 15.6711" stroke="#A54700" stroke-width="0.7" stroke-linecap="round"/>
<ellipse cx="17.6948" cy="20.841" rx="1.83543" ry="1.27069" fill="#FF9D52"/>
<path d="M15.9327 20.7934C15.9327 20.8228 15.9793 20.9921 16.06 21.2477C16.1073 21.3972 16.1763 21.5047 16.2541 21.6213C16.2892 21.6739 16.3231 21.7049 16.4022 21.7715C16.4813 21.838 16.6064 21.9371 16.7058 22.0084C16.8052 22.0796 16.8751 22.12 16.9649 22.1537C17.0548 22.1873 17.1625 22.213 17.2892 22.2299C17.416 22.2468 17.5587 22.2542 17.7253 22.2433C17.8919 22.2324 18.0782 22.203 18.2411 22.1548C18.404 22.1067 18.5379 22.0406 18.6462 21.9772C18.7544 21.9138 18.833 21.855 18.8881 21.8101C18.9743 21.7397 19.0313 21.6835 19.0885 21.6336C19.1483 21.5815 19.1989 21.5093 19.2838 21.3951C19.3435 21.3147 19.421 21.1707 19.4703 21.0732C19.5424 20.9304 19.5578 20.8089 19.571 20.6721C19.5968 20.4061 19.5344 20.3376 19.5037 20.282C19.4649 20.212 19.3965 20.1707 19.2966 20.1243C19.2032 20.0809 19.1495 20.015 19.0278 19.9594C18.9357 19.9173 18.8438 19.9 18.7705 19.8759C18.6933 19.8505 18.5824 19.8333 18.4534 19.7907C18.3382 19.7527 18.2557 19.7479 18.1214 19.7294C18.0109 19.7142 17.8125 19.7182 17.6989 19.7145C17.5853 19.7108 17.562 19.7071 17.4976 19.707C17.3284 19.7069 17.203 19.7181 17.1678 19.7237C17.1031 19.7339 17.027 19.7625 16.9297 19.8014C16.8627 19.8282 16.7447 19.8403 16.6578 19.883C16.5189 19.9511 16.4388 19.9738 16.3696 20.0146C16.2531 20.0832 16.1358 20.1667 16.0551 20.2591C16.0077 20.3133 15.9712 20.3629 15.9489 20.4224C15.9346 20.4608 15.9211 20.504 15.9136 20.5596C15.9122 20.5745 15.9092 20.5892 15.9077 20.6261C15.9062 20.663 15.9062 20.7218 15.9062 20.7823" stroke="#A54700" stroke-width="0.7" stroke-linecap="round"/>
<path d="M17.067 23.7605C17.067 23.7764 17.0901 23.9432 17.1331 24.2015C17.1677 24.4092 17.2207 24.4375 17.2785 24.527C17.3278 24.6036 17.4239 24.7316 17.4807 24.8069C17.552 24.9017 17.6094 24.9383 17.6804 24.9843C17.7365 25.0207 17.7797 25.0547 17.8342 25.0667C17.9134 25.0842 17.9893 25.0629 18.052 25.0409C18.1294 25.0138 18.2082 24.951 18.2825 24.8711C18.321 24.8297 18.3569 24.7753 18.4001 24.7091C18.4433 24.6429 18.4918 24.5635 18.5329 24.479C18.6124 24.3155 18.6464 24.1856 18.6592 24.1177C18.6927 23.9398 18.7164 23.761 18.7245 23.6747C18.7356 23.5561 18.735 23.4481 18.7292 23.4261C18.7238 23.4053 18.7025 23.3959 18.6723 23.3899C18.6378 23.383 18.6001 23.3839 18.3922 23.3799C18.2029 23.3762 17.8431 23.3838 17.6473 23.3878C17.4516 23.3918 17.4309 23.3958 17.3959 23.3979C17.2466 23.4066 17.1815 23.4119 17.1313 23.4219C17.1117 23.4258 17.0793 23.4239 17.0615 23.4319C17.0437 23.4398 17.0414 23.4557 17.0403 23.4757C17.0391 23.4958 17.0391 23.5196 17.0391 23.5441" stroke="#A54700" stroke-width="0.7" stroke-linecap="round"/>
<path d="M10.793 19.6328C11.0917 19.7039 11.3904 19.7751 11.6296 19.833C11.8688 19.891 12.0395 19.9337 12.2412 20.0054C12.443 20.0772 12.6705 20.1768 12.905 20.2794" stroke="#A54700" stroke-width="0.7" stroke-linecap="round"/>
<path d="M10.8789 21.7893C10.8931 21.7893 10.9074 21.7893 11.192 21.7751C11.4767 21.7609 12.0315 21.7324 12.603 21.7031" stroke="#A54700" stroke-width="0.7" stroke-linecap="round"/>
<path d="M22.7305 19.9347L24.1529 19.5898" stroke="#A54700" stroke-width="0.7" stroke-linecap="round"/>
<path d="M22.9023 21.4844C23.4002 21.5982 23.898 21.712 24.19 21.7706C24.4821 21.8292 24.5532 21.8292 24.6265 21.8723" stroke="#A54700" stroke-width="0.7" stroke-linecap="round"/>
<path d="M11.9531 9.99284C11.9688 9.80641 12.0162 9.59718 12.0836 9.41569C12.1782 9.16092 12.3261 8.80324 12.4723 8.53812C12.7319 8.06738 12.9129 7.88159 13.0125 7.79735C13.1572 7.67507 13.2463 7.53899 13.3657 7.44416C13.4934 7.34276 13.7059 7.21617 13.8421 7.11126C13.9384 7.03707 14.0955 6.96034 14.2152 6.90929C14.301 6.87267 14.5627 6.88568 14.7706 6.91242C14.9676 6.93774 15.0962 7.03337 15.2272 7.08725C15.3217 7.1261 15.4215 7.22142 15.5843 7.30575C15.687 7.35899 15.763 7.40341 15.8545 7.45042C15.9629 7.50619 16.1593 7.63826 16.2831 7.73279C16.3667 7.79662 16.406 7.92073 16.5092 8.00517C16.6447 8.11596 16.7237 8.19674 16.7951 8.2608C16.9092 8.36305 17.0333 8.47235 17.1166 8.53994C17.1839 8.59451 17.2552 8.69429 17.3311 8.78196C17.3931 8.85364 17.5482 9.02316 17.6526 9.14846C17.732 9.23945 17.7954 9.30644 17.8392 9.38392C17.8511 9.40086 17.8668 9.41418 17.883 9.4279" stroke="#A54700" stroke-width="0.7" stroke-linecap="round"/>
<path d="M18.043 9.40465C18.3093 9.07595 18.4811 8.90856 18.6151 8.77845C18.7579 8.63986 19.1155 8.40533 19.3405 8.23237C19.5324 8.08482 19.8455 7.86555 20.0229 7.71096C20.3178 7.45406 20.7166 7.29804 20.8624 7.23798C20.9701 7.19357 21.07 7.12246 21.1761 7.07699C21.286 7.02994 21.3839 6.99644 21.5289 6.9475C21.7056 6.89836 21.831 6.88428 21.9133 6.88082C21.9489 6.87735 21.9722 6.87042 21.9962 6.86328" stroke="#A54700" stroke-width="0.7" stroke-linecap="round"/>
<path d="M21.9961 6.86328C22.1286 6.87745 22.2776 6.96289 22.386 7.03835C22.6058 7.19135 22.8512 7.37806 22.9673 7.46758C23.1011 7.57075 23.2658 7.69964 23.3703 7.80751C23.4519 7.89173 23.5977 8.13499 23.7523 8.42952C23.8525 8.62045 24.0636 8.84469 24.1219 9.00548C24.2046 9.2337 24.313 9.47411 24.3586 9.63854C24.4376 9.85343 24.4876 10.1112 24.5083 10.2651C24.5125 10.3257 24.5125 10.4178 24.5375 10.5342" stroke="#A54700" stroke-width="0.7" stroke-linecap="round"/>
<path d="M7.57793 22.7482C7.50589 22.7081 7.3768 22.6438 7.16381 22.5793C6.9876 22.5259 6.83721 22.418 6.71222 22.3537C6.51316 22.2513 6.41801 22.1685 6.26909 22.0677C6.09371 21.949 5.91081 21.8306 5.72926 21.7011C5.53675 21.5638 5.41909 21.4597 5.27778 21.3385C5.13246 21.2138 4.94429 21.0333 4.81023 20.8712C4.6403 20.6657 4.48399 20.5164 4.40723 20.4198C4.31175 20.2997 4.29059 20.2181 4.20585 20.1498C4.0631 20.0347 4.07253 19.8961 4.05246 19.7992C4.04835 19.7749 4.04835 19.751 4.04037 19.7227C4.0324 19.6944 4.01644 19.6625 4 19.6055" stroke="#A54700" stroke-width="0.7" stroke-linecap="round"/>
<path d="M4 19.5111C4.12088 19.149 4.1847 18.9401 4.28164 18.8105C4.42958 18.6128 4.51542 18.5204 4.63206 18.4077C4.72026 18.3224 4.86112 18.1822 5.05029 18.0535C5.37527 17.8323 5.77978 17.5694 5.96146 17.4408C6.31414 17.1911 6.65831 17.0375 6.79986 16.981C6.89822 16.9416 7.06107 16.8683 7.19476 16.8077C7.31557 16.753 7.4324 16.715 7.52922 16.6867C7.55352 16.6826 7.57745 16.6826 7.60175 16.6667C7.62604 16.6507 7.64998 16.6188 7.67464 16.5859" stroke="#A54700" stroke-width="0.7" stroke-linecap="round"/>
<path d="M7.62679 16.5428C7.53258 16.3733 7.4074 16.1728 7.29686 15.9742C7.10957 15.6377 7.07323 15.5113 6.97581 15.3603C6.89631 15.2371 6.90332 15.0336 6.75577 14.6845C6.66591 14.4719 6.62616 14.3222 6.59171 14.1834C6.56089 14.0592 6.50722 13.8944 6.41244 13.6238C6.36599 13.4911 6.38072 13.3718 6.35882 13.2738C6.3218 13.1082 6.29916 12.8183 6.28321 12.5319C6.2704 12.3021 6.27991 12.0498 6.29879 11.9367C6.33617 11.8739 6.36184 11.8169 6.36496 11.7698C6.36807 11.7476 6.37431 11.7289 6.3996 11.6719" stroke="#A54700" stroke-width="0.7" stroke-linecap="round"/>
<path d="M6.36328 11.6342C6.4826 11.5588 6.57058 11.4835 6.71511 11.411C6.82848 11.3541 6.99764 11.3075 7.1652 11.2097C7.24971 11.1603 7.34465 11.1622 7.44216 11.1434C7.55331 11.122 7.65277 11.1055 7.76 11.0868C7.81099 11.0778 8.11626 11.0678 8.5504 11.0709C8.77328 11.0929 8.87391 11.1055 8.96831 11.1212C8.99361 11.1244 9.01853 11.1244 9.0442 11.1244" stroke="#A54700" stroke-width="0.7" stroke-linecap="round"/>
<path d="M13.0621 27.1087C13.05 27.1117 12.7957 27.2518 12.3903 27.4723C12.1799 27.5867 12.0694 27.6271 11.9296 27.7006C11.8364 27.7495 11.687 27.7996 11.4542 27.8672C11.2214 27.9349 10.907 28.0129 10.7337 28.0591C10.5361 28.1118 10.3268 28.1763 10.0178 28.2497C9.89676 28.2785 9.84646 28.2826 9.65447 28.3269C9.46249 28.3712 9.1299 28.4537 8.91474 28.5007C8.45636 28.6007 8.23838 28.5453 8.10925 28.5223C8.06414 28.5236 8.02431 28.5206 7.98246 28.5083C7.96175 28.5037 7.94211 28.5021 7.88522 28.5096" stroke="#A54700" stroke-width="0.7" stroke-linecap="round"/>
<path d="M7.86148 28.4954C7.77823 28.4452 7.59536 28.2836 7.49473 28.1399C7.27079 27.8199 7.27426 27.6432 7.14985 27.3252C7.02228 26.9991 6.99792 26.6876 6.97615 26.5214C6.96016 26.3994 6.95566 26.2828 6.98258 26.1435C7.01013 26.0011 7.00857 25.8162 7.02948 25.5237C7.06115 25.0806 7.15532 24.787 7.17374 24.7177C7.21109 24.5773 7.30249 24.2597 7.38259 23.9529C7.3986 23.8916 7.43798 23.7324 7.4849 23.4522C7.56917 23.0568 7.57836 22.9895 7.59593 22.9561C7.60441 22.9377 7.61201 22.9166 7.63361 22.872" stroke="#A54700" stroke-width="0.7" stroke-linecap="round"/>
<path d="M13.2344 27.0703C13.3374 27.3354 13.3865 27.4531 13.4942 27.6491C13.5469 27.745 13.6163 27.9075 13.7244 28.1118C13.8325 28.3162 13.9736 28.5595 14.112 28.7651C14.2504 28.9707 14.3818 29.1313 14.464 29.2383C14.5807 29.3901 14.6494 29.4879 14.8398 29.654C14.9837 29.7795 15.2346 29.9758 15.4232 30.1175C15.7271 30.3458 15.8929 30.4464 15.9786 30.5101C16.2285 30.696 16.4675 30.7858 16.5663 30.803C16.6055 30.8201 16.6499 30.8349 16.694 30.8448C16.7139 30.8497 16.7285 30.8546 16.7435 30.8596" stroke="#A54700" stroke-width="0.7" stroke-linecap="round"/>
<path d="M16.7422 30.8565C17.1792 30.773 17.3069 30.7241 17.4102 30.6748C17.4754 30.6437 17.5916 30.5524 17.734 30.4395C17.823 30.3689 17.9163 30.3114 18.0193 30.2329C18.107 30.1659 18.2209 30.0952 18.3435 29.9849C18.4045 29.93 18.4563 29.8698 18.5569 29.774C18.7996 29.5428 18.983 29.3775 19.0394 29.3161C19.15 29.1958 19.2974 29.0485 19.4423 28.8863C19.5777 28.7347 19.6954 28.5519 19.7694 28.4511C19.8618 28.325 19.9608 28.2176 20.0911 28.0875C20.1185 28.0601 20.1331 28.0504 20.1454 28.038C20.1578 28.0257 20.1676 28.0111 20.1776 27.9961" stroke="#A54700" stroke-width="0.7" stroke-linecap="round"/>
<path d="M20.2734 28.0508C20.2832 28.0702 20.4196 28.1776 20.6308 28.3299C20.8243 28.4695 21.0446 28.5763 21.2208 28.6596C21.3254 28.7091 21.5034 28.8154 21.6448 28.9021C21.8873 29.0508 22.0227 29.1466 22.0938 29.1785C22.2201 29.2351 22.391 29.294 22.5165 29.3554C22.6637 29.4274 22.8531 29.4512 23.0152 29.4858C23.1047 29.5049 23.3043 29.5544 23.5572 29.5986C23.7371 29.6301 23.8165 29.6529 23.932 29.6603C23.9981 29.6676 24.0527 29.6775 24.0943 29.6873C24.1165 29.6923 24.1408 29.6971 24.1806 29.7021" stroke="#A54700" stroke-width="0.7" stroke-linecap="round"/>
<path d="M24.3008 29.7206C24.6397 29.7206 24.718 29.6914 24.814 29.6569C24.9034 29.6247 25.0418 29.5198 25.1728 29.4016C25.2854 29.2998 25.4644 29.0394 25.5587 28.8488C25.6648 28.6342 25.7699 28.5122 25.8388 28.4065C25.9108 28.296 25.942 28.1533 25.996 28.0553C26.0448 27.9667 26.0599 27.8195 26.1212 27.6333C26.1872 27.433 26.2075 27.2735 26.237 27.1683C26.2747 27.0337 26.2665 26.8855 26.3008 26.7629C26.3587 26.5562 26.3452 26.4038 26.3527 26.0997C26.365 25.8392 26.3601 25.5777 26.3527 25.5264C26.3502 25.4896 26.3502 25.4313 26.3502 25.3711" stroke="#A54700" stroke-width="0.7" stroke-linecap="round"/>
<path d="M26.707 11.4064C26.8316 11.4064 26.9581 11.394 27.227 11.3751C27.4331 11.3606 27.7824 11.3687 27.9902 11.378C28.4039 11.3966 28.6135 11.4944 28.7737 11.551C28.9324 11.607 29.1104 11.7017 29.2457 11.7618C29.4866 11.8687 29.57 11.9287 29.6363 11.9695C29.6521 11.9791 29.6708 11.9853 29.6897 11.9979C29.7087 12.0104 29.7274 12.0291 29.7467 12.0484" stroke="#A54700" stroke-width="0.7" stroke-linecap="round"/>
<path d="M29.8606 12.168C29.9231 12.2614 30.0241 12.501 30.0337 12.6018C30.0361 12.6272 30.043 12.652 30.0462 12.8487C30.0494 13.0453 30.0494 13.4129 30.0339 13.7175C30.0183 14.0221 29.9871 14.2527 29.9711 14.4026C29.9484 14.6142 29.899 14.8347 29.8109 15.0863C29.742 15.283 29.6783 15.4209 29.6374 15.5439C29.6021 15.6499 29.4713 15.8729 29.2887 16.2006C29.0743 16.5851 29.0364 16.6987 28.983 16.8025C28.8916 16.9444 28.8789 17.0197 28.8413 17.0921C28.8287 17.1203 28.8162 17.1639 28.7656 17.2277" stroke="#A54700" stroke-width="0.7" stroke-linecap="round"/>
<path d="M28.8516 17.3359C28.9326 17.4426 29.1593 17.5557 29.4264 17.7035C29.6214 17.8115 29.7638 17.9273 29.9266 18.0712C30.0293 18.1621 30.2011 18.3332 30.3221 18.4603C30.5133 18.6612 30.607 18.7893 30.6854 18.874C30.7763 18.972 30.84 19.085 30.9151 19.2072C31.0239 19.3841 31.2044 19.6189 31.3552 19.8704C31.5006 20.1128 31.6012 20.305 31.677 20.4726C31.7495 20.633 31.7968 20.803 31.8344 20.8913C31.8848 21.0233 31.9288 21.1493 31.9571 21.2152C31.9667 21.2439 31.9667 21.2625 31.9856 21.2818" stroke="#A54700" stroke-width="0.7" stroke-linecap="round"/>
<path d="M31.9855 21.3008C31.9855 21.5073 31.9108 21.9219 31.7752 22.1497C31.6684 22.3292 31.4958 22.4891 31.2657 22.6878C31.1848 22.7577 31.0302 22.8795 30.8134 23.0272C30.6693 23.1254 30.464 23.2756 30.1597 23.5174C30.0037 23.6412 29.8242 23.7404 29.6658 23.823C29.3764 23.9739 29.1979 24.0382 29.1289 24.0727C28.9637 24.1554 28.7209 24.2581 28.4872 24.3684C28.3473 24.4344 28.1915 24.4597 28.0089 24.5133C27.8377 24.5634 27.7002 24.5919 27.4679 24.6392C27.3395 24.6653 27.141 24.7241 26.9672 24.7713C26.8318 24.806 26.7185 24.8437 26.6429 24.8533C26.6239 24.8564 26.6052 24.8626 26.5859 24.869" stroke="#A54700" stroke-width="0.7" stroke-linecap="round"/>
<path d="M26.4953 24.9023C26.4823 24.9023 26.4718 24.9058 26.4618 24.9106C26.4523 24.9152 26.4431 24.9241 26.4322 24.9337C26.4199 24.9445 26.4126 24.958 26.4052 24.9728C26.3996 24.9841 26.3987 24.9972 26.3965 25.0111C26.393 25.0337 26.3882 25.0546 26.3834 25.0721C26.3792 25.0877 26.3726 25.0999 26.3686 25.1143C26.3608 25.1427 26.3569 25.1583 26.3525 25.1709C26.3489 25.1814 26.3473 25.1922 26.3455 25.2174C26.3439 25.2407 26.3351 25.254 26.3329 25.2723C26.3316 25.2802 26.3299 25.2863 26.3286 25.2932C26.3281 25.2976 26.3281 25.3036 26.3281 25.3098" stroke="#A54700" stroke-width="0.7" stroke-linecap="round"/>
</svg>
