<svg width="26" height="26" viewBox="0 0 26 26" fill="none" xmlns="http://www.w3.org/2000/svg">
<path d="M13.0293 1.57031L16.9792 7.98516L24.442 9.67443L19.4204 15.3283L20.0827 22.7872L13.0293 19.8666L5.97587 22.7872L6.6382 15.3283L1.61662 9.67443L9.07938 7.98516L13.0293 1.57031Z" fill="#E49FD9"/>
<path d="M19.9391 14.3086C19.6972 14.5233 19.5383 14.6395 19.4023 14.7639" stroke="#615DE8" stroke-width="2.05714" stroke-linecap="round"/>
<path d="M8.33398 8.06171C8.66555 7.2865 8.92517 6.86289 9.22141 6.39035C9.3514 6.18301 9.58874 5.74921 10.0211 5.07334C10.2453 4.72283 10.4534 4.34155 10.7499 3.86054C11.0463 3.37953 11.4182 2.80638 11.6956 2.40628C12.3143 1.51383 12.4654 1.39745 12.6602 1.24919C12.8213 1.12661 12.9855 1.10092 13.1515 1.03696C13.1991 1.01859 13.2594 1.02976 13.3103 1.04374C13.4097 1.071 13.5199 1.21233 13.7212 1.52136C14.0595 2.04065 14.4145 2.63694 14.7176 3.06712C14.902 3.32871 15.065 3.69597 15.3676 4.26594C15.7291 4.9471 15.8898 5.42049 15.9902 5.71511C16.1994 6.32942 16.4528 6.80401 16.5538 7.00819C16.7559 7.41681 16.8143 7.77789 16.8722 7.97635C16.8848 8.01951 16.901 8.06086 16.937 8.08247C17.106 8.18399 17.3622 8.17439 17.5867 8.19578C17.8981 8.22545 18.4717 8.28707 18.9656 8.40717C19.2815 8.48398 19.6589 8.54166 19.9692 8.57682C20.1564 8.59803 20.5816 8.71068 21.2237 8.81638C21.6554 8.88743 22.028 8.9513 22.4031 8.95829C22.9913 8.96925 23.5315 9.26138 23.7198 9.29718C23.8939 9.33026 24.0234 9.34653 24.1099 9.43061C24.1694 9.48847 24.1964 9.62653 24.197 9.74726C24.1983 9.98346 23.9103 10.4585 23.4782 11.128C23.0829 11.7405 22.6664 11.9865 22.4867 12.1693C22.2015 12.4595 21.6578 12.832 21.1379 13.22C20.7574 13.5041 20.3285 13.9609 19.9365 14.3089" stroke="#615DE8" stroke-width="2.05714" stroke-linecap="round"/>
<path d="M12.9727 19.9648C12.3147 20.2724 11.6182 20.5986 11.0335 20.8807C10.7124 21.0357 10.7435 21.0182 10.0868 21.272C9.6587 21.4374 9.23991 21.668 8.77788 21.8654C8.5264 21.9729 8.14248 22.2043 7.57232 22.4441C7.01744 22.6774 6.7382 22.8406 6.47858 22.9537C6.39146 23.01 6.30478 23.0388 6.19664 23.0528C6.14571 23.0668 6.1028 23.0948 6.05859 23.1236" stroke="#615DE8" stroke-width="2.05714" stroke-linecap="round"/>
<path d="M5.71104 22.9517C5.65383 22.7281 5.62436 22.3053 5.66011 21.6856C5.69632 21.058 5.86967 20.5113 5.92731 20.0953C5.9679 19.8024 6.05734 19.2985 6.14381 18.6426C6.236 17.9432 6.36117 17.4185 6.40429 17.1913C6.44786 16.9797 6.46216 16.7395 6.48383 16.5427C6.4912 16.4158 6.4912 16.2341 6.4912 16.0469" stroke="#615DE8" stroke-width="2.05714" stroke-linecap="round"/>
<path d="M8.20615 8.05859C7.40519 8.19839 6.87814 8.29836 6.67617 8.3547C6.52633 8.39649 6.31513 8.4678 5.41881 8.69888C4.67655 8.89025 3.36396 9.27944 2.66463 9.48786C1.7997 9.74563 1.51845 9.85132 1.27942 9.91528C1.22849 9.92248 1.18558 9.92248 1.14917 9.93646C1.11277 9.95044 1.08416 9.9784 1.05469 10.0072" stroke="#615DE8" stroke-width="2.05714" stroke-linecap="round"/>
<path d="M1.0293 9.94922C1.08651 10.1742 1.28848 10.4847 1.68507 11.0203C1.81456 11.1952 2.15359 11.5556 2.59373 12.1128C3.00278 12.6307 3.35331 12.8848 3.95208 13.4976C4.75629 14.2413 5.01505 14.5225 5.32559 14.8612C5.49051 15.0296 5.79087 15.3232 6.10034 15.6256" stroke="#615DE8" stroke-width="2.05714" stroke-linecap="round"/>
<path d="M13.4434 19.9375C13.6901 20.0034 13.9368 20.0693 14.1986 20.1459C14.4604 20.2224 14.7299 20.3076 15.272 20.514C15.814 20.7205 16.6205 21.0456 17.134 21.2409C17.6476 21.4362 17.8437 21.4918 18.0552 21.5717C18.2668 21.6516 18.4878 21.7541 18.6671 21.8266C19.1442 22.0195 19.2874 22.0226 19.3767 22.0619C19.399 22.071 19.4207 22.0764 19.4395 22.0856C19.4583 22.0948 20.7285 22.503 20.7441 22.5162" stroke="#615DE8" stroke-width="2.05714" stroke-linecap="round"/>
<path d="M19.3789 14.7344C19.5256 15.2447 19.5986 15.5312 19.6814 15.8184C19.7129 15.9277 19.8185 16.3092 19.965 16.8736C20.0533 17.2134 20.1584 17.5478 20.2135 17.9374C20.247 18.1746 20.2594 18.3917 20.3053 18.6778C20.3563 18.9966 20.3786 19.2886 20.4382 19.5034C20.4869 19.6791 20.5162 19.8627 20.5849 20.1394C20.6911 20.5673 20.6726 20.9032 20.6817 21.0285C20.6909 21.1562 20.7276 21.5728 20.7095 22.1242C20.6913 22.3204 20.655 22.3471 20.6135 22.3608C20.5721 22.3745 20.5267 22.3745 20.4249 22.3476" stroke="#615DE8" stroke-width="2.05714" stroke-linecap="round"/>
</svg>
