<svg width="22" height="21" viewBox="0 0 22 21" fill="none" xmlns="http://www.w3.org/2000/svg">
<path d="M10.8574 1.30859L14.149 6.6543L20.368 8.06202L16.1833 12.7736L16.7353 18.9893L10.8574 16.5555L4.97957 18.9893L5.53151 12.7736L1.34686 8.06202L7.56582 6.6543L10.8574 1.30859Z" fill="#FEE975"/>
<path d="M16.6153 11.9219C16.4137 12.1008 16.2812 12.1976 16.168 12.3013" stroke="#278EBA" stroke-width="1.71429" stroke-linecap="round"/>
<path d="M6.94531 6.71744C7.22162 6.07143 7.43797 5.71842 7.68484 5.32464C7.79316 5.15185 7.99094 4.79036 8.35122 4.22713C8.53807 3.93504 8.71151 3.61731 8.95856 3.21647C9.20561 2.81562 9.5155 2.338 9.74666 2.00459C10.2623 1.26087 10.3881 1.16389 10.5505 1.04034C10.6847 0.938191 10.8216 0.916785 10.9599 0.86348C10.9996 0.848173 11.0498 0.857479 11.0923 0.869128C11.175 0.891851 11.2669 1.00963 11.4347 1.26715C11.7166 1.69989 12.0124 2.1968 12.265 2.55528C12.4187 2.77327 12.5545 3.07932 12.8066 3.5543C13.1079 4.12194 13.2418 4.51643 13.3255 4.76194C13.4998 5.27386 13.711 5.66936 13.7952 5.83951C13.9636 6.18002 14.0123 6.48093 14.0605 6.64631C14.071 6.68228 14.0845 6.71674 14.1145 6.73474C14.2553 6.81934 14.4688 6.81134 14.6559 6.82917C14.9154 6.85389 15.3934 6.90524 15.805 7.00532C16.0682 7.06933 16.3827 7.1174 16.6413 7.1467C16.7973 7.16438 17.1517 7.25825 17.6868 7.34633C18.0465 7.40554 18.357 7.45876 18.6696 7.46459C19.1598 7.47372 19.6099 7.71717 19.7668 7.747C19.9119 7.77456 20.0198 7.78812 20.0919 7.85819C20.1415 7.9064 20.164 8.02146 20.1645 8.12207C20.1656 8.3189 19.9256 8.71477 19.5655 9.2727C19.2361 9.78307 18.889 9.98808 18.7393 10.1404C18.5016 10.3823 18.0485 10.6927 17.6153 11.016C17.2981 11.2527 16.9407 11.6335 16.6141 11.9235" stroke="#278EBA" stroke-width="1.71429" stroke-linecap="round"/>
<path d="M10.8106 16.6367C10.2623 16.893 9.68186 17.1648 9.19462 17.3999C8.92699 17.5291 8.95288 17.5145 8.40568 17.726C8.04892 17.8638 7.69993 18.056 7.3149 18.2205C7.10533 18.3101 6.7854 18.503 6.31027 18.7028C5.84787 18.8972 5.61517 19.0332 5.39882 19.1274C5.32622 19.1744 5.25398 19.1984 5.16386 19.21C5.12143 19.2217 5.08567 19.245 5.04883 19.269" stroke="#278EBA" stroke-width="1.71429" stroke-linecap="round"/>
<path d="M4.75855 19.1252C4.71087 18.9388 4.68631 18.5865 4.71611 18.07C4.74628 17.547 4.89074 17.0915 4.93878 16.7448C4.9726 16.5007 5.04713 16.0808 5.11919 15.5342C5.19601 14.9514 5.30032 14.5141 5.33626 14.3247C5.37256 14.1484 5.38448 13.9483 5.40254 13.7843C5.40868 13.6786 5.40868 13.5271 5.40868 13.3711" stroke="#278EBA" stroke-width="1.71429" stroke-linecap="round"/>
<path d="M6.83846 6.71484C6.17099 6.83134 5.73179 6.91465 5.56347 6.9616C5.43861 6.99643 5.26261 7.05585 4.51568 7.24842C3.89712 7.40789 2.8033 7.73222 2.22053 7.9059C1.49975 8.12071 1.26537 8.20878 1.06618 8.26209C1.02374 8.26809 0.987983 8.26809 0.957644 8.27974C0.927304 8.29138 0.903466 8.31468 0.878906 8.33869" stroke="#278EBA" stroke-width="1.71429" stroke-linecap="round"/>
<path d="M0.857422 8.28906C0.905098 8.47651 1.07341 8.73527 1.4039 9.18165C1.51181 9.3274 1.79434 9.62768 2.16112 10.0921C2.50199 10.5236 2.7941 10.7354 3.29307 11.2461C3.96325 11.8658 4.17888 12.1002 4.43767 12.3824C4.5751 12.5227 4.8254 12.7673 5.08329 13.0194" stroke="#278EBA" stroke-width="1.71429" stroke-linecap="round"/>
<path d="M11.2031 16.6133C11.4087 16.6682 11.6143 16.7232 11.8325 16.7869C12.0507 16.8507 12.2752 16.9217 12.727 17.0937C13.1787 17.2658 13.8507 17.5367 14.2787 17.6995C14.7066 17.8622 14.8701 17.9085 15.0464 17.9751C15.2226 18.0417 15.4068 18.1271 15.5562 18.1875C15.9539 18.3483 16.0732 18.3509 16.1476 18.3836C16.1662 18.3912 16.1843 18.3957 16.1999 18.4034C16.2156 18.411 17.2741 18.7512 17.2871 18.7622" stroke="#278EBA" stroke-width="1.71429" stroke-linecap="round"/>
<path d="M16.1484 12.2773C16.2707 12.7026 16.3315 12.9414 16.4005 13.1807C16.4268 13.2717 16.5147 13.5897 16.6369 14.06C16.7104 14.3432 16.798 14.6218 16.8439 14.9466C16.8718 15.1442 16.8822 15.3251 16.9204 15.5635C16.963 15.8292 16.9815 16.0725 17.0312 16.2515C17.0718 16.398 17.0962 16.5509 17.1534 16.7815C17.242 17.1381 17.2265 17.4181 17.2341 17.5224C17.2418 17.6288 17.2724 17.9761 17.2572 18.4355C17.2421 18.5991 17.2118 18.6212 17.1773 18.6327C17.1428 18.6441 17.1049 18.6441 17.0201 18.6217" stroke="#278EBA" stroke-width="1.71429" stroke-linecap="round"/>
</svg>
