<svg width="144" height="134" viewBox="0 0 144 134" fill="none" xmlns="http://www.w3.org/2000/svg">
<path d="M43.547 118.152C43.547 116.563 43.867 115.357 44.507 114.536C45.147 113.715 46.107 113.304 47.387 113.304C48.667 113.304 49.627 113.715 50.267 114.536C50.907 115.357 51.227 116.563 51.227 118.152C51.227 119.741 50.907 120.947 50.267 121.768C49.627 122.589 48.667 123 47.387 123C46.107 123 45.147 122.589 44.507 121.768C43.867 120.947 43.547 119.741 43.547 118.152ZM49.259 118.152C49.259 117.139 49.1203 116.376 48.843 115.864C48.5657 115.341 48.0803 115.08 47.387 115.08C46.6937 115.08 46.2083 115.341 45.931 115.864C45.6537 116.376 45.515 117.139 45.515 118.152C45.515 119.165 45.6537 119.933 45.931 120.456C46.2083 120.968 46.6937 121.224 47.387 121.224C48.0803 121.224 48.5657 120.968 48.843 120.456C49.1203 119.933 49.259 119.165 49.259 118.152ZM56.459 117.192C56.715 117.192 56.9017 117.277 57.019 117.448C57.1363 117.619 57.195 117.827 57.195 118.072C57.195 118.317 57.1363 118.531 57.019 118.712C56.9017 118.883 56.715 118.968 56.459 118.968H54.955V125.592C54.955 125.891 54.8483 126.109 54.635 126.248C54.4323 126.387 54.1977 126.456 53.931 126.456C53.6643 126.456 53.4243 126.387 53.211 126.248C53.0083 126.109 52.907 125.891 52.907 125.592V113.336C52.907 113.037 53.0083 112.819 53.211 112.68C53.4243 112.541 53.6643 112.472 53.931 112.472C54.1977 112.472 54.4323 112.541 54.635 112.68C54.8483 112.819 54.955 113.037 54.955 113.336V117.192H56.459ZM66.8455 117.496C67.0588 117.613 67.1708 117.8 67.1815 118.056C67.1922 118.312 67.1282 118.541 66.9895 118.744C66.8615 118.936 66.6855 119.064 66.4615 119.128C66.2482 119.192 66.0242 119.16 65.7895 119.032C65.5868 118.915 65.3415 118.771 65.0535 118.6C64.7655 118.429 64.4615 118.243 64.1415 118.04C63.7682 117.805 63.5122 117.613 63.3735 117.464C63.2348 117.304 63.1388 117.149 63.0855 117H63.0695C63.0268 117.181 62.9255 117.363 62.7655 117.544C62.6055 117.715 62.3388 117.917 61.9655 118.152C61.6455 118.355 61.3255 118.552 61.0055 118.744C60.6962 118.925 60.3708 119.112 60.0295 119.304C59.7842 119.443 59.5442 119.464 59.3095 119.368C59.0855 119.261 58.9148 119.107 58.7975 118.904C58.6802 118.723 58.6322 118.509 58.6535 118.264C58.6748 118.019 58.8028 117.827 59.0375 117.688C59.4322 117.464 59.7788 117.261 60.0775 117.08C60.3868 116.899 60.7175 116.696 61.0695 116.472C61.4215 116.237 61.6615 115.997 61.7895 115.752C61.9282 115.507 61.9975 115.192 61.9975 114.808V113.864C61.9975 113.555 62.1042 113.331 62.3175 113.192C62.5308 113.053 62.7762 112.984 63.0535 112.984C63.3308 112.984 63.5762 113.053 63.7895 113.192C64.0028 113.331 64.1095 113.555 64.1095 113.864V114.744C64.1095 115.139 64.1788 115.459 64.3175 115.704C64.4562 115.949 64.6962 116.184 65.0375 116.408C65.3895 116.632 65.7095 116.829 65.9975 117C66.2855 117.171 66.5682 117.336 66.8455 117.496ZM68.4615 113.336C68.4615 113.037 68.5628 112.819 68.7655 112.68C68.9788 112.541 69.2188 112.472 69.4855 112.472C69.7415 112.472 69.9708 112.541 70.1735 112.68C70.3868 112.819 70.4935 113.037 70.4935 113.336V125.592C70.4935 125.891 70.3868 126.109 70.1735 126.248C69.9708 126.387 69.7415 126.456 69.4855 126.456C69.2188 126.456 68.9788 126.387 68.7655 126.248C68.5628 126.109 68.4615 125.891 68.4615 125.592V113.336ZM58.8455 120.296C60.2108 120.296 61.5815 120.28 62.9575 120.248C64.3335 120.216 65.6988 120.141 67.0535 120.024C67.2988 120.003 67.4855 120.067 67.6135 120.216C67.7415 120.355 67.8162 120.541 67.8375 120.776C67.8588 121 67.8215 121.208 67.7255 121.4C67.6295 121.581 67.4588 121.683 67.2135 121.704C66.7548 121.747 66.2535 121.789 65.7095 121.832C65.1762 121.864 64.6055 121.891 63.9975 121.912V125.432C63.9975 125.731 63.8908 125.949 63.6775 126.088C63.4748 126.227 63.2455 126.296 62.9895 126.296C62.7228 126.296 62.4828 126.227 62.2695 126.088C62.0668 125.949 61.9655 125.731 61.9655 125.432V121.976C61.4535 121.987 60.9362 121.997 60.4135 122.008C59.8908 122.008 59.3682 122.008 58.8455 122.008C58.6002 122.008 58.4188 121.923 58.3015 121.752C58.1842 121.581 58.1255 121.379 58.1255 121.144C58.1255 120.92 58.1842 120.723 58.3015 120.552C58.4188 120.381 58.6002 120.296 58.8455 120.296ZM77.536 119.016C76.2347 119.016 75.2533 118.739 74.592 118.184C73.9413 117.619 73.616 116.877 73.616 115.96C73.616 115.043 73.9413 114.307 74.592 113.752C75.2533 113.187 76.2347 112.904 77.536 112.904C78.8373 112.904 79.8133 113.187 80.464 113.752C81.1253 114.307 81.456 115.043 81.456 115.96C81.456 116.877 81.1253 117.619 80.464 118.184C79.8133 118.739 78.8373 119.016 77.536 119.016ZM77.536 114.584C76.8533 114.584 76.352 114.707 76.032 114.952C75.712 115.197 75.552 115.533 75.552 115.96C75.552 116.387 75.712 116.723 76.032 116.968C76.352 117.213 76.8533 117.336 77.536 117.336C78.2187 117.336 78.72 117.213 79.04 116.968C79.36 116.723 79.52 116.387 79.52 115.96C79.52 115.533 79.36 115.197 79.04 114.952C78.72 114.707 78.2187 114.584 77.536 114.584ZM83.024 123.928H80.88C80.6347 123.928 80.4533 123.848 80.336 123.688C80.2293 123.517 80.176 123.315 80.176 123.08C80.176 122.845 80.2293 122.648 80.336 122.488C80.4533 122.317 80.6347 122.232 80.88 122.232H83.024V113.336C83.024 113.037 83.1253 112.819 83.328 112.68C83.5413 112.541 83.7813 112.472 84.048 112.472C84.304 112.472 84.5333 112.541 84.736 112.68C84.9493 112.819 85.056 113.037 85.056 113.336V125.592C85.056 125.891 84.9493 126.109 84.736 126.248C84.5333 126.387 84.304 126.456 84.048 126.456C83.7813 126.456 83.5413 126.387 83.328 126.248C83.1253 126.109 83.024 125.891 83.024 125.592V123.928ZM73.408 119.912C74.7733 119.912 76.144 119.896 77.52 119.864C78.896 119.832 80.2613 119.757 81.616 119.64C81.8613 119.619 82.048 119.683 82.176 119.832C82.304 119.971 82.3787 120.157 82.4 120.392C82.4213 120.616 82.384 120.824 82.288 121.016C82.192 121.197 82.0213 121.299 81.776 121.32C81.296 121.373 80.7733 121.416 80.208 121.448C79.6427 121.48 79.0453 121.507 78.416 121.528V125.432C78.416 125.731 78.3093 125.949 78.096 126.088C77.8933 126.227 77.664 126.296 77.408 126.296C77.152 126.296 76.9173 126.227 76.704 126.088C76.5013 125.949 76.4 125.731 76.4 125.432V121.592C75.8987 121.613 75.3973 121.624 74.896 121.624C74.4053 121.624 73.9093 121.624 73.408 121.624C73.1627 121.624 72.9813 121.539 72.864 121.368C72.7467 121.197 72.688 120.995 72.688 120.76C72.688 120.536 72.7467 120.339 72.864 120.168C72.9813 119.997 73.1627 119.912 73.408 119.912ZM88.7865 116.936C88.7865 116.317 88.9038 115.768 89.1385 115.288C89.3732 114.797 89.7038 114.387 90.1305 114.056C90.5678 113.715 91.0958 113.459 91.7145 113.288C92.3438 113.117 93.0532 113.032 93.8425 113.032C94.6212 113.032 95.3252 113.117 95.9545 113.288C96.5838 113.459 97.1118 113.715 97.5385 114.056C97.9758 114.387 98.3118 114.797 98.5465 115.288C98.7812 115.768 98.8985 116.317 98.8985 116.936C98.8985 117.565 98.7812 118.12 98.5465 118.6C98.3118 119.08 97.9758 119.491 97.5385 119.832C97.1118 120.163 96.5838 120.413 95.9545 120.584C95.3252 120.755 94.6212 120.84 93.8425 120.84C93.0532 120.84 92.3438 120.755 91.7145 120.584C91.0958 120.413 90.5678 120.163 90.1305 119.832C89.7038 119.491 89.3732 119.08 89.1385 118.6C88.9038 118.12 88.7865 117.565 88.7865 116.936ZM96.8505 116.936C96.8505 116.627 96.7918 116.339 96.6745 116.072C96.5678 115.805 96.3918 115.576 96.1465 115.384C95.9012 115.192 95.5865 115.043 95.2025 114.936C94.8292 114.819 94.3758 114.76 93.8425 114.76C93.3092 114.76 92.8505 114.819 92.4665 114.936C92.0932 115.043 91.7838 115.192 91.5385 115.384C91.2932 115.576 91.1118 115.805 90.9945 116.072C90.8878 116.339 90.8345 116.627 90.8345 116.936C90.8345 117.245 90.8878 117.533 90.9945 117.8C91.1118 118.067 91.2932 118.296 91.5385 118.488C91.7838 118.68 92.0932 118.835 92.4665 118.952C92.8505 119.059 93.3092 119.112 93.8425 119.112C94.3758 119.112 94.8292 119.059 95.2025 118.952C95.5865 118.835 95.9012 118.68 96.1465 118.488C96.3918 118.296 96.5678 118.067 96.6745 117.8C96.7918 117.533 96.8505 117.245 96.8505 116.936ZM87.7945 125.144C87.5492 125.144 87.3678 125.059 87.2505 124.888C87.1332 124.717 87.0745 124.515 87.0745 124.28C87.0745 124.056 87.1332 123.859 87.2505 123.688C87.3678 123.517 87.5492 123.432 87.7945 123.432H90.4185V121.944C90.4185 121.645 90.5198 121.427 90.7225 121.288C90.9252 121.149 91.1652 121.08 91.4425 121.08C91.7198 121.08 91.9598 121.149 92.1625 121.288C92.3652 121.427 92.4665 121.645 92.4665 121.944V123.432H95.2185V121.944C95.2185 121.645 95.3198 121.427 95.5225 121.288C95.7252 121.149 95.9652 121.08 96.2425 121.08C96.5198 121.08 96.7598 121.149 96.9625 121.288C97.1652 121.427 97.2665 121.645 97.2665 121.944V123.432H99.8905C100.136 123.432 100.317 123.517 100.435 123.688C100.552 123.859 100.611 124.056 100.611 124.28C100.611 124.515 100.552 124.717 100.435 124.888C100.317 125.059 100.136 125.144 99.8905 125.144H87.7945Z" fill="white"/>
<rect y="2" width="144" height="100" rx="50" fill="#F5F7FF"/>
<path d="M47.2892 45.2923C47.2892 35.0186 56.4586 25.9746 67.3345 25.9746C86.3249 29.1942 88.7853 25.9746 86.6742 45.2923C90.1683 60.5212 71.1791 61.9521 66.9817 63.8945C56.1058 63.8945 47.2892 55.566 47.2892 45.2923Z" fill="#A2C9FF"/>
<path d="M47.2892 45.2923C47.2892 35.0186 56.4586 25.9746 67.3345 25.9746C86.3249 29.1942 88.7853 25.9746 86.6742 45.2923C90.1683 60.5212 71.1791 61.9521 66.9817 63.8945C56.1058 63.8945 47.2892 55.566 47.2892 45.2923Z" fill="#A2C9FF"/>
<path d="M47.2892 45.2923C47.2892 35.0186 56.4586 25.9746 67.3345 25.9746C86.3249 29.1942 88.7853 25.9746 86.6742 45.2923C90.1683 60.5212 71.1791 61.9521 66.9817 63.8945C56.1058 63.8945 47.2892 55.566 47.2892 45.2923Z" fill="#D8EDFF"/>
<path d="M43.7722 56.0261C43.4214 52.0897 47.2359 50.3023 51.5086 50.3023C55.7812 50.3023 59.2449 52.8649 59.2449 56.0261C59.2449 59.1872 64.5205 62.8217 51.5086 61.7498C47.2359 61.7498 43.7722 59.1872 43.7722 56.0261Z" fill="#D8EDFF"/>
<path d="M44.825 47.2526C44.4741 43.3163 48.2886 41.5289 52.5613 41.5289C56.834 41.5289 60.2976 44.0915 60.2976 47.2526C60.2976 50.4138 65.5733 54.0483 52.5613 52.9764C48.2886 52.9764 44.825 50.4138 44.825 47.2526Z" fill="#D8EDFF"/>
<path d="M46.2293 39.3776C45.8784 35.4413 49.6929 33.6539 53.9656 33.6539C58.2383 33.6539 61.7019 36.2165 61.7019 39.3776C61.7019 42.5388 66.9776 46.1733 53.9656 45.1014C49.6929 45.1014 46.2293 42.5388 46.2293 39.3776Z" fill="#D8EDFF"/>
<path d="M48.3406 32.9401C47.9898 29.0038 51.8043 27.2164 56.0769 27.2164C67.3327 25.2615 63.8133 29.779 63.8133 32.9401C63.8133 36.1013 69.0889 39.7358 56.0769 38.6639C51.8043 38.6639 49.0468 35.9936 48.3406 32.9401Z" fill="#D8EDFF"/>
<path d="M64.8496 49.4327C64.8496 47.6546 66.5814 46.2131 68.7178 46.2131C70.8541 46.2131 72.5859 47.6546 72.5859 49.4327C72.5859 51.2109 70.1244 51.9369 68.7178 52.6523C66.5814 52.6523 64.8496 51.2109 64.8496 49.4327Z" fill="#A2C9FF"/>
<path d="M64.8496 49.4327C64.8496 47.6546 66.5814 46.2131 68.7178 46.2131C70.8541 46.2131 72.5859 47.6546 72.5859 49.4327C72.5859 51.2109 70.1244 51.9369 68.7178 52.6523C66.5814 52.6523 64.8496 51.2109 64.8496 49.4327Z" fill="#A2C9FF"/>
<path d="M64.8496 49.4327C64.8496 47.6546 66.5814 46.2131 68.7178 46.2131C70.8541 46.2131 72.5859 47.6546 72.5859 49.4327C72.5859 51.2109 70.1244 51.9369 68.7178 52.6523C66.5814 52.6523 64.8496 51.2109 64.8496 49.4327Z" fill="#A2C9FF"/>
<path d="M57.1393 69.6209C57.1393 62.1132 61.0046 56.3847 64.1723 56.0269C91.2468 56.3847 71.1777 58.7351 69.0688 69.6209C69.0688 77.1286 74.019 82.8571 64.1723 83.2148C60.2881 83.2148 57.1393 77.1286 57.1393 69.6209Z" fill="#D8EDFF"/>
<path d="M86.6742 43.5072C86.6742 33.2335 81.7508 24.905 91.9489 24.905C103.178 23.3203 100.037 32.1612 100.037 42.4349C100.037 52.7086 102.147 62.4683 92.6524 59.9639C81.7511 63.5404 87.3541 53.725 86.6742 43.5072Z" fill="#A3CDFF"/>
<ellipse cx="93.005" cy="30.9903" rx="2.11021" ry="2.14641" transform="rotate(-180 93.005 30.9903)" fill="#E4EBFF"/>
<path fill-rule="evenodd" clip-rule="evenodd" d="M92.3104 24.0178C93.1445 24.0473 94.1246 24.1119 95.0145 24.1965C95.2419 24.2182 95.4798 24.2294 95.7371 24.2405C95.9882 24.2513 96.2616 24.2623 96.5321 24.2844C97.0702 24.3285 97.673 24.4214 98.2342 24.6985C98.5442 24.8515 98.9062 25.0189 99.2088 25.1975C99.5198 25.381 99.8507 25.6218 100.094 25.9739C100.385 26.3959 100.595 26.9895 100.737 27.6692C100.882 28.3633 100.97 29.2049 100.981 30.1643C100.997 31.4633 101.023 33.8959 100.98 35.219C100.956 35.9826 100.911 36.5291 100.866 37.1516C100.821 37.7719 100.774 38.485 100.739 39.6047C100.708 40.6147 100.708 42.106 100.724 42.9944C100.74 43.8548 100.772 44.1877 100.788 46.0657C100.804 47.9526 100.804 51.3451 100.755 53.4202C100.705 55.5051 100.607 56.2635 100.503 56.8948C100.461 57.1459 100.419 57.4633 100.372 57.7024C100.322 57.9533 100.245 58.2535 100.08 58.5227C99.4888 59.4838 98.6837 60.1275 98.1492 60.4778C97.9993 60.576 97.8273 60.6101 97.6619 60.593C97.4696 60.7676 97.1934 60.8397 96.9285 60.7541C96.8285 60.7218 96.7605 60.7105 96.7176 60.7063C96.6769 60.7024 96.6452 60.7037 96.6131 60.7073V60.7063C96.0503 60.7887 95.4346 60.8527 93.536 60.9153C92.4828 61.0692 91.2847 61.0862 90.1942 61.1829C89.7559 61.2217 89.2555 61.2664 88.7879 61.2717C88.335 61.2769 87.8257 61.2484 87.3973 61.093C87.1545 61.0049 86.8268 60.8678 86.5125 60.678C86.2102 60.4953 85.8477 60.2214 85.6209 59.8284C85.5105 59.6369 85.4348 59.3772 85.3807 59.1536C85.3206 58.9055 85.2674 58.6112 85.2274 58.301C85.165 57.8172 85.1295 57.2509 85.1658 56.7268C84.5008 57.4511 84.0225 57.8533 83.5926 58.1311C83.3877 58.2635 82.6322 58.714 81.5281 59.2883C80.9908 59.5679 80.712 59.7471 80.0887 60.008C79.5866 60.2182 78.6602 60.6331 78.0555 60.9358C77.4647 61.2315 77.2424 61.3961 76.6678 61.7385C76.3913 61.9033 76.0505 62.0978 75.7137 62.2903C75.3731 62.4849 75.0343 62.6788 74.7498 62.8489C74.2862 63.1261 73.9153 63.3625 73.6092 63.5598C73.3117 63.7516 73.0504 63.9224 72.8338 64.0461C72.6036 64.1776 72.3654 64.3909 72.1053 64.6682C71.9776 64.8043 71.8531 64.9458 71.7244 65.093C71.5992 65.2363 71.4664 65.3888 71.3358 65.5276C71.2335 65.6362 71.1348 65.7982 71.0242 66.0247C70.942 66.1931 70.792 66.5397 70.6834 66.7414C70.6357 66.83 70.5755 67.0168 70.5047 67.3264C70.4718 67.4706 70.4394 67.6237 70.4061 67.7864C70.3733 67.9462 70.3385 68.117 70.3016 68.2805C70.1939 68.7579 70.0922 69.1273 70.0184 69.4084C69.9411 69.7026 69.9031 69.8732 69.8904 70.0129C69.8513 70.4457 69.7793 70.9081 69.742 72.3694C69.7189 73.2761 69.8258 74.6611 69.9227 75.3381C69.9471 75.5084 70.0216 75.7125 70.1473 76.1418C70.2592 76.5243 70.3822 77.0047 70.4188 77.5559C70.4604 78.1832 70.5788 79.2936 70.6424 79.9153C70.688 80.3616 70.5328 80.8331 70.4022 81.1692C70.2642 81.5241 70.0764 81.9074 69.9647 82.1545L69.8885 82.2981C69.691 82.6104 69.3796 82.7834 69.2078 82.8782C68.9418 83.0249 68.7454 83.1118 68.4822 83.2805C68.1034 83.5234 67.7745 83.6708 67.2635 83.8342C66.2142 84.1696 64.8913 83.9475 63.9256 83.6682C63.3503 83.5018 62.8701 83.2104 62.4774 83.0129C61.9695 82.7576 61.6121 82.4769 61.2781 82.2209C60.7448 81.8122 60.1956 81.3181 59.6531 80.595C59.106 79.8655 58.7779 79.0467 58.6297 78.7795C58.2109 78.0252 57.9497 77.4769 57.7625 77.0588C57.5626 76.6122 57.4826 76.4012 57.3797 76.2092C57.1652 75.8089 57.0853 75.37 57.036 75.0295C56.9793 74.6388 56.9616 74.3977 56.9012 74.1682C56.7719 73.6774 56.7253 72.8708 56.701 72.0383C56.6872 71.5653 56.5745 70.5823 56.5994 69.4797C56.6326 68.0176 56.9105 67.3146 57.0692 66.6096C57.3885 65.1904 57.7128 64.1515 57.9315 63.5696C57.9849 63.2822 58.051 63.0013 58.1072 62.7717C58.1444 62.6201 58.171 62.5015 58.1912 62.4104C57.2594 62.4107 56.6953 62.4122 56.4901 62.4202C56.2041 62.4313 55.472 62.4733 54.159 62.4211C53.3355 62.3884 52.656 62.3218 52.1463 62.261C51.5917 62.1948 51.3377 62.1508 51.2108 62.1418C50.8605 62.1174 50.5769 62.0538 50.3514 62.0022C50.116 61.9483 49.9733 61.9153 49.8192 61.9045C49.4243 61.8771 49.1035 61.7704 48.6668 61.6204C47.7467 61.3042 46.6969 61.0039 45.9891 60.6448C44.99 60.1377 44.1979 59.3603 43.7615 58.6858C43.5014 58.2836 43.3832 57.8874 43.2567 57.4104C43.0759 56.7288 43.0218 55.8158 43.0008 55.0061C42.9851 54.394 43.2023 53.8025 43.4442 53.3323C43.6914 52.8516 44.0011 52.4269 44.2557 52.1291C44.3763 51.988 44.6978 51.5366 45.2596 51.1282C45.4617 50.9813 45.6898 50.8431 45.9578 50.7151C45.9468 50.7077 45.9355 50.7009 45.9246 50.6936C45.5647 50.452 45.2387 50.1969 45.0262 49.9329C44.7201 49.5524 44.5539 49.0367 44.5379 49.0012C44.4201 48.7504 44.3593 48.439 44.3172 48.1623C44.2726 47.8687 44.2372 47.5221 44.201 47.1623C44.1277 46.4348 44.1888 45.9139 44.2615 45.5754C44.4082 44.8929 44.7174 44.1861 45.0311 43.7112C45.3261 43.2648 45.6368 42.9379 45.8826 42.7043C46.0769 42.5198 46.3214 42.3906 46.5291 42.2952C46.6556 42.237 46.7922 42.1808 46.9315 42.1272C46.7544 41.9231 46.6227 41.7444 46.536 41.6164C46.1255 41.011 46.0172 40.3049 45.952 39.7444C45.9487 39.7159 45.9454 39.7017 45.9324 39.6213C45.9214 39.5529 45.9078 39.4642 45.9012 39.3557C45.8878 39.136 45.9019 38.8755 45.9637 38.5247C46.0056 38.2868 46.0906 37.9434 46.1522 37.6399C46.2395 37.2096 46.3302 36.918 46.4324 36.6907C46.5234 36.4886 46.6539 36.2944 46.6668 36.2727C46.797 36.0498 47.036 35.7126 47.4569 35.258C47.9129 34.7656 48.3273 34.4334 48.5887 34.2541C48.5291 34.1741 48.4891 34.0954 48.4617 34.0256C48.3896 33.9301 48.2551 33.7337 48.1668 33.4866L48.118 33.3215L48.1043 33.2668L48.0994 33.2102C48.0424 32.5606 48.1397 31.5619 48.242 30.8547C48.2989 30.4616 48.3909 30.1164 48.5506 29.7756C48.7298 29.3933 49.1612 28.5724 49.7469 28.095C49.9978 27.8905 50.4063 27.5393 50.8953 27.383C51.3392 27.2412 51.6313 27.1578 52.1912 26.9709C52.6905 26.8043 53.0579 26.6997 53.4256 26.6497C53.5671 26.6303 53.6565 26.5977 54.0321 26.5168C54.362 26.4458 54.8128 26.3645 55.4979 26.2903C56.1043 26.2246 56.8644 26.0456 58.2332 25.9875C58.587 25.9726 59.0325 25.969 59.4471 25.9661C59.872 25.9631 60.2621 25.9601 60.532 25.9485C60.8339 25.9354 61.0735 25.9051 61.408 25.8655C61.7428 25.8258 62.1463 25.7808 62.7381 25.7463C63.6914 25.6908 64.4605 25.6286 64.8309 25.6204C65.0315 25.6159 65.2345 25.5968 65.659 25.5735C66.0623 25.5514 66.6123 25.5295 67.4227 25.5237C68.6994 25.5145 70.9209 25.502 72.1141 25.5637C72.777 25.598 73.1817 25.634 73.4549 25.6643C73.772 25.6995 73.8167 25.7128 73.911 25.718C74.474 25.749 75.1701 25.8181 76.075 26.0032C76.5554 26.1014 76.969 26.172 77.2879 26.2239C77.5677 26.2694 77.8616 26.3127 78.0047 26.3528C78.4747 26.4843 79.2439 26.677 79.9139 26.8391C80.5655 26.9967 81.0278 27.0886 81.4412 27.1819C81.8331 27.2703 82.1929 27.3624 82.5203 27.5188C82.6365 27.5742 82.851 27.6413 83.2713 27.7922C83.6521 27.929 84.1292 28.1116 84.6404 28.3635C84.8379 28.4609 85.0202 28.5681 85.1932 28.6829C85.2066 28.3074 85.2225 27.9503 85.2567 27.6438C85.295 27.2998 85.3677 26.8766 85.5848 26.55C85.7022 26.3735 85.8609 26.1194 86.0242 25.9114C86.1915 25.6985 86.4295 25.4428 86.7645 25.2883C87.1457 25.1125 87.4414 24.9619 87.7313 24.8176C88.019 24.6744 88.3015 24.5373 88.6297 24.4045C88.9514 24.2744 89.2739 24.2188 89.5526 24.1799C89.8553 24.1377 90.0851 24.1159 90.3621 24.0627C90.751 23.9882 91.5145 23.9897 92.3104 24.0178ZM67.4334 27.0237C66.6471 27.0293 66.121 27.0507 65.741 27.0715C65.3832 27.0911 65.0938 27.1142 64.8641 27.1194C64.5261 27.1269 63.8498 27.1837 62.825 27.2434C62.2752 27.2754 61.905 27.3178 61.5848 27.3557C61.2644 27.3936 60.9655 27.4316 60.5965 27.4475C60.2927 27.4606 59.8697 27.4632 59.4578 27.4661C59.0359 27.469 58.6188 27.472 58.2967 27.4856C56.963 27.5421 56.4853 27.692 55.659 27.7815C55.0247 27.8502 54.6253 27.9228 54.3475 27.9827C54.1163 28.0325 53.8391 28.1072 53.6278 28.136C53.4041 28.1664 53.1449 28.2339 52.6658 28.3938C52.1003 28.5825 51.7515 28.6839 51.3514 28.8118C51.1888 28.8639 51.012 28.998 50.6942 29.2571C50.5602 29.3663 50.4068 29.5532 50.2547 29.7873C50.1076 30.014 49.9865 30.247 49.909 30.4123C49.8253 30.591 49.7672 30.7877 49.7264 31.0696C49.6306 31.7317 49.5611 32.5338 49.5897 33.009C49.598 33.0294 49.6077 33.0488 49.6199 33.0676C49.6311 33.0847 49.6447 33.1024 49.6639 33.1272C49.6686 33.1333 49.6896 33.1612 49.6981 33.1721C49.7105 33.1882 49.7307 33.2148 49.7508 33.2444L49.7938 33.3079L49.8231 33.3791C49.8306 33.3973 49.8374 33.4142 49.8426 33.4289C49.9045 33.5265 49.9394 33.6354 49.952 33.7463C50.0802 33.7184 50.2168 33.6893 50.3621 33.6643C50.6946 33.6072 51.3338 33.5455 52.1453 33.552C52.3092 33.5533 52.4211 33.5584 52.5311 33.5637C52.637 33.5688 52.7441 33.5744 52.9129 33.5774C53.2654 33.5836 53.8662 33.5835 54.3514 33.5598C54.8313 33.5363 55.1801 33.4903 55.4344 33.4631C55.7028 33.4344 55.8187 33.4329 55.9334 33.4329C56.3474 33.433 56.6833 33.7688 56.6834 34.1829C56.6834 34.597 56.3475 34.9327 55.9334 34.9329C55.8898 34.9329 55.8604 34.9326 55.8172 34.9348C55.7719 34.9371 55.7044 34.9426 55.5946 34.9543C55.3702 34.9783 54.9606 35.0316 54.4246 35.0579C53.8938 35.0838 53.2562 35.0839 52.8856 35.0774C52.6934 35.074 52.568 35.068 52.4588 35.0627C52.354 35.0577 52.2658 35.0531 52.1326 35.052C51.3901 35.0461 50.8434 35.103 50.617 35.1418C49.9634 35.2543 49.6158 35.3897 49.4998 35.4504C49.4874 35.4586 49.3901 35.5187 49.2274 35.6487C49.0521 35.7888 48.8171 35.9971 48.5574 36.2776C48.1917 36.6727 48.0251 36.9218 47.9627 37.0286C47.8531 37.2162 47.8519 37.192 47.8006 37.3059C47.7598 37.3966 47.6963 37.571 47.6219 37.9377C47.5312 38.3845 47.4846 38.5379 47.4412 38.7844C47.3952 39.0459 47.3945 39.186 47.3992 39.2639C47.4017 39.3041 47.406 39.3394 47.4129 39.3821C47.4179 39.4129 47.4328 39.4981 47.4412 39.5705C47.5053 40.121 47.5906 40.498 47.7781 40.7747C47.8932 40.9443 48.1315 41.2628 48.5018 41.5813C48.5548 41.6269 48.5835 41.6362 48.5965 41.6399C48.615 41.645 48.6575 41.6535 48.7528 41.6457C48.7994 41.6419 48.8454 41.6431 48.8904 41.6477C49.1724 41.594 49.6229 41.5169 50.2947 41.4495C51.0443 41.3743 52.1458 41.3892 52.7293 41.3967C53.331 41.4045 53.5552 41.4343 53.7733 41.512C53.9078 41.5599 54.0066 41.6092 54.075 41.6428C54.4463 41.8258 54.5996 42.2752 54.4168 42.6467C54.2339 43.0179 53.7843 43.1709 53.4129 42.9885C53.3483 42.9568 53.3166 42.9416 53.2703 42.925H53.2713C53.2684 42.9244 53.2547 42.9214 53.2264 42.9182C53.1496 42.9095 53.0008 42.9005 52.7098 42.8967C52.0971 42.8888 51.0918 42.8768 50.4451 42.9416C49.434 43.0431 49.0713 43.148 48.7987 43.1926C48.5041 43.2408 48.1775 43.2651 47.7498 43.4221C47.5082 43.5109 47.3121 43.5863 47.1551 43.6584C47.0785 43.6936 47.0202 43.7243 46.9774 43.7502C46.9565 43.7629 46.941 43.7727 46.9305 43.7805C46.9203 43.788 46.9159 43.7922 46.9158 43.7922C46.7202 43.9781 46.4939 44.2177 46.282 44.5383C46.0724 44.8557 45.8363 45.3886 45.7283 45.8909C45.6874 46.0815 45.6361 46.445 45.6932 47.012C45.7304 47.3811 45.7628 47.6878 45.8006 47.9368C45.841 48.2023 45.8774 48.3253 45.8953 48.3635C45.9328 48.4433 45.9647 48.5238 45.9871 48.5823C46.0121 48.6474 46.0302 48.6962 46.0516 48.7463C46.0908 48.838 46.1327 48.9159 46.1942 48.9924C46.2592 49.0731 46.4293 49.2261 46.7606 49.4485C47.0611 49.6502 47.4542 49.8823 47.9373 50.1438C47.9692 50.1386 48.0015 50.1322 48.034 50.1272C49.3834 49.9203 51.322 49.8585 53.244 49.7961C53.6577 49.7829 54.0048 50.108 54.0184 50.5217C54.0317 50.9355 53.7065 51.2815 53.2928 51.2952C51.3318 51.3588 49.5007 51.4196 48.2615 51.6096C47.0574 51.7943 46.4935 52.0852 46.1414 52.3411C45.7646 52.615 45.5998 52.8657 45.3963 53.1038C45.1999 53.3335 44.9603 53.6619 44.7772 54.0178C44.5887 54.3842 44.4943 54.7146 44.5008 54.968C44.5219 55.7823 44.5763 56.5334 44.7069 57.0256C44.8306 57.492 44.9 57.6852 45.0203 57.8713C45.3157 58.328 45.9101 58.9223 46.6678 59.3069C47.252 59.6033 48.0935 59.8366 49.1551 60.2014C49.6109 60.358 49.7537 60.3966 49.9237 60.4084C50.218 60.429 50.4832 60.4937 50.6863 60.5403C50.8993 60.589 51.0872 60.6289 51.3143 60.6448C51.4799 60.6564 51.8901 60.72 52.324 60.7717C52.8045 60.829 53.4434 60.8913 54.2186 60.9221C55.469 60.9718 56.1516 60.9321 56.4315 60.9211C56.7119 60.9102 57.4995 60.9104 58.7283 60.9104C58.772 60.9104 58.8147 60.9149 58.8563 60.9221C58.9777 60.888 59.109 60.8815 59.2401 60.9143C59.6415 61.0151 59.8855 61.4228 59.785 61.8245C59.7299 62.0447 59.7337 62.1747 59.7176 62.3918L59.7137 62.4309C59.688 62.6319 59.6202 62.9009 59.5643 63.1291C59.5024 63.3816 59.4386 63.6435 59.3934 63.8997L59.3807 63.9709L59.3553 64.0393C59.1701 64.5191 58.8532 65.5111 58.5321 66.9387C58.3411 67.7876 58.1281 68.249 58.0994 69.5139C58.0747 70.6073 58.1796 71.2939 58.2 71.9944C58.2254 72.8644 58.2739 73.4921 58.3514 73.7864C58.4408 74.1257 58.4817 74.5468 58.5203 74.8137C58.5663 75.1307 58.6192 75.3468 58.702 75.5012C58.8378 75.7547 58.9729 76.091 59.1317 76.4455C59.3033 76.8291 59.5457 77.3384 59.9412 78.051C60.2429 78.5946 60.3736 79.0572 60.8524 79.6955C61.2923 80.282 61.735 80.6816 62.1903 81.0305C62.5342 81.2941 62.7873 81.4892 63.1512 81.6721C63.6902 81.9431 63.9443 82.1126 64.3426 82.2278C65.2475 82.4895 66.2027 82.5983 66.8065 82.4055C67.2227 82.2724 67.4271 82.1752 67.6727 82.0178C67.9871 81.8162 68.3257 81.6516 68.4832 81.5647C68.5595 81.5226 68.6028 81.4939 68.6278 81.4758C68.7606 81.1854 68.8938 80.9116 69.0047 80.6262C69.1304 80.3027 69.156 80.1273 69.1502 80.0686C69.0888 79.4686 68.9657 78.3179 68.9217 77.6555C68.8957 77.2643 68.8079 76.9046 68.7078 76.5627C68.6216 76.268 68.483 75.8617 68.4383 75.55C68.3318 74.8057 68.2174 73.3364 68.243 72.3313C68.2818 70.8098 68.3589 70.2908 68.3963 69.8772C68.4218 69.5959 68.4925 69.3121 68.5672 69.0276C68.6454 68.73 68.7384 68.3952 68.8387 67.9504C68.8717 67.8041 68.9038 67.6493 68.9373 67.4856C68.9702 67.325 69.0045 67.1548 69.0418 66.9914C69.1117 66.6856 69.2077 66.3174 69.3621 66.0305C69.4667 65.8363 69.5192 65.6887 69.6766 65.3664C69.8055 65.1024 69.9839 64.7766 70.244 64.5002C70.3518 64.3857 70.4653 64.2558 70.5955 64.1067C70.7223 63.9616 70.8631 63.8001 71.0115 63.6418C71.3037 63.3303 71.6635 62.9878 72.0897 62.7444C72.2617 62.6461 72.4774 62.5048 72.7967 62.2991C73.1078 62.0986 73.4951 61.8509 73.9803 61.5608C74.2796 61.3818 74.6309 61.1805 74.9686 60.9875C75.3101 60.7924 75.6371 60.6056 75.8992 60.4495C76.4019 60.1499 76.7274 59.9225 77.3836 59.594C78.0261 59.2724 78.9851 58.8438 79.5096 58.6243C80.0564 58.3954 80.2119 58.2823 80.8367 57.9573C81.9158 57.3959 82.6271 56.9696 82.7791 56.8713C83.0732 56.6813 83.4614 56.3698 84.0819 55.6916C84.5266 55.2056 84.8934 54.7784 85.1571 54.4377C85.2891 54.2671 85.3887 54.1256 85.4578 54.0159C85.5133 53.9277 85.5351 53.8816 85.5408 53.8694C85.5753 53.751 85.6382 53.6495 85.7176 53.5657C85.7222 53.5112 85.7295 53.4563 85.7332 53.4006C85.8314 51.953 85.9467 50.9177 85.9725 49.1692C85.9885 48.0821 86.0133 46.1948 85.9725 45.1848C85.9216 43.9259 86.0239 43.6515 85.7664 41.136C85.6841 40.3316 85.6477 39.6379 85.616 38.9495C85.5842 38.2592 85.5573 37.5778 85.492 36.7727C85.4544 36.3097 85.3614 35.7872 85.2615 35.0901C85.1649 34.4153 85.0716 33.6326 85.0555 32.7454C85.0404 31.9133 85.063 31.1615 85.0936 30.5325C84.6989 30.1593 84.3729 29.9042 83.9774 29.7092C83.5382 29.4928 83.1206 29.3312 82.7645 29.2034C82.4482 29.0898 82.081 28.9712 81.8738 28.8723C81.712 28.795 81.4979 28.732 81.1112 28.6448C80.7458 28.5624 80.222 28.4569 79.5613 28.2971C78.8902 28.1347 78.0974 27.9365 77.5994 27.7971C77.5947 27.7961 77.5545 27.787 77.4471 27.7688C77.343 27.7512 77.2134 27.7315 77.0467 27.7043C76.7194 27.6511 76.2833 27.577 75.7742 27.4729C74.9501 27.3044 74.3276 27.2436 73.8279 27.2161C73.6862 27.2082 73.4843 27.1771 73.2899 27.1555C73.051 27.129 72.6762 27.0949 72.0369 27.0618C70.8984 27.0028 68.7286 27.0143 67.4334 27.0237ZM92.2567 25.5168C91.4165 25.4872 90.8356 25.5 90.6453 25.5364C90.32 25.5988 89.9865 25.6338 89.7606 25.6653C89.5107 25.7002 89.3373 25.7365 89.1922 25.7952C88.9201 25.9052 88.68 26.0207 88.3992 26.1604C88.1204 26.2992 87.7992 26.463 87.3924 26.6506C87.3748 26.6589 87.3141 26.6969 87.2039 26.8372C87.0891 26.9833 86.9893 27.1463 86.8338 27.3801C86.8339 27.3803 86.7847 27.4792 86.7479 27.8098C86.7141 28.1131 86.6996 28.4972 86.6834 28.9797C86.6574 29.7531 86.523 30.9826 86.5545 32.718C86.569 33.5165 86.6532 34.2303 86.7459 34.8772C86.8354 35.5019 86.9446 36.1277 86.9871 36.6516C87.055 37.4884 87.0837 38.1987 87.1151 38.8801C87.1465 39.5633 87.1808 40.2222 87.2586 40.9827C87.5215 43.5517 87.4259 43.9974 87.4715 45.1243C87.5144 46.1854 87.4883 48.1216 87.4725 49.1916C87.4459 50.9931 87.3241 52.1047 87.2293 53.5022C87.1776 54.2651 87.0574 54.9222 86.9422 55.4485C86.8166 56.0222 86.7281 56.3247 86.6912 56.5618C86.6254 56.9857 86.6448 57.5676 86.7147 58.1096C86.7489 58.3747 86.7935 58.6135 86.8387 58.8C86.8837 58.9859 86.917 59.0679 86.9207 59.0784C86.963 59.1517 87.0753 59.2663 87.2879 59.3948C87.4885 59.5159 87.7178 59.6134 87.909 59.6829C88.0729 59.7422 88.3569 59.7774 88.7703 59.7727C89.1698 59.7681 89.6117 59.7286 90.0623 59.6887C91.3604 59.5737 92.3321 59.5807 93.3592 59.426L93.4031 59.4192L93.4471 59.4182C95.3861 59.3549 95.9298 59.2926 96.4207 59.22L96.4334 59.218L96.4471 59.2161C96.6621 59.1921 96.9186 59.1958 97.2479 59.2844C97.2728 59.2629 97.2987 59.2414 97.327 59.2229C97.7517 58.9445 98.3662 58.4471 98.8026 57.7375C98.8243 57.7021 98.8598 57.6157 98.9002 57.4114C98.943 57.1948 98.9679 56.9853 99.0233 56.6506C99.1128 56.1095 99.206 55.4254 99.2547 53.385C99.3036 51.334 99.3038 47.9597 99.2879 46.0784C99.2719 44.1882 99.2415 43.9557 99.2244 43.0217C99.2079 42.1157 99.2078 40.5995 99.2401 39.5588C99.2757 38.4121 99.324 37.6767 99.3699 37.0432C99.4157 36.4119 99.4577 35.8975 99.4813 35.1702C99.5227 33.888 99.4973 31.4946 99.4813 30.1829C99.4705 29.2989 99.3898 28.5568 99.2684 27.9768C99.1439 27.3825 98.9872 27.011 98.8592 26.8254C98.795 26.7324 98.6765 26.6255 98.4461 26.4895C98.2074 26.3486 97.9357 26.2237 97.5701 26.0432C97.2626 25.8914 96.8839 25.8184 96.41 25.7795C96.1746 25.7603 95.9336 25.7498 95.6727 25.7385C95.4178 25.7275 95.1441 25.7155 94.8729 25.6897C94.0106 25.6076 93.0595 25.5452 92.2567 25.5168ZM71.4832 54.7707C71.9248 54.771 72.1295 54.7886 72.4119 54.8704C72.6097 54.9276 72.8907 55.0205 73.1151 55.1243C73.4033 55.2577 73.6429 55.4848 73.8406 55.7131C74.046 55.9504 74.256 56.2479 74.4744 56.5881C74.6979 56.9366 74.5972 57.4015 74.2488 57.6252C73.9004 57.8488 73.4365 57.7469 73.2127 57.3987C73.0105 57.0836 72.8438 56.8539 72.7059 56.6946C72.6382 56.6165 72.5841 56.5627 72.5428 56.5276C72.5083 56.4984 72.4887 56.4875 72.4852 56.4856C72.3614 56.4284 72.1636 56.3606 71.9949 56.3118C71.9339 56.2941 71.9012 56.2867 71.8514 56.2815C71.7865 56.2747 71.6841 56.2709 71.4822 56.2707C71.0789 56.2705 70.4209 56.288 69.8865 56.3664C69.3708 56.4422 68.981 56.5761 68.7166 56.6946C68.4675 56.8063 68.3562 56.8933 68.2596 56.9797C68.1554 57.0729 68.0768 57.1602 67.9862 57.301C67.8821 57.4627 67.7687 57.6838 67.6278 57.9612C67.4401 58.33 66.989 58.4774 66.6199 58.2903C66.2507 58.1026 66.1032 57.6507 66.2908 57.2815C66.4209 57.0256 66.5714 56.7289 66.7254 56.4895C66.8929 56.2292 67.0603 56.0398 67.2596 55.8616C67.4664 55.6767 67.7065 55.504 68.1024 55.3264C68.4833 55.1555 69.0061 54.9794 69.6688 54.8821C70.3132 54.7875 71.0585 54.7705 71.4832 54.7707ZM68.577 45.4631C69.0303 45.4724 69.7894 45.5071 70.3084 45.5969C70.8921 45.698 71.1975 45.8697 71.4676 46.0618C71.6568 46.1963 71.9085 46.3797 72.1063 46.6057C72.3957 46.9365 72.6497 47.3142 72.8328 47.7434C72.9412 47.9976 73.0185 48.2572 73.0115 48.7239C73.0055 49.1263 72.9384 49.7 72.8865 50.0227C72.8591 50.1932 72.831 50.32 72.8006 50.4231C72.7724 50.5188 72.7383 50.6002 72.7342 50.6096C72.6397 50.8515 72.4098 51.2871 71.7508 51.72C71.3834 51.9612 70.8714 52.2022 70.4334 52.4094C70.3702 52.4393 70.3038 52.4558 70.2381 52.467C70.0286 52.5761 69.633 52.7301 69.1551 52.8791L69.1121 52.8928L69.0682 52.9006C68.6371 52.9805 68.1649 53.0371 67.6424 52.9719C67.3851 52.9398 67.1195 52.8833 66.8494 52.7981C66.6235 52.7268 66.4221 52.6625 66.2567 52.6018C66.1013 52.5448 65.9243 52.4721 65.7752 52.3743C65.5275 52.2117 65.1194 51.9485 64.7908 51.4329C64.6266 51.175 64.4095 50.7857 64.2957 50.5159C64.1261 50.1133 64.0686 49.7374 64.118 49.258C64.159 48.8598 64.2174 48.4456 64.3758 48.0471C64.4631 47.8276 64.602 47.5197 64.8807 47.1731C65.1496 46.8388 65.5336 46.4837 66.0213 46.1955C66.4964 45.9149 67.0399 45.7134 67.4002 45.6038C67.8253 45.4744 68.0766 45.4529 68.577 45.4631ZM68.5467 46.9631C68.1489 46.955 68.0651 46.9688 67.8367 47.0383C67.5432 47.1277 67.1212 47.2884 66.784 47.4875C66.4595 47.6793 66.2112 47.9118 66.0496 48.1125C65.8984 48.3006 65.8265 48.4597 65.7703 48.6008C65.6926 48.7962 65.6488 49.037 65.6102 49.4123C65.5855 49.6518 65.61 49.7736 65.6776 49.9338C65.7466 50.0974 65.917 50.4074 66.0565 50.6262C66.2002 50.8517 66.3675 50.9694 66.5975 51.1204C66.6002 51.1217 66.6439 51.1461 66.7733 51.1936C66.9017 51.2407 67.072 51.2953 67.3006 51.3674C67.4813 51.4244 67.6578 51.4624 67.8279 51.4836C68.1196 51.52 68.4082 51.4955 68.7528 51.4338C69.2017 51.2919 69.4789 51.174 69.5477 51.137L69.5526 51.134C69.5604 51.1298 69.5689 51.1255 69.575 51.1223C69.581 51.1192 69.5863 51.1168 69.5906 51.1145C69.5995 51.1098 69.6052 51.1064 69.6082 51.1047L69.6942 51.05C69.7843 50.9996 69.8823 50.9736 69.9803 50.9631C70.3718 50.7768 70.7026 50.6137 70.9276 50.4661C71.1229 50.3377 71.2246 50.2314 71.2742 50.1682C71.3201 50.1096 71.333 50.0744 71.3367 50.0647C71.3619 50.0002 71.3557 50.02 71.3621 49.9983C71.3688 49.9754 71.3841 49.915 71.4051 49.7844C71.4507 49.5009 71.5069 49.0051 71.5115 48.7014C71.5136 48.564 71.5034 48.493 71.4959 48.4563C71.4892 48.4237 71.4801 48.3949 71.4529 48.3313C71.3426 48.0727 71.182 47.828 70.9774 47.594C70.9088 47.5156 70.7916 47.4208 70.5985 47.2834C70.5222 47.2292 70.4721 47.1985 70.409 47.1711C70.3431 47.1426 70.2367 47.1073 70.0526 47.0754C69.6535 47.0064 68.9919 46.9722 68.5467 46.9631ZM79.0067 34.0159C79.4188 33.9766 79.7854 34.2786 79.825 34.6907C79.8546 35.0006 79.8195 35.3275 79.7615 35.6018C79.7058 35.8655 79.6114 36.1634 79.4705 36.3899C79.3273 36.6201 79.1176 36.8791 78.8992 37.0657C78.5654 37.3509 78.1053 37.5477 77.8836 37.6448C77.3557 37.876 76.8444 37.745 76.5096 37.6047C76.3414 37.5342 76.1828 37.4457 76.0477 37.3625L75.7254 37.1506L75.6317 37.0862L75.5604 36.9983C75.3842 36.7775 75.2081 36.5285 75.0682 36.3108C74.9983 36.202 74.9327 36.0932 74.8797 35.9954C74.8478 35.9365 74.8008 35.8466 74.7645 35.7473L74.7322 35.6457L74.7186 35.593L74.7137 35.5383C74.6947 35.3563 74.6951 35.0666 74.6951 34.843C74.6951 34.4289 75.031 34.0931 75.4451 34.093C75.8592 34.0932 76.1951 34.4289 76.1951 34.843C76.1951 35.0354 76.1984 35.1866 76.202 35.2873C76.2317 35.3418 76.2752 35.4141 76.3299 35.4993C76.426 35.6488 76.5471 35.8188 76.6678 35.9758C76.8143 36.0747 76.9506 36.1636 77.0897 36.2219C77.2599 36.2931 77.2998 36.2631 77.2821 36.2707C77.5518 36.1526 77.7923 36.039 77.9256 35.925C78.0055 35.8566 78.1188 35.7228 78.1971 35.5969C78.1987 35.5939 78.2134 35.5666 78.2342 35.508C78.255 35.4494 78.2762 35.3752 78.2938 35.2922C78.3305 35.1187 78.3429 34.9505 78.3319 34.8342C78.2924 34.422 78.5945 34.0555 79.0067 34.0159ZM60.3475 34.1916C60.7311 34.0365 61.1684 34.2213 61.324 34.6047C61.3567 34.6852 61.3778 34.7431 61.3924 34.7834C61.404 34.8156 61.4067 34.8239 61.407 34.8254V34.8264C61.4999 35.01 61.5773 35.2271 61.6414 35.5256C61.6647 35.584 61.6864 35.6389 61.701 35.6789C61.7267 35.7496 61.7448 35.7983 61.7635 35.8401C61.7716 35.8582 61.7791 35.8711 61.784 35.8801C61.8595 35.9281 61.9263 35.9736 61.9735 36.0071C62.039 36.0537 62.0739 36.0775 62.1053 36.0959C62.1311 36.111 62.1452 36.116 62.1531 36.1184C62.1606 36.1206 62.1774 36.125 62.2098 36.1252C62.6448 36.1286 62.873 36.1357 63.0487 36.1233C63.1896 36.1133 63.2068 36.0951 63.2117 36.092C63.443 35.9469 63.6456 35.7038 63.7371 35.5237C63.9251 35.1532 63.9777 34.9795 64.0154 34.7844C64.0942 34.3779 64.4878 34.112 64.8944 34.1907C65.3008 34.2695 65.5667 34.6631 65.4881 35.0696C65.4173 35.4358 65.3072 35.7429 65.074 36.2024C64.8683 36.6076 64.4864 37.0628 64.0086 37.3625C63.7247 37.5406 63.4416 37.5991 63.1541 37.6194C62.9009 37.6372 62.57 37.6281 62.1981 37.6252C61.5189 37.62 61.0221 37.1691 60.9578 37.1301C60.6327 36.9348 60.4736 36.6311 60.3934 36.4514C60.3503 36.3548 60.3161 36.2593 60.2918 36.1926L60.2371 36.051L60.2029 35.9739L60.1863 35.8909C60.161 35.7638 60.1362 35.6752 60.1151 35.6125L60.0633 35.4895L60.0516 35.468L60.0418 35.4455C60.0137 35.3836 59.993 35.3265 59.9813 35.2942C59.9687 35.2593 59.9553 35.2222 59.9334 35.1682C59.7782 34.7845 59.9638 34.3472 60.3475 34.1916ZM93.7742 28.2112C93.8615 28.2204 93.9992 28.2395 94.1356 28.2952C94.3373 28.3776 94.5698 28.4862 94.8055 28.6741C95.041 28.8619 95.2469 29.1023 95.4442 29.4163C95.6329 29.7166 95.8568 30.1553 95.8924 30.7288C95.9159 31.107 95.9428 31.6994 95.786 32.2463C95.7805 32.2655 95.7349 32.4451 95.7039 32.5354C95.6568 32.6725 95.5735 32.8557 95.4041 33.0217C95.2292 33.193 94.9658 33.3384 94.7947 33.426C94.5984 33.5266 94.3866 33.6193 94.2381 33.6731C94.1017 33.7225 93.9601 33.7275 93.8279 33.6995C93.7425 33.7334 93.6492 33.7531 93.5516 33.7532C93.3496 33.7532 93.0936 33.7534 92.9197 33.7375L92.8807 33.7346L92.8426 33.7268C92.7207 33.7027 92.6255 33.6771 92.5496 33.6526L92.368 33.5842L92.2918 33.553L92.2244 33.5061C92.2205 33.5038 92.2087 33.4971 92.1834 33.4836C92.1474 33.4645 92.0801 33.4294 92.0067 33.386C91.8469 33.2916 91.6634 33.1618 91.4422 32.9514C91.3184 32.8336 91.0651 32.615 90.8973 32.344C90.8666 32.2944 90.727 32.0968 90.6385 31.8381C90.5443 31.5628 90.5073 31.2411 90.5506 30.8479C90.5914 30.4781 90.7032 30.0489 91.0291 29.5676C91.0586 29.524 91.0789 29.4837 91.1688 29.3362C91.2408 29.2179 91.3385 29.0651 91.4617 28.9143C91.6955 28.6285 92.1182 28.2313 92.7528 28.2102C93.0101 28.2016 93.2608 28.1931 93.4656 28.1955C93.5686 28.1968 93.675 28.2008 93.7742 28.2112ZM92.8026 29.7092C92.8008 29.7093 92.7989 29.7092 92.7957 29.7102C92.7916 29.7116 92.7817 29.716 92.7664 29.7258C92.7322 29.7478 92.683 29.79 92.6229 29.8635C92.5634 29.9362 92.5066 30.022 92.449 30.1164C92.4197 30.1647 92.3954 30.2075 92.366 30.2571C92.3403 30.3004 92.3062 30.3578 92.2713 30.4094C92.1046 30.6556 92.0606 30.8416 92.0418 31.012C92.0192 31.2167 92.0451 31.3129 92.0584 31.3518C92.0774 31.4071 92.0901 31.4205 92.1727 31.5539C92.2106 31.6153 92.2657 31.6641 92.4764 31.8645C92.616 31.9972 92.7082 32.0588 92.7694 32.095C92.806 32.1166 92.8363 32.1322 92.8875 32.1594C92.9103 32.1715 92.9393 32.1917 92.9744 32.2122C92.9884 32.2177 92.9989 32.2217 93.0115 32.2258C93.028 32.2311 93.0548 32.2373 93.0955 32.2463C93.1906 32.2517 93.3461 32.2532 93.5516 32.2532C93.6054 32.2532 93.6582 32.2599 93.7088 32.2707C93.7149 32.2683 93.7211 32.2652 93.7274 32.2629C93.8043 32.2351 93.9572 32.1694 94.1102 32.0911C94.185 32.0527 94.2517 32.0155 94.3026 31.9836H94.3045V31.9807C94.3132 31.9476 94.3283 31.8888 94.3446 31.8323C94.4221 31.5613 94.4192 31.206 94.3953 30.8215C94.3814 30.5981 94.2955 30.4065 94.1746 30.2141C94.0451 30.0079 93.9453 29.9063 93.8709 29.8469C93.8039 29.7935 93.7289 29.7536 93.6082 29.7024C93.5742 29.6992 93.5221 29.6964 93.4481 29.6955C93.2842 29.6936 93.071 29.7003 92.8026 29.7092Z" fill="#1914AE"/>
</svg>
