<svg width="358" height="590" viewBox="0 0 358 590" fill="none" xmlns="http://www.w3.org/2000/svg">
<rect width="358" height="590" fill="white"/>
<path d="M213.907 270.611C215.178 289.043 201.2 294.489 184.256 297.421C168.583 298.678 149.522 298.259 151.641 270.611C151.641 254.647 167.736 242.544 184.256 246.314C199.505 244.636 213.907 254.647 213.907 270.611Z" fill="#F1F1F1"/>
<ellipse cx="174.938" cy="297.421" rx="5.50665" ry="4.60802" fill="#DEDEDE"/>
<path d="M170.864 294.196C170.697 294.325 170.321 294.647 170.161 294.824C169.995 295.007 169.842 295.245 169.752 295.411C169.696 295.515 169.598 295.72 169.504 295.984C169.462 296.103 169.447 296.195 169.438 296.538C169.428 296.881 169.428 297.474 169.451 297.858C169.484 298.405 169.587 298.605 169.62 298.681C169.744 298.97 170.01 299.349 170.22 299.632C170.44 299.927 170.77 300.008 170.976 300.142C171.304 300.356 171.763 300.536 172.097 300.672C172.654 300.897 172.928 300.936 173.332 300.998C173.574 301.035 173.839 301.067 174.13 301.113C174.417 301.158 174.702 301.144 175.33 301.182C175.87 301.215 176.336 301.167 176.603 301.117C176.969 301.049 177.181 300.952 177.365 300.91C177.553 300.866 177.773 300.761 178.218 300.623C178.447 300.552 178.664 300.462 178.839 300.385C178.909 300.354 179.059 300.278 179.283 300.144C179.522 300.002 179.781 299.674 180.039 299.29C180.272 298.944 180.308 298.774 180.332 298.659C180.357 298.537 180.374 298.414 180.43 297.895C180.458 297.636 180.44 297.233 180.43 297.003C180.416 296.64 180.318 296.535 180.243 296.431C180.174 296.337 180.046 296.107 179.928 295.952C179.823 295.814 179.783 295.714 179.731 295.622C179.634 295.449 179.435 295.216 179.328 295.059C179.18 294.844 179.013 294.771 178.868 294.668C178.748 294.582 178.647 294.525 178.493 294.442C177.803 294.066 177.549 294.027 177.347 293.962C177.15 293.898 176.986 293.828 176.817 293.785C176.664 293.747 176.246 293.758 175.972 293.735C175.829 293.724 175.681 293.697 175.503 293.686C175.381 293.678 174.989 293.666 174.468 293.663C174.216 293.661 173.825 293.643 173.239 293.659C172.604 293.675 172.331 293.766 172.156 293.785C172.008 293.802 171.86 293.858 171.705 293.904C171.616 293.942 171.531 293.973 171.419 294.007C171.344 294.034 171.233 294.08 171.09 294.149" stroke="#BBBBBB" stroke-width="2" stroke-linecap="round"/>
<path d="M169.24 297.839C169.074 297.777 168.544 297.588 168.025 297.541C167.458 297.489 166.678 297.149 165.976 296.866C165.303 296.594 164.411 296.331 163.711 296.017C162.406 295.431 160.243 294.727 159.657 294.38C159.252 294.14 158.775 293.783 158.407 293.484C157.979 293.136 157.342 292.747 156.575 292.148C155.463 291.281 155.074 290.514 154.59 289.805C153.907 288.804 153.674 287.936 153.322 287.148C152.649 285.637 152.706 284.103 152.356 282.901C152.139 282.156 151.806 281.234 151.688 280.51C151.526 279.509 151.338 278.843 151.172 277.258C151.068 276.275 151.105 275.508 151.055 274.928C150.991 274.195 150.972 273.433 150.872 272.244C150.8 271.4 150.838 270.059 150.887 269.073C150.966 267.491 151.303 266.575 151.784 265.48C152.124 264.706 152.562 263.451 153.08 262.264C153.599 261.078 154.16 259.988 154.532 259.302C155.044 258.355 155.535 257.487 156.2 256.294C156.529 255.704 156.996 255.226 157.795 254.424C158.594 253.623 159.749 252.533 160.938 251.582C162.127 250.631 163.315 249.852 164.043 249.405C164.979 248.829 165.834 248.456 167.344 247.782C168.243 247.38 169.482 247.014 170.276 246.79C171.384 246.477 172.236 246.378 173.448 246.142C174.16 246.004 175.089 245.938 177.941 245.905C180.794 245.873 185.547 245.904 188.754 246.123C191.962 246.341 193.48 246.746 195.302 247.39C197.123 248.035 199.203 248.907 200.901 249.73C202.599 250.553 203.853 251.3 204.615 251.794C205.642 252.461 206.341 253.104 207.404 253.967C208.66 254.984 209.345 255.843 209.627 256.297C209.798 256.572 210.074 256.908 210.524 257.613C210.973 258.319 211.6 259.378 212.171 260.593C212.742 261.808 213.237 263.147 213.508 264.008C213.882 265.195 213.979 266.126 214.212 268.252C214.383 269.812 214.379 272.371 214.363 273.967C214.342 276.126 214.081 276.919 213.898 277.669C213.769 278.2 213.617 279.043 213.317 279.943C213.018 280.843 212.589 281.778 212.104 282.679C211.618 283.581 211.09 284.422 210.637 285.073C209.861 286.187 209.347 286.765 208.95 287.25C207.514 289.002 206.448 289.595 205.583 290.319C204.785 290.985 203.419 291.67 202.564 292.098C201.987 292.386 201.481 292.742 200.881 292.963C199.866 293.337 198.949 293.812 197.981 294.205C197.143 294.546 195.984 294.85 194.898 295.196C193.347 295.69 191.88 296.203 191.246 296.392C190.927 296.487 190.479 296.455 189.947 296.58C189.371 296.716 188.186 297.177 186.554 297.46C185.517 297.556 185.011 297.587 184.612 297.635C184.346 297.651 181.696 297.421 181.288 297.421" stroke="#BBBBBB" stroke-width="2" stroke-linecap="round"/>
<path d="M154.331 290.176C153.234 290.978 152.58 291.125 152.204 291.269C152.066 291.322 151.243 291.739 150.024 292.317C149.192 292.712 148.929 293.228 148.708 293.702C148.388 294.388 148.311 296.084 148.508 296.962C148.74 297.998 149.584 298.38 150.101 298.96C150.361 299.252 150.859 299.446 151.429 299.646C151.903 299.813 152.638 299.825 153.538 299.802C154.223 299.784 154.729 299.59 155.19 299.424C155.679 299.249 156.507 299 157.723 298.318C158.415 297.93 159.179 297.308 159.714 296.866C160.509 296.144 160.844 295.808 160.964 295.713C161.02 295.666 161.063 295.619 161.108 295.571" stroke="#BBBBBB" stroke-width="2" stroke-linecap="round"/>
<path d="M189.068 297.298C188.949 297.854 188.733 298.455 188.583 298.903C188.448 299.309 188.283 300.214 188.221 302.021C188.2 302.632 188.91 302.99 189.664 303.537C190.15 303.889 191.675 303.971 193.26 304.001C194.258 304.019 195.505 302.967 195.913 302.685C196.834 302.052 198.036 300.812 198.608 300.028C199.1 299.353 199.481 298.572 199.753 297.802C199.918 297.333 200.054 296.835 200.145 296.276C200.266 295.536 200.446 295.043 200.492 294.623C200.627 294.202 200.748 293.867 200.823 293.517C200.838 293.418 200.838 293.308 200.928 293.109" stroke="#BBBBBB" stroke-width="2" stroke-linecap="round"/>
<path d="M207.33 253.147C207.46 252.761 207.756 252.078 208.117 251.265C208.284 250.775 208.513 250.351 208.858 249.896C209.007 249.699 209.105 249.57 209.304 249.34" stroke="#BBBBBB" stroke-width="2" stroke-linecap="round"/>
<path d="M209.896 248.75C209.962 248.75 211.038 248.943 212.796 249.446C214.047 249.803 214.435 250.766 214.862 251.219C215.455 251.85 215.687 252.588 215.818 253.187C216.011 254.065 216.017 255.51 215.984 256.957C215.954 258.312 215.359 259.582 215.146 260.251C214.834 261.111 214.307 262.414 214.125 262.92C214.076 263.035 214.011 263.163 213.944 263.394" stroke="#BBBBBB" stroke-width="2" stroke-linecap="round"/>
<path d="M172.93 245.771C173.051 245.219 173.162 244.744 173.375 244.172C173.519 243.783 173.818 243.228 174.01 242.878C174.202 242.528 174.299 242.408 174.385 242.328C174.529 242.195 175.079 242.116 175.959 242.025C176.376 241.982 176.741 241.994 177.213 242.066C177.685 242.138 178.255 242.282 178.621 242.386C179.137 242.533 179.367 242.635 179.55 242.696C179.999 242.843 180.624 243.106 180.952 243.301C181.078 243.376 181.3 243.518 181.539 243.706C181.682 243.818 181.814 244.134 182.004 244.611C182.133 245.028 182.183 245.31 182.189 245.455C182.195 245.516 182.207 245.552 182.219 245.662" stroke="#BBBBBB" stroke-width="2" stroke-linecap="round"/>
<path d="M161.432 281.972C161.846 282.447 162.259 282.922 162.714 283.425C163.169 283.928 163.653 284.445 163.997 284.825C164.341 285.205 164.53 285.432 164.621 285.581C164.711 285.729 164.697 285.792 164.624 285.851C164.443 285.995 164.118 286.042 163.786 286.117C163.454 286.192 162.923 286.344 162.321 286.454C161.86 286.538 161.61 286.608 161.319 286.652C160.674 286.767 160.452 286.798 160.27 286.826C160.229 286.831 160.188 286.835 160.107 286.831" stroke="#BBBBBB" stroke-width="2" stroke-linecap="round"/>
<path d="M190.519 281.924C190.217 282.154 189.915 282.385 189.405 282.791C188.895 283.197 188.187 283.772 187.77 284.125C187.236 284.578 186.947 284.842 186.578 285.11C185.918 285.59 185.564 285.931 185.317 286.215C185.266 286.274 185.47 286.359 186.237 286.548C187.003 286.737 188.393 287.046 189.16 287.227C190.25 287.503 190.527 287.529 190.619 287.55C190.662 287.566 190.698 287.59 190.837 287.643" stroke="#BBBBBB" stroke-width="2" stroke-linecap="round"/>
<path d="M142.472 286.052C141.619 286.396 140.766 286.739 139.91 287.097C139.053 287.456 138.219 287.818 137.724 288.043C137.093 288.33 136.892 288.442 136.77 288.442C136.671 288.443 136.704 288.078 136.899 287.35C137.036 286.837 137.409 286.087 137.655 285.579C137.901 285.071 138.049 284.842 138.246 284.438C138.715 283.476 139.007 282.757 139.137 282.555C139.231 282.41 138.342 282.217 136.864 281.996C135.962 281.861 135.713 281.676 135.245 281.542C134.42 281.304 134.139 281.291 134.017 281.224C133.896 281.157 134.414 280.582 135.497 279.669C136.082 279.175 136.802 278.698 137.193 278.414C137.789 277.975 138.014 277.86 138.126 277.764C138.201 277.706 138.312 277.629 138.427 277.551" stroke="#BBBBBB" stroke-width="2" stroke-linecap="round"/>
<path d="M138.234 277.551C137.538 276.781 136.721 276 135.99 275.369C135.495 274.88 135.272 274.662 135.134 274.456C135.068 274.37 135.013 274.322 134.846 274.199" stroke="#BBBBBB" stroke-width="2" stroke-linecap="round"/>
<path d="M134.793 273.777C135 273.798 135.208 273.82 135.91 273.791C136.612 273.762 137.803 273.683 138.474 273.646C139.455 273.592 139.672 273.61 139.776 273.586C139.91 273.599 140.235 273.542 140.618 273.501C140.687 273.503 140.218 273.559 140.265 273.571" stroke="#BBBBBB" stroke-width="2" stroke-linecap="round"/>
<path d="M111.125 328.632C111.338 328.632 111.525 328.685 111.685 328.792C111.845 328.899 111.925 329.069 111.925 329.304V330.504H114.645C114.837 330.504 114.975 330.573 115.061 330.712C115.157 330.84 115.205 330.995 115.205 331.176C115.205 331.357 115.157 331.517 115.061 331.656C114.975 331.795 114.837 331.864 114.645 331.864H111.925V332.328C111.925 332.755 111.994 333.091 112.133 333.336C112.282 333.581 112.543 333.832 112.917 334.088C113.301 334.344 113.658 334.579 113.989 334.792C114.319 334.995 114.618 335.171 114.885 335.32C115.066 335.437 115.167 335.587 115.189 335.768C115.21 335.949 115.173 336.12 115.077 336.28C114.991 336.429 114.863 336.536 114.693 336.6C114.522 336.664 114.335 336.637 114.133 336.52C113.898 336.381 113.631 336.221 113.333 336.04C113.034 335.859 112.73 335.661 112.421 335.448C111.973 335.16 111.663 334.931 111.493 334.76C111.322 334.589 111.215 334.424 111.173 334.264H111.157C111.103 334.445 110.981 334.632 110.789 334.824C110.597 335.016 110.277 335.251 109.829 335.528C109.487 335.752 109.151 335.965 108.821 336.168C108.49 336.36 108.154 336.557 107.813 336.76C107.61 336.877 107.423 336.899 107.253 336.824C107.093 336.739 106.97 336.621 106.885 336.472C106.789 336.312 106.746 336.141 106.757 335.96C106.778 335.779 106.89 335.629 107.093 335.512C107.455 335.299 107.813 335.085 108.165 334.872C108.527 334.648 108.906 334.403 109.301 334.136C109.674 333.891 109.935 333.64 110.085 333.384C110.245 333.128 110.325 332.792 110.325 332.376V331.864H107.477C107.285 331.864 107.141 331.795 107.045 331.656C106.959 331.517 106.917 331.357 106.917 331.176C106.917 330.995 106.959 330.84 107.045 330.712C107.141 330.573 107.285 330.504 107.477 330.504H110.325V329.304C110.325 329.069 110.405 328.899 110.565 328.792C110.725 328.685 110.911 328.632 111.125 328.632ZM117.589 328.552C117.802 328.552 117.989 328.605 118.149 328.712C118.309 328.819 118.389 328.989 118.389 329.224V341.704C118.389 341.939 118.309 342.109 118.149 342.216C117.989 342.323 117.802 342.376 117.589 342.376C117.386 342.376 117.205 342.323 117.045 342.216C116.885 342.109 116.805 341.939 116.805 341.704V329.224C116.805 328.989 116.885 328.819 117.045 328.712C117.205 328.605 117.386 328.552 117.589 328.552ZM111.109 336.344C111.322 336.344 111.509 336.397 111.669 336.504C111.829 336.611 111.909 336.781 111.909 337.016V338.488C112.485 338.467 113.055 338.44 113.621 338.408C114.186 338.365 114.767 338.317 115.365 338.264C115.546 338.243 115.685 338.291 115.781 338.408C115.887 338.525 115.946 338.68 115.957 338.872C115.978 339.053 115.946 339.213 115.861 339.352C115.786 339.491 115.658 339.571 115.477 339.592C114.186 339.709 112.81 339.795 111.349 339.848C109.887 339.901 108.367 339.928 106.789 339.928C106.597 339.928 106.453 339.859 106.357 339.72C106.271 339.581 106.229 339.421 106.229 339.24C106.229 339.059 106.271 338.904 106.357 338.776C106.453 338.637 106.597 338.568 106.789 338.568C107.386 338.568 107.973 338.568 108.549 338.568C109.135 338.568 109.727 338.557 110.325 338.536V337.016C110.325 336.781 110.405 336.611 110.565 336.504C110.735 336.397 110.917 336.344 111.109 336.344ZM130.839 329.208C131.308 329.208 131.628 329.293 131.799 329.464C131.98 329.635 132.071 329.949 132.071 330.408V331.56C132.071 331.933 132.055 332.317 132.023 332.712C131.991 333.096 131.943 333.469 131.879 333.832C131.826 334.195 131.756 334.541 131.671 334.872C131.596 335.192 131.511 335.475 131.415 335.72L129.975 335.4C130.146 334.813 130.268 334.2 130.343 333.56C130.428 332.92 130.471 332.285 130.471 331.656V330.936C130.471 330.808 130.444 330.723 130.391 330.68C130.348 330.627 130.263 330.6 130.135 330.6H122.855C122.652 330.6 122.508 330.531 122.423 330.392C122.338 330.253 122.295 330.093 122.295 329.912C122.295 329.72 122.338 329.555 122.423 329.416C122.508 329.277 122.652 329.208 122.855 329.208H130.839ZM133.479 335.032C133.671 335.032 133.81 335.101 133.895 335.24C133.991 335.368 134.039 335.528 134.039 335.72C134.039 335.901 133.991 336.061 133.895 336.2C133.81 336.328 133.671 336.392 133.479 336.392H121.159C120.967 336.392 120.823 336.328 120.727 336.2C120.642 336.061 120.599 335.901 120.599 335.72C120.599 335.528 120.642 335.368 120.727 335.24C120.823 335.101 120.967 335.032 121.159 335.032H133.479ZM123.223 338.12C123.436 338.12 123.623 338.173 123.783 338.28C123.943 338.387 124.023 338.557 124.023 338.792V341.432C124.023 341.56 124.05 341.645 124.103 341.688C124.156 341.741 124.242 341.768 124.359 341.768H131.927C132.119 341.768 132.258 341.837 132.343 341.976C132.439 342.115 132.487 342.275 132.487 342.456C132.487 342.637 132.439 342.797 132.343 342.936C132.258 343.075 132.119 343.144 131.927 343.144H123.639C123.17 343.144 122.85 343.059 122.679 342.888C122.508 342.717 122.423 342.403 122.423 341.944V338.792C122.423 338.557 122.503 338.387 122.663 338.28C122.823 338.173 123.01 338.12 123.223 338.12ZM141.786 328.888C141.988 328.888 142.17 328.941 142.33 329.048C142.49 329.155 142.57 329.32 142.57 329.544V330.728H149.194V329.544C149.194 329.32 149.274 329.155 149.434 329.048C149.594 328.941 149.77 328.888 149.962 328.888C150.164 328.888 150.346 328.941 150.506 329.048C150.676 329.155 150.762 329.32 150.762 329.544V333.56C150.762 334.019 150.671 334.333 150.49 334.504C150.319 334.675 149.999 334.76 149.53 334.76H142.234C141.764 334.76 141.444 334.675 141.274 334.504C141.103 334.333 141.018 334.019 141.018 333.56V329.544C141.018 329.32 141.098 329.155 141.258 329.048C141.418 328.941 141.594 328.888 141.786 328.888ZM142.57 333.192C142.57 333.352 142.655 333.432 142.826 333.432H148.938C149.108 333.432 149.194 333.352 149.194 333.192V332.04H142.57V333.192ZM146.666 336.488H152.042C152.234 336.488 152.372 336.557 152.458 336.696C152.554 336.824 152.602 336.979 152.602 337.16C152.602 337.341 152.554 337.501 152.458 337.64C152.372 337.768 152.234 337.832 152.042 337.832H139.722C139.53 337.832 139.386 337.768 139.29 337.64C139.204 337.501 139.162 337.341 139.162 337.16C139.162 336.979 139.204 336.824 139.29 336.696C139.386 336.557 139.53 336.488 139.722 336.488H145.098V334.184H146.666V336.488ZM141.786 338.76C141.999 338.76 142.186 338.813 142.346 338.92C142.506 339.027 142.586 339.197 142.586 339.432V341.48C142.586 341.704 142.698 341.816 142.922 341.816H150.49C150.682 341.816 150.82 341.88 150.906 342.008C151.002 342.147 151.05 342.307 151.05 342.488C151.05 342.669 151.002 342.829 150.906 342.968C150.82 343.107 150.682 343.176 150.49 343.176H142.202C141.732 343.176 141.412 343.091 141.242 342.92C141.071 342.749 140.986 342.435 140.986 341.976V339.432C140.986 339.197 141.066 339.027 141.226 338.92C141.386 338.813 141.572 338.76 141.786 338.76ZM168.716 329.048C168.897 329.048 169.031 329.117 169.116 329.256C169.212 329.384 169.26 329.539 169.26 329.72C169.26 329.901 169.212 330.056 169.116 330.184C169.031 330.312 168.897 330.376 168.716 330.376H161.516C161.292 330.376 161.18 330.488 161.18 330.712V332.456C161.18 332.68 161.292 332.792 161.516 332.792H168.876C169.057 332.792 169.191 332.856 169.276 332.984C169.372 333.112 169.42 333.267 169.42 333.448C169.42 333.629 169.372 333.789 169.276 333.928C169.191 334.056 169.057 334.12 168.876 334.12H160.796C160.327 334.12 160.007 334.035 159.836 333.864C159.665 333.693 159.58 333.379 159.58 332.92V330.248C159.58 329.789 159.665 329.475 159.836 329.304C160.007 329.133 160.327 329.048 160.796 329.048H168.716ZM165.228 335.72H170.62C170.801 335.72 170.935 335.789 171.02 335.928C171.116 336.056 171.164 336.211 171.164 336.392C171.164 336.573 171.116 336.733 171.02 336.872C170.935 337 170.801 337.064 170.62 337.064H158.268C158.087 337.064 157.948 337 157.852 336.872C157.767 336.733 157.724 336.573 157.724 336.392C157.724 336.211 157.767 336.056 157.852 335.928C157.948 335.789 158.087 335.72 158.268 335.72H163.66V333.464H165.228V335.72ZM164.444 338.072C165.991 338.072 167.191 338.296 168.044 338.744C168.908 339.192 169.34 339.885 169.34 340.824C169.34 341.773 168.908 342.467 168.044 342.904C167.191 343.352 165.991 343.576 164.444 343.576C162.897 343.576 161.692 343.352 160.828 342.904C159.975 342.467 159.548 341.773 159.548 340.824C159.548 339.885 159.975 339.192 160.828 338.744C161.692 338.296 162.897 338.072 164.444 338.072ZM164.444 339.352C163.281 339.352 162.439 339.48 161.916 339.736C161.393 339.981 161.132 340.344 161.132 340.824C161.132 341.304 161.393 341.667 161.916 341.912C162.439 342.168 163.281 342.296 164.444 342.296C165.607 342.296 166.449 342.168 166.972 341.912C167.495 341.667 167.756 341.304 167.756 340.824C167.756 340.344 167.495 339.981 166.972 339.736C166.449 339.48 165.607 339.352 164.444 339.352ZM176.895 332.376C177.972 332.376 178.809 332.6 179.407 333.048C180.015 333.485 180.319 334.083 180.319 334.84C180.319 335.597 180.015 336.2 179.407 336.648C178.809 337.085 177.972 337.304 176.895 337.304C175.817 337.304 174.975 337.085 174.367 336.648C173.769 336.2 173.471 335.597 173.471 334.84C173.471 334.083 173.769 333.485 174.367 333.048C174.975 332.6 175.817 332.376 176.895 332.376ZM176.895 333.608C176.223 333.608 175.727 333.725 175.407 333.96C175.087 334.184 174.927 334.477 174.927 334.84C174.927 335.192 175.087 335.485 175.407 335.72C175.727 335.955 176.223 336.072 176.895 336.072C177.567 336.072 178.063 335.955 178.383 335.72C178.703 335.485 178.863 335.192 178.863 334.84C178.863 334.477 178.703 334.184 178.383 333.96C178.063 333.725 177.567 333.608 176.895 333.608ZM176.895 328.6C177.108 328.6 177.295 328.653 177.455 328.76C177.615 328.867 177.695 329.037 177.695 329.272V330.2H180.575C180.767 330.2 180.905 330.269 180.991 330.408C181.087 330.547 181.135 330.707 181.135 330.888C181.135 331.069 181.087 331.229 180.991 331.368C180.905 331.496 180.767 331.56 180.575 331.56H173.071C172.879 331.56 172.735 331.496 172.639 331.368C172.553 331.229 172.511 331.069 172.511 330.888C172.511 330.707 172.553 330.547 172.639 330.408C172.735 330.269 172.879 330.2 173.071 330.2H176.095V329.272C176.095 329.037 176.175 328.867 176.335 328.76C176.505 328.653 176.692 328.6 176.895 328.6ZM183.135 328.552C183.348 328.552 183.535 328.605 183.695 328.712C183.855 328.819 183.935 328.984 183.935 329.208V333.864H185.487C185.7 333.864 185.849 333.933 185.935 334.072C186.031 334.2 186.079 334.36 186.079 334.552C186.079 334.744 186.031 334.909 185.935 335.048C185.849 335.187 185.7 335.256 185.487 335.256H183.935V341.72C183.935 341.944 183.855 342.109 183.695 342.216C183.535 342.323 183.348 342.376 183.135 342.376C182.932 342.376 182.751 342.323 182.591 342.216C182.431 342.109 182.351 341.944 182.351 341.72V329.208C182.351 328.984 182.431 328.819 182.591 328.712C182.751 328.605 182.932 328.552 183.135 328.552ZM180.959 338.568C181.14 338.547 181.279 338.595 181.375 338.712C181.471 338.829 181.529 338.979 181.551 339.16C181.572 339.341 181.54 339.501 181.455 339.64C181.38 339.779 181.252 339.859 181.071 339.88C179.844 339.997 178.532 340.077 177.135 340.12C175.748 340.163 174.308 340.184 172.815 340.184C172.623 340.184 172.479 340.115 172.383 339.976C172.297 339.837 172.255 339.677 172.255 339.496C172.255 339.315 172.297 339.16 172.383 339.032C172.479 338.904 172.623 338.84 172.815 338.84C173.359 338.84 173.903 338.84 174.447 338.84C175.001 338.84 175.556 338.835 176.111 338.824V336.648H177.679V338.776C178.223 338.755 178.761 338.728 179.295 338.696C179.839 338.664 180.393 338.621 180.959 338.568ZM192.785 329.656C193.254 329.656 193.574 329.741 193.745 329.912C193.926 330.083 194.017 330.397 194.017 330.856V332.632C194.017 333.08 193.99 333.485 193.937 333.848C193.884 334.2 193.782 334.536 193.633 334.856C193.484 335.176 193.276 335.491 193.009 335.8C192.753 336.099 192.412 336.419 191.985 336.76C191.569 337.091 191.062 337.453 190.465 337.848C189.868 338.243 189.164 338.691 188.353 339.192C188.172 339.299 187.99 339.32 187.809 339.256C187.628 339.181 187.484 339.069 187.377 338.92C187.27 338.771 187.217 338.595 187.217 338.392C187.228 338.189 187.324 338.029 187.505 337.912C188.252 337.453 188.892 337.053 189.425 336.712C189.958 336.36 190.406 336.045 190.769 335.768C191.142 335.48 191.436 335.219 191.649 334.984C191.862 334.739 192.028 334.499 192.145 334.264C192.262 334.019 192.337 333.763 192.369 333.496C192.401 333.219 192.417 332.909 192.417 332.568V331.368C192.417 331.251 192.39 331.171 192.337 331.128C192.294 331.075 192.209 331.048 192.081 331.048H187.953C187.75 331.048 187.601 330.979 187.505 330.84C187.42 330.701 187.377 330.541 187.377 330.36C187.377 330.168 187.42 330.003 187.505 329.864C187.601 329.725 187.75 329.656 187.953 329.656H192.785ZM197.425 328.552C197.638 328.552 197.825 328.605 197.985 328.712C198.145 328.819 198.225 328.989 198.225 329.224V333.384H199.985C200.198 333.384 200.348 333.453 200.433 333.592C200.529 333.72 200.577 333.88 200.577 334.072C200.577 334.264 200.529 334.429 200.433 334.568C200.348 334.707 200.198 334.776 199.985 334.776H198.225V341.704C198.225 341.939 198.145 342.109 197.985 342.216C197.825 342.323 197.638 342.376 197.425 342.376C197.212 342.376 197.025 342.323 196.865 342.216C196.705 342.109 196.625 341.939 196.625 341.704V329.224C196.625 328.989 196.705 328.819 196.865 328.712C197.025 328.605 197.212 328.552 197.425 328.552ZM209.556 329.112C210.174 329.112 210.713 329.203 211.172 329.384C211.63 329.555 212.009 329.795 212.308 330.104C212.617 330.413 212.846 330.781 212.996 331.208C213.156 331.624 213.236 332.077 213.236 332.568C213.236 333.069 213.156 333.533 212.996 333.96C212.846 334.376 212.617 334.739 212.308 335.048C212.009 335.357 211.63 335.603 211.172 335.784C210.713 335.955 210.174 336.04 209.556 336.04C208.937 336.04 208.398 335.955 207.94 335.784C207.481 335.603 207.097 335.357 206.788 335.048C206.489 334.739 206.26 334.376 206.1 333.96C205.95 333.533 205.876 333.069 205.876 332.568C205.876 332.077 205.95 331.624 206.1 331.208C206.26 330.781 206.489 330.413 206.788 330.104C207.097 329.795 207.481 329.555 207.94 329.384C208.398 329.203 208.937 329.112 209.556 329.112ZM209.556 330.44C209.172 330.44 208.841 330.499 208.564 330.616C208.297 330.723 208.078 330.877 207.908 331.08C207.737 331.272 207.609 331.496 207.524 331.752C207.449 332.008 207.412 332.28 207.412 332.568C207.412 332.856 207.449 333.128 207.524 333.384C207.609 333.64 207.737 333.869 207.908 334.072C208.078 334.264 208.297 334.419 208.564 334.536C208.841 334.643 209.172 334.696 209.556 334.696C209.94 334.696 210.265 334.643 210.532 334.536C210.809 334.419 211.033 334.264 211.204 334.072C211.374 333.869 211.497 333.64 211.572 333.384C211.657 333.128 211.7 332.856 211.7 332.568C211.7 332.28 211.657 332.008 211.572 331.752C211.497 331.496 211.374 331.272 211.204 331.08C211.033 330.877 210.809 330.723 210.532 330.616C210.265 330.499 209.94 330.44 209.556 330.44ZM216.788 328.552C216.99 328.552 217.172 328.605 217.332 328.712C217.492 328.819 217.572 328.989 217.572 329.224V335.8C217.572 336.035 217.492 336.205 217.332 336.312C217.172 336.419 216.99 336.472 216.788 336.472C216.574 336.472 216.388 336.419 216.228 336.312C216.068 336.205 215.988 336.035 215.988 335.8V333.256H212.212V331.896H215.988V329.224C215.988 328.989 216.068 328.819 216.228 328.712C216.388 328.605 216.574 328.552 216.788 328.552ZM215.748 337.16C215.95 337.16 216.132 337.213 216.292 337.32C216.452 337.427 216.532 337.597 216.532 337.832V338.776C216.532 339 216.542 339.203 216.564 339.384C216.596 339.555 216.638 339.72 216.692 339.88C216.745 340.029 216.82 340.173 216.916 340.312C217.012 340.451 217.134 340.6 217.284 340.76C217.497 340.995 217.705 341.224 217.908 341.448C218.121 341.672 218.334 341.885 218.548 342.088C218.686 342.216 218.745 342.365 218.724 342.536C218.702 342.717 218.628 342.867 218.5 342.984C218.361 343.123 218.201 343.192 218.02 343.192C217.838 343.203 217.678 343.139 217.54 343C217.358 342.829 217.172 342.648 216.98 342.456C216.798 342.264 216.633 342.093 216.484 341.944C216.228 341.645 216.052 341.416 215.956 341.256C215.86 341.107 215.796 340.957 215.764 340.808H215.748C215.726 340.968 215.662 341.128 215.556 341.288C215.46 341.448 215.284 341.677 215.028 341.976C214.878 342.125 214.708 342.296 214.516 342.488C214.334 342.68 214.153 342.861 213.972 343.032C213.833 343.171 213.673 343.235 213.492 343.224C213.31 343.213 213.15 343.144 213.012 343.016C212.884 342.888 212.809 342.733 212.788 342.552C212.766 342.371 212.82 342.216 212.948 342.088C213.374 341.672 213.801 341.229 214.228 340.76C214.366 340.6 214.484 340.451 214.58 340.312C214.676 340.173 214.75 340.029 214.804 339.88C214.868 339.72 214.91 339.555 214.932 339.384C214.953 339.203 214.964 339 214.964 338.776V337.832C214.964 337.597 215.044 337.427 215.204 337.32C215.364 337.213 215.545 337.16 215.748 337.16ZM208.66 341.704C208.66 341.917 208.766 342.024 208.98 342.024H210.724C210.937 342.024 211.044 341.917 211.044 341.704V340.376H208.66V341.704ZM207.94 337.16C208.121 337.16 208.286 337.208 208.436 337.304C208.585 337.4 208.66 337.555 208.66 337.768V339.16H211.044V337.768C211.044 337.555 211.118 337.4 211.268 337.304C211.417 337.208 211.582 337.16 211.764 337.16C211.945 337.16 212.11 337.208 212.26 337.304C212.409 337.4 212.484 337.555 212.484 337.768V342.04C212.484 342.285 212.462 342.483 212.42 342.632C212.388 342.792 212.324 342.915 212.228 343C212.142 343.085 212.02 343.144 211.86 343.176C211.7 343.219 211.497 343.24 211.252 343.24H208.452C208.206 343.24 208.004 343.219 207.844 343.176C207.684 343.144 207.556 343.085 207.46 343C207.374 342.915 207.31 342.792 207.268 342.632C207.236 342.483 207.22 342.285 207.22 342.04V337.768C207.22 337.555 207.294 337.4 207.444 337.304C207.593 337.208 207.758 337.16 207.94 337.16ZM224.134 329.384C225.361 329.384 226.283 329.789 226.902 330.6C227.531 331.411 227.846 332.595 227.846 334.152C227.846 335.709 227.531 336.893 226.902 337.704C226.283 338.515 225.361 338.92 224.134 338.92C222.907 338.92 221.985 338.515 221.366 337.704C220.747 336.893 220.438 335.709 220.438 334.152C220.438 332.595 220.747 331.411 221.366 330.6C221.985 329.789 222.907 329.384 224.134 329.384ZM224.134 330.792C223.366 330.792 222.817 331.08 222.486 331.656C222.155 332.221 221.99 333.053 221.99 334.152C221.99 335.251 222.155 336.088 222.486 336.664C222.817 337.229 223.366 337.512 224.134 337.512C224.913 337.512 225.467 337.229 225.798 336.664C226.129 336.088 226.294 335.251 226.294 334.152C226.294 333.053 226.129 332.221 225.798 331.656C225.467 331.08 224.913 330.792 224.134 330.792ZM231.334 328.552C231.547 328.552 231.734 328.605 231.894 328.712C232.054 328.819 232.134 328.989 232.134 329.224V341.704C232.134 341.939 232.054 342.109 231.894 342.216C231.734 342.323 231.547 342.376 231.334 342.376C231.131 342.376 230.95 342.323 230.79 342.216C230.63 342.109 230.55 341.939 230.55 341.704V334.824H226.822V333.464H230.55V329.224C230.55 328.989 230.63 328.819 230.79 328.712C230.95 328.605 231.131 328.552 231.334 328.552ZM241.257 329.112C242.025 329.112 242.713 329.197 243.321 329.368C243.939 329.539 244.457 329.789 244.873 330.12C245.299 330.44 245.625 330.84 245.849 331.32C246.073 331.789 246.185 332.323 246.185 332.92C246.185 334.125 245.747 335.064 244.873 335.736C244.009 336.397 242.803 336.728 241.257 336.728C239.71 336.728 238.505 336.397 237.641 335.736C236.777 335.064 236.345 334.125 236.345 332.92C236.345 332.323 236.457 331.789 236.681 331.32C236.905 330.84 237.225 330.44 237.641 330.12C238.067 329.789 238.585 329.539 239.193 329.368C239.801 329.197 240.489 329.112 241.257 329.112ZM241.257 330.472C240.681 330.472 240.185 330.536 239.769 330.664C239.353 330.781 239.006 330.952 238.729 331.176C238.462 331.389 238.265 331.645 238.137 331.944C238.009 332.243 237.945 332.568 237.945 332.92C237.945 333.272 238.009 333.597 238.137 333.896C238.265 334.195 238.462 334.456 238.729 334.68C239.006 334.893 239.353 335.064 239.769 335.192C240.185 335.309 240.681 335.368 241.257 335.368C241.833 335.368 242.329 335.309 242.745 335.192C243.161 335.064 243.502 334.893 243.769 334.68C244.046 334.456 244.249 334.195 244.377 333.896C244.505 333.597 244.569 333.272 244.569 332.92C244.569 332.568 244.505 332.243 244.377 331.944C244.249 331.645 244.046 331.389 243.769 331.176C243.502 330.952 243.161 330.781 242.745 330.664C242.329 330.536 241.833 330.472 241.257 330.472ZM238.793 337.048C239.006 337.048 239.193 337.101 239.353 337.208C239.513 337.315 239.593 337.48 239.593 337.704V339.64H242.921V337.704C242.921 337.48 243.001 337.315 243.161 337.208C243.321 337.101 243.507 337.048 243.721 337.048C243.934 337.048 244.121 337.101 244.281 337.208C244.441 337.315 244.521 337.48 244.521 337.704V339.64H247.417C247.609 339.64 247.747 339.704 247.833 339.832C247.929 339.96 247.977 340.115 247.977 340.296C247.977 340.477 247.929 340.637 247.833 340.776C247.747 340.915 247.609 340.984 247.417 340.984H235.097C234.905 340.984 234.761 340.915 234.665 340.776C234.579 340.637 234.537 340.477 234.537 340.296C234.537 340.115 234.579 339.96 234.665 339.832C234.761 339.704 234.905 339.64 235.097 339.64H237.993V337.704C237.993 337.48 238.073 337.315 238.233 337.208C238.393 337.101 238.579 337.048 238.793 337.048ZM250.523 339.416C250.832 339.416 251.088 339.517 251.291 339.72C251.504 339.923 251.611 340.179 251.611 340.488C251.611 340.797 251.504 341.053 251.291 341.256C251.088 341.469 250.832 341.576 250.523 341.576C250.214 341.576 249.958 341.469 249.755 341.256C249.552 341.053 249.451 340.797 249.451 340.488C249.451 340.179 249.552 339.923 249.755 339.72C249.958 339.517 250.214 339.416 250.523 339.416Z" fill="#BBBBBB"/>
</svg>
