<svg width="144" height="134" viewBox="0 0 144 134" fill="none" xmlns="http://www.w3.org/2000/svg">
<path d="M50.4098 114.456C50.1751 114.456 49.9991 114.376 49.8818 114.216C49.7751 114.056 49.7218 113.859 49.7218 113.624C49.7218 113.4 49.7751 113.208 49.8818 113.048C49.9991 112.888 50.1751 112.808 50.4098 112.808H59.3378C59.5724 112.808 59.7431 112.888 59.8498 113.048C59.9671 113.208 60.0258 113.4 60.0258 113.624C60.0258 113.859 59.9671 114.056 59.8498 114.216C59.7431 114.376 59.5724 114.456 59.3378 114.456H55.9138V114.568C55.9138 114.792 56.0098 114.984 56.2018 115.144C56.3938 115.293 56.7298 115.453 57.2098 115.624C57.7431 115.805 58.2284 115.971 58.6658 116.12C59.1031 116.259 59.5298 116.387 59.9458 116.504C60.1698 116.568 60.3191 116.707 60.3938 116.92C60.4684 117.133 60.4631 117.352 60.3778 117.576C60.2924 117.8 60.1538 117.96 59.9618 118.056C59.7698 118.152 59.5458 118.163 59.2898 118.088C58.9378 117.992 58.5431 117.875 58.1058 117.736C57.6791 117.597 57.2524 117.453 56.8258 117.304C56.4844 117.187 56.1964 117.08 55.9618 116.984C55.7378 116.877 55.5511 116.781 55.4018 116.696C55.2524 116.6 55.1351 116.509 55.0498 116.424C54.9751 116.328 54.9218 116.232 54.8898 116.136H54.8738C54.8418 116.243 54.7831 116.344 54.6978 116.44C54.6231 116.536 54.5111 116.632 54.3618 116.728C54.2124 116.824 54.0204 116.925 53.7858 117.032C53.5511 117.128 53.2631 117.235 52.9218 117.352C52.4951 117.501 52.0631 117.645 51.6258 117.784C51.1991 117.923 50.8098 118.04 50.4578 118.136C50.2018 118.211 49.9778 118.2 49.7858 118.104C49.5938 118.008 49.4551 117.843 49.3698 117.608C49.2844 117.373 49.2738 117.149 49.3378 116.936C49.4124 116.712 49.5671 116.568 49.8018 116.504C50.2178 116.387 50.6444 116.259 51.0818 116.12C51.5191 115.971 52.0044 115.805 52.5378 115.624C53.0178 115.453 53.3538 115.293 53.5458 115.144C53.7378 114.984 53.8338 114.792 53.8338 114.568V114.456H50.4098ZM48.7938 120.504C48.5591 120.504 48.3831 120.424 48.2658 120.264C48.1591 120.104 48.1058 119.907 48.1058 119.672C48.1058 119.448 48.1591 119.256 48.2658 119.096C48.3831 118.936 48.5591 118.856 48.7938 118.856H53.8658V118.088C53.8658 117.789 53.9671 117.576 54.1698 117.448C54.3831 117.309 54.6178 117.24 54.8738 117.24C55.1298 117.24 55.3591 117.309 55.5618 117.448C55.7751 117.576 55.8818 117.789 55.8818 118.088V118.856H60.9538C61.1884 118.856 61.3591 118.936 61.4658 119.096C61.5831 119.256 61.6418 119.448 61.6418 119.672C61.6418 119.907 61.5831 120.104 61.4658 120.264C61.3591 120.424 61.1884 120.504 60.9538 120.504H48.7938ZM54.8738 127.848C53.6364 127.848 52.6658 127.693 51.9618 127.384C51.2684 127.085 50.9218 126.616 50.9218 125.976C50.9218 125.336 51.2684 124.867 51.9618 124.568C52.6658 124.259 53.6364 124.104 54.8738 124.104C56.1111 124.104 57.0764 124.259 57.7698 124.568C58.4738 124.867 58.8258 125.336 58.8258 125.976C58.8258 126.616 58.4738 127.085 57.7698 127.384C57.0764 127.693 56.1111 127.848 54.8738 127.848ZM54.8738 125.544C54.1164 125.544 53.5938 125.581 53.3058 125.656C53.0178 125.741 52.8738 125.848 52.8738 125.976C52.8738 126.104 53.0178 126.205 53.3058 126.28C53.5938 126.365 54.1164 126.408 54.8738 126.408C55.6311 126.408 56.1538 126.365 56.4418 126.28C56.7298 126.205 56.8738 126.104 56.8738 125.976C56.8738 125.848 56.7298 125.741 56.4418 125.656C56.1538 125.581 55.6311 125.544 54.8738 125.544ZM50.1378 123.608C49.9244 123.608 49.7644 123.533 49.6578 123.384C49.5618 123.224 49.5138 123.043 49.5138 122.84C49.5138 122.637 49.5618 122.461 49.6578 122.312C49.7644 122.152 49.9244 122.072 50.1378 122.072H53.8658V121.624C53.8658 121.347 53.9618 121.149 54.1538 121.032C54.3564 120.904 54.5964 120.84 54.8738 120.84C55.1511 120.84 55.3858 120.904 55.5778 121.032C55.7804 121.149 55.8818 121.347 55.8818 121.624V122.072H59.5298C59.7431 122.072 59.8978 122.152 59.9938 122.312C60.1004 122.461 60.1538 122.637 60.1538 122.84C60.1538 123.043 60.1004 123.224 59.9938 123.384C59.8978 123.533 59.7431 123.608 59.5298 123.608H50.1378ZM62.8283 118.152C62.8283 116.563 63.1483 115.357 63.7883 114.536C64.4283 113.715 65.3883 113.304 66.6683 113.304C67.9483 113.304 68.9083 113.715 69.5483 114.536C70.1883 115.357 70.5083 116.563 70.5083 118.152C70.5083 119.741 70.1883 120.947 69.5483 121.768C68.9083 122.589 67.9483 123 66.6683 123C65.3883 123 64.4283 122.589 63.7883 121.768C63.1483 120.947 62.8283 119.741 62.8283 118.152ZM68.5403 118.152C68.5403 117.139 68.4016 116.376 68.1243 115.864C67.8469 115.341 67.3616 115.08 66.6683 115.08C65.9749 115.08 65.4896 115.341 65.2123 115.864C64.9349 116.376 64.7963 117.139 64.7963 118.152C64.7963 119.165 64.9349 119.933 65.2123 120.456C65.4896 120.968 65.9749 121.224 66.6683 121.224C67.3616 121.224 67.8469 120.968 68.1243 120.456C68.4016 119.933 68.5403 119.165 68.5403 118.152ZM75.7403 117.192C75.9963 117.192 76.1829 117.277 76.3003 117.448C76.4176 117.619 76.4763 117.827 76.4763 118.072C76.4763 118.317 76.4176 118.531 76.3003 118.712C76.1829 118.883 75.9963 118.968 75.7403 118.968H74.2363V125.592C74.2363 125.891 74.1296 126.109 73.9163 126.248C73.7136 126.387 73.4789 126.456 73.2123 126.456C72.9456 126.456 72.7056 126.387 72.4923 126.248C72.2896 126.109 72.1883 125.891 72.1883 125.592V113.336C72.1883 113.037 72.2896 112.819 72.4923 112.68C72.7056 112.541 72.9456 112.472 73.2123 112.472C73.4789 112.472 73.7136 112.541 73.9163 112.68C74.1296 112.819 74.2363 113.037 74.2363 113.336V117.192H75.7403ZM78.9428 116.936C78.9428 116.317 79.0601 115.768 79.2948 115.288C79.5294 114.797 79.8601 114.387 80.2868 114.056C80.7241 113.715 81.2521 113.459 81.8708 113.288C82.5001 113.117 83.2094 113.032 83.9988 113.032C84.7774 113.032 85.4814 113.117 86.1108 113.288C86.7401 113.459 87.2681 113.715 87.6948 114.056C88.1321 114.387 88.4681 114.797 88.7028 115.288C88.9374 115.768 89.0548 116.317 89.0548 116.936C89.0548 117.565 88.9374 118.12 88.7028 118.6C88.4681 119.08 88.1321 119.491 87.6948 119.832C87.2681 120.163 86.7401 120.413 86.1108 120.584C85.4814 120.755 84.7774 120.84 83.9988 120.84C83.2094 120.84 82.5001 120.755 81.8708 120.584C81.2521 120.413 80.7241 120.163 80.2868 119.832C79.8601 119.491 79.5294 119.08 79.2948 118.6C79.0601 118.12 78.9428 117.565 78.9428 116.936ZM87.0068 116.936C87.0068 116.627 86.9481 116.339 86.8308 116.072C86.7241 115.805 86.5481 115.576 86.3028 115.384C86.0574 115.192 85.7428 115.043 85.3588 114.936C84.9854 114.819 84.5321 114.76 83.9988 114.76C83.4654 114.76 83.0068 114.819 82.6228 114.936C82.2494 115.043 81.9401 115.192 81.6948 115.384C81.4494 115.576 81.2681 115.805 81.1508 116.072C81.0441 116.339 80.9908 116.627 80.9908 116.936C80.9908 117.245 81.0441 117.533 81.1508 117.8C81.2681 118.067 81.4494 118.296 81.6948 118.488C81.9401 118.68 82.2494 118.835 82.6228 118.952C83.0068 119.059 83.4654 119.112 83.9988 119.112C84.5321 119.112 84.9854 119.059 85.3588 118.952C85.7428 118.835 86.0574 118.68 86.3028 118.488C86.5481 118.296 86.7241 118.067 86.8308 117.8C86.9481 117.533 87.0068 117.245 87.0068 116.936ZM77.9508 125.144C77.7054 125.144 77.5241 125.059 77.4068 124.888C77.2894 124.717 77.2308 124.515 77.2308 124.28C77.2308 124.056 77.2894 123.859 77.4068 123.688C77.5241 123.517 77.7054 123.432 77.9508 123.432H80.5748V121.944C80.5748 121.645 80.6761 121.427 80.8788 121.288C81.0814 121.149 81.3214 121.08 81.5988 121.08C81.8761 121.08 82.1161 121.149 82.3188 121.288C82.5214 121.427 82.6228 121.645 82.6228 121.944V123.432H85.3748V121.944C85.3748 121.645 85.4761 121.427 85.6788 121.288C85.8814 121.149 86.1214 121.08 86.3988 121.08C86.6761 121.08 86.9161 121.149 87.1188 121.288C87.3214 121.427 87.4228 121.645 87.4228 121.944V123.432H90.0468C90.2921 123.432 90.4734 123.517 90.5908 123.688C90.7081 123.859 90.7668 124.056 90.7668 124.28C90.7668 124.515 90.7081 124.717 90.5908 124.888C90.4734 125.059 90.2921 125.144 90.0468 125.144H77.9508ZM93.8413 123.304C94.1826 123.304 94.4706 123.421 94.7053 123.656C94.9399 123.891 95.0573 124.179 95.0573 124.52C95.0573 124.861 94.9399 125.149 94.7053 125.384C94.4706 125.619 94.1826 125.736 93.8413 125.736C93.4999 125.736 93.2119 125.619 92.9773 125.384C92.7426 125.149 92.6253 124.861 92.6253 124.52C92.6253 124.179 92.7426 123.891 92.9773 123.656C93.2119 123.421 93.4999 123.304 93.8413 123.304ZM93.8413 113.064C94.1826 113.064 94.4546 113.139 94.6573 113.288C94.8706 113.437 94.9719 113.688 94.9613 114.04L94.7053 121.352C94.6946 121.683 94.5986 121.912 94.4173 122.04C94.2466 122.168 94.0546 122.232 93.8413 122.232C93.6279 122.232 93.4306 122.168 93.2493 122.04C93.0786 121.912 92.9879 121.683 92.9773 121.352L92.7213 114.04C92.7106 113.688 92.8066 113.437 93.0093 113.288C93.2226 113.139 93.4999 113.064 93.8413 113.064Z" fill="white"/>
<g clip-path="url(#clip0_1475_28846)">
<rect y="2" width="144" height="100" rx="50" fill="#FFF4F4"/>
<path d="M96.662 63.2082C96.662 73.3572 87.4317 82.2912 76.4836 82.2912C57.3672 79.1107 54.8904 82.2912 57.0155 63.2082C55.9525 46.599 64.4481 50.8396 76.8388 44.832C87.7868 44.832 96.662 53.0593 96.662 63.2082Z" fill="#FFA2A2"/>
<path d="M96.662 63.2082C96.662 73.3572 87.4317 82.2912 76.4836 82.2912C57.3672 79.1107 54.8904 82.2912 57.0155 63.2082C55.9525 46.599 64.4481 50.8396 76.8388 44.832C87.7868 44.832 96.662 53.0593 96.662 63.2082Z" fill="#FFA2A2"/>
<path d="M96.662 63.2082C96.662 73.3572 87.4317 82.2912 76.4836 82.2912C57.3672 79.1107 54.8904 82.2912 57.0155 63.2082C55.9525 46.599 64.4481 50.8396 76.8388 44.832C87.7868 44.832 96.662 53.0593 96.662 63.2082Z" fill="#FFD8D8"/>
<path d="M100.199 52.6091C100.552 56.4976 96.7122 58.2633 92.4111 58.2633C88.1101 58.2633 84.6234 55.7318 84.6234 52.6091C84.6234 49.4864 79.3128 45.896 92.4111 46.9549C96.7122 46.9549 100.199 49.4864 100.199 52.6091Z" fill="#FFD8D8"/>
<path d="M99.1403 61.2771C99.4934 65.1656 95.6536 66.9313 91.3526 66.9313C87.0515 66.9313 83.5649 64.3998 83.5649 61.2771C83.5649 58.1543 78.2542 54.564 91.3526 55.6228C95.6536 55.6228 99.1403 58.1543 99.1403 61.2771Z" fill="#FFD8D8"/>
<path d="M97.7262 69.0505C98.0794 72.939 94.2395 74.7047 89.9385 74.7047C85.6375 74.7047 82.1508 72.1732 82.1508 69.0505C82.1508 65.9278 76.8401 62.3374 89.9385 63.3963C94.2395 63.3963 97.7262 65.9278 97.7262 69.0505Z" fill="#FFD8D8"/>
<path d="M95.6012 75.4138C95.9544 79.3023 92.1145 81.068 87.8135 81.068C76.483 82.9991 80.0258 78.5365 80.0258 75.4138C80.0258 72.291 74.7151 68.7007 87.8135 69.7596C92.1145 69.7596 94.8903 72.3974 95.6012 75.4138Z" fill="#FFD8D8"/>
<ellipse cx="75.0696" cy="69.9227" rx="3.89385" ry="3.1805" fill="#FFA2A2"/>
<ellipse cx="75.0696" cy="69.9227" rx="3.89385" ry="3.1805" fill="#FFA2A2"/>
<ellipse cx="75.0696" cy="69.9227" rx="3.89385" ry="3.1805" fill="#FFA2A2"/>
<path d="M86.7466 39.1749C86.7466 46.5914 82.8556 52.2502 79.6669 52.6036C52.4127 52.2502 71.8823 49.4231 75.4195 39.1749C75.4195 31.7584 69.7548 26.0995 79.6669 25.7461C83.5769 25.7461 86.7466 31.7584 86.7466 39.1749Z" fill="#FFD8D8"/>
<path d="M57.0149 64.974C57.0149 75.1229 61.971 83.3502 51.7052 83.3502C41.0858 84.7637 43.5632 76.1822 43.5632 66.0333C43.5632 55.8844 41.4394 46.2433 50.997 48.7172C61.9707 45.1842 57.0149 54.8251 57.0149 64.974Z" fill="#FFA3A3"/>
<ellipse cx="50.6415" cy="77.343" rx="2.12392" ry="2.12033" fill="#FFE4E4"/>
<path d="M76.8301 25.2432C77.8263 24.9306 79.1081 25.1336 80.0723 25.4072C80.628 25.565 81.0813 25.8383 81.4961 26.043C81.9886 26.286 82.3353 26.5518 82.6729 26.8057C83.1996 27.2018 83.739 27.6781 84.2725 28.376C84.815 29.0859 85.1216 29.8533 85.2891 30.1494C85.708 30.8899 85.9687 31.4269 86.1553 31.8359C86.3517 32.2665 86.4384 32.4887 86.5459 32.6855C86.7466 33.0529 86.8237 33.4617 86.873 33.7959C86.9279 34.1677 86.9486 34.4251 87.0127 34.6641C87.137 35.1268 87.1844 35.9045 87.209 36.7314C87.2237 37.2243 87.3366 38.1612 87.3115 39.249C87.2787 40.6716 87.0062 41.3391 86.8428 42.0518C86.5187 43.4652 86.1912 44.4916 85.9746 45.0527C85.9216 45.334 85.8552 45.6103 85.7979 45.8398C85.7334 46.0981 85.6913 46.2702 85.6768 46.376C85.6759 46.3887 85.6737 46.4023 85.6729 46.417C86.7456 46.4169 87.3943 46.4169 87.6221 46.4082C87.9091 46.3972 88.6396 46.357 89.9531 46.4082C90.7756 46.4403 91.4537 46.5049 91.9629 46.5645C92.5056 46.628 92.7822 46.6745 92.915 46.6836C93.2512 46.7066 93.5236 46.7657 93.749 46.8164C93.9817 46.8687 94.1412 46.9061 94.3154 46.918C94.6826 46.943 94.9815 47.0393 95.4238 47.1885C96.3687 47.5071 97.3975 47.7949 98.0938 48.1416C99.0676 48.6266 99.8414 49.3711 100.264 50.0117C100.509 50.3838 100.622 50.7524 100.749 51.2227C100.925 51.8746 100.98 52.7582 101.001 53.5586C101.016 54.1232 100.811 54.6787 100.574 55.1309C100.333 55.5909 100.029 55.9984 99.7803 56.2842C99.6485 56.4355 99.3448 56.8574 98.8027 57.2441C98.5397 57.4318 98.228 57.6053 97.8311 57.7607C97.9394 57.8269 98.042 57.891 98.1377 57.9541C98.4962 58.1903 98.8044 58.4304 99 58.6689C99.2917 59.025 99.4331 59.4812 99.4678 59.5537C99.5747 59.7771 99.6336 60.0626 99.6758 60.335C99.72 60.6202 99.7554 60.9586 99.792 61.3154C99.8639 62.0162 99.803 62.5124 99.7334 62.8301C99.5902 63.4839 99.2886 64.1618 98.9854 64.6123C98.6984 65.0385 98.3945 65.3513 98.1533 65.5762C97.9811 65.7366 97.7589 65.8537 97.5557 65.9453C97.3597 66.0337 97.1359 66.1163 96.9121 66.1973C97.1754 66.4688 97.3614 66.7124 97.4717 66.8721C97.8581 67.4318 97.9647 68.0916 98.0303 68.6445C98.0342 68.6774 98.0396 68.6999 98.0518 68.7734C98.0624 68.838 98.0739 68.9194 98.0801 69.0186C98.0926 69.2198 98.0799 69.4641 98.0195 69.8008C97.9772 70.0368 97.8964 70.355 97.8311 70.6709C97.7446 71.0887 97.6563 71.3635 97.5605 71.5723C97.4732 71.7627 97.3562 71.9298 97.333 71.9688C97.2101 72.1753 96.9782 72.4978 96.5615 72.9395C95.9643 73.5724 95.4455 73.9222 95.2686 74.0166C95.292 74.0334 95.3157 74.0504 95.3369 74.0713C95.4385 74.1715 95.4928 74.2774 95.5244 74.3643C95.5907 74.4476 95.7218 74.6297 95.8076 74.8662L95.8535 75.0137L95.8633 75.0557L95.8672 75.0996C95.9227 75.7205 95.8274 76.6895 95.7246 77.3867C95.6692 77.7627 95.5806 78.0873 95.4287 78.4053C95.2486 78.7823 94.8291 79.56 94.2754 80.0029C94.0138 80.2121 93.6327 80.531 93.1836 80.6719C92.7425 80.8102 92.4405 80.8952 91.876 81.0801C91.3762 81.2437 91.0215 81.3418 90.6709 81.3887C90.5188 81.409 90.403 81.4466 90.0439 81.5225C89.7189 81.5911 89.2724 81.6706 88.5898 81.7432C87.9496 81.8112 87.223 81.9839 85.8496 82.041C85.4977 82.0556 85.0532 82.0596 84.6348 82.0625C84.2087 82.0654 83.8115 82.0674 83.5352 82.0791C83.2222 82.0924 82.9733 82.1232 82.6387 82.1621C82.3035 82.2011 81.9018 82.2456 81.3115 82.2793C80.3425 82.3347 79.5815 82.3953 79.2129 82.4033C79.0068 82.4078 78.7906 82.4277 78.3721 82.4502C77.9693 82.4719 77.4191 82.4933 76.6064 82.499C75.3189 82.5081 73.0894 82.5206 71.8955 82.46C71.2313 82.4262 70.828 82.3908 70.5576 82.3613C70.2551 82.3283 70.1891 82.3131 70.0879 82.3076C69.5296 82.2775 68.8388 82.2099 67.9385 82.0293C67.4511 81.9315 67.0322 81.862 66.71 81.8105C66.4166 81.7637 66.1396 81.7232 66.0098 81.6875C65.5328 81.5565 64.7549 81.3653 64.0801 81.2051C63.4229 81.0491 62.9498 80.9569 62.54 80.8662C62.1464 80.7791 61.8038 80.6921 61.4961 80.5479C61.3672 80.4875 61.1312 80.4138 60.7217 80.2695C60.3417 80.1356 59.8694 79.9581 59.3643 79.7139C59.0624 79.5679 58.7959 79.3993 58.5439 79.2109C58.5425 79.2433 58.5401 79.2744 58.5391 79.3037C58.5233 79.765 58.5087 80.2008 58.4678 80.5615C58.4293 80.9006 58.3588 81.2819 58.166 81.5664C58.0432 81.7477 57.89 81.9874 57.7314 82.1855C57.5696 82.3877 57.3524 82.6122 57.0566 82.7461C56.6696 82.9213 56.3694 83.0721 56.0791 83.2139C55.7903 83.3549 55.5115 83.488 55.1885 83.6162C54.8881 83.7354 54.5832 83.7883 54.3066 83.8262C54.0122 83.8665 53.7669 83.8886 53.4814 83.9424C53.1169 84.011 52.3737 84.0113 51.5664 83.9834C50.7308 83.9545 49.7478 83.8909 48.8555 83.8076C48.6206 83.7857 48.3768 83.7746 48.1182 83.7637C47.864 83.7529 47.5928 83.7422 47.3252 83.7207C46.7923 83.6779 46.2159 83.5895 45.6846 83.332C45.3651 83.1772 45.0123 83.0174 44.7158 82.8457C44.4138 82.6708 44.1074 82.4493 43.8848 82.1328C43.6112 81.7437 43.406 81.1825 43.2646 80.5205C43.1211 79.8476 43.0342 79.0272 43.0225 78.0879C43.0065 76.8034 42.9805 74.4051 43.0234 73.1025C43.0482 72.3524 43.0922 71.8159 43.1377 71.2002C43.1831 70.586 43.2315 69.8787 43.2666 68.7695C43.2983 67.7686 43.2976 66.2927 43.2812 65.4131C43.2653 64.5549 43.2328 64.2372 43.2168 62.3809C43.2008 60.5175 43.2012 57.1674 43.251 55.1201C43.3009 53.0659 43.3986 52.3253 43.502 51.7119C43.5453 51.4545 43.5858 51.1526 43.6328 50.9189C43.6817 50.676 43.7548 50.4037 43.9043 50.165C44.4804 49.246 45.2666 48.6287 45.79 48.292C45.9293 48.2024 46.0931 48.1836 46.2412 48.2236C46.3827 48.0492 46.6207 47.969 46.8477 48.041C46.9608 48.0769 47.0433 48.091 47.1025 48.0967C47.1602 48.1021 47.2068 48.1004 47.25 48.0957V48.0967C47.8076 48.0163 48.4162 47.9536 50.334 47.8916C51.3937 47.7376 52.5754 47.7243 53.7061 47.626C54.1489 47.5875 54.6449 47.5442 55.1064 47.5391C55.5571 47.534 56.0396 47.5631 56.4355 47.7041C56.6731 47.7887 56.9903 47.9179 57.292 48.0967C57.5841 48.2699 57.9171 48.5219 58.123 48.8721C58.2204 49.038 58.2925 49.2736 58.3467 49.4932C58.4054 49.7311 58.4585 50.0152 58.498 50.3164C58.5761 50.9102 58.6102 51.623 58.5166 52.2148C58.5069 52.2758 58.4928 52.345 58.4766 52.4209C58.6015 52.2819 58.7327 52.1377 58.8701 51.9902C59.544 51.2674 60.0201 50.8772 60.4395 50.6113C60.6387 50.485 61.3937 50.0433 62.502 49.4775C63.0545 49.1955 63.3189 49.0271 63.9365 48.7734C64.4449 48.5646 65.3815 48.153 65.9951 47.8516C66.5984 47.5552 66.8361 47.3846 67.4053 47.0518C67.6817 46.8901 68.0227 46.6992 68.3623 46.5088C68.7048 46.3167 69.0476 46.1243 69.3359 45.9551C69.8054 45.6796 70.1805 45.4443 70.4893 45.249C70.7918 45.0577 71.0494 44.8925 71.2617 44.7734C71.5186 44.6294 71.7736 44.4027 72.0391 44.125L72.8125 43.2754C72.9347 43.1479 73.0439 42.9689 73.1572 42.7412C73.2489 42.557 73.3892 42.2374 73.498 42.0391C73.5586 41.9287 73.6233 41.7239 73.6943 41.4189C73.728 41.2743 73.7604 41.1205 73.7939 40.96C73.827 40.8016 73.8618 40.6352 73.8984 40.4756C74.006 40.0073 74.1077 39.6459 74.1826 39.3662C74.2601 39.0768 74.3022 38.8961 74.3164 38.7422C74.3556 38.3167 74.4281 37.8539 74.4658 36.4033C74.4894 35.4966 74.3809 34.1188 74.2822 33.4424C74.2553 33.2583 74.1727 33.0339 74.0508 32.625C73.9395 32.2519 73.8208 31.7911 73.7852 31.2646C73.743 30.6411 73.6224 29.5396 73.5586 28.9277C73.5171 28.5301 73.6592 28.097 73.79 27.7666C73.9267 27.4218 74.1106 27.0535 74.2266 26.8018L74.292 26.6816C74.4618 26.4182 74.7343 26.2666 74.9092 26.1719C75.1626 26.0347 75.3783 25.9391 75.6494 25.7686C76.0135 25.5395 76.3284 25.4006 76.8301 25.2432ZM55.1191 48.6631C54.7078 48.6677 54.2556 48.7068 53.8037 48.7461C52.5226 48.8575 51.5109 48.8542 50.4717 49.0078L50.4404 49.0127L50.4082 49.0137C48.4532 49.0763 47.8971 49.1385 47.3916 49.2119L47.3721 49.2139C47.1566 49.2374 46.8913 49.2306 46.5283 49.1182C46.4918 49.1629 46.4496 49.2054 46.3984 49.2383C45.9565 49.5226 45.3153 50.0322 44.8574 50.7627C44.8186 50.8248 44.777 50.9346 44.7354 51.1416C44.6918 51.358 44.6655 51.5773 44.6113 51.8984C44.5195 52.4431 44.4241 53.1271 44.375 55.1475C44.3257 57.1763 44.3258 60.512 44.3418 62.3711C44.3579 64.2366 44.3892 64.4774 44.4062 65.3916C44.4229 66.2847 44.423 67.7801 44.3906 68.8047C44.3549 69.9346 44.3059 70.6589 44.2598 71.2832C44.2138 71.9056 44.1713 72.4172 44.1475 73.1396C44.1056 74.4108 44.1314 76.7799 44.1475 78.0742C44.1584 78.9555 44.2403 79.6995 44.3652 80.2852C44.4925 80.8814 44.6563 81.2742 44.8047 81.4854C44.8912 81.6084 45.0374 81.7314 45.2803 81.8721C45.5289 82.016 45.8142 82.1446 46.1748 82.3193C46.518 82.4856 46.9291 82.5605 47.415 82.5996C47.6567 82.619 47.9037 82.6286 48.165 82.6396C48.422 82.6505 48.6928 82.6626 48.96 82.6875C49.8318 82.7689 50.793 82.8312 51.6055 82.8594C52.4456 82.8885 53.0554 82.8779 53.2734 82.8369C53.5943 82.7765 53.9156 82.7435 54.1533 82.7109C54.4087 82.6759 54.603 82.6375 54.7725 82.5703C55.0538 82.4586 55.3014 82.3416 55.585 82.2031C55.8671 82.0653 56.1867 81.9055 56.5928 81.7217C56.6513 81.6952 56.7353 81.6301 56.8535 81.4824C56.9749 81.3307 57.0826 81.1586 57.2344 80.9346C57.2597 80.897 57.3123 80.7629 57.3496 80.4346C57.3845 80.1272 57.3988 79.7404 57.415 79.2656C57.4407 78.5173 57.5767 77.283 57.5449 75.5645C57.5301 74.7656 57.4444 74.0524 57.3506 73.4102C57.2593 72.785 57.1516 72.1786 57.1094 71.668C57.0413 70.845 57.0121 70.1467 56.9805 69.4727C56.9488 68.7971 56.9148 68.1419 56.8359 67.3857C56.5719 64.8543 56.6685 64.4332 56.6221 63.3057C56.5791 62.2633 56.6052 60.356 56.6211 59.2969C56.6478 57.5232 56.7694 56.433 56.8652 55.0469C56.9166 54.3044 57.0355 53.6644 57.1504 53.1494C57.2734 52.5982 57.3673 52.279 57.4053 52.0391C57.475 51.5982 57.4541 51.0057 57.3828 50.4629C57.3478 50.1962 57.302 49.9538 57.2549 49.7627C57.2313 49.6671 57.208 49.5879 57.1875 49.5283C57.167 49.469 57.1544 49.4436 57.1533 49.4414C57.0883 49.331 56.944 49.1985 56.7178 49.0645C56.5011 48.9361 56.258 48.8347 56.0586 48.7637C55.8582 48.6923 55.5414 48.6584 55.1191 48.6631ZM79.7656 26.4902C78.8464 26.2293 77.8348 26.1069 77.167 26.3164C76.7352 26.4519 76.5135 26.5543 76.249 26.7207C75.9393 26.9156 75.6171 27.0676 75.4443 27.1611C75.2571 27.2625 75.2323 27.3016 75.2402 27.2881C75.103 27.585 74.9557 27.8794 74.8359 28.1816C74.7085 28.5035 74.6673 28.7096 74.6777 28.8105C74.7398 29.4059 74.8633 30.5382 74.9072 31.1885C74.9346 31.5928 75.0268 31.9614 75.1289 32.3037C75.2203 32.6101 75.3529 32.9883 75.3955 33.2803C75.5017 34.008 75.6163 35.4506 75.5908 36.4326C75.5519 37.929 75.4743 38.435 75.4365 38.8457C75.4124 39.1076 75.345 39.3751 75.2695 39.6572C75.1913 39.9494 75.097 40.2844 74.9951 40.7275C74.9615 40.874 74.9292 41.0283 74.8955 41.1895C74.8623 41.3484 74.8271 41.5145 74.79 41.6738C74.7195 41.9766 74.6273 42.3196 74.4844 42.5801C74.3786 42.7728 74.3145 42.9417 74.165 43.2422C74.0373 43.499 73.8675 43.8018 73.625 44.0547C73.5137 44.1708 73.3971 44.3017 73.2666 44.4482C73.1387 44.5918 72.9984 44.7487 72.8516 44.9023C72.5613 45.206 72.2151 45.5287 71.8115 45.7549C71.6326 45.8552 71.4092 45.9979 71.0908 46.1992C70.7784 46.3968 70.3906 46.64 69.9053 46.9248C69.6058 47.1006 69.2526 47.2993 68.9121 47.4902C68.5691 47.6826 68.2382 47.8672 67.9727 48.0225C67.4573 48.3238 67.1432 48.541 66.4912 48.8613C65.8494 49.1766 64.8883 49.5978 64.3633 49.8135C63.8027 50.0437 63.6302 50.1643 63.0127 50.4795C61.9233 51.0356 61.202 51.4601 61.042 51.5615C60.7279 51.7607 60.3248 52.0805 59.6934 52.7578C59.244 53.2398 58.8713 53.6659 58.6016 54.0078C58.4665 54.179 58.3618 54.3235 58.2881 54.4385C58.2515 54.4956 58.2251 54.5419 58.207 54.5771C58.1894 54.6116 58.1836 54.6271 58.1836 54.627C58.1513 54.7359 58.0885 54.8271 58.0078 54.8955C58.0009 54.9708 57.9927 55.0474 57.9873 55.125C57.8889 56.5492 57.7722 57.5805 57.7461 59.3135C57.73 60.3854 57.7048 62.2554 57.7461 63.2588C57.7967 64.4874 57.6953 64.7779 57.9551 67.2686C58.0374 68.0583 58.0726 68.7404 58.1045 69.4199C58.1364 70.1006 58.1644 70.7766 58.2305 71.5752C58.2689 72.0393 58.3645 72.5676 58.4639 73.248C58.5607 73.9115 58.6539 74.6774 58.6699 75.5439C58.6858 76.4015 58.6591 77.1683 58.626 77.8027C59.0551 78.2062 59.4124 78.4874 59.8545 78.7012C60.3061 78.9195 60.7339 79.0815 61.0957 79.209C61.428 79.3261 61.7772 79.4373 61.9736 79.5293C62.1584 79.6159 62.3932 79.6813 62.7832 79.7676C63.1574 79.8504 63.676 79.9528 64.3398 80.1104C65.0155 80.2707 65.811 80.4659 66.3086 80.6025C66.3099 80.6029 66.314 80.6041 66.3203 80.6055C66.3293 80.6074 66.3418 80.6093 66.3574 80.6123C66.3894 80.6184 66.4306 80.6262 66.4824 80.6348C66.588 80.6523 66.7204 80.6727 66.8867 80.6992C67.2151 80.7517 67.6515 80.8237 68.1602 80.9258C69.0007 81.0944 69.6369 81.1569 70.1484 81.1846C70.2847 81.1919 70.4665 81.219 70.6787 81.2422C70.9238 81.2689 71.3053 81.3031 71.9521 81.3359C73.1058 81.3945 75.2974 81.3832 76.5986 81.374C77.3935 81.3684 77.9259 81.3469 78.3115 81.3262C78.6808 81.3063 78.9602 81.2843 79.1875 81.2793C79.5321 81.2718 80.2253 81.2147 81.2471 81.1562C81.8065 81.1243 82.1844 81.0826 82.5088 81.0449C82.8332 81.0072 83.1259 80.9704 83.4883 80.9551C83.7895 80.9423 84.2106 80.9404 84.627 80.9375C85.0507 80.9346 85.4743 80.9306 85.8027 80.917C87.15 80.8609 87.6686 80.7093 88.4707 80.624C89.116 80.5554 89.5249 80.4824 89.8115 80.4219C90.0639 80.3685 90.318 80.3006 90.5215 80.2734C90.766 80.2408 91.0407 80.1695 91.5254 80.0107C92.0942 79.8245 92.4379 79.7268 92.8467 79.5986C93.0535 79.5338 93.2612 79.3729 93.5723 79.124C93.9095 78.8542 94.2392 78.286 94.4141 77.9199C94.5072 77.7248 94.5694 77.5134 94.6123 77.2227C94.7103 76.5577 94.7826 75.7364 94.749 75.25C94.7145 75.1385 94.6694 75.1151 94.5586 74.9551L94.5254 74.9072L94.5029 74.8525C94.4929 74.8286 94.4848 74.8072 94.4795 74.791C94.3822 74.6505 94.356 74.4754 94.4014 74.3164C94.2086 74.3645 93.9913 74.4148 93.7471 74.4561C93.4267 74.5101 92.7966 74.5698 91.9893 74.5635C91.8282 74.5622 91.7186 74.5569 91.6084 74.5518C91.5014 74.5467 91.3917 74.5421 91.2188 74.5391C90.8616 74.5329 90.2516 74.5329 89.7568 74.5566C89.2658 74.5802 88.9063 74.6269 88.6543 74.6533C88.3919 74.6809 88.283 74.6816 88.1738 74.6816C87.8635 74.6815 87.6117 74.4294 87.6113 74.1191C87.6113 73.8085 87.8633 73.5568 88.1738 73.5566C88.248 73.5566 88.3179 73.5572 88.5371 73.5342C88.7671 73.51 89.1713 73.4581 89.7031 73.4326C90.2313 73.4073 90.8678 73.4076 91.2383 73.4141C91.4285 73.4174 91.5517 73.4236 91.6611 73.4287C91.7676 73.4337 91.8596 73.4374 91.998 73.4385C92.7555 73.4444 93.3186 73.3875 93.5605 73.3467C94.2295 73.2338 94.6012 73.0964 94.7432 73.0234C94.7406 73.0247 94.7673 73.0098 94.8252 72.9707C94.8809 72.9331 94.9573 72.8784 95.0488 72.8066C95.2321 72.6629 95.4751 72.4511 95.7432 72.167C96.1183 71.7694 96.2953 71.5127 96.3662 71.3936C96.4647 71.2281 96.4818 71.2262 96.5381 71.1035C96.5863 70.9983 96.6531 70.8124 96.7295 70.4434C96.8174 70.0185 96.8686 69.8448 96.9121 69.6025C96.9603 69.334 96.9628 69.1816 96.957 69.0889C96.9541 69.0417 96.9488 69.001 96.9414 68.9561C96.9355 68.9202 96.921 68.8439 96.9131 68.7773C96.8485 68.2331 96.761 67.8223 96.5459 67.5107C96.4242 67.3345 96.1731 67.007 95.7842 66.6787C95.6671 66.5799 95.5784 66.5538 95.3848 66.5693C95.3418 66.5727 95.2997 66.5695 95.2588 66.5635C94.9798 66.6167 94.5272 66.6958 93.8281 66.7646C93.0874 66.8375 91.9916 66.8229 91.4004 66.8154C90.7961 66.8078 90.6004 66.7777 90.415 66.7129C90.2915 66.6697 90.2012 66.6258 90.1328 66.5928C89.8533 66.4577 89.7354 66.1214 89.8701 65.8418C90.0051 65.5623 90.3415 65.4446 90.6211 65.5791C90.6867 65.6108 90.7277 65.6299 90.7861 65.6504C90.7932 65.6529 90.8036 65.659 90.875 65.667C90.9624 65.6767 91.1198 65.6867 91.415 65.6904C92.0279 65.6982 93.0538 65.71 93.7188 65.6445C94.7441 65.5435 95.1284 65.4372 95.3877 65.3955C95.6709 65.35 96.0268 65.3217 96.4805 65.1582C96.7231 65.0707 96.9269 64.9947 97.0928 64.9199C97.2662 64.8417 97.3522 64.785 97.3867 64.7529C97.5901 64.5633 97.8284 64.3161 98.0518 63.9844C98.2753 63.6523 98.5216 63.1062 98.6348 62.5898C98.6796 62.385 98.7322 62.008 98.6729 61.4297C98.6355 61.0658 98.6034 60.758 98.5645 60.5068C98.5236 60.2431 98.4828 60.1011 98.4531 60.0391C98.4185 59.9667 98.3889 59.8931 98.3662 59.835C98.3415 59.7717 98.322 59.7203 98.2988 59.667C98.2552 59.5669 98.2057 59.4744 98.1299 59.3818C98.0462 59.2799 97.8563 59.1161 97.5186 58.8936C97.1978 58.6823 96.7779 58.4406 96.2637 58.1689C96.2086 58.178 96.1528 58.1897 96.0957 58.1982C94.7521 58.4004 92.8151 58.4607 90.875 58.5225C90.5648 58.5321 90.305 58.2887 90.2949 57.9785C90.285 57.6681 90.5294 57.4084 90.8398 57.3984C92.8085 57.3358 94.6665 57.2759 95.9287 57.0859C97.1652 56.8998 97.7647 56.6025 98.1494 56.3281C98.5522 56.0407 98.7372 55.7681 98.9316 55.5449C99.1366 55.3097 99.3862 54.9745 99.5781 54.6084C99.7743 54.2341 99.8836 53.8783 99.876 53.5879C99.8548 52.7838 99.8003 52.0233 99.6631 51.5156C99.5383 51.0541 99.462 50.84 99.3242 50.6309C99.0099 50.1541 98.3869 49.545 97.5928 49.1494C96.9885 48.8485 96.1143 48.6089 95.0645 48.2549C94.6082 48.101 94.4406 48.0538 94.2393 48.04C93.9616 48.0211 93.711 47.961 93.502 47.9141C93.2858 47.8655 93.0833 47.8225 92.8379 47.8057C92.6762 47.7945 92.285 47.7356 91.832 47.6826C91.3444 47.6255 90.6961 47.5629 89.9092 47.5322C88.6423 47.4828 87.9488 47.5223 87.666 47.5332C87.3892 47.5438 86.6022 47.543 85.3613 47.543C85.3132 47.543 85.2672 47.5338 85.2227 47.5225C85.1194 47.5605 85.0043 47.5703 84.8896 47.541C84.5891 47.464 84.4079 47.1581 84.4844 46.8574C84.5446 46.6215 84.5412 46.4723 84.5566 46.2676L84.5576 46.2529L84.5596 46.2373C84.5838 46.0508 84.6495 45.7977 84.707 45.5674C84.7692 45.3185 84.8342 45.0542 84.8809 44.7949L84.8906 44.7402L84.9111 44.6895C85.1015 44.2056 85.4214 43.216 85.7461 41.7998C85.9346 40.9776 86.1571 40.495 86.1865 39.2236C86.2115 38.1425 86.1048 37.4311 86.085 36.7646C86.0595 35.9092 86.0107 35.2689 85.9268 34.9561C85.8401 34.6331 85.8008 34.2376 85.7598 33.96C85.7132 33.6445 85.6573 33.4065 85.5586 33.2256C85.4257 32.9823 85.2966 32.6639 85.1318 32.3027C84.9572 31.9199 84.7106 31.4121 84.3096 30.7031C84.0243 30.1987 83.8691 29.7009 83.3789 29.0596C82.9234 28.4635 82.4646 28.0574 81.9961 27.7051C81.6511 27.4456 81.3833 27.2418 80.998 27.0518C80.4749 26.7937 80.1899 26.6107 79.7656 26.4902ZM50.6357 74.7266L50.9277 74.7383L50.9561 74.7412L50.9844 74.7471C51.0982 74.7692 51.1858 74.7922 51.2559 74.8145L51.4238 74.876L51.4814 74.8994L51.5312 74.9336C51.5365 74.9372 51.5493 74.9451 51.5928 74.9678C51.6309 74.9876 51.6937 75.0196 51.7627 75.0596C51.9106 75.1454 52.0835 75.2656 52.2959 75.4639C52.431 75.59 52.6613 75.7857 52.8145 76.0283C52.8514 76.0869 52.9767 76.2611 53.0576 76.4932C53.143 76.7383 53.1799 77.031 53.1387 77.3984C53.1001 77.7416 52.9953 78.1373 52.6865 78.585C52.6538 78.6325 52.6255 78.6841 52.541 78.8203C52.4702 78.9344 52.3772 79.078 52.2607 79.2178C52.0369 79.4864 51.659 79.8256 51.1074 79.8438C50.8469 79.8522 50.5991 79.8607 50.3984 79.8584C50.2977 79.8572 50.1975 79.8532 50.1064 79.8438C50.0243 79.8353 49.9086 79.8188 49.7979 79.7744C49.6026 79.6961 49.3882 79.597 49.1719 79.4277C48.9553 79.2582 48.7607 79.0377 48.5703 78.7402C48.3887 78.4565 48.1798 78.0507 48.1465 77.5234C48.1228 77.1489 48.0982 76.5902 48.2471 76.0811C48.2576 76.0449 48.2973 75.8901 48.3271 75.8047C48.3697 75.6831 48.4412 75.5299 48.584 75.3926C48.7371 75.2454 48.9776 75.1133 49.1504 75.0264C49.3424 74.9298 49.5475 74.8418 49.6875 74.792C49.8096 74.7486 49.9365 74.7525 50.0508 74.79C50.1284 74.7495 50.2159 74.7247 50.3096 74.7246C50.4137 74.7246 50.5277 74.7249 50.6357 74.7266ZM50.0645 75.8516C49.9776 75.8824 49.8161 75.9509 49.6562 76.0312C49.5776 76.0708 49.5055 76.1103 49.4482 76.1455C49.4189 76.1635 49.3983 76.1778 49.3848 76.1875C49.38 76.2023 49.3745 76.223 49.3662 76.2539C49.3569 76.2884 49.3428 76.3428 49.3271 76.3965C49.2398 76.6952 49.2456 77.0729 49.2695 77.4521C49.286 77.7123 49.3875 77.9306 49.5176 78.1338C49.6561 78.3502 49.77 78.4674 49.8652 78.542C49.956 78.6129 50.0536 78.6629 50.1953 78.7207C50.2011 78.7216 50.2104 78.7233 50.2227 78.7246C50.2653 78.729 50.327 78.7324 50.4111 78.7334C50.5816 78.7354 50.8016 78.7285 51.0703 78.7197C51.1464 78.7172 51.252 78.6705 51.3965 78.4971C51.4641 78.4159 51.5254 78.3235 51.585 78.2275C51.6307 78.1538 51.7094 78.0208 51.7607 77.9463C51.9477 77.6753 51.9991 77.463 52.0205 77.2725C52.0456 77.0491 52.0188 76.9284 51.9961 76.8633C51.9689 76.7854 51.9402 76.7509 51.8633 76.6289C51.8093 76.5434 51.7296 76.4741 51.5283 76.2861C51.3775 76.1454 51.2726 76.0763 51.1982 76.0332C51.1566 76.0091 51.1217 75.9916 51.0723 75.9658C51.0461 75.9521 51.0138 75.931 50.9766 75.9092C50.9543 75.9003 50.937 75.8937 50.915 75.8867C50.8894 75.8786 50.8518 75.869 50.7959 75.8574C50.6912 75.8507 50.5211 75.8496 50.3096 75.8496C50.2479 75.8496 50.1893 75.8367 50.1338 75.8184C50.1113 75.83 50.089 75.8428 50.0645 75.8516ZM78.5459 74.2051C78.6888 73.9295 79.028 73.8222 79.3037 73.9648C79.5793 74.1078 79.6877 74.4469 79.5449 74.7227C79.4127 74.978 79.2652 75.2619 79.1162 75.4893C78.9571 75.732 78.7997 75.9068 78.6113 76.0723C78.4171 76.2427 78.1915 76.4025 77.8125 76.5693C77.4444 76.7314 76.9354 76.8999 76.2881 76.9932C75.6542 77.0844 74.9158 77.1018 74.4912 77.1016C74.0545 77.1013 73.8707 77.0838 73.6133 77.0107C73.4181 76.9553 73.1453 76.8671 72.9326 76.7705C72.6797 76.6556 72.4605 76.455 72.2676 76.2363C72.069 76.0112 71.8627 75.7251 71.6445 75.3916C71.4747 75.1317 71.5478 74.7833 71.8076 74.6133C72.0676 74.4434 72.4159 74.5165 72.5859 74.7764C72.7915 75.0906 72.9642 75.3254 73.1113 75.4922C73.2635 75.6646 73.3572 75.7277 73.3975 75.7461C73.5354 75.8087 73.746 75.8793 73.9199 75.9287C73.9896 75.9485 74.0344 75.9572 74.0996 75.9639C74.1758 75.9716 74.2875 75.9764 74.4922 75.9766C74.9011 75.9768 75.5752 75.9595 76.1279 75.8799C76.6673 75.8022 77.0779 75.6639 77.3594 75.54C77.6294 75.4211 77.758 75.3251 77.8691 75.2275C77.986 75.125 78.0754 75.0262 78.1758 74.873C78.2865 74.7042 78.4053 74.4767 78.5459 74.2051ZM74.6748 66.499C75.0997 66.4218 75.5524 66.3699 76.0488 66.4307C76.2959 66.4609 76.5508 66.5144 76.8105 66.5947C77.0386 66.6653 77.2377 66.7279 77.3994 66.7861C77.5534 66.8416 77.7135 66.9064 77.8438 66.9902C78.0902 67.1489 78.4702 67.3918 78.7783 67.8662C78.9406 68.1161 79.1544 68.4908 79.2637 68.7451C79.4226 69.1151 79.4766 69.4584 79.4297 69.9053C79.3886 70.2963 79.3318 70.686 79.1816 71.0566C79.0973 71.2647 78.9655 71.5514 78.7002 71.875C78.4426 72.1892 78.0732 72.5236 77.6035 72.7959C77.1432 73.0627 76.6125 73.2576 76.2588 73.3633C75.8571 73.4832 75.6266 73.503 75.1367 73.4932C74.6814 73.4841 73.9301 73.4493 73.4238 73.3633C72.8701 73.2691 72.5905 73.1131 72.3389 72.9375C72.1481 72.8044 71.9115 72.634 71.7285 72.4287C71.4478 72.1137 71.2031 71.7567 71.0273 71.3525C70.927 71.1217 70.8547 70.8889 70.8613 70.4531C70.8673 70.0664 70.9338 69.5077 70.9854 69.1934C71.0122 69.0294 71.0386 68.9119 71.0664 68.8193C71.0939 68.728 71.1259 68.6556 71.1289 68.6484C71.2124 68.4387 71.4213 68.0405 72.0479 67.6367C72.4038 67.4074 72.9041 67.1765 73.3496 66.9697C73.4062 66.9434 73.4656 66.9294 73.5244 66.9229C73.5276 66.9212 73.5311 66.9196 73.5342 66.918V66.917C73.7216 66.8178 74.1163 66.6662 74.6113 66.5146L74.6426 66.5049L74.6748 66.499ZM75.9121 67.5479C75.5858 67.5079 75.2688 67.5371 74.9062 67.6016C74.4449 67.7443 74.1472 67.8662 74.0605 67.9121L74.0566 67.9131C74.0207 67.9318 74.0096 67.9377 73.9961 67.9453C73.9876 67.9501 73.9768 67.9565 73.959 67.9688C73.8681 68.0312 73.7647 68.0625 73.6621 68.0664C73.2568 68.2554 72.9011 68.425 72.6572 68.582C72.4443 68.7193 72.3269 68.8388 72.2637 68.918C72.203 68.994 72.1817 69.0446 72.1738 69.0645C72.1515 69.1205 72.1528 69.1128 72.1436 69.1436C72.1342 69.175 72.1177 69.2419 72.0957 69.376C72.0491 69.6606 71.9911 70.1597 71.9863 70.4707C71.9841 70.6154 71.9951 70.6978 72.0059 70.749C72.016 70.7972 72.0303 70.837 72.0596 70.9043C72.1793 71.1796 72.3517 71.4376 72.5684 71.6807C72.6535 71.7762 72.7883 71.8802 72.9824 72.0156C73.0641 72.0726 73.1274 72.1117 73.209 72.1465C73.2927 72.1821 73.4151 72.2204 73.6123 72.2539C74.0302 72.3249 74.7099 72.3592 75.1592 72.3682C75.5737 72.3764 75.6801 72.3617 75.9365 72.2852C76.241 72.1942 76.6815 72.0304 77.0391 71.8232C77.387 71.6215 77.6542 71.3765 77.8301 71.1621C77.998 70.9572 78.0785 70.7822 78.1387 70.6338C78.2262 70.4177 78.2724 70.161 78.3115 69.7881C78.3392 69.5247 78.3104 69.3755 78.2305 69.1895C78.1558 69.0156 77.9784 68.6994 77.835 68.4785C77.6677 68.2211 77.4688 68.0875 77.2344 67.9365C77.2174 67.9257 77.159 67.8957 77.0176 67.8447C76.8834 67.7964 76.7083 67.7401 76.4785 67.6689C76.2848 67.609 76.0951 67.5703 75.9121 67.5479ZM66.6123 56.3457C67.0705 56.1487 67.5215 56.256 67.8369 56.3857C68.1538 56.5162 68.436 56.7123 68.5918 56.8164L68.6621 56.8633L68.7158 56.9297C68.8892 57.143 69.0635 57.3833 69.2012 57.5938C69.27 57.6989 69.3332 57.8018 69.3838 57.8936C69.4262 57.9704 69.4859 58.0855 69.5156 58.1992L69.5264 58.2402L69.5312 58.2822C69.5492 58.4512 69.5479 58.7255 69.5479 58.9512C69.5478 59.2618 69.296 59.5137 68.9854 59.5137C68.6749 59.5135 68.4229 59.2617 68.4229 58.9512C68.4229 58.7431 68.4194 58.5754 68.4141 58.4688C68.4096 58.4602 68.405 58.4495 68.3984 58.4375C68.3656 58.378 68.3187 58.3 68.2598 58.21C68.1555 58.0506 68.0238 57.869 67.8926 57.7031C67.7351 57.5982 67.5757 57.4943 67.4092 57.4258C67.2149 57.3458 67.1111 57.3555 67.0566 57.3789C66.7913 57.493 66.5211 57.616 66.3613 57.75C66.2635 57.8322 66.1374 57.9796 66.0508 58.1162C66.0253 58.1569 65.9716 58.2826 65.9307 58.4727C65.8913 58.6554 65.8764 58.8391 65.8896 58.9756C65.9197 59.2846 65.6937 59.5605 65.3848 59.5908C65.0757 59.6208 64.7997 59.394 64.7695 59.085C64.7418 58.8005 64.7752 58.4959 64.8311 58.2363C64.8853 57.9846 64.9745 57.7128 65.1006 57.5137C65.237 57.2984 65.4363 57.0575 65.6387 56.8877C65.9488 56.6276 66.3832 56.4442 66.6123 56.3457ZM82.3164 56.3867C82.9272 56.3913 83.3417 56.7761 83.4629 56.8477C83.7389 57.0103 83.8801 57.2674 83.957 57.4365C83.9976 57.5257 84.0311 57.6153 84.0557 57.6816L84.1143 57.833L84.1416 57.8916L84.1543 57.9541C84.1811 58.0859 84.2073 58.181 84.2314 58.251L84.2949 58.3984L84.3037 58.415L84.3115 58.4316C84.3365 58.4856 84.355 58.5352 84.3672 58.5684C84.3801 58.6034 84.3947 58.6418 84.418 58.6982C84.5364 58.9853 84.3994 59.315 84.1123 59.4336C83.8253 59.5518 83.4965 59.4148 83.3779 59.1279C83.3464 59.0516 83.326 58.9973 83.3115 58.958C83.2966 58.9176 83.2937 58.9101 83.291 58.9043V58.9033C83.203 58.7341 83.128 58.5288 83.0645 58.2344C83.0401 58.1754 83.0176 58.117 83.001 58.0723C82.9753 58.0031 82.9552 57.9499 82.9336 57.9023C82.9039 57.837 82.8844 57.8139 82.8809 57.8096C82.7939 57.7576 82.7172 57.7039 82.6602 57.6641C82.5951 57.6187 82.5538 57.5905 82.5137 57.5674C82.4523 57.5321 82.4 57.5124 82.3086 57.5117C81.8792 57.5085 81.6356 57.5017 81.4482 57.5146C81.2865 57.5259 81.2337 57.5488 81.1924 57.5742C80.9277 57.7372 80.7012 58.004 80.5957 58.208C80.4013 58.5841 80.3416 58.7705 80.2998 58.9824C80.2396 59.2869 79.9442 59.4856 79.6396 59.4258C79.335 59.3657 79.1364 59.0693 79.1963 58.7646C79.2638 58.4224 79.3676 58.1345 79.5967 57.6914C79.7903 57.317 80.1534 56.8928 80.6025 56.6162C80.8517 56.4629 81.101 56.4103 81.3701 56.3916C81.6144 56.3747 81.9337 56.3838 82.3164 56.3867ZM68.3877 18.876C68.6034 18.6511 68.9598 18.6412 69.1836 18.8545C69.9108 19.5494 70.6491 20.2545 71.1445 20.7568C71.6479 21.2673 71.8835 21.5526 72.1201 21.8389C72.3172 22.0774 72.2824 22.4322 72.042 22.6309C71.8015 22.8294 71.4461 22.7971 71.249 22.5586C71.0234 22.2855 70.8109 22.0266 70.3389 21.5479C69.8579 21.0601 69.1345 20.3696 68.4023 19.6699C68.1789 19.4563 68.1724 19.1009 68.3877 18.876ZM88.043 17.8779C88.2619 17.6561 88.6191 17.6524 88.8398 17.8691C89.0602 18.0859 89.0613 18.4421 88.8428 18.6641L85.6172 21.9365C85.3983 22.1585 85.0411 22.1631 84.8203 21.9463C84.5997 21.7295 84.5987 21.3734 84.8174 21.1514L88.043 17.8779ZM78.4893 16.0029C78.5121 16.0053 78.704 16.0191 78.8623 16.1826C78.9781 16.3025 79.0169 16.4437 79.0322 16.5039C79.0676 16.643 79.0882 16.8515 79.1055 17.1572C79.1414 17.7935 79.1678 19.0443 79.165 19.833C79.1622 20.637 79.1291 20.9437 79.0928 21.2559C79.0568 21.564 78.7772 21.7868 78.4688 21.7539C78.16 21.7204 77.938 21.4432 77.9736 21.1348C78.0056 20.8599 78.0374 20.5954 78.04 19.8379C78.0428 19.0646 78.0158 17.8364 77.9814 17.2285C77.973 17.0786 77.9642 16.9722 77.9561 16.8975C77.9549 16.8867 77.9542 16.8763 77.9531 16.8672C77.8852 16.7622 77.8496 16.6354 77.8652 16.501C77.9012 16.1924 78.1804 15.9695 78.4893 16.0029Z" fill="#B61D1D"/>
</g>
<defs>
<clipPath id="clip0_1475_28846">
<rect y="2" width="144" height="100" rx="50" fill="white"/>
</clipPath>
</defs>
</svg>
